%FSLAX24Y24*%
%MOIN*%
G70*
G01*
G75*
G04 Layer_Physical_Order=3*
G04 Layer_Color=6736896*
%ADD10C,0.0100*%
G04:AMPARAMS|DCode=11|XSize=63mil|YSize=98.4mil|CornerRadius=15.7mil|HoleSize=0mil|Usage=FLASHONLY|Rotation=0.000|XOffset=0mil|YOffset=0mil|HoleType=Round|Shape=RoundedRectangle|*
%AMROUNDEDRECTD11*
21,1,0.0630,0.0669,0,0,0.0*
21,1,0.0315,0.0984,0,0,0.0*
1,1,0.0315,0.0157,-0.0335*
1,1,0.0315,-0.0157,-0.0335*
1,1,0.0315,-0.0157,0.0335*
1,1,0.0315,0.0157,0.0335*
%
%ADD11ROUNDEDRECTD11*%
G04:AMPARAMS|DCode=12|XSize=33.5mil|YSize=17.7mil|CornerRadius=4.4mil|HoleSize=0mil|Usage=FLASHONLY|Rotation=0.000|XOffset=0mil|YOffset=0mil|HoleType=Round|Shape=RoundedRectangle|*
%AMROUNDEDRECTD12*
21,1,0.0335,0.0089,0,0,0.0*
21,1,0.0246,0.0177,0,0,0.0*
1,1,0.0089,0.0123,-0.0044*
1,1,0.0089,-0.0123,-0.0044*
1,1,0.0089,-0.0123,0.0044*
1,1,0.0089,0.0123,0.0044*
%
%ADD12ROUNDEDRECTD12*%
%ADD13O,0.0335X0.0110*%
%ADD14O,0.0110X0.0335*%
%ADD15R,0.2028X0.2028*%
%ADD16R,0.1850X0.1850*%
%ADD17O,0.0110X0.0315*%
%ADD18O,0.0315X0.0110*%
%ADD19O,0.0276X0.0098*%
%ADD20O,0.0098X0.0276*%
%ADD21O,0.0532X0.0177*%
%ADD22R,0.0142X0.0142*%
%ADD23R,0.0110X0.0110*%
G04:AMPARAMS|DCode=24|XSize=59.1mil|YSize=102.4mil|CornerRadius=0mil|HoleSize=0mil|Usage=FLASHONLY|Rotation=230.000|XOffset=0mil|YOffset=0mil|HoleType=Round|Shape=Rectangle|*
%AMROTATEDRECTD24*
4,1,4,-0.0202,0.0555,0.0582,-0.0103,0.0202,-0.0555,-0.0582,0.0103,-0.0202,0.0555,0.0*
%
%ADD24ROTATEDRECTD24*%

%ADD25R,0.0551X0.0630*%
%ADD26R,0.0630X0.0748*%
%ADD27R,0.0532X0.0157*%
%ADD28R,0.0138X0.0098*%
%ADD29R,0.0098X0.0187*%
%ADD30R,0.0217X0.0394*%
%ADD31R,0.0118X0.0193*%
%ADD32R,0.0118X0.0209*%
%ADD33R,0.0787X0.0472*%
%ADD34R,0.0335X0.0157*%
%ADD35R,0.0157X0.0335*%
%ADD36R,0.0276X0.0354*%
%ADD37R,0.0197X0.0315*%
%ADD38O,0.0315X0.0157*%
%ADD39R,0.2362X0.1890*%
%ADD40R,0.0236X0.0157*%
%ADD41R,0.0197X0.0354*%
%ADD42R,0.0157X0.0236*%
%ADD43R,0.0354X0.0197*%
%ADD44C,0.0060*%
%ADD45C,0.0050*%
%ADD46C,0.0120*%
%ADD47C,0.0181*%
%ADD48C,0.0080*%
%ADD49C,0.0150*%
%ADD50C,0.1260*%
%ADD51C,0.0630*%
%ADD52C,0.0180*%
%ADD53C,0.0197*%
%ADD54C,0.0276*%
%ADD55C,0.0260*%
%ADD56C,0.0220*%
%ADD57C,0.0200*%
D44*
X2034Y1816D02*
X2550Y1300D01*
X1866Y1816D02*
X2034D01*
X1632Y2050D02*
X1866Y1816D01*
X1400Y2050D02*
X1632D01*
X2800Y1450D02*
X4650D01*
X5000Y1800D01*
X-400Y-2650D02*
X300D01*
X450Y-100D02*
X750Y200D01*
X300Y-2650D02*
X450Y-2500D01*
Y-100D01*
X750Y200D02*
Y1800D01*
X-100Y700D02*
Y2650D01*
X-500Y300D02*
X-100Y700D01*
X-500Y-2350D02*
Y300D01*
X2300Y1950D02*
X2800Y1450D01*
X-1650Y-1000D02*
X-1400Y-1250D01*
X-2600Y-1000D02*
X-1650D01*
X-2950Y-650D02*
X-2600Y-1000D01*
X-1800Y-1150D02*
X-1510Y-1440D01*
X-2850Y-1150D02*
X-1800D01*
X-3250Y-750D02*
X-2850Y-1150D01*
X-2950Y-650D02*
Y250D01*
X-3250Y-750D02*
Y200D01*
X-3100Y-1300D02*
X-1950D01*
X-3500Y-900D02*
X-3100Y-1300D01*
X-3500Y-900D02*
Y550D01*
X-1950Y-1300D02*
X-1700Y-1550D01*
Y-1850D02*
Y-1550D01*
X-1510Y-2260D02*
Y-1440D01*
X-1600Y-2350D02*
X-1510Y-2260D01*
X-1700Y-2350D02*
X-1600D01*
X-1700Y-3350D02*
X-1400Y-3050D01*
Y-1250D01*
X-808Y-2358D02*
X-700Y-2250D01*
X-1192Y-2358D02*
X-808D01*
X-1000Y1300D02*
X-650Y1650D01*
X-1000Y-1600D02*
Y1300D01*
Y-1600D02*
X-700Y-1900D01*
Y-2250D02*
Y-1900D01*
X-5100Y-1700D02*
Y-350D01*
Y-1700D02*
X-4900Y-1900D01*
X-4800D01*
X-5300Y-2250D02*
X-5150Y-2400D01*
X-4800D01*
X-5300Y-2250D02*
Y-350D01*
X-1300Y-3350D02*
X-1050D01*
X-1650Y-3700D02*
X-1300Y-3350D01*
X-2250Y-3700D02*
X-1650D01*
X-2850Y-4300D02*
X-2250Y-3700D01*
X-450Y-4000D02*
X2450D01*
X2700Y-3750D01*
Y-50D01*
X2233Y417D02*
X2700Y-50D01*
X2233Y417D02*
Y1317D01*
X200Y3400D02*
X1850D01*
X2872Y3900D02*
X3272Y4300D01*
X2350Y3900D02*
X2872D01*
X1850Y3400D02*
X2350Y3900D01*
X-5100Y-350D02*
X300Y5050D01*
X250Y2550D02*
X2350D01*
X50Y2350D02*
X250Y2550D01*
X50Y2000D02*
Y2350D01*
Y2000D02*
X150Y1900D01*
X-161Y2711D02*
X-100Y2650D01*
X430Y2120D02*
X750Y1800D01*
X300Y2120D02*
X430D01*
X-5300Y-350D02*
X350Y5300D01*
X2800D01*
X-705Y-2555D02*
X-527Y-2377D01*
X-3500Y550D02*
X200Y4250D01*
X-3250Y200D02*
X350Y3800D01*
X-2950Y250D02*
X200Y3400D01*
X2000Y3800D02*
X2500Y4300D01*
X350Y3800D02*
X2000D01*
X200Y4250D02*
X1900D01*
X300Y5050D02*
X2750D01*
X1900Y4250D02*
X2400Y4750D01*
X2617Y4483D02*
X2900Y4765D01*
Y4900D01*
X2750Y5050D02*
X2900Y4900D01*
X539Y2300D02*
X2300D01*
X-1039Y-2555D02*
X-705D01*
X2300Y2300D02*
X2600Y2000D01*
X-502Y-2752D02*
X-400Y-2650D01*
X-1198Y-2752D02*
X-502D01*
X-911Y-3539D02*
X-450Y-4000D01*
X-1211Y-3539D02*
X-911D01*
X-3250Y3000D02*
Y4600D01*
X-2350Y5500D01*
X-2050D01*
X-2172Y-4500D02*
X-1211Y-3539D01*
X-3055Y-4500D02*
X-2172D01*
X3000Y4300D02*
X3300Y4600D01*
X2500Y4300D02*
X3000D01*
X2800Y5300D02*
X3224Y4876D01*
X4450Y-3800D02*
X5577Y-2127D01*
X4700Y-1550D02*
Y-800D01*
Y-1550D02*
X4900Y-1750D01*
X5650D01*
X4700Y-800D02*
X5000Y-500D01*
X2550Y1300D02*
X4350Y-500D01*
X5000D01*
X5050D01*
D45*
X-3700Y400D02*
Y700D01*
X-4800Y-700D02*
X-3700Y400D01*
X-4800Y-1350D02*
Y-700D01*
X-3700Y700D02*
X0Y4400D01*
X-527Y-2377D02*
X-500Y-2350D01*
X0Y4400D02*
X1500D01*
X1850Y4750D01*
D52*
X1400Y2050D02*
D03*
X5000Y1800D02*
D03*
X-1700Y-1850D02*
D03*
X-4800Y-1350D02*
D03*
Y-1900D02*
D03*
Y-2400D02*
D03*
X-1700Y-2350D02*
D03*
Y-3350D02*
D03*
X4450Y-3800D02*
D03*
X-2850Y-4300D02*
D03*
X-1050Y-3350D02*
D03*
X2300Y1950D02*
D03*
X150Y1900D02*
D03*
X300Y2120D02*
D03*
X-161Y2711D02*
D03*
X2400Y4750D02*
D03*
X1850D02*
D03*
X539Y2300D02*
D03*
X-650Y1650D02*
D03*
X2600Y2000D02*
D03*
X-1039Y-2555D02*
D03*
X-1198Y-2752D02*
D03*
X-1192Y-2358D02*
D03*
X-1211Y-3539D02*
D03*
X5577Y-2127D02*
D03*
X2233Y1317D02*
D03*
X2617Y4483D02*
D03*
X-3250Y3000D02*
D03*
X-2050Y5500D02*
D03*
X-3055Y-4500D02*
D03*
X2350Y2550D02*
D03*
X3272Y4300D02*
D03*
X3300Y4600D02*
D03*
X3224Y4876D02*
D03*
X2550Y1300D02*
D03*
X5650Y-1750D02*
D03*
X5050Y-500D02*
D03*
M02*
