%FSLAX24Y24*%
%MOIN*%
G70*
G01*
G75*
G04 Layer_Color=32896*
%ADD10C,0.0100*%
%ADD11C,0.0394*%
%ADD12C,0.0197*%
%ADD13C,0.0197*%
%ADD14R,0.0157X0.0236*%
%ADD15R,0.0236X0.0157*%
G04:AMPARAMS|DCode=16|XSize=33.5mil|YSize=17.7mil|CornerRadius=4.4mil|HoleSize=0mil|Usage=FLASHONLY|Rotation=270.000|XOffset=0mil|YOffset=0mil|HoleType=Round|Shape=RoundedRectangle|*
%AMROUNDEDRECTD16*
21,1,0.0335,0.0089,0,0,270.0*
21,1,0.0246,0.0177,0,0,270.0*
1,1,0.0089,-0.0044,-0.0123*
1,1,0.0089,-0.0044,0.0123*
1,1,0.0089,0.0044,0.0123*
1,1,0.0089,0.0044,-0.0123*
%
%ADD16ROUNDEDRECTD16*%
G04:AMPARAMS|DCode=17|XSize=63mil|YSize=98.4mil|CornerRadius=15.7mil|HoleSize=0mil|Usage=FLASHONLY|Rotation=270.000|XOffset=0mil|YOffset=0mil|HoleType=Round|Shape=RoundedRectangle|*
%AMROUNDEDRECTD17*
21,1,0.0630,0.0669,0,0,270.0*
21,1,0.0315,0.0984,0,0,270.0*
1,1,0.0315,-0.0335,-0.0157*
1,1,0.0315,-0.0335,0.0157*
1,1,0.0315,0.0335,0.0157*
1,1,0.0315,0.0335,-0.0157*
%
%ADD17ROUNDEDRECTD17*%
%ADD18R,0.0197X0.0315*%
%ADD19R,0.1024X0.0591*%
%ADD20R,0.0217X0.0098*%
%ADD21R,0.0138X0.0394*%
%ADD22R,0.1378X0.0394*%
%ADD23R,0.1339X0.0591*%
%ADD24R,0.0197X0.0354*%
%ADD25R,0.0354X0.0197*%
%ADD26R,0.0157X0.0532*%
%ADD27R,0.0748X0.0630*%
%ADD28R,0.0630X0.0551*%
%ADD29R,0.0354X0.0276*%
%ADD30R,0.0217X0.0394*%
%ADD31R,0.0157X0.0335*%
%ADD32O,0.0177X0.0532*%
%ADD33O,0.0217X0.0866*%
%ADD34R,0.0335X0.0157*%
%ADD35O,0.0276X0.0098*%
%ADD36O,0.0098X0.0276*%
%ADD37R,0.0118X0.0209*%
%ADD38R,0.0118X0.0193*%
%ADD39O,0.0315X0.0079*%
%ADD40O,0.0079X0.0315*%
%ADD41R,0.2598X0.2598*%
%ADD42R,0.2362X0.1890*%
%ADD43O,0.0315X0.0157*%
%ADD44O,0.0079X0.0295*%
%ADD45O,0.0295X0.0079*%
%ADD46R,0.1417X0.1417*%
%ADD47R,0.0217X0.0512*%
%ADD48R,0.0374X0.0335*%
%ADD49R,0.0453X0.0551*%
%ADD50C,0.0200*%
%ADD51C,0.0150*%
%ADD52C,0.0661*%
%ADD53C,0.0591*%
%ADD54C,0.0630*%
%ADD55C,0.1260*%
%ADD56C,0.0591*%
%ADD57C,0.0270*%
%ADD58C,0.0290*%
%ADD59C,0.0300*%
%ADD60C,0.0340*%
%ADD61R,0.0591X0.0236*%
%ADD62R,0.1299X0.1299*%
%ADD63O,0.0098X0.0315*%
%ADD64O,0.0315X0.0098*%
%ADD65R,0.0276X0.0354*%
%ADD66C,0.0098*%
%ADD67C,0.0157*%
%ADD68C,0.0039*%
%ADD69C,0.0050*%
%ADD70C,0.0079*%
%ADD71C,0.0047*%
%ADD72C,0.0060*%
%ADD73C,0.0040*%
%ADD74R,0.0551X0.0433*%
%ADD75R,0.0148X0.0177*%
%ADD76R,0.0217X0.0296*%
%ADD77R,0.0296X0.0217*%
G04:AMPARAMS|DCode=78|XSize=39.5mil|YSize=23.7mil|CornerRadius=7.4mil|HoleSize=0mil|Usage=FLASHONLY|Rotation=270.000|XOffset=0mil|YOffset=0mil|HoleType=Round|Shape=RoundedRectangle|*
%AMROUNDEDRECTD78*
21,1,0.0395,0.0089,0,0,270.0*
21,1,0.0246,0.0237,0,0,270.0*
1,1,0.0149,-0.0044,-0.0123*
1,1,0.0149,-0.0044,0.0123*
1,1,0.0149,0.0044,0.0123*
1,1,0.0149,0.0044,-0.0123*
%
%ADD78ROUNDEDRECTD78*%
G04:AMPARAMS|DCode=79|XSize=69mil|YSize=104.4mil|CornerRadius=18.7mil|HoleSize=0mil|Usage=FLASHONLY|Rotation=270.000|XOffset=0mil|YOffset=0mil|HoleType=Round|Shape=RoundedRectangle|*
%AMROUNDEDRECTD79*
21,1,0.0690,0.0669,0,0,270.0*
21,1,0.0315,0.1044,0,0,270.0*
1,1,0.0375,-0.0335,-0.0157*
1,1,0.0375,-0.0335,0.0157*
1,1,0.0375,0.0335,0.0157*
1,1,0.0375,0.0335,-0.0157*
%
%ADD79ROUNDEDRECTD79*%
%ADD80R,0.0257X0.0375*%
%ADD81R,0.1084X0.0651*%
%ADD82R,0.0277X0.0158*%
%ADD83R,0.0198X0.0454*%
%ADD84R,0.1438X0.0454*%
%ADD85R,0.1399X0.0651*%
%ADD86R,0.0257X0.0414*%
%ADD87R,0.0414X0.0257*%
%ADD88R,0.0236X0.0610*%
%ADD89R,0.0827X0.0709*%
%ADD90R,0.0709X0.0630*%
%ADD91R,0.0414X0.0336*%
%ADD92R,0.0277X0.0454*%
%ADD93R,0.0217X0.0395*%
%ADD94O,0.0237X0.0592*%
%ADD95O,0.0277X0.0926*%
%ADD96R,0.0395X0.0217*%
%ADD97O,0.0336X0.0158*%
%ADD98O,0.0158X0.0336*%
%ADD99R,0.0178X0.0269*%
%ADD100R,0.0178X0.0253*%
%ADD101O,0.0375X0.0139*%
%ADD102O,0.0139X0.0375*%
%ADD103R,0.2658X0.2658*%
%ADD104R,0.2422X0.1950*%
%ADD105O,0.0375X0.0217*%
%ADD106O,0.0139X0.0355*%
%ADD107O,0.0355X0.0139*%
%ADD108R,0.1477X0.1477*%
%ADD109R,0.0277X0.0572*%
%ADD110R,0.0434X0.0395*%
%ADD111R,0.0513X0.0611*%
%ADD112C,0.0721*%
%ADD113C,0.0651*%
%ADD114C,0.0690*%
%ADD115C,0.1320*%
%ADD116C,0.0651*%
%ADD117R,0.0651X0.0296*%
%ADD118R,0.1359X0.1359*%
%ADD119O,0.0158X0.0375*%
%ADD120O,0.0375X0.0158*%
%ADD121R,0.0336X0.0414*%
D10*
X52151Y21174D02*
G03*
X52151Y21174I-39J0D01*
G01*
X51206Y21293D02*
Y21607D01*
X51994Y21293D02*
Y21607D01*
D66*
X41275Y19391D02*
G03*
X41275Y19391I-49J0D01*
G01*
X50107Y20539D02*
G03*
X50107Y20539I-49J0D01*
G01*
D68*
X44061Y27908D02*
X44139D01*
X44061Y27692D02*
X44139D01*
X40361Y19808D02*
X40439D01*
X40361Y19592D02*
X40439D01*
X40361Y20308D02*
X40439D01*
X40361Y20092D02*
X40439D01*
X40361Y20808D02*
X40439D01*
X40361Y20592D02*
X40439D01*
X42211Y28392D02*
X42289D01*
X42211Y28608D02*
X42289D01*
X43111Y24108D02*
X43189D01*
X43111Y23892D02*
X43189D01*
X41478Y16421D02*
Y16499D01*
X41695Y16421D02*
Y16499D01*
X50711Y20442D02*
X50789D01*
X50711Y20658D02*
X50789D01*
X41763Y18702D02*
X41842D01*
X41763Y18918D02*
X41842D01*
X42608Y17121D02*
Y17199D01*
X42392Y17121D02*
Y17199D01*
X52011Y20392D02*
X52089D01*
X52011Y20608D02*
X52089D01*
D70*
X41679Y19509D02*
X41876D01*
Y19824D01*
X41679Y20691D02*
X41876D01*
Y20376D02*
Y20691D01*
X49724Y20746D02*
Y20874D01*
X49596D02*
X49724D01*
Y18826D02*
Y18954D01*
X49596Y18826D02*
X49724D01*
X47676D02*
Y18954D01*
Y18826D02*
X47804D01*
X47676Y20746D02*
Y20874D01*
X47804D01*
D73*
X50250Y18600D02*
X50083D01*
X50050Y18633D01*
Y18700D01*
X50083Y18733D01*
X50250D01*
X50050Y18800D02*
Y18867D01*
Y18833D01*
X50250D01*
X50217Y18800D01*
X50250Y19100D02*
X50217Y19033D01*
X50150Y18967D01*
X50083D01*
X50050Y19000D01*
Y19067D01*
X50083Y19100D01*
X50117D01*
X50150Y19067D01*
Y18967D01*
X42050Y21090D02*
Y20923D01*
X42017Y20890D01*
X41950D01*
X41917Y20923D01*
Y21090D01*
X41717Y20890D02*
X41850D01*
X41717Y21023D01*
Y21057D01*
X41750Y21090D01*
X41817D01*
X41850Y21057D01*
X50757Y21187D02*
X50790Y21220D01*
X50857D01*
X50890Y21187D01*
Y21053D01*
X50857Y21020D01*
X50790D01*
X50757Y21053D01*
X50690Y21187D02*
X50657Y21220D01*
X50590D01*
X50557Y21187D01*
Y21153D01*
X50590Y21120D01*
X50623D01*
X50590D01*
X50557Y21087D01*
Y21053D01*
X50590Y21020D01*
X50657D01*
X50690Y21053D01*
X50490Y21187D02*
X50457Y21220D01*
X50390D01*
X50357Y21187D01*
Y21153D01*
X50390Y21120D01*
X50357Y21087D01*
Y21053D01*
X50390Y21020D01*
X50457D01*
X50490Y21053D01*
Y21087D01*
X50457Y21120D01*
X50490Y21153D01*
Y21187D01*
X50457Y21120D02*
X50390D01*
X43227Y24487D02*
X43260Y24520D01*
X43327D01*
X43360Y24487D01*
Y24353D01*
X43327Y24320D01*
X43260D01*
X43227Y24353D01*
X43160Y24320D02*
X43093D01*
X43127D01*
Y24520D01*
X43160Y24487D01*
X42993D02*
X42960Y24520D01*
X42893D01*
X42860Y24487D01*
Y24453D01*
X42893Y24420D01*
X42860Y24387D01*
Y24353D01*
X42893Y24320D01*
X42960D01*
X42993Y24353D01*
Y24387D01*
X42960Y24420D01*
X42993Y24453D01*
Y24487D01*
X42960Y24420D02*
X42893D01*
X44027Y28307D02*
X44060Y28340D01*
X44127D01*
X44160Y28307D01*
Y28173D01*
X44127Y28140D01*
X44060D01*
X44027Y28173D01*
X43960Y28140D02*
X43893D01*
X43927D01*
Y28340D01*
X43960Y28307D01*
X43660Y28340D02*
X43727Y28307D01*
X43793Y28240D01*
Y28173D01*
X43760Y28140D01*
X43693D01*
X43660Y28173D01*
Y28207D01*
X43693Y28240D01*
X43793D01*
X42607Y28967D02*
X42640Y29000D01*
X42707D01*
X42740Y28967D01*
Y28833D01*
X42707Y28800D01*
X42640D01*
X42607Y28833D01*
X42540Y28800D02*
X42473D01*
X42507D01*
Y29000D01*
X42540Y28967D01*
X42240Y29000D02*
X42373D01*
Y28900D01*
X42307Y28933D01*
X42273D01*
X42240Y28900D01*
Y28833D01*
X42273Y28800D01*
X42340D01*
X42373Y28833D01*
X39867Y21107D02*
X39900Y21140D01*
X39967D01*
X40000Y21107D01*
Y20973D01*
X39967Y20940D01*
X39900D01*
X39867Y20973D01*
X39667Y21140D02*
X39800D01*
Y21040D01*
X39733Y21073D01*
X39700D01*
X39667Y21040D01*
Y20973D01*
X39700Y20940D01*
X39767D01*
X39800Y20973D01*
X39833Y20217D02*
X39800Y20250D01*
Y20317D01*
X39833Y20350D01*
X39967D01*
X40000Y20317D01*
Y20250D01*
X39967Y20217D01*
X40000Y20050D02*
X39800D01*
X39900Y20150D01*
Y20017D01*
X39843Y19687D02*
X39810Y19720D01*
Y19787D01*
X39843Y19820D01*
X39977D01*
X40010Y19787D01*
Y19720D01*
X39977Y19687D01*
X39843Y19620D02*
X39810Y19587D01*
Y19520D01*
X39843Y19487D01*
X39877D01*
X39910Y19520D01*
Y19553D01*
Y19520D01*
X39943Y19487D01*
X39977D01*
X40010Y19520D01*
Y19587D01*
X39977Y19620D01*
X52527Y21117D02*
X52393D01*
X52360Y21150D01*
Y21217D01*
X52393Y21250D01*
X52527D01*
X52560Y21217D01*
Y21150D01*
X52493Y21183D02*
X52560Y21117D01*
Y21150D02*
X52527Y21117D01*
X52560Y20917D02*
Y21050D01*
X52427Y20917D01*
X52393D01*
X52360Y20950D01*
Y21017D01*
X52393Y21050D01*
X52980Y20410D02*
Y20610D01*
X52880D01*
X52847Y20577D01*
Y20510D01*
X52880Y20477D01*
X52980D01*
X52913D02*
X52847Y20410D01*
X52647D02*
X52780D01*
X52647Y20543D01*
Y20577D01*
X52680Y20610D01*
X52747D01*
X52780Y20577D01*
X52580D02*
X52547Y20610D01*
X52480D01*
X52447Y20577D01*
Y20543D01*
X52480Y20510D01*
X52513D01*
X52480D01*
X52447Y20477D01*
Y20443D01*
X52480Y20410D01*
X52547D01*
X52580Y20443D01*
M02*
