%FSLAX24Y24*%
%MOIN*%
G70*
G01*
G75*
G04 Layer_Color=8388736*
%ADD10C,0.0100*%
%ADD11C,0.0394*%
%ADD12C,0.0197*%
%ADD13C,0.0197*%
%ADD14R,0.0157X0.0236*%
%ADD15R,0.0236X0.0157*%
G04:AMPARAMS|DCode=16|XSize=33.5mil|YSize=17.7mil|CornerRadius=4.4mil|HoleSize=0mil|Usage=FLASHONLY|Rotation=270.000|XOffset=0mil|YOffset=0mil|HoleType=Round|Shape=RoundedRectangle|*
%AMROUNDEDRECTD16*
21,1,0.0335,0.0089,0,0,270.0*
21,1,0.0246,0.0177,0,0,270.0*
1,1,0.0089,-0.0044,-0.0123*
1,1,0.0089,-0.0044,0.0123*
1,1,0.0089,0.0044,0.0123*
1,1,0.0089,0.0044,-0.0123*
%
%ADD16ROUNDEDRECTD16*%
G04:AMPARAMS|DCode=17|XSize=63mil|YSize=98.4mil|CornerRadius=15.7mil|HoleSize=0mil|Usage=FLASHONLY|Rotation=270.000|XOffset=0mil|YOffset=0mil|HoleType=Round|Shape=RoundedRectangle|*
%AMROUNDEDRECTD17*
21,1,0.0630,0.0669,0,0,270.0*
21,1,0.0315,0.0984,0,0,270.0*
1,1,0.0315,-0.0335,-0.0157*
1,1,0.0315,-0.0335,0.0157*
1,1,0.0315,0.0335,0.0157*
1,1,0.0315,0.0335,-0.0157*
%
%ADD17ROUNDEDRECTD17*%
%ADD18R,0.0197X0.0315*%
%ADD19R,0.1024X0.0591*%
%ADD20R,0.0217X0.0098*%
%ADD21R,0.0138X0.0394*%
%ADD22R,0.1378X0.0394*%
%ADD23R,0.1339X0.0591*%
%ADD24R,0.0197X0.0354*%
%ADD25R,0.0354X0.0197*%
%ADD26R,0.0157X0.0532*%
%ADD27R,0.0748X0.0630*%
%ADD28R,0.0630X0.0551*%
%ADD29R,0.0354X0.0276*%
%ADD30R,0.0217X0.0394*%
%ADD31R,0.0157X0.0335*%
%ADD32O,0.0177X0.0532*%
%ADD33O,0.0217X0.0866*%
%ADD34R,0.0335X0.0157*%
%ADD35O,0.0276X0.0098*%
%ADD36O,0.0098X0.0276*%
%ADD37R,0.0118X0.0209*%
%ADD38R,0.0118X0.0193*%
%ADD39O,0.0315X0.0079*%
%ADD40O,0.0079X0.0315*%
%ADD41R,0.2598X0.2598*%
%ADD42R,0.2362X0.1890*%
%ADD43O,0.0315X0.0157*%
%ADD44O,0.0079X0.0295*%
%ADD45O,0.0295X0.0079*%
%ADD46R,0.1417X0.1417*%
%ADD47R,0.0217X0.0512*%
%ADD48R,0.0374X0.0335*%
%ADD49R,0.0453X0.0551*%
%ADD50C,0.0200*%
%ADD51C,0.0150*%
%ADD52C,0.0661*%
%ADD53C,0.0591*%
%ADD54C,0.0630*%
%ADD55C,0.1260*%
%ADD56C,0.0591*%
%ADD57C,0.0270*%
%ADD58C,0.0290*%
%ADD59C,0.0300*%
%ADD60C,0.0340*%
%ADD61R,0.0591X0.0236*%
%ADD62R,0.1299X0.1299*%
%ADD63O,0.0098X0.0315*%
%ADD64O,0.0315X0.0098*%
%ADD65R,0.0276X0.0354*%
%ADD66C,0.0098*%
%ADD67C,0.0157*%
%ADD68C,0.0039*%
%ADD69C,0.0050*%
%ADD70C,0.0079*%
%ADD71C,0.0047*%
%ADD72C,0.0060*%
%ADD73C,0.0040*%
%ADD74R,0.0551X0.0433*%
%ADD75R,0.0148X0.0177*%
%ADD76R,0.0217X0.0296*%
%ADD77R,0.0296X0.0217*%
G04:AMPARAMS|DCode=78|XSize=39.5mil|YSize=23.7mil|CornerRadius=7.4mil|HoleSize=0mil|Usage=FLASHONLY|Rotation=270.000|XOffset=0mil|YOffset=0mil|HoleType=Round|Shape=RoundedRectangle|*
%AMROUNDEDRECTD78*
21,1,0.0395,0.0089,0,0,270.0*
21,1,0.0246,0.0237,0,0,270.0*
1,1,0.0149,-0.0044,-0.0123*
1,1,0.0149,-0.0044,0.0123*
1,1,0.0149,0.0044,0.0123*
1,1,0.0149,0.0044,-0.0123*
%
%ADD78ROUNDEDRECTD78*%
G04:AMPARAMS|DCode=79|XSize=69mil|YSize=104.4mil|CornerRadius=18.7mil|HoleSize=0mil|Usage=FLASHONLY|Rotation=270.000|XOffset=0mil|YOffset=0mil|HoleType=Round|Shape=RoundedRectangle|*
%AMROUNDEDRECTD79*
21,1,0.0690,0.0669,0,0,270.0*
21,1,0.0315,0.1044,0,0,270.0*
1,1,0.0375,-0.0335,-0.0157*
1,1,0.0375,-0.0335,0.0157*
1,1,0.0375,0.0335,0.0157*
1,1,0.0375,0.0335,-0.0157*
%
%ADD79ROUNDEDRECTD79*%
%ADD80R,0.0257X0.0375*%
%ADD81R,0.1084X0.0651*%
%ADD82R,0.0277X0.0158*%
%ADD83R,0.0198X0.0454*%
%ADD84R,0.1438X0.0454*%
%ADD85R,0.1399X0.0651*%
%ADD86R,0.0257X0.0414*%
%ADD87R,0.0414X0.0257*%
%ADD88R,0.0236X0.0610*%
%ADD89R,0.0827X0.0709*%
%ADD90R,0.0709X0.0630*%
%ADD91R,0.0414X0.0336*%
%ADD92R,0.0277X0.0454*%
%ADD93R,0.0217X0.0395*%
%ADD94O,0.0237X0.0592*%
%ADD95O,0.0277X0.0926*%
%ADD96R,0.0395X0.0217*%
%ADD97O,0.0336X0.0158*%
%ADD98O,0.0158X0.0336*%
%ADD99R,0.0178X0.0269*%
%ADD100R,0.0178X0.0253*%
%ADD101O,0.0375X0.0139*%
%ADD102O,0.0139X0.0375*%
%ADD103R,0.2658X0.2658*%
%ADD104R,0.2422X0.1950*%
%ADD105O,0.0375X0.0217*%
%ADD106O,0.0139X0.0355*%
%ADD107O,0.0355X0.0139*%
%ADD108R,0.1477X0.1477*%
%ADD109R,0.0277X0.0572*%
%ADD110R,0.0434X0.0395*%
%ADD111R,0.0513X0.0611*%
%ADD112C,0.0721*%
%ADD113C,0.0651*%
%ADD114C,0.0690*%
%ADD115C,0.1320*%
%ADD116C,0.0651*%
D76*
X50230Y26380D02*
D03*
X50584D02*
D03*
X51633Y23410D02*
D03*
X51987D02*
D03*
X46857Y27000D02*
D03*
X46503D02*
D03*
X49557Y20790D02*
D03*
X49203D02*
D03*
X51553Y21670D02*
D03*
X51907D02*
D03*
X53607Y18070D02*
D03*
X53253D02*
D03*
X54357Y15890D02*
D03*
X54003D02*
D03*
X40373Y25150D02*
D03*
X40727D02*
D03*
X44423Y23750D02*
D03*
X44777D02*
D03*
X44423Y23250D02*
D03*
X44777D02*
D03*
X41977Y26250D02*
D03*
X41623D02*
D03*
X46477Y26050D02*
D03*
X46123D02*
D03*
X51817Y21200D02*
D03*
X51463D02*
D03*
X56723Y26800D02*
D03*
X57077D02*
D03*
X52327Y18070D02*
D03*
X51973D02*
D03*
X51623Y15870D02*
D03*
X51977D02*
D03*
X46773Y17700D02*
D03*
X47127D02*
D03*
X46173Y19550D02*
D03*
X46527D02*
D03*
X51237Y18900D02*
D03*
X50883D02*
D03*
X40727Y26300D02*
D03*
X40373D02*
D03*
X40873Y28950D02*
D03*
X41227D02*
D03*
X44777Y27750D02*
D03*
X44423D02*
D03*
X42677Y27150D02*
D03*
X42323D02*
D03*
X45627Y27550D02*
D03*
X45273D02*
D03*
X43573Y27750D02*
D03*
X43927D02*
D03*
X42677Y24650D02*
D03*
X42323D02*
D03*
Y23600D02*
D03*
X42677D02*
D03*
X43777D02*
D03*
X43423D02*
D03*
X41980Y18810D02*
D03*
X41626D02*
D03*
X50273Y31200D02*
D03*
X50627D02*
D03*
D77*
X46820Y21124D02*
D03*
Y20770D02*
D03*
X45530Y23703D02*
D03*
Y24057D02*
D03*
X52070Y25573D02*
D03*
Y25927D02*
D03*
X51590Y25573D02*
D03*
Y25927D02*
D03*
X40350Y27627D02*
D03*
Y27273D02*
D03*
X41200Y22577D02*
D03*
Y22223D02*
D03*
Y25527D02*
D03*
Y25173D02*
D03*
X40250Y22973D02*
D03*
Y23327D02*
D03*
X41586Y16283D02*
D03*
Y16637D02*
D03*
X47300Y26427D02*
D03*
Y26073D02*
D03*
X52920Y22472D02*
D03*
Y22826D02*
D03*
X51060Y22013D02*
D03*
Y22367D02*
D03*
X52300Y21937D02*
D03*
Y21583D02*
D03*
X55450Y28677D02*
D03*
Y28323D02*
D03*
X55850Y30273D02*
D03*
Y30627D02*
D03*
X55510Y25683D02*
D03*
Y26037D02*
D03*
X54250Y29727D02*
D03*
Y29373D02*
D03*
X53390Y29857D02*
D03*
Y29503D02*
D03*
X52890Y29857D02*
D03*
Y29503D02*
D03*
X52650Y25523D02*
D03*
Y25877D02*
D03*
X51640Y28927D02*
D03*
Y28573D02*
D03*
X44100Y30923D02*
D03*
Y31277D02*
D03*
X46900Y18173D02*
D03*
Y18527D02*
D03*
X54800Y30273D02*
D03*
Y30627D02*
D03*
X41700Y24377D02*
D03*
Y24023D02*
D03*
X40350Y28427D02*
D03*
Y28073D02*
D03*
X41200Y23377D02*
D03*
Y23023D02*
D03*
Y26327D02*
D03*
Y25973D02*
D03*
X45650Y25673D02*
D03*
Y26027D02*
D03*
X42500Y17337D02*
D03*
Y16983D02*
D03*
X51110Y25927D02*
D03*
Y25573D02*
D03*
X51010Y21253D02*
D03*
Y21607D02*
D03*
X54950Y26373D02*
D03*
Y26727D02*
D03*
X51250Y18043D02*
D03*
Y18397D02*
D03*
X46050Y30577D02*
D03*
Y30223D02*
D03*
D78*
X41193Y17109D02*
D03*
Y18251D02*
D03*
X41586Y17109D02*
D03*
X41980D02*
D03*
X41586Y18251D02*
D03*
X41980D02*
D03*
D79*
X41586Y17680D02*
D03*
D80*
X43892Y16094D02*
D03*
X43537D02*
D03*
X43183D02*
D03*
X42828D02*
D03*
Y16566D02*
D03*
X43183D02*
D03*
X43537D02*
D03*
X43892D02*
D03*
D81*
X56394Y22977D02*
D03*
Y20949D02*
D03*
D82*
X53380Y25603D02*
D03*
Y25800D02*
D03*
Y25997D02*
D03*
X53714D02*
D03*
Y25800D02*
D03*
Y25603D02*
D03*
D83*
X52066Y23989D02*
D03*
X51810D02*
D03*
X51554D02*
D03*
Y24698D02*
D03*
X51810D02*
D03*
X52066D02*
D03*
D84*
X55620Y17296D02*
D03*
Y18084D02*
D03*
D85*
X57805Y16371D02*
D03*
Y19009D02*
D03*
D86*
X40745Y25700D02*
D03*
X40155D02*
D03*
X46895Y19000D02*
D03*
X46305D02*
D03*
D87*
X45650Y27045D02*
D03*
Y26455D02*
D03*
X54800Y29645D02*
D03*
Y29055D02*
D03*
D88*
X47928Y16433D02*
D03*
X48184D02*
D03*
X48952D02*
D03*
X48696D02*
D03*
X48440D02*
D03*
D89*
X48912Y15380D02*
D03*
X47968D02*
D03*
D90*
X49700Y16364D02*
D03*
X47180D02*
D03*
D91*
X43326Y30456D02*
D03*
Y29944D02*
D03*
X44074Y30200D02*
D03*
D92*
X54004Y16478D02*
D03*
X53256D02*
D03*
Y17462D02*
D03*
X53630D02*
D03*
X54004D02*
D03*
D93*
X40694Y24624D02*
D03*
X41206D02*
D03*
Y23876D02*
D03*
X40950D02*
D03*
X40694D02*
D03*
X53714Y23950D02*
D03*
X53202D02*
D03*
Y24698D02*
D03*
X53458D02*
D03*
X53714D02*
D03*
X53458Y23950D02*
D03*
D94*
X41734Y27942D02*
D03*
X41478D02*
D03*
X41222D02*
D03*
X40966D02*
D03*
X41734Y26958D02*
D03*
X41478D02*
D03*
X41222D02*
D03*
X40966D02*
D03*
D95*
X43300Y24645D02*
D03*
X43800D02*
D03*
X44300D02*
D03*
X44800D02*
D03*
X43300Y26555D02*
D03*
X43800D02*
D03*
X44300D02*
D03*
X44800D02*
D03*
D96*
X54220Y21866D02*
D03*
Y21354D02*
D03*
X53472D02*
D03*
Y21610D02*
D03*
Y21866D02*
D03*
D97*
X43894Y20300D02*
D03*
X43106D02*
D03*
D98*
X43795Y19985D02*
D03*
X43598D02*
D03*
X43402D02*
D03*
X43205D02*
D03*
Y20615D02*
D03*
X43402D02*
D03*
X43598D02*
D03*
X43795D02*
D03*
D99*
X44653Y21010D02*
D03*
D100*
X44850Y21002D02*
D03*
X45047D02*
D03*
Y21298D02*
D03*
X44850D02*
D03*
X44653D02*
D03*
D101*
X47375Y25230D02*
D03*
Y25033D02*
D03*
Y24836D02*
D03*
Y24639D02*
D03*
Y24442D02*
D03*
Y24245D02*
D03*
Y24048D02*
D03*
Y23852D02*
D03*
Y23655D02*
D03*
Y23458D02*
D03*
Y23261D02*
D03*
Y23064D02*
D03*
Y22867D02*
D03*
Y22670D02*
D03*
X50525D02*
D03*
Y22867D02*
D03*
Y23064D02*
D03*
Y23261D02*
D03*
Y23458D02*
D03*
Y23655D02*
D03*
Y23852D02*
D03*
Y24048D02*
D03*
Y24245D02*
D03*
Y24442D02*
D03*
Y24639D02*
D03*
Y24836D02*
D03*
Y25033D02*
D03*
Y25230D02*
D03*
D102*
X47670Y22375D02*
D03*
X47867D02*
D03*
X48064D02*
D03*
X48261D02*
D03*
X48458D02*
D03*
X48655D02*
D03*
X48852D02*
D03*
X49048D02*
D03*
X49245D02*
D03*
X49442D02*
D03*
X49639D02*
D03*
X49836D02*
D03*
X50033D02*
D03*
X50230D02*
D03*
Y25525D02*
D03*
X50033D02*
D03*
X49836D02*
D03*
X49639D02*
D03*
X49442D02*
D03*
X49245D02*
D03*
X49048D02*
D03*
X48852D02*
D03*
X48655D02*
D03*
X48458D02*
D03*
X48261D02*
D03*
X48064D02*
D03*
X47867D02*
D03*
X47670D02*
D03*
D103*
X48950Y23950D02*
D03*
D104*
X48150Y30950D02*
D03*
D105*
X46595Y30200D02*
D03*
Y30700D02*
D03*
Y31200D02*
D03*
Y31700D02*
D03*
X49705D02*
D03*
Y31200D02*
D03*
Y30700D02*
D03*
Y30200D02*
D03*
D106*
X54039Y28594D02*
D03*
X53842D02*
D03*
X53645D02*
D03*
X53448D02*
D03*
X53252D02*
D03*
X53055D02*
D03*
X52858D02*
D03*
X52661D02*
D03*
Y26606D02*
D03*
X52858D02*
D03*
X53055D02*
D03*
X53252D02*
D03*
X53448D02*
D03*
X53645D02*
D03*
X53842D02*
D03*
X54039D02*
D03*
D107*
X52356Y28289D02*
D03*
Y28092D02*
D03*
Y27895D02*
D03*
Y27698D02*
D03*
Y27502D02*
D03*
Y27305D02*
D03*
Y27108D02*
D03*
Y26911D02*
D03*
X54344D02*
D03*
Y27108D02*
D03*
Y27305D02*
D03*
Y27502D02*
D03*
Y27698D02*
D03*
Y27895D02*
D03*
Y28092D02*
D03*
Y28289D02*
D03*
D108*
X53350Y27600D02*
D03*
D109*
X51974Y16478D02*
D03*
X51226D02*
D03*
Y17462D02*
D03*
X51600D02*
D03*
X51974D02*
D03*
D110*
X52305Y22374D02*
D03*
X51735D02*
D03*
Y22826D02*
D03*
X52305D02*
D03*
D111*
X56085Y28333D02*
D03*
Y27467D02*
D03*
X56715D02*
D03*
Y28333D02*
D03*
D112*
X55980Y15290D02*
D03*
X50730Y15270D02*
D03*
X44350Y29100D02*
D03*
X41900Y29450D02*
D03*
X45300Y28400D02*
D03*
X51300Y30360D02*
D03*
D113*
X41560Y31510D02*
D03*
X40560D02*
D03*
X45270Y17100D02*
D03*
X44270D02*
D03*
X50550Y28550D02*
D03*
X49550D02*
D03*
X48550D02*
D03*
X47550D02*
D03*
X46550D02*
D03*
X47400Y21650D02*
D03*
X48400D02*
D03*
X49400D02*
D03*
X48850Y18050D02*
D03*
X47850D02*
D03*
D114*
X49690Y15380D02*
D03*
X47190D02*
D03*
D115*
X43450Y18666D02*
D03*
Y21934D02*
D03*
D116*
X46250Y23850D02*
D03*
Y22850D02*
D03*
Y21850D02*
D03*
Y24850D02*
D03*
X50400Y21650D02*
D03*
M02*
