%FSLAX24Y24*%
%MOIN*%
G70*
G01*
G75*
G04 Layer_Physical_Order=4*
G04 Layer_Color=16737945*
%ADD10C,0.0100*%
G04:AMPARAMS|DCode=11|XSize=63mil|YSize=98.4mil|CornerRadius=15.7mil|HoleSize=0mil|Usage=FLASHONLY|Rotation=0.000|XOffset=0mil|YOffset=0mil|HoleType=Round|Shape=RoundedRectangle|*
%AMROUNDEDRECTD11*
21,1,0.0630,0.0669,0,0,0.0*
21,1,0.0315,0.0984,0,0,0.0*
1,1,0.0315,0.0157,-0.0335*
1,1,0.0315,-0.0157,-0.0335*
1,1,0.0315,-0.0157,0.0335*
1,1,0.0315,0.0157,0.0335*
%
%ADD11ROUNDEDRECTD11*%
G04:AMPARAMS|DCode=12|XSize=33.5mil|YSize=17.7mil|CornerRadius=4.4mil|HoleSize=0mil|Usage=FLASHONLY|Rotation=0.000|XOffset=0mil|YOffset=0mil|HoleType=Round|Shape=RoundedRectangle|*
%AMROUNDEDRECTD12*
21,1,0.0335,0.0089,0,0,0.0*
21,1,0.0246,0.0177,0,0,0.0*
1,1,0.0089,0.0123,-0.0044*
1,1,0.0089,-0.0123,-0.0044*
1,1,0.0089,-0.0123,0.0044*
1,1,0.0089,0.0123,0.0044*
%
%ADD12ROUNDEDRECTD12*%
%ADD13O,0.0335X0.0110*%
%ADD14O,0.0110X0.0335*%
%ADD15R,0.2028X0.2028*%
%ADD16R,0.1850X0.1850*%
%ADD17O,0.0110X0.0315*%
%ADD18O,0.0315X0.0110*%
%ADD19O,0.0276X0.0098*%
%ADD20O,0.0098X0.0276*%
%ADD21O,0.0532X0.0177*%
%ADD22R,0.0142X0.0142*%
%ADD23R,0.0110X0.0110*%
G04:AMPARAMS|DCode=24|XSize=59.1mil|YSize=102.4mil|CornerRadius=0mil|HoleSize=0mil|Usage=FLASHONLY|Rotation=230.000|XOffset=0mil|YOffset=0mil|HoleType=Round|Shape=Rectangle|*
%AMROTATEDRECTD24*
4,1,4,-0.0202,0.0555,0.0582,-0.0103,0.0202,-0.0555,-0.0582,0.0103,-0.0202,0.0555,0.0*
%
%ADD24ROTATEDRECTD24*%

%ADD25R,0.0551X0.0630*%
%ADD26R,0.0630X0.0748*%
%ADD27R,0.0532X0.0157*%
%ADD28R,0.0138X0.0098*%
%ADD29R,0.0098X0.0187*%
%ADD30R,0.0217X0.0394*%
%ADD31R,0.0118X0.0193*%
%ADD32R,0.0118X0.0209*%
%ADD33R,0.0787X0.0472*%
%ADD34R,0.0335X0.0157*%
%ADD35R,0.0157X0.0335*%
%ADD36R,0.0276X0.0354*%
%ADD37R,0.0197X0.0315*%
%ADD38O,0.0315X0.0157*%
%ADD39R,0.2362X0.1890*%
%ADD40R,0.0236X0.0157*%
%ADD41R,0.0197X0.0354*%
%ADD42R,0.0157X0.0236*%
%ADD43R,0.0354X0.0197*%
%ADD44C,0.0060*%
%ADD45C,0.0050*%
%ADD46C,0.0120*%
%ADD47C,0.0181*%
%ADD48C,0.0080*%
%ADD49C,0.0150*%
%ADD50C,0.1260*%
%ADD51C,0.0630*%
%ADD52C,0.0180*%
%ADD53C,0.0197*%
%ADD54C,0.0276*%
%ADD55C,0.0260*%
%ADD56C,0.0220*%
%ADD57C,0.0200*%
D44*
X4400Y1900D02*
Y3350D01*
X4250Y3500D02*
X4400Y3350D01*
X4350Y1450D02*
X4650Y1750D01*
X4550Y-3100D02*
Y950D01*
X5500Y1900D01*
X4650Y1750D02*
Y3700D01*
X2000Y2300D02*
X2500D01*
X850Y1150D02*
X1590D01*
X850D02*
X2000Y2300D01*
X700Y1000D02*
X850Y1150D01*
X200Y1000D02*
X700D01*
X-450Y350D02*
X200Y1000D01*
X-850Y-1000D02*
Y1100D01*
X-1500Y-1650D02*
X-850Y-1000D01*
X-1500Y-2400D02*
Y-1650D01*
X-3150Y-4050D02*
X-1500Y-2400D01*
X2800Y3900D02*
X3250Y3450D01*
X700Y-3950D02*
X2450D01*
X250Y-4400D02*
X700Y-3950D01*
X-800Y-4350D02*
Y-3600D01*
Y-4350D02*
X-400Y-4750D01*
X-3500Y-4050D02*
X-3150D01*
X2950Y850D02*
Y3150D01*
X2800Y950D02*
Y2850D01*
X2600Y750D02*
X2800Y950D01*
X2600Y-2850D02*
Y750D01*
X2602Y3498D02*
X2950Y3150D01*
X2742Y2908D02*
X2800Y2850D01*
X2300Y5400D02*
X2400Y5500D01*
X200Y5400D02*
X2300D01*
X-100Y5100D02*
X200Y5400D01*
X-100Y3650D02*
Y5100D01*
X2350Y3900D02*
X2800D01*
X2200Y3750D02*
X2350Y3900D01*
X2200Y3500D02*
Y3750D01*
X2100Y3400D02*
X2200Y3500D01*
X-850Y3400D02*
X2100D01*
X-1000Y3550D02*
X-850Y3400D01*
X-1000Y3550D02*
Y4250D01*
X-1250Y2650D02*
Y4100D01*
Y2650D02*
X-1100Y2500D01*
X850D01*
X950Y2400D01*
Y2000D02*
Y2400D01*
X-1600Y1600D02*
Y4150D01*
X-1350Y4400D01*
X2405Y3695D02*
X2705D01*
X-2600Y600D02*
X-1600Y1600D01*
X-350Y-3050D02*
X2400D01*
X-452Y-2948D02*
X-350Y-3050D01*
X-1048Y-2948D02*
X-452D01*
X-1050Y-3350D02*
X-800Y-3600D01*
X-2600Y-50D02*
Y600D01*
X2408Y2908D02*
X2742D01*
X2400Y-3050D02*
X2600Y-2850D01*
X-1022Y-2150D02*
X-972Y-2200D01*
X250Y-4550D02*
Y-4400D01*
X-850Y1100D02*
X-300Y1650D01*
X300D01*
X461Y1489D01*
Y1311D02*
Y1489D01*
X3100Y-1550D02*
Y3300D01*
X2705Y3695D02*
X3100Y3300D01*
X3800Y1900D02*
Y3100D01*
X3600Y3300D02*
X3800Y3100D01*
X-1400Y-4550D02*
X-950Y-5000D01*
X-1400Y-4550D02*
Y-3318D01*
X-1228Y-3145D01*
X3050Y-1600D02*
X3100Y-1550D01*
X2450Y-3950D02*
X2850Y-3550D01*
Y750D01*
X2950Y850D01*
X-950Y-5000D02*
X2650D01*
X4550Y-3100D01*
X-400Y-4750D02*
X2400D01*
X4350Y-2800D01*
Y1450D01*
X2611Y2411D02*
Y2711D01*
X2500Y2300D02*
X2611Y2411D01*
X1590Y1150D02*
X1756Y984D01*
X-450Y-2000D02*
Y350D01*
X-650Y-2200D02*
X-450Y-2000D01*
X-972Y-2200D02*
X-650D01*
D45*
X-1395Y-2595D02*
Y-1845D01*
X-3000Y-4200D02*
X-1395Y-2595D01*
Y-1845D02*
X-650Y-1100D01*
X-3250Y-4200D02*
X-3000D01*
X-650Y-1100D02*
Y900D01*
X-3400Y-4350D02*
X-3250Y-4200D01*
X-3400Y-4600D02*
Y-4350D01*
Y-4600D02*
X-3250Y-4750D01*
X-3000D01*
X-650Y900D02*
X-400Y1150D01*
X3350Y3600D02*
X3650D01*
X2650Y4300D02*
X3350Y3600D01*
X850Y4300D02*
X2650D01*
X500Y4650D02*
X850Y4300D01*
D46*
X3550Y-2700D02*
X4050D01*
X3350Y-2500D02*
X3550Y-2700D01*
X3350Y-2500D02*
Y-1350D01*
D52*
X5500Y1900D02*
D03*
X4650Y3700D02*
D03*
X3600Y3300D02*
D03*
X3250Y3450D02*
D03*
X2400Y5500D02*
D03*
X-100Y3650D02*
D03*
X-1250Y4100D02*
D03*
X950Y2000D02*
D03*
X-1000Y4250D02*
D03*
X500Y4650D02*
D03*
X-1350Y4400D02*
D03*
X-1228Y-3145D02*
D03*
X-1050Y-3350D02*
D03*
X-2600Y-50D02*
D03*
X3050Y-1600D02*
D03*
X-1022Y-2150D02*
D03*
X-1048Y-2948D02*
D03*
X3350Y-1350D02*
D03*
X2408Y2908D02*
D03*
X2611Y2711D02*
D03*
X2602Y3498D02*
D03*
X2405Y3695D02*
D03*
X-3000Y-4750D02*
D03*
X-400Y1150D02*
D03*
X461Y1311D02*
D03*
X250Y-4550D02*
D03*
X1756Y984D02*
D03*
X-3500Y-4050D02*
D03*
X4400Y1900D02*
D03*
X3800D02*
D03*
X3650Y3600D02*
D03*
X4250Y3500D02*
D03*
D56*
X4050Y-2700D02*
D03*
M02*
