M48
;Layer_Color=9474304
;FILE_FORMAT=2:4
INCH
;TYPE=PLATED
T1F00S00C0.0130
T2F00S00C0.0150
T3F00S00C0.0157
T4F00S00C0.0200
T5F00S00C0.0354
T6F00S00C0.0472
T7F00S00C0.0846
%
T01
X047150Y019550
X047230Y020770
X047867Y022867
X048300
X048733
X049167
X049600
X050033
Y023300
Y023733
X049600
Y023300
X049167
Y023733
X048733
Y023300
X048300
Y023733
X047867
Y023300
Y024167
X048300
X048733
X049167
X049600
X050033
Y024600
X049600
X049167
X048733
X048300
X047867
Y025033
X048300
X048733
X049167
X049600
X050033
X050230Y026000
X050350Y027000
X051150
X051640Y028170
X052917Y028033
Y027600
Y027167
X053350
X053783
Y027600
X053350
Y028033
X053783
X054750Y028150
X053840Y029540
X052640Y025200
X051110Y024836
Y023970
Y022850
X050200Y020250
Y019800
X049490Y017670
X054220Y022290
Y024180
X046900Y024650
X047720Y027000
X048000Y028150
X048550Y027850
X048900Y027450
X049300Y027100
X048450Y029200
X048583Y030300
X048150
X047717
X047284
Y030733
Y031167
X047717
Y030733
X048150
Y031167
X048583
Y030733
X049016
Y030300
Y031167
X045550Y029750
X044650Y030200
X044300Y027300
X046850Y026350
X046500Y025500
X046840Y023380
Y022950
X045150Y022900
Y022100
X045500Y021000
X045150Y020590
X045850Y019000
X046560Y016410
X041980Y016550
X041660Y015930
X041150Y018780
X040600Y019250
X040250Y023750
X043700Y024000
X044000Y023200
X041750Y028500
X047284Y031600
X047717
X048150
X048583
X049016
T02
X048970Y020350
X053710Y022660
X045190Y024510
T03
X048700Y019850
T04
X047600Y018600
X052780Y018070
X053470Y015890
X051200Y015870
X052870Y021000
X052620Y023470
Y023970
X052160Y025200
X053170Y025230
X054320Y025190
Y025660
X054480Y026360
X054320Y024720
X054190Y023620
X052300Y028900
X045650Y025250
X042000Y025800
X042690Y026555
X043150Y027750
X040800Y028500
X040500Y029250
X040750Y023250
X042980Y019570
X044350Y020450
X043183Y017120
X050200Y031700
T05
X047850Y018050
X048850
X048400Y021650
X049400
X050400
X047400
X047550Y028550
X048550
X049550
X050550
X046550
X046250Y024850
Y023850
Y022850
Y021850
X045270Y017100
X044270
X041560Y031510
X040560
T06
X047190Y015380
X049690
X050730Y015270
X055980Y015290
X051300Y030360
X045300Y028400
X044350Y029100
X041900Y029450
T07
X043450Y018666
Y021934
M30
