M48
;Layer_Color=9474304
;FILE_FORMAT=2:4
INCH,LZ
;TYPE=PLATED
T1F00S00C0.0160
T2F00S00C0.0200
T3F00S00C0.0320
T4F00S00C0.0354
T5F00S00C0.0472
T6F00S00C0.0980
%
T01
X00235Y0004
X00245Y00115
Y0017
X00275Y00325
X0042Y00305
X00435Y0023
X0038Y00245
X0043Y00415
X001534Y003734
X00185Y00495
X00525Y0014
X00585Y0004
X00635
X0061Y0025
X006776Y002874
X0082Y00225
X0089Y0017
X01045Y00225
X01115Y00175
X0127Y00225
X01345Y00175
X0138Y00205
X01405Y0028
X0152Y0026
Y0031
Y0036
Y0041
Y0046
Y0051
Y0021
X01385Y0004
X01115Y0042
X01065Y0046
X0099Y00495
X0084Y0052
X0079Y00575
X0073Y00555
X00645
X00565Y0047
X0079Y00455
X01245Y0055
X011374Y005874
X01005Y00635
X0099Y00735
X0094Y0073
X0088Y00705
X007976Y007474
X0079Y0067
X0076Y00645
X0077Y00835
X00715Y0085
X00655Y0079
X0057Y0078
Y00685
X00635Y01
X00735
X008976Y009976
X0095Y0092
X0098Y0083
X01025
X010668Y008868
X01065Y0094
X010632Y009931
X012069
X012023Y009223
X01405Y0098
X0145Y0104
X0152Y0106
Y0101
Y0096
Y0091
Y0086
Y0081
Y00755
Y00705
Y00645
X01325Y00715
X01335Y0113
X0128Y01135
X00985Y01135
X00885Y0113
X00795Y0113
X00655
X00605Y0113
X0081Y00895
X0055Y01055
X0046Y0098
X0043Y0081
X003607Y006857
X00125Y0067
Y00605
X0007Y0064
Y007
Y00755
Y0081
X0009Y00925
X001826Y008574
T02
X0017Y01125
T03
X00345Y0089
Y01025
T04
X0033Y00085
Y00185
X002341Y01125
X001159
T05
X00055Y0006
Y0031
X0033Y00295
X0146Y00075
T06
X00285Y004416
Y007684
M30
