M48
;Layer_Color=9474304
;FILE_FORMAT=2:4
INCH,LZ
;TYPE=PLATED
T1F00S00C0.0060
T2F00S00C0.0080
T3F00S00C0.0120
T4F00S00C0.0130
T5F00S00C0.0160
T6F00S00C0.0320
T7F00S00C0.0354
T8F00S00C0.0472
T9F00S00C0.0748
%
T01
X00096Y0027
X00217Y00269
X00247Y00271
X00262Y00205
X003486Y002094
X00378Y00201
X0032Y0031
X00325Y00332
X00344Y00365
X00294Y00414
X00274Y00432
X00275Y00493
X0028Y00521
X003Y00551
X00262Y00569
X00237Y00595
X00226Y00642
X002293Y00694
X001977Y007017
X00188Y00574
X00134Y00627
X000332Y005128
X000248Y004932
X000355Y004735
X000333Y004093
X001605Y004215
X00455Y00452
X004695Y004905
X00445Y00515
X004286Y00549
X00394Y00567
X00452Y006002
X00447Y00622
X00425Y006289
X004178Y006508
X003836Y00671
X00486Y00577
X00532Y005549
X00555Y005597
X005616Y00581
X00526Y00478
X00616Y00442
X00651Y00387
X00675Y00394
X00755Y00439
X00817Y00401
X00878Y00377
X00893Y00358
X009264Y003676
X00949Y00421
X009696Y005304
X00968Y006
X00911Y00565
X008793Y006963
X00783Y00709
X00759Y00656
X007308Y006538
X006536Y00656
X006594Y00678
X006813Y00684
X006871Y00706
X00451Y00356
X00464Y00312
X004723Y000233
X00602Y00058
X00725Y00111
X00839Y00159
X00836Y00198
X00804Y00199
X00836Y00267
X00895Y00236
X00885Y00785
X00823Y00856
X00781Y00815
X00759Y007965
X00695Y007319
X006733Y00738
X006654Y00758
X00644Y007644
X00638Y007862
X00617Y00793
X006111Y00815
X00599Y00905
X0058Y009252
X006Y00971
X00622Y00956
X00669Y00901
X00555Y008703
X004454Y00892
X00423Y008866
X00417Y008648
X003929Y00861
X00388Y00838
X00365Y008328
X00364Y00859
X003604Y0081
X003179Y00769
X00297Y00783
X00275Y00771
X002382Y0073
X003Y00714
X00375Y0074
X00418Y00778
X00485Y00936
X00322Y00933
X00289Y00912
X00241Y00835
X00208Y008033
X00155Y00825
X0013Y00715
T02
X00027Y00567
X00236Y0044
X00237Y00408
X00508Y00401
X0053Y00375
X00523Y00291
Y00243
X0045Y00241
X006607Y002703
X00711Y00277
X0074Y00346
X00739Y0037
X008163Y003747
X008206Y003156
X00656Y00343
X00669Y00201
X00782Y00525
X007817Y005503
X00975Y0056
X005207Y009427
T03
X006902Y005942
X00687Y00918
T04
X00131Y00503
X004582Y006816
X004916Y006482
X00525Y006148
X005584Y006482
X00525Y006816
X005918
X005584Y00715
X005918Y007484
X00525
X005584Y007818
X004916
X004582Y007484
X004248Y00715
X004916
X00525Y008152
X006252Y00715
T05
X00127Y00343
X00397Y001
X00497
T06
X00304Y00095
Y00177
T07
X004409Y00098
X005591Y00098
T08
X0008Y00375
Y00625
T09
X003566Y00495
X006834
M30
