%FSLAX24Y24*%
%MOIN*%
G70*
G01*
G75*
G04 Layer_Color=8421504*
%ADD10C,0.0100*%
%ADD11C,0.0197*%
%ADD12C,0.0197*%
%ADD13C,0.0394*%
%ADD14R,0.0453X0.0551*%
%ADD15R,0.0374X0.0335*%
%ADD16R,0.0217X0.0512*%
%ADD17R,0.1417X0.1417*%
%ADD18O,0.0295X0.0079*%
%ADD19O,0.0079X0.0295*%
%ADD20O,0.0315X0.0157*%
%ADD21R,0.2362X0.1890*%
%ADD22R,0.2598X0.2598*%
%ADD23O,0.0079X0.0315*%
%ADD24O,0.0315X0.0079*%
%ADD25R,0.0157X0.0335*%
%ADD26R,0.0118X0.0193*%
%ADD27R,0.0118X0.0209*%
%ADD28O,0.0098X0.0276*%
%ADD29O,0.0276X0.0098*%
%ADD30R,0.0335X0.0157*%
%ADD31O,0.0217X0.0866*%
%ADD32O,0.0177X0.0532*%
%ADD33R,0.0217X0.0394*%
%ADD34R,0.0157X0.0236*%
%ADD35R,0.0236X0.0157*%
%ADD36R,0.0354X0.0276*%
%ADD37R,0.0354X0.0197*%
%ADD38R,0.0630X0.0551*%
%ADD39R,0.0748X0.0630*%
%ADD40R,0.0157X0.0532*%
%ADD41R,0.0197X0.0354*%
%ADD42R,0.1339X0.0591*%
%ADD43R,0.1378X0.0394*%
%ADD44R,0.0138X0.0394*%
%ADD45R,0.0217X0.0098*%
%ADD46R,0.1024X0.0591*%
%ADD47R,0.0197X0.0315*%
G04:AMPARAMS|DCode=48|XSize=63mil|YSize=98.4mil|CornerRadius=15.7mil|HoleSize=0mil|Usage=FLASHONLY|Rotation=270.000|XOffset=0mil|YOffset=0mil|HoleType=Round|Shape=RoundedRectangle|*
%AMROUNDEDRECTD48*
21,1,0.0630,0.0669,0,0,270.0*
21,1,0.0315,0.0984,0,0,270.0*
1,1,0.0315,-0.0335,-0.0157*
1,1,0.0315,-0.0335,0.0157*
1,1,0.0315,0.0335,0.0157*
1,1,0.0315,0.0335,-0.0157*
%
%ADD48ROUNDEDRECTD48*%
G04:AMPARAMS|DCode=49|XSize=33.5mil|YSize=17.7mil|CornerRadius=4.4mil|HoleSize=0mil|Usage=FLASHONLY|Rotation=270.000|XOffset=0mil|YOffset=0mil|HoleType=Round|Shape=RoundedRectangle|*
%AMROUNDEDRECTD49*
21,1,0.0335,0.0089,0,0,270.0*
21,1,0.0246,0.0177,0,0,270.0*
1,1,0.0089,-0.0044,-0.0123*
1,1,0.0089,-0.0044,0.0123*
1,1,0.0089,0.0044,0.0123*
1,1,0.0089,0.0044,-0.0123*
%
%ADD49ROUNDEDRECTD49*%
%ADD50C,0.0200*%
%ADD51C,0.0150*%
%ADD52C,0.0661*%
%ADD53C,0.0591*%
%ADD54C,0.0591*%
%ADD55C,0.1260*%
%ADD56C,0.0630*%
%ADD57C,0.0270*%
%ADD58C,0.0340*%
%ADD59C,0.0290*%
%ADD60C,0.0300*%
%ADD61R,0.0276X0.0354*%
%ADD62O,0.0315X0.0098*%
%ADD63O,0.0098X0.0315*%
%ADD64R,0.1299X0.1299*%
%ADD65R,0.0591X0.0236*%
%ADD66C,0.0098*%
%ADD67C,0.0157*%
%ADD68C,0.0039*%
%ADD69C,0.0079*%
%ADD70C,0.0047*%
%ADD71C,0.0050*%
%ADD72C,0.0040*%
%ADD73C,0.0060*%
%ADD74R,0.0148X0.0177*%
%ADD75R,0.0551X0.0433*%
D14*
X56715Y28333D02*
D03*
Y27467D02*
D03*
X56085D02*
D03*
Y28333D02*
D03*
D15*
X52305Y22826D02*
D03*
X51735D02*
D03*
Y22374D02*
D03*
X52305D02*
D03*
D16*
X51974Y17462D02*
D03*
X51600D02*
D03*
X51226D02*
D03*
Y16478D02*
D03*
X51974D02*
D03*
D17*
X53350Y27600D02*
D03*
D18*
X54344Y28289D02*
D03*
Y28092D02*
D03*
Y27895D02*
D03*
Y27698D02*
D03*
Y27502D02*
D03*
Y27305D02*
D03*
Y27108D02*
D03*
Y26911D02*
D03*
X52356D02*
D03*
Y27108D02*
D03*
Y27305D02*
D03*
Y27502D02*
D03*
Y27698D02*
D03*
Y27895D02*
D03*
Y28092D02*
D03*
Y28289D02*
D03*
D19*
X54039Y26606D02*
D03*
X53842D02*
D03*
X53645D02*
D03*
X53448D02*
D03*
X53252D02*
D03*
X53055D02*
D03*
X52858D02*
D03*
X52661D02*
D03*
Y28594D02*
D03*
X52858D02*
D03*
X53055D02*
D03*
X53252D02*
D03*
X53448D02*
D03*
X53645D02*
D03*
X53842D02*
D03*
X54039D02*
D03*
D20*
X49705Y30200D02*
D03*
Y30700D02*
D03*
Y31200D02*
D03*
Y31700D02*
D03*
X46595D02*
D03*
Y31200D02*
D03*
Y30700D02*
D03*
Y30200D02*
D03*
D21*
X48150Y30950D02*
D03*
D22*
X48950Y23950D02*
D03*
D23*
X47670Y25525D02*
D03*
X47867D02*
D03*
X48064D02*
D03*
X48261D02*
D03*
X48458D02*
D03*
X48655D02*
D03*
X48852D02*
D03*
X49048D02*
D03*
X49245D02*
D03*
X49442D02*
D03*
X49639D02*
D03*
X49836D02*
D03*
X50033D02*
D03*
X50230D02*
D03*
Y22375D02*
D03*
X50033D02*
D03*
X49836D02*
D03*
X49639D02*
D03*
X49442D02*
D03*
X49245D02*
D03*
X49048D02*
D03*
X48852D02*
D03*
X48655D02*
D03*
X48458D02*
D03*
X48261D02*
D03*
X48064D02*
D03*
X47867D02*
D03*
X47670D02*
D03*
D24*
X50525Y25230D02*
D03*
Y25033D02*
D03*
Y24836D02*
D03*
Y24639D02*
D03*
Y24442D02*
D03*
Y24245D02*
D03*
Y24048D02*
D03*
Y23852D02*
D03*
Y23655D02*
D03*
Y23458D02*
D03*
Y23261D02*
D03*
Y23064D02*
D03*
Y22867D02*
D03*
Y22670D02*
D03*
X47375D02*
D03*
Y22867D02*
D03*
Y23064D02*
D03*
Y23261D02*
D03*
Y23458D02*
D03*
Y23655D02*
D03*
Y23852D02*
D03*
Y24048D02*
D03*
Y24245D02*
D03*
Y24442D02*
D03*
Y24639D02*
D03*
Y24836D02*
D03*
Y25033D02*
D03*
Y25230D02*
D03*
D25*
X53458Y23950D02*
D03*
X53714Y24698D02*
D03*
X53458D02*
D03*
X53202D02*
D03*
Y23950D02*
D03*
X53714D02*
D03*
X40694Y23876D02*
D03*
X40950D02*
D03*
X41206D02*
D03*
Y24624D02*
D03*
X40694D02*
D03*
D26*
X44653Y21298D02*
D03*
X44850D02*
D03*
X45047D02*
D03*
Y21002D02*
D03*
X44850D02*
D03*
D27*
X44653Y21010D02*
D03*
D28*
X43795Y20615D02*
D03*
X43598D02*
D03*
X43402D02*
D03*
X43205D02*
D03*
Y19985D02*
D03*
X43402D02*
D03*
X43598D02*
D03*
X43795D02*
D03*
D29*
X43106Y20300D02*
D03*
X43894D02*
D03*
D30*
X53472Y21866D02*
D03*
Y21610D02*
D03*
Y21354D02*
D03*
X54220D02*
D03*
Y21866D02*
D03*
D31*
X44800Y26555D02*
D03*
X44300D02*
D03*
X43800D02*
D03*
X43300D02*
D03*
X44800Y24645D02*
D03*
X44300D02*
D03*
X43800D02*
D03*
X43300D02*
D03*
D32*
X40966Y26958D02*
D03*
X41222D02*
D03*
X41478D02*
D03*
X41734D02*
D03*
X40966Y27942D02*
D03*
X41222D02*
D03*
X41478D02*
D03*
X41734D02*
D03*
D33*
X54004Y17462D02*
D03*
X53630D02*
D03*
X53256D02*
D03*
Y16478D02*
D03*
X54004D02*
D03*
D34*
X50627Y31200D02*
D03*
X50273D02*
D03*
X41626Y18810D02*
D03*
X41980D02*
D03*
X43423Y23600D02*
D03*
X43777D02*
D03*
X42677D02*
D03*
X42323D02*
D03*
Y24650D02*
D03*
X42677D02*
D03*
X43927Y27750D02*
D03*
X43573D02*
D03*
X45273Y27550D02*
D03*
X45627D02*
D03*
X42323Y27150D02*
D03*
X42677D02*
D03*
X44423Y27750D02*
D03*
X44777D02*
D03*
X41227Y28950D02*
D03*
X40873D02*
D03*
X40373Y26300D02*
D03*
X40727D02*
D03*
X50883Y18900D02*
D03*
X51237D02*
D03*
X46527Y19550D02*
D03*
X46173D02*
D03*
X47127Y17700D02*
D03*
X46773D02*
D03*
X51977Y15870D02*
D03*
X51623D02*
D03*
X51973Y18070D02*
D03*
X52327D02*
D03*
X57077Y26800D02*
D03*
X56723D02*
D03*
X51463Y21200D02*
D03*
X51817D02*
D03*
X46123Y26050D02*
D03*
X46477D02*
D03*
X41623Y26250D02*
D03*
X41977D02*
D03*
X44777Y23250D02*
D03*
X44423D02*
D03*
X44777Y23750D02*
D03*
X44423D02*
D03*
X40727Y25150D02*
D03*
X40373D02*
D03*
X54003Y15890D02*
D03*
X54357D02*
D03*
X53253Y18070D02*
D03*
X53607D02*
D03*
X51907Y21670D02*
D03*
X51553D02*
D03*
X49203Y20790D02*
D03*
X49557D02*
D03*
X46503Y27000D02*
D03*
X46857D02*
D03*
X51987Y23410D02*
D03*
X51633D02*
D03*
X50584Y26380D02*
D03*
X50230D02*
D03*
D35*
X46050Y30223D02*
D03*
Y30577D02*
D03*
X51250Y18397D02*
D03*
Y18043D02*
D03*
X54950Y26727D02*
D03*
Y26373D02*
D03*
X51010Y21607D02*
D03*
Y21253D02*
D03*
X51110Y25573D02*
D03*
Y25927D02*
D03*
X42500Y16983D02*
D03*
Y17337D02*
D03*
X45650Y26027D02*
D03*
Y25673D02*
D03*
X41200Y25973D02*
D03*
Y26327D02*
D03*
Y23023D02*
D03*
Y23377D02*
D03*
X40350Y28073D02*
D03*
Y28427D02*
D03*
X41700Y24023D02*
D03*
Y24377D02*
D03*
X54800Y30627D02*
D03*
Y30273D02*
D03*
X46900Y18527D02*
D03*
Y18173D02*
D03*
X44100Y31277D02*
D03*
Y30923D02*
D03*
X51640Y28573D02*
D03*
Y28927D02*
D03*
X52650Y25877D02*
D03*
Y25523D02*
D03*
X52890Y29503D02*
D03*
Y29857D02*
D03*
X53390Y29503D02*
D03*
Y29857D02*
D03*
X54250Y29373D02*
D03*
Y29727D02*
D03*
X55510Y26037D02*
D03*
Y25683D02*
D03*
X55850Y30627D02*
D03*
Y30273D02*
D03*
X55450Y28323D02*
D03*
Y28677D02*
D03*
X52300Y21583D02*
D03*
Y21937D02*
D03*
X51060Y22367D02*
D03*
Y22013D02*
D03*
X52920Y22826D02*
D03*
Y22472D02*
D03*
X47300Y26073D02*
D03*
Y26427D02*
D03*
X41586Y16637D02*
D03*
Y16283D02*
D03*
X40250Y23327D02*
D03*
Y22973D02*
D03*
X41200Y25173D02*
D03*
Y25527D02*
D03*
Y22223D02*
D03*
Y22577D02*
D03*
X40350Y27273D02*
D03*
Y27627D02*
D03*
X51590Y25927D02*
D03*
Y25573D02*
D03*
X52070Y25927D02*
D03*
Y25573D02*
D03*
X45530Y24057D02*
D03*
Y23703D02*
D03*
X46820Y20770D02*
D03*
Y21124D02*
D03*
D36*
X44074Y30200D02*
D03*
X43326Y29944D02*
D03*
Y30456D02*
D03*
D37*
X54800Y29055D02*
D03*
Y29645D02*
D03*
X45650Y26455D02*
D03*
Y27045D02*
D03*
D38*
X47180Y16364D02*
D03*
X49700D02*
D03*
D39*
X47968Y15380D02*
D03*
X48912D02*
D03*
D40*
X48440Y16433D02*
D03*
X48696D02*
D03*
X48952D02*
D03*
X48184D02*
D03*
X47928D02*
D03*
D41*
X46305Y19000D02*
D03*
X46895D02*
D03*
X40155Y25700D02*
D03*
X40745D02*
D03*
D42*
X57805Y19009D02*
D03*
Y16371D02*
D03*
D43*
X55620Y18084D02*
D03*
Y17296D02*
D03*
D44*
X52066Y24698D02*
D03*
X51810D02*
D03*
X51554D02*
D03*
Y23989D02*
D03*
X51810D02*
D03*
X52066D02*
D03*
D45*
X53714Y25603D02*
D03*
Y25800D02*
D03*
Y25997D02*
D03*
X53380D02*
D03*
Y25800D02*
D03*
Y25603D02*
D03*
D46*
X56394Y20949D02*
D03*
Y22977D02*
D03*
D47*
X43892Y16566D02*
D03*
X43537D02*
D03*
X43183D02*
D03*
X42828D02*
D03*
Y16094D02*
D03*
X43183D02*
D03*
X43537D02*
D03*
X43892D02*
D03*
D48*
X41586Y17680D02*
D03*
D49*
X41980Y18251D02*
D03*
X41586D02*
D03*
X41980Y17109D02*
D03*
X41586D02*
D03*
X41193Y18251D02*
D03*
Y17109D02*
D03*
M02*
