%FSLAX24Y24*%
%MOIN*%
G70*
G01*
G75*
G04 Layer_Color=65535*
%ADD10C,0.0100*%
%ADD11C,0.0197*%
%ADD12C,0.0197*%
%ADD13C,0.0394*%
%ADD14R,0.0453X0.0551*%
%ADD15R,0.0374X0.0335*%
%ADD16R,0.0217X0.0512*%
%ADD17R,0.1417X0.1417*%
%ADD18O,0.0295X0.0079*%
%ADD19O,0.0079X0.0295*%
%ADD20O,0.0315X0.0157*%
%ADD21R,0.2362X0.1890*%
%ADD22R,0.2598X0.2598*%
%ADD23O,0.0079X0.0315*%
%ADD24O,0.0315X0.0079*%
%ADD25R,0.0157X0.0335*%
%ADD26R,0.0118X0.0193*%
%ADD27R,0.0118X0.0209*%
%ADD28O,0.0098X0.0276*%
%ADD29O,0.0276X0.0098*%
%ADD30R,0.0335X0.0157*%
%ADD31O,0.0217X0.0866*%
%ADD32O,0.0177X0.0532*%
%ADD33R,0.0217X0.0394*%
%ADD34R,0.0157X0.0236*%
%ADD35R,0.0236X0.0157*%
%ADD36R,0.0354X0.0276*%
%ADD37R,0.0354X0.0197*%
%ADD38R,0.0630X0.0551*%
%ADD39R,0.0748X0.0630*%
%ADD40R,0.0157X0.0532*%
%ADD41R,0.0197X0.0354*%
%ADD42R,0.1339X0.0591*%
%ADD43R,0.1378X0.0394*%
%ADD44R,0.0138X0.0394*%
%ADD45R,0.0217X0.0098*%
%ADD46R,0.1024X0.0591*%
%ADD47R,0.0197X0.0315*%
G04:AMPARAMS|DCode=48|XSize=63mil|YSize=98.4mil|CornerRadius=15.7mil|HoleSize=0mil|Usage=FLASHONLY|Rotation=270.000|XOffset=0mil|YOffset=0mil|HoleType=Round|Shape=RoundedRectangle|*
%AMROUNDEDRECTD48*
21,1,0.0630,0.0669,0,0,270.0*
21,1,0.0315,0.0984,0,0,270.0*
1,1,0.0315,-0.0335,-0.0157*
1,1,0.0315,-0.0335,0.0157*
1,1,0.0315,0.0335,0.0157*
1,1,0.0315,0.0335,-0.0157*
%
%ADD48ROUNDEDRECTD48*%
G04:AMPARAMS|DCode=49|XSize=33.5mil|YSize=17.7mil|CornerRadius=4.4mil|HoleSize=0mil|Usage=FLASHONLY|Rotation=270.000|XOffset=0mil|YOffset=0mil|HoleType=Round|Shape=RoundedRectangle|*
%AMROUNDEDRECTD49*
21,1,0.0335,0.0089,0,0,270.0*
21,1,0.0246,0.0177,0,0,270.0*
1,1,0.0089,-0.0044,-0.0123*
1,1,0.0089,-0.0044,0.0123*
1,1,0.0089,0.0044,0.0123*
1,1,0.0089,0.0044,-0.0123*
%
%ADD49ROUNDEDRECTD49*%
%ADD50C,0.0200*%
%ADD51C,0.0150*%
%ADD52C,0.0661*%
%ADD53C,0.0591*%
%ADD54C,0.0591*%
%ADD55C,0.1260*%
%ADD56C,0.0630*%
%ADD57C,0.0270*%
%ADD58C,0.0340*%
%ADD59C,0.0290*%
%ADD60C,0.0300*%
%ADD61R,0.0276X0.0354*%
%ADD62O,0.0315X0.0098*%
%ADD63O,0.0098X0.0315*%
%ADD64R,0.1299X0.1299*%
%ADD65R,0.0591X0.0236*%
%ADD66C,0.0098*%
%ADD67C,0.0157*%
%ADD68C,0.0039*%
%ADD69C,0.0079*%
%ADD70C,0.0047*%
%ADD71C,0.0050*%
%ADD72C,0.0040*%
%ADD73C,0.0060*%
%ADD74R,0.0148X0.0177*%
%ADD75R,0.0551X0.0433*%
D10*
X55959Y28746D02*
G03*
X55959Y28746I-31J0D01*
G01*
X52642Y22817D02*
G03*
X52642Y22817I-22J0D01*
G01*
X54009Y24600D02*
G03*
X54009Y24600I-39J0D01*
G01*
X44466Y20904D02*
G03*
X44466Y20904I-10J0D01*
G01*
X53610Y22122D02*
G03*
X53610Y22122I-39J0D01*
G01*
X40478Y23974D02*
G03*
X40478Y23974I-39J0D01*
G01*
X43464Y30712D02*
G03*
X43464Y30712I-39J0D01*
G01*
X53836Y25426D02*
G03*
X53836Y25426I-14J0D01*
G01*
X44136Y16674D02*
G03*
X44136Y16674I-14J0D01*
G01*
X53065Y24167D02*
Y24481D01*
X53852Y24167D02*
Y24481D01*
X53689Y21216D02*
X54003D01*
X53689Y22004D02*
X54003D01*
X41344Y24093D02*
Y24407D01*
X40556Y24093D02*
Y24407D01*
X43543Y30594D02*
X43857D01*
X43543Y29806D02*
X43857D01*
D66*
X52299Y17383D02*
G03*
X52299Y17383I-49J0D01*
G01*
X54403Y28919D02*
G03*
X54403Y28919I-49J0D01*
G01*
X50050Y29749D02*
G03*
X50050Y29749I-49J0D01*
G01*
X47080Y25554D02*
G03*
X47080Y25554I-49J0D01*
G01*
X43844Y20969D02*
G03*
X43844Y20969I-49J0D01*
G01*
X45174Y26555D02*
G03*
X45174Y26555I-49J0D01*
G01*
X40710Y26958D02*
G03*
X40710Y26958I-49J0D01*
G01*
X54378Y17442D02*
G03*
X54378Y17442I-49J0D01*
G01*
D67*
X44798Y25649D02*
G03*
X44798Y25649I-79J0D01*
G01*
D68*
X56370Y28638D02*
X56430D01*
X55829Y27802D02*
Y27998D01*
X56971Y27802D02*
Y27998D01*
X56370Y27162D02*
X56430D01*
X51981Y23013D02*
X52059D01*
X51981Y22187D02*
X52059D01*
X50411Y31308D02*
X50489D01*
X50411Y31092D02*
X50489D01*
X46158Y30361D02*
Y30439D01*
X45942Y30361D02*
Y30439D01*
X51142Y18181D02*
Y18259D01*
X51358Y18181D02*
Y18259D01*
X54842Y26511D02*
Y26589D01*
X55058Y26511D02*
Y26589D01*
X50902Y21391D02*
Y21469D01*
X51118Y21391D02*
Y21469D01*
X51218Y25711D02*
Y25789D01*
X51002Y25711D02*
Y25789D01*
X43561Y23492D02*
X43639D01*
X43561Y23708D02*
X43639D01*
X42461D02*
X42539D01*
X42461Y23492D02*
X42539D01*
X42461Y24542D02*
X42539D01*
X42461Y24758D02*
X42539D01*
X45542Y25811D02*
Y25889D01*
X45758Y25811D02*
Y25889D01*
X43711Y27858D02*
X43789D01*
X43711Y27642D02*
X43789D01*
X45411Y27442D02*
X45489D01*
X45411Y27658D02*
X45489D01*
X42461Y27042D02*
X42539D01*
X42461Y27258D02*
X42539D01*
X44561Y27642D02*
X44639D01*
X44561Y27858D02*
X44639D01*
X41308Y26111D02*
Y26189D01*
X41092Y26111D02*
Y26189D01*
X41011Y29058D02*
X41089D01*
X41011Y28842D02*
X41089D01*
X41308Y23161D02*
Y23239D01*
X41092Y23161D02*
Y23239D01*
X40511Y26192D02*
X40589D01*
X40511Y26408D02*
X40589D01*
X40458Y28211D02*
Y28289D01*
X40242Y28211D02*
Y28289D01*
X41808Y24161D02*
Y24239D01*
X41592Y24161D02*
Y24239D01*
X54967Y29212D02*
Y29488D01*
X54623Y29212D02*
Y29488D01*
X54692Y30411D02*
Y30489D01*
X54908Y30411D02*
Y30489D01*
X46792Y18311D02*
Y18389D01*
X47008Y18311D02*
Y18389D01*
X51011Y18831D02*
Y18969D01*
Y18831D02*
X51080Y18900D01*
X51011Y18969D02*
X51080Y18900D01*
X51109Y18831D02*
Y18969D01*
X45650Y26671D02*
X45817Y26839D01*
X45473D02*
X45817D01*
X45473D02*
X45640Y26671D01*
X45473D02*
X45817D01*
X43992Y31061D02*
Y31139D01*
X44208Y31061D02*
Y31139D01*
X46311Y19658D02*
X46389D01*
X46311Y19442D02*
X46389D01*
X46911Y17808D02*
X46989D01*
X46911Y17592D02*
X46989D01*
X47050Y18800D02*
Y19200D01*
X46462Y18833D02*
X46738D01*
X46462Y19177D02*
X46738D01*
X51761Y15978D02*
X51839D01*
X51761Y15762D02*
X51839D01*
X52111Y17962D02*
X52189D01*
X52111Y18178D02*
X52189D01*
X51748Y28711D02*
Y28789D01*
X51532Y28711D02*
Y28789D01*
X52542Y25661D02*
Y25739D01*
X52758Y25661D02*
Y25739D01*
X52998Y29641D02*
Y29719D01*
X52782Y29641D02*
Y29719D01*
X53498Y29641D02*
Y29719D01*
X53282Y29641D02*
Y29719D01*
X54358Y29511D02*
Y29589D01*
X54142Y29511D02*
Y29589D01*
X55402Y25821D02*
Y25899D01*
X55618Y25821D02*
Y25899D01*
X56861Y26908D02*
X56939D01*
X56861Y26692D02*
X56939D01*
X55742Y30411D02*
Y30489D01*
X55958Y30411D02*
Y30489D01*
X55558Y28461D02*
Y28539D01*
X55342Y28461D02*
Y28539D01*
X51601Y21092D02*
X51679D01*
X51601Y21308D02*
X51679D01*
X52408Y21721D02*
Y21799D01*
X52192Y21721D02*
Y21799D01*
X50952Y22151D02*
Y22229D01*
X51168Y22151D02*
Y22229D01*
X52812Y22610D02*
Y22689D01*
X53028Y22610D02*
Y22689D01*
X47408Y26211D02*
Y26289D01*
X47192Y26211D02*
Y26289D01*
X46261Y25942D02*
X46339D01*
X46261Y26158D02*
X46339D01*
X41761Y26142D02*
X41839D01*
X41761Y26358D02*
X41839D01*
X44561Y23358D02*
X44639D01*
X44561Y23142D02*
X44639D01*
X44561Y23858D02*
X44639D01*
X44561Y23642D02*
X44639D01*
X40312Y25533D02*
X40588D01*
X40312Y25877D02*
X40588D01*
X40511Y25258D02*
X40589D01*
X40511Y25042D02*
X40589D01*
X40142Y23111D02*
Y23189D01*
X40358Y23111D02*
Y23189D01*
X41308Y25311D02*
Y25389D01*
X41092Y25311D02*
Y25389D01*
X41308Y22361D02*
Y22439D01*
X41092Y22361D02*
Y22439D01*
X40458Y27411D02*
Y27489D01*
X40242Y27411D02*
Y27489D01*
X54141Y15782D02*
X54219D01*
X54141Y15998D02*
X54219D01*
X53391Y17962D02*
X53469D01*
X53391Y18178D02*
X53469D01*
X42177Y16873D02*
Y17316D01*
X40996Y16873D02*
Y17316D01*
Y18044D02*
Y18487D01*
X42177Y18044D02*
Y18487D01*
X40996Y16873D02*
X42177D01*
X40996Y18487D02*
X42177D01*
X51482Y25711D02*
Y25789D01*
X51698Y25711D02*
Y25789D01*
X51962Y25711D02*
Y25789D01*
X52178Y25711D02*
Y25789D01*
X51691Y21778D02*
X51769D01*
X51691Y21562D02*
X51769D01*
X45422Y23841D02*
Y23919D01*
X45638Y23841D02*
Y23919D01*
X46928Y20908D02*
Y20987D01*
X46712Y20908D02*
Y20987D01*
X49341Y20682D02*
X49419D01*
X49341Y20898D02*
X49419D01*
X46641Y26892D02*
X46719D01*
X46641Y27108D02*
X46719D01*
X51771Y23518D02*
X51849D01*
X51771Y23302D02*
X51849D01*
X50367Y26488D02*
X50446D01*
X50367Y26272D02*
X50446D01*
D69*
X52210Y16832D02*
Y17108D01*
X50990Y16832D02*
Y17108D01*
X52210D01*
X50990Y16832D02*
X52210D01*
X52287Y28486D02*
Y28663D01*
X52464D01*
X52287Y26537D02*
Y26714D01*
Y26537D02*
X52464D01*
X54236D02*
X54413D01*
Y26714D01*
Y28486D02*
Y28663D01*
X54236D02*
X54413D01*
X46496Y29690D02*
X48164D01*
X46496D02*
Y29964D01*
Y31936D02*
Y32210D01*
X48164D01*
X48136D02*
X49804D01*
Y31936D02*
Y32210D01*
X48136Y29690D02*
X49804D01*
Y29964D01*
X47287Y22287D02*
X47474D01*
X47287D02*
Y22474D01*
X50426Y22287D02*
X50613D01*
Y22474D01*
Y25426D02*
Y25613D01*
X50426D02*
X50613D01*
X47287D02*
X47474D01*
X47287Y25426D02*
Y25613D01*
X43913Y20635D02*
X44100D01*
X43913Y20507D02*
Y20635D01*
Y19965D02*
Y20093D01*
Y19965D02*
X44100D01*
X42900D02*
X43087D01*
Y20093D01*
Y20507D02*
Y20635D01*
X42900D02*
X43087D01*
X43066Y25964D02*
X45034D01*
X43066Y25236D02*
X45034D01*
Y25964D01*
X43066Y25236D02*
Y25964D01*
X40759Y27381D02*
Y27519D01*
X41941Y27381D02*
Y27519D01*
X54221Y16852D02*
Y17088D01*
X53039Y16852D02*
Y17088D01*
X54221D01*
X53039Y16852D02*
X54221D01*
D70*
X45155Y20924D02*
Y21376D01*
X44545Y20924D02*
Y21376D01*
D71*
X46885Y14809D02*
X49995D01*
Y16797D01*
X46885Y14809D02*
Y16787D01*
X46895Y16797D02*
X49995D01*
X46885Y16787D02*
X46895Y16797D01*
X42642Y16035D02*
Y16625D01*
X44078Y16035D02*
Y16576D01*
D72*
X44300Y18750D02*
Y18583D01*
X44333Y18550D01*
X44400D01*
X44433Y18583D01*
Y18750D01*
X44500D02*
X44633D01*
X44567D01*
Y18550D01*
X44700D02*
X44767D01*
X44733D01*
Y18750D01*
X44700Y18717D01*
X56054Y23590D02*
Y23723D01*
X56120Y23790D01*
X56187Y23723D01*
Y23590D01*
Y23690D01*
X56054D01*
X56254Y23590D02*
Y23790D01*
X56387Y23590D01*
Y23790D01*
X56454D02*
X56587D01*
X56520D01*
Y23590D01*
X56654D02*
X56720D01*
X56687D01*
Y23790D01*
X56654Y23757D01*
X52910Y25940D02*
Y25740D01*
X53010D01*
X53043Y25773D01*
Y25807D01*
X53010Y25840D01*
X52910D01*
X53010D01*
X53043Y25873D01*
Y25907D01*
X53010Y25940D01*
X52910D01*
X53110Y25740D02*
X53177D01*
X53143D01*
Y25940D01*
X53110Y25907D01*
X53963Y18157D02*
X53930Y18190D01*
X53863D01*
X53830Y18157D01*
Y18023D01*
X53863Y17990D01*
X53930D01*
X53963Y18023D01*
X54030Y17990D02*
X54097D01*
X54063D01*
Y18190D01*
X54030Y18157D01*
X54757Y15907D02*
X54790Y15940D01*
Y16007D01*
X54757Y16040D01*
X54623D01*
X54590Y16007D01*
Y15940D01*
X54623Y15907D01*
X54590Y15707D02*
Y15840D01*
X54723Y15707D01*
X54757D01*
X54790Y15740D01*
Y15807D01*
X54757Y15840D01*
X39933Y27283D02*
X39900Y27250D01*
Y27183D01*
X39933Y27150D01*
X40067D01*
X40100Y27183D01*
Y27250D01*
X40067Y27283D01*
X39900Y27483D02*
X39933Y27417D01*
X40000Y27350D01*
X40067D01*
X40100Y27383D01*
Y27450D01*
X40067Y27483D01*
X40033D01*
X40000Y27450D01*
Y27350D01*
X40783Y22433D02*
X40750Y22400D01*
Y22333D01*
X40783Y22300D01*
X40917D01*
X40950Y22333D01*
Y22400D01*
X40917Y22433D01*
X40750Y22500D02*
Y22633D01*
X40783D01*
X40917Y22500D01*
X40950D01*
X41483Y25083D02*
X41450Y25050D01*
Y24983D01*
X41483Y24950D01*
X41617D01*
X41650Y24983D01*
Y25050D01*
X41617Y25083D01*
X41483Y25150D02*
X41450Y25183D01*
Y25250D01*
X41483Y25283D01*
X41517D01*
X41550Y25250D01*
X41583Y25283D01*
X41617D01*
X41650Y25250D01*
Y25183D01*
X41617Y25150D01*
X41583D01*
X41550Y25183D01*
X41517Y25150D01*
X41483D01*
X41550Y25183D02*
Y25250D01*
X39833Y23083D02*
X39800Y23050D01*
Y22983D01*
X39833Y22950D01*
X39967D01*
X40000Y22983D01*
Y23050D01*
X39967Y23083D01*
Y23150D02*
X40000Y23183D01*
Y23250D01*
X39967Y23283D01*
X39833D01*
X39800Y23250D01*
Y23183D01*
X39833Y23150D01*
X39867D01*
X39900Y23183D01*
Y23283D01*
X39783Y25217D02*
X39750Y25250D01*
X39683D01*
X39650Y25217D01*
Y25083D01*
X39683Y25050D01*
X39750D01*
X39783Y25083D01*
X39850Y25050D02*
X39917D01*
X39883D01*
Y25250D01*
X39850Y25217D01*
X40017D02*
X40050Y25250D01*
X40117D01*
X40150Y25217D01*
Y25083D01*
X40117Y25050D01*
X40050D01*
X40017Y25083D01*
Y25217D01*
X39733Y25633D02*
X39700Y25600D01*
Y25533D01*
X39733Y25500D01*
X39867D01*
X39900Y25533D01*
Y25600D01*
X39867Y25633D01*
X39900Y25700D02*
Y25767D01*
Y25733D01*
X39700D01*
X39733Y25700D01*
X39900Y25867D02*
Y25933D01*
Y25900D01*
X39700D01*
X39733Y25867D01*
X45023Y23833D02*
X44990Y23800D01*
Y23733D01*
X45023Y23700D01*
X45157D01*
X45190Y23733D01*
Y23800D01*
X45157Y23833D01*
X45190Y23900D02*
Y23967D01*
Y23933D01*
X44990D01*
X45023Y23900D01*
X45190Y24200D02*
Y24067D01*
X45057Y24200D01*
X45023D01*
X44990Y24167D01*
Y24100D01*
X45023Y24067D01*
X45133Y23377D02*
X45100Y23410D01*
X45033D01*
X45000Y23377D01*
Y23243D01*
X45033Y23210D01*
X45100D01*
X45133Y23243D01*
X45200Y23210D02*
X45267D01*
X45233D01*
Y23410D01*
X45200Y23377D01*
X45367D02*
X45400Y23410D01*
X45467D01*
X45500Y23377D01*
Y23343D01*
X45467Y23310D01*
X45433D01*
X45467D01*
X45500Y23277D01*
Y23243D01*
X45467Y23210D01*
X45400D01*
X45367Y23243D01*
X41983Y26667D02*
X41950Y26700D01*
X41883D01*
X41850Y26667D01*
Y26533D01*
X41883Y26500D01*
X41950D01*
X41983Y26533D01*
X42050Y26500D02*
X42117D01*
X42083D01*
Y26700D01*
X42050Y26667D01*
X42317Y26500D02*
Y26700D01*
X42217Y26600D01*
X42350D01*
X46233Y26467D02*
X46200Y26500D01*
X46133D01*
X46100Y26467D01*
Y26333D01*
X46133Y26300D01*
X46200D01*
X46233Y26333D01*
X46300Y26300D02*
X46367D01*
X46333D01*
Y26500D01*
X46300Y26467D01*
X46467Y26500D02*
X46600D01*
Y26467D01*
X46467Y26333D01*
Y26300D01*
X41130Y16383D02*
X41096Y16350D01*
Y16283D01*
X41130Y16250D01*
X41263D01*
X41296Y16283D01*
Y16350D01*
X41263Y16383D01*
X41296Y16583D02*
Y16450D01*
X41163Y16583D01*
X41130D01*
X41096Y16550D01*
Y16483D01*
X41130Y16450D01*
X41296Y16650D02*
Y16717D01*
Y16683D01*
X41096D01*
X41130Y16650D01*
X47163Y26797D02*
X47130Y26830D01*
X47063D01*
X47030Y26797D01*
Y26663D01*
X47063Y26630D01*
X47130D01*
X47163Y26663D01*
X47363Y26630D02*
X47230D01*
X47363Y26763D01*
Y26797D01*
X47330Y26830D01*
X47263D01*
X47230Y26797D01*
X47563Y26630D02*
X47430D01*
X47563Y26763D01*
Y26797D01*
X47530Y26830D01*
X47463D01*
X47430Y26797D01*
X53127Y22117D02*
X53160Y22150D01*
Y22217D01*
X53127Y22250D01*
X52993D01*
X52960Y22217D01*
Y22150D01*
X52993Y22117D01*
X52960Y21917D02*
Y22050D01*
X53093Y21917D01*
X53127D01*
X53160Y21950D01*
Y22017D01*
X53127Y22050D01*
Y21850D02*
X53160Y21817D01*
Y21750D01*
X53127Y21717D01*
X53093D01*
X53060Y21750D01*
Y21783D01*
Y21750D01*
X53027Y21717D01*
X52993D01*
X52960Y21750D01*
Y21817D01*
X52993Y21850D01*
X51303Y22073D02*
X51270Y22040D01*
Y21973D01*
X51303Y21940D01*
X51437D01*
X51470Y21973D01*
Y22040D01*
X51437Y22073D01*
X51470Y22273D02*
Y22140D01*
X51337Y22273D01*
X51303D01*
X51270Y22240D01*
Y22173D01*
X51303Y22140D01*
X51470Y22440D02*
X51270D01*
X51370Y22340D01*
Y22473D01*
X52583Y21433D02*
X52550Y21400D01*
Y21333D01*
X52583Y21300D01*
X52717D01*
X52750Y21333D01*
Y21400D01*
X52717Y21433D01*
X52750Y21633D02*
Y21500D01*
X52617Y21633D01*
X52583D01*
X52550Y21600D01*
Y21533D01*
X52583Y21500D01*
X52550Y21833D02*
Y21700D01*
X52650D01*
X52617Y21767D01*
Y21800D01*
X52650Y21833D01*
X52717D01*
X52750Y21800D01*
Y21733D01*
X52717Y21700D01*
X51433Y20917D02*
X51400Y20950D01*
X51333D01*
X51300Y20917D01*
Y20783D01*
X51333Y20750D01*
X51400D01*
X51433Y20783D01*
X51633Y20750D02*
X51500D01*
X51633Y20883D01*
Y20917D01*
X51600Y20950D01*
X51533D01*
X51500Y20917D01*
X51833Y20950D02*
X51767Y20917D01*
X51700Y20850D01*
Y20783D01*
X51733Y20750D01*
X51800D01*
X51833Y20783D01*
Y20817D01*
X51800Y20850D01*
X51700D01*
X55433Y29117D02*
X55400Y29150D01*
X55333D01*
X55300Y29117D01*
Y28983D01*
X55333Y28950D01*
X55400D01*
X55433Y28983D01*
X55633Y28950D02*
X55500D01*
X55633Y29083D01*
Y29117D01*
X55600Y29150D01*
X55533D01*
X55500Y29117D01*
X55700Y29150D02*
X55833D01*
Y29117D01*
X55700Y28983D01*
Y28950D01*
X56267Y30567D02*
X56300Y30600D01*
Y30667D01*
X56267Y30700D01*
X56133D01*
X56100Y30667D01*
Y30600D01*
X56133Y30567D01*
X56100Y30367D02*
Y30500D01*
X56233Y30367D01*
X56267D01*
X56300Y30400D01*
Y30467D01*
X56267Y30500D01*
Y30300D02*
X56300Y30267D01*
Y30200D01*
X56267Y30167D01*
X56233D01*
X56200Y30200D01*
X56167Y30167D01*
X56133D01*
X56100Y30200D01*
Y30267D01*
X56133Y30300D01*
X56167D01*
X56200Y30267D01*
X56233Y30300D01*
X56267D01*
X56200Y30267D02*
Y30200D01*
X56733Y26507D02*
X56700Y26540D01*
X56633D01*
X56600Y26507D01*
Y26373D01*
X56633Y26340D01*
X56700D01*
X56733Y26373D01*
X56933Y26340D02*
X56800D01*
X56933Y26473D01*
Y26507D01*
X56900Y26540D01*
X56833D01*
X56800Y26507D01*
X57000Y26373D02*
X57033Y26340D01*
X57100D01*
X57133Y26373D01*
Y26507D01*
X57100Y26540D01*
X57033D01*
X57000Y26507D01*
Y26473D01*
X57033Y26440D01*
X57133D01*
X56023Y25797D02*
X55990Y25830D01*
X55923D01*
X55890Y25797D01*
Y25663D01*
X55923Y25630D01*
X55990D01*
X56023Y25663D01*
X56090Y25797D02*
X56123Y25830D01*
X56190D01*
X56223Y25797D01*
Y25763D01*
X56190Y25730D01*
X56157D01*
X56190D01*
X56223Y25697D01*
Y25663D01*
X56190Y25630D01*
X56123D01*
X56090Y25663D01*
X56290Y25797D02*
X56323Y25830D01*
X56390D01*
X56423Y25797D01*
Y25663D01*
X56390Y25630D01*
X56323D01*
X56290Y25663D01*
Y25797D01*
X54233Y30117D02*
X54200Y30150D01*
X54133D01*
X54100Y30117D01*
Y29983D01*
X54133Y29950D01*
X54200D01*
X54233Y29983D01*
X54300Y30117D02*
X54333Y30150D01*
X54400D01*
X54433Y30117D01*
Y30083D01*
X54400Y30050D01*
X54367D01*
X54400D01*
X54433Y30017D01*
Y29983D01*
X54400Y29950D01*
X54333D01*
X54300Y29983D01*
X54500Y29950D02*
X54567D01*
X54533D01*
Y30150D01*
X54500Y30117D01*
X53323Y30213D02*
X53290Y30180D01*
Y30113D01*
X53323Y30080D01*
X53457D01*
X53490Y30113D01*
Y30180D01*
X53457Y30213D01*
X53323Y30280D02*
X53290Y30313D01*
Y30380D01*
X53323Y30413D01*
X53357D01*
X53390Y30380D01*
Y30347D01*
Y30380D01*
X53423Y30413D01*
X53457D01*
X53490Y30380D01*
Y30313D01*
X53457Y30280D01*
X53490Y30613D02*
Y30480D01*
X53357Y30613D01*
X53323D01*
X53290Y30580D01*
Y30513D01*
X53323Y30480D01*
X52823Y30213D02*
X52790Y30180D01*
Y30113D01*
X52823Y30080D01*
X52957D01*
X52990Y30113D01*
Y30180D01*
X52957Y30213D01*
X52823Y30280D02*
X52790Y30313D01*
Y30380D01*
X52823Y30413D01*
X52857D01*
X52890Y30380D01*
Y30347D01*
Y30380D01*
X52923Y30413D01*
X52957D01*
X52990Y30380D01*
Y30313D01*
X52957Y30280D01*
X52823Y30480D02*
X52790Y30513D01*
Y30580D01*
X52823Y30613D01*
X52857D01*
X52890Y30580D01*
Y30547D01*
Y30580D01*
X52923Y30613D01*
X52957D01*
X52990Y30580D01*
Y30513D01*
X52957Y30480D01*
X52373Y26277D02*
X52340Y26310D01*
X52273D01*
X52240Y26277D01*
Y26143D01*
X52273Y26110D01*
X52340D01*
X52373Y26143D01*
X52440Y26277D02*
X52473Y26310D01*
X52540D01*
X52573Y26277D01*
Y26243D01*
X52540Y26210D01*
X52507D01*
X52540D01*
X52573Y26177D01*
Y26143D01*
X52540Y26110D01*
X52473D01*
X52440Y26143D01*
X52740Y26110D02*
Y26310D01*
X52640Y26210D01*
X52773D01*
X51173Y28613D02*
X51140Y28580D01*
Y28513D01*
X51173Y28480D01*
X51307D01*
X51340Y28513D01*
Y28580D01*
X51307Y28613D01*
X51173Y28680D02*
X51140Y28713D01*
Y28780D01*
X51173Y28813D01*
X51207D01*
X51240Y28780D01*
Y28747D01*
Y28780D01*
X51273Y28813D01*
X51307D01*
X51340Y28780D01*
Y28713D01*
X51307Y28680D01*
X51140Y29013D02*
Y28880D01*
X51240D01*
X51207Y28947D01*
Y28980D01*
X51240Y29013D01*
X51307D01*
X51340Y28980D01*
Y28913D01*
X51307Y28880D01*
X52423Y18497D02*
X52390Y18530D01*
X52323D01*
X52290Y18497D01*
Y18363D01*
X52323Y18330D01*
X52390D01*
X52423Y18363D01*
X52490Y18497D02*
X52523Y18530D01*
X52590D01*
X52623Y18497D01*
Y18463D01*
X52590Y18430D01*
X52557D01*
X52590D01*
X52623Y18397D01*
Y18363D01*
X52590Y18330D01*
X52523D01*
X52490Y18363D01*
X52823Y18530D02*
X52757Y18497D01*
X52690Y18430D01*
Y18363D01*
X52723Y18330D01*
X52790D01*
X52823Y18363D01*
Y18397D01*
X52790Y18430D01*
X52690D01*
X51643Y15587D02*
X51610Y15620D01*
X51543D01*
X51510Y15587D01*
Y15453D01*
X51543Y15420D01*
X51610D01*
X51643Y15453D01*
X51710Y15587D02*
X51743Y15620D01*
X51810D01*
X51843Y15587D01*
Y15553D01*
X51810Y15520D01*
X51777D01*
X51810D01*
X51843Y15487D01*
Y15453D01*
X51810Y15420D01*
X51743D01*
X51710Y15453D01*
X51910Y15620D02*
X52043D01*
Y15587D01*
X51910Y15453D01*
Y15420D01*
X45903Y18677D02*
X45870Y18710D01*
X45803D01*
X45770Y18677D01*
Y18543D01*
X45803Y18510D01*
X45870D01*
X45903Y18543D01*
X45970Y18677D02*
X46003Y18710D01*
X46070D01*
X46103Y18677D01*
Y18643D01*
X46070Y18610D01*
X46037D01*
X46070D01*
X46103Y18577D01*
Y18543D01*
X46070Y18510D01*
X46003D01*
X45970Y18543D01*
X46170D02*
X46203Y18510D01*
X46270D01*
X46303Y18543D01*
Y18677D01*
X46270Y18710D01*
X46203D01*
X46170Y18677D01*
Y18643D01*
X46203Y18610D01*
X46303D01*
X46133Y17717D02*
X46100Y17750D01*
X46033D01*
X46000Y17717D01*
Y17583D01*
X46033Y17550D01*
X46100D01*
X46133Y17583D01*
X46300Y17550D02*
Y17750D01*
X46200Y17650D01*
X46333D01*
X46400Y17717D02*
X46433Y17750D01*
X46500D01*
X46533Y17717D01*
Y17583D01*
X46500Y17550D01*
X46433D01*
X46400Y17583D01*
Y17717D01*
X46193Y19997D02*
X46160Y20030D01*
X46093D01*
X46060Y19997D01*
Y19863D01*
X46093Y19830D01*
X46160D01*
X46193Y19863D01*
X46360Y19830D02*
Y20030D01*
X46260Y19930D01*
X46393D01*
X46460Y19830D02*
X46527D01*
X46493D01*
Y20030D01*
X46460Y19997D01*
X46000Y26900D02*
Y26700D01*
X46100D01*
X46133Y26733D01*
Y26867D01*
X46100Y26900D01*
X46000D01*
X46200Y26700D02*
X46267D01*
X46233D01*
Y26900D01*
X46200Y26867D01*
X51020Y19340D02*
Y19140D01*
X51120D01*
X51153Y19173D01*
Y19307D01*
X51120Y19340D01*
X51020D01*
X51353Y19140D02*
X51220D01*
X51353Y19273D01*
Y19307D01*
X51320Y19340D01*
X51253D01*
X51220Y19307D01*
X46650Y18417D02*
Y18550D01*
X46550D01*
Y18483D01*
Y18550D01*
X46450D01*
X46650Y18350D02*
X46450D01*
Y18250D01*
X46483Y18217D01*
X46517D01*
X46550Y18250D01*
Y18350D01*
Y18250D01*
X46583Y18217D01*
X46617D01*
X46650Y18250D01*
Y18350D01*
X46450Y18150D02*
Y18083D01*
Y18117D01*
X46650D01*
X46617Y18150D01*
X50440Y16447D02*
Y16513D01*
Y16480D01*
X50273D01*
X50240Y16513D01*
Y16547D01*
X50273Y16580D01*
X50240Y16380D02*
Y16313D01*
Y16347D01*
X50440D01*
X50407Y16380D01*
X54350Y30450D02*
X54550D01*
Y30583D01*
Y30650D02*
Y30717D01*
Y30683D01*
X54350D01*
X54383Y30650D01*
X55350Y29600D02*
Y29400D01*
X55483D01*
X55683D02*
X55550D01*
X55683Y29533D01*
Y29567D01*
X55650Y29600D01*
X55583D01*
X55550Y29567D01*
X42150Y23950D02*
X41950D01*
Y24050D01*
X41983Y24083D01*
X42050D01*
X42083Y24050D01*
Y23950D01*
Y24017D02*
X42150Y24083D01*
Y24150D02*
Y24217D01*
Y24183D01*
X41950D01*
X41983Y24150D01*
X40100Y27950D02*
X39900D01*
Y28050D01*
X39933Y28083D01*
X40000D01*
X40033Y28050D01*
Y27950D01*
Y28017D02*
X40100Y28083D01*
Y28283D02*
Y28150D01*
X39967Y28283D01*
X39933D01*
X39900Y28250D01*
Y28183D01*
X39933Y28150D01*
X40150Y26150D02*
X39950D01*
Y26250D01*
X39983Y26283D01*
X40050D01*
X40083Y26250D01*
Y26150D01*
Y26217D02*
X40150Y26283D01*
X39983Y26350D02*
X39950Y26383D01*
Y26450D01*
X39983Y26483D01*
X40017D01*
X40050Y26450D01*
Y26417D01*
Y26450D01*
X40083Y26483D01*
X40117D01*
X40150Y26450D01*
Y26383D01*
X40117Y26350D01*
X41650Y23100D02*
X41450D01*
Y23200D01*
X41483Y23233D01*
X41550D01*
X41583Y23200D01*
Y23100D01*
Y23167D02*
X41650Y23233D01*
Y23400D02*
X41450D01*
X41550Y23300D01*
Y23433D01*
X40930Y29210D02*
Y29410D01*
X41030D01*
X41063Y29377D01*
Y29310D01*
X41030Y29277D01*
X40930D01*
X40997D02*
X41063Y29210D01*
X41263Y29410D02*
X41130D01*
Y29310D01*
X41197Y29343D01*
X41230D01*
X41263Y29310D01*
Y29243D01*
X41230Y29210D01*
X41163D01*
X41130Y29243D01*
X41650Y25650D02*
X41450D01*
Y25750D01*
X41483Y25783D01*
X41550D01*
X41583Y25750D01*
Y25650D01*
Y25717D02*
X41650Y25783D01*
X41450Y25983D02*
X41483Y25917D01*
X41550Y25850D01*
X41617D01*
X41650Y25883D01*
Y25950D01*
X41617Y25983D01*
X41583D01*
X41550Y25950D01*
Y25850D01*
X44500Y28000D02*
Y28200D01*
X44600D01*
X44633Y28167D01*
Y28100D01*
X44600Y28067D01*
X44500D01*
X44567D02*
X44633Y28000D01*
X44700Y28200D02*
X44833D01*
Y28167D01*
X44700Y28033D01*
Y28000D01*
X42450Y27450D02*
Y27650D01*
X42550D01*
X42583Y27617D01*
Y27550D01*
X42550Y27517D01*
X42450D01*
X42517D02*
X42583Y27450D01*
X42650Y27617D02*
X42683Y27650D01*
X42750D01*
X42783Y27617D01*
Y27583D01*
X42750Y27550D01*
X42783Y27517D01*
Y27483D01*
X42750Y27450D01*
X42683D01*
X42650Y27483D01*
Y27517D01*
X42683Y27550D01*
X42650Y27583D01*
Y27617D01*
X42683Y27550D02*
X42750D01*
X45550Y27800D02*
Y28000D01*
X45650D01*
X45683Y27967D01*
Y27900D01*
X45650Y27867D01*
X45550D01*
X45617D02*
X45683Y27800D01*
X45750Y27833D02*
X45783Y27800D01*
X45850D01*
X45883Y27833D01*
Y27967D01*
X45850Y28000D01*
X45783D01*
X45750Y27967D01*
Y27933D01*
X45783Y27900D01*
X45883D01*
X43100Y27300D02*
Y27500D01*
X43200D01*
X43233Y27467D01*
Y27400D01*
X43200Y27367D01*
X43100D01*
X43167D02*
X43233Y27300D01*
X43300D02*
X43367D01*
X43333D01*
Y27500D01*
X43300Y27467D01*
X43467D02*
X43500Y27500D01*
X43567D01*
X43600Y27467D01*
Y27333D01*
X43567Y27300D01*
X43500D01*
X43467Y27333D01*
Y27467D01*
X45400Y25600D02*
X45200D01*
Y25700D01*
X45233Y25733D01*
X45300D01*
X45333Y25700D01*
Y25600D01*
Y25667D02*
X45400Y25733D01*
Y25800D02*
Y25867D01*
Y25833D01*
X45200D01*
X45233Y25800D01*
X45400Y25967D02*
Y26033D01*
Y26000D01*
X45200D01*
X45233Y25967D01*
X42400Y24950D02*
Y25150D01*
X42500D01*
X42533Y25117D01*
Y25050D01*
X42500Y25017D01*
X42400D01*
X42467D02*
X42533Y24950D01*
X42600D02*
X42667D01*
X42633D01*
Y25150D01*
X42600Y25117D01*
X42900Y24950D02*
X42767D01*
X42900Y25083D01*
Y25117D01*
X42867Y25150D01*
X42800D01*
X42767Y25117D01*
X42200Y23150D02*
Y23350D01*
X42300D01*
X42333Y23317D01*
Y23250D01*
X42300Y23217D01*
X42200D01*
X42267D02*
X42333Y23150D01*
X42400D02*
X42467D01*
X42433D01*
Y23350D01*
X42400Y23317D01*
X42567D02*
X42600Y23350D01*
X42667D01*
X42700Y23317D01*
Y23283D01*
X42667Y23250D01*
X42633D01*
X42667D01*
X42700Y23217D01*
Y23183D01*
X42667Y23150D01*
X42600D01*
X42567Y23183D01*
X43000Y23160D02*
Y23360D01*
X43100D01*
X43133Y23327D01*
Y23260D01*
X43100Y23227D01*
X43000D01*
X43067D02*
X43133Y23160D01*
X43200D02*
X43267D01*
X43233D01*
Y23360D01*
X43200Y23327D01*
X43467Y23160D02*
Y23360D01*
X43367Y23260D01*
X43500D01*
X41533Y19070D02*
Y19270D01*
X41633D01*
X41666Y19237D01*
Y19170D01*
X41633Y19137D01*
X41533D01*
X41599D02*
X41666Y19070D01*
X41733D02*
X41799D01*
X41766D01*
Y19270D01*
X41733Y19237D01*
X42033Y19270D02*
X41899D01*
Y19170D01*
X41966Y19203D01*
X41999D01*
X42033Y19170D01*
Y19103D01*
X41999Y19070D01*
X41933D01*
X41899Y19103D01*
X42350Y17570D02*
Y17770D01*
X42450D01*
X42483Y17737D01*
Y17670D01*
X42450Y17637D01*
X42350D01*
X42417D02*
X42483Y17570D01*
X42550D02*
X42617D01*
X42583D01*
Y17770D01*
X42550Y17737D01*
X42850Y17770D02*
X42783Y17737D01*
X42717Y17670D01*
Y17603D01*
X42750Y17570D01*
X42817D01*
X42850Y17603D01*
Y17637D01*
X42817Y17670D01*
X42717D01*
X51170Y26150D02*
X50970D01*
Y26250D01*
X51003Y26283D01*
X51070D01*
X51103Y26250D01*
Y26150D01*
Y26217D02*
X51170Y26283D01*
Y26350D02*
Y26417D01*
Y26383D01*
X50970D01*
X51003Y26350D01*
X50970Y26517D02*
Y26650D01*
X51003D01*
X51137Y26517D01*
X51170D01*
X50590Y20870D02*
Y21070D01*
X50690D01*
X50723Y21037D01*
Y20970D01*
X50690Y20937D01*
X50590D01*
X50657D02*
X50723Y20870D01*
X50790D02*
X50857D01*
X50823D01*
Y21070D01*
X50790Y21037D01*
X50957D02*
X50990Y21070D01*
X51057D01*
X51090Y21037D01*
Y21003D01*
X51057Y20970D01*
X51090Y20937D01*
Y20903D01*
X51057Y20870D01*
X50990D01*
X50957Y20903D01*
Y20937D01*
X50990Y20970D01*
X50957Y21003D01*
Y21037D01*
X50990Y20970D02*
X51057D01*
X54690Y25950D02*
Y26150D01*
X54790D01*
X54823Y26117D01*
Y26050D01*
X54790Y26017D01*
X54690D01*
X54757D02*
X54823Y25950D01*
X54890D02*
X54957D01*
X54923D01*
Y26150D01*
X54890Y26117D01*
X55057Y25983D02*
X55090Y25950D01*
X55157D01*
X55190Y25983D01*
Y26117D01*
X55157Y26150D01*
X55090D01*
X55057Y26117D01*
Y26083D01*
X55090Y26050D01*
X55190D01*
X50800Y18520D02*
X51000D01*
Y18420D01*
X50967Y18387D01*
X50900D01*
X50867Y18420D01*
Y18520D01*
Y18453D02*
X50800Y18387D01*
Y18187D02*
Y18320D01*
X50933Y18187D01*
X50967D01*
X51000Y18220D01*
Y18287D01*
X50967Y18320D01*
Y18120D02*
X51000Y18087D01*
Y18020D01*
X50967Y17987D01*
X50833D01*
X50800Y18020D01*
Y18087D01*
X50833Y18120D01*
X50967D01*
X54620Y17230D02*
X54453D01*
X54420Y17197D01*
Y17130D01*
X54453Y17097D01*
X54620D01*
X54420Y17030D02*
Y16963D01*
Y16997D01*
X54620D01*
X54587Y17030D01*
X40180Y24200D02*
X40347D01*
X40380Y24233D01*
Y24300D01*
X40347Y24333D01*
X40180D01*
X40213Y24400D02*
X40180Y24433D01*
Y24500D01*
X40213Y24533D01*
X40247D01*
X40280Y24500D01*
Y24467D01*
Y24500D01*
X40313Y24533D01*
X40347D01*
X40380Y24500D01*
Y24433D01*
X40347Y24400D01*
X41970Y27900D02*
X42137D01*
X42170Y27933D01*
Y28000D01*
X42137Y28033D01*
X41970D01*
X42170Y28200D02*
X41970D01*
X42070Y28100D01*
Y28233D01*
X45430Y25030D02*
X45263D01*
X45230Y24997D01*
Y24930D01*
X45263Y24897D01*
X45430D01*
Y24697D02*
Y24830D01*
X45330D01*
X45363Y24763D01*
Y24730D01*
X45330Y24697D01*
X45263D01*
X45230Y24730D01*
Y24797D01*
X45263Y24830D01*
X42780Y21140D02*
Y20973D01*
X42813Y20940D01*
X42880D01*
X42913Y20973D01*
Y21140D01*
X42980D02*
X43113D01*
Y21107D01*
X42980Y20973D01*
Y20940D01*
X44500Y21750D02*
Y21583D01*
X44533Y21550D01*
X44600D01*
X44633Y21583D01*
Y21750D01*
X44700Y21717D02*
X44733Y21750D01*
X44800D01*
X44833Y21717D01*
Y21683D01*
X44800Y21650D01*
X44833Y21617D01*
Y21583D01*
X44800Y21550D01*
X44733D01*
X44700Y21583D01*
Y21617D01*
X44733Y21650D01*
X44700Y21683D01*
Y21717D01*
X44733Y21650D02*
X44800D01*
X54640Y24030D02*
X54473D01*
X54440Y23997D01*
Y23930D01*
X54473Y23897D01*
X54640D01*
X54440Y23830D02*
Y23763D01*
Y23797D01*
X54640D01*
X54607Y23830D01*
X54440Y23663D02*
Y23597D01*
Y23630D01*
X54640D01*
X54607Y23663D01*
X47670Y26090D02*
Y25923D01*
X47703Y25890D01*
X47770D01*
X47803Y25923D01*
Y26090D01*
X47870Y25890D02*
X47937D01*
X47903D01*
Y26090D01*
X47870Y26057D01*
X48170Y25890D02*
X48037D01*
X48170Y26023D01*
Y26057D01*
X48137Y26090D01*
X48070D01*
X48037Y26057D01*
X51830Y27120D02*
X51997D01*
X52030Y27153D01*
Y27220D01*
X51997Y27253D01*
X51830D01*
X52030Y27320D02*
Y27387D01*
Y27353D01*
X51830D01*
X51863Y27320D01*
X52030Y27587D02*
X51830D01*
X51930Y27487D01*
Y27620D01*
X50900Y17780D02*
X50733D01*
X50700Y17747D01*
Y17680D01*
X50733Y17647D01*
X50900D01*
X50700Y17580D02*
Y17513D01*
Y17547D01*
X50900D01*
X50867Y17580D01*
X50900Y17280D02*
Y17413D01*
X50800D01*
X50833Y17347D01*
Y17313D01*
X50800Y17280D01*
X50733D01*
X50700Y17313D01*
Y17380D01*
X50733Y17413D01*
X52780Y22270D02*
X52580Y22137D01*
X52780D02*
X52580Y22270D01*
Y22070D02*
Y22003D01*
Y22037D01*
X52780D01*
X52747Y22070D01*
X56650Y28950D02*
X56783Y28750D01*
Y28950D02*
X56650Y28750D01*
X56983D02*
X56850D01*
X56983Y28883D01*
Y28917D01*
X56950Y28950D01*
X56883D01*
X56850Y28917D01*
X51470Y25290D02*
Y25090D01*
X51570D01*
X51603Y25123D01*
Y25157D01*
X51570Y25190D01*
X51470D01*
X51570D01*
X51603Y25223D01*
Y25257D01*
X51570Y25290D01*
X51470D01*
X51803Y25090D02*
X51670D01*
X51803Y25223D01*
Y25257D01*
X51770Y25290D01*
X51703D01*
X51670Y25257D01*
X44517Y31267D02*
X44550Y31300D01*
Y31367D01*
X44517Y31400D01*
X44383D01*
X44350Y31367D01*
Y31300D01*
X44383Y31267D01*
X44350Y31100D02*
X44550D01*
X44450Y31200D01*
Y31067D01*
X44350Y30867D02*
Y31000D01*
X44483Y30867D01*
X44517D01*
X44550Y30900D01*
Y30967D01*
X44517Y31000D01*
X43073Y30773D02*
Y30907D01*
X43040Y30940D01*
X42973D01*
X42940Y30907D01*
Y30773D01*
X42973Y30740D01*
X43040D01*
X43007Y30807D02*
X43073Y30740D01*
X43040D02*
X43073Y30773D01*
X43140Y30740D02*
X43207D01*
X43173D01*
Y30940D01*
X43140Y30907D01*
X46750Y32740D02*
Y32573D01*
X46783Y32540D01*
X46850D01*
X46883Y32573D01*
Y32740D01*
X46950Y32540D02*
X47017D01*
X46983D01*
Y32740D01*
X46950Y32707D01*
X47117D02*
X47150Y32740D01*
X47217D01*
X47250Y32707D01*
Y32673D01*
X47217Y32640D01*
X47183D01*
X47217D01*
X47250Y32607D01*
Y32573D01*
X47217Y32540D01*
X47150D01*
X47117Y32573D01*
X45850Y29800D02*
Y30000D01*
X45950D01*
X45983Y29967D01*
Y29900D01*
X45950Y29867D01*
X45850D01*
X45917D02*
X45983Y29800D01*
X46183D02*
X46050D01*
X46183Y29933D01*
Y29967D01*
X46150Y30000D01*
X46083D01*
X46050Y29967D01*
X46250Y29800D02*
X46317D01*
X46283D01*
Y30000D01*
X46250Y29967D01*
X50200Y30750D02*
Y30950D01*
X50300D01*
X50333Y30917D01*
Y30850D01*
X50300Y30817D01*
X50200D01*
X50267D02*
X50333Y30750D01*
X50533D02*
X50400D01*
X50533Y30883D01*
Y30917D01*
X50500Y30950D01*
X50433D01*
X50400Y30917D01*
X50733Y30750D02*
X50600D01*
X50733Y30883D01*
Y30917D01*
X50700Y30950D01*
X50633D01*
X50600Y30917D01*
X53970Y20990D02*
X53803D01*
X53770Y20957D01*
Y20890D01*
X53803Y20857D01*
X53970D01*
Y20657D02*
X53937Y20723D01*
X53870Y20790D01*
X53803D01*
X53770Y20757D01*
Y20690D01*
X53803Y20657D01*
X53837D01*
X53870Y20690D01*
Y20790D01*
X57240Y19700D02*
Y19500D01*
X57340D01*
X57373Y19533D01*
Y19567D01*
X57340Y19600D01*
X57240D01*
X57340D01*
X57373Y19633D01*
Y19667D01*
X57340Y19700D01*
X57240D01*
X57573Y19667D02*
X57540Y19700D01*
X57473D01*
X57440Y19667D01*
Y19533D01*
X57473Y19500D01*
X57540D01*
X57573Y19533D01*
X57640Y19500D02*
X57707D01*
X57673D01*
Y19700D01*
X57640Y19667D01*
X44430Y16440D02*
X44397D01*
X44330Y16373D01*
X44397Y16307D01*
X44430D01*
X44330Y16373D02*
X44230D01*
Y16240D02*
Y16173D01*
Y16207D01*
X44430D01*
X44397Y16240D01*
X40610Y18100D02*
X40777D01*
X40810Y18133D01*
Y18200D01*
X40777Y18233D01*
X40610D01*
X40777Y18300D02*
X40810Y18333D01*
Y18400D01*
X40777Y18433D01*
X40643D01*
X40610Y18400D01*
Y18333D01*
X40643Y18300D01*
X40677D01*
X40710Y18333D01*
Y18433D01*
X51713Y22077D02*
X51680Y22110D01*
X51613D01*
X51580Y22077D01*
Y21943D01*
X51613Y21910D01*
X51680D01*
X51713Y21943D01*
X51780Y21910D02*
X51847D01*
X51813D01*
Y22110D01*
X51780Y22077D01*
X51947Y21943D02*
X51980Y21910D01*
X52047D01*
X52080Y21943D01*
Y22077D01*
X52047Y22110D01*
X51980D01*
X51947Y22077D01*
Y22043D01*
X51980Y22010D01*
X52080D01*
X45563Y24417D02*
X45530Y24450D01*
X45463D01*
X45430Y24417D01*
Y24283D01*
X45463Y24250D01*
X45530D01*
X45563Y24283D01*
X45763Y24250D02*
X45630D01*
X45763Y24383D01*
Y24417D01*
X45730Y24450D01*
X45663D01*
X45630Y24417D01*
X45830D02*
X45863Y24450D01*
X45930D01*
X45963Y24417D01*
Y24283D01*
X45930Y24250D01*
X45863D01*
X45830Y24283D01*
Y24417D01*
X46383Y20803D02*
X46350Y20770D01*
Y20703D01*
X46383Y20670D01*
X46517D01*
X46550Y20703D01*
Y20770D01*
X46517Y20803D01*
X46550Y20970D02*
X46350D01*
X46450Y20870D01*
Y21003D01*
X46383Y21070D02*
X46350Y21103D01*
Y21170D01*
X46383Y21203D01*
X46417D01*
X46450Y21170D01*
Y21137D01*
Y21170D01*
X46483Y21203D01*
X46517D01*
X46550Y21170D01*
Y21103D01*
X46517Y21070D01*
X49013Y21207D02*
X48980Y21240D01*
X48913D01*
X48880Y21207D01*
Y21073D01*
X48913Y21040D01*
X48980D01*
X49013Y21073D01*
X49180Y21040D02*
Y21240D01*
X49080Y21140D01*
X49213D01*
X49380Y21040D02*
Y21240D01*
X49280Y21140D01*
X49413D01*
X46323Y27427D02*
X46290Y27460D01*
X46223D01*
X46190Y27427D01*
Y27293D01*
X46223Y27260D01*
X46290D01*
X46323Y27293D01*
X46490Y27260D02*
Y27460D01*
X46390Y27360D01*
X46523D01*
X46723Y27460D02*
X46590D01*
Y27360D01*
X46657Y27393D01*
X46690D01*
X46723Y27360D01*
Y27293D01*
X46690Y27260D01*
X46623D01*
X46590Y27293D01*
X52353Y23277D02*
X52320Y23310D01*
X52253D01*
X52220Y23277D01*
Y23143D01*
X52253Y23110D01*
X52320D01*
X52353Y23143D01*
X52520Y23110D02*
Y23310D01*
X52420Y23210D01*
X52553D01*
X52753Y23310D02*
X52687Y23277D01*
X52620Y23210D01*
Y23143D01*
X52653Y23110D01*
X52720D01*
X52753Y23143D01*
Y23177D01*
X52720Y23210D01*
X52620D01*
X49820Y26343D02*
X49787Y26310D01*
Y26243D01*
X49820Y26210D01*
X49953D01*
X49987Y26243D01*
Y26310D01*
X49953Y26343D01*
X49987Y26510D02*
X49787D01*
X49887Y26410D01*
Y26543D01*
X49787Y26610D02*
Y26743D01*
X49820D01*
X49953Y26610D01*
X49987D01*
X51873Y26263D02*
X51840Y26230D01*
Y26163D01*
X51873Y26130D01*
X52007D01*
X52040Y26163D01*
Y26230D01*
X52007Y26263D01*
X52040Y26430D02*
X51840D01*
X51940Y26330D01*
Y26463D01*
X51873Y26530D02*
X51840Y26563D01*
Y26630D01*
X51873Y26663D01*
X51907D01*
X51940Y26630D01*
X51973Y26663D01*
X52007D01*
X52040Y26630D01*
Y26563D01*
X52007Y26530D01*
X51973D01*
X51940Y26563D01*
X51907Y26530D01*
X51873D01*
X51940Y26563D02*
Y26630D01*
X51513Y26283D02*
X51480Y26250D01*
Y26183D01*
X51513Y26150D01*
X51647D01*
X51680Y26183D01*
Y26250D01*
X51647Y26283D01*
X51680Y26450D02*
X51480D01*
X51580Y26350D01*
Y26483D01*
X51647Y26550D02*
X51680Y26583D01*
Y26650D01*
X51647Y26683D01*
X51513D01*
X51480Y26650D01*
Y26583D01*
X51513Y26550D01*
X51547D01*
X51580Y26583D01*
Y26683D01*
D73*
X51350Y31420D02*
X51150D01*
Y31270D01*
X51250D01*
X51150D01*
Y31120D01*
X51450Y31420D02*
Y31120D01*
X51650D01*
X51750D02*
Y31320D01*
X51850Y31420D01*
X51950Y31320D01*
Y31120D01*
Y31270D01*
X51750D01*
X52250Y31370D02*
X52200Y31420D01*
X52100D01*
X52050Y31370D01*
Y31320D01*
X52100Y31270D01*
X52200D01*
X52250Y31220D01*
Y31170D01*
X52200Y31120D01*
X52100D01*
X52050Y31170D01*
X52350Y31420D02*
Y31120D01*
Y31270D01*
X52550D01*
Y31420D01*
Y31120D01*
X52650Y31070D02*
X52849D01*
X53149Y31370D02*
X53099Y31420D01*
X52999D01*
X52949Y31370D01*
Y31170D01*
X52999Y31120D01*
X53099D01*
X53149Y31170D01*
X53449Y31370D02*
X53399Y31420D01*
X53299D01*
X53249Y31370D01*
Y31320D01*
X53299Y31270D01*
X53399D01*
X53449Y31220D01*
Y31170D01*
X53399Y31120D01*
X53299D01*
X53249Y31170D01*
X45230Y17840D02*
X45180Y17890D01*
X45080D01*
X45030Y17840D01*
Y17790D01*
X45080Y17740D01*
X45180D01*
X45230Y17690D01*
Y17640D01*
X45180Y17590D01*
X45080D01*
X45030Y17640D01*
X45530Y17840D02*
X45480Y17890D01*
X45380D01*
X45330Y17840D01*
Y17640D01*
X45380Y17590D01*
X45480D01*
X45530Y17640D01*
X45630Y17890D02*
Y17590D01*
X45830D01*
X43890Y17840D02*
X43840Y17890D01*
X43740D01*
X43690Y17840D01*
Y17790D01*
X43740Y17740D01*
X43840D01*
X43890Y17690D01*
Y17640D01*
X43840Y17590D01*
X43740D01*
X43690Y17640D01*
X43990Y17890D02*
Y17590D01*
X44140D01*
X44190Y17640D01*
Y17840D01*
X44140Y17890D01*
X43990D01*
X44290Y17590D02*
Y17790D01*
X44390Y17890D01*
X44490Y17790D01*
Y17590D01*
Y17740D01*
X44290D01*
X42320Y31720D02*
Y31520D01*
X42420Y31420D01*
X42520Y31520D01*
Y31720D01*
X42820Y31670D02*
X42770Y31720D01*
X42670D01*
X42620Y31670D01*
Y31470D01*
X42670Y31420D01*
X42770D01*
X42820Y31470D01*
X43120Y31670D02*
X43070Y31720D01*
X42970D01*
X42920Y31670D01*
Y31470D01*
X42970Y31420D01*
X43070D01*
X43120Y31470D01*
X43220Y31670D02*
X43270Y31720D01*
X43370D01*
X43420Y31670D01*
Y31620D01*
X43370Y31570D01*
X43320D01*
X43370D01*
X43420Y31520D01*
Y31470D01*
X43370Y31420D01*
X43270D01*
X43220Y31470D01*
X43520Y31420D02*
Y31470D01*
X43570D01*
Y31420D01*
X43520D01*
X43770Y31670D02*
X43820Y31720D01*
X43919D01*
X43969Y31670D01*
Y31620D01*
X43919Y31570D01*
X43870D01*
X43919D01*
X43969Y31520D01*
Y31470D01*
X43919Y31420D01*
X43820D01*
X43770Y31470D01*
X39230Y31620D02*
X39180Y31670D01*
X39080D01*
X39030Y31620D01*
Y31420D01*
X39080Y31370D01*
X39180D01*
X39230Y31420D01*
Y31520D01*
X39130D01*
X39330Y31370D02*
Y31670D01*
X39530Y31370D01*
Y31670D01*
X39630D02*
Y31370D01*
X39780D01*
X39830Y31420D01*
Y31620D01*
X39780Y31670D01*
X39630D01*
X50580Y29190D02*
Y29490D01*
X50730D01*
X50780Y29440D01*
Y29340D01*
X50730Y29290D01*
X50580D01*
X50680D02*
X50780Y29190D01*
X50880Y29490D02*
Y29190D01*
X51030D01*
X51080Y29240D01*
Y29440D01*
X51030Y29490D01*
X50880D01*
X51180D02*
Y29440D01*
X51280Y29340D01*
X51380Y29440D01*
Y29490D01*
X51280Y29340D02*
Y29190D01*
X51480D02*
Y29490D01*
X51680Y29190D01*
Y29490D01*
X49290Y27570D02*
Y27870D01*
X49390Y27770D01*
X49490Y27870D01*
Y27570D01*
X49590Y27870D02*
X49690D01*
X49640D01*
Y27570D01*
X49590D01*
X49690D01*
X50040Y27820D02*
X49990Y27870D01*
X49890D01*
X49840Y27820D01*
Y27770D01*
X49890Y27720D01*
X49990D01*
X50040Y27670D01*
Y27620D01*
X49990Y27570D01*
X49890D01*
X49840Y27620D01*
X50290Y27870D02*
X50190D01*
X50140Y27820D01*
Y27620D01*
X50190Y27570D01*
X50290D01*
X50340Y27620D01*
Y27820D01*
X50290Y27870D01*
X49030Y29430D02*
X48980Y29480D01*
X48880D01*
X48830Y29430D01*
Y29380D01*
X48880Y29330D01*
X48980D01*
X49030Y29280D01*
Y29230D01*
X48980Y29180D01*
X48880D01*
X48830Y29230D01*
X49330Y29430D02*
X49280Y29480D01*
X49180D01*
X49130Y29430D01*
Y29230D01*
X49180Y29180D01*
X49280D01*
X49330Y29230D01*
X49430Y29480D02*
Y29180D01*
Y29280D01*
X49630Y29480D01*
X49480Y29330D01*
X49630Y29180D01*
X46850Y27570D02*
Y27870D01*
X47000D01*
X47050Y27820D01*
Y27720D01*
X47000Y27670D01*
X46850D01*
X46950D02*
X47050Y27570D01*
X47350Y27870D02*
X47150D01*
Y27570D01*
X47350D01*
X47150Y27720D02*
X47250D01*
X47650Y27620D02*
Y27820D01*
X47600Y27870D01*
X47500D01*
X47450Y27820D01*
Y27620D01*
X47500Y27570D01*
X47600D01*
X47550Y27670D02*
X47650Y27570D01*
X47600D02*
X47650Y27620D01*
X47750Y27570D02*
Y27870D01*
X47950Y27570D01*
Y27870D01*
X45880Y29210D02*
Y29510D01*
X45980Y29410D01*
X46080Y29510D01*
Y29210D01*
X46330Y29510D02*
X46230D01*
X46180Y29460D01*
Y29260D01*
X46230Y29210D01*
X46330D01*
X46380Y29260D01*
Y29460D01*
X46330Y29510D01*
X46680Y29460D02*
X46630Y29510D01*
X46530D01*
X46480Y29460D01*
Y29410D01*
X46530Y29360D01*
X46630D01*
X46680Y29310D01*
Y29260D01*
X46630Y29210D01*
X46530D01*
X46480Y29260D01*
X46780Y29510D02*
X46880D01*
X46830D01*
Y29210D01*
X46780D01*
X46880D01*
X51180Y15210D02*
Y15010D01*
X51280Y14910D01*
X51380Y15010D01*
Y15210D01*
X51480D02*
Y14910D01*
X51630D01*
X51680Y14960D01*
Y15010D01*
X51630Y15060D01*
X51480D01*
X51630D01*
X51680Y15110D01*
Y15160D01*
X51630Y15210D01*
X51480D01*
X51780D02*
Y14960D01*
X51830Y14910D01*
X51930D01*
X51980Y14960D01*
Y15210D01*
X52280Y15160D02*
X52230Y15210D01*
X52130D01*
X52080Y15160D01*
Y15110D01*
X52130Y15060D01*
X52230D01*
X52280Y15010D01*
Y14960D01*
X52230Y14910D01*
X52130D01*
X52080Y14960D01*
X56730Y15410D02*
Y15210D01*
X56830Y15110D01*
X56930Y15210D01*
Y15410D01*
X57030D02*
Y15110D01*
X57180D01*
X57230Y15160D01*
Y15210D01*
X57180Y15260D01*
X57030D01*
X57180D01*
X57230Y15310D01*
Y15360D01*
X57180Y15410D01*
X57030D01*
X57330Y15110D02*
Y15310D01*
X57430Y15410D01*
X57530Y15310D01*
Y15110D01*
Y15260D01*
X57330D01*
X57630Y15410D02*
X57830D01*
X57730D01*
Y15110D01*
D74*
X52012Y24344D02*
D03*
D75*
X55509Y23056D02*
D03*
M02*
