%FSLAX24Y24*%
%MOIN*%
G70*
G01*
G75*
G04 Layer_Physical_Order=1*
G04 Layer_Color=255*
%ADD10R,0.0354X0.0315*%
%ADD11R,0.0315X0.0354*%
%ADD12R,0.0276X0.0354*%
%ADD13R,0.0319X0.0661*%
%ADD14R,0.0394X0.0315*%
%ADD15R,0.0276X0.0591*%
%ADD16R,0.0600X0.0300*%
%ADD17R,0.0300X0.0598*%
%ADD18R,0.0598X0.0300*%
%ADD19R,0.0217X0.0394*%
%ADD20R,0.0157X0.0157*%
%ADD21C,0.0150*%
%ADD22C,0.0120*%
%ADD23C,0.0100*%
%ADD24C,0.0181*%
%ADD25C,0.0630*%
%ADD26C,0.0661*%
%ADD27C,0.0591*%
%ADD28C,0.1378*%
%ADD29C,0.0320*%
%ADD30C,0.0400*%
%ADD31C,0.0500*%
G36*
X1500Y7770D02*
Y5850D01*
X122D01*
Y9050D01*
X358D01*
Y9050D01*
Y9015D01*
D01*
Y9015D01*
X358D01*
Y8501D01*
X694D01*
Y9015D01*
D01*
D01*
D01*
X694D01*
Y9015D01*
X694Y9015D01*
D01*
X730Y9050D01*
X803D01*
X814Y9043D01*
X900Y9026D01*
X986Y9043D01*
X997Y9050D01*
X1500D01*
Y7770D01*
D02*
G37*
G36*
X15450Y7660D02*
X15741D01*
Y10408D01*
X18170D01*
Y337D01*
X17694D01*
Y6794D01*
X16985D01*
Y6400D01*
X16686D01*
X16328Y6042D01*
X15450D01*
Y6223D01*
X16332D01*
X16509Y6400D01*
Y7660D01*
X16985D01*
Y7266D01*
X17300D01*
Y9550D01*
X16249D01*
Y6400D01*
X15450D01*
Y6286D01*
X15332D01*
X15274Y6274D01*
X15224Y6241D01*
X14983Y6000D01*
X14959Y6010D01*
Y6010D01*
X14959Y6010D01*
X14241D01*
Y5590D01*
X14959D01*
Y5647D01*
X15000D01*
X15000Y5647D01*
X15059Y5658D01*
X15108Y5692D01*
X15396Y5979D01*
X15450D01*
Y122D01*
X14100D01*
Y2586D01*
X14136Y2593D01*
X14197Y2633D01*
X14241Y2610D01*
Y2590D01*
X14959D01*
Y3010D01*
X14241D01*
Y2990D01*
X14197Y2967D01*
X14136Y3007D01*
X14100Y3014D01*
Y3178D01*
X14241D01*
Y3090D01*
X14959D01*
Y3510D01*
X14241D01*
Y3422D01*
X14100D01*
Y4678D01*
X14241D01*
Y4590D01*
X14959D01*
Y5010D01*
X14241D01*
Y4922D01*
X14101D01*
X14100Y4923D01*
Y9177D01*
X14101Y9178D01*
X14241D01*
Y9090D01*
X14959D01*
Y9510D01*
X14241D01*
Y9422D01*
X14100D01*
Y9586D01*
X14136Y9593D01*
X14197Y9633D01*
X14241Y9610D01*
Y9590D01*
X14959D01*
Y10010D01*
X14241D01*
Y9990D01*
X14197Y9967D01*
X14136Y10007D01*
X14100Y10014D01*
Y11828D01*
X15450D01*
Y7660D01*
D02*
G37*
G36*
X2250Y9400D02*
X1064D01*
X1059Y9409D01*
X1022Y9433D01*
Y9485D01*
X1068D01*
Y9999D01*
X732D01*
Y9485D01*
X778D01*
Y9433D01*
X741Y9409D01*
X736Y9400D01*
X250D01*
Y10599D01*
X570D01*
Y10950D01*
X666D01*
Y10950D01*
Y10916D01*
X666Y10915D01*
X666Y10915D01*
X666D01*
Y10206D01*
X1062D01*
Y10915D01*
X1062Y10915D01*
D01*
D01*
X1062Y10916D01*
D01*
X1096Y10950D01*
X2250D01*
Y9400D01*
D02*
G37*
%LPC*%
G36*
X14959Y4510D02*
X14241D01*
Y4090D01*
X14959D01*
Y4510D01*
D02*
G37*
G36*
Y7010D02*
X14241D01*
Y6590D01*
X14959D01*
Y7010D01*
D02*
G37*
G36*
Y4010D02*
X14241D01*
Y3590D01*
X14959D01*
Y4010D01*
D02*
G37*
G36*
X14600Y1144D02*
X14498Y1131D01*
X14403Y1091D01*
X14321Y1029D01*
X14259Y947D01*
X14219Y852D01*
X14206Y750D01*
X14219Y648D01*
X14259Y553D01*
X14321Y471D01*
X14403Y409D01*
X14498Y369D01*
X14600Y356D01*
X14702Y369D01*
X14797Y409D01*
X14879Y471D01*
X14941Y553D01*
X14981Y648D01*
X14994Y750D01*
X14981Y852D01*
X14941Y947D01*
X14879Y1029D01*
X14797Y1091D01*
X14702Y1131D01*
X14600Y1144D01*
D02*
G37*
G36*
X14959Y2510D02*
X14241D01*
Y2090D01*
X14959D01*
Y2510D01*
D02*
G37*
G36*
Y8510D02*
X14241D01*
Y8090D01*
X14959D01*
Y8510D01*
D02*
G37*
G36*
Y9010D02*
X14241D01*
Y8590D01*
X14959D01*
Y9010D01*
D02*
G37*
G36*
Y8010D02*
X14241D01*
Y7590D01*
X14959D01*
Y8010D01*
D02*
G37*
G36*
X15741Y7227D02*
X15450D01*
Y6833D01*
X15741D01*
Y7227D01*
D02*
G37*
G36*
X14959Y7510D02*
X14241D01*
Y7090D01*
X14959D01*
Y7510D01*
D02*
G37*
%LPD*%
D10*
X4350Y1776D02*
D03*
Y1224D02*
D03*
X2000Y9726D02*
D03*
Y9174D02*
D03*
D11*
X1274Y8050D02*
D03*
X1826D02*
D03*
X1274Y7350D02*
D03*
X1826D02*
D03*
D12*
X7545Y11300D02*
D03*
X6955D02*
D03*
X5645D02*
D03*
X5055D02*
D03*
X10795Y11350D02*
D03*
X10205D02*
D03*
X11855Y11350D02*
D03*
X12445D02*
D03*
D13*
X1257Y2800D02*
D03*
X1943D02*
D03*
X1257Y800D02*
D03*
X1943D02*
D03*
D14*
X3187Y11683D02*
D03*
X313D02*
D03*
Y10817D02*
D03*
X3187D02*
D03*
D15*
X2636Y10561D02*
D03*
X1455D02*
D03*
X864D02*
D03*
D16*
X5100Y9800D02*
D03*
Y9300D02*
D03*
Y8800D02*
D03*
Y8300D02*
D03*
Y7800D02*
D03*
Y7300D02*
D03*
Y6800D02*
D03*
Y6300D02*
D03*
Y5800D02*
D03*
Y5300D02*
D03*
Y4800D02*
D03*
Y4300D02*
D03*
Y3800D02*
D03*
Y3300D02*
D03*
Y2800D02*
D03*
Y2300D02*
D03*
Y1800D02*
D03*
D17*
X5850Y1050D02*
D03*
X6350D02*
D03*
X6850D02*
D03*
X7350D02*
D03*
X7850D02*
D03*
X8350D02*
D03*
X8850D02*
D03*
X9350D02*
D03*
X9850D02*
D03*
X10350D02*
D03*
X10850D02*
D03*
X11350D02*
D03*
X11850D02*
D03*
X12350D02*
D03*
X12850D02*
D03*
X13350D02*
D03*
X13850D02*
D03*
Y10550D02*
D03*
X13350D02*
D03*
X12850D02*
D03*
X12350D02*
D03*
X11850D02*
D03*
X11350D02*
D03*
X10850D02*
D03*
X10350D02*
D03*
X9850D02*
D03*
X9350D02*
D03*
X8850D02*
D03*
X8350D02*
D03*
X7850D02*
D03*
X7350D02*
D03*
X6850D02*
D03*
X6350D02*
D03*
X5850D02*
D03*
D18*
X14600Y1800D02*
D03*
Y2300D02*
D03*
Y2800D02*
D03*
Y3300D02*
D03*
Y3800D02*
D03*
Y4300D02*
D03*
Y4800D02*
D03*
Y5300D02*
D03*
Y5800D02*
D03*
Y6300D02*
D03*
Y6800D02*
D03*
Y7300D02*
D03*
Y7800D02*
D03*
Y8300D02*
D03*
Y8800D02*
D03*
Y9300D02*
D03*
Y9800D02*
D03*
D19*
X1274Y8758D02*
D03*
X526D02*
D03*
Y9742D02*
D03*
X900D02*
D03*
X1274D02*
D03*
D20*
X15539Y6134D02*
D03*
Y6607D02*
D03*
D21*
X2653Y11053D02*
X2750Y11150D01*
X2650Y11050D02*
X2653Y11053D01*
Y10578D02*
Y11053D01*
X2750Y11150D02*
Y11500D01*
X2600Y11650D02*
X2750Y11500D01*
X2000Y11650D02*
X2600D01*
X1700Y11350D02*
X2000Y11650D01*
X1700Y11250D02*
Y11350D01*
X3050Y8900D02*
X3450D01*
X2636Y9314D02*
X3050Y8900D01*
X2636Y9314D02*
Y10561D01*
X2653Y10578D01*
X1826Y9000D02*
X2000Y9174D01*
X1826Y8574D02*
Y9000D01*
Y8050D02*
Y8574D01*
Y7350D02*
Y8050D01*
X2284Y334D02*
X2350Y400D01*
X1727Y334D02*
X2284D01*
X1261Y800D02*
X1727Y334D01*
X1257Y800D02*
X1261D01*
D22*
X1150Y5150D02*
X1650Y5650D01*
X1150Y3650D02*
Y5150D01*
X1850Y3950D02*
Y4950D01*
Y3950D02*
X2450Y3350D01*
X1150Y3650D02*
X1600Y3200D01*
Y2000D02*
Y3200D01*
Y2000D02*
X2450Y1150D01*
Y1700D02*
Y3350D01*
X4650Y11750D02*
X8950D01*
X3950Y11050D02*
X4650Y11750D01*
X3950Y6150D02*
Y11050D01*
X3450Y5650D02*
X3950Y6150D01*
X1650Y5650D02*
X3450D01*
X900Y9250D02*
Y9742D01*
X11150Y4200D02*
X11650D01*
X13800Y2050D01*
X2043Y700D02*
X2600D01*
X2750Y850D01*
Y3250D01*
X14050Y9300D02*
X14600D01*
X13900Y9150D02*
X14050Y9300D01*
X13900Y4950D02*
Y9150D01*
Y4950D02*
X14050Y4800D01*
X14600D01*
X13900Y3300D02*
X14600D01*
X13530Y3670D02*
X13900Y3300D01*
X10800Y9550D02*
X13200D01*
X10650Y9400D02*
X10800Y9550D01*
X6850Y7750D02*
Y10550D01*
X7350Y10000D02*
Y10550D01*
X6350Y10000D02*
Y10550D01*
X5500D02*
X5850D01*
X6050Y11300D02*
X6050Y11300D01*
X5645Y11300D02*
X6050D01*
X8850Y10550D02*
Y11300D01*
X8950Y11750D02*
X9350Y11350D01*
Y10550D02*
Y11350D01*
X6450Y5550D02*
X7300D01*
X7900Y4550D02*
Y5750D01*
X12850Y1050D02*
Y1600D01*
X10650Y3800D02*
Y4600D01*
Y3800D02*
X12850Y1600D01*
X14050Y2800D02*
X14600D01*
X14050Y9800D02*
X14600D01*
X13850Y10550D02*
X14350D01*
X13850Y400D02*
Y1050D01*
X6350Y400D02*
Y1050D01*
X3300Y850D02*
X3976D01*
X4350Y1224D01*
Y1776D02*
X5076D01*
X4350Y2300D02*
X5100D01*
X5070Y2770D02*
X5100Y2800D01*
X4120Y2770D02*
X5070D01*
X3800Y2450D02*
X4120Y2770D01*
X4600Y9800D02*
X5100D01*
X4300Y9150D02*
X4450Y9300D01*
X5100D01*
X4300Y4150D02*
Y8100D01*
Y9150D01*
X5100Y7800D02*
X5700D01*
X5850Y400D02*
Y1050D01*
X10850Y10550D02*
Y11295D01*
X11850Y10550D02*
Y11345D01*
X12445Y11350D02*
X12800D01*
X9850Y11350D02*
X10205D01*
X11850Y10150D02*
Y10550D01*
Y10150D02*
X12069Y9931D01*
X10850Y10150D02*
Y10550D01*
X10632Y9931D02*
X10850Y10150D01*
X13350Y10550D02*
Y11300D01*
X5055Y10995D02*
Y11300D01*
Y10995D02*
X5500Y10550D01*
X13200Y9550D02*
X13530Y9220D01*
Y3670D02*
Y9220D01*
D23*
X12350Y1050D02*
Y1700D01*
X10300Y3750D02*
X12350Y1700D01*
X10300Y3750D02*
Y4700D01*
X10500Y4900D02*
X11850D01*
X12150Y5200D01*
Y8150D01*
X12000Y8300D02*
X12150Y8150D01*
X10300Y4700D02*
X10500Y4900D01*
X9900Y7350D02*
X11750D01*
X11950Y7150D01*
Y5500D02*
Y7150D01*
X11600Y5150D02*
X11950Y5500D01*
X10500Y5150D02*
X11600D01*
X10500Y5126D02*
Y5150D01*
X10140Y4766D02*
X10500Y5126D01*
X10140Y3510D02*
Y4766D01*
Y3510D02*
X11850Y1800D01*
Y1050D02*
Y1800D01*
X6850Y7750D02*
X7900Y6700D01*
X7850Y1050D02*
Y2350D01*
X7350Y1050D02*
Y2200D01*
X8400Y7000D02*
Y7650D01*
X7700Y8350D02*
X8400Y7650D01*
X7150Y7918D02*
Y8500D01*
X8800Y7050D02*
X9600Y6250D01*
X7850Y2350D02*
X9600Y4100D01*
Y6250D01*
X7350Y2200D02*
X9400Y4250D01*
Y6000D01*
X8400Y7000D02*
X9400Y6000D01*
X5750Y8300D02*
X7600Y6450D01*
X5100Y8300D02*
X5750D01*
X9100Y4350D02*
Y5968D01*
X6850Y2100D02*
X9100Y4350D01*
X6850Y1050D02*
Y2100D01*
X7150Y7918D02*
X9100Y5968D01*
X10250Y8300D02*
X12000D01*
X6550Y11300D02*
X6955D01*
X7545D02*
X7950D01*
D24*
X14600Y5800D02*
X15000D01*
X15332Y6132D02*
X15529D01*
X15000Y5800D02*
X15332Y6132D01*
D25*
X550Y3100D02*
D03*
Y600D02*
D03*
D26*
X3300Y2950D02*
D03*
X14600Y750D02*
D03*
D27*
X3300Y850D02*
D03*
Y1850D02*
D03*
D28*
X2850Y7684D02*
D03*
Y4416D02*
D03*
D29*
X1850Y4950D02*
D03*
X1534Y3734D02*
D03*
X1826Y8574D02*
D03*
X1250Y6050D02*
D03*
Y6700D02*
D03*
X700Y6400D02*
D03*
Y7000D02*
D03*
Y7550D02*
D03*
Y8100D02*
D03*
X900Y9250D02*
D03*
X11150Y4200D02*
D03*
X13250Y7150D02*
D03*
X11374Y5874D02*
D03*
X12450Y5500D02*
D03*
X2350Y400D02*
D03*
X2450Y1150D02*
D03*
Y1700D02*
D03*
X2750Y3250D02*
D03*
X9500Y9200D02*
D03*
X10650Y9400D02*
D03*
X7350Y10000D02*
D03*
X6350D02*
D03*
X5500Y10550D02*
D03*
X6050Y11300D02*
D03*
X8850D02*
D03*
X5700Y7800D02*
D03*
X6450Y5550D02*
D03*
X7300D02*
D03*
X7900Y5750D02*
D03*
Y4550D02*
D03*
X10650Y4600D02*
D03*
X9900Y4950D02*
D03*
X8400Y5200D02*
D03*
X5650Y4700D02*
D03*
X5700Y6850D02*
D03*
X15200Y8100D02*
D03*
Y8600D02*
D03*
Y9100D02*
D03*
Y9600D02*
D03*
Y10100D02*
D03*
Y10600D02*
D03*
X14500Y10400D02*
D03*
X15200Y5100D02*
D03*
Y4600D02*
D03*
Y4100D02*
D03*
Y3600D02*
D03*
Y3100D02*
D03*
Y2600D02*
D03*
Y2100D02*
D03*
X10450Y2250D02*
D03*
X8200D02*
D03*
X12700D02*
D03*
X8900Y1700D02*
D03*
X11150Y1750D02*
D03*
X13450D02*
D03*
X6100Y2500D02*
D03*
X4200Y3050D02*
D03*
X10050Y6350D02*
D03*
X13800Y2050D02*
D03*
X14050Y2800D02*
D03*
Y9800D02*
D03*
X13850Y400D02*
D03*
X6350D02*
D03*
X6776Y2874D02*
D03*
X4350Y2300D02*
D03*
X3800Y2450D02*
D03*
X4600Y9800D02*
D03*
X4300Y4150D02*
D03*
Y8100D02*
D03*
X3607Y6857D02*
D03*
X5850Y400D02*
D03*
X12800Y11350D02*
D03*
X9850Y11350D02*
D03*
X10632Y9931D02*
D03*
X12069D02*
D03*
X10668Y8868D02*
D03*
X12023Y9223D02*
D03*
X7976Y7474D02*
D03*
X9800Y8300D02*
D03*
X9400Y7300D02*
D03*
X9900Y7350D02*
D03*
X5250Y1400D02*
D03*
X7900Y6700D02*
D03*
X8800Y7050D02*
D03*
X7700Y8350D02*
D03*
X7150Y8500D02*
D03*
X7600Y6450D02*
D03*
X6550Y7900D02*
D03*
X8100Y8950D02*
D03*
X13350Y11300D02*
D03*
X15200Y7550D02*
D03*
Y7050D02*
D03*
Y6450D02*
D03*
X10250Y8300D02*
D03*
X6550Y11300D02*
D03*
X7950D02*
D03*
X8976Y9976D02*
D03*
D30*
X1700Y11250D02*
D03*
D31*
X3450Y8900D02*
D03*
Y10250D02*
D03*
M02*
