%FSLAX24Y24*%
%MOIN*%
G70*
G01*
G75*
G04 Layer_Physical_Order=1*
G04 Layer_Color=255*
G04:AMPARAMS|DCode=10|XSize=23.6mil|YSize=43.3mil|CornerRadius=0mil|HoleSize=0mil|Usage=FLASHONLY|Rotation=225.000|XOffset=0mil|YOffset=0mil|HoleType=Round|Shape=Rectangle|*
%AMROTATEDRECTD10*
4,1,4,-0.0070,0.0237,0.0237,-0.0070,0.0070,-0.0237,-0.0237,0.0070,-0.0070,0.0237,0.0*
%
%ADD10ROTATEDRECTD10*%

G04:AMPARAMS|DCode=11|XSize=55.1mil|YSize=45.3mil|CornerRadius=0mil|HoleSize=0mil|Usage=FLASHONLY|Rotation=135.000|XOffset=0mil|YOffset=0mil|HoleType=Round|Shape=Rectangle|*
%AMROTATEDRECTD11*
4,1,4,0.0355,-0.0035,0.0035,-0.0355,-0.0355,0.0035,-0.0035,0.0355,0.0355,-0.0035,0.0*
%
%ADD11ROTATEDRECTD11*%

%ADD12R,0.0236X0.0197*%
%ADD13R,0.0197X0.0236*%
%ADD14R,0.0276X0.0354*%
G04:AMPARAMS|DCode=15|XSize=19.7mil|YSize=23.6mil|CornerRadius=0mil|HoleSize=0mil|Usage=FLASHONLY|Rotation=315.000|XOffset=0mil|YOffset=0mil|HoleType=Round|Shape=Rectangle|*
%AMROTATEDRECTD15*
4,1,4,-0.0153,-0.0014,0.0014,0.0153,0.0153,0.0014,-0.0014,-0.0153,-0.0153,-0.0014,0.0*
%
%ADD15ROTATEDRECTD15*%

G04:AMPARAMS|DCode=16|XSize=22mil|YSize=25.5mil|CornerRadius=0mil|HoleSize=0mil|Usage=FLASHONLY|Rotation=225.000|XOffset=0mil|YOffset=0mil|HoleType=Round|Shape=Rectangle|*
%AMROTATEDRECTD16*
4,1,4,-0.0012,0.0168,0.0168,-0.0012,0.0012,-0.0168,-0.0168,0.0012,-0.0012,0.0168,0.0*
%
%ADD16ROTATEDRECTD16*%

G04:AMPARAMS|DCode=17|XSize=19.7mil|YSize=23.6mil|CornerRadius=0mil|HoleSize=0mil|Usage=FLASHONLY|Rotation=45.000|XOffset=0mil|YOffset=0mil|HoleType=Round|Shape=Rectangle|*
%AMROTATEDRECTD17*
4,1,4,0.0014,-0.0153,-0.0153,0.0014,-0.0014,0.0153,0.0153,-0.0014,0.0014,-0.0153,0.0*
%
%ADD17ROTATEDRECTD17*%

G04:AMPARAMS|DCode=18|XSize=9.8mil|YSize=31.5mil|CornerRadius=0mil|HoleSize=0mil|Usage=FLASHONLY|Rotation=135.000|XOffset=0mil|YOffset=0mil|HoleType=Round|Shape=Round|*
%AMOVALD18*
21,1,0.0217,0.0098,0.0000,0.0000,225.0*
1,1,0.0098,0.0077,0.0077*
1,1,0.0098,-0.0077,-0.0077*
%
%ADD18OVALD18*%

G04:AMPARAMS|DCode=19|XSize=9.8mil|YSize=31.5mil|CornerRadius=0mil|HoleSize=0mil|Usage=FLASHONLY|Rotation=45.000|XOffset=0mil|YOffset=0mil|HoleType=Round|Shape=Round|*
%AMOVALD19*
21,1,0.0217,0.0098,0.0000,0.0000,135.0*
1,1,0.0098,0.0077,-0.0077*
1,1,0.0098,-0.0077,0.0077*
%
%ADD19OVALD19*%

G04:AMPARAMS|DCode=20|XSize=185mil|YSize=212.6mil|CornerRadius=0mil|HoleSize=0mil|Usage=FLASHONLY|Rotation=45.000|XOffset=0mil|YOffset=0mil|HoleType=Round|Shape=Rectangle|*
%AMROTATEDRECTD20*
4,1,4,0.0097,-0.1406,-0.1406,0.0097,-0.0097,0.1406,0.1406,-0.0097,0.0097,-0.1406,0.0*
%
%ADD20ROTATEDRECTD20*%

%ADD21R,0.0394X0.0217*%
%ADD22R,0.0315X0.0354*%
%ADD23R,0.0512X0.0217*%
%ADD24R,0.0276X0.0591*%
%ADD25R,0.0394X0.0315*%
%ADD26R,0.0136X0.0201*%
%ADD27R,0.0201X0.0136*%
G04:AMPARAMS|DCode=28|XSize=13.8mil|YSize=39.4mil|CornerRadius=0mil|HoleSize=0mil|Usage=FLASHONLY|Rotation=45.000|XOffset=0mil|YOffset=0mil|HoleType=Round|Shape=Rectangle|*
%AMROTATEDRECTD28*
4,1,4,0.0090,-0.0188,-0.0188,0.0090,-0.0090,0.0188,0.0188,-0.0090,0.0090,-0.0188,0.0*
%
%ADD28ROTATEDRECTD28*%

%ADD29O,0.0256X0.0098*%
%ADD30O,0.0098X0.0256*%
%ADD31R,0.0709X0.0709*%
%ADD32O,0.0866X0.0236*%
%ADD33R,0.1024X0.0591*%
%ADD34R,0.0157X0.0157*%
%ADD35C,0.0120*%
%ADD36C,0.0080*%
%ADD37C,0.0060*%
%ADD38C,0.0100*%
%ADD39C,0.1260*%
%ADD40C,0.0630*%
%ADD41C,0.0160*%
%ADD42C,0.0500*%
%ADD43C,0.0180*%
%ADD44C,0.0320*%
%ADD45C,0.0200*%
%ADD46C,0.0260*%
%ADD47C,0.0220*%
G36*
X8280Y2760D02*
X8500D01*
Y2440D01*
X8502D01*
Y2439D01*
X8798D01*
Y2440D01*
X8810D01*
X8823Y2389D01*
X8817Y2360D01*
X8828Y2309D01*
X8855Y2268D01*
X8860Y2250D01*
X8881D01*
X8899Y2238D01*
X8950Y2227D01*
X8963Y2230D01*
X9002Y2199D01*
X9003Y2176D01*
X8753Y1851D01*
X8560Y1640D01*
X8510Y1644D01*
X8484Y1684D01*
X8441Y1712D01*
X8390Y1723D01*
X8339Y1712D01*
X8308Y1691D01*
X8262Y1712D01*
X8249Y1794D01*
Y1794D01*
X7755D01*
Y1478D01*
X8249D01*
Y1536D01*
X8296Y1496D01*
Y1496D01*
D01*
X8296D01*
D01*
Y1496D01*
X8335Y1470D01*
X8339Y1420D01*
X8149Y1247D01*
X7810Y986D01*
X7596Y850D01*
X7350D01*
Y1026D01*
X7372Y1059D01*
X7383Y1110D01*
X7372Y1161D01*
X7350Y1194D01*
Y1296D01*
X7380D01*
X7418Y1312D01*
X7422Y1320D01*
X7560D01*
Y2810D01*
X8280D01*
Y2760D01*
D02*
G37*
G36*
X7380Y1350D02*
X6780D01*
Y1150D01*
X5745D01*
X5679Y1194D01*
X5591Y1212D01*
X5502Y1194D01*
X5427Y1144D01*
X5377Y1069D01*
X5359Y980D01*
X5377Y891D01*
X5427Y816D01*
X5502Y766D01*
X5584Y750D01*
X5579Y700D01*
X4700D01*
Y2080D01*
X6440D01*
Y2560D01*
X7380D01*
Y1350D01*
D02*
G37*
G36*
X8950Y5430D02*
X8793D01*
Y5853D01*
X7100D01*
Y6050D01*
X8950D01*
Y5430D01*
D02*
G37*
%LPC*%
G36*
X6684Y1621D02*
X6190D01*
Y1206D01*
X6684D01*
Y1621D01*
D02*
G37*
G36*
X6771Y2168D02*
X6745Y2142D01*
X6690Y2153D01*
X6635Y2142D01*
X6589Y2111D01*
X6558Y2065D01*
X6547Y2010D01*
X6558Y1955D01*
X6589Y1909D01*
X6635Y1878D01*
X6690Y1867D01*
X6745Y1878D01*
D01*
Y1878D01*
X6771Y1852D01*
Y1852D01*
X7265D01*
Y2168D01*
X6771D01*
Y2168D01*
D02*
G37*
G36*
X6074Y2014D02*
X5698D01*
Y1324D01*
X6074D01*
Y2014D01*
D02*
G37*
%LPD*%
D10*
X3985Y9195D02*
D03*
X4375Y9585D02*
D03*
D11*
X8379Y8066D02*
D03*
X7766Y8679D02*
D03*
X7321Y8234D02*
D03*
X7934Y7621D02*
D03*
D12*
X1613Y6420D02*
D03*
X2007D02*
D03*
X9083Y6280D02*
D03*
X9477D02*
D03*
X4813Y9680D02*
D03*
X5207D02*
D03*
X1493Y6010D02*
D03*
X1887D02*
D03*
X333Y4350D02*
D03*
X727D02*
D03*
X2453Y3550D02*
D03*
X2847D02*
D03*
X5133Y4420D02*
D03*
X5527Y4420D02*
D03*
X7273Y6230D02*
D03*
X7667D02*
D03*
D13*
X1960Y7667D02*
D03*
Y7273D02*
D03*
X8650Y2213D02*
D03*
Y2607D02*
D03*
D14*
X1005Y7440D02*
D03*
X1595D02*
D03*
X1015Y6830D02*
D03*
X1605D02*
D03*
D15*
X2551Y7131D02*
D03*
X2829Y7409D02*
D03*
X3501Y6109D02*
D03*
X3099Y6169D02*
D03*
X2821Y5891D02*
D03*
X2819Y6959D02*
D03*
X2541Y6681D02*
D03*
X2849Y6429D02*
D03*
X2571Y6151D02*
D03*
X8531Y7291D02*
D03*
X8809Y7569D02*
D03*
D16*
X2254Y8553D02*
D03*
X1907Y8206D02*
D03*
X2579Y7881D02*
D03*
D17*
X3769Y8831D02*
D03*
X3491Y9109D02*
D03*
X3779Y5831D02*
D03*
X7911Y6689D02*
D03*
X8189Y6411D02*
D03*
X8251Y7019D02*
D03*
X8529Y6741D02*
D03*
X5939Y9391D02*
D03*
X5661Y9669D02*
D03*
D18*
X3232Y6941D02*
D03*
X3371Y6802D02*
D03*
X3510Y6663D02*
D03*
X3649Y6524D02*
D03*
X3788Y6384D02*
D03*
X3928Y6245D02*
D03*
X4067Y6106D02*
D03*
X4206Y5967D02*
D03*
X4345Y5828D02*
D03*
X4484Y5688D02*
D03*
X4624Y5549D02*
D03*
X4763Y5410D02*
D03*
X4902Y5271D02*
D03*
X5041Y5132D02*
D03*
X7268Y7359D02*
D03*
X7129Y7498D02*
D03*
X6990Y7637D02*
D03*
X6851Y7776D02*
D03*
X6712Y7916D02*
D03*
X6572Y8055D02*
D03*
X6433Y8194D02*
D03*
X6294Y8333D02*
D03*
X6155Y8472D02*
D03*
X6016Y8612D02*
D03*
X5876Y8751D02*
D03*
X5737Y8890D02*
D03*
X5598Y9029D02*
D03*
X5459Y9168D02*
D03*
D19*
Y5132D02*
D03*
X5598Y5271D02*
D03*
X5737Y5410D02*
D03*
X5876Y5549D02*
D03*
X6016Y5688D02*
D03*
X6155Y5828D02*
D03*
X6294Y5967D02*
D03*
X6433Y6106D02*
D03*
X6572Y6245D02*
D03*
X6712Y6384D02*
D03*
X6851Y6524D02*
D03*
X6990Y6663D02*
D03*
X7129Y6802D02*
D03*
X7268Y6941D02*
D03*
X5041Y9168D02*
D03*
X4902Y9029D02*
D03*
X4763Y8890D02*
D03*
X4624Y8751D02*
D03*
X4484Y8612D02*
D03*
X4345Y8472D02*
D03*
X4206Y8333D02*
D03*
X4067Y8194D02*
D03*
X3928Y8055D02*
D03*
X3788Y7916D02*
D03*
X3649Y7776D02*
D03*
X3510Y7637D02*
D03*
X3371Y7498D02*
D03*
X3232Y7359D02*
D03*
D20*
X5250Y7150D02*
D03*
D21*
X8002Y2384D02*
D03*
Y1636D02*
D03*
X7018D02*
D03*
Y2010D02*
D03*
Y2384D02*
D03*
D22*
X7004Y1110D02*
D03*
X7556D02*
D03*
D23*
X2392Y3074D02*
D03*
Y2326D02*
D03*
X1408D02*
D03*
Y2700D02*
D03*
Y3074D02*
D03*
D24*
X5886Y1669D02*
D03*
X5295Y1669D02*
D03*
X4114Y1669D02*
D03*
D25*
X3563Y1413D02*
D03*
X6437D02*
D03*
Y547D02*
D03*
X3563D02*
D03*
D26*
X7647Y3068D02*
D03*
X7450D02*
D03*
X7253D02*
D03*
Y4032D02*
D03*
X7450D02*
D03*
X7647D02*
D03*
D27*
X6968Y3156D02*
D03*
Y3353D02*
D03*
Y3550D02*
D03*
Y3747D02*
D03*
Y3944D02*
D03*
X7932D02*
D03*
Y3747D02*
D03*
Y3550D02*
D03*
Y3353D02*
D03*
Y3156D02*
D03*
D28*
X6630Y9431D02*
D03*
X6449Y9251D02*
D03*
X6269Y9070D02*
D03*
X6770Y8569D02*
D03*
X6951Y8749D02*
D03*
X7132Y8930D02*
D03*
D29*
X710Y5325D02*
D03*
Y5128D02*
D03*
Y4932D02*
D03*
Y4735D02*
D03*
X1910D02*
D03*
Y4932D02*
D03*
Y5128D02*
D03*
Y5325D02*
D03*
D30*
X1015Y4430D02*
D03*
X1212D02*
D03*
X1408D02*
D03*
X1605D02*
D03*
Y5630D02*
D03*
X1408D02*
D03*
X1212D02*
D03*
X1015D02*
D03*
D31*
X1310Y5030D02*
D03*
D32*
X3935Y3910D02*
D03*
Y3410D02*
D03*
Y2910D02*
D03*
Y2410D02*
D03*
X5825Y3910D02*
D03*
Y3410D02*
D03*
Y2910D02*
D03*
Y2410D02*
D03*
D33*
X8872Y5164D02*
D03*
Y3137D02*
D03*
D34*
X7198Y5952D02*
D03*
D35*
X7178Y5942D02*
X7188Y5952D01*
X6902Y5942D02*
X7178D01*
X2910Y2030D02*
X3140Y1800D01*
X3040Y1770D02*
X3050Y1780D01*
X4003D01*
X4114Y1669D01*
X2910Y2030D02*
Y2860D01*
X2696Y3074D02*
X2910Y2860D01*
X2392Y3074D02*
X2696D01*
X3970Y1000D02*
Y1525D01*
X4114Y1669D01*
X5825Y3410D02*
Y3910D01*
X2392Y3074D02*
X2453Y3135D01*
Y3550D01*
X1270Y3212D02*
Y3430D01*
Y3212D02*
X1408Y3074D01*
X6630Y9420D02*
X6870Y9180D01*
D36*
X6658Y8680D02*
X6770Y8569D01*
X6362Y8680D02*
X6658D01*
X6155Y8472D02*
X6362Y8680D01*
X6269Y8864D02*
Y9070D01*
X6016Y8612D02*
X6269Y8864D01*
X9083Y6267D02*
X9750Y5600D01*
X9083Y6267D02*
Y6280D01*
X7932Y3156D02*
X8206D01*
X8950Y2360D02*
Y2520D01*
X8863Y2607D02*
X8950Y2520D01*
X8650Y2607D02*
X8863D01*
X7004Y1110D02*
X7250D01*
X5821Y3910D02*
X5825D01*
X5460D02*
X5821D01*
X5300Y3750D02*
X5460Y3910D01*
X5527Y4204D02*
X5821Y3910D01*
X5527Y4204D02*
Y4420D01*
X960Y2700D02*
X1408D01*
X5207Y9427D02*
Y9680D01*
X5909Y9361D02*
Y9389D01*
X6690Y9010D02*
X6951Y8749D01*
X6449Y9251D02*
X6690Y9010D01*
X6951Y8749D02*
X7132Y8930D01*
X8529Y6741D02*
X8571D01*
X8793Y6963D01*
X9477Y6203D02*
Y6280D01*
Y6203D02*
X9680Y6000D01*
X6111Y8150D02*
X6294Y8333D01*
X5550Y8703D02*
X5737Y8890D01*
X5876Y8751D01*
X5598Y9029D02*
X5737Y8890D01*
X5876Y8751D02*
Y8751D01*
X5459Y9168D02*
Y9467D01*
X5631Y9639D01*
X4850Y9360D02*
X5041Y9168D01*
X2370Y5950D02*
X2571Y6151D01*
X2620Y5690D02*
X2821Y5891D01*
X6440Y7644D02*
X6712Y7916D01*
D37*
X3652Y8330D02*
X3928Y8055D01*
X3650Y8328D02*
X3652Y8330D01*
X3604Y8100D02*
X3788Y7916D01*
X6950Y7319D02*
X7129Y7498D01*
X6733Y7380D02*
X6990Y7637D01*
X270Y5670D02*
X390Y5790D01*
Y6570D01*
X660Y6840D01*
X1005D01*
Y7440D01*
X1605Y6428D02*
X1613Y6420D01*
X1605Y6428D02*
Y6830D01*
X1832Y7667D02*
X1960D01*
X1605Y7440D02*
X1832Y7667D01*
X1960Y7273D02*
X2293Y6940D01*
X2382Y7300D02*
X2551Y7131D01*
X2960Y7540D02*
X3050D01*
X2829Y7409D02*
X2960Y7540D01*
X2007Y6420D02*
X2260D01*
X2200Y7870D02*
X2510Y8180D01*
X1390Y7870D02*
X2200D01*
X1300Y7780D02*
X1390Y7870D01*
X1300Y7150D02*
Y7780D01*
X7550Y4390D02*
Y5238D01*
X7128Y5660D02*
X7550Y5238D01*
X6820Y5660D02*
X7128D01*
X6680Y5800D02*
X6820Y5660D01*
X6680Y5800D02*
Y6138D01*
X6572Y6245D02*
X6680Y6138D01*
X6124Y5254D02*
X6570Y5700D01*
Y5969D01*
X6433Y6106D02*
X6570Y5969D01*
X6813Y6840D02*
X6990Y6663D01*
X4503Y5150D02*
X4763Y5410D01*
X6124Y4456D02*
Y5254D01*
Y4456D02*
X6160Y4420D01*
X4624Y5549D02*
X4844Y5770D01*
X5616Y5810D02*
X5876Y5549D01*
X5320Y5549D02*
X5598Y5271D01*
X5550Y5597D02*
X5737Y5410D01*
X3430Y3410D02*
X3780D01*
X3360Y2990D02*
X3780Y3410D01*
X3360Y2730D02*
Y2990D01*
Y2730D02*
X3430Y2660D01*
X6240D01*
X6350Y2770D01*
Y4150D01*
X6430Y4230D01*
X7390D01*
X7450Y4170D01*
Y4032D02*
Y4170D01*
X6510Y3720D02*
X6680Y3550D01*
X6968D01*
X6510Y3720D02*
Y3870D01*
X8104Y3944D02*
X8170Y4010D01*
X7932Y3944D02*
X8104D01*
X7932Y3747D02*
X8163D01*
X7400Y3460D02*
X7647Y3707D01*
Y4032D01*
X7253Y3837D02*
X7390Y3700D01*
X7253Y3837D02*
Y4032D01*
X1910Y4735D02*
X2315D01*
X2360Y4690D01*
Y4400D02*
Y4690D01*
X2300Y4010D02*
X2370Y4080D01*
X1450Y4010D02*
X2300D01*
X1408Y4052D02*
X1450Y4010D01*
X1408Y4052D02*
Y4430D01*
X1212Y3988D02*
Y4430D01*
Y3988D02*
X1350Y3850D01*
X2990D01*
X3430Y3410D01*
X6754Y3944D02*
X6968D01*
X6750Y3940D02*
X6754Y3944D01*
X6968Y3353D02*
X7153D01*
X7200Y3400D01*
Y3680D01*
X7133Y3747D02*
X7200Y3680D01*
X6968Y3747D02*
X7133D01*
X6560Y3430D02*
X6637Y3353D01*
X6968D01*
X6690Y2010D02*
X7018D01*
X3935Y2410D02*
X4500D01*
X4360Y3410D02*
X4510Y3560D01*
X5230Y2430D02*
X5805D01*
X5230Y2910D02*
X5825D01*
X5080Y4010D02*
X5133Y4063D01*
Y4420D01*
X4880Y3060D02*
Y4970D01*
X3935Y2910D02*
X4730D01*
X4880Y3060D01*
Y4970D02*
X5041Y5132D01*
X3935Y3910D02*
X4390Y4365D01*
Y4840D02*
X4620Y5070D01*
X4390Y4365D02*
Y4840D01*
X3077Y3320D02*
X3250D01*
X1015Y4430D02*
Y4735D01*
X2847Y3550D02*
X3077Y3320D01*
X1408Y5630D02*
Y6202D01*
X3779Y5831D02*
X3940Y5670D01*
X1340Y6270D02*
X1408Y6202D01*
X2819Y6959D02*
X3000Y7140D01*
X3199Y6941D01*
X3232D01*
X3441Y9109D02*
X3491D01*
X3220Y9330D02*
X3441Y9109D01*
X5800Y9252D02*
X5909Y9361D01*
X5939Y9391D01*
X7667Y6230D02*
X7757Y6140D01*
X8410D01*
X8529Y6259D02*
Y6741D01*
X8410Y6140D02*
X8529Y6259D01*
X2510Y8180D02*
X2750D01*
X6871Y7060D02*
X7129Y6802D01*
X6594Y6780D02*
X6851Y6524D01*
X6536Y6560D02*
X6712Y6384D01*
X7590Y6560D02*
X7710D01*
X7859Y6411D01*
X8189D01*
X8251Y7019D02*
X8259D01*
X8241D02*
X8251D01*
X8259D02*
X8531Y7291D01*
X8809Y7809D02*
X8850Y7850D01*
X8809Y7569D02*
Y7809D01*
X7253Y6210D02*
X7273Y6230D01*
X6886Y6210D02*
X7253D01*
X6712Y6384D02*
X6886Y6210D01*
X7268Y6941D02*
X7347Y7020D01*
X7580D01*
X7911Y6689D01*
X8241Y7019D01*
X4620Y5070D02*
X4701D01*
X4902Y5271D01*
X5260Y4933D02*
X5459Y5132D01*
X5260Y4780D02*
Y4933D01*
X4286Y5490D02*
X4484Y5688D01*
X3928Y6245D02*
X4190Y6508D01*
X4178D02*
X4190D01*
X4067Y6106D02*
X4250Y6289D01*
X1605Y4215D02*
Y4430D01*
X4217Y5967D02*
X4470Y6220D01*
X4345Y5828D02*
X4520Y6002D01*
X355Y4735D02*
X710D01*
X2860Y5370D02*
X3000Y5510D01*
X1955Y5370D02*
X2860D01*
X1910Y5325D02*
X1955Y5370D01*
X2718Y5128D02*
X2800Y5210D01*
X1910Y5128D02*
X2718D01*
X2748Y4932D02*
X2750Y4930D01*
X1910Y4932D02*
X2748D01*
X3880Y8380D02*
X4066Y8194D01*
X4067D01*
X3179Y7690D02*
X3371Y7498D01*
X3513Y7637D02*
X3750Y7400D01*
X3426Y8000D02*
X3649Y7776D01*
X2930Y8000D02*
X3426D01*
X2750Y8180D02*
X2930Y8000D01*
X248Y4932D02*
X710D01*
X332Y5128D02*
X710D01*
X333Y4093D02*
Y4350D01*
X710Y4367D02*
Y4735D01*
X3050Y7540D02*
X3232Y7359D01*
X1907Y8206D02*
X2080Y8033D01*
X2254Y8506D02*
X2410Y8350D01*
X2579Y7881D02*
X2750Y7710D01*
X1880Y5740D02*
Y6003D01*
X1770Y5630D02*
X1880Y5740D01*
X1605Y5630D02*
X1770D01*
X7321Y8234D02*
X7590Y7965D01*
X6654Y7580D02*
X6851Y7776D01*
X6170Y7930D02*
X6433Y8193D01*
Y8194D01*
X6380Y7862D02*
X6572Y8055D01*
X3649Y6524D02*
X3836Y6710D01*
X4454Y8920D02*
X4624Y8751D01*
X4170Y8648D02*
X4345Y8472D01*
X4230Y8866D02*
X4484Y8612D01*
X3929Y8610D02*
X4206Y8333D01*
X8230Y8215D02*
Y8560D01*
Y8215D02*
X8379Y8066D01*
D38*
X7110Y2770D02*
X7253Y2913D01*
Y3068D01*
X4375Y9585D02*
X4470Y9680D01*
X4813D01*
X3985Y9047D02*
Y9195D01*
X3769Y8831D02*
X3985Y9047D01*
X4375Y9556D02*
X4902Y9029D01*
X4375Y9556D02*
Y9585D01*
X3099Y6169D02*
X3310Y6380D01*
X3307Y6383D02*
X3310Y6380D01*
X3307Y6383D02*
Y6460D01*
X3510Y6663D01*
X2849Y6429D02*
X3060Y6640D01*
X3100Y6600D01*
X3164D01*
X3369Y6804D01*
X3159Y6109D02*
X3501D01*
X3099Y6169D02*
X3159Y6109D01*
X2541Y6681D02*
X2598D01*
X2849Y6429D01*
X4040Y9250D02*
X4403D01*
X4563Y9090D01*
X4763Y8890D01*
X3985Y9195D02*
X4090Y9090D01*
D39*
X3566Y4950D02*
D03*
X6834D02*
D03*
D40*
X800Y3750D02*
D03*
Y6250D02*
D03*
D41*
X3640Y8590D02*
D03*
X3650Y8328D02*
D03*
X3604Y8100D02*
D03*
X6950Y7319D02*
D03*
X6733Y7380D02*
D03*
X2293Y6940D02*
D03*
X2382Y7300D02*
D03*
X2260Y6420D02*
D03*
X1300Y7150D02*
D03*
X1550Y8250D02*
D03*
X7550Y4390D02*
D03*
X4723Y233D02*
D03*
X6020Y580D02*
D03*
X8930Y3580D02*
D03*
X6813Y6840D02*
D03*
X3780Y2010D02*
D03*
X2620Y2050D02*
D03*
X8390Y1590D02*
D03*
X3486Y2094D02*
D03*
X4450Y5150D02*
D03*
X4640Y3120D02*
D03*
X6160Y4420D02*
D03*
X4860Y5770D02*
D03*
X5616Y5810D02*
D03*
X5320Y5549D02*
D03*
X5550Y5597D02*
D03*
X3200Y3100D02*
D03*
X6510Y3870D02*
D03*
X8170Y4010D02*
D03*
X8360Y1980D02*
D03*
X8040Y1990D02*
D03*
X7250Y1110D02*
D03*
X6750Y3940D02*
D03*
X4510Y3560D02*
D03*
X960Y2700D02*
D03*
X3250Y3320D02*
D03*
X4695Y4905D02*
D03*
X3940Y5670D02*
D03*
X1340Y6270D02*
D03*
X3000Y7140D02*
D03*
X3220Y9330D02*
D03*
X4180Y7780D02*
D03*
X5800Y9252D02*
D03*
X8950Y2360D02*
D03*
X6690Y9010D02*
D03*
X7810Y8150D02*
D03*
X8780Y3770D02*
D03*
X9490Y4210D02*
D03*
X9110Y5650D02*
D03*
X9680Y6000D02*
D03*
X8793Y6963D02*
D03*
X8850Y7850D02*
D03*
X8360Y2670D02*
D03*
X6220Y9560D02*
D03*
X5990Y9050D02*
D03*
X6000Y9710D02*
D03*
X6871Y7060D02*
D03*
X6594Y6780D02*
D03*
X6536Y6560D02*
D03*
X2890Y9120D02*
D03*
X7308Y6538D02*
D03*
X6111Y8150D02*
D03*
X5550Y8703D02*
D03*
X8230Y8560D02*
D03*
X7590Y6560D02*
D03*
X1977Y7017D02*
D03*
X7830Y7090D02*
D03*
X5260Y4780D02*
D03*
X4550Y4520D02*
D03*
X2170Y2690D02*
D03*
X2470Y2710D02*
D03*
X2740Y4320D02*
D03*
X3440Y3650D02*
D03*
X4286Y5490D02*
D03*
X4178Y6508D02*
D03*
X4250Y6289D02*
D03*
X2970Y7830D02*
D03*
X1605Y4215D02*
D03*
X4470Y6220D02*
D03*
X4520Y6002D02*
D03*
X355Y4735D02*
D03*
X3000Y5510D02*
D03*
X2800Y5210D02*
D03*
X2750Y4930D02*
D03*
X3880Y8380D02*
D03*
X3179Y7690D02*
D03*
X3750Y7400D02*
D03*
X248Y4932D02*
D03*
X332Y5128D02*
D03*
X333Y4093D02*
D03*
X2080Y8033D02*
D03*
X2410Y8350D02*
D03*
X2750Y7710D02*
D03*
X1880Y5740D02*
D03*
X7590Y7965D02*
D03*
X6654Y7580D02*
D03*
X6170Y7930D02*
D03*
X6380Y7862D02*
D03*
X4850Y9360D02*
D03*
X3836Y6710D02*
D03*
X2940Y4140D02*
D03*
X2370Y5950D02*
D03*
X2620Y5690D02*
D03*
X6440Y7644D02*
D03*
X9264Y3676D02*
D03*
X9696Y5304D02*
D03*
X4454Y8920D02*
D03*
X4170Y8648D02*
D03*
X4230Y8866D02*
D03*
X3929Y8610D02*
D03*
D42*
X3040Y1770D02*
D03*
Y950D02*
D03*
D43*
X270Y5670D02*
D03*
X7820Y5250D02*
D03*
X9750Y5600D02*
D03*
X7110Y2770D02*
D03*
X8206Y3156D02*
D03*
X8163Y3747D02*
D03*
X7400Y3460D02*
D03*
X7390Y3700D02*
D03*
X2360Y4400D02*
D03*
X2370Y4080D02*
D03*
X6607Y2703D02*
D03*
X6560Y3430D02*
D03*
X6690Y2010D02*
D03*
X4500Y2410D02*
D03*
X7817Y5503D02*
D03*
X5230Y2430D02*
D03*
Y2910D02*
D03*
X5300Y3750D02*
D03*
X5080Y4010D02*
D03*
D44*
X4970Y1000D02*
D03*
X3970D02*
D03*
X1270Y3430D02*
D03*
D45*
X5207Y9427D02*
D03*
D46*
X4248Y7150D02*
D03*
X4582Y7484D02*
D03*
X4916Y7818D02*
D03*
X5250Y8152D02*
D03*
X4582Y6816D02*
D03*
X4916Y7150D02*
D03*
X5250Y7484D02*
D03*
X5584Y7818D02*
D03*
X4916Y6482D02*
D03*
X5250Y6816D02*
D03*
X5918Y7484D02*
D03*
X5250Y6148D02*
D03*
X5584Y6482D02*
D03*
X5918Y6816D02*
D03*
X6252Y7150D02*
D03*
X1310Y5030D02*
D03*
X5584Y7150D02*
D03*
D47*
X6902Y5942D02*
D03*
X6870Y9180D02*
D03*
M02*
