%FSLAX24Y24*%
%MOIN*%
G70*
G01*
G75*
G04 Layer_Color=8388736*
G04:AMPARAMS|DCode=10|XSize=23.6mil|YSize=43.3mil|CornerRadius=0mil|HoleSize=0mil|Usage=FLASHONLY|Rotation=225.000|XOffset=0mil|YOffset=0mil|HoleType=Round|Shape=Rectangle|*
%AMROTATEDRECTD10*
4,1,4,-0.0070,0.0237,0.0237,-0.0070,0.0070,-0.0237,-0.0237,0.0070,-0.0070,0.0237,0.0*
%
%ADD10ROTATEDRECTD10*%

G04:AMPARAMS|DCode=11|XSize=55.1mil|YSize=45.3mil|CornerRadius=0mil|HoleSize=0mil|Usage=FLASHONLY|Rotation=135.000|XOffset=0mil|YOffset=0mil|HoleType=Round|Shape=Rectangle|*
%AMROTATEDRECTD11*
4,1,4,0.0355,-0.0035,0.0035,-0.0355,-0.0355,0.0035,-0.0035,0.0355,0.0355,-0.0035,0.0*
%
%ADD11ROTATEDRECTD11*%

%ADD12R,0.0236X0.0197*%
%ADD13R,0.0197X0.0236*%
%ADD14R,0.0276X0.0354*%
G04:AMPARAMS|DCode=15|XSize=19.7mil|YSize=23.6mil|CornerRadius=0mil|HoleSize=0mil|Usage=FLASHONLY|Rotation=315.000|XOffset=0mil|YOffset=0mil|HoleType=Round|Shape=Rectangle|*
%AMROTATEDRECTD15*
4,1,4,-0.0153,-0.0014,0.0014,0.0153,0.0153,0.0014,-0.0014,-0.0153,-0.0153,-0.0014,0.0*
%
%ADD15ROTATEDRECTD15*%

G04:AMPARAMS|DCode=16|XSize=22mil|YSize=25.5mil|CornerRadius=0mil|HoleSize=0mil|Usage=FLASHONLY|Rotation=225.000|XOffset=0mil|YOffset=0mil|HoleType=Round|Shape=Rectangle|*
%AMROTATEDRECTD16*
4,1,4,-0.0012,0.0168,0.0168,-0.0012,0.0012,-0.0168,-0.0168,0.0012,-0.0012,0.0168,0.0*
%
%ADD16ROTATEDRECTD16*%

G04:AMPARAMS|DCode=17|XSize=19.7mil|YSize=23.6mil|CornerRadius=0mil|HoleSize=0mil|Usage=FLASHONLY|Rotation=45.000|XOffset=0mil|YOffset=0mil|HoleType=Round|Shape=Rectangle|*
%AMROTATEDRECTD17*
4,1,4,0.0014,-0.0153,-0.0153,0.0014,-0.0014,0.0153,0.0153,-0.0014,0.0014,-0.0153,0.0*
%
%ADD17ROTATEDRECTD17*%

G04:AMPARAMS|DCode=18|XSize=9.8mil|YSize=31.5mil|CornerRadius=0mil|HoleSize=0mil|Usage=FLASHONLY|Rotation=135.000|XOffset=0mil|YOffset=0mil|HoleType=Round|Shape=Round|*
%AMOVALD18*
21,1,0.0217,0.0098,0.0000,0.0000,225.0*
1,1,0.0098,0.0077,0.0077*
1,1,0.0098,-0.0077,-0.0077*
%
%ADD18OVALD18*%

G04:AMPARAMS|DCode=19|XSize=9.8mil|YSize=31.5mil|CornerRadius=0mil|HoleSize=0mil|Usage=FLASHONLY|Rotation=45.000|XOffset=0mil|YOffset=0mil|HoleType=Round|Shape=Round|*
%AMOVALD19*
21,1,0.0217,0.0098,0.0000,0.0000,135.0*
1,1,0.0098,0.0077,-0.0077*
1,1,0.0098,-0.0077,0.0077*
%
%ADD19OVALD19*%

G04:AMPARAMS|DCode=20|XSize=185mil|YSize=212.6mil|CornerRadius=0mil|HoleSize=0mil|Usage=FLASHONLY|Rotation=45.000|XOffset=0mil|YOffset=0mil|HoleType=Round|Shape=Rectangle|*
%AMROTATEDRECTD20*
4,1,4,0.0097,-0.1406,-0.1406,0.0097,-0.0097,0.1406,0.1406,-0.0097,0.0097,-0.1406,0.0*
%
%ADD20ROTATEDRECTD20*%

%ADD21R,0.0394X0.0217*%
%ADD22R,0.0315X0.0354*%
%ADD23R,0.0512X0.0217*%
%ADD24R,0.0276X0.0591*%
%ADD25R,0.0394X0.0315*%
%ADD26R,0.0136X0.0201*%
%ADD27R,0.0201X0.0136*%
G04:AMPARAMS|DCode=28|XSize=13.8mil|YSize=39.4mil|CornerRadius=0mil|HoleSize=0mil|Usage=FLASHONLY|Rotation=45.000|XOffset=0mil|YOffset=0mil|HoleType=Round|Shape=Rectangle|*
%AMROTATEDRECTD28*
4,1,4,0.0090,-0.0188,-0.0188,0.0090,-0.0090,0.0188,0.0188,-0.0090,0.0090,-0.0188,0.0*
%
%ADD28ROTATEDRECTD28*%

%ADD29O,0.0256X0.0098*%
%ADD30O,0.0098X0.0256*%
%ADD31R,0.0709X0.0709*%
%ADD32O,0.0866X0.0236*%
%ADD33R,0.1024X0.0591*%
%ADD34R,0.0157X0.0157*%
%ADD35C,0.0120*%
%ADD36C,0.0080*%
%ADD37C,0.0060*%
%ADD38C,0.0100*%
%ADD39C,0.1260*%
%ADD40C,0.0630*%
%ADD41C,0.0160*%
%ADD42C,0.0500*%
%ADD43C,0.0180*%
%ADD44C,0.0320*%
%ADD45C,0.0200*%
%ADD46C,0.0260*%
%ADD47C,0.0220*%
%ADD48R,0.0335X0.0157*%
%ADD49R,0.0157X0.0335*%
G04:AMPARAMS|DCode=50|XSize=35.4mil|YSize=31.5mil|CornerRadius=0mil|HoleSize=0mil|Usage=FLASHONLY|Rotation=135.000|XOffset=0mil|YOffset=0mil|HoleType=Round|Shape=Rectangle|*
%AMROTATEDRECTD50*
4,1,4,0.0237,-0.0014,0.0014,-0.0237,-0.0237,0.0014,-0.0014,0.0237,0.0237,-0.0014,0.0*
%
%ADD50ROTATEDRECTD50*%

%ADD51R,0.0220X0.0255*%
%ADD52O,0.0276X0.0098*%
%ADD53O,0.0098X0.0276*%
%ADD54R,0.0118X0.0193*%
%ADD55R,0.0118X0.0209*%
%ADD56R,0.0591X0.0236*%
G04:AMPARAMS|DCode=57|XSize=31.5mil|YSize=66.9mil|CornerRadius=0mil|HoleSize=0mil|Usage=FLASHONLY|Rotation=225.000|XOffset=0mil|YOffset=0mil|HoleType=Round|Shape=Rectangle|*
%AMROTATEDRECTD57*
4,1,4,-0.0125,0.0348,0.0348,-0.0125,0.0125,-0.0348,-0.0348,0.0125,-0.0125,0.0348,0.0*
%
%ADD57ROTATEDRECTD57*%

%ADD58R,0.0551X0.0630*%
%ADD59R,0.0630X0.0748*%
%ADD60R,0.0532X0.0157*%
G04:AMPARAMS|DCode=61|XSize=15.4mil|YSize=36.2mil|CornerRadius=0mil|HoleSize=0mil|Usage=FLASHONLY|Rotation=45.000|XOffset=0mil|YOffset=0mil|HoleType=Round|Shape=Rectangle|*
%AMROTATEDRECTD61*
4,1,4,0.0074,-0.0182,-0.0182,0.0074,-0.0074,0.0182,0.0182,-0.0074,0.0074,-0.0182,0.0*
%
%ADD61ROTATEDRECTD61*%

%ADD62C,0.0098*%
%ADD63C,0.0236*%
%ADD64C,0.0039*%
%ADD65C,0.0079*%
%ADD66C,0.0050*%
G04:AMPARAMS|DCode=67|XSize=14.8mil|YSize=17.7mil|CornerRadius=0mil|HoleSize=0mil|Usage=FLASHONLY|Rotation=45.000|XOffset=0mil|YOffset=0mil|HoleType=Round|Shape=Rectangle|*
%AMROTATEDRECTD67*
4,1,4,0.0010,-0.0115,-0.0115,0.0010,-0.0010,0.0115,0.0115,-0.0010,0.0010,-0.0115,0.0*
%
%ADD67ROTATEDRECTD67*%

%ADD68R,0.0551X0.0433*%
G04:AMPARAMS|DCode=69|XSize=29.6mil|YSize=49.3mil|CornerRadius=0mil|HoleSize=0mil|Usage=FLASHONLY|Rotation=225.000|XOffset=0mil|YOffset=0mil|HoleType=Round|Shape=Rectangle|*
%AMROTATEDRECTD69*
4,1,4,-0.0070,0.0279,0.0279,-0.0070,0.0070,-0.0279,-0.0279,0.0070,-0.0070,0.0279,0.0*
%
%ADD69ROTATEDRECTD69*%

G04:AMPARAMS|DCode=70|XSize=61.1mil|YSize=51.3mil|CornerRadius=0mil|HoleSize=0mil|Usage=FLASHONLY|Rotation=135.000|XOffset=0mil|YOffset=0mil|HoleType=Round|Shape=Rectangle|*
%AMROTATEDRECTD70*
4,1,4,0.0397,-0.0035,0.0035,-0.0397,-0.0397,0.0035,-0.0035,0.0397,0.0397,-0.0035,0.0*
%
%ADD70ROTATEDRECTD70*%

%ADD71R,0.0296X0.0257*%
%ADD72R,0.0257X0.0296*%
%ADD73R,0.0336X0.0414*%
G04:AMPARAMS|DCode=74|XSize=25.7mil|YSize=29.6mil|CornerRadius=0mil|HoleSize=0mil|Usage=FLASHONLY|Rotation=315.000|XOffset=0mil|YOffset=0mil|HoleType=Round|Shape=Rectangle|*
%AMROTATEDRECTD74*
4,1,4,-0.0196,-0.0014,0.0014,0.0196,0.0196,0.0014,-0.0014,-0.0196,-0.0196,-0.0014,0.0*
%
%ADD74ROTATEDRECTD74*%

G04:AMPARAMS|DCode=75|XSize=28mil|YSize=31.5mil|CornerRadius=0mil|HoleSize=0mil|Usage=FLASHONLY|Rotation=225.000|XOffset=0mil|YOffset=0mil|HoleType=Round|Shape=Rectangle|*
%AMROTATEDRECTD75*
4,1,4,-0.0012,0.0210,0.0210,-0.0012,0.0012,-0.0210,-0.0210,0.0012,-0.0012,0.0210,0.0*
%
%ADD75ROTATEDRECTD75*%

G04:AMPARAMS|DCode=76|XSize=25.7mil|YSize=29.6mil|CornerRadius=0mil|HoleSize=0mil|Usage=FLASHONLY|Rotation=45.000|XOffset=0mil|YOffset=0mil|HoleType=Round|Shape=Rectangle|*
%AMROTATEDRECTD76*
4,1,4,0.0014,-0.0196,-0.0196,0.0014,-0.0014,0.0196,0.0196,-0.0014,0.0014,-0.0196,0.0*
%
%ADD76ROTATEDRECTD76*%

G04:AMPARAMS|DCode=77|XSize=15.8mil|YSize=37.5mil|CornerRadius=0mil|HoleSize=0mil|Usage=FLASHONLY|Rotation=135.000|XOffset=0mil|YOffset=0mil|HoleType=Round|Shape=Round|*
%AMOVALD77*
21,1,0.0217,0.0158,0.0000,0.0000,225.0*
1,1,0.0158,0.0077,0.0077*
1,1,0.0158,-0.0077,-0.0077*
%
%ADD77OVALD77*%

G04:AMPARAMS|DCode=78|XSize=15.8mil|YSize=37.5mil|CornerRadius=0mil|HoleSize=0mil|Usage=FLASHONLY|Rotation=45.000|XOffset=0mil|YOffset=0mil|HoleType=Round|Shape=Round|*
%AMOVALD78*
21,1,0.0217,0.0158,0.0000,0.0000,135.0*
1,1,0.0158,0.0077,-0.0077*
1,1,0.0158,-0.0077,0.0077*
%
%ADD78OVALD78*%

G04:AMPARAMS|DCode=79|XSize=191mil|YSize=218.6mil|CornerRadius=0mil|HoleSize=0mil|Usage=FLASHONLY|Rotation=45.000|XOffset=0mil|YOffset=0mil|HoleType=Round|Shape=Rectangle|*
%AMROTATEDRECTD79*
4,1,4,0.0097,-0.1448,-0.1448,0.0097,-0.0097,0.1448,0.1448,-0.0097,0.0097,-0.1448,0.0*
%
%ADD79ROTATEDRECTD79*%

%ADD80R,0.0454X0.0277*%
%ADD81R,0.0375X0.0414*%
%ADD82R,0.0572X0.0277*%
%ADD83R,0.0336X0.0651*%
%ADD84R,0.0454X0.0375*%
%ADD85R,0.0215X0.0280*%
%ADD86R,0.0280X0.0215*%
G04:AMPARAMS|DCode=87|XSize=19.8mil|YSize=45.4mil|CornerRadius=0mil|HoleSize=0mil|Usage=FLASHONLY|Rotation=45.000|XOffset=0mil|YOffset=0mil|HoleType=Round|Shape=Rectangle|*
%AMROTATEDRECTD87*
4,1,4,0.0090,-0.0230,-0.0230,0.0090,-0.0090,0.0230,0.0230,-0.0090,0.0090,-0.0230,0.0*
%
%ADD87ROTATEDRECTD87*%

%ADD88O,0.0316X0.0158*%
%ADD89O,0.0158X0.0316*%
%ADD90R,0.0769X0.0769*%
%ADD91O,0.0926X0.0296*%
%ADD92R,0.1084X0.0651*%
%ADD93C,0.1320*%
%ADD94C,0.0060*%
%ADD95C,0.0690*%
%ADD96C,0.0600*%
%ADD97C,0.0120*%
%ADD98C,0.0020*%
D69*
X3985Y9195D02*
D03*
X4375Y9585D02*
D03*
D70*
X8379Y8066D02*
D03*
X7766Y8679D02*
D03*
X7321Y8234D02*
D03*
X7934Y7621D02*
D03*
D71*
X1613Y6420D02*
D03*
X2007D02*
D03*
X9083Y6280D02*
D03*
X9477D02*
D03*
X4813Y9680D02*
D03*
X5207D02*
D03*
X1493Y6010D02*
D03*
X1887D02*
D03*
X333Y4350D02*
D03*
X727D02*
D03*
X2453Y3550D02*
D03*
X2847D02*
D03*
X5133Y4420D02*
D03*
X5527Y4420D02*
D03*
X7273Y6230D02*
D03*
X7667D02*
D03*
D72*
X1960Y7667D02*
D03*
Y7273D02*
D03*
X8650Y2213D02*
D03*
Y2607D02*
D03*
D73*
X1005Y7440D02*
D03*
X1595D02*
D03*
X1015Y6830D02*
D03*
X1605D02*
D03*
D74*
X2551Y7131D02*
D03*
X2829Y7409D02*
D03*
X3501Y6109D02*
D03*
X3099Y6169D02*
D03*
X2821Y5891D02*
D03*
X2819Y6959D02*
D03*
X2541Y6681D02*
D03*
X2849Y6429D02*
D03*
X2571Y6151D02*
D03*
X8531Y7291D02*
D03*
X8809Y7569D02*
D03*
D75*
X2254Y8553D02*
D03*
X1907Y8206D02*
D03*
X2579Y7881D02*
D03*
D76*
X3769Y8831D02*
D03*
X3491Y9109D02*
D03*
X3779Y5831D02*
D03*
X7911Y6689D02*
D03*
X8189Y6411D02*
D03*
X8251Y7019D02*
D03*
X8529Y6741D02*
D03*
X5939Y9391D02*
D03*
X5661Y9669D02*
D03*
D77*
X3232Y6941D02*
D03*
X3371Y6802D02*
D03*
X3510Y6663D02*
D03*
X3649Y6524D02*
D03*
X3788Y6384D02*
D03*
X3928Y6245D02*
D03*
X4067Y6106D02*
D03*
X4206Y5967D02*
D03*
X4345Y5828D02*
D03*
X4484Y5688D02*
D03*
X4624Y5549D02*
D03*
X4763Y5410D02*
D03*
X4902Y5271D02*
D03*
X5041Y5132D02*
D03*
X7268Y7359D02*
D03*
X7129Y7498D02*
D03*
X6990Y7637D02*
D03*
X6851Y7776D02*
D03*
X6712Y7916D02*
D03*
X6572Y8055D02*
D03*
X6433Y8194D02*
D03*
X6294Y8333D02*
D03*
X6155Y8472D02*
D03*
X6016Y8612D02*
D03*
X5876Y8751D02*
D03*
X5737Y8890D02*
D03*
X5598Y9029D02*
D03*
X5459Y9168D02*
D03*
D78*
Y5132D02*
D03*
X5598Y5271D02*
D03*
X5737Y5410D02*
D03*
X5876Y5549D02*
D03*
X6016Y5688D02*
D03*
X6155Y5828D02*
D03*
X6294Y5967D02*
D03*
X6433Y6106D02*
D03*
X6572Y6245D02*
D03*
X6712Y6384D02*
D03*
X6851Y6524D02*
D03*
X6990Y6663D02*
D03*
X7129Y6802D02*
D03*
X7268Y6941D02*
D03*
X5041Y9168D02*
D03*
X4902Y9029D02*
D03*
X4763Y8890D02*
D03*
X4624Y8751D02*
D03*
X4484Y8612D02*
D03*
X4345Y8472D02*
D03*
X4206Y8333D02*
D03*
X4067Y8194D02*
D03*
X3928Y8055D02*
D03*
X3788Y7916D02*
D03*
X3649Y7776D02*
D03*
X3510Y7637D02*
D03*
X3371Y7498D02*
D03*
X3232Y7359D02*
D03*
D79*
X5250Y7150D02*
D03*
D80*
X8002Y2384D02*
D03*
Y1636D02*
D03*
X7018D02*
D03*
Y2010D02*
D03*
Y2384D02*
D03*
D81*
X7004Y1110D02*
D03*
X7556D02*
D03*
D82*
X2392Y3074D02*
D03*
Y2326D02*
D03*
X1408D02*
D03*
Y2700D02*
D03*
Y3074D02*
D03*
D83*
X5886Y1669D02*
D03*
X5295Y1669D02*
D03*
X4114Y1669D02*
D03*
D84*
X3563Y1413D02*
D03*
X6437D02*
D03*
Y547D02*
D03*
X3563D02*
D03*
D85*
X7647Y3068D02*
D03*
X7450D02*
D03*
X7253D02*
D03*
Y4032D02*
D03*
X7450D02*
D03*
X7647D02*
D03*
D86*
X6968Y3156D02*
D03*
Y3353D02*
D03*
Y3550D02*
D03*
Y3747D02*
D03*
Y3944D02*
D03*
X7932D02*
D03*
Y3747D02*
D03*
Y3550D02*
D03*
Y3353D02*
D03*
Y3156D02*
D03*
D87*
X6630Y9431D02*
D03*
X6449Y9251D02*
D03*
X6269Y9070D02*
D03*
X6770Y8569D02*
D03*
X6951Y8749D02*
D03*
X7132Y8930D02*
D03*
D88*
X710Y5325D02*
D03*
Y5128D02*
D03*
Y4932D02*
D03*
Y4735D02*
D03*
X1910D02*
D03*
Y4932D02*
D03*
Y5128D02*
D03*
Y5325D02*
D03*
D89*
X1015Y4430D02*
D03*
X1212D02*
D03*
X1408D02*
D03*
X1605D02*
D03*
Y5630D02*
D03*
X1408D02*
D03*
X1212D02*
D03*
X1015D02*
D03*
D90*
X1310Y5030D02*
D03*
D91*
X3935Y3910D02*
D03*
Y3410D02*
D03*
Y2910D02*
D03*
Y2410D02*
D03*
X5825Y3910D02*
D03*
Y3410D02*
D03*
Y2910D02*
D03*
Y2410D02*
D03*
D92*
X8872Y5164D02*
D03*
Y3137D02*
D03*
D93*
X3566Y4950D02*
D03*
X6834D02*
D03*
D94*
X5591Y980D02*
D03*
X4409Y980D02*
D03*
D95*
X800Y3750D02*
D03*
Y6250D02*
D03*
D96*
X3040Y1770D02*
D03*
Y950D02*
D03*
D97*
X4970Y1000D02*
D03*
X3970D02*
D03*
X1270Y3430D02*
D03*
D98*
X6902Y5942D02*
D03*
X6870Y9180D02*
D03*
M02*
