%FSLAX24Y24*%
%MOIN*%
G70*
G01*
G75*
G04 Layer_Color=16711935*
G04:AMPARAMS|DCode=10|XSize=23.6mil|YSize=43.3mil|CornerRadius=0mil|HoleSize=0mil|Usage=FLASHONLY|Rotation=225.000|XOffset=0mil|YOffset=0mil|HoleType=Round|Shape=Rectangle|*
%AMROTATEDRECTD10*
4,1,4,-0.0070,0.0237,0.0237,-0.0070,0.0070,-0.0237,-0.0237,0.0070,-0.0070,0.0237,0.0*
%
%ADD10ROTATEDRECTD10*%

G04:AMPARAMS|DCode=11|XSize=55.1mil|YSize=45.3mil|CornerRadius=0mil|HoleSize=0mil|Usage=FLASHONLY|Rotation=135.000|XOffset=0mil|YOffset=0mil|HoleType=Round|Shape=Rectangle|*
%AMROTATEDRECTD11*
4,1,4,0.0355,-0.0035,0.0035,-0.0355,-0.0355,0.0035,-0.0035,0.0355,0.0355,-0.0035,0.0*
%
%ADD11ROTATEDRECTD11*%

%ADD12R,0.0236X0.0197*%
%ADD13R,0.0197X0.0236*%
%ADD14R,0.0276X0.0354*%
G04:AMPARAMS|DCode=15|XSize=19.7mil|YSize=23.6mil|CornerRadius=0mil|HoleSize=0mil|Usage=FLASHONLY|Rotation=315.000|XOffset=0mil|YOffset=0mil|HoleType=Round|Shape=Rectangle|*
%AMROTATEDRECTD15*
4,1,4,-0.0153,-0.0014,0.0014,0.0153,0.0153,0.0014,-0.0014,-0.0153,-0.0153,-0.0014,0.0*
%
%ADD15ROTATEDRECTD15*%

G04:AMPARAMS|DCode=16|XSize=22mil|YSize=25.5mil|CornerRadius=0mil|HoleSize=0mil|Usage=FLASHONLY|Rotation=225.000|XOffset=0mil|YOffset=0mil|HoleType=Round|Shape=Rectangle|*
%AMROTATEDRECTD16*
4,1,4,-0.0012,0.0168,0.0168,-0.0012,0.0012,-0.0168,-0.0168,0.0012,-0.0012,0.0168,0.0*
%
%ADD16ROTATEDRECTD16*%

G04:AMPARAMS|DCode=17|XSize=19.7mil|YSize=23.6mil|CornerRadius=0mil|HoleSize=0mil|Usage=FLASHONLY|Rotation=45.000|XOffset=0mil|YOffset=0mil|HoleType=Round|Shape=Rectangle|*
%AMROTATEDRECTD17*
4,1,4,0.0014,-0.0153,-0.0153,0.0014,-0.0014,0.0153,0.0153,-0.0014,0.0014,-0.0153,0.0*
%
%ADD17ROTATEDRECTD17*%

G04:AMPARAMS|DCode=18|XSize=9.8mil|YSize=31.5mil|CornerRadius=0mil|HoleSize=0mil|Usage=FLASHONLY|Rotation=135.000|XOffset=0mil|YOffset=0mil|HoleType=Round|Shape=Round|*
%AMOVALD18*
21,1,0.0217,0.0098,0.0000,0.0000,225.0*
1,1,0.0098,0.0077,0.0077*
1,1,0.0098,-0.0077,-0.0077*
%
%ADD18OVALD18*%

G04:AMPARAMS|DCode=19|XSize=9.8mil|YSize=31.5mil|CornerRadius=0mil|HoleSize=0mil|Usage=FLASHONLY|Rotation=45.000|XOffset=0mil|YOffset=0mil|HoleType=Round|Shape=Round|*
%AMOVALD19*
21,1,0.0217,0.0098,0.0000,0.0000,135.0*
1,1,0.0098,0.0077,-0.0077*
1,1,0.0098,-0.0077,0.0077*
%
%ADD19OVALD19*%

G04:AMPARAMS|DCode=20|XSize=185mil|YSize=212.6mil|CornerRadius=0mil|HoleSize=0mil|Usage=FLASHONLY|Rotation=45.000|XOffset=0mil|YOffset=0mil|HoleType=Round|Shape=Rectangle|*
%AMROTATEDRECTD20*
4,1,4,0.0097,-0.1406,-0.1406,0.0097,-0.0097,0.1406,0.1406,-0.0097,0.0097,-0.1406,0.0*
%
%ADD20ROTATEDRECTD20*%

%ADD21R,0.0394X0.0217*%
%ADD22R,0.0315X0.0354*%
%ADD23R,0.0512X0.0217*%
%ADD24R,0.0276X0.0591*%
%ADD25R,0.0394X0.0315*%
%ADD26R,0.0136X0.0201*%
%ADD27R,0.0201X0.0136*%
G04:AMPARAMS|DCode=28|XSize=13.8mil|YSize=39.4mil|CornerRadius=0mil|HoleSize=0mil|Usage=FLASHONLY|Rotation=45.000|XOffset=0mil|YOffset=0mil|HoleType=Round|Shape=Rectangle|*
%AMROTATEDRECTD28*
4,1,4,0.0090,-0.0188,-0.0188,0.0090,-0.0090,0.0188,0.0188,-0.0090,0.0090,-0.0188,0.0*
%
%ADD28ROTATEDRECTD28*%

%ADD29O,0.0256X0.0098*%
%ADD30O,0.0098X0.0256*%
%ADD31R,0.0709X0.0709*%
%ADD32O,0.0866X0.0236*%
%ADD33R,0.1024X0.0591*%
%ADD34R,0.0157X0.0157*%
%ADD35C,0.0120*%
%ADD36C,0.0080*%
%ADD37C,0.0060*%
%ADD38C,0.0100*%
%ADD39C,0.1260*%
%ADD40C,0.0630*%
%ADD41C,0.0160*%
%ADD42C,0.0500*%
%ADD43C,0.0180*%
%ADD44C,0.0320*%
%ADD45C,0.0200*%
%ADD46C,0.0260*%
%ADD47C,0.0220*%
%ADD48R,0.0335X0.0157*%
%ADD49R,0.0157X0.0335*%
G04:AMPARAMS|DCode=50|XSize=35.4mil|YSize=31.5mil|CornerRadius=0mil|HoleSize=0mil|Usage=FLASHONLY|Rotation=135.000|XOffset=0mil|YOffset=0mil|HoleType=Round|Shape=Rectangle|*
%AMROTATEDRECTD50*
4,1,4,0.0237,-0.0014,0.0014,-0.0237,-0.0237,0.0014,-0.0014,0.0237,0.0237,-0.0014,0.0*
%
%ADD50ROTATEDRECTD50*%

%ADD51R,0.0220X0.0255*%
%ADD52O,0.0276X0.0098*%
%ADD53O,0.0098X0.0276*%
%ADD54R,0.0118X0.0193*%
%ADD55R,0.0118X0.0209*%
%ADD56R,0.0591X0.0236*%
G04:AMPARAMS|DCode=57|XSize=31.5mil|YSize=66.9mil|CornerRadius=0mil|HoleSize=0mil|Usage=FLASHONLY|Rotation=225.000|XOffset=0mil|YOffset=0mil|HoleType=Round|Shape=Rectangle|*
%AMROTATEDRECTD57*
4,1,4,-0.0125,0.0348,0.0348,-0.0125,0.0125,-0.0348,-0.0348,0.0125,-0.0125,0.0348,0.0*
%
%ADD57ROTATEDRECTD57*%

%ADD58R,0.0551X0.0630*%
%ADD59R,0.0630X0.0748*%
%ADD60R,0.0532X0.0157*%
G04:AMPARAMS|DCode=61|XSize=15.4mil|YSize=36.2mil|CornerRadius=0mil|HoleSize=0mil|Usage=FLASHONLY|Rotation=45.000|XOffset=0mil|YOffset=0mil|HoleType=Round|Shape=Rectangle|*
%AMROTATEDRECTD61*
4,1,4,0.0074,-0.0182,-0.0182,0.0074,-0.0074,0.0182,0.0182,-0.0074,0.0074,-0.0182,0.0*
%
%ADD61ROTATEDRECTD61*%

%ADD62C,0.0098*%
%ADD63C,0.0236*%
%ADD64C,0.0039*%
%ADD65C,0.0079*%
%ADD66C,0.0050*%
G04:AMPARAMS|DCode=67|XSize=14.8mil|YSize=17.7mil|CornerRadius=0mil|HoleSize=0mil|Usage=FLASHONLY|Rotation=45.000|XOffset=0mil|YOffset=0mil|HoleType=Round|Shape=Rectangle|*
%AMROTATEDRECTD67*
4,1,4,0.0010,-0.0115,-0.0115,0.0010,-0.0010,0.0115,0.0115,-0.0010,0.0010,-0.0115,0.0*
%
%ADD67ROTATEDRECTD67*%

%ADD68R,0.0551X0.0433*%
G04:AMPARAMS|DCode=69|XSize=29.6mil|YSize=49.3mil|CornerRadius=0mil|HoleSize=0mil|Usage=FLASHONLY|Rotation=225.000|XOffset=0mil|YOffset=0mil|HoleType=Round|Shape=Rectangle|*
%AMROTATEDRECTD69*
4,1,4,-0.0070,0.0279,0.0279,-0.0070,0.0070,-0.0279,-0.0279,0.0070,-0.0070,0.0279,0.0*
%
%ADD69ROTATEDRECTD69*%

G04:AMPARAMS|DCode=70|XSize=61.1mil|YSize=51.3mil|CornerRadius=0mil|HoleSize=0mil|Usage=FLASHONLY|Rotation=135.000|XOffset=0mil|YOffset=0mil|HoleType=Round|Shape=Rectangle|*
%AMROTATEDRECTD70*
4,1,4,0.0397,-0.0035,0.0035,-0.0397,-0.0397,0.0035,-0.0035,0.0397,0.0397,-0.0035,0.0*
%
%ADD70ROTATEDRECTD70*%

%ADD71R,0.0296X0.0257*%
%ADD72R,0.0257X0.0296*%
%ADD73R,0.0336X0.0414*%
G04:AMPARAMS|DCode=74|XSize=25.7mil|YSize=29.6mil|CornerRadius=0mil|HoleSize=0mil|Usage=FLASHONLY|Rotation=315.000|XOffset=0mil|YOffset=0mil|HoleType=Round|Shape=Rectangle|*
%AMROTATEDRECTD74*
4,1,4,-0.0196,-0.0014,0.0014,0.0196,0.0196,0.0014,-0.0014,-0.0196,-0.0196,-0.0014,0.0*
%
%ADD74ROTATEDRECTD74*%

G04:AMPARAMS|DCode=75|XSize=28mil|YSize=31.5mil|CornerRadius=0mil|HoleSize=0mil|Usage=FLASHONLY|Rotation=225.000|XOffset=0mil|YOffset=0mil|HoleType=Round|Shape=Rectangle|*
%AMROTATEDRECTD75*
4,1,4,-0.0012,0.0210,0.0210,-0.0012,0.0012,-0.0210,-0.0210,0.0012,-0.0012,0.0210,0.0*
%
%ADD75ROTATEDRECTD75*%

G04:AMPARAMS|DCode=76|XSize=25.7mil|YSize=29.6mil|CornerRadius=0mil|HoleSize=0mil|Usage=FLASHONLY|Rotation=45.000|XOffset=0mil|YOffset=0mil|HoleType=Round|Shape=Rectangle|*
%AMROTATEDRECTD76*
4,1,4,0.0014,-0.0196,-0.0196,0.0014,-0.0014,0.0196,0.0196,-0.0014,0.0014,-0.0196,0.0*
%
%ADD76ROTATEDRECTD76*%

G04:AMPARAMS|DCode=77|XSize=15.8mil|YSize=37.5mil|CornerRadius=0mil|HoleSize=0mil|Usage=FLASHONLY|Rotation=135.000|XOffset=0mil|YOffset=0mil|HoleType=Round|Shape=Round|*
%AMOVALD77*
21,1,0.0217,0.0158,0.0000,0.0000,225.0*
1,1,0.0158,0.0077,0.0077*
1,1,0.0158,-0.0077,-0.0077*
%
%ADD77OVALD77*%

G04:AMPARAMS|DCode=78|XSize=15.8mil|YSize=37.5mil|CornerRadius=0mil|HoleSize=0mil|Usage=FLASHONLY|Rotation=45.000|XOffset=0mil|YOffset=0mil|HoleType=Round|Shape=Round|*
%AMOVALD78*
21,1,0.0217,0.0158,0.0000,0.0000,135.0*
1,1,0.0158,0.0077,-0.0077*
1,1,0.0158,-0.0077,0.0077*
%
%ADD78OVALD78*%

G04:AMPARAMS|DCode=79|XSize=191mil|YSize=218.6mil|CornerRadius=0mil|HoleSize=0mil|Usage=FLASHONLY|Rotation=45.000|XOffset=0mil|YOffset=0mil|HoleType=Round|Shape=Rectangle|*
%AMROTATEDRECTD79*
4,1,4,0.0097,-0.1448,-0.1448,0.0097,-0.0097,0.1448,0.1448,-0.0097,0.0097,-0.1448,0.0*
%
%ADD79ROTATEDRECTD79*%

%ADD80R,0.0454X0.0277*%
%ADD81R,0.0375X0.0414*%
%ADD82R,0.0572X0.0277*%
%ADD83R,0.0336X0.0651*%
%ADD84R,0.0454X0.0375*%
%ADD85R,0.0215X0.0280*%
%ADD86R,0.0280X0.0215*%
G04:AMPARAMS|DCode=87|XSize=19.8mil|YSize=45.4mil|CornerRadius=0mil|HoleSize=0mil|Usage=FLASHONLY|Rotation=45.000|XOffset=0mil|YOffset=0mil|HoleType=Round|Shape=Rectangle|*
%AMROTATEDRECTD87*
4,1,4,0.0090,-0.0230,-0.0230,0.0090,-0.0090,0.0230,0.0230,-0.0090,0.0090,-0.0230,0.0*
%
%ADD87ROTATEDRECTD87*%

%ADD88O,0.0316X0.0158*%
%ADD89O,0.0158X0.0316*%
%ADD90R,0.0769X0.0769*%
%ADD91O,0.0926X0.0296*%
%ADD92R,0.1084X0.0651*%
%ADD93C,0.1320*%
%ADD94C,0.0060*%
%ADD95C,0.0690*%
%ADD96C,0.0600*%
%ADD97C,0.0120*%
%ADD98C,0.0020*%
%ADD99R,0.0395X0.0217*%
%ADD100R,0.0217X0.0395*%
G04:AMPARAMS|DCode=101|XSize=41.4mil|YSize=37.5mil|CornerRadius=0mil|HoleSize=0mil|Usage=FLASHONLY|Rotation=135.000|XOffset=0mil|YOffset=0mil|HoleType=Round|Shape=Rectangle|*
%AMROTATEDRECTD101*
4,1,4,0.0279,-0.0014,0.0014,-0.0279,-0.0279,0.0014,-0.0014,0.0279,0.0279,-0.0014,0.0*
%
%ADD101ROTATEDRECTD101*%

%ADD102R,0.0280X0.0315*%
%ADD103O,0.0336X0.0158*%
%ADD104O,0.0158X0.0336*%
%ADD105R,0.0178X0.0253*%
%ADD106R,0.0178X0.0269*%
%ADD107R,0.0651X0.0296*%
G04:AMPARAMS|DCode=108|XSize=37.5mil|YSize=72.9mil|CornerRadius=0mil|HoleSize=0mil|Usage=FLASHONLY|Rotation=225.000|XOffset=0mil|YOffset=0mil|HoleType=Round|Shape=Rectangle|*
%AMROTATEDRECTD108*
4,1,4,-0.0125,0.0390,0.0390,-0.0125,0.0125,-0.0390,-0.0390,0.0125,-0.0125,0.0390,0.0*
%
%ADD108ROTATEDRECTD108*%

%ADD109R,0.0630X0.0709*%
%ADD110R,0.0709X0.0827*%
%ADD111R,0.0610X0.0236*%
G04:AMPARAMS|DCode=112|XSize=21.4mil|YSize=42.2mil|CornerRadius=0mil|HoleSize=0mil|Usage=FLASHONLY|Rotation=45.000|XOffset=0mil|YOffset=0mil|HoleType=Round|Shape=Rectangle|*
%AMROTATEDRECTD112*
4,1,4,0.0074,-0.0225,-0.0225,0.0074,-0.0074,0.0225,0.0225,-0.0074,0.0074,-0.0225,0.0*
%
%ADD112ROTATEDRECTD112*%

%ADD113C,0.0060*%
D71*
X7757Y2770D02*
D03*
X7363D02*
D03*
X6247Y3590D02*
D03*
X5853D02*
D03*
X8663Y4810D02*
D03*
X9057D02*
D03*
X1583Y6830D02*
D03*
X1977D02*
D03*
X703Y6790D02*
D03*
X1097D02*
D03*
X7744Y4080D02*
D03*
X7350D02*
D03*
X6607Y3160D02*
D03*
X6213D02*
D03*
X9047Y4390D02*
D03*
X8653D02*
D03*
X9477Y6280D02*
D03*
X9083D02*
D03*
X7153Y1890D02*
D03*
X7547D02*
D03*
X6247Y3920D02*
D03*
X5853D02*
D03*
X4223Y600D02*
D03*
X4617D02*
D03*
X8953Y6730D02*
D03*
X9347D02*
D03*
X7423Y5730D02*
D03*
X7817D02*
D03*
X8997Y7560D02*
D03*
X8603D02*
D03*
X9187Y7180D02*
D03*
X8793D02*
D03*
D72*
X1300Y3097D02*
D03*
Y2703D02*
D03*
X8200Y5677D02*
D03*
Y5283D02*
D03*
X8090Y2747D02*
D03*
Y2353D02*
D03*
X8640Y2757D02*
D03*
Y2363D02*
D03*
X9110Y3037D02*
D03*
Y2643D02*
D03*
X9490Y4837D02*
D03*
Y4443D02*
D03*
X7790Y4817D02*
D03*
Y4423D02*
D03*
X8190Y4433D02*
D03*
Y4827D02*
D03*
X4960Y627D02*
D03*
Y233D02*
D03*
D73*
X1605Y7270D02*
D03*
X1015D02*
D03*
D74*
X5529Y9369D02*
D03*
X5251Y9091D02*
D03*
X2019Y8719D02*
D03*
X1741Y8441D02*
D03*
X7460Y8373D02*
D03*
X7182Y8094D02*
D03*
X1389Y7999D02*
D03*
X1111Y7721D02*
D03*
D76*
X8240Y8206D02*
D03*
X8518Y7927D02*
D03*
X7794Y7760D02*
D03*
X8073Y7482D02*
D03*
X2911Y6159D02*
D03*
X3189Y5881D02*
D03*
X3211Y6429D02*
D03*
X3489Y6151D02*
D03*
D81*
X5464Y1670D02*
D03*
X6016D02*
D03*
X7726Y2330D02*
D03*
X7174D02*
D03*
D82*
X7308Y6944D02*
D03*
Y6196D02*
D03*
X8292D02*
D03*
Y6570D02*
D03*
Y6944D02*
D03*
D93*
X3566Y4950D02*
D03*
X6834D02*
D03*
D94*
X5591Y980D02*
D03*
X4409Y980D02*
D03*
D95*
X800Y3750D02*
D03*
Y6250D02*
D03*
D96*
X3040Y1770D02*
D03*
Y950D02*
D03*
D97*
X4970Y1000D02*
D03*
X3970D02*
D03*
X1270Y3430D02*
D03*
D98*
X6902Y5942D02*
D03*
X6870Y9180D02*
D03*
D99*
X9404Y5304D02*
D03*
Y5816D02*
D03*
X8656D02*
D03*
Y5560D02*
D03*
Y5304D02*
D03*
X9264Y3464D02*
D03*
Y3976D02*
D03*
X8516D02*
D03*
Y3720D02*
D03*
Y3464D02*
D03*
X7804Y3174D02*
D03*
Y3686D02*
D03*
X7056D02*
D03*
Y3430D02*
D03*
Y3174D02*
D03*
D100*
X3486Y3124D02*
D03*
X2974D02*
D03*
Y2376D02*
D03*
X3230D02*
D03*
X3486D02*
D03*
D101*
X5815Y8415D02*
D03*
X6205Y8805D02*
D03*
X8015Y1535D02*
D03*
X7625Y1145D02*
D03*
D102*
X2230Y2357D02*
D03*
X2475Y3063D02*
D03*
X1985D02*
D03*
X4445Y2043D02*
D03*
X4935D02*
D03*
X4690Y1337D02*
D03*
D103*
X4945Y4315D02*
D03*
Y4512D02*
D03*
Y4708D02*
D03*
Y4905D02*
D03*
X5575D02*
D03*
Y4708D02*
D03*
Y4512D02*
D03*
Y4315D02*
D03*
D104*
X5260Y5004D02*
D03*
Y4216D02*
D03*
D105*
X3137Y3938D02*
D03*
X2940D02*
D03*
X2743D02*
D03*
Y3642D02*
D03*
X2940D02*
D03*
D106*
X3137Y3650D02*
D03*
D107*
X6924Y1534D02*
D03*
Y786D02*
D03*
X6176Y1160D02*
D03*
D108*
X1927Y7677D02*
D03*
X2873Y8623D02*
D03*
D109*
X1784Y3740D02*
D03*
Y6260D02*
D03*
D110*
X800Y4528D02*
D03*
Y5472D02*
D03*
D111*
X1853Y5000D02*
D03*
Y5256D02*
D03*
Y5512D02*
D03*
Y4744D02*
D03*
Y4488D02*
D03*
D112*
X3829Y9528D02*
D03*
X3551Y9249D02*
D03*
X3272Y8971D02*
D03*
X4748Y8609D02*
D03*
X4469Y8331D02*
D03*
X4191Y8052D02*
D03*
D113*
X4248Y7150D02*
D03*
X4582Y7484D02*
D03*
X4916Y7818D02*
D03*
X5250Y8152D02*
D03*
X4582Y6816D02*
D03*
X4916Y7150D02*
D03*
X5250Y7484D02*
D03*
X5584Y7818D02*
D03*
X4916Y6482D02*
D03*
X5250Y6816D02*
D03*
X5918Y7484D02*
D03*
X5250Y6148D02*
D03*
X5584Y6482D02*
D03*
X5918Y6816D02*
D03*
X6252Y7150D02*
D03*
X1310Y5030D02*
D03*
X5584Y7150D02*
D03*
M02*
