%FSLAX24Y24*%
%MOIN*%
G70*
G01*
G75*
G04 Layer_Color=65535*
G04:AMPARAMS|DCode=10|XSize=23.6mil|YSize=43.3mil|CornerRadius=0mil|HoleSize=0mil|Usage=FLASHONLY|Rotation=225.000|XOffset=0mil|YOffset=0mil|HoleType=Round|Shape=Rectangle|*
%AMROTATEDRECTD10*
4,1,4,-0.0070,0.0237,0.0237,-0.0070,0.0070,-0.0237,-0.0237,0.0070,-0.0070,0.0237,0.0*
%
%ADD10ROTATEDRECTD10*%

G04:AMPARAMS|DCode=11|XSize=55.1mil|YSize=45.3mil|CornerRadius=0mil|HoleSize=0mil|Usage=FLASHONLY|Rotation=135.000|XOffset=0mil|YOffset=0mil|HoleType=Round|Shape=Rectangle|*
%AMROTATEDRECTD11*
4,1,4,0.0355,-0.0035,0.0035,-0.0355,-0.0355,0.0035,-0.0035,0.0355,0.0355,-0.0035,0.0*
%
%ADD11ROTATEDRECTD11*%

%ADD12R,0.0236X0.0197*%
%ADD13R,0.0197X0.0236*%
%ADD14R,0.0276X0.0354*%
G04:AMPARAMS|DCode=15|XSize=19.7mil|YSize=23.6mil|CornerRadius=0mil|HoleSize=0mil|Usage=FLASHONLY|Rotation=315.000|XOffset=0mil|YOffset=0mil|HoleType=Round|Shape=Rectangle|*
%AMROTATEDRECTD15*
4,1,4,-0.0153,-0.0014,0.0014,0.0153,0.0153,0.0014,-0.0014,-0.0153,-0.0153,-0.0014,0.0*
%
%ADD15ROTATEDRECTD15*%

G04:AMPARAMS|DCode=16|XSize=22mil|YSize=25.5mil|CornerRadius=0mil|HoleSize=0mil|Usage=FLASHONLY|Rotation=225.000|XOffset=0mil|YOffset=0mil|HoleType=Round|Shape=Rectangle|*
%AMROTATEDRECTD16*
4,1,4,-0.0012,0.0168,0.0168,-0.0012,0.0012,-0.0168,-0.0168,0.0012,-0.0012,0.0168,0.0*
%
%ADD16ROTATEDRECTD16*%

G04:AMPARAMS|DCode=17|XSize=19.7mil|YSize=23.6mil|CornerRadius=0mil|HoleSize=0mil|Usage=FLASHONLY|Rotation=45.000|XOffset=0mil|YOffset=0mil|HoleType=Round|Shape=Rectangle|*
%AMROTATEDRECTD17*
4,1,4,0.0014,-0.0153,-0.0153,0.0014,-0.0014,0.0153,0.0153,-0.0014,0.0014,-0.0153,0.0*
%
%ADD17ROTATEDRECTD17*%

G04:AMPARAMS|DCode=18|XSize=9.8mil|YSize=31.5mil|CornerRadius=0mil|HoleSize=0mil|Usage=FLASHONLY|Rotation=135.000|XOffset=0mil|YOffset=0mil|HoleType=Round|Shape=Round|*
%AMOVALD18*
21,1,0.0217,0.0098,0.0000,0.0000,225.0*
1,1,0.0098,0.0077,0.0077*
1,1,0.0098,-0.0077,-0.0077*
%
%ADD18OVALD18*%

G04:AMPARAMS|DCode=19|XSize=9.8mil|YSize=31.5mil|CornerRadius=0mil|HoleSize=0mil|Usage=FLASHONLY|Rotation=45.000|XOffset=0mil|YOffset=0mil|HoleType=Round|Shape=Round|*
%AMOVALD19*
21,1,0.0217,0.0098,0.0000,0.0000,135.0*
1,1,0.0098,0.0077,-0.0077*
1,1,0.0098,-0.0077,0.0077*
%
%ADD19OVALD19*%

G04:AMPARAMS|DCode=20|XSize=185mil|YSize=212.6mil|CornerRadius=0mil|HoleSize=0mil|Usage=FLASHONLY|Rotation=45.000|XOffset=0mil|YOffset=0mil|HoleType=Round|Shape=Rectangle|*
%AMROTATEDRECTD20*
4,1,4,0.0097,-0.1406,-0.1406,0.0097,-0.0097,0.1406,0.1406,-0.0097,0.0097,-0.1406,0.0*
%
%ADD20ROTATEDRECTD20*%

%ADD21R,0.0394X0.0217*%
%ADD22R,0.0315X0.0354*%
%ADD23R,0.0512X0.0217*%
%ADD24R,0.0276X0.0591*%
%ADD25R,0.0394X0.0315*%
%ADD26R,0.0136X0.0201*%
%ADD27R,0.0201X0.0136*%
G04:AMPARAMS|DCode=28|XSize=13.8mil|YSize=39.4mil|CornerRadius=0mil|HoleSize=0mil|Usage=FLASHONLY|Rotation=45.000|XOffset=0mil|YOffset=0mil|HoleType=Round|Shape=Rectangle|*
%AMROTATEDRECTD28*
4,1,4,0.0090,-0.0188,-0.0188,0.0090,-0.0090,0.0188,0.0188,-0.0090,0.0090,-0.0188,0.0*
%
%ADD28ROTATEDRECTD28*%

%ADD29O,0.0256X0.0098*%
%ADD30O,0.0098X0.0256*%
%ADD31R,0.0709X0.0709*%
%ADD32O,0.0866X0.0236*%
%ADD33R,0.1024X0.0591*%
%ADD34R,0.0157X0.0157*%
%ADD35C,0.0120*%
%ADD36C,0.0080*%
%ADD37C,0.0060*%
%ADD38C,0.0100*%
%ADD39C,0.1260*%
%ADD40C,0.0630*%
%ADD41C,0.0160*%
%ADD42C,0.0500*%
%ADD43C,0.0180*%
%ADD44C,0.0320*%
%ADD45C,0.0200*%
%ADD46C,0.0260*%
%ADD47C,0.0220*%
%ADD48R,0.0335X0.0157*%
%ADD49R,0.0157X0.0335*%
G04:AMPARAMS|DCode=50|XSize=35.4mil|YSize=31.5mil|CornerRadius=0mil|HoleSize=0mil|Usage=FLASHONLY|Rotation=135.000|XOffset=0mil|YOffset=0mil|HoleType=Round|Shape=Rectangle|*
%AMROTATEDRECTD50*
4,1,4,0.0237,-0.0014,0.0014,-0.0237,-0.0237,0.0014,-0.0014,0.0237,0.0237,-0.0014,0.0*
%
%ADD50ROTATEDRECTD50*%

%ADD51R,0.0220X0.0255*%
%ADD52O,0.0276X0.0098*%
%ADD53O,0.0098X0.0276*%
%ADD54R,0.0118X0.0193*%
%ADD55R,0.0118X0.0209*%
%ADD56R,0.0591X0.0236*%
G04:AMPARAMS|DCode=57|XSize=31.5mil|YSize=66.9mil|CornerRadius=0mil|HoleSize=0mil|Usage=FLASHONLY|Rotation=225.000|XOffset=0mil|YOffset=0mil|HoleType=Round|Shape=Rectangle|*
%AMROTATEDRECTD57*
4,1,4,-0.0125,0.0348,0.0348,-0.0125,0.0125,-0.0348,-0.0348,0.0125,-0.0125,0.0348,0.0*
%
%ADD57ROTATEDRECTD57*%

%ADD58R,0.0551X0.0630*%
%ADD59R,0.0630X0.0748*%
%ADD60R,0.0532X0.0157*%
G04:AMPARAMS|DCode=61|XSize=15.4mil|YSize=36.2mil|CornerRadius=0mil|HoleSize=0mil|Usage=FLASHONLY|Rotation=45.000|XOffset=0mil|YOffset=0mil|HoleType=Round|Shape=Rectangle|*
%AMROTATEDRECTD61*
4,1,4,0.0074,-0.0182,-0.0182,0.0074,-0.0074,0.0182,0.0182,-0.0074,0.0074,-0.0182,0.0*
%
%ADD61ROTATEDRECTD61*%

%ADD62C,0.0098*%
%ADD63C,0.0236*%
%ADD64C,0.0039*%
%ADD65C,0.0079*%
%ADD66C,0.0050*%
G04:AMPARAMS|DCode=67|XSize=14.8mil|YSize=17.7mil|CornerRadius=0mil|HoleSize=0mil|Usage=FLASHONLY|Rotation=45.000|XOffset=0mil|YOffset=0mil|HoleType=Round|Shape=Rectangle|*
%AMROTATEDRECTD67*
4,1,4,0.0010,-0.0115,-0.0115,0.0010,-0.0010,0.0115,0.0115,-0.0010,0.0010,-0.0115,0.0*
%
%ADD67ROTATEDRECTD67*%

%ADD68R,0.0551X0.0433*%
D38*
X8769Y7767D02*
G03*
X8769Y7767I-49J0D01*
G01*
X2475Y8732D02*
G03*
X2475Y8732I-44J0D01*
G01*
X8277Y2959D02*
G03*
X8277Y2959I-39J0D01*
G01*
D62*
X3211Y7150D02*
G03*
X3211Y7150I-49J0D01*
G01*
X7087Y2709D02*
G03*
X7087Y2709I-49J0D01*
G01*
X1536Y3350D02*
G03*
X1536Y3350I-49J0D01*
G01*
X414Y5325D02*
G03*
X414Y5325I-49J0D01*
G01*
X3984Y4245D02*
G03*
X3984Y4245I-49J0D01*
G01*
D63*
X5037Y3751D02*
G03*
X5037Y3751I-118J0D01*
G01*
D64*
X3707Y9306D02*
X4264Y9863D01*
X4096Y8917D02*
X4653Y9474D01*
D65*
X1221Y7578D02*
X1379D01*
X1221Y7302D02*
X1379D01*
X1231Y6968D02*
X1389D01*
X1231Y6692D02*
X1389D01*
X2967Y7150D02*
X3127Y6990D01*
X2967Y7150D02*
X3127Y7310D01*
X5090Y9273D02*
X5250Y9433D01*
X5410Y9273D01*
X7373Y7310D02*
X7533Y7150D01*
X7373Y6990D02*
X7533Y7150D01*
X5250Y4867D02*
X5410Y5027D01*
X5090D02*
X5250Y4867D01*
X7628Y1419D02*
Y2601D01*
X7392Y1419D02*
Y2601D01*
Y1419D02*
X7628D01*
X7392Y2601D02*
X7628D01*
X2038Y2090D02*
Y3310D01*
X1762Y2090D02*
Y3310D01*
Y2090D02*
X2038D01*
X1762Y3310D02*
X2038D01*
X719Y5621D02*
Y5630D01*
X710Y5621D02*
X719D01*
X1901D02*
X1910Y5621D01*
X1901Y5621D02*
Y5630D01*
Y4439D02*
X1901Y4430D01*
X1901Y4439D02*
X1910Y4439D01*
X710Y4439D02*
X719D01*
X719Y4430D02*
X719Y4439D01*
X4526Y2176D02*
Y4144D01*
X5234Y2176D02*
Y4144D01*
X4526D02*
X5234D01*
X4526Y2176D02*
X5234D01*
D66*
X8080Y2920D02*
Y4180D01*
X6820D02*
X8080D01*
X6820Y2920D02*
Y4180D01*
Y2920D02*
X8080D01*
D67*
X6843Y9143D02*
D03*
D68*
X9265Y5794D02*
D03*
M02*
