%FSLAX24Y24*%
%MOIN*%
G70*
G01*
G75*
G04 Layer_Color=32896*
G04:AMPARAMS|DCode=10|XSize=23.6mil|YSize=43.3mil|CornerRadius=0mil|HoleSize=0mil|Usage=FLASHONLY|Rotation=225.000|XOffset=0mil|YOffset=0mil|HoleType=Round|Shape=Rectangle|*
%AMROTATEDRECTD10*
4,1,4,-0.0070,0.0237,0.0237,-0.0070,0.0070,-0.0237,-0.0237,0.0070,-0.0070,0.0237,0.0*
%
%ADD10ROTATEDRECTD10*%

G04:AMPARAMS|DCode=11|XSize=55.1mil|YSize=45.3mil|CornerRadius=0mil|HoleSize=0mil|Usage=FLASHONLY|Rotation=135.000|XOffset=0mil|YOffset=0mil|HoleType=Round|Shape=Rectangle|*
%AMROTATEDRECTD11*
4,1,4,0.0355,-0.0035,0.0035,-0.0355,-0.0355,0.0035,-0.0035,0.0355,0.0355,-0.0035,0.0*
%
%ADD11ROTATEDRECTD11*%

%ADD12R,0.0236X0.0197*%
%ADD13R,0.0197X0.0236*%
%ADD14R,0.0276X0.0354*%
G04:AMPARAMS|DCode=15|XSize=19.7mil|YSize=23.6mil|CornerRadius=0mil|HoleSize=0mil|Usage=FLASHONLY|Rotation=315.000|XOffset=0mil|YOffset=0mil|HoleType=Round|Shape=Rectangle|*
%AMROTATEDRECTD15*
4,1,4,-0.0153,-0.0014,0.0014,0.0153,0.0153,0.0014,-0.0014,-0.0153,-0.0153,-0.0014,0.0*
%
%ADD15ROTATEDRECTD15*%

G04:AMPARAMS|DCode=16|XSize=22mil|YSize=25.5mil|CornerRadius=0mil|HoleSize=0mil|Usage=FLASHONLY|Rotation=225.000|XOffset=0mil|YOffset=0mil|HoleType=Round|Shape=Rectangle|*
%AMROTATEDRECTD16*
4,1,4,-0.0012,0.0168,0.0168,-0.0012,0.0012,-0.0168,-0.0168,0.0012,-0.0012,0.0168,0.0*
%
%ADD16ROTATEDRECTD16*%

G04:AMPARAMS|DCode=17|XSize=19.7mil|YSize=23.6mil|CornerRadius=0mil|HoleSize=0mil|Usage=FLASHONLY|Rotation=45.000|XOffset=0mil|YOffset=0mil|HoleType=Round|Shape=Rectangle|*
%AMROTATEDRECTD17*
4,1,4,0.0014,-0.0153,-0.0153,0.0014,-0.0014,0.0153,0.0153,-0.0014,0.0014,-0.0153,0.0*
%
%ADD17ROTATEDRECTD17*%

G04:AMPARAMS|DCode=18|XSize=9.8mil|YSize=31.5mil|CornerRadius=0mil|HoleSize=0mil|Usage=FLASHONLY|Rotation=135.000|XOffset=0mil|YOffset=0mil|HoleType=Round|Shape=Round|*
%AMOVALD18*
21,1,0.0217,0.0098,0.0000,0.0000,225.0*
1,1,0.0098,0.0077,0.0077*
1,1,0.0098,-0.0077,-0.0077*
%
%ADD18OVALD18*%

G04:AMPARAMS|DCode=19|XSize=9.8mil|YSize=31.5mil|CornerRadius=0mil|HoleSize=0mil|Usage=FLASHONLY|Rotation=45.000|XOffset=0mil|YOffset=0mil|HoleType=Round|Shape=Round|*
%AMOVALD19*
21,1,0.0217,0.0098,0.0000,0.0000,135.0*
1,1,0.0098,0.0077,-0.0077*
1,1,0.0098,-0.0077,0.0077*
%
%ADD19OVALD19*%

G04:AMPARAMS|DCode=20|XSize=185mil|YSize=212.6mil|CornerRadius=0mil|HoleSize=0mil|Usage=FLASHONLY|Rotation=45.000|XOffset=0mil|YOffset=0mil|HoleType=Round|Shape=Rectangle|*
%AMROTATEDRECTD20*
4,1,4,0.0097,-0.1406,-0.1406,0.0097,-0.0097,0.1406,0.1406,-0.0097,0.0097,-0.1406,0.0*
%
%ADD20ROTATEDRECTD20*%

%ADD21R,0.0394X0.0217*%
%ADD22R,0.0315X0.0354*%
%ADD23R,0.0512X0.0217*%
%ADD24R,0.0276X0.0591*%
%ADD25R,0.0394X0.0315*%
%ADD26R,0.0136X0.0201*%
%ADD27R,0.0201X0.0136*%
G04:AMPARAMS|DCode=28|XSize=13.8mil|YSize=39.4mil|CornerRadius=0mil|HoleSize=0mil|Usage=FLASHONLY|Rotation=45.000|XOffset=0mil|YOffset=0mil|HoleType=Round|Shape=Rectangle|*
%AMROTATEDRECTD28*
4,1,4,0.0090,-0.0188,-0.0188,0.0090,-0.0090,0.0188,0.0188,-0.0090,0.0090,-0.0188,0.0*
%
%ADD28ROTATEDRECTD28*%

%ADD29O,0.0256X0.0098*%
%ADD30O,0.0098X0.0256*%
%ADD31R,0.0709X0.0709*%
%ADD32O,0.0866X0.0236*%
%ADD33R,0.1024X0.0591*%
%ADD34R,0.0157X0.0157*%
%ADD35C,0.0120*%
%ADD36C,0.0080*%
%ADD37C,0.0060*%
%ADD38C,0.0100*%
%ADD39C,0.1260*%
%ADD40C,0.0630*%
%ADD41C,0.0160*%
%ADD42C,0.0500*%
%ADD43C,0.0180*%
%ADD44C,0.0320*%
%ADD45C,0.0200*%
%ADD46C,0.0260*%
%ADD47C,0.0220*%
%ADD48R,0.0335X0.0157*%
%ADD49R,0.0157X0.0335*%
G04:AMPARAMS|DCode=50|XSize=35.4mil|YSize=31.5mil|CornerRadius=0mil|HoleSize=0mil|Usage=FLASHONLY|Rotation=135.000|XOffset=0mil|YOffset=0mil|HoleType=Round|Shape=Rectangle|*
%AMROTATEDRECTD50*
4,1,4,0.0237,-0.0014,0.0014,-0.0237,-0.0237,0.0014,-0.0014,0.0237,0.0237,-0.0014,0.0*
%
%ADD50ROTATEDRECTD50*%

%ADD51R,0.0220X0.0255*%
%ADD52O,0.0276X0.0098*%
%ADD53O,0.0098X0.0276*%
%ADD54R,0.0118X0.0193*%
%ADD55R,0.0118X0.0209*%
%ADD56R,0.0591X0.0236*%
G04:AMPARAMS|DCode=57|XSize=31.5mil|YSize=66.9mil|CornerRadius=0mil|HoleSize=0mil|Usage=FLASHONLY|Rotation=225.000|XOffset=0mil|YOffset=0mil|HoleType=Round|Shape=Rectangle|*
%AMROTATEDRECTD57*
4,1,4,-0.0125,0.0348,0.0348,-0.0125,0.0125,-0.0348,-0.0348,0.0125,-0.0125,0.0348,0.0*
%
%ADD57ROTATEDRECTD57*%

%ADD58R,0.0551X0.0630*%
%ADD59R,0.0630X0.0748*%
%ADD60R,0.0532X0.0157*%
G04:AMPARAMS|DCode=61|XSize=15.4mil|YSize=36.2mil|CornerRadius=0mil|HoleSize=0mil|Usage=FLASHONLY|Rotation=45.000|XOffset=0mil|YOffset=0mil|HoleType=Round|Shape=Rectangle|*
%AMROTATEDRECTD61*
4,1,4,0.0074,-0.0182,-0.0182,0.0074,-0.0074,0.0182,0.0182,-0.0074,0.0074,-0.0182,0.0*
%
%ADD61ROTATEDRECTD61*%

%ADD62C,0.0098*%
%ADD63C,0.0236*%
%ADD64C,0.0039*%
%ADD65C,0.0079*%
%ADD66C,0.0050*%
G04:AMPARAMS|DCode=67|XSize=14.8mil|YSize=17.7mil|CornerRadius=0mil|HoleSize=0mil|Usage=FLASHONLY|Rotation=45.000|XOffset=0mil|YOffset=0mil|HoleType=Round|Shape=Rectangle|*
%AMROTATEDRECTD67*
4,1,4,0.0010,-0.0115,-0.0115,0.0010,-0.0010,0.0115,0.0115,-0.0010,0.0010,-0.0115,0.0*
%
%ADD67ROTATEDRECTD67*%

%ADD68R,0.0551X0.0433*%
G04:AMPARAMS|DCode=69|XSize=29.6mil|YSize=49.3mil|CornerRadius=0mil|HoleSize=0mil|Usage=FLASHONLY|Rotation=225.000|XOffset=0mil|YOffset=0mil|HoleType=Round|Shape=Rectangle|*
%AMROTATEDRECTD69*
4,1,4,-0.0070,0.0279,0.0279,-0.0070,0.0070,-0.0279,-0.0279,0.0070,-0.0070,0.0279,0.0*
%
%ADD69ROTATEDRECTD69*%

G04:AMPARAMS|DCode=70|XSize=61.1mil|YSize=51.3mil|CornerRadius=0mil|HoleSize=0mil|Usage=FLASHONLY|Rotation=135.000|XOffset=0mil|YOffset=0mil|HoleType=Round|Shape=Rectangle|*
%AMROTATEDRECTD70*
4,1,4,0.0397,-0.0035,0.0035,-0.0397,-0.0397,0.0035,-0.0035,0.0397,0.0397,-0.0035,0.0*
%
%ADD70ROTATEDRECTD70*%

%ADD71R,0.0296X0.0257*%
%ADD72R,0.0257X0.0296*%
%ADD73R,0.0336X0.0414*%
G04:AMPARAMS|DCode=74|XSize=25.7mil|YSize=29.6mil|CornerRadius=0mil|HoleSize=0mil|Usage=FLASHONLY|Rotation=315.000|XOffset=0mil|YOffset=0mil|HoleType=Round|Shape=Rectangle|*
%AMROTATEDRECTD74*
4,1,4,-0.0196,-0.0014,0.0014,0.0196,0.0196,0.0014,-0.0014,-0.0196,-0.0196,-0.0014,0.0*
%
%ADD74ROTATEDRECTD74*%

G04:AMPARAMS|DCode=75|XSize=28mil|YSize=31.5mil|CornerRadius=0mil|HoleSize=0mil|Usage=FLASHONLY|Rotation=225.000|XOffset=0mil|YOffset=0mil|HoleType=Round|Shape=Rectangle|*
%AMROTATEDRECTD75*
4,1,4,-0.0012,0.0210,0.0210,-0.0012,0.0012,-0.0210,-0.0210,0.0012,-0.0012,0.0210,0.0*
%
%ADD75ROTATEDRECTD75*%

G04:AMPARAMS|DCode=76|XSize=25.7mil|YSize=29.6mil|CornerRadius=0mil|HoleSize=0mil|Usage=FLASHONLY|Rotation=45.000|XOffset=0mil|YOffset=0mil|HoleType=Round|Shape=Rectangle|*
%AMROTATEDRECTD76*
4,1,4,0.0014,-0.0196,-0.0196,0.0014,-0.0014,0.0196,0.0196,-0.0014,0.0014,-0.0196,0.0*
%
%ADD76ROTATEDRECTD76*%

G04:AMPARAMS|DCode=77|XSize=15.8mil|YSize=37.5mil|CornerRadius=0mil|HoleSize=0mil|Usage=FLASHONLY|Rotation=135.000|XOffset=0mil|YOffset=0mil|HoleType=Round|Shape=Round|*
%AMOVALD77*
21,1,0.0217,0.0158,0.0000,0.0000,225.0*
1,1,0.0158,0.0077,0.0077*
1,1,0.0158,-0.0077,-0.0077*
%
%ADD77OVALD77*%

G04:AMPARAMS|DCode=78|XSize=15.8mil|YSize=37.5mil|CornerRadius=0mil|HoleSize=0mil|Usage=FLASHONLY|Rotation=45.000|XOffset=0mil|YOffset=0mil|HoleType=Round|Shape=Round|*
%AMOVALD78*
21,1,0.0217,0.0158,0.0000,0.0000,135.0*
1,1,0.0158,0.0077,-0.0077*
1,1,0.0158,-0.0077,0.0077*
%
%ADD78OVALD78*%

G04:AMPARAMS|DCode=79|XSize=191mil|YSize=218.6mil|CornerRadius=0mil|HoleSize=0mil|Usage=FLASHONLY|Rotation=45.000|XOffset=0mil|YOffset=0mil|HoleType=Round|Shape=Rectangle|*
%AMROTATEDRECTD79*
4,1,4,0.0097,-0.1448,-0.1448,0.0097,-0.0097,0.1448,0.1448,-0.0097,0.0097,-0.1448,0.0*
%
%ADD79ROTATEDRECTD79*%

%ADD80R,0.0454X0.0277*%
%ADD81R,0.0375X0.0414*%
%ADD82R,0.0572X0.0277*%
%ADD83R,0.0336X0.0651*%
%ADD84R,0.0454X0.0375*%
%ADD85R,0.0215X0.0280*%
%ADD86R,0.0280X0.0215*%
G04:AMPARAMS|DCode=87|XSize=19.8mil|YSize=45.4mil|CornerRadius=0mil|HoleSize=0mil|Usage=FLASHONLY|Rotation=45.000|XOffset=0mil|YOffset=0mil|HoleType=Round|Shape=Rectangle|*
%AMROTATEDRECTD87*
4,1,4,0.0090,-0.0230,-0.0230,0.0090,-0.0090,0.0230,0.0230,-0.0090,0.0090,-0.0230,0.0*
%
%ADD87ROTATEDRECTD87*%

%ADD88O,0.0316X0.0158*%
%ADD89O,0.0158X0.0316*%
%ADD90R,0.0769X0.0769*%
%ADD91O,0.0926X0.0296*%
%ADD92R,0.1084X0.0651*%
%ADD93C,0.1320*%
%ADD94C,0.0060*%
%ADD95C,0.0690*%
%ADD96C,0.0600*%
%ADD97C,0.0120*%
%ADD98C,0.0020*%
%ADD99R,0.0395X0.0217*%
%ADD100R,0.0217X0.0395*%
G04:AMPARAMS|DCode=101|XSize=41.4mil|YSize=37.5mil|CornerRadius=0mil|HoleSize=0mil|Usage=FLASHONLY|Rotation=135.000|XOffset=0mil|YOffset=0mil|HoleType=Round|Shape=Rectangle|*
%AMROTATEDRECTD101*
4,1,4,0.0279,-0.0014,0.0014,-0.0279,-0.0279,0.0014,-0.0014,0.0279,0.0279,-0.0014,0.0*
%
%ADD101ROTATEDRECTD101*%

%ADD102R,0.0280X0.0315*%
%ADD103O,0.0336X0.0158*%
%ADD104O,0.0158X0.0336*%
%ADD105R,0.0178X0.0253*%
%ADD106R,0.0178X0.0269*%
%ADD107R,0.0651X0.0296*%
G04:AMPARAMS|DCode=108|XSize=37.5mil|YSize=72.9mil|CornerRadius=0mil|HoleSize=0mil|Usage=FLASHONLY|Rotation=225.000|XOffset=0mil|YOffset=0mil|HoleType=Round|Shape=Rectangle|*
%AMROTATEDRECTD108*
4,1,4,-0.0125,0.0390,0.0390,-0.0125,0.0125,-0.0390,-0.0390,0.0125,-0.0125,0.0390,0.0*
%
%ADD108ROTATEDRECTD108*%

%ADD109R,0.0630X0.0709*%
%ADD110R,0.0709X0.0827*%
%ADD111R,0.0610X0.0236*%
G04:AMPARAMS|DCode=112|XSize=21.4mil|YSize=42.2mil|CornerRadius=0mil|HoleSize=0mil|Usage=FLASHONLY|Rotation=45.000|XOffset=0mil|YOffset=0mil|HoleType=Round|Shape=Rectangle|*
%AMROTATEDRECTD112*
4,1,4,0.0074,-0.0225,-0.0225,0.0074,-0.0074,0.0225,0.0225,-0.0074,0.0074,-0.0225,0.0*
%
%ADD112ROTATEDRECTD112*%

%ADD113C,0.0060*%
%ADD114C,0.0047*%
%ADD115C,0.0040*%
D38*
X8794Y5048D02*
G03*
X8794Y5048I-39J0D01*
G01*
X8654Y3208D02*
G03*
X8654Y3208I-39J0D01*
G01*
X7194Y2918D02*
G03*
X7194Y2918I-39J0D01*
G01*
X3781Y2474D02*
G03*
X3781Y2474I-39J0D01*
G01*
X1777Y3064D02*
G03*
X1777Y3064I-44J0D01*
G01*
X4237Y2044D02*
G03*
X4237Y2044I-44J0D01*
G01*
X3344Y3544D02*
G03*
X3344Y3544I-10J0D01*
G01*
X8873Y5166D02*
X9187D01*
X8873Y5954D02*
X9187D01*
X8733Y3326D02*
X9047D01*
X8733Y4114D02*
X9047D01*
X7273Y3036D02*
X7587D01*
X7273Y3824D02*
X7587D01*
X3624Y2593D02*
Y2907D01*
X2836Y2593D02*
Y2907D01*
D62*
X4640Y4315D02*
G03*
X4640Y4315I-49J0D01*
G01*
X6973Y1869D02*
G03*
X6973Y1869I-49J0D01*
G01*
X8263Y7220D02*
G03*
X8263Y7220I-49J0D01*
G01*
D64*
X3194Y8681D02*
X3293Y8780D01*
X3463Y8947D02*
X3574Y9059D01*
X3741Y9226D02*
X3853Y9337D01*
X4020Y9507D02*
X4119Y9606D01*
X4727Y8800D02*
X4826Y8899D01*
X4448Y8519D02*
X4560Y8630D01*
X4170Y8240D02*
X4281Y8352D01*
X3901Y7974D02*
X4000Y8073D01*
X3194Y8681D02*
X3901Y7974D01*
X4119Y9606D02*
X4826Y8899D01*
D65*
X4925Y4010D02*
Y4197D01*
X5053D01*
X5467D02*
X5595D01*
Y4010D02*
Y4197D01*
Y5023D02*
Y5210D01*
X5467Y5023D02*
X5595D01*
X4925D02*
X5053D01*
X4925D02*
Y5210D01*
X1231Y7408D02*
X1389D01*
X1231Y7132D02*
X1389D01*
X6274Y1751D02*
X6471D01*
X6274Y1436D02*
Y1751D01*
Y569D02*
X6471D01*
X6274D02*
Y884D01*
X7662Y5960D02*
Y7180D01*
X7938Y5960D02*
Y7180D01*
X7662Y5960D02*
X7938D01*
X7662Y7180D02*
X7938D01*
D66*
X229Y3445D02*
Y6555D01*
X2217D01*
X229Y3445D02*
X2207D01*
X2217Y3455D02*
Y6555D01*
X2207Y3445D02*
X2217Y3455D01*
X2450Y910D02*
X2650D01*
X2660Y1780D02*
X2460D01*
X2560Y1880D02*
Y1680D01*
X2360Y1930D02*
Y1630D01*
X2210D01*
X2160Y1680D01*
Y1730D01*
X2210Y1780D01*
X2360D01*
X2210D01*
X2160Y1830D01*
Y1880D01*
X2210Y1930D01*
X2360D01*
X2060Y1630D02*
Y1830D01*
X1960Y1930D01*
X1860Y1830D01*
Y1630D01*
Y1780D01*
X2060D01*
X1760Y1930D02*
X1560D01*
X1660D01*
Y1630D01*
D114*
X2635Y3564D02*
Y4016D01*
X3245Y3564D02*
Y4016D01*
D115*
X3350Y7310D02*
X3237Y7197D01*
X3123D01*
Y7310D01*
X3237Y7423D01*
X3039Y7564D02*
X3095D01*
X3152Y7508D01*
Y7451D01*
X3039Y7338D01*
X2982D01*
X2926Y7394D01*
Y7451D01*
X2869Y7734D02*
X2926D01*
X2982Y7677D01*
Y7621D01*
X2869Y7508D01*
X2812D01*
X2756Y7564D01*
Y7621D01*
X4778Y7574D02*
X4835D01*
X4891Y7518D01*
Y7461D01*
X4778Y7348D01*
X4722D01*
X4665Y7405D01*
Y7461D01*
X4722Y7518D01*
X4778Y7461D01*
X4580Y7490D02*
X4750Y7659D01*
X4467Y7603D01*
X4637Y7772D01*
X4580Y7829D02*
X4411Y7659D01*
X4326Y7744D01*
Y7801D01*
X4439Y7914D01*
X4496D01*
X4580Y7829D01*
X3430Y7390D02*
X3600Y7560D01*
X3515Y7645D01*
X3459D01*
X3346Y7532D01*
Y7475D01*
X3430Y7390D01*
X3261Y7560D02*
X3204Y7617D01*
X3232Y7588D01*
X3402Y7758D01*
X3430Y7730D01*
X3374Y7786D01*
X3708Y7894D02*
X3765D01*
X3821Y7838D01*
Y7781D01*
X3708Y7668D01*
X3652D01*
X3595Y7725D01*
Y7781D01*
X3680Y7979D02*
X3510Y7810D01*
X3397Y7923D01*
X3510Y8149D02*
X3341Y7979D01*
X3397Y8036D01*
Y8262D01*
Y8092D01*
X3228D01*
X5130Y8040D02*
X5300Y8210D01*
X5187D01*
Y8323D01*
X5017Y8153D01*
X4989Y8464D02*
X5045D01*
X5102Y8408D01*
Y8351D01*
X5073Y8323D01*
X5017D01*
X4960Y8379D01*
X4904D01*
X4876Y8351D01*
Y8294D01*
X4932Y8238D01*
X4989D01*
X4850Y7780D02*
X5020Y7950D01*
X4935Y8035D01*
X4879D01*
X4766Y7922D01*
Y7865D01*
X4850Y7780D01*
X4596Y8035D02*
X4652Y7978D01*
X4709D01*
X4822Y8091D01*
Y8148D01*
X4766Y8204D01*
X4709D01*
X4596Y8091D01*
Y8035D01*
M02*
