%FSLAX24Y24*%
%MOIN*%
G70*
G01*
G75*
G04 Layer_Color=32896*
%ADD10R,0.0354X0.0315*%
%ADD11R,0.0315X0.0354*%
%ADD12R,0.0276X0.0354*%
%ADD13R,0.0319X0.0661*%
%ADD14R,0.0394X0.0315*%
%ADD15R,0.0276X0.0591*%
%ADD16R,0.0600X0.0300*%
%ADD17R,0.0300X0.0598*%
%ADD18R,0.0598X0.0300*%
%ADD19R,0.0217X0.0394*%
%ADD20R,0.0157X0.0157*%
%ADD21C,0.0150*%
%ADD22C,0.0120*%
%ADD23C,0.0100*%
%ADD24C,0.0181*%
%ADD25C,0.0630*%
%ADD26C,0.0661*%
%ADD27C,0.0591*%
%ADD28C,0.1378*%
%ADD29C,0.0320*%
%ADD30C,0.0400*%
%ADD31C,0.0500*%
%ADD32R,0.0354X0.0276*%
%ADD33R,0.0532X0.0157*%
%ADD34R,0.0630X0.0748*%
%ADD35R,0.0551X0.0630*%
%ADD36R,0.0236X0.0591*%
%ADD37R,0.0591X0.0236*%
%ADD38O,0.0118X0.0650*%
%ADD39R,0.0335X0.0157*%
%ADD40R,0.0512X0.0217*%
%ADD41R,0.0209X0.0118*%
%ADD42R,0.0193X0.0118*%
%ADD43R,0.0201X0.0136*%
%ADD44R,0.0136X0.0201*%
%ADD45R,0.0315X0.0197*%
%ADD46C,0.0200*%
%ADD47C,0.0098*%
%ADD48C,0.0050*%
%ADD49C,0.0079*%
%ADD50C,0.0039*%
%ADD51C,0.0080*%
%ADD52R,0.0414X0.0375*%
%ADD53R,0.0375X0.0414*%
%ADD54R,0.0336X0.0414*%
%ADD55R,0.0379X0.0721*%
%ADD56R,0.0454X0.0375*%
%ADD57R,0.0336X0.0651*%
%ADD58R,0.0660X0.0360*%
%ADD59R,0.0360X0.0658*%
%ADD60R,0.0658X0.0360*%
%ADD61R,0.0277X0.0454*%
%ADD62C,0.0690*%
%ADD63C,0.0721*%
%ADD64C,0.0651*%
%ADD65C,0.0060*%
%ADD66C,0.1438*%
%ADD67C,0.0600*%
%ADD68R,0.0414X0.0336*%
%ADD69R,0.0610X0.0236*%
%ADD70R,0.0709X0.0827*%
%ADD71R,0.0630X0.0709*%
%ADD72R,0.0296X0.0651*%
%ADD73R,0.0651X0.0296*%
%ADD74O,0.0178X0.0710*%
%ADD75R,0.0395X0.0217*%
%ADD76R,0.0572X0.0277*%
%ADD77R,0.0269X0.0178*%
%ADD78R,0.0253X0.0178*%
%ADD79R,0.0280X0.0215*%
%ADD80R,0.0215X0.0280*%
%ADD81R,0.0375X0.0257*%
%ADD82C,0.0236*%
%ADD83C,0.0047*%
G36*
X10350Y7800D02*
X10100Y8050D01*
X10600D01*
X10350Y7800D01*
D02*
G37*
D23*
X7914Y1738D02*
G03*
X7914Y1738I-39J0D01*
G01*
X10164D02*
G03*
X10164Y1738I-39J0D01*
G01*
X12414D02*
G03*
X12414Y1738I-39J0D01*
G01*
X8156Y5594D02*
G03*
X8156Y5594I-10J0D01*
G01*
X9465Y5712D02*
G03*
X9465Y5712I-39J0D01*
G01*
X8399Y9087D02*
G03*
X8399Y9087I-39J0D01*
G01*
X11708Y10162D02*
G03*
X11708Y10162I-14J0D01*
G01*
X7993Y1856D02*
X8307D01*
X7993Y2644D02*
X8307D01*
X10243Y1856D02*
X10557D01*
X10243Y2644D02*
X10557D01*
X12493Y1856D02*
X12807D01*
X12493Y2644D02*
X12807D01*
X8993Y5594D02*
X9307D01*
X8993Y4806D02*
X9307D01*
D47*
X6141Y6924D02*
G03*
X6141Y6924I-49J0D01*
G01*
X6223Y3209D02*
G03*
X6223Y3209I-49J0D01*
G01*
X3680Y6857D02*
G03*
X3680Y6857I-49J0D01*
G01*
X12863Y6150D02*
G03*
X12863Y6150I-49J0D01*
G01*
D48*
X10350Y8050D02*
Y8150D01*
Y7650D02*
Y7800D01*
X10100D02*
X10600D01*
X1957Y295D02*
X1967Y305D01*
Y3405D01*
X-21Y295D02*
X1957D01*
X-21Y3405D02*
X1967D01*
X-21Y295D02*
Y3405D01*
X8320Y8930D02*
X9580D01*
Y7670D02*
Y8930D01*
X8320Y7670D02*
X9580D01*
X8320D02*
Y8930D01*
X11055Y10118D02*
X11596D01*
X11055Y8681D02*
X11645D01*
X3150Y6300D02*
X3400D01*
X3450Y6250D01*
Y6150D01*
X3400Y6100D01*
X3150D01*
X3450Y5850D02*
X3150D01*
X3300Y6000D01*
Y5800D01*
X12100Y5650D02*
Y5400D01*
X12050Y5350D01*
X11950D01*
X11900Y5400D01*
Y5650D01*
X11800Y5600D02*
X11750Y5650D01*
X11650D01*
X11600Y5600D01*
Y5550D01*
X11650Y5500D01*
X11600Y5450D01*
Y5400D01*
X11650Y5350D01*
X11750D01*
X11800Y5400D01*
Y5450D01*
X11750Y5500D01*
X11800Y5550D01*
Y5600D01*
X11750Y5500D02*
X11650D01*
X14850Y4300D02*
Y4600D01*
X14700D01*
X14650Y4550D01*
Y4450D01*
X14700Y4400D01*
X14850D01*
X14750D02*
X14650Y4300D01*
X14350D02*
X14550D01*
X14350Y4500D01*
Y4550D01*
X14400Y4600D01*
X14500D01*
X14550Y4550D01*
X14050Y4300D02*
X14250D01*
X14050Y4500D01*
Y4550D01*
X14100Y4600D01*
X14200D01*
X14250Y4550D01*
X14750Y6700D02*
Y7000D01*
X14600D01*
X14550Y6950D01*
Y6850D01*
X14600Y6800D01*
X14750D01*
X14650D02*
X14550Y6700D01*
X14450D02*
X14350D01*
X14400D01*
Y7000D01*
X14450Y6950D01*
X14000Y7000D02*
X14200D01*
Y6850D01*
X14100Y6900D01*
X14050D01*
X14000Y6850D01*
Y6750D01*
X14050Y6700D01*
X14150D01*
X14200Y6750D01*
X14800Y5450D02*
Y5750D01*
X14650D01*
X14600Y5700D01*
Y5600D01*
X14650Y5550D01*
X14800D01*
X14700D02*
X14600Y5450D01*
X14500D02*
X14400D01*
X14450D01*
Y5750D01*
X14500Y5700D01*
X14050Y5450D02*
X14250D01*
X14050Y5650D01*
Y5700D01*
X14100Y5750D01*
X14200D01*
X14250Y5700D01*
X13250Y6650D02*
X13300Y6700D01*
X13400D01*
X13450Y6650D01*
Y6450D01*
X13400Y6400D01*
X13300D01*
X13250Y6450D01*
X13150Y6400D02*
X13050D01*
X13100D01*
Y6700D01*
X13150Y6650D01*
X12900Y6450D02*
X12850Y6400D01*
X12750D01*
X12700Y6450D01*
Y6650D01*
X12750Y6700D01*
X12850D01*
X12900Y6650D01*
Y6600D01*
X12850Y6550D01*
X12700D01*
X11000Y5750D02*
X11050Y5800D01*
X11150D01*
X11200Y5750D01*
Y5550D01*
X11150Y5500D01*
X11050D01*
X11000Y5550D01*
X10900Y5500D02*
X10800D01*
X10850D01*
Y5800D01*
X10900Y5750D01*
X10650D02*
X10600Y5800D01*
X10500D01*
X10450Y5750D01*
Y5700D01*
X10500Y5650D01*
X10450Y5600D01*
Y5550D01*
X10500Y5500D01*
X10600D01*
X10650Y5550D01*
Y5600D01*
X10600Y5650D01*
X10650Y5700D01*
Y5750D01*
X10600Y5650D02*
X10500D01*
X4450Y400D02*
Y700D01*
X4300D01*
X4250Y650D01*
Y550D01*
X4300Y500D01*
X4450D01*
X4350D02*
X4250Y400D01*
X3950D02*
X4150D01*
X3950Y600D01*
Y650D01*
X4000Y700D01*
X4100D01*
X4150Y650D01*
X3850Y400D02*
X3750D01*
X3800D01*
Y700D01*
X3850Y650D01*
X6700Y8150D02*
Y8450D01*
X6550D01*
X6500Y8400D01*
Y8300D01*
X6550Y8250D01*
X6700D01*
X6600D02*
X6500Y8150D01*
X6200D02*
X6400D01*
X6200Y8350D01*
Y8400D01*
X6250Y8450D01*
X6350D01*
X6400Y8400D01*
X6100D02*
X6050Y8450D01*
X5950D01*
X5900Y8400D01*
Y8200D01*
X5950Y8150D01*
X6050D01*
X6100Y8200D01*
Y8400D01*
X5550Y8150D02*
Y8450D01*
X5400D01*
X5350Y8400D01*
Y8300D01*
X5400Y8250D01*
X5550D01*
X5450D02*
X5350Y8150D01*
X5250D02*
X5150D01*
X5200D01*
Y8450D01*
X5250Y8400D01*
X5000Y8200D02*
X4950Y8150D01*
X4850D01*
X4800Y8200D01*
Y8400D01*
X4850Y8450D01*
X4950D01*
X5000Y8400D01*
Y8350D01*
X4950Y8300D01*
X4800D01*
X2300Y3400D02*
X2400D01*
X2350D01*
Y3150D01*
X2400Y3100D01*
X2450D01*
X2500Y3150D01*
X2200Y3100D02*
X2100D01*
X2150D01*
Y3400D01*
X2200Y3350D01*
X11550Y10550D02*
Y10500D01*
X11450Y10400D01*
X11350Y10500D01*
Y10550D01*
X11450Y10400D02*
Y10250D01*
X11250D02*
X11150D01*
X11200D01*
Y10550D01*
X11250Y10500D01*
X9250Y6050D02*
Y5800D01*
X9200Y5750D01*
X9100D01*
X9050Y5800D01*
Y6050D01*
X8950Y5750D02*
X8850D01*
X8900D01*
Y6050D01*
X8950Y6000D01*
X8700D02*
X8650Y6050D01*
X8550D01*
X8500Y6000D01*
Y5800D01*
X8550Y5750D01*
X8650D01*
X8700Y5800D01*
Y6000D01*
X7500Y5300D02*
Y5050D01*
X7450Y5000D01*
X7350D01*
X7300Y5050D01*
Y5300D01*
X7200Y5050D02*
X7150Y5000D01*
X7050D01*
X7000Y5050D01*
Y5250D01*
X7050Y5300D01*
X7150D01*
X7200Y5250D01*
Y5200D01*
X7150Y5150D01*
X7000D01*
X13800Y2700D02*
Y2450D01*
X13750Y2400D01*
X13650D01*
X13600Y2450D01*
Y2700D01*
X13500D02*
X13300D01*
Y2650D01*
X13500Y2450D01*
Y2400D01*
X10600Y1100D02*
Y850D01*
X10550Y800D01*
X10450D01*
X10400Y850D01*
Y1100D01*
X10100D02*
X10200Y1050D01*
X10300Y950D01*
Y850D01*
X10250Y800D01*
X10150D01*
X10100Y850D01*
Y900D01*
X10150Y950D01*
X10300D01*
X8400Y1150D02*
Y900D01*
X8350Y850D01*
X8250D01*
X8200Y900D01*
Y1150D01*
X7900D02*
X8100D01*
Y1000D01*
X8000Y1050D01*
X7950D01*
X7900Y1000D01*
Y900D01*
X7950Y850D01*
X8050D01*
X8100Y900D01*
X5350Y2150D02*
Y1900D01*
X5300Y1850D01*
X5200D01*
X5150Y1900D01*
Y2150D01*
X4850Y1850D02*
X5050D01*
X4850Y2050D01*
Y2100D01*
X4900Y2150D01*
X5000D01*
X5050Y2100D01*
X9750Y7000D02*
X9450D01*
Y6850D01*
X9500Y6800D01*
X9600D01*
X9650Y6850D01*
Y7000D01*
Y6900D02*
X9750Y6800D01*
Y6700D02*
Y6600D01*
Y6650D01*
X9450D01*
X9500Y6700D01*
X9750Y6300D02*
X9450D01*
X9600Y6450D01*
Y6250D01*
X12650Y7600D02*
Y7900D01*
X12500D01*
X12450Y7850D01*
Y7750D01*
X12500Y7700D01*
X12650D01*
X12550D02*
X12450Y7600D01*
X12350D02*
X12250D01*
X12300D01*
Y7900D01*
X12350Y7850D01*
X12100D02*
X12050Y7900D01*
X11950D01*
X11900Y7850D01*
Y7800D01*
X11950Y7750D01*
X12000D01*
X11950D01*
X11900Y7700D01*
Y7650D01*
X11950Y7600D01*
X12050D01*
X12100Y7650D01*
X12650Y8550D02*
Y8850D01*
X12500D01*
X12450Y8800D01*
Y8700D01*
X12500Y8650D01*
X12650D01*
X12550D02*
X12450Y8550D01*
X12350D02*
X12250D01*
X12300D01*
Y8850D01*
X12350Y8800D01*
X12100Y8550D02*
X12000D01*
X12050D01*
Y8850D01*
X12100Y8800D01*
X11300Y4650D02*
X11000D01*
Y4500D01*
X11050Y4450D01*
X11150D01*
X11200Y4500D01*
Y4650D01*
Y4550D02*
X11300Y4450D01*
Y4350D02*
Y4250D01*
Y4300D01*
X11000D01*
X11050Y4350D01*
Y4100D02*
X11000Y4050D01*
Y3950D01*
X11050Y3900D01*
X11250D01*
X11300Y3950D01*
Y4050D01*
X11250Y4100D01*
X11050D01*
X12900Y3500D02*
Y3800D01*
X12750D01*
X12700Y3750D01*
Y3650D01*
X12750Y3600D01*
X12900D01*
X12800D02*
X12700Y3500D01*
X12600Y3550D02*
X12550Y3500D01*
X12450D01*
X12400Y3550D01*
Y3750D01*
X12450Y3800D01*
X12550D01*
X12600Y3750D01*
Y3700D01*
X12550Y3650D01*
X12400D01*
X9050Y4400D02*
X8750D01*
Y4250D01*
X8800Y4200D01*
X8900D01*
X8950Y4250D01*
Y4400D01*
Y4300D02*
X9050Y4200D01*
X8800Y4100D02*
X8750Y4050D01*
Y3950D01*
X8800Y3900D01*
X8850D01*
X8900Y3950D01*
X8950Y3900D01*
X9000D01*
X9050Y3950D01*
Y4050D01*
X9000Y4100D01*
X8950D01*
X8900Y4050D01*
X8850Y4100D01*
X8800D01*
X8900Y4050D02*
Y3950D01*
X7350Y4550D02*
Y4850D01*
X7200D01*
X7150Y4800D01*
Y4700D01*
X7200Y4650D01*
X7350D01*
X7250D02*
X7150Y4550D01*
X7050Y4850D02*
X6850D01*
Y4800D01*
X7050Y4600D01*
Y4550D01*
X10650Y3500D02*
Y3800D01*
X10500D01*
X10450Y3750D01*
Y3650D01*
X10500Y3600D01*
X10650D01*
X10550D02*
X10450Y3500D01*
X10150Y3800D02*
X10250Y3750D01*
X10350Y3650D01*
Y3550D01*
X10300Y3500D01*
X10200D01*
X10150Y3550D01*
Y3600D01*
X10200Y3650D01*
X10350D01*
X8550Y3500D02*
Y3800D01*
X8400D01*
X8350Y3750D01*
Y3650D01*
X8400Y3600D01*
X8550D01*
X8450D02*
X8350Y3500D01*
X8050Y3800D02*
X8250D01*
Y3650D01*
X8150Y3700D01*
X8100D01*
X8050Y3650D01*
Y3550D01*
X8100Y3500D01*
X8200D01*
X8250Y3550D01*
X6100Y9850D02*
Y10150D01*
X5950D01*
X5900Y10100D01*
Y10000D01*
X5950Y9950D01*
X6100D01*
X6000D02*
X5900Y9850D01*
X5650D02*
Y10150D01*
X5800Y10000D01*
X5600D01*
X8100Y9800D02*
Y10100D01*
X7950D01*
X7900Y10050D01*
Y9950D01*
X7950Y9900D01*
X8100D01*
X8000D02*
X7900Y9800D01*
X7800Y10050D02*
X7750Y10100D01*
X7650D01*
X7600Y10050D01*
Y10000D01*
X7650Y9950D01*
X7700D01*
X7650D01*
X7600Y9900D01*
Y9850D01*
X7650Y9800D01*
X7750D01*
X7800Y9850D01*
X5800Y7200D02*
Y7400D01*
X5850Y7450D01*
X5950D01*
X6000Y7400D01*
Y7200D01*
X5950Y7150D01*
X5850D01*
X5900Y7250D02*
X5800Y7150D01*
X5850D02*
X5800Y7200D01*
X5700Y7150D02*
X5600D01*
X5650D01*
Y7450D01*
X5700Y7400D01*
X12850Y4700D02*
X12900Y4750D01*
X13000D01*
X13050Y4700D01*
Y4500D01*
X13000Y4450D01*
X12900D01*
X12850Y4500D01*
X12750Y4450D02*
X12650D01*
X12700D01*
Y4750D01*
X12750Y4700D01*
X12350Y4450D02*
Y4750D01*
X12500Y4600D01*
X12300D01*
X10250Y4700D02*
X10300Y4750D01*
X10400D01*
X10450Y4700D01*
Y4500D01*
X10400Y4450D01*
X10300D01*
X10250Y4500D01*
X10150Y4700D02*
X10100Y4750D01*
X10000D01*
X9950Y4700D01*
Y4650D01*
X10000Y4600D01*
X9950Y4550D01*
Y4500D01*
X10000Y4450D01*
X10100D01*
X10150Y4500D01*
Y4550D01*
X10100Y4600D01*
X10150Y4650D01*
Y4700D01*
X10100Y4600D02*
X10000D01*
X8350Y4650D02*
X8400Y4700D01*
X8500D01*
X8550Y4650D01*
Y4450D01*
X8500Y4400D01*
X8400D01*
X8350Y4450D01*
X8250Y4700D02*
X8050D01*
Y4650D01*
X8250Y4450D01*
Y4400D01*
X9950Y6800D02*
X9900Y6850D01*
Y6950D01*
X9950Y7000D01*
X10150D01*
X10200Y6950D01*
Y6850D01*
X10150Y6800D01*
X10200Y6700D02*
Y6600D01*
Y6650D01*
X9900D01*
X9950Y6700D01*
X9900Y6450D02*
Y6250D01*
X9950D01*
X10150Y6450D01*
X10200D01*
X12750Y1000D02*
X12800Y1050D01*
X12900D01*
X12950Y1000D01*
Y800D01*
X12900Y750D01*
X12800D01*
X12750Y800D01*
X12650Y750D02*
X12550D01*
X12600D01*
Y1050D01*
X12650Y1000D01*
X12200Y1050D02*
X12300Y1000D01*
X12400Y900D01*
Y800D01*
X12350Y750D01*
X12250D01*
X12200Y800D01*
Y850D01*
X12250Y900D01*
X12400D01*
X11750Y1000D02*
X11800Y1050D01*
X11900D01*
X11950Y1000D01*
Y800D01*
X11900Y750D01*
X11800D01*
X11750Y800D01*
X11650Y750D02*
X11550D01*
X11600D01*
Y1050D01*
X11650Y1000D01*
X11200Y1050D02*
X11400D01*
Y900D01*
X11300Y950D01*
X11250D01*
X11200Y900D01*
Y800D01*
X11250Y750D01*
X11350D01*
X11400Y800D01*
X10500Y550D02*
X10550Y600D01*
X10650D01*
X10700Y550D01*
Y350D01*
X10650Y300D01*
X10550D01*
X10500Y350D01*
X10400Y300D02*
X10300D01*
X10350D01*
Y600D01*
X10400Y550D01*
X10150D02*
X10100Y600D01*
X10000D01*
X9950Y550D01*
Y500D01*
X10000Y450D01*
X10050D01*
X10000D01*
X9950Y400D01*
Y350D01*
X10000Y300D01*
X10100D01*
X10150Y350D01*
X9500Y1050D02*
X9550Y1100D01*
X9650D01*
X9700Y1050D01*
Y850D01*
X9650Y800D01*
X9550D01*
X9500Y850D01*
X9400Y800D02*
X9300D01*
X9350D01*
Y1100D01*
X9400Y1050D01*
X8950Y800D02*
X9150D01*
X8950Y1000D01*
Y1050D01*
X9000Y1100D01*
X9100D01*
X9150Y1050D01*
X8250Y600D02*
X8300Y650D01*
X8400D01*
X8450Y600D01*
Y400D01*
X8400Y350D01*
X8300D01*
X8250Y400D01*
X8150Y350D02*
X8050D01*
X8100D01*
Y650D01*
X8150Y600D01*
X7900Y350D02*
X7800D01*
X7850D01*
Y650D01*
X7900Y600D01*
X7300Y550D02*
X7350Y600D01*
X7450D01*
X7500Y550D01*
Y350D01*
X7450Y300D01*
X7350D01*
X7300Y350D01*
X7200Y300D02*
X7100D01*
X7150D01*
Y600D01*
X7200Y550D01*
X6950D02*
X6900Y600D01*
X6800D01*
X6750Y550D01*
Y350D01*
X6800Y300D01*
X6900D01*
X6950Y350D01*
Y550D01*
X5150Y4300D02*
X5200Y4350D01*
X5300D01*
X5350Y4300D01*
Y4100D01*
X5300Y4050D01*
X5200D01*
X5150Y4100D01*
X5050D02*
X5000Y4050D01*
X4900D01*
X4850Y4100D01*
Y4300D01*
X4900Y4350D01*
X5000D01*
X5050Y4300D01*
Y4250D01*
X5000Y4200D01*
X4850D01*
X6050Y1000D02*
X6100Y1050D01*
X6200D01*
X6250Y1000D01*
Y800D01*
X6200Y750D01*
X6100D01*
X6050Y800D01*
X5800Y750D02*
Y1050D01*
X5950Y900D01*
X5750D01*
X4100Y3150D02*
X4150Y3200D01*
X4250D01*
X4300Y3150D01*
Y2950D01*
X4250Y2900D01*
X4150D01*
X4100Y2950D01*
X4000Y3150D02*
X3950Y3200D01*
X3850D01*
X3800Y3150D01*
Y3100D01*
X3850Y3050D01*
X3900D01*
X3850D01*
X3800Y3000D01*
Y2950D01*
X3850Y2900D01*
X3950D01*
X4000Y2950D01*
X5150Y3650D02*
X5200Y3700D01*
X5300D01*
X5350Y3650D01*
Y3450D01*
X5300Y3400D01*
X5200D01*
X5150Y3450D01*
X4850Y3400D02*
X5050D01*
X4850Y3600D01*
Y3650D01*
X4900Y3700D01*
X5000D01*
X5050Y3650D01*
X6950Y7650D02*
X7000Y7700D01*
X7100D01*
X7150Y7650D01*
Y7450D01*
X7100Y7400D01*
X7000D01*
X6950Y7450D01*
X6650Y7400D02*
X6850D01*
X6650Y7600D01*
Y7650D01*
X6700Y7700D01*
X6800D01*
X6850Y7650D01*
X6550D02*
X6500Y7700D01*
X6400D01*
X6350Y7650D01*
Y7450D01*
X6400Y7400D01*
X6500D01*
X6550Y7450D01*
Y7650D01*
X8950Y9550D02*
X8900Y9600D01*
Y9700D01*
X8950Y9750D01*
X9150D01*
X9200Y9700D01*
Y9600D01*
X9150Y9550D01*
X9200Y9250D02*
Y9450D01*
X9000Y9250D01*
X8950D01*
X8900Y9300D01*
Y9400D01*
X8950Y9450D01*
X9200Y9150D02*
Y9050D01*
Y9100D01*
X8900D01*
X8950Y9150D01*
X8100Y8850D02*
Y8600D01*
X8050Y8550D01*
X7950D01*
X7900Y8600D01*
Y8850D01*
X7800Y8550D02*
X7700D01*
X7750D01*
Y8850D01*
X7800Y8800D01*
X7550Y8550D02*
X7450D01*
X7500D01*
Y8850D01*
X7550Y8800D01*
X10700Y8150D02*
X11000D01*
Y8000D01*
X10950Y7950D01*
X10750D01*
X10700Y8000D01*
Y8150D01*
X10750Y7850D02*
X10700Y7800D01*
Y7700D01*
X10750Y7650D01*
X10800D01*
X10850Y7700D01*
Y7750D01*
Y7700D01*
X10900Y7650D01*
X10950D01*
X11000Y7700D01*
Y7800D01*
X10950Y7850D01*
X8800Y3250D02*
X8750Y3300D01*
Y3400D01*
X8800Y3450D01*
X9000D01*
X9050Y3400D01*
Y3300D01*
X9000Y3250D01*
X9050Y2950D02*
Y3150D01*
X8850Y2950D01*
X8800D01*
X8750Y3000D01*
Y3100D01*
X8800Y3150D01*
Y2850D02*
X8750Y2800D01*
Y2700D01*
X8800Y2650D01*
X8850D01*
X8900Y2700D01*
Y2750D01*
Y2700D01*
X8950Y2650D01*
X9000D01*
X9050Y2700D01*
Y2800D01*
X9000Y2850D01*
X11050Y3250D02*
X11000Y3300D01*
Y3400D01*
X11050Y3450D01*
X11250D01*
X11300Y3400D01*
Y3300D01*
X11250Y3250D01*
X11300Y2950D02*
Y3150D01*
X11100Y2950D01*
X11050D01*
X11000Y3000D01*
Y3100D01*
X11050Y3150D01*
X11300Y2700D02*
X11000D01*
X11150Y2850D01*
Y2650D01*
X7500Y800D02*
Y1100D01*
X7350D01*
X7300Y1050D01*
Y950D01*
X7350Y900D01*
X7500D01*
X7400D02*
X7300Y800D01*
X7200D02*
X7100D01*
X7150D01*
Y1100D01*
X7200Y1050D01*
X6950D02*
X6900Y1100D01*
X6800D01*
X6750Y1050D01*
Y1000D01*
X6800Y950D01*
X6750Y900D01*
Y850D01*
X6800Y800D01*
X6900D01*
X6950Y850D01*
Y900D01*
X6900Y950D01*
X6950Y1000D01*
Y1050D01*
X6900Y950D02*
X6800D01*
D49*
X11438Y7871D02*
Y8029D01*
X11162Y7871D02*
Y8029D01*
X6209Y6274D02*
Y6471D01*
Y6274D02*
X6524D01*
X7391D02*
Y6471D01*
X7076Y6274D02*
X7391D01*
X7621Y9588D02*
X7779D01*
X7621Y9312D02*
X7779D01*
X6021Y9312D02*
X6179D01*
X6021Y9588D02*
X6179D01*
X8071Y3338D02*
X8229D01*
X8071Y3062D02*
X8229D01*
X10321Y3338D02*
X10479D01*
X10321Y3062D02*
X10479D01*
X7288Y3921D02*
Y4079D01*
X7012Y3921D02*
Y4079D01*
X9212Y4121D02*
Y4279D01*
X9488Y4121D02*
Y4279D01*
X12571Y3338D02*
X12729D01*
X12571Y3062D02*
X12729D01*
X11462Y4121D02*
Y4279D01*
X11738Y4121D02*
Y4279D01*
X12171Y8062D02*
X12329D01*
X12171Y8338D02*
X12329D01*
X13838Y5521D02*
Y5679D01*
X13562Y5521D02*
Y5679D01*
X12171Y7112D02*
X12329D01*
X12171Y7388D02*
X12329D01*
X10412Y6571D02*
Y6729D01*
X10688Y6571D02*
Y6729D01*
X13838Y6771D02*
Y6929D01*
X13562Y6771D02*
Y6929D01*
X7288Y2821D02*
Y2979D01*
X7012Y2821D02*
Y2979D01*
X5321Y8612D02*
X5479D01*
X5321Y8888D02*
X5479D01*
X5921Y8888D02*
X6079D01*
X5921Y8612D02*
X6079D01*
X4188Y1271D02*
Y1429D01*
X3912Y1271D02*
Y1429D01*
X13562Y4371D02*
Y4529D01*
X13838Y4371D02*
Y4529D01*
X5524Y3091D02*
X5721D01*
X5524Y2776D02*
Y3091D01*
Y1909D02*
X5721D01*
X5524D02*
Y2224D01*
X3690Y6375D02*
X4910D01*
X3690Y5725D02*
X4910D01*
X3690D02*
Y6375D01*
X4910Y5725D02*
Y6375D01*
X12262Y4890D02*
Y6110D01*
X12538Y4890D02*
Y6110D01*
X12262Y4890D02*
X12538D01*
X12262Y6110D02*
X12538D01*
D51*
X3000Y9150D02*
Y8883D01*
X2867Y8750D01*
X2733Y8883D01*
Y9150D01*
X2600D02*
Y8750D01*
X2400D01*
X2334Y8817D01*
Y8883D01*
X2400Y8950D01*
X2600D01*
X2400D01*
X2334Y9017D01*
Y9083D01*
X2400Y9150D01*
X2600D01*
X2200Y8750D02*
Y9017D01*
X2067Y9150D01*
X1934Y9017D01*
Y8750D01*
Y8950D01*
X2200D01*
X1800Y9150D02*
X1534D01*
X1667D01*
Y8750D01*
X2733Y10383D02*
X2800Y10450D01*
X2933D01*
X3000Y10383D01*
Y10117D01*
X2933Y10050D01*
X2800D01*
X2733Y10117D01*
Y10250D01*
X2867D01*
X2600Y10050D02*
Y10450D01*
X2334Y10050D01*
Y10450D01*
X2200D02*
Y10050D01*
X2000D01*
X1934Y10117D01*
Y10383D01*
X2000Y10450D01*
X2200D01*
D82*
X4202Y5981D02*
G03*
X4202Y5981I-118J0D01*
G01*
D83*
X7674Y5505D02*
X8126D01*
X7674Y4895D02*
X8126D01*
M02*
