%FSLAX24Y24*%
%MOIN*%
G70*
G01*
G75*
G04 Layer_Color=8388736*
%ADD10R,0.0354X0.0315*%
%ADD11R,0.0315X0.0354*%
%ADD12R,0.0276X0.0354*%
%ADD13R,0.0319X0.0661*%
%ADD14R,0.0394X0.0315*%
%ADD15R,0.0276X0.0591*%
%ADD16R,0.0600X0.0300*%
%ADD17R,0.0300X0.0598*%
%ADD18R,0.0598X0.0300*%
%ADD19R,0.0217X0.0394*%
%ADD20R,0.0157X0.0157*%
%ADD21C,0.0150*%
%ADD22C,0.0120*%
%ADD23C,0.0100*%
%ADD24C,0.0181*%
%ADD25C,0.0630*%
%ADD26C,0.0661*%
%ADD27C,0.0591*%
%ADD28C,0.1378*%
%ADD29C,0.0320*%
%ADD30C,0.0400*%
%ADD31C,0.0500*%
%ADD32R,0.0354X0.0276*%
%ADD33R,0.0532X0.0157*%
%ADD34R,0.0630X0.0748*%
%ADD35R,0.0551X0.0630*%
%ADD36R,0.0236X0.0591*%
%ADD37R,0.0591X0.0236*%
%ADD38O,0.0118X0.0650*%
%ADD39R,0.0335X0.0157*%
%ADD40R,0.0512X0.0217*%
%ADD41R,0.0209X0.0118*%
%ADD42R,0.0193X0.0118*%
%ADD43R,0.0201X0.0136*%
%ADD44R,0.0136X0.0201*%
%ADD45R,0.0315X0.0197*%
%ADD46C,0.0200*%
%ADD47C,0.0098*%
%ADD48C,0.0050*%
%ADD49C,0.0079*%
%ADD50C,0.0039*%
%ADD51C,0.0080*%
%ADD52R,0.0414X0.0375*%
%ADD53R,0.0375X0.0414*%
%ADD54R,0.0336X0.0414*%
%ADD55R,0.0379X0.0721*%
%ADD56R,0.0454X0.0375*%
%ADD57R,0.0336X0.0651*%
%ADD58R,0.0660X0.0360*%
%ADD59R,0.0360X0.0658*%
%ADD60R,0.0658X0.0360*%
%ADD61R,0.0277X0.0454*%
%ADD62C,0.0690*%
%ADD63C,0.0721*%
%ADD64C,0.0651*%
%ADD65C,0.0060*%
%ADD66C,0.1438*%
%ADD67C,0.0600*%
D52*
X4350Y1776D02*
D03*
Y1224D02*
D03*
X2000Y9726D02*
D03*
Y9174D02*
D03*
D53*
X1274Y8050D02*
D03*
X1826D02*
D03*
X1274Y7350D02*
D03*
X1826D02*
D03*
D54*
X7545Y11300D02*
D03*
X6955D02*
D03*
X5645D02*
D03*
X5055D02*
D03*
X10795Y11350D02*
D03*
X10205D02*
D03*
X11855Y11350D02*
D03*
X12445D02*
D03*
D55*
X1257Y2800D02*
D03*
X1943D02*
D03*
X1257Y800D02*
D03*
X1943D02*
D03*
D56*
X3187Y11683D02*
D03*
X313D02*
D03*
Y10817D02*
D03*
X3187D02*
D03*
D57*
X2636Y10561D02*
D03*
X1455D02*
D03*
X864D02*
D03*
D58*
X5100Y9800D02*
D03*
Y9300D02*
D03*
Y8800D02*
D03*
Y8300D02*
D03*
Y7800D02*
D03*
Y7300D02*
D03*
Y6800D02*
D03*
Y6300D02*
D03*
Y5800D02*
D03*
Y5300D02*
D03*
Y4800D02*
D03*
Y4300D02*
D03*
Y3800D02*
D03*
Y3300D02*
D03*
Y2800D02*
D03*
Y2300D02*
D03*
Y1800D02*
D03*
D59*
X5850Y1050D02*
D03*
X6350D02*
D03*
X6850D02*
D03*
X7350D02*
D03*
X7850D02*
D03*
X8350D02*
D03*
X8850D02*
D03*
X9350D02*
D03*
X9850D02*
D03*
X10350D02*
D03*
X10850D02*
D03*
X11350D02*
D03*
X11850D02*
D03*
X12350D02*
D03*
X12850D02*
D03*
X13350D02*
D03*
X13850D02*
D03*
Y10550D02*
D03*
X13350D02*
D03*
X12850D02*
D03*
X12350D02*
D03*
X11850D02*
D03*
X11350D02*
D03*
X10850D02*
D03*
X10350D02*
D03*
X9850D02*
D03*
X9350D02*
D03*
X8850D02*
D03*
X8350D02*
D03*
X7850D02*
D03*
X7350D02*
D03*
X6850D02*
D03*
X6350D02*
D03*
X5850D02*
D03*
D60*
X14600Y1800D02*
D03*
Y2300D02*
D03*
Y2800D02*
D03*
Y3300D02*
D03*
Y3800D02*
D03*
Y4300D02*
D03*
Y4800D02*
D03*
Y5300D02*
D03*
Y5800D02*
D03*
Y6300D02*
D03*
Y6800D02*
D03*
Y7300D02*
D03*
Y7800D02*
D03*
Y8300D02*
D03*
Y8800D02*
D03*
Y9300D02*
D03*
Y9800D02*
D03*
D61*
X1274Y8758D02*
D03*
X526D02*
D03*
Y9742D02*
D03*
X900D02*
D03*
X1274D02*
D03*
D62*
X550Y3100D02*
D03*
Y600D02*
D03*
D63*
X3300Y2950D02*
D03*
X14600Y750D02*
D03*
D64*
X3300Y850D02*
D03*
Y1850D02*
D03*
D65*
X2341Y11250D02*
D03*
X1159D02*
D03*
D66*
X2850Y7684D02*
D03*
Y4416D02*
D03*
D67*
X3450Y8900D02*
D03*
Y10250D02*
D03*
M02*
