%FSLAX24Y24*%
%MOIN*%
G70*
G01*
G75*
G04 Layer_Physical_Order=3*
G04 Layer_Color=16440176*
%ADD10R,0.0354X0.0315*%
%ADD11R,0.0315X0.0354*%
%ADD12R,0.0276X0.0354*%
%ADD13R,0.0319X0.0661*%
%ADD14R,0.0394X0.0315*%
%ADD15R,0.0276X0.0591*%
%ADD16R,0.0600X0.0300*%
%ADD17R,0.0300X0.0598*%
%ADD18R,0.0598X0.0300*%
%ADD19R,0.0217X0.0394*%
%ADD20R,0.0157X0.0157*%
%ADD21C,0.0150*%
%ADD22C,0.0120*%
%ADD23C,0.0100*%
%ADD24C,0.0181*%
%ADD25C,0.0630*%
%ADD26C,0.0661*%
%ADD27C,0.0591*%
%ADD28C,0.1378*%
%ADD29C,0.0320*%
%ADD30C,0.0400*%
%ADD31C,0.0500*%
G36*
X15450Y122D02*
X122D01*
Y593D01*
X172Y597D01*
X172Y597D01*
D01*
X185Y502D01*
X222Y411D01*
X283Y333D01*
X361Y272D01*
X452Y235D01*
X550Y222D01*
X648Y235D01*
X739Y272D01*
X817Y333D01*
X878Y411D01*
X915Y502D01*
X928Y600D01*
X915Y698D01*
X878Y789D01*
X817Y867D01*
X739Y928D01*
X648Y965D01*
X550Y978D01*
X452Y965D01*
X361Y928D01*
X283Y867D01*
X222Y789D01*
X185Y698D01*
X172Y603D01*
X122Y607D01*
Y3093D01*
X172Y3097D01*
X172Y3097D01*
D01*
X185Y3002D01*
X222Y2911D01*
X283Y2833D01*
X361Y2772D01*
X452Y2735D01*
X550Y2722D01*
X648Y2735D01*
X739Y2772D01*
X817Y2833D01*
X878Y2911D01*
X915Y3002D01*
X928Y3100D01*
X915Y3198D01*
X878Y3289D01*
X817Y3367D01*
X739Y3428D01*
X648Y3465D01*
X550Y3478D01*
X452Y3465D01*
X361Y3428D01*
X283Y3367D01*
X222Y3289D01*
X185Y3198D01*
X172Y3103D01*
X122Y3107D01*
Y11828D01*
X700D01*
Y10750D01*
X2800D01*
Y11828D01*
X15450D01*
Y122D01*
D02*
G37*
%LPC*%
G36*
X10650Y4824D02*
X10564Y4807D01*
X10491Y4759D01*
X10443Y4686D01*
X10426Y4600D01*
X10443Y4514D01*
X10491Y4441D01*
X10564Y4393D01*
X10650Y4376D01*
X10736Y4393D01*
X10809Y4441D01*
X10857Y4514D01*
X10874Y4600D01*
X10857Y4686D01*
X10809Y4759D01*
X10736Y4807D01*
X10650Y4824D01*
D02*
G37*
G36*
X1850Y5174D02*
X1764Y5157D01*
X1691Y5109D01*
X1643Y5036D01*
X1626Y4950D01*
X1643Y4864D01*
X1691Y4791D01*
X1764Y4743D01*
X1850Y4726D01*
X1936Y4743D01*
X2009Y4791D01*
X2057Y4864D01*
X2074Y4950D01*
X2057Y5036D01*
X2009Y5109D01*
X1936Y5157D01*
X1850Y5174D01*
D02*
G37*
G36*
X6450Y5774D02*
X6364Y5757D01*
X6291Y5709D01*
X6243Y5636D01*
X6226Y5550D01*
X6243Y5464D01*
X6291Y5391D01*
X6364Y5343D01*
X6450Y5326D01*
X6536Y5343D01*
X6609Y5391D01*
X6657Y5464D01*
X6674Y5550D01*
X6657Y5636D01*
X6609Y5709D01*
X6536Y5757D01*
X6450Y5774D01*
D02*
G37*
G36*
X7900Y4774D02*
X7814Y4757D01*
X7741Y4709D01*
X7693Y4636D01*
X7676Y4550D01*
X7693Y4464D01*
X7741Y4391D01*
X7814Y4343D01*
X7900Y4326D01*
X7986Y4343D01*
X8059Y4391D01*
X8107Y4464D01*
X8124Y4550D01*
X8107Y4636D01*
X8059Y4709D01*
X7986Y4757D01*
X7900Y4774D01*
D02*
G37*
G36*
X2850Y5169D02*
X2703Y5154D01*
X2562Y5111D01*
X2432Y5042D01*
X2318Y4948D01*
X2224Y4834D01*
X2155Y4704D01*
X2112Y4563D01*
X2097Y4416D01*
X2112Y4269D01*
X2155Y4128D01*
X2224Y3998D01*
X2318Y3884D01*
X2432Y3790D01*
X2562Y3721D01*
X2703Y3678D01*
X2850Y3664D01*
X2997Y3678D01*
X3138Y3721D01*
X3268Y3790D01*
X3382Y3884D01*
X3476Y3998D01*
X3545Y4128D01*
X3588Y4269D01*
X3603Y4416D01*
X3588Y4563D01*
X3545Y4704D01*
X3476Y4834D01*
X3382Y4948D01*
X3268Y5042D01*
X3138Y5111D01*
X2997Y5154D01*
X2850Y5169D01*
D02*
G37*
G36*
X4300Y4374D02*
X4214Y4357D01*
X4141Y4309D01*
X4093Y4236D01*
X4076Y4150D01*
X4093Y4064D01*
X4141Y3991D01*
X4214Y3943D01*
X4300Y3926D01*
X4386Y3943D01*
X4459Y3991D01*
X4507Y4064D01*
X4524Y4150D01*
X4507Y4236D01*
X4459Y4309D01*
X4386Y4357D01*
X4300Y4374D01*
D02*
G37*
G36*
X11150Y4424D02*
X11064Y4407D01*
X10991Y4359D01*
X10943Y4286D01*
X10926Y4200D01*
X10943Y4114D01*
X10991Y4041D01*
X11064Y3993D01*
X11150Y3976D01*
X11236Y3993D01*
X11309Y4041D01*
X11357Y4114D01*
X11374Y4200D01*
X11357Y4286D01*
X11309Y4359D01*
X11236Y4407D01*
X11150Y4424D01*
D02*
G37*
G36*
X1250Y6274D02*
X1164Y6257D01*
X1091Y6209D01*
X1043Y6136D01*
X1026Y6050D01*
X1043Y5964D01*
X1091Y5891D01*
X1164Y5843D01*
X1250Y5826D01*
X1336Y5843D01*
X1409Y5891D01*
X1457Y5964D01*
X1474Y6050D01*
X1457Y6136D01*
X1409Y6209D01*
X1336Y6257D01*
X1250Y6274D01*
D02*
G37*
G36*
X700Y6624D02*
X614Y6607D01*
X541Y6559D01*
X493Y6486D01*
X476Y6400D01*
X493Y6314D01*
X541Y6241D01*
X614Y6193D01*
X700Y6176D01*
X786Y6193D01*
X859Y6241D01*
X907Y6314D01*
X924Y6400D01*
X907Y6486D01*
X859Y6559D01*
X786Y6607D01*
X700Y6624D01*
D02*
G37*
G36*
X1250Y6924D02*
X1164Y6907D01*
X1091Y6859D01*
X1043Y6786D01*
X1026Y6700D01*
X1043Y6614D01*
X1091Y6541D01*
X1164Y6493D01*
X1250Y6476D01*
X1336Y6493D01*
X1409Y6541D01*
X1457Y6614D01*
X1474Y6700D01*
X1457Y6786D01*
X1409Y6859D01*
X1336Y6907D01*
X1250Y6924D01*
D02*
G37*
G36*
X11374Y6098D02*
X11288Y6081D01*
X11215Y6033D01*
X11167Y5960D01*
X11150Y5874D01*
X11167Y5788D01*
X11215Y5715D01*
X11288Y5667D01*
X11374Y5650D01*
X11460Y5667D01*
X11533Y5715D01*
X11581Y5788D01*
X11598Y5874D01*
X11581Y5960D01*
X11533Y6033D01*
X11460Y6081D01*
X11374Y6098D01*
D02*
G37*
G36*
X3607Y7081D02*
X3521Y7064D01*
X3448Y7016D01*
X3400Y6943D01*
X3383Y6857D01*
X3400Y6771D01*
X3448Y6698D01*
X3521Y6650D01*
X3607Y6633D01*
X3693Y6650D01*
X3766Y6698D01*
X3814Y6771D01*
X3831Y6857D01*
X3814Y6943D01*
X3766Y7016D01*
X3693Y7064D01*
X3607Y7081D01*
D02*
G37*
G36*
X7300Y5774D02*
X7214Y5757D01*
X7141Y5709D01*
X7093Y5636D01*
X7076Y5550D01*
X7093Y5464D01*
X7141Y5391D01*
X7214Y5343D01*
X7300Y5326D01*
X7386Y5343D01*
X7459Y5391D01*
X7507Y5464D01*
X7524Y5550D01*
X7507Y5636D01*
X7459Y5709D01*
X7386Y5757D01*
X7300Y5774D01*
D02*
G37*
G36*
X7900Y5974D02*
X7814Y5957D01*
X7741Y5909D01*
X7693Y5836D01*
X7676Y5750D01*
X7693Y5664D01*
X7741Y5591D01*
X7814Y5543D01*
X7900Y5526D01*
X7986Y5543D01*
X8059Y5591D01*
X8107Y5664D01*
X8124Y5750D01*
X8107Y5836D01*
X8059Y5909D01*
X7986Y5957D01*
X7900Y5974D01*
D02*
G37*
G36*
X6776Y3098D02*
X6690Y3081D01*
X6617Y3033D01*
X6569Y2960D01*
X6552Y2874D01*
X6569Y2788D01*
X6617Y2715D01*
X6690Y2667D01*
X6776Y2650D01*
X6862Y2667D01*
X6935Y2715D01*
X6983Y2788D01*
X7000Y2874D01*
X6983Y2960D01*
X6935Y3033D01*
X6862Y3081D01*
X6776Y3098D01*
D02*
G37*
G36*
X2450Y1374D02*
X2364Y1357D01*
X2291Y1309D01*
X2243Y1236D01*
X2226Y1150D01*
X2243Y1064D01*
X2291Y991D01*
X2364Y943D01*
X2450Y926D01*
X2536Y943D01*
X2609Y991D01*
X2657Y1064D01*
X2674Y1150D01*
X2657Y1236D01*
X2609Y1309D01*
X2536Y1357D01*
X2450Y1374D01*
D02*
G37*
G36*
Y1924D02*
X2364Y1907D01*
X2291Y1859D01*
X2243Y1786D01*
X2226Y1700D01*
X2243Y1614D01*
X2291Y1541D01*
X2364Y1493D01*
X2450Y1476D01*
X2536Y1493D01*
X2609Y1541D01*
X2657Y1614D01*
X2674Y1700D01*
X2657Y1786D01*
X2609Y1859D01*
X2536Y1907D01*
X2450Y1924D01*
D02*
G37*
G36*
X8900D02*
X8814Y1907D01*
X8741Y1859D01*
X8693Y1786D01*
X8676Y1700D01*
X8693Y1614D01*
X8741Y1541D01*
X8814Y1493D01*
X8900Y1476D01*
X8986Y1493D01*
X9059Y1541D01*
X9107Y1614D01*
X9124Y1700D01*
X9107Y1786D01*
X9059Y1859D01*
X8986Y1907D01*
X8900Y1924D01*
D02*
G37*
G36*
X3300Y1208D02*
X3207Y1196D01*
X3121Y1160D01*
X3047Y1103D01*
X2990Y1029D01*
X2954Y943D01*
X2942Y850D01*
X2954Y757D01*
X2990Y671D01*
X3047Y597D01*
X3121Y540D01*
X3207Y504D01*
X3300Y492D01*
X3393Y504D01*
X3479Y540D01*
X3553Y597D01*
X3610Y671D01*
X3646Y757D01*
X3658Y850D01*
X3646Y943D01*
X3610Y1029D01*
X3553Y1103D01*
X3479Y1160D01*
X3393Y1196D01*
X3300Y1208D01*
D02*
G37*
G36*
X6350Y624D02*
X6264Y607D01*
X6191Y559D01*
X6143Y486D01*
X6126Y400D01*
X6143Y314D01*
X6191Y241D01*
X6264Y193D01*
X6350Y176D01*
X6436Y193D01*
X6509Y241D01*
X6557Y314D01*
X6574Y400D01*
X6557Y486D01*
X6509Y559D01*
X6436Y607D01*
X6350Y624D01*
D02*
G37*
G36*
X13850D02*
X13764Y607D01*
X13691Y559D01*
X13643Y486D01*
X13626Y400D01*
X13643Y314D01*
X13691Y241D01*
X13764Y193D01*
X13850Y176D01*
X13936Y193D01*
X14009Y241D01*
X14057Y314D01*
X14074Y400D01*
X14057Y486D01*
X14009Y559D01*
X13936Y607D01*
X13850Y624D01*
D02*
G37*
G36*
X14600Y1144D02*
X14498Y1131D01*
X14403Y1091D01*
X14321Y1029D01*
X14259Y947D01*
X14219Y852D01*
X14206Y750D01*
X14219Y648D01*
X14259Y553D01*
X14321Y471D01*
X14403Y409D01*
X14498Y369D01*
X14600Y356D01*
X14702Y369D01*
X14797Y409D01*
X14879Y471D01*
X14941Y553D01*
X14981Y648D01*
X14994Y750D01*
X14981Y852D01*
X14941Y947D01*
X14879Y1029D01*
X14797Y1091D01*
X14702Y1131D01*
X14600Y1144D01*
D02*
G37*
G36*
X3800Y2674D02*
X3714Y2657D01*
X3641Y2609D01*
X3593Y2536D01*
X3576Y2450D01*
X3593Y2364D01*
X3641Y2291D01*
X3714Y2243D01*
X3800Y2226D01*
X3886Y2243D01*
X3959Y2291D01*
X4007Y2364D01*
X4024Y2450D01*
X4007Y2536D01*
X3959Y2609D01*
X3886Y2657D01*
X3800Y2674D01*
D02*
G37*
G36*
X2750Y3474D02*
X2664Y3457D01*
X2591Y3409D01*
X2543Y3336D01*
X2526Y3250D01*
X2543Y3164D01*
X2591Y3091D01*
X2664Y3043D01*
X2750Y3026D01*
X2836Y3043D01*
X2876Y3069D01*
X2918Y3043D01*
X2906Y2950D01*
X2919Y2848D01*
X2959Y2753D01*
X3021Y2671D01*
X3103Y2609D01*
X3198Y2569D01*
X3300Y2556D01*
X3402Y2569D01*
X3497Y2609D01*
X3579Y2671D01*
X3641Y2753D01*
X3681Y2848D01*
X3694Y2950D01*
X3681Y3052D01*
X3641Y3147D01*
X3579Y3229D01*
X3497Y3291D01*
X3402Y3331D01*
X3300Y3344D01*
X3198Y3331D01*
X3103Y3291D01*
X3021Y3229D01*
X3019Y3226D01*
X2974Y3246D01*
X2974Y3250D01*
X2957Y3336D01*
X2909Y3409D01*
X2836Y3457D01*
X2750Y3474D01*
D02*
G37*
G36*
X14050Y3024D02*
X13964Y3007D01*
X13891Y2959D01*
X13843Y2886D01*
X13826Y2800D01*
X13843Y2714D01*
X13891Y2641D01*
X13964Y2593D01*
X14050Y2576D01*
X14136Y2593D01*
X14209Y2641D01*
X14257Y2714D01*
X14274Y2800D01*
X14257Y2886D01*
X14209Y2959D01*
X14136Y3007D01*
X14050Y3024D01*
D02*
G37*
G36*
X4350Y2524D02*
X4264Y2507D01*
X4191Y2459D01*
X4143Y2386D01*
X4126Y2300D01*
X4143Y2214D01*
X4191Y2141D01*
X4264Y2093D01*
X4350Y2076D01*
X4436Y2093D01*
X4509Y2141D01*
X4557Y2214D01*
X4574Y2300D01*
X4557Y2386D01*
X4509Y2459D01*
X4436Y2507D01*
X4350Y2524D01*
D02*
G37*
G36*
X3300Y2208D02*
X3207Y2196D01*
X3121Y2160D01*
X3047Y2103D01*
X2990Y2029D01*
X2954Y1943D01*
X2942Y1850D01*
X2954Y1757D01*
X2990Y1671D01*
X3047Y1597D01*
X3121Y1540D01*
X3207Y1504D01*
X3300Y1492D01*
X3393Y1504D01*
X3479Y1540D01*
X3553Y1597D01*
X3610Y1671D01*
X3646Y1757D01*
X3658Y1850D01*
X3646Y1943D01*
X3610Y2029D01*
X3553Y2103D01*
X3479Y2160D01*
X3393Y2196D01*
X3300Y2208D01*
D02*
G37*
G36*
X11150Y1974D02*
X11064Y1957D01*
X10991Y1909D01*
X10943Y1836D01*
X10926Y1750D01*
X10943Y1664D01*
X10991Y1591D01*
X11064Y1543D01*
X11150Y1526D01*
X11236Y1543D01*
X11309Y1591D01*
X11357Y1664D01*
X11374Y1750D01*
X11357Y1836D01*
X11309Y1909D01*
X11236Y1957D01*
X11150Y1974D01*
D02*
G37*
G36*
X13800Y2274D02*
X13714Y2257D01*
X13641Y2209D01*
X13593Y2136D01*
X13576Y2050D01*
X13590Y1976D01*
X13549Y1949D01*
X13536Y1957D01*
X13450Y1974D01*
X13364Y1957D01*
X13291Y1909D01*
X13243Y1836D01*
X13226Y1750D01*
X13243Y1664D01*
X13291Y1591D01*
X13364Y1543D01*
X13450Y1526D01*
X13536Y1543D01*
X13609Y1591D01*
X13657Y1664D01*
X13674Y1750D01*
X13660Y1824D01*
X13701Y1851D01*
X13714Y1843D01*
X13800Y1826D01*
X13886Y1843D01*
X13959Y1891D01*
X14007Y1964D01*
X14024Y2050D01*
X14007Y2136D01*
X13959Y2209D01*
X13886Y2257D01*
X13800Y2274D01*
D02*
G37*
G36*
X7900Y6924D02*
X7814Y6907D01*
X7741Y6859D01*
X7693Y6786D01*
X7676Y6700D01*
X7642Y6666D01*
X7600Y6674D01*
X7514Y6657D01*
X7441Y6609D01*
X7393Y6536D01*
X7376Y6450D01*
X7393Y6364D01*
X7441Y6291D01*
X7514Y6243D01*
X7600Y6226D01*
X7686Y6243D01*
X7759Y6291D01*
X7807Y6364D01*
X7824Y6450D01*
X7858Y6484D01*
X7900Y6476D01*
X7986Y6493D01*
X8059Y6541D01*
X8107Y6614D01*
X8124Y6700D01*
X8107Y6786D01*
X8059Y6859D01*
X7986Y6907D01*
X7900Y6924D01*
D02*
G37*
G36*
X6350Y10224D02*
X6264Y10207D01*
X6191Y10159D01*
X6143Y10086D01*
X6126Y10000D01*
X6143Y9914D01*
X6191Y9841D01*
X6264Y9793D01*
X6350Y9776D01*
X6436Y9793D01*
X6509Y9841D01*
X6557Y9914D01*
X6574Y10000D01*
X6557Y10086D01*
X6509Y10159D01*
X6436Y10207D01*
X6350Y10224D01*
D02*
G37*
G36*
X7350D02*
X7264Y10207D01*
X7191Y10159D01*
X7143Y10086D01*
X7126Y10000D01*
X7143Y9914D01*
X7191Y9841D01*
X7264Y9793D01*
X7350Y9776D01*
X7436Y9793D01*
X7509Y9841D01*
X7557Y9914D01*
X7574Y10000D01*
X7557Y10086D01*
X7509Y10159D01*
X7436Y10207D01*
X7350Y10224D01*
D02*
G37*
G36*
X5500Y10774D02*
X5414Y10757D01*
X5341Y10709D01*
X5293Y10636D01*
X5276Y10550D01*
X5293Y10464D01*
X5341Y10391D01*
X5414Y10343D01*
X5500Y10326D01*
X5586Y10343D01*
X5659Y10391D01*
X5707Y10464D01*
X5724Y10550D01*
X5707Y10636D01*
X5659Y10709D01*
X5586Y10757D01*
X5500Y10774D01*
D02*
G37*
G36*
X12069Y10156D02*
X11983Y10139D01*
X11910Y10090D01*
X11861Y10017D01*
X11844Y9931D01*
X11861Y9846D01*
X11910Y9773D01*
X11983Y9724D01*
X12069Y9707D01*
X12154Y9724D01*
X12227Y9773D01*
X12276Y9846D01*
X12293Y9931D01*
X12276Y10017D01*
X12227Y10090D01*
X12154Y10139D01*
X12069Y10156D01*
D02*
G37*
G36*
X10650Y9624D02*
X10564Y9607D01*
X10491Y9559D01*
X10443Y9486D01*
X10426Y9400D01*
X10443Y9314D01*
X10491Y9241D01*
X10564Y9193D01*
X10650Y9176D01*
X10736Y9193D01*
X10809Y9241D01*
X10857Y9314D01*
X10874Y9400D01*
X10857Y9486D01*
X10809Y9559D01*
X10736Y9607D01*
X10650Y9624D01*
D02*
G37*
G36*
X14050Y10024D02*
X13964Y10007D01*
X13891Y9959D01*
X13843Y9886D01*
X13826Y9800D01*
X13843Y9714D01*
X13891Y9641D01*
X13964Y9593D01*
X14050Y9576D01*
X14136Y9593D01*
X14209Y9641D01*
X14257Y9714D01*
X14274Y9800D01*
X14257Y9886D01*
X14209Y9959D01*
X14136Y10007D01*
X14050Y10024D01*
D02*
G37*
G36*
X10632Y10156D02*
X10546Y10139D01*
X10473Y10090D01*
X10424Y10017D01*
X10407Y9931D01*
X10424Y9846D01*
X10473Y9773D01*
X10546Y9724D01*
X10632Y9707D01*
X10717Y9724D01*
X10790Y9773D01*
X10839Y9846D01*
X10856Y9931D01*
X10839Y10017D01*
X10790Y10090D01*
X10717Y10139D01*
X10632Y10156D01*
D02*
G37*
G36*
X7950Y11524D02*
X7864Y11507D01*
X7791Y11459D01*
X7743Y11386D01*
X7726Y11300D01*
X7743Y11214D01*
X7791Y11141D01*
X7864Y11093D01*
X7950Y11076D01*
X8036Y11093D01*
X8109Y11141D01*
X8157Y11214D01*
X8174Y11300D01*
X8157Y11386D01*
X8109Y11459D01*
X8036Y11507D01*
X7950Y11524D01*
D02*
G37*
G36*
X12800Y11574D02*
X12714Y11557D01*
X12641Y11509D01*
X12593Y11436D01*
X12576Y11350D01*
X12593Y11264D01*
X12641Y11191D01*
X12714Y11143D01*
X12800Y11126D01*
X12886Y11143D01*
X12959Y11191D01*
X13007Y11264D01*
X13024Y11350D01*
X13007Y11436D01*
X12959Y11509D01*
X12886Y11557D01*
X12800Y11574D01*
D02*
G37*
G36*
X9850Y11574D02*
X9764Y11557D01*
X9691Y11509D01*
X9643Y11436D01*
X9626Y11350D01*
X9643Y11264D01*
X9691Y11191D01*
X9764Y11143D01*
X9850Y11126D01*
X9936Y11143D01*
X10009Y11191D01*
X10057Y11264D01*
X10074Y11350D01*
X10057Y11436D01*
X10009Y11509D01*
X9936Y11557D01*
X9850Y11574D01*
D02*
G37*
G36*
X6550Y11524D02*
X6464Y11507D01*
X6391Y11459D01*
X6343Y11386D01*
X6326Y11300D01*
X6343Y11214D01*
X6391Y11141D01*
X6464Y11093D01*
X6550Y11076D01*
X6636Y11093D01*
X6709Y11141D01*
X6757Y11214D01*
X6774Y11300D01*
X6757Y11386D01*
X6709Y11459D01*
X6636Y11507D01*
X6550Y11524D01*
D02*
G37*
G36*
X6050Y11524D02*
X5964Y11507D01*
X5891Y11459D01*
X5843Y11386D01*
X5826Y11300D01*
X5843Y11214D01*
X5891Y11141D01*
X5964Y11093D01*
X6050Y11076D01*
X6136Y11093D01*
X6209Y11141D01*
X6257Y11214D01*
X6274Y11300D01*
X6257Y11386D01*
X6209Y11459D01*
X6136Y11507D01*
X6050Y11524D01*
D02*
G37*
G36*
X8850D02*
X8764Y11507D01*
X8691Y11459D01*
X8643Y11386D01*
X8626Y11300D01*
X8643Y11214D01*
X8691Y11141D01*
X8764Y11093D01*
X8850Y11076D01*
X8936Y11093D01*
X9009Y11141D01*
X9057Y11214D01*
X9074Y11300D01*
X9057Y11386D01*
X9009Y11459D01*
X8936Y11507D01*
X8850Y11524D01*
D02*
G37*
G36*
X13350D02*
X13264Y11507D01*
X13191Y11459D01*
X13143Y11386D01*
X13126Y11300D01*
X13143Y11214D01*
X13191Y11141D01*
X13264Y11093D01*
X13350Y11076D01*
X13436Y11093D01*
X13509Y11141D01*
X13557Y11214D01*
X13574Y11300D01*
X13557Y11386D01*
X13509Y11459D01*
X13436Y11507D01*
X13350Y11524D01*
D02*
G37*
G36*
X8100Y9174D02*
X8014Y9157D01*
X7941Y9109D01*
X7893Y9036D01*
X7876Y8950D01*
X7893Y8864D01*
X7941Y8791D01*
X8014Y8743D01*
X8100Y8726D01*
X8186Y8743D01*
X8259Y8791D01*
X8307Y8864D01*
X8324Y8950D01*
X8307Y9036D01*
X8259Y9109D01*
X8186Y9157D01*
X8100Y9174D01*
D02*
G37*
G36*
X7976Y7699D02*
X7890Y7682D01*
X7817Y7633D01*
X7768Y7560D01*
X7751Y7474D01*
X7768Y7389D01*
X7817Y7316D01*
X7890Y7267D01*
X7976Y7250D01*
X8061Y7267D01*
X8134Y7316D01*
X8183Y7389D01*
X8200Y7474D01*
X8183Y7560D01*
X8134Y7633D01*
X8061Y7682D01*
X7976Y7699D01*
D02*
G37*
G36*
X700Y7774D02*
X614Y7757D01*
X541Y7709D01*
X493Y7636D01*
X476Y7550D01*
X493Y7464D01*
X541Y7391D01*
X614Y7343D01*
X700Y7326D01*
X786Y7343D01*
X859Y7391D01*
X907Y7464D01*
X924Y7550D01*
X907Y7636D01*
X859Y7709D01*
X786Y7757D01*
X700Y7774D01*
D02*
G37*
G36*
X5700Y8024D02*
X5614Y8007D01*
X5541Y7959D01*
X5493Y7886D01*
X5476Y7800D01*
X5493Y7714D01*
X5541Y7641D01*
X5614Y7593D01*
X5700Y7576D01*
X5786Y7593D01*
X5859Y7641D01*
X5907Y7714D01*
X5924Y7800D01*
X5907Y7886D01*
X5859Y7959D01*
X5786Y8007D01*
X5700Y8024D01*
D02*
G37*
G36*
X9900Y7574D02*
X9814Y7557D01*
X9741Y7509D01*
X9693Y7436D01*
X9676Y7350D01*
X9693Y7264D01*
X9741Y7191D01*
X9814Y7143D01*
X9900Y7126D01*
X9986Y7143D01*
X10059Y7191D01*
X10107Y7264D01*
X10124Y7350D01*
X10107Y7436D01*
X10059Y7509D01*
X9986Y7557D01*
X9900Y7574D01*
D02*
G37*
G36*
X700Y7224D02*
X614Y7207D01*
X541Y7159D01*
X493Y7086D01*
X476Y7000D01*
X493Y6914D01*
X541Y6841D01*
X614Y6793D01*
X700Y6776D01*
X786Y6793D01*
X859Y6841D01*
X907Y6914D01*
X924Y7000D01*
X907Y7086D01*
X859Y7159D01*
X786Y7207D01*
X700Y7224D01*
D02*
G37*
G36*
X8800Y7274D02*
X8714Y7257D01*
X8641Y7209D01*
X8593Y7136D01*
X8576Y7050D01*
X8593Y6964D01*
X8641Y6891D01*
X8714Y6843D01*
X8800Y6826D01*
X8886Y6843D01*
X8959Y6891D01*
X9007Y6964D01*
X9024Y7050D01*
X9007Y7136D01*
X8959Y7209D01*
X8886Y7257D01*
X8800Y7274D01*
D02*
G37*
G36*
X2850Y8436D02*
X2703Y8422D01*
X2562Y8379D01*
X2432Y8310D01*
X2318Y8216D01*
X2224Y8102D01*
X2155Y7972D01*
X2112Y7831D01*
X2097Y7684D01*
X2112Y7537D01*
X2155Y7396D01*
X2224Y7266D01*
X2318Y7152D01*
X2432Y7058D01*
X2562Y6989D01*
X2703Y6946D01*
X2850Y6931D01*
X2997Y6946D01*
X3138Y6989D01*
X3268Y7058D01*
X3382Y7152D01*
X3476Y7266D01*
X3545Y7396D01*
X3588Y7537D01*
X3603Y7684D01*
X3588Y7831D01*
X3545Y7972D01*
X3476Y8102D01*
X3382Y8216D01*
X3268Y8310D01*
X3138Y8379D01*
X2997Y8422D01*
X2850Y8436D01*
D02*
G37*
G36*
X10250Y8524D02*
X10164Y8507D01*
X10091Y8459D01*
X10050Y8397D01*
X10000D01*
X9959Y8459D01*
X9886Y8507D01*
X9800Y8524D01*
X9714Y8507D01*
X9641Y8459D01*
X9593Y8386D01*
X9576Y8300D01*
X9593Y8214D01*
X9641Y8141D01*
X9714Y8093D01*
X9800Y8076D01*
X9886Y8093D01*
X9959Y8141D01*
X10000Y8203D01*
X10050D01*
X10091Y8141D01*
X10164Y8093D01*
X10250Y8076D01*
X10336Y8093D01*
X10409Y8141D01*
X10457Y8214D01*
X10474Y8300D01*
X10457Y8386D01*
X10409Y8459D01*
X10336Y8507D01*
X10250Y8524D01*
D02*
G37*
G36*
X3450Y9213D02*
X3369Y9202D01*
X3294Y9171D01*
X3229Y9121D01*
X3179Y9056D01*
X3148Y8981D01*
X3137Y8900D01*
X3148Y8819D01*
X3179Y8744D01*
X3229Y8679D01*
X3294Y8629D01*
X3369Y8598D01*
X3450Y8587D01*
X3531Y8598D01*
X3606Y8629D01*
X3671Y8679D01*
X3721Y8744D01*
X3752Y8819D01*
X3763Y8900D01*
X3752Y8981D01*
X3721Y9056D01*
X3671Y9121D01*
X3606Y9171D01*
X3531Y9202D01*
X3450Y9213D01*
D02*
G37*
G36*
X10668Y9093D02*
X10583Y9076D01*
X10510Y9027D01*
X10461Y8954D01*
X10444Y8868D01*
X10461Y8783D01*
X10510Y8710D01*
X10583Y8661D01*
X10668Y8644D01*
X10754Y8661D01*
X10827Y8710D01*
X10876Y8783D01*
X10893Y8868D01*
X10876Y8954D01*
X10827Y9027D01*
X10754Y9076D01*
X10668Y9093D01*
D02*
G37*
G36*
X7150Y8724D02*
X7064Y8707D01*
X6991Y8659D01*
X6943Y8586D01*
X6926Y8500D01*
X6943Y8414D01*
X6991Y8341D01*
X7064Y8293D01*
X7150Y8276D01*
X7236Y8293D01*
X7309Y8341D01*
X7357Y8414D01*
X7374Y8500D01*
X7357Y8586D01*
X7309Y8659D01*
X7236Y8707D01*
X7150Y8724D01*
D02*
G37*
G36*
X700Y8324D02*
X614Y8307D01*
X541Y8259D01*
X493Y8186D01*
X476Y8100D01*
X493Y8014D01*
X541Y7941D01*
X614Y7893D01*
X700Y7876D01*
X786Y7893D01*
X859Y7941D01*
X907Y8014D01*
X924Y8100D01*
X907Y8186D01*
X859Y8259D01*
X786Y8307D01*
X700Y8324D01*
D02*
G37*
G36*
X4300D02*
X4214Y8307D01*
X4141Y8259D01*
X4093Y8186D01*
X4076Y8100D01*
X4093Y8014D01*
X4141Y7941D01*
X4214Y7893D01*
X4300Y7876D01*
X4386Y7893D01*
X4459Y7941D01*
X4507Y8014D01*
X4524Y8100D01*
X4507Y8186D01*
X4459Y8259D01*
X4386Y8307D01*
X4300Y8324D01*
D02*
G37*
G36*
X7700Y8574D02*
X7614Y8557D01*
X7541Y8509D01*
X7493Y8436D01*
X7476Y8350D01*
X7493Y8264D01*
X7541Y8191D01*
X7614Y8143D01*
X7700Y8126D01*
X7786Y8143D01*
X7859Y8191D01*
X7907Y8264D01*
X7924Y8350D01*
X7907Y8436D01*
X7859Y8509D01*
X7786Y8557D01*
X7700Y8574D01*
D02*
G37*
%LPD*%
D29*
X1534Y3734D02*
D03*
X1826Y8574D02*
D03*
X900Y9250D02*
D03*
X13250Y7150D02*
D03*
X12450Y5500D02*
D03*
X2350Y400D02*
D03*
X9500Y9200D02*
D03*
X9900Y4950D02*
D03*
X8400Y5200D02*
D03*
X5650Y4700D02*
D03*
X5700Y6850D02*
D03*
X15200Y8100D02*
D03*
Y8600D02*
D03*
Y9100D02*
D03*
Y9600D02*
D03*
Y10100D02*
D03*
Y10600D02*
D03*
X14500Y10400D02*
D03*
X15200Y5100D02*
D03*
Y4600D02*
D03*
Y4100D02*
D03*
Y3600D02*
D03*
Y3100D02*
D03*
Y2600D02*
D03*
Y2100D02*
D03*
X10450Y2250D02*
D03*
X8200D02*
D03*
X12700D02*
D03*
X6100Y2500D02*
D03*
X4200Y3050D02*
D03*
X10050Y6350D02*
D03*
X4600Y9800D02*
D03*
X5850Y400D02*
D03*
X12023Y9223D02*
D03*
X9400Y7300D02*
D03*
X5250Y1400D02*
D03*
X6550Y7900D02*
D03*
X15200Y7550D02*
D03*
Y7050D02*
D03*
Y6450D02*
D03*
X8976Y9976D02*
D03*
D31*
X3450Y10250D02*
D03*
M02*
