M48
;Layer_Color=9474304
;FILE_FORMAT=2:4
INCH,LZ
;TYPE=PLATED
T1F00S00C0.0100
T2F00S00C0.0120
T3F00S00C0.0150
T4F00S00C0.0157
T5F00S00C0.0200
T6F00S00C0.0472
T7F00S00C0.0846
%
T01
X-00627Y00465
X00353Y00184
X00257Y-00323
X00228Y00553
T02
X004916Y-00569
Y-005257
Y-004823
Y-00439
X006Y-00429
Y-00479
X00601Y-00267
X00609Y00167
X00625Y00318
Y003584
Y003988
Y004392
X004726Y00418
X004293
Y003747
X004726
Y004613
X004293
X00386
Y00418
Y003747
X0018Y00405
X00045Y00458
X00005
X-00035
X-00034Y00415
X-00108Y00389
X-00142Y00363
X-00173Y00278
X-002727Y00264
Y003073
Y003507
Y00394
Y004373
X-00316
X-003593
X-004027
X-00446
X-004893
Y00394
X-00446
X-004027
X-003593
X-00316
Y003507
X-003593
X-004027
X-00446
X-004893
Y003073
Y00264
X-00446
Y003073
X-004027
Y00264
X-003593
Y003073
X-00316
Y00264
Y002207
X-003593
X-004027
X-00446
X-004893
X-00491Y00134
X-00488Y00097
X-0045Y00095
X-00424Y00121
X-00387Y00107
X-00419Y00069
X-00437Y00036
X-00421Y-00033
X-005514Y-0006
X-00604Y-00059
X-00624Y00133
X-00603Y00184
X-00583Y00255
X-00625Y00256
Y00294
X-00532Y00125
X-00332
X-0029
X-00246Y0012
X-002727Y002207
X-00038Y00228
X00009Y00201
X00332Y00144
X00195Y-00252
X0016Y-00274
X00078Y-00276
X00085Y-00348
X00128Y-00393
X0017Y-00392
X00223Y-00347
X003184Y-00439
Y-004823
Y-005257
Y-00569
X003617
Y-005257
Y-004823
Y-00439
X00405
Y-004823
Y-005257
Y-00569
X004483
Y-005257
Y-004823
Y-00439
X00205Y-00529
X00206Y-00579
X00012Y-00551
X-00035
X-00051Y-00439
X-00101Y-00334
X-00077Y-00276
X00008Y-00221
X-00252Y-00088
X-00283Y-00059
X-005237Y-002027
X-00569Y-00259
X-00578Y-00366
X-00574Y-00402
X-00606Y-00398
Y-00441
X-00432Y-00367
X-00257Y-00433
X-00202Y-00498
X-00196Y-00623
X-00246
X-003455Y-0061
X-00314Y00527
X-00282Y0055
X-0025Y00551
X-00327Y00578
X-0036Y0058
X-00403Y00608
X-004499Y00619
X-00509Y00564
X-00547Y00561
X-00621Y00527
X-00189Y00486
X-00158Y00514
X-00019Y00545
X00279Y00477
X0057
X00625Y004796
X00624Y0056
X00539Y00608
T03
X00063Y-00204
X00182Y00445
T04
X-00464Y-00504
T05
X00197Y-002064
X00473Y-00137
T06
X-00125Y-00607
X00125
T07
X-001634Y0
X001634
M30
