%FSLAX24Y24*%
%MOIN*%
G70*
G01*
G75*
G04 Layer_Color=16711935*
%ADD10C,0.0100*%
%ADD11C,0.0394*%
%ADD12C,0.0197*%
%ADD13C,0.0197*%
%ADD14R,0.0157X0.0236*%
%ADD15R,0.0236X0.0157*%
G04:AMPARAMS|DCode=16|XSize=33.5mil|YSize=17.7mil|CornerRadius=4.4mil|HoleSize=0mil|Usage=FLASHONLY|Rotation=270.000|XOffset=0mil|YOffset=0mil|HoleType=Round|Shape=RoundedRectangle|*
%AMROUNDEDRECTD16*
21,1,0.0335,0.0089,0,0,270.0*
21,1,0.0246,0.0177,0,0,270.0*
1,1,0.0089,-0.0044,-0.0123*
1,1,0.0089,-0.0044,0.0123*
1,1,0.0089,0.0044,0.0123*
1,1,0.0089,0.0044,-0.0123*
%
%ADD16ROUNDEDRECTD16*%
G04:AMPARAMS|DCode=17|XSize=63mil|YSize=98.4mil|CornerRadius=15.7mil|HoleSize=0mil|Usage=FLASHONLY|Rotation=270.000|XOffset=0mil|YOffset=0mil|HoleType=Round|Shape=RoundedRectangle|*
%AMROUNDEDRECTD17*
21,1,0.0630,0.0669,0,0,270.0*
21,1,0.0315,0.0984,0,0,270.0*
1,1,0.0315,-0.0335,-0.0157*
1,1,0.0315,-0.0335,0.0157*
1,1,0.0315,0.0335,0.0157*
1,1,0.0315,0.0335,-0.0157*
%
%ADD17ROUNDEDRECTD17*%
%ADD18R,0.0197X0.0315*%
%ADD19R,0.1024X0.0591*%
%ADD20R,0.0217X0.0098*%
%ADD21R,0.0138X0.0394*%
%ADD22R,0.1378X0.0394*%
%ADD23R,0.1339X0.0591*%
%ADD24R,0.0197X0.0354*%
%ADD25R,0.0354X0.0197*%
%ADD26R,0.0157X0.0532*%
%ADD27R,0.0748X0.0630*%
%ADD28R,0.0630X0.0551*%
%ADD29R,0.0354X0.0276*%
%ADD30R,0.0217X0.0394*%
%ADD31R,0.0157X0.0335*%
%ADD32O,0.0177X0.0532*%
%ADD33O,0.0217X0.0866*%
%ADD34R,0.0335X0.0157*%
%ADD35O,0.0276X0.0098*%
%ADD36O,0.0098X0.0276*%
%ADD37R,0.0118X0.0209*%
%ADD38R,0.0118X0.0193*%
%ADD39O,0.0315X0.0079*%
%ADD40O,0.0079X0.0315*%
%ADD41R,0.2598X0.2598*%
%ADD42R,0.2362X0.1890*%
%ADD43O,0.0315X0.0157*%
%ADD44O,0.0079X0.0295*%
%ADD45O,0.0295X0.0079*%
%ADD46R,0.1417X0.1417*%
%ADD47R,0.0217X0.0512*%
%ADD48R,0.0374X0.0335*%
%ADD49R,0.0453X0.0551*%
%ADD50C,0.0200*%
%ADD51C,0.0150*%
%ADD52C,0.0661*%
%ADD53C,0.0591*%
%ADD54C,0.0630*%
%ADD55C,0.1260*%
%ADD56C,0.0591*%
%ADD57C,0.0270*%
%ADD58C,0.0290*%
%ADD59C,0.0300*%
%ADD60C,0.0340*%
%ADD61R,0.0591X0.0236*%
%ADD62R,0.1299X0.1299*%
%ADD63O,0.0098X0.0315*%
%ADD64O,0.0315X0.0098*%
%ADD65R,0.0276X0.0354*%
%ADD66C,0.0098*%
%ADD67C,0.0157*%
%ADD68C,0.0039*%
%ADD69C,0.0050*%
%ADD70C,0.0079*%
%ADD71C,0.0047*%
%ADD72C,0.0060*%
%ADD73C,0.0040*%
%ADD74R,0.0551X0.0433*%
%ADD75R,0.0148X0.0177*%
%ADD76R,0.0217X0.0296*%
%ADD77R,0.0296X0.0217*%
G04:AMPARAMS|DCode=78|XSize=39.5mil|YSize=23.7mil|CornerRadius=7.4mil|HoleSize=0mil|Usage=FLASHONLY|Rotation=270.000|XOffset=0mil|YOffset=0mil|HoleType=Round|Shape=RoundedRectangle|*
%AMROUNDEDRECTD78*
21,1,0.0395,0.0089,0,0,270.0*
21,1,0.0246,0.0237,0,0,270.0*
1,1,0.0149,-0.0044,-0.0123*
1,1,0.0149,-0.0044,0.0123*
1,1,0.0149,0.0044,0.0123*
1,1,0.0149,0.0044,-0.0123*
%
%ADD78ROUNDEDRECTD78*%
G04:AMPARAMS|DCode=79|XSize=69mil|YSize=104.4mil|CornerRadius=18.7mil|HoleSize=0mil|Usage=FLASHONLY|Rotation=270.000|XOffset=0mil|YOffset=0mil|HoleType=Round|Shape=RoundedRectangle|*
%AMROUNDEDRECTD79*
21,1,0.0690,0.0669,0,0,270.0*
21,1,0.0315,0.1044,0,0,270.0*
1,1,0.0375,-0.0335,-0.0157*
1,1,0.0375,-0.0335,0.0157*
1,1,0.0375,0.0335,0.0157*
1,1,0.0375,0.0335,-0.0157*
%
%ADD79ROUNDEDRECTD79*%
%ADD80R,0.0257X0.0375*%
%ADD81R,0.1084X0.0651*%
%ADD82R,0.0277X0.0158*%
%ADD83R,0.0198X0.0454*%
%ADD84R,0.1438X0.0454*%
%ADD85R,0.1399X0.0651*%
%ADD86R,0.0257X0.0414*%
%ADD87R,0.0414X0.0257*%
%ADD88R,0.0236X0.0610*%
%ADD89R,0.0827X0.0709*%
%ADD90R,0.0709X0.0630*%
%ADD91R,0.0414X0.0336*%
%ADD92R,0.0277X0.0454*%
%ADD93R,0.0217X0.0395*%
%ADD94O,0.0237X0.0592*%
%ADD95O,0.0277X0.0926*%
%ADD96R,0.0395X0.0217*%
%ADD97O,0.0336X0.0158*%
%ADD98O,0.0158X0.0336*%
%ADD99R,0.0178X0.0269*%
%ADD100R,0.0178X0.0253*%
%ADD101O,0.0375X0.0139*%
%ADD102O,0.0139X0.0375*%
%ADD103R,0.2658X0.2658*%
%ADD104R,0.2422X0.1950*%
%ADD105O,0.0375X0.0217*%
%ADD106O,0.0139X0.0355*%
%ADD107O,0.0355X0.0139*%
%ADD108R,0.1477X0.1477*%
%ADD109R,0.0277X0.0572*%
%ADD110R,0.0434X0.0395*%
%ADD111R,0.0513X0.0611*%
%ADD112C,0.0721*%
%ADD113C,0.0651*%
%ADD114C,0.0690*%
%ADD115C,0.1320*%
%ADD116C,0.0651*%
%ADD117R,0.0651X0.0296*%
%ADD118R,0.1359X0.1359*%
%ADD119O,0.0158X0.0375*%
%ADD120O,0.0375X0.0158*%
%ADD121R,0.0336X0.0414*%
D76*
X43923Y27800D02*
D03*
X44277D02*
D03*
X40223Y19700D02*
D03*
X40577D02*
D03*
X40223Y20200D02*
D03*
X40577D02*
D03*
X40223Y20700D02*
D03*
X40577D02*
D03*
X42427Y28500D02*
D03*
X42073D02*
D03*
X42973Y24000D02*
D03*
X43327D02*
D03*
X50927Y20550D02*
D03*
X50573D02*
D03*
X52227Y20500D02*
D03*
X51873D02*
D03*
D112*
X55980Y15290D02*
D03*
X50730Y15270D02*
D03*
X44350Y29100D02*
D03*
X41900Y29450D02*
D03*
X45300Y28400D02*
D03*
X51300Y30360D02*
D03*
D113*
X41560Y31510D02*
D03*
X40560D02*
D03*
X45270Y17100D02*
D03*
X44270D02*
D03*
X50550Y28550D02*
D03*
X49550D02*
D03*
X48550D02*
D03*
X47550D02*
D03*
X46550D02*
D03*
X47400Y21650D02*
D03*
X48400D02*
D03*
X49400D02*
D03*
X48850Y18050D02*
D03*
X47850D02*
D03*
D114*
X49690Y15380D02*
D03*
X47190D02*
D03*
D115*
X43450Y18666D02*
D03*
Y21934D02*
D03*
D116*
X46250Y23850D02*
D03*
Y22850D02*
D03*
Y21850D02*
D03*
Y24850D02*
D03*
X50400Y21650D02*
D03*
D117*
X41226Y19726D02*
D03*
Y20474D02*
D03*
X41974Y20100D02*
D03*
D118*
X48700Y19850D02*
D03*
D119*
X49389Y20834D02*
D03*
X49192D02*
D03*
X48995D02*
D03*
X48798D02*
D03*
X48602D02*
D03*
X48405D02*
D03*
X48208D02*
D03*
X48011D02*
D03*
Y18866D02*
D03*
X48208D02*
D03*
X48405D02*
D03*
X48602D02*
D03*
X48798D02*
D03*
X48995D02*
D03*
X49192D02*
D03*
X49389D02*
D03*
D120*
X47716Y20539D02*
D03*
Y20342D02*
D03*
Y20145D02*
D03*
Y19948D02*
D03*
Y19752D02*
D03*
Y19555D02*
D03*
Y19358D02*
D03*
Y19161D02*
D03*
X49684D02*
D03*
Y19358D02*
D03*
Y19555D02*
D03*
Y19752D02*
D03*
Y19948D02*
D03*
Y20145D02*
D03*
Y20342D02*
D03*
Y20539D02*
D03*
D121*
X51856Y21076D02*
D03*
X51344D02*
D03*
X51600Y21824D02*
D03*
M02*
