%FSLAX24Y24*%
%MOIN*%
G70*
G01*
G75*
G04 Layer_Physical_Order=2*
G04 Layer_Color=16711680*
%ADD10C,0.0100*%
%ADD11C,0.0394*%
%ADD12C,0.0197*%
%ADD13C,0.0197*%
%ADD14R,0.0157X0.0236*%
%ADD15R,0.0236X0.0157*%
G04:AMPARAMS|DCode=16|XSize=33.5mil|YSize=17.7mil|CornerRadius=4.4mil|HoleSize=0mil|Usage=FLASHONLY|Rotation=270.000|XOffset=0mil|YOffset=0mil|HoleType=Round|Shape=RoundedRectangle|*
%AMROUNDEDRECTD16*
21,1,0.0335,0.0089,0,0,270.0*
21,1,0.0246,0.0177,0,0,270.0*
1,1,0.0089,-0.0044,-0.0123*
1,1,0.0089,-0.0044,0.0123*
1,1,0.0089,0.0044,0.0123*
1,1,0.0089,0.0044,-0.0123*
%
%ADD16ROUNDEDRECTD16*%
G04:AMPARAMS|DCode=17|XSize=63mil|YSize=98.4mil|CornerRadius=15.7mil|HoleSize=0mil|Usage=FLASHONLY|Rotation=270.000|XOffset=0mil|YOffset=0mil|HoleType=Round|Shape=RoundedRectangle|*
%AMROUNDEDRECTD17*
21,1,0.0630,0.0669,0,0,270.0*
21,1,0.0315,0.0984,0,0,270.0*
1,1,0.0315,-0.0335,-0.0157*
1,1,0.0315,-0.0335,0.0157*
1,1,0.0315,0.0335,0.0157*
1,1,0.0315,0.0335,-0.0157*
%
%ADD17ROUNDEDRECTD17*%
%ADD18R,0.0197X0.0315*%
%ADD19R,0.1024X0.0591*%
%ADD20R,0.0217X0.0098*%
%ADD21R,0.0138X0.0394*%
%ADD22R,0.1378X0.0394*%
%ADD23R,0.1339X0.0591*%
%ADD24R,0.0197X0.0354*%
%ADD25R,0.0354X0.0197*%
%ADD26R,0.0157X0.0532*%
%ADD27R,0.0748X0.0630*%
%ADD28R,0.0630X0.0551*%
%ADD29R,0.0354X0.0276*%
%ADD30R,0.0217X0.0394*%
%ADD31R,0.0157X0.0335*%
%ADD32O,0.0177X0.0532*%
%ADD33O,0.0217X0.0866*%
%ADD34R,0.0335X0.0157*%
%ADD35O,0.0276X0.0098*%
%ADD36O,0.0098X0.0276*%
%ADD37R,0.0118X0.0209*%
%ADD38R,0.0118X0.0193*%
%ADD39O,0.0315X0.0079*%
%ADD40O,0.0079X0.0315*%
%ADD41R,0.2598X0.2598*%
%ADD42R,0.2362X0.1890*%
%ADD43O,0.0315X0.0157*%
%ADD44O,0.0079X0.0295*%
%ADD45O,0.0295X0.0079*%
%ADD46R,0.1417X0.1417*%
%ADD47R,0.0217X0.0512*%
%ADD48R,0.0374X0.0335*%
%ADD49R,0.0453X0.0551*%
%ADD50C,0.0200*%
%ADD51C,0.0150*%
%ADD52C,0.0661*%
%ADD53C,0.0591*%
%ADD54C,0.0630*%
%ADD55C,0.1260*%
%ADD56C,0.0591*%
%ADD57C,0.0270*%
%ADD58C,0.0290*%
%ADD59C,0.0300*%
%ADD60C,0.0340*%
%ADD61R,0.0591X0.0236*%
%ADD62R,0.1299X0.1299*%
%ADD63O,0.0098X0.0315*%
%ADD64O,0.0315X0.0098*%
%ADD65R,0.0276X0.0354*%
G36*
X58790Y25480D02*
X54682D01*
Y23959D01*
X54671Y23942D01*
X54621Y23937D01*
X54412Y24146D01*
X54419Y24180D01*
X54404Y24256D01*
X54361Y24321D01*
X54296Y24364D01*
X54220Y24379D01*
X54144Y24364D01*
X54079Y24321D01*
X54036Y24256D01*
X54021Y24180D01*
X54036Y24104D01*
X54079Y24039D01*
X54144Y23996D01*
X54220Y23981D01*
X54254Y23988D01*
X54458Y23784D01*
Y22686D01*
X54254Y22482D01*
X54220Y22489D01*
X54144Y22474D01*
X54079Y22431D01*
X54036Y22366D01*
X54021Y22290D01*
X54036Y22214D01*
X54079Y22149D01*
X54144Y22106D01*
X54220Y22091D01*
X54296Y22106D01*
X54361Y22149D01*
X54404Y22214D01*
X54419Y22290D01*
X54412Y22324D01*
X54621Y22533D01*
X54671Y22528D01*
X54682Y22511D01*
Y19363D01*
X58790D01*
Y14770D01*
X38790D01*
Y33303D01*
X58790D01*
Y25480D01*
D02*
G37*
%LPC*%
G36*
X49400Y22008D02*
X49307Y21996D01*
X49221Y21960D01*
X49147Y21903D01*
X49090Y21829D01*
X49054Y21743D01*
X49042Y21650D01*
X49054Y21557D01*
X49087Y21477D01*
X49080Y21442D01*
X49080Y21442D01*
Y21382D01*
X49078Y21366D01*
X49080D01*
Y21352D01*
X49068Y21226D01*
X49036Y21209D01*
X48929Y21279D01*
X48929Y21279D01*
Y21279D01*
X48893Y21304D01*
X48850Y21312D01*
X48850Y21312D01*
X48621D01*
X48605Y21360D01*
X48653Y21397D01*
X48710Y21471D01*
X48746Y21557D01*
X48758Y21650D01*
X48746Y21743D01*
X48710Y21829D01*
X48653Y21903D01*
X48579Y21960D01*
X48493Y21996D01*
X48400Y22008D01*
X48307Y21996D01*
X48221Y21960D01*
X48147Y21903D01*
X48090Y21829D01*
X48054Y21743D01*
X48042Y21650D01*
X47994Y21634D01*
X47899Y21729D01*
X47863Y21754D01*
X47820Y21762D01*
D01*
D01*
D01*
D01*
X47820Y21763D01*
X47820Y21763D01*
Y21763D01*
X47819Y21763D01*
X47772Y21772D01*
X47732Y21799D01*
X47713Y21827D01*
X47713Y21827D01*
X47713Y21827D01*
X47711Y21828D01*
X47710Y21829D01*
X47653Y21903D01*
X47579Y21960D01*
X47493Y21996D01*
X47400Y22008D01*
X47307Y21996D01*
X47221Y21960D01*
X47147Y21903D01*
X47090Y21829D01*
X47054Y21743D01*
X47042Y21650D01*
X47054Y21557D01*
X47090Y21471D01*
X47147Y21397D01*
X47221Y21340D01*
X47307Y21304D01*
X47400Y21292D01*
X47493Y21304D01*
X47579Y21340D01*
X47653Y21397D01*
X47710Y21471D01*
X47711Y21472D01*
X47713Y21473D01*
X47713Y21473D01*
X47713Y21473D01*
X47732Y21501D01*
X47772Y21528D01*
X47782Y21530D01*
X48191Y21121D01*
X48191Y21121D01*
X48227Y21096D01*
X48270Y21088D01*
X48270Y21088D01*
X48340D01*
X48354Y21040D01*
X48326Y21021D01*
X48302Y20985D01*
X48293Y20943D01*
Y20726D01*
X48302Y20683D01*
X48326Y20647D01*
X48362Y20623D01*
X48405Y20615D01*
X48447Y20623D01*
X48483Y20647D01*
X48523D01*
X48559Y20623D01*
X48602Y20615D01*
X48644Y20623D01*
X48680Y20647D01*
X48720D01*
X48756Y20623D01*
X48798Y20615D01*
X48841Y20623D01*
X48877Y20647D01*
X48917D01*
X48953Y20623D01*
X48995Y20615D01*
X49038Y20623D01*
X49074Y20647D01*
X49113D01*
X49150Y20623D01*
X49192Y20615D01*
X49235Y20623D01*
X49271Y20647D01*
X49310D01*
X49346Y20623D01*
X49389Y20615D01*
X49432Y20623D01*
X49450Y20636D01*
X49486Y20600D01*
X49473Y20582D01*
X49465Y20539D01*
X49473Y20496D01*
X49497Y20460D01*
Y20421D01*
X49473Y20385D01*
X49465Y20342D01*
X49473Y20300D01*
X49497Y20263D01*
Y20224D01*
X49473Y20188D01*
X49465Y20145D01*
X49473Y20103D01*
X49497Y20067D01*
X49533Y20042D01*
X49576Y20034D01*
X49793D01*
X49835Y20042D01*
X49871Y20067D01*
X49895Y20103D01*
X49904Y20145D01*
X49895Y20188D01*
X49958Y20230D01*
X50005D01*
X50016Y20174D01*
X50059Y20109D01*
X50124Y20066D01*
X50200Y20051D01*
X50222Y20056D01*
X50228Y20043D01*
X50204Y20000D01*
X50200Y19999D01*
X50201Y19999D01*
X50204Y20000D01*
X50204Y19999D01*
X50201Y19999D01*
X50200Y19999D01*
X50124Y19984D01*
X50059Y19941D01*
X50016Y19876D01*
X50001Y19800D01*
X50016Y19724D01*
X50059Y19659D01*
X50124Y19616D01*
X50200Y19601D01*
X50276Y19616D01*
X50341Y19659D01*
X50384Y19724D01*
X50399Y19800D01*
X50399Y19801D01*
X50405Y19835D01*
X50425Y19865D01*
X50424Y19866D01*
X50424Y19866D01*
X50619Y20061D01*
X51173D01*
X51173Y20061D01*
X51216Y20069D01*
X51252Y20094D01*
X51563Y20405D01*
X51734D01*
Y20322D01*
X52012D01*
Y20678D01*
X51968D01*
Y20825D01*
X51969D01*
X51972Y20839D01*
X52054D01*
Y21313D01*
X51658D01*
Y20839D01*
X51740D01*
X51743Y20825D01*
X51744D01*
Y20678D01*
X51734D01*
Y20629D01*
X51517D01*
X51474Y20621D01*
X51438Y20596D01*
X51438Y20596D01*
X51126Y20285D01*
X50685D01*
Y20372D01*
X50712D01*
Y20722D01*
X51102D01*
X51102Y20722D01*
X51145Y20731D01*
X51182Y20755D01*
X51206Y20780D01*
D01*
D01*
X51210Y20783D01*
X51269Y20823D01*
X51343Y20837D01*
X51344Y20837D01*
Y20837D01*
X51355Y20839D01*
X51542D01*
Y21313D01*
X51146D01*
Y21047D01*
X51144Y21037D01*
X51144Y21037D01*
D01*
X51143D01*
D01*
X51141Y21037D01*
X51141D01*
D01*
D01*
Y21037D01*
X51141Y21035D01*
D01*
D01*
D01*
X51141Y21035D01*
X51141Y21035D01*
X51140Y21031D01*
X51056Y20946D01*
X49500D01*
X49492Y20985D01*
X49468Y21021D01*
X49432Y21045D01*
X49396Y21052D01*
X49384Y21078D01*
X49379Y21105D01*
X49414Y21170D01*
X49495Y21269D01*
X49593Y21350D01*
X49597Y21352D01*
X49596Y21353D01*
X49607Y21361D01*
X49614Y21366D01*
X49615Y21367D01*
X49653Y21397D01*
X49710Y21471D01*
X49746Y21557D01*
X49758Y21650D01*
X49746Y21743D01*
X49710Y21829D01*
X49653Y21903D01*
X49579Y21960D01*
X49493Y21996D01*
X49400Y22008D01*
D02*
G37*
G36*
X48011Y21054D02*
X47968Y21045D01*
X47932Y21021D01*
X47908Y20985D01*
X47900Y20943D01*
Y20726D01*
X47908Y20683D01*
X47932Y20647D01*
X47968Y20623D01*
X48011Y20615D01*
X48054Y20623D01*
X48090Y20647D01*
X48114Y20683D01*
X48122Y20726D01*
Y20943D01*
X48114Y20985D01*
X48090Y21021D01*
X48054Y21045D01*
X48011Y21054D01*
D02*
G37*
G36*
X47824Y20453D02*
X47607D01*
X47565Y20445D01*
X47529Y20421D01*
X47505Y20385D01*
X47496Y20342D01*
X47505Y20300D01*
X47529Y20263D01*
Y20224D01*
X47505Y20188D01*
X47496Y20145D01*
X47505Y20103D01*
X47529Y20067D01*
Y20027D01*
X47505Y19991D01*
X47496Y19948D01*
X47505Y19906D01*
X47529Y19870D01*
X47565Y19846D01*
X47607Y19837D01*
X47824D01*
X47867Y19846D01*
X47903Y19870D01*
X47927Y19906D01*
X47935Y19948D01*
X47927Y19991D01*
X47903Y20027D01*
Y20067D01*
X47927Y20103D01*
X47935Y20145D01*
X47927Y20188D01*
X47903Y20224D01*
Y20263D01*
X47927Y20300D01*
X47935Y20342D01*
X47927Y20385D01*
X47903Y20421D01*
X47867Y20445D01*
X47824Y20453D01*
D02*
G37*
G36*
X51798Y22061D02*
X51402D01*
Y21940D01*
X51388Y21937D01*
Y21936D01*
X51171D01*
Y21937D01*
X51157Y21936D01*
X50929D01*
Y21938D01*
X50911Y21936D01*
X50688D01*
Y21939D01*
X50667Y21936D01*
X50611D01*
X50579Y21960D01*
X50493Y21996D01*
X50400Y22008D01*
X50307Y21996D01*
X50221Y21960D01*
X50147Y21903D01*
X50090Y21829D01*
X50054Y21743D01*
X50042Y21650D01*
X50054Y21557D01*
X50090Y21471D01*
X50147Y21397D01*
X50221Y21340D01*
X50307Y21304D01*
X50400Y21292D01*
X50493Y21304D01*
X50579Y21340D01*
X50653Y21397D01*
X50657Y21402D01*
X50781Y21507D01*
X50924Y21595D01*
X51080Y21660D01*
X51244Y21699D01*
X51365Y21709D01*
X51402Y21675D01*
Y21587D01*
X51798D01*
Y22061D01*
D02*
G37*
G36*
X46250Y22208D02*
X46157Y22196D01*
X46071Y22160D01*
X45997Y22103D01*
X45940Y22029D01*
X45904Y21943D01*
X45892Y21850D01*
X45893Y21843D01*
X45879Y21709D01*
X45838Y21574D01*
X45772Y21449D01*
X45686Y21344D01*
X45566Y21224D01*
X45566D01*
X45565Y21225D01*
X45535Y21205D01*
X45501Y21199D01*
X45500Y21199D01*
X45424Y21184D01*
X45359Y21141D01*
X45316Y21076D01*
X45301Y21000D01*
X45316Y20924D01*
X45359Y20859D01*
X45424Y20816D01*
X45500Y20801D01*
X45576Y20816D01*
X45641Y20859D01*
X45684Y20924D01*
X45699Y21000D01*
X45699Y21001D01*
X45705Y21035D01*
X45725Y21065D01*
X45724Y21066D01*
Y21066D01*
X45840Y21181D01*
X45842Y21180D01*
Y21180D01*
X45842Y21180D01*
X45842Y21180D01*
X45842Y21180D01*
X45842D01*
X45857Y21199D01*
X46010Y21351D01*
X46011D01*
X46011D01*
X46020Y21361D01*
X46081Y21423D01*
X46081D01*
Y21423D01*
Y21423D01*
X46088Y21429D01*
X46158Y21476D01*
X46242Y21493D01*
X46250Y21492D01*
X46343Y21504D01*
X46429Y21540D01*
X46503Y21597D01*
X46560Y21671D01*
X46596Y21757D01*
X46608Y21850D01*
X46596Y21943D01*
X46560Y22029D01*
X46503Y22103D01*
X46429Y22160D01*
X46343Y22196D01*
X46250Y22208D01*
D02*
G37*
G36*
X43450Y22627D02*
X43315Y22614D01*
X43185Y22574D01*
X43065Y22510D01*
X42960Y22424D01*
X42874Y22319D01*
X42810Y22199D01*
X42770Y22069D01*
X42757Y21934D01*
X42770Y21799D01*
X42810Y21669D01*
X42874Y21549D01*
X42960Y21444D01*
X43065Y21357D01*
X43185Y21293D01*
X43315Y21254D01*
X43450Y21241D01*
X43585Y21254D01*
X43715Y21293D01*
X43835Y21357D01*
X43940Y21444D01*
X44026Y21549D01*
X44090Y21669D01*
X44130Y21799D01*
X44143Y21934D01*
X44130Y22069D01*
X44090Y22199D01*
X44026Y22319D01*
X43940Y22424D01*
X43835Y22510D01*
X43715Y22574D01*
X43585Y22614D01*
X43450Y22627D01*
D02*
G37*
G36*
X47150Y19749D02*
X47074Y19734D01*
X47009Y19691D01*
X46966Y19626D01*
X46951Y19550D01*
X46966Y19474D01*
X47009Y19409D01*
X47074Y19366D01*
X47150Y19351D01*
X47226Y19366D01*
X47291Y19409D01*
X47292Y19411D01*
X47325Y19434D01*
X47367Y19442D01*
Y19443D01*
X47442D01*
X47505Y19400D01*
X47496Y19358D01*
X47505Y19315D01*
X47529Y19279D01*
X47565Y19255D01*
X47607Y19247D01*
X47824D01*
X47867Y19255D01*
X47903Y19279D01*
X47927Y19315D01*
X47935Y19358D01*
X47927Y19400D01*
X47903Y19437D01*
Y19476D01*
X47927Y19512D01*
X47935Y19555D01*
X47927Y19597D01*
X47903Y19633D01*
X47867Y19658D01*
X47824Y19666D01*
X47720D01*
X47716Y19667D01*
X47367D01*
Y19668D01*
X47361Y19667D01*
X47344D01*
Y19668D01*
X47315Y19674D01*
X47291Y19690D01*
X47291Y19691D01*
X47226Y19734D01*
X47150Y19749D01*
D02*
G37*
G36*
X47190Y15758D02*
X47092Y15745D01*
X47001Y15708D01*
X46923Y15647D01*
X46862Y15569D01*
X46825Y15478D01*
X46812Y15380D01*
X46825Y15282D01*
X46862Y15191D01*
X46923Y15113D01*
X47001Y15052D01*
X47092Y15015D01*
X47190Y15002D01*
X47288Y15015D01*
X47379Y15052D01*
X47457Y15113D01*
X47518Y15191D01*
X47555Y15282D01*
X47568Y15380D01*
X47555Y15478D01*
X47518Y15569D01*
X47457Y15647D01*
X47379Y15708D01*
X47288Y15745D01*
X47190Y15758D01*
D02*
G37*
G36*
X55980Y15684D02*
X55878Y15671D01*
X55783Y15631D01*
X55701Y15569D01*
X55639Y15487D01*
X55599Y15392D01*
X55586Y15290D01*
X55599Y15188D01*
X55639Y15093D01*
X55701Y15011D01*
X55783Y14949D01*
X55878Y14909D01*
X55980Y14896D01*
X56082Y14909D01*
X56177Y14949D01*
X56259Y15011D01*
X56321Y15093D01*
X56361Y15188D01*
X56374Y15290D01*
X56361Y15392D01*
X56321Y15487D01*
X56259Y15569D01*
X56177Y15631D01*
X56082Y15671D01*
X55980Y15684D01*
D02*
G37*
G36*
X50730Y15664D02*
X50628Y15651D01*
X50533Y15611D01*
X50451Y15549D01*
X50389Y15467D01*
X50349Y15372D01*
X50336Y15270D01*
X50349Y15168D01*
X50389Y15073D01*
X50451Y14991D01*
X50533Y14929D01*
X50628Y14889D01*
X50730Y14876D01*
X50832Y14889D01*
X50927Y14929D01*
X51009Y14991D01*
X51071Y15073D01*
X51111Y15168D01*
X51124Y15270D01*
X51111Y15372D01*
X51071Y15467D01*
X51009Y15549D01*
X50927Y15611D01*
X50832Y15651D01*
X50730Y15664D01*
D02*
G37*
G36*
X49690Y15758D02*
X49592Y15745D01*
X49501Y15708D01*
X49423Y15647D01*
X49362Y15569D01*
X49325Y15478D01*
X49312Y15380D01*
X49325Y15282D01*
X49362Y15191D01*
X49423Y15113D01*
X49501Y15052D01*
X49592Y15015D01*
X49690Y15002D01*
X49788Y15015D01*
X49879Y15052D01*
X49957Y15113D01*
X50018Y15191D01*
X50055Y15282D01*
X50068Y15380D01*
X50055Y15478D01*
X50018Y15569D01*
X49957Y15647D01*
X49879Y15708D01*
X49788Y15745D01*
X49690Y15758D01*
D02*
G37*
G36*
X49793Y19863D02*
X49576D01*
X49533Y19854D01*
X49497Y19830D01*
X49473Y19794D01*
X49465Y19752D01*
X49473Y19709D01*
X49497Y19673D01*
Y19633D01*
X49473Y19597D01*
X49465Y19555D01*
X49473Y19512D01*
X49497Y19476D01*
Y19437D01*
X49473Y19400D01*
X49465Y19358D01*
X49473Y19315D01*
X49497Y19279D01*
Y19240D01*
X49473Y19204D01*
X49465Y19161D01*
X49473Y19118D01*
X49486Y19100D01*
X49450Y19064D01*
X49432Y19077D01*
X49389Y19085D01*
X49346Y19077D01*
X49310Y19053D01*
X49271D01*
X49235Y19077D01*
X49192Y19085D01*
X49150Y19077D01*
X49113Y19053D01*
X49074D01*
X49038Y19077D01*
X48995Y19085D01*
X48953Y19077D01*
X48917Y19053D01*
X48877D01*
X48841Y19077D01*
X48798Y19085D01*
X48756Y19077D01*
X48720Y19053D01*
X48680D01*
X48644Y19077D01*
X48602Y19085D01*
X48559Y19077D01*
X48523Y19053D01*
X48483D01*
X48447Y19077D01*
X48405Y19085D01*
X48362Y19077D01*
X48326Y19053D01*
X48287D01*
X48250Y19077D01*
X48208Y19085D01*
X48165Y19077D01*
X48129Y19053D01*
X48090D01*
X48054Y19077D01*
X48011Y19085D01*
X47968Y19077D01*
X47932Y19053D01*
X47908Y19017D01*
X47900Y18978D01*
X47866D01*
X47823Y18969D01*
X47786Y18945D01*
X47786Y18945D01*
X47666Y18824D01*
X47666Y18824D01*
X47665Y18825D01*
X47665Y18825D01*
X47661Y18822D01*
X47600Y18835D01*
X47510Y18817D01*
X47434Y18766D01*
X47383Y18690D01*
X47365Y18600D01*
X47383Y18510D01*
X47434Y18434D01*
X47510Y18383D01*
X47600Y18365D01*
X47610Y18314D01*
X47597Y18303D01*
X47540Y18229D01*
X47504Y18143D01*
X47492Y18050D01*
X47504Y17957D01*
X47540Y17871D01*
X47597Y17797D01*
X47671Y17740D01*
X47757Y17704D01*
X47850Y17692D01*
X47943Y17704D01*
X48029Y17740D01*
X48103Y17797D01*
X48160Y17871D01*
X48196Y17957D01*
X48208Y18050D01*
X48205Y18075D01*
X48206Y18079D01*
X48204Y18087D01*
X48208Y18092D01*
X48208Y18092D01*
X48203Y18125D01*
X48213Y18200D01*
X48242Y18269D01*
X48283Y18323D01*
X48289Y18327D01*
X48287Y18329D01*
X48287Y18329D01*
X48287Y18329D01*
X48287Y18329D01*
X48311Y18365D01*
X48313Y18366D01*
X48335Y18374D01*
X48361Y18380D01*
X48429Y18291D01*
X48477Y18175D01*
X48493Y18058D01*
X48492Y18050D01*
X48504Y17957D01*
X48540Y17871D01*
X48597Y17797D01*
X48671Y17740D01*
X48757Y17704D01*
X48850Y17692D01*
X48943Y17704D01*
X49029Y17740D01*
X49103Y17797D01*
X49160Y17871D01*
X49196Y17957D01*
X49208Y18050D01*
X49196Y18143D01*
X49160Y18229D01*
X49103Y18303D01*
X49029Y18360D01*
X48943Y18396D01*
X48850Y18408D01*
X48842Y18407D01*
X48725Y18423D01*
X48609Y18471D01*
X48518Y18540D01*
X48517Y18542D01*
Y18592D01*
X48559Y18655D01*
X48602Y18646D01*
X48644Y18655D01*
X48680Y18679D01*
X48720D01*
X48756Y18655D01*
X48798Y18646D01*
X48841Y18655D01*
X48877Y18679D01*
X48917D01*
X48953Y18655D01*
X48995Y18646D01*
X49038Y18655D01*
X49074Y18679D01*
X49113D01*
X49150Y18655D01*
X49192Y18646D01*
X49235Y18655D01*
X49271Y18679D01*
X49310D01*
X49346Y18655D01*
X49389Y18646D01*
X49432Y18655D01*
X49468Y18679D01*
X49492Y18715D01*
X49500Y18757D01*
Y18974D01*
X49492Y19017D01*
X49479Y19035D01*
X49515Y19071D01*
X49533Y19058D01*
X49576Y19050D01*
X49793D01*
X49835Y19058D01*
X49871Y19082D01*
X49895Y19118D01*
X49904Y19161D01*
X49895Y19204D01*
X49871Y19240D01*
Y19279D01*
X49895Y19315D01*
X49904Y19358D01*
X49895Y19400D01*
X49871Y19437D01*
Y19476D01*
X49895Y19512D01*
X49904Y19555D01*
X49895Y19597D01*
X49871Y19633D01*
Y19673D01*
X49895Y19709D01*
X49904Y19752D01*
X49895Y19794D01*
X49871Y19830D01*
X49835Y19854D01*
X49793Y19863D01*
D02*
G37*
G36*
X43450Y19359D02*
X43315Y19346D01*
X43185Y19307D01*
X43065Y19243D01*
X42960Y19156D01*
X42874Y19051D01*
X42810Y18931D01*
X42770Y18801D01*
X42757Y18666D01*
X42770Y18531D01*
X42810Y18401D01*
X42874Y18281D01*
X42960Y18176D01*
X43065Y18090D01*
X43185Y18026D01*
X43315Y17986D01*
X43450Y17973D01*
X43585Y17986D01*
X43715Y18026D01*
X43835Y18090D01*
X43940Y18176D01*
X44026Y18281D01*
X44090Y18401D01*
X44130Y18531D01*
X44143Y18666D01*
X44130Y18801D01*
X44090Y18931D01*
X44026Y19051D01*
X43940Y19156D01*
X43835Y19243D01*
X43715Y19307D01*
X43585Y19346D01*
X43450Y19359D01*
D02*
G37*
G36*
X52890Y16633D02*
X46620D01*
X46558Y16621D01*
X46531Y16603D01*
X46484Y16594D01*
X46419Y16551D01*
X46376Y16486D01*
X46361Y16410D01*
X46376Y16334D01*
X46419Y16269D01*
X46484Y16226D01*
X46560Y16211D01*
X46636Y16226D01*
X46701Y16269D01*
X46701Y16271D01*
X46730Y16290D01*
X46765Y16297D01*
Y16297D01*
Y16298D01*
X46808Y16306D01*
X46809Y16307D01*
X52822D01*
X53236Y15893D01*
X53235Y15890D01*
X53253Y15800D01*
X53304Y15724D01*
X53380Y15673D01*
X53470Y15655D01*
X53560Y15673D01*
X53636Y15724D01*
X53687Y15800D01*
X53705Y15890D01*
X53687Y15980D01*
X53636Y16056D01*
X53560Y16107D01*
X53470Y16125D01*
X53467Y16124D01*
X53005Y16585D01*
X52952Y16621D01*
X52890Y16633D01*
D02*
G37*
G36*
X40500Y29485D02*
X40410Y29467D01*
X40334Y29416D01*
X40283Y29340D01*
X40265Y29250D01*
X40283Y29160D01*
X40334Y29084D01*
X40388Y29048D01*
Y28800D01*
X40388Y28800D01*
X40396Y28757D01*
X40421Y28721D01*
X40576Y28566D01*
X40575Y28565D01*
X40575Y28565D01*
X40578Y28561D01*
X40565Y28500D01*
X40583Y28410D01*
X40634Y28334D01*
X40710Y28283D01*
X40800Y28265D01*
X40890Y28283D01*
X40966Y28334D01*
X41017Y28410D01*
X41035Y28500D01*
X41017Y28590D01*
X40966Y28666D01*
X40890Y28717D01*
X40800Y28735D01*
X40739Y28722D01*
X40735Y28725D01*
X40734Y28724D01*
X40612Y28846D01*
Y29048D01*
X40666Y29084D01*
X40717Y29160D01*
X40735Y29250D01*
X40717Y29340D01*
X40666Y29416D01*
X40590Y29467D01*
X40500Y29485D01*
D02*
G37*
G36*
X45300Y28794D02*
X45198Y28781D01*
X45103Y28741D01*
X45021Y28679D01*
X44959Y28597D01*
X44919Y28502D01*
X44906Y28400D01*
X44919Y28298D01*
X44959Y28203D01*
X45021Y28121D01*
X45103Y28059D01*
X45198Y28019D01*
X45300Y28006D01*
X45402Y28019D01*
X45497Y28059D01*
X45579Y28121D01*
X45641Y28203D01*
X45681Y28298D01*
X45694Y28400D01*
X45681Y28502D01*
X45641Y28597D01*
X45579Y28679D01*
X45497Y28741D01*
X45402Y28781D01*
X45300Y28794D01*
D02*
G37*
G36*
X48550Y28908D02*
X48457Y28896D01*
X48371Y28860D01*
X48297Y28803D01*
X48240Y28729D01*
X48204Y28643D01*
X48192Y28550D01*
X48204Y28457D01*
X48240Y28371D01*
X48297Y28297D01*
X48303Y28292D01*
X48375Y28198D01*
X48398Y28141D01*
X48394Y28121D01*
X48400Y28092D01*
X48396Y28091D01*
X48405Y28043D01*
X48391Y27970D01*
X48377Y27950D01*
X48377Y27950D01*
X48378Y27944D01*
X48366Y27926D01*
X48351Y27850D01*
X48366Y27774D01*
X48409Y27709D01*
X48474Y27666D01*
X48550Y27651D01*
X48626Y27666D01*
X48691Y27709D01*
X48734Y27774D01*
X48749Y27850D01*
X48734Y27926D01*
X48722Y27944D01*
X48723Y27950D01*
X48723Y27950D01*
X48709Y27970D01*
X48695Y28043D01*
X48704Y28091D01*
X48700Y28092D01*
X48706Y28121D01*
X48702Y28141D01*
X48725Y28198D01*
X48797Y28292D01*
X48803Y28297D01*
X48860Y28371D01*
X48896Y28457D01*
X48908Y28550D01*
X48896Y28643D01*
X48860Y28729D01*
X48803Y28803D01*
X48729Y28860D01*
X48643Y28896D01*
X48550Y28908D01*
D02*
G37*
G36*
X41900Y29844D02*
X41798Y29831D01*
X41703Y29791D01*
X41621Y29729D01*
X41559Y29647D01*
X41519Y29552D01*
X41506Y29450D01*
X41519Y29348D01*
X41559Y29253D01*
X41621Y29171D01*
X41703Y29109D01*
X41798Y29069D01*
X41900Y29056D01*
X42002Y29069D01*
X42097Y29109D01*
X42179Y29171D01*
X42241Y29253D01*
X42281Y29348D01*
X42294Y29450D01*
X42281Y29552D01*
X42241Y29647D01*
X42179Y29729D01*
X42097Y29791D01*
X42002Y29831D01*
X41900Y29844D01*
D02*
G37*
G36*
X41560Y31868D02*
X41467Y31856D01*
X41381Y31820D01*
X41307Y31763D01*
X41250Y31689D01*
X41214Y31603D01*
X41202Y31510D01*
X41214Y31417D01*
X41250Y31331D01*
X41307Y31257D01*
X41381Y31200D01*
X41467Y31164D01*
X41560Y31152D01*
X41653Y31164D01*
X41739Y31200D01*
X41813Y31257D01*
X41870Y31331D01*
X41906Y31417D01*
X41918Y31510D01*
X41906Y31603D01*
X41870Y31689D01*
X41813Y31763D01*
X41739Y31820D01*
X41653Y31856D01*
X41560Y31868D01*
D02*
G37*
G36*
X51300Y30754D02*
X51198Y30741D01*
X51103Y30701D01*
X51021Y30639D01*
X50959Y30557D01*
X50919Y30462D01*
X50906Y30360D01*
X50919Y30258D01*
X50955Y30173D01*
X50094Y29312D01*
X48610D01*
X48591Y29341D01*
X48526Y29384D01*
X48450Y29399D01*
X48374Y29384D01*
X48309Y29341D01*
X48266Y29276D01*
X48251Y29200D01*
X48258Y29166D01*
X47921Y28829D01*
X47896Y28793D01*
X47891Y28764D01*
X47842Y28753D01*
X47803Y28803D01*
X47729Y28860D01*
X47643Y28896D01*
X47550Y28908D01*
X47457Y28896D01*
X47371Y28860D01*
X47297Y28803D01*
X47240Y28729D01*
X47204Y28643D01*
X47192Y28550D01*
X47204Y28457D01*
X47240Y28371D01*
X47297Y28297D01*
X47319Y28280D01*
X47321Y28277D01*
X47328Y28271D01*
X47330Y28265D01*
Y28265D01*
X47357Y28244D01*
X47401Y28187D01*
X47428Y28121D01*
X47437Y28056D01*
X47436Y28050D01*
X47438D01*
Y28050D01*
X47438Y28050D01*
X47446Y28007D01*
X47471Y27971D01*
X48071Y27371D01*
X48071Y27371D01*
X48107Y27346D01*
X48150Y27338D01*
X48150Y27338D01*
X48695D01*
Y27337D01*
Y27337D01*
X48730Y27330D01*
X48759Y27311D01*
X48759Y27309D01*
X48824Y27266D01*
X48846Y27262D01*
X48841Y27212D01*
X48046D01*
X47048Y28211D01*
X47048Y28211D01*
X47049Y28211D01*
X47040Y28218D01*
X46971Y28309D01*
X46923Y28425D01*
X46907Y28542D01*
X46908Y28550D01*
X46896Y28643D01*
X46860Y28729D01*
X46803Y28803D01*
X46729Y28860D01*
X46643Y28896D01*
X46550Y28908D01*
X46457Y28896D01*
X46371Y28860D01*
X46297Y28803D01*
X46240Y28729D01*
X46204Y28643D01*
X46192Y28550D01*
X46204Y28457D01*
X46240Y28371D01*
X46297Y28297D01*
X46371Y28240D01*
X46457Y28204D01*
X46550Y28192D01*
X46558Y28193D01*
X46675Y28177D01*
X46791Y28129D01*
X46882Y28060D01*
X46889Y28051D01*
X46889Y28052D01*
X46889Y28052D01*
X47701Y27240D01*
X47687Y27192D01*
X47644Y27184D01*
X47579Y27141D01*
X47536Y27076D01*
X47521Y27000D01*
X47536Y26924D01*
X47579Y26859D01*
X47644Y26816D01*
X47720Y26801D01*
X47721Y26801D01*
X47755Y26795D01*
X47785Y26775D01*
X47785Y26775D01*
X47786Y26776D01*
D01*
X48641Y25921D01*
X48641Y25921D01*
X48677Y25896D01*
X48720Y25888D01*
X48720Y25888D01*
X50070D01*
X50089Y25859D01*
X50153Y25816D01*
X50230Y25801D01*
X50263Y25808D01*
X50998Y25073D01*
Y24995D01*
X50969Y24976D01*
X50926Y24912D01*
X50911Y24836D01*
X50926Y24760D01*
X50969Y24695D01*
X50998Y24676D01*
Y24130D01*
X50969Y24111D01*
X50926Y24046D01*
X50911Y23970D01*
X50926Y23894D01*
X50969Y23829D01*
X50998Y23810D01*
Y23055D01*
X50997D01*
X50990Y23020D01*
X50971Y22991D01*
X50969Y22991D01*
X50926Y22926D01*
X50911Y22850D01*
X50926Y22774D01*
X50969Y22709D01*
X51034Y22666D01*
X51110Y22651D01*
X51186Y22666D01*
X51251Y22709D01*
X51294Y22774D01*
X51309Y22850D01*
X51294Y22926D01*
X51251Y22991D01*
X51249Y22991D01*
X51230Y23020D01*
X51223Y23055D01*
X51222D01*
Y23810D01*
X51251Y23829D01*
X51294Y23894D01*
X51309Y23970D01*
X51294Y24046D01*
X51251Y24111D01*
X51222Y24130D01*
Y24676D01*
X51251Y24695D01*
X51294Y24760D01*
X51309Y24836D01*
X51294Y24912D01*
X51251Y24976D01*
X51222Y24995D01*
Y25120D01*
X51222Y25120D01*
X51214Y25162D01*
X51189Y25199D01*
X51189Y25199D01*
X50546Y25842D01*
X50566Y25888D01*
X50750D01*
X50750Y25888D01*
X50793Y25896D01*
X50829Y25921D01*
X51719Y26811D01*
X51744Y26847D01*
X51752Y26890D01*
X51752Y26890D01*
Y27965D01*
X51753D01*
X51760Y28000D01*
X51779Y28029D01*
X51781Y28029D01*
X51824Y28094D01*
X51839Y28170D01*
X51824Y28246D01*
X51781Y28311D01*
X51779Y28311D01*
X51760Y28340D01*
X51753Y28375D01*
X51752D01*
Y29014D01*
X52166Y29428D01*
X53680D01*
X53699Y29399D01*
X53764Y29356D01*
X53840Y29341D01*
X53916Y29356D01*
X53981Y29399D01*
X54024Y29464D01*
X54039Y29540D01*
X54024Y29616D01*
X53981Y29681D01*
X53916Y29724D01*
X53840Y29739D01*
X53764Y29724D01*
X53699Y29681D01*
X53680Y29652D01*
X52120D01*
X52120Y29652D01*
X52077Y29644D01*
X52041Y29619D01*
X52041Y29619D01*
X51561Y29139D01*
X51536Y29103D01*
X51528Y29060D01*
X51528Y29060D01*
Y28375D01*
X51527D01*
X51520Y28340D01*
X51501Y28311D01*
X51499Y28311D01*
X51456Y28246D01*
X51441Y28170D01*
X51456Y28094D01*
X51499Y28029D01*
X51501Y28029D01*
X51520Y28000D01*
X51527Y27965D01*
X51528D01*
Y26936D01*
X50704Y26112D01*
X50389D01*
X50370Y26141D01*
X50306Y26184D01*
X50230Y26199D01*
X50153Y26184D01*
X50089Y26141D01*
X50070Y26112D01*
X48766D01*
X47944Y26934D01*
D01*
X47945Y26935D01*
X47932Y26954D01*
X47960Y26996D01*
X48000Y26988D01*
X48000Y26988D01*
X49095D01*
Y26987D01*
Y26987D01*
X49130Y26980D01*
X49159Y26961D01*
X49159Y26959D01*
X49224Y26916D01*
X49300Y26901D01*
X49376Y26916D01*
X49441Y26959D01*
X49484Y27024D01*
X49499Y27100D01*
X49484Y27176D01*
X49441Y27241D01*
X49376Y27284D01*
X49300Y27299D01*
X49224Y27284D01*
X49159Y27241D01*
X49159Y27239D01*
X49130Y27220D01*
X49095Y27213D01*
Y27212D01*
X48959D01*
X48954Y27262D01*
X48976Y27266D01*
X49041Y27309D01*
X49084Y27374D01*
X49099Y27450D01*
X49084Y27526D01*
X49041Y27591D01*
X48976Y27634D01*
X48900Y27649D01*
X48824Y27634D01*
X48759Y27591D01*
X48759Y27589D01*
X48730Y27570D01*
X48695Y27563D01*
Y27562D01*
X48196D01*
X47668Y28091D01*
X47672Y28121D01*
X47699Y28187D01*
X47743Y28244D01*
X47771Y28265D01*
Y28265D01*
X47771Y28267D01*
X47817Y28286D01*
X47843Y28266D01*
X47816Y28226D01*
X47801Y28150D01*
X47816Y28074D01*
X47859Y28009D01*
X47924Y27966D01*
X48000Y27951D01*
X48076Y27966D01*
X48141Y28009D01*
X48184Y28074D01*
X48199Y28150D01*
X48184Y28226D01*
X48141Y28291D01*
X48139Y28291D01*
X48120Y28320D01*
X48113Y28355D01*
X48112D01*
Y28704D01*
X48416Y29008D01*
X48450Y29001D01*
X48526Y29016D01*
X48591Y29059D01*
X48610Y29088D01*
X50140D01*
X50140Y29088D01*
X50183Y29096D01*
X50219Y29121D01*
X51113Y30015D01*
X51198Y29979D01*
X51300Y29966D01*
X51402Y29979D01*
X51497Y30019D01*
X51579Y30081D01*
X51641Y30163D01*
X51681Y30258D01*
X51694Y30360D01*
X51681Y30462D01*
X51641Y30557D01*
X51579Y30639D01*
X51497Y30701D01*
X51402Y30741D01*
X51300Y30754D01*
D02*
G37*
G36*
X44650Y30399D02*
X44574Y30384D01*
X44509Y30341D01*
X44466Y30276D01*
X44451Y30200D01*
X44466Y30124D01*
X44509Y30059D01*
X44574Y30016D01*
X44650Y30001D01*
X44651Y30001D01*
X44685Y29995D01*
X44715Y29975D01*
X44715Y29975D01*
X44716Y29976D01*
X44716Y29976D01*
X45021Y29671D01*
X45021Y29671D01*
X45057Y29646D01*
X45100Y29638D01*
X45100Y29638D01*
X45345D01*
Y29637D01*
Y29637D01*
X45380Y29630D01*
X45409Y29611D01*
X45409Y29609D01*
X45474Y29566D01*
X45550Y29551D01*
X45626Y29566D01*
X45691Y29609D01*
X45734Y29674D01*
X45749Y29750D01*
X45734Y29826D01*
X45691Y29891D01*
X45626Y29934D01*
X45550Y29949D01*
X45474Y29934D01*
X45409Y29891D01*
X45409Y29889D01*
X45380Y29870D01*
X45345Y29863D01*
Y29863D01*
Y29862D01*
X45146D01*
X44874Y30134D01*
X44874Y30134D01*
X44875Y30135D01*
X44855Y30165D01*
X44849Y30199D01*
X44849Y30200D01*
X44834Y30276D01*
X44791Y30341D01*
X44726Y30384D01*
X44650Y30399D01*
D02*
G37*
G36*
X44350Y29494D02*
X44248Y29481D01*
X44153Y29441D01*
X44071Y29379D01*
X44009Y29297D01*
X43969Y29202D01*
X43956Y29100D01*
X43969Y28998D01*
X44009Y28903D01*
X44071Y28821D01*
X44081Y28814D01*
X44164Y28706D01*
X44221Y28569D01*
X44238Y28438D01*
X44236Y28422D01*
X44238D01*
Y28350D01*
X44238Y28350D01*
X44246Y28307D01*
X44271Y28271D01*
X46788Y25754D01*
Y24855D01*
X46787D01*
X46780Y24820D01*
X46761Y24791D01*
X46759Y24791D01*
X46716Y24726D01*
X46701Y24650D01*
X46716Y24574D01*
X46759Y24509D01*
X46824Y24466D01*
X46900Y24451D01*
X46976Y24466D01*
X47041Y24509D01*
X47084Y24574D01*
X47099Y24650D01*
X47084Y24726D01*
X47041Y24791D01*
X47039Y24791D01*
X47020Y24820D01*
X47013Y24855D01*
X47012D01*
Y25800D01*
X47012Y25800D01*
X47004Y25843D01*
X46979Y25879D01*
X46979Y25879D01*
X44462Y28396D01*
Y28422D01*
X44464D01*
X44462Y28438D01*
X44479Y28569D01*
X44536Y28706D01*
X44619Y28814D01*
X44629Y28821D01*
X44691Y28903D01*
X44731Y28998D01*
X44744Y29100D01*
X44731Y29202D01*
X44691Y29297D01*
X44629Y29379D01*
X44547Y29441D01*
X44452Y29481D01*
X44350Y29494D01*
D02*
G37*
G36*
X43700Y24199D02*
X43624Y24184D01*
X43559Y24141D01*
X43559Y24139D01*
X43530Y24120D01*
X43505Y24115D01*
X43466Y24147D01*
Y24178D01*
X43188D01*
Y24020D01*
X43133Y23964D01*
X43132Y23963D01*
D01*
X43131Y23963D01*
X43131Y23963D01*
X43131Y23963D01*
X43131D01*
X43132Y23963D01*
X43132D01*
D01*
X43031Y23862D01*
X40455D01*
Y23863D01*
Y23863D01*
X40420Y23870D01*
X40391Y23889D01*
X40391Y23891D01*
X40326Y23934D01*
X40250Y23949D01*
X40174Y23934D01*
X40109Y23891D01*
X40066Y23826D01*
X40051Y23750D01*
X40066Y23674D01*
X40109Y23609D01*
X40111Y23609D01*
X40130Y23580D01*
X40137Y23545D01*
X40138D01*
Y21027D01*
X40138Y21027D01*
X40146Y20984D01*
X40171Y20948D01*
X40382Y20737D01*
X40381Y20737D01*
X40381Y20737D01*
X40383Y20736D01*
X40438Y20680D01*
Y20522D01*
X40566D01*
X40577Y20520D01*
Y20520D01*
X40578Y20520D01*
X40612Y20507D01*
X40694Y20424D01*
X40675Y20378D01*
X40438D01*
Y20022D01*
X40465D01*
Y19878D01*
X40438D01*
Y19522D01*
X40465D01*
Y19394D01*
X40459Y19391D01*
X40416Y19326D01*
X40401Y19250D01*
X40416Y19174D01*
X40459Y19109D01*
X40524Y19066D01*
X40600Y19051D01*
X40676Y19066D01*
X40741Y19109D01*
X40784Y19174D01*
X40799Y19250D01*
X40784Y19326D01*
X40741Y19391D01*
X40689Y19425D01*
Y19522D01*
X40716D01*
Y19614D01*
X40871D01*
Y19548D01*
X41581D01*
Y19904D01*
X40871D01*
Y19838D01*
X40716D01*
Y19878D01*
X40689D01*
Y20022D01*
X40716D01*
Y20347D01*
X40760Y20371D01*
X40760Y20370D01*
X40803Y20362D01*
X40803Y20362D01*
X40871D01*
Y20296D01*
X41581D01*
Y20652D01*
X40871D01*
Y20630D01*
X40825Y20611D01*
X40773Y20663D01*
X40773Y20663D01*
X40772Y20664D01*
X40716Y20720D01*
Y20878D01*
X40588D01*
X40577Y20880D01*
X40577Y20880D01*
X40577Y20880D01*
D01*
X40540Y20896D01*
Y20896D01*
X40540Y20896D01*
D01*
X40362Y21074D01*
Y23545D01*
X40363D01*
X40370Y23580D01*
X40389Y23609D01*
X40391Y23609D01*
X40391Y23611D01*
X40420Y23630D01*
X40455Y23637D01*
Y23637D01*
Y23638D01*
X43077D01*
X43077Y23638D01*
X43120Y23646D01*
X43156Y23671D01*
X43290Y23804D01*
X43290Y23804D01*
D01*
X43327Y23820D01*
X43327Y23820D01*
Y23820D01*
Y23820D01*
X43338Y23822D01*
X43466D01*
Y23853D01*
X43505Y23885D01*
X43530Y23880D01*
X43559Y23861D01*
X43559Y23859D01*
X43624Y23816D01*
X43700Y23801D01*
X43776Y23816D01*
X43841Y23859D01*
X43884Y23924D01*
X43899Y24000D01*
X43884Y24076D01*
X43841Y24141D01*
X43776Y24184D01*
X43700Y24199D01*
D02*
G37*
G36*
X46250Y24208D02*
X46157Y24196D01*
X46071Y24160D01*
X45997Y24103D01*
X45940Y24029D01*
X45904Y23943D01*
X45892Y23850D01*
X45893Y23842D01*
X45877Y23725D01*
X45829Y23609D01*
X45760Y23518D01*
X45752Y23513D01*
X45752D01*
X45751Y23512D01*
X45751D01*
X45751Y23511D01*
X45751Y23511D01*
X45752Y23511D01*
X45752Y23511D01*
X45752D01*
D01*
X45472Y23230D01*
Y23230D01*
X45472Y23230D01*
D01*
X45472D01*
Y23230D01*
X45466Y23225D01*
X45378Y23157D01*
X45268Y23112D01*
X45158Y23097D01*
X45150Y23099D01*
X45074Y23084D01*
X45009Y23041D01*
X44966Y22976D01*
X44951Y22900D01*
X44966Y22824D01*
X45009Y22759D01*
X45074Y22716D01*
X45150Y22701D01*
X45185Y22708D01*
X45209Y22664D01*
X44791Y22246D01*
X44766Y22209D01*
X44758Y22166D01*
X44758Y22166D01*
Y17746D01*
X44609Y17598D01*
X44609Y17598D01*
X44609Y17599D01*
X44602Y17590D01*
X44511Y17521D01*
X44395Y17473D01*
X44278Y17457D01*
X44270Y17458D01*
X44177Y17446D01*
X44091Y17410D01*
X44017Y17353D01*
X43960Y17279D01*
X43924Y17193D01*
X43912Y17100D01*
X43924Y17007D01*
X43960Y16921D01*
X44017Y16847D01*
X44091Y16790D01*
X44177Y16754D01*
X44270Y16742D01*
X44363Y16754D01*
X44449Y16790D01*
X44523Y16847D01*
X44580Y16921D01*
X44616Y17007D01*
X44628Y17100D01*
X44627Y17108D01*
X44643Y17225D01*
X44691Y17341D01*
X44760Y17432D01*
X44769Y17439D01*
X44768Y17439D01*
X44768Y17439D01*
X44949Y17621D01*
X44949Y17621D01*
X44974Y17657D01*
X44982Y17700D01*
X44982Y17700D01*
Y21925D01*
X45026Y21948D01*
X45074Y21916D01*
X45150Y21901D01*
X45226Y21916D01*
X45291Y21959D01*
X45291Y21961D01*
X45320Y21980D01*
X45355Y21987D01*
Y21987D01*
Y21988D01*
X45500D01*
X45500Y21988D01*
X45543Y21996D01*
X45579Y22021D01*
X45911Y22352D01*
X45911Y22352D01*
X45911Y22351D01*
X45911Y22351D01*
X45918Y22360D01*
X46009Y22429D01*
X46125Y22477D01*
X46242Y22493D01*
X46250Y22492D01*
X46343Y22504D01*
X46429Y22540D01*
X46503Y22597D01*
X46560Y22671D01*
X46596Y22757D01*
X46608Y22850D01*
X46605Y22876D01*
X46654Y22885D01*
X46656Y22874D01*
X46699Y22809D01*
X46701Y22809D01*
X46720Y22780D01*
X46727Y22745D01*
X46728D01*
Y21466D01*
X45191Y19929D01*
X45166Y19893D01*
X45158Y19850D01*
X45158Y19850D01*
Y17692D01*
X45157D01*
X45158Y17681D01*
X45143Y17568D01*
X45095Y17452D01*
X45023Y17358D01*
X45017Y17353D01*
X44960Y17279D01*
X44924Y17193D01*
X44912Y17100D01*
X44924Y17007D01*
X44960Y16921D01*
X45017Y16847D01*
X45028Y16838D01*
X45029Y16836D01*
X45033Y16834D01*
X45033Y16829D01*
Y16829D01*
X45053Y16814D01*
X45110Y16740D01*
X45146Y16653D01*
X45153Y16601D01*
X44374Y15822D01*
X42226D01*
X42082Y15966D01*
Y16384D01*
X42121Y16409D01*
X42164Y16474D01*
X42179Y16550D01*
X42164Y16626D01*
X42121Y16691D01*
X42056Y16734D01*
X41980Y16749D01*
X41904Y16734D01*
X41839Y16691D01*
X41796Y16626D01*
X41781Y16550D01*
X41796Y16474D01*
X41839Y16409D01*
X41858Y16397D01*
Y15920D01*
X41858Y15920D01*
X41866Y15877D01*
X41891Y15841D01*
X42101Y15631D01*
X42101Y15631D01*
X42137Y15606D01*
X42180Y15598D01*
X42180Y15598D01*
X44420D01*
X44420Y15598D01*
X44463Y15606D01*
X44499Y15631D01*
X45349Y16481D01*
X45349Y16481D01*
X45374Y16517D01*
X45382Y16560D01*
D01*
D01*
D01*
D01*
X45383Y16560D01*
X45383Y16560D01*
X45383D01*
X45382Y16564D01*
X45394Y16653D01*
X45430Y16740D01*
X45487Y16814D01*
X45507Y16829D01*
Y16829D01*
X45507Y16834D01*
X45511Y16836D01*
X45512Y16838D01*
X45523Y16847D01*
X45580Y16921D01*
X45616Y17007D01*
X45628Y17100D01*
X45616Y17193D01*
X45580Y17279D01*
X45523Y17353D01*
X45517Y17358D01*
X45445Y17452D01*
X45397Y17568D01*
X45382Y17681D01*
X45383Y17692D01*
X45382D01*
Y19804D01*
X46919Y21341D01*
X46919Y21341D01*
X46944Y21377D01*
X46952Y21420D01*
Y22745D01*
X46953D01*
X46960Y22780D01*
X46979Y22809D01*
X46981Y22809D01*
X47024Y22874D01*
X47039Y22950D01*
X47024Y23026D01*
X46981Y23091D01*
X46916Y23134D01*
X46884Y23140D01*
Y23190D01*
X46916Y23196D01*
X46981Y23239D01*
X47024Y23304D01*
X47039Y23380D01*
X47024Y23456D01*
X46981Y23521D01*
X46916Y23564D01*
X46840Y23579D01*
X46764Y23564D01*
X46699Y23521D01*
X46694Y23512D01*
X46594Y23436D01*
X46468Y23384D01*
X46346Y23367D01*
X46006D01*
X45990Y23415D01*
X46009Y23429D01*
X46125Y23477D01*
X46242Y23493D01*
X46250Y23492D01*
X46343Y23504D01*
X46429Y23540D01*
X46503Y23597D01*
X46560Y23671D01*
X46596Y23757D01*
X46608Y23850D01*
X46596Y23943D01*
X46560Y24029D01*
X46503Y24103D01*
X46429Y24160D01*
X46343Y24196D01*
X46250Y24208D01*
D02*
G37*
G36*
Y25208D02*
X46157Y25196D01*
X46071Y25160D01*
X45997Y25103D01*
X45940Y25029D01*
X45904Y24943D01*
X45892Y24850D01*
X45904Y24757D01*
X45940Y24671D01*
X45997Y24597D01*
X46071Y24540D01*
X46157Y24504D01*
X46250Y24492D01*
X46343Y24504D01*
X46429Y24540D01*
X46503Y24597D01*
X46560Y24671D01*
X46596Y24757D01*
X46608Y24850D01*
X46596Y24943D01*
X46560Y25029D01*
X46503Y25103D01*
X46429Y25160D01*
X46343Y25196D01*
X46250Y25208D01*
D02*
G37*
G36*
X41750Y28699D02*
X41674Y28684D01*
X41609Y28641D01*
X41566Y28576D01*
X41551Y28500D01*
X41566Y28424D01*
X41609Y28359D01*
X41674Y28316D01*
X41750Y28301D01*
X41751Y28301D01*
X41785Y28295D01*
X41815Y28275D01*
X41815Y28275D01*
X41816Y28276D01*
D01*
X42871Y27221D01*
X42871Y27221D01*
X42907Y27196D01*
X42950Y27188D01*
X44095D01*
Y27187D01*
Y27187D01*
X44130Y27180D01*
X44159Y27161D01*
X44159Y27159D01*
X44224Y27116D01*
X44300Y27101D01*
X44376Y27116D01*
X44441Y27159D01*
X44484Y27224D01*
X44499Y27300D01*
X44484Y27376D01*
X44441Y27441D01*
X44439Y27441D01*
X44420Y27470D01*
X44413Y27505D01*
X44412D01*
Y27622D01*
X44416D01*
Y27978D01*
X44138D01*
Y27622D01*
X44188D01*
Y27505D01*
X44187D01*
X44180Y27470D01*
X44161Y27441D01*
X44159Y27441D01*
X44159Y27439D01*
X44130Y27420D01*
X44095Y27413D01*
Y27413D01*
Y27412D01*
X42996D01*
X42133Y28276D01*
X42152Y28322D01*
X42212D01*
Y28678D01*
X41934D01*
Y28670D01*
X41896Y28644D01*
X41890Y28641D01*
X41826Y28684D01*
X41750Y28699D01*
D02*
G37*
G36*
X50550Y28908D02*
X50457Y28896D01*
X50371Y28860D01*
X50297Y28803D01*
X50240Y28729D01*
X50204Y28643D01*
X50192Y28550D01*
X50204Y28457D01*
X50240Y28371D01*
X50297Y28297D01*
X50371Y28240D01*
X50457Y28204D01*
X50550Y28192D01*
X50558Y28193D01*
X50675Y28177D01*
X50791Y28129D01*
X50882Y28060D01*
X50889Y28051D01*
X50889Y28052D01*
X51038Y27904D01*
Y27205D01*
X51037D01*
X51030Y27170D01*
X51011Y27141D01*
X51009Y27141D01*
X50966Y27076D01*
X50951Y27000D01*
X50966Y26924D01*
X51009Y26859D01*
X51074Y26816D01*
X51150Y26801D01*
X51226Y26816D01*
X51291Y26859D01*
X51334Y26924D01*
X51349Y27000D01*
X51334Y27076D01*
X51291Y27141D01*
X51289Y27141D01*
X51270Y27170D01*
X51263Y27205D01*
X51262D01*
Y27950D01*
X51262Y27950D01*
X51254Y27993D01*
X51229Y28029D01*
X51229Y28029D01*
X51048Y28211D01*
X51048Y28211D01*
X51049Y28211D01*
X51040Y28218D01*
X50971Y28309D01*
X50923Y28425D01*
X50907Y28542D01*
X50908Y28550D01*
X50896Y28643D01*
X50860Y28729D01*
X50803Y28803D01*
X50729Y28860D01*
X50643Y28896D01*
X50550Y28908D01*
D02*
G37*
G36*
X49550D02*
X49457Y28896D01*
X49371Y28860D01*
X49297Y28803D01*
X49240Y28729D01*
X49204Y28643D01*
X49192Y28550D01*
X49204Y28457D01*
X49240Y28371D01*
X49297Y28297D01*
X49371Y28240D01*
X49457Y28204D01*
X49550Y28192D01*
X49558Y28193D01*
X49675Y28177D01*
X49791Y28129D01*
X49882Y28060D01*
X49889Y28051D01*
X49889Y28052D01*
X49889Y28052D01*
X50238Y27704D01*
Y27205D01*
X50237D01*
X50230Y27170D01*
X50211Y27141D01*
X50209Y27141D01*
X50166Y27076D01*
X50151Y27000D01*
X50166Y26924D01*
X50209Y26859D01*
X50274Y26816D01*
X50350Y26801D01*
X50426Y26816D01*
X50491Y26859D01*
X50534Y26924D01*
X50549Y27000D01*
X50534Y27076D01*
X50491Y27141D01*
X50489Y27141D01*
X50470Y27170D01*
X50463Y27205D01*
X50462D01*
Y27750D01*
X50462Y27750D01*
X50454Y27793D01*
X50429Y27829D01*
X50429Y27829D01*
X50048Y28211D01*
X50048Y28211D01*
X50049Y28211D01*
X50040Y28218D01*
X49971Y28309D01*
X49923Y28425D01*
X49907Y28542D01*
X49908Y28550D01*
X49896Y28643D01*
X49860Y28729D01*
X49803Y28803D01*
X49729Y28860D01*
X49643Y28896D01*
X49550Y28908D01*
D02*
G37*
%LPD*%
D10*
X51050Y22910D02*
G03*
X51110Y23055I-145J145D01*
G01*
D02*
G03*
X51170Y22910I205J0D01*
G01*
X47210Y19610D02*
G03*
X47344Y19555I134J134D01*
G01*
X47367D02*
G03*
X47210Y19490I0J-221D01*
G01*
X40715Y28500D02*
G03*
X40655Y28645I-205J0D01*
G01*
D02*
G03*
X40800Y28585I145J145D01*
G01*
X45150Y22885D02*
G03*
X45380Y22980I0J326D01*
G01*
X45150Y22985D02*
G03*
X45551Y23151I0J567D01*
G01*
X45223Y22944D02*
G03*
X45300Y22900I77J46D01*
G01*
D02*
G03*
X45223Y22856I0J-90D01*
G01*
X45210Y22160D02*
G03*
X45355Y22100I145J145D01*
G01*
D02*
G03*
X45210Y22040I0J-205D01*
G01*
X45500Y21085D02*
G03*
X45645Y21145I0J205D01*
G01*
D02*
G03*
X45585Y21000I145J-145D01*
G01*
X41835Y28500D02*
G03*
X41895Y28355I205J0D01*
G01*
D02*
G03*
X41750Y28415I-145J-145D01*
G01*
X41810Y28560D02*
G03*
X41955Y28500I145J145D01*
G01*
D02*
G03*
X41810Y28440I0J-205D01*
G01*
X40310Y23810D02*
G03*
X40455Y23750I145J145D01*
G01*
D02*
G03*
X40310Y23690I0J-205D01*
G01*
D02*
G03*
X40250Y23545I145J-145D01*
G01*
D02*
G03*
X40190Y23690I-205J0D01*
G01*
X43640Y23940D02*
G03*
X43495Y24000I-145J-145D01*
G01*
D02*
G03*
X43640Y24060I0J205D01*
G01*
X44240Y27240D02*
G03*
X44095Y27300I-145J-145D01*
G01*
D02*
G03*
X44240Y27360I0J205D01*
G01*
D02*
G03*
X44300Y27505I-145J145D01*
G01*
D02*
G03*
X44360Y27360I205J0D01*
G01*
X49240Y27040D02*
G03*
X49095Y27100I-145J-145D01*
G01*
D02*
G03*
X49240Y27160I0J205D01*
G01*
X48840Y27390D02*
G03*
X48695Y27450I-145J-145D01*
G01*
D02*
G03*
X48840Y27510I0J205D01*
G01*
X48507Y27924D02*
G03*
X48559Y27990I-55J95D01*
G01*
X48594Y28121D02*
G03*
X48624Y27892I290J-78D01*
G01*
X48476D02*
G03*
X48506Y28121I-260J150D01*
G01*
X48541Y27990D02*
G03*
X48593Y27924I106J28D01*
G01*
X48490Y27910D02*
G03*
X48550Y28055I-145J145D01*
G01*
D02*
G03*
X48610Y27910I205J0D01*
G01*
X50290Y27060D02*
G03*
X50350Y27205I-145J145D01*
G01*
D02*
G03*
X50410Y27060I205J0D01*
G01*
X51090D02*
G03*
X51150Y27205I-145J145D01*
G01*
D02*
G03*
X51210Y27060I205J0D01*
G01*
X44735Y30200D02*
G03*
X44795Y30055I205J0D01*
G01*
D02*
G03*
X44650Y30115I-145J-145D01*
G01*
X45490Y29690D02*
G03*
X45345Y29750I-145J-145D01*
G01*
D02*
G03*
X45490Y29810I0J205D01*
G01*
X47940Y28210D02*
G03*
X48000Y28355I-145J145D01*
G01*
D02*
G03*
X48060Y28210I205J0D01*
G01*
X46840Y24710D02*
G03*
X46900Y24855I-145J145D01*
G01*
D02*
G03*
X46960Y24710I205J0D01*
G01*
X47600Y18685D02*
G03*
X47745Y18745I0J205D01*
G01*
D02*
G03*
X47685Y18600I145J-145D01*
G01*
X50200Y19885D02*
G03*
X50345Y19945I0J205D01*
G01*
D02*
G03*
X50285Y19800I145J-145D01*
G01*
X46900Y22890D02*
G03*
X46840Y22745I145J-145D01*
G01*
D02*
G03*
X46780Y22890I-205J0D01*
G01*
X46575Y23255D02*
G03*
X46851Y23369I0J390D01*
G01*
X46334Y23255D02*
G03*
X46780Y23440I0J631D01*
G01*
X47805Y27000D02*
G03*
X47865Y26855I205J0D01*
G01*
D02*
G03*
X47720Y26915I-145J-145D01*
G01*
X51580Y28230D02*
G03*
X51640Y28375I-145J145D01*
G01*
D02*
G03*
X51700Y28230I205J0D01*
G01*
Y28110D02*
G03*
X51640Y27965I145J-145D01*
G01*
D02*
G03*
X51580Y28110I-205J0D01*
G01*
X46620Y16470D02*
G03*
X46765Y16410I145J145D01*
G01*
D02*
G03*
X46620Y16350I0J-205D01*
G01*
X47290Y20830D02*
G03*
X47435Y20770I145J145D01*
G01*
D02*
G03*
X47290Y20710I0J-205D01*
G01*
X51538Y21762D02*
G03*
X51388Y21824I-150J-150D01*
G01*
D02*
G03*
X51538Y21886I0J212D01*
G01*
X51344Y20949D02*
G03*
X51127Y20859I0J-307D01*
G01*
X51222Y20954D02*
G03*
X51256Y21037I-83J83D01*
G01*
X51918Y20975D02*
G03*
X51856Y20825I150J-150D01*
G01*
D02*
G03*
X51794Y20975I-212J0D01*
G01*
X51856Y20650D02*
G03*
X51893Y20560I127J0D01*
G01*
X51853Y20480D02*
G03*
X51763Y20517I-90J-90D01*
G01*
X48209Y20943D02*
G03*
X48174Y21026I-118J0D01*
G01*
X50477Y20539D02*
G03*
X50553Y20570I0J107D01*
G01*
X40597Y19760D02*
G03*
X40679Y19726I81J81D01*
G01*
X41001Y19678D02*
G03*
X40884Y19726I-116J-116D01*
G01*
D02*
G03*
X41001Y19774I0J164D01*
G01*
Y20426D02*
G03*
X40884Y20474I-116J-116D01*
G01*
D02*
G03*
X41001Y20522I0J164D01*
G01*
X43327Y23932D02*
G03*
X43211Y23884I0J-164D01*
G01*
X40693Y20584D02*
G03*
X40577Y20632I-116J-116D01*
G01*
X40461Y20816D02*
G03*
X40577Y20768I116J116D01*
G01*
X44300Y27636D02*
G03*
X44257Y27740I-147J0D01*
G01*
X50688Y21824D02*
G03*
X50361Y21689I0J-462D01*
G01*
X50929Y21824D02*
G03*
X50432Y21618I0J-703D01*
G01*
X51171Y21824D02*
G03*
X50503Y21547I0J-945D01*
G01*
X51412Y21824D02*
G03*
X50573Y21477I0J-1186D01*
G01*
X46250Y21605D02*
G03*
X46002Y21502I0J-351D01*
G01*
X45931Y21431D02*
G03*
X46105Y21850I-419J419D01*
G01*
X45761Y21261D02*
G03*
X46005Y21850I-589J589D01*
G01*
X46250Y22705D02*
G03*
X46002Y22602I0J-351D01*
G01*
X46250Y22605D02*
G03*
X45831Y22431I0J-592D01*
G01*
X46002Y22602D02*
G03*
X46105Y22850I-248J248D01*
G01*
X45831Y22431D02*
G03*
X46005Y22850I-419J419D01*
G01*
X47867Y18194D02*
G03*
X48062Y18262I28J235D01*
G01*
X47879Y18294D02*
G03*
X48208Y18408I47J397D01*
G01*
X48062Y18262D02*
G03*
X47994Y18067I167J-167D01*
G01*
X48208Y18408D02*
G03*
X48094Y18079I282J-282D01*
G01*
X48705Y18050D02*
G03*
X48602Y18298I-351J0D01*
G01*
X48605Y18050D02*
G03*
X48431Y18469I-592J0D01*
G01*
X48602Y18298D02*
G03*
X48850Y18195I248J248D01*
G01*
X48431Y18469D02*
G03*
X48850Y18295I419J419D01*
G01*
X49370Y21696D02*
G03*
X49192Y21366I218J-330D01*
G01*
X49425Y21612D02*
G03*
X49192Y21180I285J-432D01*
G01*
X49480Y21529D02*
G03*
X49192Y20994I353J-535D01*
G01*
X49535Y21445D02*
G03*
X49192Y20808I420J-637D01*
G01*
X47614Y21771D02*
G03*
X47820Y21650I206J116D01*
G01*
D02*
G03*
X47614Y21529I0J-237D01*
G01*
X46250Y23705D02*
G03*
X46002Y23602I0J-351D01*
G01*
X46250Y23605D02*
G03*
X45831Y23431I0J-592D01*
G01*
X46002Y23602D02*
G03*
X46105Y23850I-248J248D01*
G01*
X45831Y23431D02*
G03*
X46005Y23850I-419J419D01*
G01*
X46695Y28550D02*
G03*
X46798Y28302I351J0D01*
G01*
X46795Y28550D02*
G03*
X46969Y28131I592J0D01*
G01*
X46798Y28302D02*
G03*
X46550Y28405I-248J-248D01*
G01*
X46969Y28131D02*
G03*
X46550Y28305I-419J-419D01*
G01*
X47639Y28435D02*
G03*
X47550Y28254I140J-181D01*
G01*
X47700Y28356D02*
G03*
X47550Y28050I237J-306D01*
G01*
Y28254D02*
G03*
X47461Y28435I-229J0D01*
G01*
X47550Y28050D02*
G03*
X47400Y28356I-387J0D01*
G01*
X48653Y28447D02*
G03*
X48550Y28199I248J-248D01*
G01*
X48723Y28377D02*
G03*
X48550Y27958I419J-419D01*
G01*
Y28199D02*
G03*
X48447Y28447I-351J0D01*
G01*
X48550Y27958D02*
G03*
X48377Y28377I-592J0D01*
G01*
X49695Y28550D02*
G03*
X49798Y28302I351J0D01*
G01*
X49795Y28550D02*
G03*
X49969Y28131I592J0D01*
G01*
X49798Y28302D02*
G03*
X49550Y28405I-248J-248D01*
G01*
X49969Y28131D02*
G03*
X49550Y28305I-419J-419D01*
G01*
X50695Y28550D02*
G03*
X50798Y28302I351J0D01*
G01*
X50795Y28550D02*
G03*
X50969Y28131I592J0D01*
G01*
X50798Y28302D02*
G03*
X50550Y28405I-248J-248D01*
G01*
X50969Y28131D02*
G03*
X50550Y28305I-419J-419D01*
G01*
X44478Y28972D02*
G03*
X44350Y28664I308J-308D01*
G01*
X44548Y28902D02*
G03*
X44350Y28422I479J-479D01*
G01*
Y28664D02*
G03*
X44222Y28972I-436J0D01*
G01*
X44350Y28422D02*
G03*
X44152Y28902I-678J0D01*
G01*
X44270Y17245D02*
G03*
X44518Y17348I0J351D01*
G01*
X44270Y17345D02*
G03*
X44689Y17519I0J592D01*
G01*
X44518Y17348D02*
G03*
X44415Y17100I248J-248D01*
G01*
X44689Y17519D02*
G03*
X44515Y17100I419J-419D01*
G01*
X45167Y17203D02*
G03*
X45270Y17451I-248J248D01*
G01*
X45097Y17273D02*
G03*
X45270Y17692I-419J419D01*
G01*
Y17451D02*
G03*
X45373Y17203I351J0D01*
G01*
X45270Y17692D02*
G03*
X45443Y17273I592J0D01*
G01*
X45366Y16991D02*
G03*
X45270Y16780I184J-210D01*
G01*
X45431Y16915D02*
G03*
X45270Y16560I310J-355D01*
G01*
Y16780D02*
G03*
X45174Y16991I-279J0D01*
G01*
X45270Y16560D02*
G03*
X45109Y16915I-472J0D01*
G01*
X51110Y22850D02*
Y23900D01*
X54220Y24180D02*
X54570Y23830D01*
Y22640D02*
Y23830D01*
X54220Y22290D02*
X54570Y22640D01*
X44870Y17700D02*
Y22166D01*
X47540Y20770D02*
X47890Y21120D01*
X47230Y20770D02*
X47540D01*
X52120Y29540D02*
X53840D01*
X51640Y29060D02*
X52120Y29540D01*
X51640Y28170D02*
Y29060D01*
X50230Y26000D02*
X50750D01*
X51640Y26890D01*
Y28170D01*
X48720Y26000D02*
X50230D01*
X47720Y27000D02*
X48720Y26000D01*
X41750Y28500D02*
X42950Y27300D01*
X44300D01*
X43077Y23750D02*
X43327Y24000D01*
X40250Y23750D02*
X43077D01*
X40250Y21027D02*
X40577Y20700D01*
X40250Y21027D02*
Y23750D01*
X41970Y15920D02*
X42180Y15710D01*
X44420D01*
X45270Y16560D01*
X41970Y15920D02*
Y16540D01*
X45270Y16560D02*
Y17100D01*
X44270D02*
X44870Y17700D01*
X45270Y17100D02*
Y19850D01*
X46840Y21420D01*
X44870Y22166D02*
X45959Y23255D01*
X46715D01*
X46840Y23380D01*
Y21420D02*
Y22950D01*
X49684Y20539D02*
X50562D01*
X50573Y20550D01*
Y20173D02*
Y20550D01*
X50200Y19800D02*
X50573Y20173D01*
X50108Y20342D02*
X50200Y20250D01*
X49684Y20342D02*
X50108D01*
X47600Y18600D02*
X47866Y18866D01*
X48011D01*
X47850Y18050D02*
X48208Y18408D01*
Y18866D01*
X48405Y18495D02*
Y18866D01*
Y18495D02*
X48850Y18050D01*
X44350Y28350D02*
X46900Y25800D01*
X44350Y28350D02*
Y29100D01*
X46900Y24650D02*
Y25800D01*
X45300Y22900D02*
X46250Y23850D01*
X45150Y22900D02*
X45300D01*
X45500Y22100D02*
X46250Y22850D01*
X45150Y22100D02*
X45500D01*
Y21000D02*
X46250Y21750D01*
X48000Y28750D02*
X48450Y29200D01*
X48000Y28150D02*
Y28750D01*
X45100Y29750D02*
X45550D01*
X44650Y30200D02*
X45100Y29750D01*
X49192Y21442D02*
X49400Y21650D01*
X49192Y20834D02*
Y21442D01*
X48850Y21200D02*
X48995Y21055D01*
Y20834D02*
Y21055D01*
X50550Y28550D02*
X51150Y27950D01*
Y27000D02*
Y27950D01*
X49550Y28550D02*
X50350Y27750D01*
Y27000D02*
Y27750D01*
X48550Y27850D02*
Y28550D01*
X47550Y28050D02*
Y28550D01*
Y28050D02*
X48150Y27450D01*
X48900D01*
X46550Y28550D02*
X48000Y27100D01*
X49300D01*
X40500Y28800D02*
Y29250D01*
Y28800D02*
X40800Y28500D01*
X40577Y20700D02*
X40803Y20474D01*
X41226D01*
X40577Y19700D02*
Y20200D01*
X40603Y19726D02*
X41226D01*
X43350Y24000D02*
X43700D01*
X41750Y28500D02*
X42073D01*
X44300Y27300D02*
Y27777D01*
X40577Y19273D02*
Y19700D01*
X47155Y19555D02*
X47716D01*
X50573Y20173D02*
X51173D01*
X50574Y21824D02*
X51600D01*
X50400Y21650D02*
X50574Y21824D01*
X49389Y20834D02*
X51102D01*
X51344Y21076D01*
X51856Y20517D02*
Y21076D01*
X51517Y20517D02*
X51856D01*
X51173Y20173D02*
X51517Y20517D01*
X51110Y23970D02*
Y24836D01*
Y25120D01*
X50230Y26000D02*
X51110Y25120D01*
X48270Y21200D02*
X48850D01*
X47820Y21650D02*
X48270Y21200D01*
X47400Y21650D02*
X47820D01*
X48208Y20834D02*
Y20992D01*
X48080Y21120D02*
X48208Y20992D01*
X47890Y21120D02*
X48080D01*
X48450Y29200D02*
X50140D01*
X51300Y30360D01*
D14*
X43923Y27800D02*
D03*
X44277D02*
D03*
X40223Y19700D02*
D03*
X40577D02*
D03*
X40223Y20200D02*
D03*
X40577D02*
D03*
X40223Y20700D02*
D03*
X40577D02*
D03*
X42427Y28500D02*
D03*
X42073D02*
D03*
X42973Y24000D02*
D03*
X43327D02*
D03*
X50927Y20550D02*
D03*
X50573D02*
D03*
X52227Y20500D02*
D03*
X51873D02*
D03*
D50*
X46560Y16410D02*
X46620Y16470D01*
X52890D01*
X53470Y15890D01*
D52*
X55980Y15290D02*
D03*
X50730Y15270D02*
D03*
X44350Y29100D02*
D03*
X41900Y29450D02*
D03*
X45300Y28400D02*
D03*
X51300Y30360D02*
D03*
D53*
X41560Y31510D02*
D03*
X40560D02*
D03*
X45270Y17100D02*
D03*
X44270D02*
D03*
X50550Y28550D02*
D03*
X49550D02*
D03*
X48550D02*
D03*
X47550D02*
D03*
X46550D02*
D03*
X47400Y21650D02*
D03*
X48400D02*
D03*
X49400D02*
D03*
X48850Y18050D02*
D03*
X47850D02*
D03*
D54*
X49690Y15380D02*
D03*
X47190D02*
D03*
D55*
X43450Y18666D02*
D03*
Y21934D02*
D03*
D56*
X46250Y23850D02*
D03*
Y22850D02*
D03*
Y21850D02*
D03*
Y24850D02*
D03*
X50400Y21650D02*
D03*
D57*
X51110Y22850D02*
D03*
X41150Y18780D02*
D03*
X41660Y15930D02*
D03*
X47867Y25033D02*
D03*
X48300D02*
D03*
X48733D02*
D03*
X49167D02*
D03*
X49600D02*
D03*
X50033D02*
D03*
X47867Y24600D02*
D03*
X48300D02*
D03*
X48733D02*
D03*
X49167D02*
D03*
X49600D02*
D03*
X50033D02*
D03*
X47867Y24167D02*
D03*
X48300D02*
D03*
X48733D02*
D03*
X49167D02*
D03*
X49600D02*
D03*
X50033D02*
D03*
X47867Y23733D02*
D03*
X48300D02*
D03*
X48733D02*
D03*
X49167D02*
D03*
X49600D02*
D03*
X50033D02*
D03*
X47867Y23300D02*
D03*
X48300D02*
D03*
X48733D02*
D03*
X49167D02*
D03*
X49600D02*
D03*
X50033D02*
D03*
X47867Y22867D02*
D03*
X48300D02*
D03*
X48733D02*
D03*
X49167D02*
D03*
X49600D02*
D03*
X50033D02*
D03*
X49016Y31600D02*
D03*
Y31167D02*
D03*
Y30733D02*
D03*
Y30300D02*
D03*
X48583Y31600D02*
D03*
Y31167D02*
D03*
Y30733D02*
D03*
Y30300D02*
D03*
X48150Y31600D02*
D03*
Y31167D02*
D03*
Y30733D02*
D03*
Y30300D02*
D03*
X47717Y31600D02*
D03*
Y31167D02*
D03*
Y30733D02*
D03*
Y30300D02*
D03*
X47284Y31600D02*
D03*
Y31167D02*
D03*
Y30733D02*
D03*
Y30300D02*
D03*
X53783Y28033D02*
D03*
Y27600D02*
D03*
Y27167D02*
D03*
X53350Y28033D02*
D03*
Y27600D02*
D03*
Y27167D02*
D03*
X52917Y28033D02*
D03*
Y27600D02*
D03*
Y27167D02*
D03*
X45150Y20590D02*
D03*
X52640Y25200D02*
D03*
X53840Y29540D02*
D03*
X47230Y20770D02*
D03*
X46560Y16410D02*
D03*
X51110Y24836D02*
D03*
X51640Y28170D02*
D03*
X47720Y27000D02*
D03*
X50230Y26000D02*
D03*
X41980Y16550D02*
D03*
X46840Y23380D02*
D03*
Y22950D02*
D03*
X50200Y19800D02*
D03*
Y20250D02*
D03*
X46900Y24650D02*
D03*
X48000Y28150D02*
D03*
X48450Y29200D02*
D03*
X45550Y29750D02*
D03*
X44650Y30200D02*
D03*
X51150Y27000D02*
D03*
X50350D02*
D03*
X48550Y27850D02*
D03*
X48900Y27450D02*
D03*
X49300Y27100D02*
D03*
X44300Y27300D02*
D03*
X54750Y28150D02*
D03*
X43700Y24000D02*
D03*
X40250Y23750D02*
D03*
X41750Y28500D02*
D03*
X40600Y19250D02*
D03*
X49490Y17670D02*
D03*
X46850Y26350D02*
D03*
X45500Y21000D02*
D03*
X46500Y25500D02*
D03*
X44000Y23200D02*
D03*
X45150Y22100D02*
D03*
Y22900D02*
D03*
X47150Y19550D02*
D03*
X45850Y19000D02*
D03*
X54220Y24180D02*
D03*
Y22290D02*
D03*
X51110Y23970D02*
D03*
D58*
X48970Y20350D02*
D03*
X45190Y24510D02*
D03*
X53710Y22660D02*
D03*
D59*
X48700Y19850D02*
D03*
D60*
X43183Y17120D02*
D03*
X53170Y25230D02*
D03*
X54320Y25190D02*
D03*
Y24720D02*
D03*
X54190Y23620D02*
D03*
X54320Y25660D02*
D03*
X52160Y25200D02*
D03*
X52620Y23470D02*
D03*
Y23970D02*
D03*
X54480Y26360D02*
D03*
X53470Y15890D02*
D03*
X47600Y18600D02*
D03*
X50200Y31700D02*
D03*
X40500Y29250D02*
D03*
X43150Y27750D02*
D03*
X42690Y26555D02*
D03*
X51200Y15870D02*
D03*
X52300Y28900D02*
D03*
X40750Y23250D02*
D03*
X44350Y20450D02*
D03*
X45650Y25250D02*
D03*
X42000Y25800D02*
D03*
X40800Y28500D02*
D03*
X42980Y19570D02*
D03*
X52870Y21000D02*
D03*
X52780Y18070D02*
D03*
D61*
X41226Y19726D02*
D03*
Y20474D02*
D03*
X41974Y20100D02*
D03*
D62*
X48700Y19850D02*
D03*
D63*
X49389Y20834D02*
D03*
X49192D02*
D03*
X48995D02*
D03*
X48798D02*
D03*
X48602D02*
D03*
X48405D02*
D03*
X48208D02*
D03*
X48011D02*
D03*
Y18866D02*
D03*
X48208D02*
D03*
X48405D02*
D03*
X48602D02*
D03*
X48798D02*
D03*
X48995D02*
D03*
X49192D02*
D03*
X49389D02*
D03*
D64*
X47716Y20539D02*
D03*
Y20342D02*
D03*
Y20145D02*
D03*
Y19948D02*
D03*
Y19752D02*
D03*
Y19555D02*
D03*
Y19358D02*
D03*
Y19161D02*
D03*
X49684D02*
D03*
Y19358D02*
D03*
Y19555D02*
D03*
Y19752D02*
D03*
Y19948D02*
D03*
Y20145D02*
D03*
Y20342D02*
D03*
Y20539D02*
D03*
D65*
X51856Y21076D02*
D03*
X51344D02*
D03*
X51600Y21824D02*
D03*
M02*
