%FSLAX24Y24*%
%MOIN*%
G70*
G01*
G75*
G04 Layer_Physical_Order=5*
G04 Layer_Color=16440176*
%ADD10C,0.0100*%
G04:AMPARAMS|DCode=11|XSize=63mil|YSize=98.4mil|CornerRadius=15.7mil|HoleSize=0mil|Usage=FLASHONLY|Rotation=0.000|XOffset=0mil|YOffset=0mil|HoleType=Round|Shape=RoundedRectangle|*
%AMROUNDEDRECTD11*
21,1,0.0630,0.0669,0,0,0.0*
21,1,0.0315,0.0984,0,0,0.0*
1,1,0.0315,0.0157,-0.0335*
1,1,0.0315,-0.0157,-0.0335*
1,1,0.0315,-0.0157,0.0335*
1,1,0.0315,0.0157,0.0335*
%
%ADD11ROUNDEDRECTD11*%
G04:AMPARAMS|DCode=12|XSize=33.5mil|YSize=17.7mil|CornerRadius=4.4mil|HoleSize=0mil|Usage=FLASHONLY|Rotation=0.000|XOffset=0mil|YOffset=0mil|HoleType=Round|Shape=RoundedRectangle|*
%AMROUNDEDRECTD12*
21,1,0.0335,0.0089,0,0,0.0*
21,1,0.0246,0.0177,0,0,0.0*
1,1,0.0089,0.0123,-0.0044*
1,1,0.0089,-0.0123,-0.0044*
1,1,0.0089,-0.0123,0.0044*
1,1,0.0089,0.0123,0.0044*
%
%ADD12ROUNDEDRECTD12*%
%ADD13O,0.0335X0.0110*%
%ADD14O,0.0110X0.0335*%
%ADD15R,0.2028X0.2028*%
%ADD16R,0.1850X0.1850*%
%ADD17O,0.0110X0.0315*%
%ADD18O,0.0315X0.0110*%
%ADD19O,0.0276X0.0098*%
%ADD20O,0.0098X0.0276*%
%ADD21O,0.0532X0.0177*%
%ADD22R,0.0142X0.0142*%
%ADD23R,0.0110X0.0110*%
G04:AMPARAMS|DCode=24|XSize=59.1mil|YSize=102.4mil|CornerRadius=0mil|HoleSize=0mil|Usage=FLASHONLY|Rotation=230.000|XOffset=0mil|YOffset=0mil|HoleType=Round|Shape=Rectangle|*
%AMROTATEDRECTD24*
4,1,4,-0.0202,0.0555,0.0582,-0.0103,0.0202,-0.0555,-0.0582,0.0103,-0.0202,0.0555,0.0*
%
%ADD24ROTATEDRECTD24*%

%ADD25R,0.0551X0.0630*%
%ADD26R,0.0630X0.0748*%
%ADD27R,0.0532X0.0157*%
%ADD28R,0.0138X0.0098*%
%ADD29R,0.0098X0.0187*%
%ADD30R,0.0217X0.0394*%
%ADD31R,0.0118X0.0193*%
%ADD32R,0.0118X0.0209*%
%ADD33R,0.0787X0.0472*%
%ADD34R,0.0335X0.0157*%
%ADD35R,0.0157X0.0335*%
%ADD36R,0.0276X0.0354*%
%ADD37R,0.0197X0.0315*%
%ADD38O,0.0315X0.0157*%
%ADD39R,0.2362X0.1890*%
%ADD40R,0.0236X0.0157*%
%ADD41R,0.0197X0.0354*%
%ADD42R,0.0157X0.0236*%
%ADD43R,0.0354X0.0197*%
%ADD44C,0.0060*%
%ADD45C,0.0050*%
%ADD46C,0.0120*%
%ADD47C,0.0181*%
%ADD48C,0.0080*%
%ADD49C,0.0150*%
%ADD50C,0.1260*%
%ADD51C,0.0630*%
%ADD52C,0.0180*%
%ADD53C,0.0197*%
%ADD54C,0.0276*%
%ADD55C,0.0260*%
%ADD56C,0.0220*%
%ADD57C,0.0200*%
G36*
X2650Y-3750D02*
X2344Y-4110D01*
X2650Y-4401D01*
Y-4700D01*
X2352D01*
X2338Y-4652D01*
X2374Y-4628D01*
X2405Y-4582D01*
X2416Y-4527D01*
X2405Y-4473D01*
X2374Y-4426D01*
X2327Y-4395D01*
X2273Y-4384D01*
X2218Y-4395D01*
X2172Y-4426D01*
X2141Y-4473D01*
X2130Y-4527D01*
X2141Y-4582D01*
X2172Y-4628D01*
X2208Y-4652D01*
X2193Y-4700D01*
X950D01*
X935Y-4652D01*
X951Y-4642D01*
X982Y-4595D01*
X993Y-4541D01*
X982Y-4486D01*
X951Y-4440D01*
X905Y-4409D01*
X850Y-4398D01*
X795Y-4409D01*
X749Y-4440D01*
X744Y-4448D01*
X694Y-4448D01*
X674Y-4418D01*
X618Y-4381D01*
X592Y-4375D01*
Y-4541D01*
X512D01*
Y-4375D01*
X485Y-4381D01*
X429Y-4418D01*
X405Y-4455D01*
X355D01*
X351Y-4449D01*
X305Y-4418D01*
X250Y-4407D01*
X195Y-4418D01*
X149Y-4449D01*
X118Y-4495D01*
X107Y-4550D01*
X118Y-4605D01*
X149Y-4651D01*
X151Y-4652D01*
X136Y-4700D01*
X-1485D01*
X-1491Y-4668D01*
X-1522Y-4622D01*
X-1550Y-4603D01*
Y-4452D01*
X-1549Y-4451D01*
X-1518Y-4405D01*
X-1507Y-4350D01*
X-1518Y-4295D01*
X-1549Y-4249D01*
X-1550Y-4248D01*
Y-655D01*
X-1534Y-650D01*
X-950D01*
Y-1657D01*
X-989Y-1689D01*
X-1010Y-1685D01*
Y-1810D01*
X-885D01*
X-889Y-1789D01*
X-857Y-1750D01*
X-200D01*
Y-650D01*
X157D01*
X172Y-698D01*
X127Y-727D01*
X90Y-784D01*
X85Y-810D01*
X415D01*
X410Y-784D01*
X373Y-727D01*
X328Y-698D01*
X343Y-650D01*
X1334D01*
X1401Y-670D01*
X1534Y-683D01*
X1667Y-670D01*
X1733Y-650D01*
X2650D01*
Y-3750D01*
D02*
G37*
G36*
X483Y6131D02*
X884Y6083D01*
X896Y6035D01*
X877Y6023D01*
X858Y5994D01*
X808Y5994D01*
X801Y6005D01*
X755Y6036D01*
X700Y6047D01*
X645Y6036D01*
X599Y6005D01*
X568Y5959D01*
X557Y5904D01*
X568Y5850D01*
X599Y5803D01*
X645Y5772D01*
X700Y5762D01*
X755Y5772D01*
X801Y5803D01*
X806Y5810D01*
X856D01*
X877Y5777D01*
X934Y5740D01*
X960Y5735D01*
Y5900D01*
X1000D01*
Y5940D01*
X1165D01*
X1160Y5966D01*
X1144Y5991D01*
X1172Y6032D01*
X1436Y5980D01*
X1900Y5849D01*
X2352Y5682D01*
X2348Y5632D01*
X2345Y5632D01*
X2299Y5601D01*
X2268Y5555D01*
X2257Y5500D01*
X2268Y5445D01*
X2299Y5399D01*
X2345Y5368D01*
X2400Y5357D01*
X2455Y5368D01*
X2501Y5399D01*
X2532Y5445D01*
X2543Y5500D01*
X2533Y5550D01*
X2572Y5581D01*
X2792Y5479D01*
X3213Y5244D01*
X3615Y4975D01*
X3994Y4676D01*
X4349Y4349D01*
X4676Y3994D01*
X4975Y3615D01*
X5244Y3213D01*
X5384Y2963D01*
X5354Y2922D01*
X5350Y2923D01*
X5284Y2910D01*
X5227Y2873D01*
X5190Y2816D01*
X5185Y2790D01*
X5350D01*
Y2750D01*
X5390D01*
Y2585D01*
X5416Y2590D01*
X5473Y2627D01*
X5493Y2658D01*
X5543Y2654D01*
X5682Y2353D01*
X5849Y1900D01*
X5980Y1436D01*
X5987Y1399D01*
X5939Y1385D01*
X5919Y1434D01*
X5860Y1510D01*
X5784Y1569D01*
X5695Y1606D01*
X5600Y1618D01*
X5505Y1606D01*
X5416Y1569D01*
X5340Y1510D01*
X5281Y1434D01*
X5244Y1345D01*
X5232Y1250D01*
X5244Y1155D01*
X5281Y1066D01*
X5340Y990D01*
X5416Y931D01*
X5505Y894D01*
X5600Y882D01*
X5695Y894D01*
X5784Y931D01*
X5860Y990D01*
X5919Y1066D01*
X5956Y1155D01*
X5967Y1245D01*
X6017Y1247D01*
X6074Y962D01*
X6131Y483D01*
X6150Y0D01*
X6131Y-483D01*
X6074Y-962D01*
X6017Y-1247D01*
X5967Y-1245D01*
X5956Y-1155D01*
X5919Y-1066D01*
X5860Y-990D01*
X5784Y-931D01*
X5695Y-894D01*
X5600Y-882D01*
X5505Y-894D01*
X5416Y-931D01*
X5340Y-990D01*
X5281Y-1066D01*
X5244Y-1155D01*
X5232Y-1250D01*
X5244Y-1345D01*
X5281Y-1434D01*
X5340Y-1510D01*
X5416Y-1569D01*
X5505Y-1606D01*
X5521Y-1608D01*
X5533Y-1624D01*
X5546Y-1654D01*
X5518Y-1695D01*
X5507Y-1750D01*
X5518Y-1805D01*
X5549Y-1851D01*
X5595Y-1882D01*
X5650Y-1893D01*
X5705Y-1882D01*
X5751Y-1851D01*
X5782Y-1805D01*
X5793Y-1750D01*
X5782Y-1695D01*
X5751Y-1649D01*
X5734Y-1637D01*
X5738Y-1588D01*
X5784Y-1569D01*
X5860Y-1510D01*
X5919Y-1434D01*
X5939Y-1385D01*
X5987Y-1399D01*
X5980Y-1436D01*
X5849Y-1900D01*
X5774Y-2102D01*
X5755Y-2109D01*
X5711Y-2085D01*
X5709Y-2073D01*
X5678Y-2026D01*
X5632Y-1995D01*
X5577Y-1984D01*
X5523Y-1995D01*
X5521Y-1997D01*
X4600Y-1450D01*
X3285Y-3001D01*
X3251Y-2999D01*
X3205Y-2968D01*
X3150Y-2957D01*
X3095Y-2968D01*
X3049Y-2999D01*
X3018Y-3045D01*
X3007Y-3100D01*
X3018Y-3155D01*
X3049Y-3201D01*
X3060Y-3208D01*
X3067Y-3258D01*
X2751Y-3630D01*
X2704Y-3613D01*
Y-650D01*
X2688Y-612D01*
X2650Y-596D01*
X2360D01*
X2336Y-552D01*
X2340Y-547D01*
X2351Y-492D01*
X2340Y-437D01*
X2309Y-391D01*
X2262Y-360D01*
X2208Y-349D01*
X2165Y-358D01*
X2135Y-318D01*
X2165Y-261D01*
X2204Y-133D01*
X2217Y0D01*
X2204Y133D01*
X2165Y261D01*
X2102Y380D01*
X2017Y483D01*
X1913Y568D01*
X1795Y631D01*
X1667Y670D01*
X1534Y683D01*
X1401Y670D01*
X1272Y631D01*
X1154Y568D01*
X1051Y483D01*
X966Y380D01*
X903Y261D01*
X864Y133D01*
X851Y0D01*
X861Y-102D01*
X814Y-119D01*
X799Y-97D01*
X753Y-67D01*
X698Y-56D01*
X644Y-67D01*
X597Y-97D01*
X567Y-144D01*
X556Y-198D01*
X567Y-253D01*
X597Y-299D01*
X644Y-330D01*
X698Y-341D01*
X753Y-330D01*
X799Y-299D01*
X830Y-253D01*
X838Y-215D01*
X888Y-213D01*
X903Y-261D01*
X966Y-380D01*
X1051Y-483D01*
X1131Y-549D01*
X1114Y-596D01*
X343D01*
X331Y-601D01*
X317Y-602D01*
X312Y-609D01*
X305Y-612D01*
X299Y-624D01*
X291Y-634D01*
X278Y-679D01*
X250Y-691D01*
X222Y-679D01*
X209Y-634D01*
X201Y-624D01*
X195Y-612D01*
X188Y-609D01*
X183Y-602D01*
X169Y-601D01*
X157Y-596D01*
X-200D01*
X-238Y-612D01*
X-254Y-650D01*
Y-1696D01*
X-857D01*
X-860Y-1697D01*
X-862Y-1696D01*
X-862Y-1696D01*
X-862Y-1696D01*
X-886Y-1686D01*
X-896Y-1662D01*
D01*
X-896D01*
D01*
Y-1662D01*
X-896Y-1662D01*
X-897Y-1660D01*
X-896Y-1657D01*
Y-1597D01*
X-848Y-1582D01*
X-846Y-1585D01*
X-790Y-1623D01*
X-764Y-1628D01*
Y-1463D01*
Y-1297D01*
X-790Y-1302D01*
X-846Y-1340D01*
X-848Y-1343D01*
X-896Y-1328D01*
Y-650D01*
X-912Y-612D01*
X-950Y-596D01*
X-1314D01*
X-1331Y-549D01*
X-1251Y-483D01*
X-1166Y-380D01*
X-1103Y-261D01*
X-1064Y-133D01*
X-1051Y0D01*
X-1064Y133D01*
X-1103Y261D01*
X-1166Y380D01*
X-1251Y483D01*
X-1354Y568D01*
X-1472Y631D01*
X-1601Y670D01*
X-1716Y681D01*
X-1728Y730D01*
X-1699Y749D01*
X-1668Y795D01*
X-1657Y850D01*
X-1668Y905D01*
X-1699Y951D01*
X-1745Y982D01*
X-1800Y993D01*
X-1855Y982D01*
X-1901Y951D01*
X-1901Y951D01*
X-1951D01*
X-1955Y957D01*
X-2001Y988D01*
X-2056Y999D01*
X-2111Y988D01*
X-2157Y957D01*
X-2188Y911D01*
X-2199Y856D01*
X-2188Y801D01*
X-2157Y755D01*
X-2111Y724D01*
X-2056Y713D01*
X-2001Y724D01*
X-1955Y755D01*
X-1955Y755D01*
X-1905D01*
X-1901Y749D01*
X-1873Y730D01*
X-1867Y670D01*
X-1995Y631D01*
X-2113Y568D01*
X-2217Y483D01*
X-2302Y380D01*
X-2365Y261D01*
X-2404Y133D01*
X-2417Y1D01*
X-2467Y-1D01*
X-2468Y5D01*
X-2499Y51D01*
X-2545Y82D01*
X-2600Y93D01*
X-2655Y82D01*
X-2701Y51D01*
X-2732Y5D01*
X-2743Y-50D01*
X-2732Y-105D01*
X-2701Y-151D01*
X-2655Y-182D01*
X-2600Y-193D01*
X-2545Y-182D01*
X-2499Y-151D01*
X-2468Y-105D01*
X-2460Y-65D01*
X-2410Y-68D01*
X-2404Y-133D01*
X-2365Y-261D01*
X-2302Y-380D01*
X-2217Y-483D01*
X-2113Y-568D01*
X-1995Y-631D01*
X-1867Y-670D01*
X-1734Y-683D01*
X-1641Y-674D01*
X-1604Y-708D01*
Y-1696D01*
X-1645Y-1718D01*
X-1700Y-1707D01*
X-1755Y-1718D01*
X-1801Y-1749D01*
X-1832Y-1795D01*
X-1843Y-1850D01*
X-1832Y-1905D01*
X-1801Y-1951D01*
X-1755Y-1982D01*
X-1700Y-1993D01*
X-1645Y-1982D01*
X-1604Y-2004D01*
Y-2196D01*
X-1645Y-2218D01*
X-1700Y-2207D01*
X-1755Y-2218D01*
X-1801Y-2249D01*
X-1832Y-2295D01*
X-1843Y-2350D01*
X-1832Y-2405D01*
X-1801Y-2451D01*
X-1755Y-2482D01*
X-1700Y-2493D01*
X-1645Y-2482D01*
X-1604Y-2504D01*
Y-3196D01*
X-1645Y-3218D01*
X-1700Y-3207D01*
X-1755Y-3218D01*
X-1801Y-3249D01*
X-1832Y-3295D01*
X-1843Y-3350D01*
X-1832Y-3405D01*
X-1801Y-3451D01*
X-1755Y-3482D01*
X-1700Y-3493D01*
X-1645Y-3482D01*
X-1604Y-3504D01*
Y-4177D01*
X-1643Y-4209D01*
X-1650Y-4207D01*
X-1705Y-4218D01*
X-1751Y-4249D01*
X-1782Y-4295D01*
X-1793Y-4350D01*
X-1782Y-4405D01*
X-1751Y-4451D01*
X-1705Y-4482D01*
X-1650Y-4493D01*
X-1643Y-4491D01*
X-1627Y-4504D01*
X-1639Y-4553D01*
X-1689Y-4563D01*
X-1745Y-4600D01*
X-1783Y-4656D01*
X-1788Y-4683D01*
X-1623D01*
Y-4723D01*
X-1583D01*
Y-4888D01*
X-1557Y-4883D01*
X-1500Y-4845D01*
X-1463Y-4789D01*
X-1456Y-4754D01*
X136D01*
X149Y-4749D01*
X162Y-4748D01*
X167Y-4741D01*
X175Y-4738D01*
X180Y-4726D01*
X188Y-4716D01*
X198Y-4682D01*
X250Y-4693D01*
X305Y-4682D01*
X351Y-4651D01*
X379Y-4609D01*
X404D01*
X433Y-4615D01*
X451Y-4642D01*
X497Y-4673D01*
X552Y-4683D01*
X606Y-4673D01*
X653Y-4642D01*
X676Y-4607D01*
X726D01*
X749Y-4642D01*
X795Y-4673D01*
X850Y-4683D01*
X886Y-4676D01*
X898Y-4716D01*
X906Y-4726D01*
X911Y-4738D01*
X919Y-4741D01*
X924Y-4748D01*
X937Y-4749D01*
X950Y-4754D01*
X2193D01*
X2206Y-4749D01*
X2219Y-4748D01*
X2224Y-4741D01*
X2232Y-4738D01*
X2237Y-4726D01*
X2245Y-4716D01*
X2248Y-4707D01*
X2298D01*
X2300Y-4716D01*
X2309Y-4726D01*
X2314Y-4738D01*
X2322Y-4741D01*
X2327Y-4748D01*
X2340Y-4749D01*
X2352Y-4754D01*
X2650D01*
X2688Y-4738D01*
X2704Y-4700D01*
Y-4516D01*
X2750Y-4496D01*
X3374Y-5089D01*
X3369Y-5139D01*
X3213Y-5244D01*
X2792Y-5479D01*
X2353Y-5682D01*
X1900Y-5849D01*
X1436Y-5980D01*
X962Y-6074D01*
X483Y-6131D01*
X0Y-6150D01*
X-483Y-6131D01*
X-962Y-6074D01*
X-1436Y-5980D01*
X-1900Y-5849D01*
X-2353Y-5682D01*
X-2792Y-5479D01*
X-3213Y-5244D01*
X-3615Y-4975D01*
X-3994Y-4676D01*
X-4349Y-4349D01*
X-4676Y-3994D01*
X-4975Y-3615D01*
X-5244Y-3213D01*
X-5479Y-2792D01*
X-5682Y-2353D01*
X-5849Y-1900D01*
X-5980Y-1436D01*
X-6074Y-962D01*
X-6131Y-483D01*
X-6150Y0D01*
X-6131Y483D01*
X-6074Y962D01*
X-5980Y1436D01*
X-5849Y1900D01*
X-5682Y2353D01*
X-5479Y2792D01*
X-5244Y3213D01*
X-5169Y3325D01*
X-5122Y3306D01*
X-5126Y3290D01*
X-4990D01*
Y3426D01*
X-5020Y3420D01*
X-5068Y3388D01*
X-5103Y3423D01*
X-4975Y3615D01*
X-4757Y3892D01*
X-4711Y3871D01*
X-4720Y3827D01*
X-4709Y3773D01*
X-4678Y3726D01*
X-4632Y3695D01*
X-4577Y3684D01*
X-4523Y3695D01*
X-4476Y3726D01*
X-4445Y3773D01*
X-4434Y3827D01*
X-4445Y3882D01*
X-4476Y3928D01*
X-4523Y3959D01*
X-4577Y3970D01*
X-4632Y3959D01*
X-4651Y3946D01*
X-4685Y3983D01*
X-4676Y3994D01*
X-4349Y4349D01*
X-3994Y4676D01*
X-3697Y4911D01*
X-3648Y4901D01*
X-3643Y4899D01*
X-3632Y4845D01*
X-3601Y4799D01*
X-3555Y4768D01*
X-3500Y4757D01*
X-3445Y4768D01*
X-3399Y4799D01*
X-3368Y4845D01*
X-3357Y4900D01*
X-3368Y4955D01*
X-3399Y5001D01*
X-3445Y5032D01*
X-3446Y5032D01*
X-3456Y5081D01*
X-3213Y5244D01*
X-2792Y5479D01*
X-2353Y5682D01*
X-1900Y5849D01*
X-1436Y5980D01*
X-962Y6074D01*
X-483Y6131D01*
X0Y6150D01*
X483Y6131D01*
D02*
G37*
%LPC*%
G36*
X2310Y-1935D02*
X2284Y-1940D01*
X2227Y-1977D01*
X2190Y-2034D01*
X2185Y-2060D01*
X2310D01*
Y-1935D01*
D02*
G37*
G36*
X2390D02*
Y-2060D01*
X2515D01*
X2510Y-2034D01*
X2473Y-1977D01*
X2416Y-1940D01*
X2390Y-1935D01*
D02*
G37*
G36*
X1516Y-1833D02*
X1458Y-1844D01*
X1409Y-1877D01*
X1376Y-1926D01*
X1365Y-1984D01*
X1376Y-2042D01*
X1409Y-2091D01*
X1458Y-2124D01*
X1516Y-2135D01*
X1574Y-2124D01*
X1623Y-2091D01*
X1656Y-2042D01*
X1667Y-1984D01*
X1656Y-1926D01*
X1623Y-1877D01*
X1574Y-1844D01*
X1516Y-1833D01*
D02*
G37*
G36*
X217D02*
X159Y-1844D01*
X110Y-1877D01*
X77Y-1926D01*
X66Y-1984D01*
X77Y-2042D01*
X110Y-2091D01*
X159Y-2124D01*
X217Y-2135D01*
X275Y-2124D01*
X324Y-2091D01*
X357Y-2042D01*
X368Y-1984D01*
X357Y-1926D01*
X324Y-1877D01*
X275Y-1844D01*
X217Y-1833D01*
D02*
G37*
G36*
X650D02*
X592Y-1844D01*
X543Y-1877D01*
X510Y-1926D01*
X499Y-1984D01*
X510Y-2042D01*
X543Y-2091D01*
X592Y-2124D01*
X650Y-2135D01*
X708Y-2124D01*
X757Y-2091D01*
X790Y-2042D01*
X801Y-1984D01*
X790Y-1926D01*
X757Y-1877D01*
X708Y-1844D01*
X650Y-1833D01*
D02*
G37*
G36*
X1083D02*
X1025Y-1844D01*
X976Y-1877D01*
X943Y-1926D01*
X932Y-1984D01*
X943Y-2042D01*
X976Y-2091D01*
X1025Y-2124D01*
X1083Y-2135D01*
X1141Y-2124D01*
X1190Y-2091D01*
X1223Y-2042D01*
X1234Y-1984D01*
X1223Y-1926D01*
X1190Y-1877D01*
X1141Y-1844D01*
X1083Y-1833D01*
D02*
G37*
G36*
X-4800Y-1757D02*
X-4855Y-1768D01*
X-4901Y-1799D01*
X-4932Y-1845D01*
X-4943Y-1900D01*
X-4932Y-1955D01*
X-4901Y-2001D01*
X-4855Y-2032D01*
X-4800Y-2043D01*
X-4745Y-2032D01*
X-4699Y-2001D01*
X-4668Y-1955D01*
X-4657Y-1900D01*
X-4668Y-1845D01*
X-4699Y-1799D01*
X-4745Y-1768D01*
X-4800Y-1757D01*
D02*
G37*
G36*
X-3683Y-1549D02*
X-3741Y-1561D01*
X-3790Y-1593D01*
X-3823Y-1642D01*
X-3834Y-1700D01*
X-3823Y-1758D01*
X-3790Y-1807D01*
X-3741Y-1840D01*
X-3683Y-1852D01*
X-3625Y-1840D01*
X-3576Y-1807D01*
X-3543Y-1758D01*
X-3532Y-1700D01*
X-3543Y-1642D01*
X-3576Y-1593D01*
X-3625Y-1561D01*
X-3683Y-1549D01*
D02*
G37*
G36*
X-3250D02*
X-3308Y-1561D01*
X-3357Y-1593D01*
X-3390Y-1642D01*
X-3401Y-1700D01*
X-3390Y-1758D01*
X-3357Y-1807D01*
X-3308Y-1840D01*
X-3250Y-1852D01*
X-3192Y-1840D01*
X-3143Y-1807D01*
X-3110Y-1758D01*
X-3099Y-1700D01*
X-3110Y-1642D01*
X-3143Y-1593D01*
X-3192Y-1561D01*
X-3250Y-1549D01*
D02*
G37*
G36*
X-2817D02*
X-2875Y-1561D01*
X-2924Y-1593D01*
X-2957Y-1642D01*
X-2968Y-1700D01*
X-2957Y-1758D01*
X-2924Y-1807D01*
X-2875Y-1840D01*
X-2817Y-1852D01*
X-2759Y-1840D01*
X-2710Y-1807D01*
X-2677Y-1758D01*
X-2666Y-1700D01*
X-2677Y-1642D01*
X-2710Y-1593D01*
X-2759Y-1561D01*
X-2817Y-1549D01*
D02*
G37*
G36*
X3050Y-1457D02*
X2995Y-1468D01*
X2949Y-1499D01*
X2918Y-1545D01*
X2907Y-1600D01*
X2918Y-1655D01*
X2949Y-1701D01*
X2985Y-1725D01*
Y-1775D01*
X2949Y-1799D01*
X2918Y-1845D01*
X2907Y-1900D01*
X2918Y-1955D01*
X2949Y-2001D01*
X2995Y-2032D01*
X3050Y-2043D01*
X3105Y-2032D01*
X3151Y-2001D01*
X3182Y-1955D01*
X3193Y-1900D01*
X3182Y-1845D01*
X3151Y-1799D01*
X3115Y-1775D01*
Y-1725D01*
X3151Y-1701D01*
X3182Y-1655D01*
X3193Y-1600D01*
X3182Y-1545D01*
X3151Y-1499D01*
X3105Y-1468D01*
X3050Y-1457D01*
D02*
G37*
G36*
X-885Y-1890D02*
X-1215D01*
X-1210Y-1916D01*
X-1173Y-1973D01*
X-1116Y-2010D01*
D01*
D01*
X-1116Y-2010D01*
D01*
X-1123Y-2049D01*
X-1154Y-2095D01*
X-1165Y-2150D01*
X-1154Y-2205D01*
Y-2205D01*
X-1192Y-2215D01*
X-1192Y-2215D01*
Y-2215D01*
X-1247Y-2226D01*
X-1293Y-2257D01*
X-1324Y-2303D01*
X-1335Y-2358D01*
X-1324Y-2412D01*
X-1293Y-2459D01*
X-1247Y-2490D01*
X-1192Y-2501D01*
X-1182Y-2554D01*
X-1182Y-2555D01*
X-1179Y-2569D01*
X-1207Y-2610D01*
X-1253Y-2620D01*
X-1299Y-2651D01*
X-1330Y-2697D01*
X-1341Y-2752D01*
X-1330Y-2806D01*
X-1299Y-2853D01*
X-1253Y-2883D01*
X-1198Y-2894D01*
X-1189Y-2940D01*
X-1191Y-2948D01*
X-1187Y-2968D01*
X-1223Y-3004D01*
X-1228Y-3003D01*
X-1282Y-3013D01*
X-1329Y-3044D01*
X-1359Y-3091D01*
X-1370Y-3145D01*
X-1359Y-3200D01*
X-1329Y-3246D01*
X-1282Y-3277D01*
X-1228Y-3288D01*
X-1223Y-3287D01*
X-1187Y-3322D01*
X-1193Y-3350D01*
X-1191Y-3356D01*
X-1219Y-3398D01*
X-1266Y-3407D01*
X-1312Y-3438D01*
X-1343Y-3484D01*
X-1354Y-3539D01*
X-1343Y-3594D01*
X-1312Y-3640D01*
X-1266Y-3671D01*
X-1211Y-3682D01*
X-1200Y-3692D01*
X-1201Y-3696D01*
X-870D01*
X-876Y-3670D01*
X-913Y-3613D01*
X-970Y-3576D01*
X-1036Y-3562D01*
X-1048Y-3501D01*
X-1042Y-3491D01*
X-995Y-3482D01*
X-949Y-3451D01*
X-918Y-3405D01*
X-907Y-3350D01*
X-918Y-3295D01*
X-949Y-3249D01*
X-995Y-3218D01*
X-1050Y-3207D01*
X-1055Y-3208D01*
X-1090Y-3173D01*
X-1085Y-3145D01*
X-1089Y-3126D01*
X-1053Y-3090D01*
X-1048Y-3091D01*
X-994Y-3080D01*
X-947Y-3049D01*
X-917Y-3003D01*
X-906Y-2948D01*
X-917Y-2894D01*
X-947Y-2847D01*
X-994Y-2817D01*
X-1048Y-2806D01*
X-1057Y-2760D01*
X-1056Y-2752D01*
X-1059Y-2737D01*
X-1031Y-2696D01*
X-984Y-2687D01*
X-938Y-2656D01*
X-907Y-2609D01*
X-896Y-2555D01*
X-907Y-2500D01*
X-938Y-2454D01*
X-984Y-2423D01*
X-1039Y-2412D01*
X-1050Y-2359D01*
X-1049Y-2358D01*
X-1060Y-2303D01*
X-1022Y-2293D01*
X-1022Y-2293D01*
Y-2293D01*
X-967Y-2282D01*
X-921Y-2251D01*
X-890Y-2205D01*
X-879Y-2150D01*
X-890Y-2095D01*
X-921Y-2049D01*
X-944Y-2034D01*
X-944Y-1984D01*
X-927Y-1973D01*
X-890Y-1916D01*
X-885Y-1890D01*
D02*
G37*
G36*
X-4116Y-1549D02*
X-4174Y-1561D01*
X-4223Y-1593D01*
X-4256Y-1642D01*
X-4267Y-1700D01*
X-4256Y-1758D01*
X-4223Y-1807D01*
X-4174Y-1840D01*
X-4116Y-1852D01*
X-4058Y-1840D01*
X-4009Y-1807D01*
X-3976Y-1758D01*
X-3965Y-1700D01*
X-3976Y-1642D01*
X-4009Y-1593D01*
X-4058Y-1561D01*
X-4116Y-1549D01*
D02*
G37*
G36*
X1516Y-2266D02*
X1458Y-2277D01*
X1409Y-2310D01*
X1376Y-2359D01*
X1365Y-2417D01*
X1376Y-2475D01*
X1409Y-2524D01*
X1458Y-2557D01*
X1516Y-2568D01*
X1574Y-2557D01*
X1623Y-2524D01*
X1656Y-2475D01*
X1667Y-2417D01*
X1656Y-2359D01*
X1623Y-2310D01*
X1574Y-2277D01*
X1516Y-2266D01*
D02*
G37*
G36*
X-4800Y-2257D02*
X-4855Y-2268D01*
X-4901Y-2299D01*
X-4932Y-2345D01*
X-4943Y-2400D01*
X-4932Y-2455D01*
X-4901Y-2501D01*
X-4855Y-2532D01*
X-4800Y-2543D01*
X-4745Y-2532D01*
X-4699Y-2501D01*
X-4668Y-2455D01*
X-4657Y-2400D01*
X-4668Y-2345D01*
X-4699Y-2299D01*
X-4745Y-2268D01*
X-4800Y-2257D01*
D02*
G37*
G36*
X2515Y-2140D02*
X2185D01*
X2190Y-2166D01*
X2227Y-2223D01*
X2241Y-2232D01*
Y-2257D01*
X2210Y-2303D01*
X2199Y-2358D01*
X2210Y-2412D01*
X2241Y-2459D01*
X2288Y-2490D01*
X2342Y-2501D01*
X2397Y-2490D01*
X2443Y-2459D01*
X2474Y-2412D01*
X2485Y-2358D01*
X2474Y-2303D01*
X2456Y-2276D01*
X2466Y-2227D01*
X2473Y-2223D01*
X2510Y-2166D01*
X2515Y-2140D01*
D02*
G37*
G36*
X217Y-2266D02*
X159Y-2277D01*
X110Y-2310D01*
X77Y-2359D01*
X66Y-2417D01*
X77Y-2475D01*
X110Y-2524D01*
X159Y-2557D01*
X217Y-2568D01*
X275Y-2557D01*
X324Y-2524D01*
X357Y-2475D01*
X368Y-2417D01*
X357Y-2359D01*
X324Y-2310D01*
X275Y-2277D01*
X217Y-2266D01*
D02*
G37*
G36*
X650D02*
X592Y-2277D01*
X543Y-2310D01*
X510Y-2359D01*
X499Y-2417D01*
X510Y-2475D01*
X543Y-2524D01*
X592Y-2557D01*
X650Y-2568D01*
X708Y-2557D01*
X757Y-2524D01*
X790Y-2475D01*
X801Y-2417D01*
X790Y-2359D01*
X757Y-2310D01*
X708Y-2277D01*
X650Y-2266D01*
D02*
G37*
G36*
X1083D02*
X1025Y-2277D01*
X976Y-2310D01*
X943Y-2359D01*
X932Y-2417D01*
X943Y-2475D01*
X976Y-2524D01*
X1025Y-2557D01*
X1083Y-2568D01*
X1141Y-2557D01*
X1190Y-2524D01*
X1223Y-2475D01*
X1234Y-2417D01*
X1223Y-2359D01*
X1190Y-2310D01*
X1141Y-2277D01*
X1083Y-2266D01*
D02*
G37*
G36*
X3550Y-2157D02*
X3495Y-2168D01*
X3449Y-2199D01*
X3418Y-2245D01*
X3407Y-2300D01*
X3418Y-2355D01*
X3449Y-2401D01*
X3495Y-2432D01*
X3550Y-2443D01*
X3605Y-2432D01*
X3651Y-2401D01*
X3682Y-2355D01*
X3693Y-2300D01*
X3682Y-2245D01*
X3651Y-2199D01*
X3605Y-2168D01*
X3550Y-2157D01*
D02*
G37*
G36*
X-2817Y-1982D02*
X-2875Y-1994D01*
X-2924Y-2026D01*
X-2957Y-2076D01*
X-2968Y-2133D01*
X-2957Y-2191D01*
X-2924Y-2240D01*
X-2875Y-2273D01*
X-2817Y-2285D01*
X-2759Y-2273D01*
X-2710Y-2240D01*
X-2677Y-2191D01*
X-2666Y-2133D01*
X-2677Y-2076D01*
X-2710Y-2026D01*
X-2759Y-1994D01*
X-2817Y-1982D01*
D02*
G37*
G36*
X-2384D02*
X-2442Y-1994D01*
X-2491Y-2026D01*
X-2524Y-2076D01*
X-2535Y-2133D01*
X-2524Y-2191D01*
X-2491Y-2240D01*
X-2442Y-2273D01*
X-2384Y-2285D01*
X-2326Y-2273D01*
X-2277Y-2240D01*
X-2244Y-2191D01*
X-2233Y-2133D01*
X-2244Y-2076D01*
X-2277Y-2026D01*
X-2326Y-1994D01*
X-2384Y-1982D01*
D02*
G37*
G36*
X-216Y-1833D02*
X-274Y-1844D01*
X-323Y-1877D01*
X-356Y-1926D01*
X-367Y-1984D01*
X-356Y-2042D01*
X-323Y-2091D01*
X-274Y-2124D01*
X-216Y-2135D01*
X-158Y-2124D01*
X-109Y-2091D01*
X-76Y-2042D01*
X-65Y-1984D01*
X-76Y-1926D01*
X-109Y-1877D01*
X-158Y-1844D01*
X-216Y-1833D01*
D02*
G37*
G36*
X-4116Y-1982D02*
X-4174Y-1994D01*
X-4223Y-2026D01*
X-4256Y-2076D01*
X-4267Y-2133D01*
X-4256Y-2191D01*
X-4223Y-2240D01*
X-4174Y-2273D01*
X-4116Y-2285D01*
X-4058Y-2273D01*
X-4009Y-2240D01*
X-3976Y-2191D01*
X-3965Y-2133D01*
X-3976Y-2076D01*
X-4009Y-2026D01*
X-4058Y-1994D01*
X-4116Y-1982D01*
D02*
G37*
G36*
X-3683D02*
X-3741Y-1994D01*
X-3790Y-2026D01*
X-3823Y-2076D01*
X-3834Y-2133D01*
X-3823Y-2191D01*
X-3790Y-2240D01*
X-3741Y-2273D01*
X-3683Y-2285D01*
X-3625Y-2273D01*
X-3576Y-2240D01*
X-3543Y-2191D01*
X-3532Y-2133D01*
X-3543Y-2076D01*
X-3576Y-2026D01*
X-3625Y-1994D01*
X-3683Y-1982D01*
D02*
G37*
G36*
X-3250D02*
X-3308Y-1994D01*
X-3357Y-2026D01*
X-3390Y-2076D01*
X-3401Y-2133D01*
X-3390Y-2191D01*
X-3357Y-2240D01*
X-3308Y-2273D01*
X-3250Y-2285D01*
X-3192Y-2273D01*
X-3143Y-2240D01*
X-3110Y-2191D01*
X-3099Y-2133D01*
X-3110Y-2076D01*
X-3143Y-2026D01*
X-3192Y-1994D01*
X-3250Y-1982D01*
D02*
G37*
G36*
X1576Y-999D02*
Y-1124D01*
X1701D01*
X1696Y-1098D01*
X1658Y-1042D01*
X1602Y-1004D01*
X1576Y-999D01*
D02*
G37*
G36*
X905Y-989D02*
X879Y-995D01*
X823Y-1032D01*
X785Y-1088D01*
X780Y-1115D01*
X905D01*
Y-989D01*
D02*
G37*
G36*
X985D02*
Y-1115D01*
X1111D01*
X1105Y-1088D01*
X1068Y-1032D01*
X1012Y-995D01*
X985Y-989D01*
D02*
G37*
G36*
X415Y-890D02*
X85D01*
X90Y-916D01*
X127Y-973D01*
X129Y-974D01*
X119Y-1023D01*
X103Y-1026D01*
X57Y-1057D01*
X26Y-1103D01*
X15Y-1158D01*
X26Y-1213D01*
X57Y-1259D01*
X103Y-1290D01*
X158Y-1301D01*
X213Y-1290D01*
X259Y-1259D01*
X290Y-1213D01*
X301Y-1158D01*
X290Y-1103D01*
X263Y-1063D01*
X276Y-1031D01*
X286Y-1016D01*
X316Y-1010D01*
X373Y-973D01*
X410Y-916D01*
X415Y-890D01*
D02*
G37*
G36*
X-1300Y-857D02*
X-1355Y-868D01*
X-1401Y-899D01*
X-1432Y-945D01*
X-1443Y-1000D01*
X-1432Y-1055D01*
X-1401Y-1101D01*
X-1355Y-1132D01*
X-1300Y-1143D01*
X-1245Y-1132D01*
X-1199Y-1101D01*
X-1168Y-1055D01*
X-1157Y-1000D01*
X-1168Y-945D01*
X-1199Y-899D01*
X-1245Y-868D01*
X-1300Y-857D01*
D02*
G37*
G36*
X1496Y-999D02*
X1470Y-1004D01*
X1413Y-1042D01*
X1376Y-1098D01*
X1370Y-1124D01*
X1496D01*
Y-999D01*
D02*
G37*
G36*
X1250Y-707D02*
X1195Y-718D01*
X1149Y-749D01*
X1118Y-795D01*
X1107Y-850D01*
X1118Y-905D01*
X1149Y-951D01*
X1195Y-982D01*
X1250Y-993D01*
X1305Y-982D01*
X1351Y-951D01*
X1382Y-905D01*
X1393Y-850D01*
X1382Y-795D01*
X1351Y-749D01*
X1305Y-718D01*
X1250Y-707D01*
D02*
G37*
G36*
X3450Y191D02*
X3377Y177D01*
X3315Y135D01*
X3273Y73D01*
X3259Y0D01*
X3273Y-73D01*
X3315Y-135D01*
X3377Y-177D01*
X3450Y-191D01*
X3523Y-177D01*
X3585Y-135D01*
X3627Y-73D01*
X3641Y0D01*
X3627Y73D01*
X3585Y135D01*
X3523Y177D01*
X3450Y191D01*
D02*
G37*
G36*
X-5100Y363D02*
X-5162Y351D01*
X-5215Y315D01*
X-5251Y262D01*
X-5263Y200D01*
X-5251Y138D01*
X-5215Y85D01*
X-5162Y49D01*
X-5100Y37D01*
X-5038Y49D01*
X-4985Y85D01*
X-4949Y138D01*
X-4937Y200D01*
X-4949Y262D01*
X-4985Y315D01*
X-5038Y351D01*
X-5100Y363D01*
D02*
G37*
G36*
X-3951Y635D02*
X-4021Y621D01*
X-4081Y581D01*
X-4121Y521D01*
X-4135Y451D01*
X-4121Y381D01*
X-4081Y321D01*
X-4021Y282D01*
X-3951Y268D01*
X-3881Y282D01*
X-3821Y321D01*
X-3782Y381D01*
X-3768Y451D01*
X-3782Y521D01*
X-3821Y581D01*
X-3881Y621D01*
X-3951Y635D01*
D02*
G37*
G36*
X5050Y143D02*
X4995Y132D01*
X4949Y101D01*
X4918Y55D01*
X4907Y0D01*
X4918Y-55D01*
X4949Y-101D01*
Y-149D01*
X4918Y-195D01*
X4907Y-250D01*
X4918Y-305D01*
X4949Y-351D01*
Y-399D01*
X4918Y-445D01*
X4907Y-500D01*
X4918Y-555D01*
X4949Y-601D01*
X4967Y-613D01*
X4967Y-663D01*
X4935Y-685D01*
X4899Y-738D01*
X4887Y-800D01*
X4899Y-862D01*
X4935Y-915D01*
X4988Y-951D01*
X5050Y-963D01*
X5112Y-951D01*
X5165Y-915D01*
X5201Y-862D01*
X5213Y-800D01*
X5201Y-738D01*
X5165Y-685D01*
X5133Y-663D01*
X5133Y-613D01*
X5151Y-601D01*
X5182Y-555D01*
X5193Y-500D01*
X5182Y-445D01*
X5151Y-399D01*
Y-351D01*
X5182Y-305D01*
X5193Y-250D01*
X5182Y-195D01*
X5151Y-149D01*
Y-101D01*
X5182Y-55D01*
X5193Y0D01*
X5182Y55D01*
X5151Y101D01*
X5105Y132D01*
X5050Y143D01*
D02*
G37*
G36*
X-2500Y-657D02*
X-2555Y-668D01*
X-2601Y-699D01*
X-2632Y-745D01*
X-2643Y-800D01*
X-2632Y-855D01*
X-2601Y-901D01*
X-2555Y-932D01*
X-2500Y-943D01*
X-2445Y-932D01*
X-2399Y-901D01*
X-2368Y-855D01*
X-2357Y-800D01*
X-2368Y-745D01*
X-2399Y-699D01*
X-2445Y-668D01*
X-2500Y-657D01*
D02*
G37*
G36*
X-5900Y34D02*
X-5970Y20D01*
X-6030Y-20D01*
X-6070Y-80D01*
X-6084Y-150D01*
X-6070Y-220D01*
X-6030Y-280D01*
X-5970Y-320D01*
X-5900Y-334D01*
X-5830Y-320D01*
X-5770Y-280D01*
X-5730Y-220D01*
X-5716Y-150D01*
X-5730Y-80D01*
X-5770Y-20D01*
X-5830Y20D01*
X-5900Y34D01*
D02*
G37*
G36*
X-4800Y-1207D02*
X-4855Y-1218D01*
X-4901Y-1249D01*
X-4932Y-1295D01*
X-4943Y-1350D01*
X-4932Y-1405D01*
X-4901Y-1451D01*
X-4855Y-1482D01*
X-4800Y-1493D01*
X-4745Y-1482D01*
X-4699Y-1451D01*
X-4668Y-1405D01*
X-4657Y-1350D01*
X-4668Y-1295D01*
X-4699Y-1249D01*
X-4745Y-1218D01*
X-4800Y-1207D01*
D02*
G37*
G36*
X3350D02*
X3295Y-1218D01*
X3249Y-1249D01*
X3218Y-1295D01*
X3207Y-1350D01*
X3218Y-1405D01*
X3249Y-1451D01*
X3295Y-1482D01*
X3350Y-1493D01*
X3405Y-1482D01*
X3451Y-1451D01*
X3482Y-1405D01*
X3493Y-1350D01*
X3482Y-1295D01*
X3451Y-1249D01*
X3405Y-1218D01*
X3350Y-1207D01*
D02*
G37*
G36*
X3750D02*
X3695Y-1218D01*
X3649Y-1249D01*
X3618Y-1295D01*
X3607Y-1350D01*
X3618Y-1405D01*
X3649Y-1451D01*
X3695Y-1482D01*
X3750Y-1493D01*
X3805Y-1482D01*
X3851Y-1451D01*
X3882Y-1405D01*
X3893Y-1350D01*
X3882Y-1295D01*
X3851Y-1249D01*
X3805Y-1218D01*
X3750Y-1207D01*
D02*
G37*
G36*
X-2384Y-1549D02*
X-2442Y-1561D01*
X-2491Y-1593D01*
X-2524Y-1642D01*
X-2535Y-1700D01*
X-2524Y-1758D01*
X-2491Y-1807D01*
X-2442Y-1840D01*
X-2384Y-1852D01*
X-2326Y-1840D01*
X-2277Y-1807D01*
X-2244Y-1758D01*
X-2233Y-1700D01*
X-2244Y-1642D01*
X-2277Y-1593D01*
X-2326Y-1561D01*
X-2384Y-1549D01*
D02*
G37*
G36*
X-1090Y-1685D02*
X-1116Y-1690D01*
X-1173Y-1727D01*
X-1210Y-1784D01*
X-1215Y-1810D01*
X-1090D01*
Y-1685D01*
D02*
G37*
G36*
X-558Y-1503D02*
X-684D01*
Y-1628D01*
X-657Y-1623D01*
X-601Y-1585D01*
X-563Y-1529D01*
X-558Y-1503D01*
D02*
G37*
G36*
X4139Y-1146D02*
X4084Y-1157D01*
X4038Y-1188D01*
X4007Y-1234D01*
X3996Y-1289D01*
X4007Y-1344D01*
X4038Y-1390D01*
X4084Y-1421D01*
X4139Y-1432D01*
X4194Y-1421D01*
X4240Y-1390D01*
X4271Y-1344D01*
X4282Y-1289D01*
X4271Y-1234D01*
X4240Y-1188D01*
X4194Y-1157D01*
X4139Y-1146D01*
D02*
G37*
G36*
X905Y-1195D02*
X780D01*
X785Y-1221D01*
X823Y-1277D01*
X879Y-1315D01*
X905Y-1320D01*
Y-1195D01*
D02*
G37*
G36*
X1111D02*
X985D01*
Y-1320D01*
X1012Y-1315D01*
X1068Y-1277D01*
X1105Y-1221D01*
X1111Y-1195D01*
D02*
G37*
G36*
X1927Y-1034D02*
X1873Y-1045D01*
X1826Y-1076D01*
X1795Y-1123D01*
X1784Y-1177D01*
X1795Y-1232D01*
X1826Y-1278D01*
X1873Y-1309D01*
X1927Y-1320D01*
X1982Y-1309D01*
X2028Y-1278D01*
X2059Y-1232D01*
X2070Y-1177D01*
X2059Y-1123D01*
X2028Y-1076D01*
X1982Y-1045D01*
X1927Y-1034D01*
D02*
G37*
G36*
X-684Y-1297D02*
Y-1423D01*
X-558D01*
X-563Y-1396D01*
X-601Y-1340D01*
X-657Y-1302D01*
X-684Y-1297D01*
D02*
G37*
G36*
X1496Y-1204D02*
X1370D01*
X1376Y-1230D01*
X1413Y-1287D01*
X1470Y-1324D01*
X1496Y-1330D01*
Y-1204D01*
D02*
G37*
G36*
X1701D02*
X1576D01*
Y-1330D01*
X1602Y-1324D01*
X1658Y-1287D01*
X1696Y-1230D01*
X1701Y-1204D01*
D02*
G37*
G36*
X-2460Y-4085D02*
Y-4210D01*
X-2335D01*
X-2340Y-4184D01*
X-2377Y-4127D01*
X-2434Y-4090D01*
X-2460Y-4085D01*
D02*
G37*
G36*
X-3500Y-3907D02*
X-3555Y-3918D01*
X-3601Y-3949D01*
X-3632Y-3995D01*
X-3643Y-4050D01*
X-3632Y-4105D01*
X-3601Y-4151D01*
X-3555Y-4182D01*
X-3500Y-4193D01*
X-3445Y-4182D01*
X-3399Y-4151D01*
X-3368Y-4105D01*
X-3357Y-4050D01*
X-3368Y-3995D01*
X-3399Y-3949D01*
X-3445Y-3918D01*
X-3500Y-3907D01*
D02*
G37*
G36*
X-668Y-4063D02*
X-694Y-4068D01*
X-751Y-4105D01*
X-788Y-4162D01*
X-793Y-4188D01*
X-668D01*
Y-4063D01*
D02*
G37*
G36*
Y-4268D02*
X-793D01*
X-788Y-4294D01*
X-751Y-4351D01*
X-694Y-4388D01*
X-668Y-4393D01*
Y-4268D01*
D02*
G37*
G36*
X-463D02*
X-588D01*
Y-4393D01*
X-562Y-4388D01*
X-505Y-4351D01*
X-468Y-4294D01*
X-463Y-4268D01*
D02*
G37*
G36*
X-2540Y-4085D02*
X-2566Y-4090D01*
X-2623Y-4127D01*
X-2660Y-4184D01*
X-2670Y-4234D01*
X-2719Y-4244D01*
X-2749Y-4199D01*
X-2795Y-4168D01*
X-2850Y-4157D01*
X-2905Y-4168D01*
X-2951Y-4199D01*
X-2982Y-4245D01*
X-2993Y-4300D01*
X-2987Y-4328D01*
X-3022Y-4364D01*
X-3055Y-4357D01*
X-3109Y-4368D01*
X-3156Y-4399D01*
X-3187Y-4445D01*
X-3198Y-4500D01*
X-3187Y-4555D01*
X-3156Y-4601D01*
X-3109Y-4632D01*
X-3118Y-4675D01*
X-3132Y-4695D01*
X-3143Y-4750D01*
X-3132Y-4805D01*
X-3101Y-4851D01*
X-3055Y-4882D01*
X-3000Y-4893D01*
X-2945Y-4882D01*
X-2899Y-4851D01*
X-2868Y-4805D01*
X-2857Y-4750D01*
X-2868Y-4695D01*
X-2899Y-4649D01*
X-2945Y-4618D01*
X-2937Y-4575D01*
X-2923Y-4555D01*
X-2912Y-4500D01*
X-2918Y-4472D01*
X-2882Y-4436D01*
X-2850Y-4443D01*
X-2795Y-4432D01*
X-2749Y-4401D01*
X-2718Y-4355D01*
X-2710Y-4315D01*
X-2660D01*
X-2660Y-4316D01*
X-2623Y-4373D01*
X-2566Y-4410D01*
X-2540Y-4415D01*
Y-4250D01*
Y-4085D01*
D02*
G37*
G36*
X-588Y-4063D02*
Y-4188D01*
X-463D01*
X-468Y-4162D01*
X-505Y-4105D01*
X-562Y-4068D01*
X-588Y-4063D01*
D02*
G37*
G36*
X2501Y-3776D02*
X2376D01*
Y-3901D01*
X2402Y-3896D01*
X2458Y-3858D01*
X2496Y-3802D01*
X2501Y-3776D01*
D02*
G37*
G36*
X-216Y-3565D02*
X-274Y-3576D01*
X-323Y-3609D01*
X-356Y-3658D01*
X-367Y-3716D01*
X-356Y-3774D01*
X-323Y-3823D01*
X-274Y-3856D01*
X-216Y-3867D01*
X-158Y-3856D01*
X-109Y-3823D01*
X-76Y-3774D01*
X-65Y-3716D01*
X-76Y-3658D01*
X-109Y-3609D01*
X-158Y-3576D01*
X-216Y-3565D01*
D02*
G37*
G36*
X217D02*
X159Y-3576D01*
X110Y-3609D01*
X77Y-3658D01*
X66Y-3716D01*
X77Y-3774D01*
X110Y-3823D01*
X159Y-3856D01*
X217Y-3867D01*
X275Y-3856D01*
X324Y-3823D01*
X357Y-3774D01*
X368Y-3716D01*
X357Y-3658D01*
X324Y-3609D01*
X275Y-3576D01*
X217Y-3565D01*
D02*
G37*
G36*
X-1076Y-3776D02*
X-1201D01*
X-1196Y-3802D01*
X-1158Y-3858D01*
X-1102Y-3896D01*
X-1076Y-3901D01*
Y-3776D01*
D02*
G37*
G36*
X-870D02*
X-996D01*
Y-3901D01*
X-970Y-3896D01*
X-913Y-3858D01*
X-876Y-3802D01*
X-870Y-3776D01*
D02*
G37*
G36*
X2296D02*
X2170D01*
X2176Y-3802D01*
X2213Y-3858D01*
X2270Y-3896D01*
X2296Y-3901D01*
Y-3776D01*
D02*
G37*
G36*
X-1150Y-5207D02*
X-1205Y-5218D01*
X-1251Y-5249D01*
X-1282Y-5295D01*
X-1293Y-5350D01*
X-1282Y-5405D01*
X-1251Y-5451D01*
X-1205Y-5482D01*
X-1150Y-5493D01*
X-1095Y-5482D01*
X-1049Y-5451D01*
X-1018Y-5405D01*
X-1007Y-5350D01*
X-1018Y-5295D01*
X-1049Y-5249D01*
X-1095Y-5218D01*
X-1150Y-5207D01*
D02*
G37*
G36*
X2400Y-5137D02*
X2338Y-5149D01*
X2285Y-5185D01*
X2249Y-5238D01*
X2237Y-5300D01*
X2249Y-5362D01*
X2285Y-5415D01*
X2338Y-5451D01*
X2400Y-5463D01*
X2462Y-5451D01*
X2515Y-5415D01*
X2551Y-5362D01*
X2563Y-5300D01*
X2551Y-5238D01*
X2515Y-5185D01*
X2462Y-5149D01*
X2400Y-5137D01*
D02*
G37*
G36*
X-1593Y-4929D02*
X-1652D01*
Y-4940D01*
X-1677Y-4945D01*
X-1724Y-4976D01*
X-1755Y-5023D01*
X-1766Y-5077D01*
X-1755Y-5132D01*
X-1724Y-5178D01*
X-1677Y-5209D01*
X-1623Y-5220D01*
X-1623Y-5220D01*
X-1632Y-5245D01*
X-1632Y-5245D01*
X-1632Y-5245D01*
X-1643Y-5300D01*
X-1632Y-5355D01*
X-1601Y-5401D01*
X-1555Y-5432D01*
X-1500Y-5443D01*
X-1445Y-5432D01*
X-1399Y-5401D01*
X-1368Y-5355D01*
X-1357Y-5300D01*
X-1368Y-5245D01*
X-1399Y-5199D01*
X-1445Y-5168D01*
X-1473Y-5163D01*
X-1491Y-5132D01*
D01*
D01*
X-1491Y-5132D01*
X-1480Y-5077D01*
X-1491Y-5023D01*
X-1522Y-4976D01*
X-1568Y-4945D01*
X-1593Y-4940D01*
Y-4929D01*
D02*
G37*
G36*
X177Y-5480D02*
X123Y-5491D01*
X76Y-5522D01*
X45Y-5568D01*
X34Y-5623D01*
X45Y-5677D01*
X76Y-5724D01*
X123Y-5755D01*
X177Y-5766D01*
X232Y-5755D01*
X278Y-5724D01*
X309Y-5677D01*
X320Y-5623D01*
X309Y-5568D01*
X278Y-5522D01*
X232Y-5491D01*
X177Y-5480D01*
D02*
G37*
G36*
X1310Y-5490D02*
X1185D01*
X1190Y-5516D01*
X1227Y-5573D01*
X1284Y-5610D01*
X1310Y-5615D01*
Y-5490D01*
D02*
G37*
G36*
X1515D02*
X1390D01*
Y-5615D01*
X1416Y-5610D01*
X1473Y-5573D01*
X1510Y-5516D01*
X1515Y-5490D01*
D02*
G37*
G36*
X1310Y-5285D02*
X1284Y-5290D01*
X1227Y-5327D01*
X1190Y-5384D01*
X1185Y-5410D01*
X1310D01*
Y-5285D01*
D02*
G37*
G36*
X-1663Y-4763D02*
X-1788D01*
X-1783Y-4789D01*
X-1745Y-4845D01*
X-1689Y-4883D01*
X-1663Y-4888D01*
Y-4763D01*
D02*
G37*
G36*
X-1123Y-4134D02*
X-1177Y-4145D01*
X-1224Y-4176D01*
X-1255Y-4223D01*
X-1266Y-4277D01*
X-1255Y-4332D01*
X-1224Y-4378D01*
X-1177Y-4409D01*
X-1123Y-4420D01*
X-1068Y-4409D01*
X-1022Y-4378D01*
X-991Y-4332D01*
X-980Y-4277D01*
X-991Y-4223D01*
X-1022Y-4176D01*
X-1068Y-4145D01*
X-1123Y-4134D01*
D02*
G37*
G36*
X-2335Y-4290D02*
X-2460D01*
Y-4415D01*
X-2434Y-4410D01*
X-2377Y-4373D01*
X-2340Y-4316D01*
X-2335Y-4290D01*
D02*
G37*
G36*
X1390Y-5285D02*
Y-5410D01*
X1515D01*
X1510Y-5384D01*
X1473Y-5327D01*
X1416Y-5290D01*
X1390Y-5285D01*
D02*
G37*
G36*
X1900Y-5107D02*
X1845Y-5118D01*
X1799Y-5149D01*
X1768Y-5195D01*
X1757Y-5250D01*
X1768Y-5305D01*
X1799Y-5351D01*
X1845Y-5382D01*
X1900Y-5393D01*
X1955Y-5382D01*
X2001Y-5351D01*
X2032Y-5305D01*
X2043Y-5250D01*
X2032Y-5195D01*
X2001Y-5149D01*
X1955Y-5118D01*
X1900Y-5107D01*
D02*
G37*
G36*
X23Y-5034D02*
X-32Y-5045D01*
X-78Y-5076D01*
X-109Y-5123D01*
X-120Y-5177D01*
X-112Y-5218D01*
X-153Y-5246D01*
X-195Y-5218D01*
X-250Y-5207D01*
X-305Y-5218D01*
X-351Y-5249D01*
X-382Y-5295D01*
X-393Y-5350D01*
X-382Y-5405D01*
X-351Y-5451D01*
X-305Y-5482D01*
X-250Y-5493D01*
X-195Y-5482D01*
X-149Y-5451D01*
X-118Y-5405D01*
X-107Y-5350D01*
X-115Y-5309D01*
X-74Y-5281D01*
X-32Y-5309D01*
X23Y-5320D01*
X77Y-5309D01*
X124Y-5278D01*
X155Y-5232D01*
X166Y-5177D01*
X155Y-5123D01*
X124Y-5076D01*
X77Y-5045D01*
X23Y-5034D01*
D02*
G37*
G36*
X650Y-3565D02*
X592Y-3576D01*
X543Y-3609D01*
X510Y-3658D01*
X499Y-3716D01*
X510Y-3774D01*
X543Y-3823D01*
X592Y-3856D01*
X650Y-3867D01*
X708Y-3856D01*
X757Y-3823D01*
X790Y-3774D01*
X801Y-3716D01*
X790Y-3658D01*
X757Y-3609D01*
X708Y-3576D01*
X650Y-3565D01*
D02*
G37*
G36*
X1083Y-2699D02*
X1025Y-2710D01*
X976Y-2743D01*
X943Y-2792D01*
X932Y-2850D01*
X943Y-2908D01*
X976Y-2957D01*
X1025Y-2990D01*
X1083Y-3001D01*
X1141Y-2990D01*
X1190Y-2957D01*
X1223Y-2908D01*
X1234Y-2850D01*
X1223Y-2792D01*
X1190Y-2743D01*
X1141Y-2710D01*
X1083Y-2699D01*
D02*
G37*
G36*
X1516D02*
X1458Y-2710D01*
X1409Y-2743D01*
X1376Y-2792D01*
X1365Y-2850D01*
X1376Y-2908D01*
X1409Y-2957D01*
X1458Y-2990D01*
X1516Y-3001D01*
X1574Y-2990D01*
X1623Y-2957D01*
X1656Y-2908D01*
X1667Y-2850D01*
X1656Y-2792D01*
X1623Y-2743D01*
X1574Y-2710D01*
X1516Y-2699D01*
D02*
G37*
G36*
X-4800Y-2707D02*
X-4855Y-2718D01*
X-4901Y-2749D01*
X-4932Y-2795D01*
X-4943Y-2850D01*
X-4932Y-2905D01*
X-4901Y-2951D01*
X-4855Y-2982D01*
X-4800Y-2993D01*
X-4745Y-2982D01*
X-4699Y-2951D01*
X-4668Y-2905D01*
X-4657Y-2850D01*
X-4668Y-2795D01*
X-4699Y-2749D01*
X-4745Y-2718D01*
X-4800Y-2707D01*
D02*
G37*
G36*
X-216Y-2699D02*
X-274Y-2710D01*
X-323Y-2743D01*
X-356Y-2792D01*
X-367Y-2850D01*
X-356Y-2908D01*
X-323Y-2957D01*
X-274Y-2990D01*
X-216Y-3001D01*
X-158Y-2990D01*
X-109Y-2957D01*
X-76Y-2908D01*
X-65Y-2850D01*
X-76Y-2792D01*
X-109Y-2743D01*
X-158Y-2710D01*
X-216Y-2699D01*
D02*
G37*
G36*
X217D02*
X159Y-2710D01*
X110Y-2743D01*
X77Y-2792D01*
X66Y-2850D01*
X77Y-2908D01*
X110Y-2957D01*
X159Y-2990D01*
X217Y-3001D01*
X275Y-2990D01*
X324Y-2957D01*
X357Y-2908D01*
X368Y-2850D01*
X357Y-2792D01*
X324Y-2743D01*
X275Y-2710D01*
X217Y-2699D01*
D02*
G37*
G36*
X650D02*
X592Y-2710D01*
X543Y-2743D01*
X510Y-2792D01*
X499Y-2850D01*
X510Y-2908D01*
X543Y-2957D01*
X592Y-2990D01*
X650Y-3001D01*
X708Y-2990D01*
X757Y-2957D01*
X790Y-2908D01*
X801Y-2850D01*
X790Y-2792D01*
X757Y-2743D01*
X708Y-2710D01*
X650Y-2699D01*
D02*
G37*
G36*
X2348Y-2609D02*
X2294Y-2620D01*
X2247Y-2651D01*
X2217Y-2697D01*
X2206Y-2752D01*
X2217Y-2806D01*
X2247Y-2853D01*
X2294Y-2883D01*
X2348Y-2894D01*
X2403Y-2883D01*
X2449Y-2853D01*
X2480Y-2806D01*
X2491Y-2752D01*
X2480Y-2697D01*
X2449Y-2651D01*
X2403Y-2620D01*
X2348Y-2609D01*
D02*
G37*
G36*
X-2817Y-2415D02*
X-2875Y-2427D01*
X-2924Y-2460D01*
X-2957Y-2509D01*
X-2968Y-2567D01*
X-2957Y-2624D01*
X-2924Y-2674D01*
X-2875Y-2706D01*
X-2817Y-2718D01*
X-2759Y-2706D01*
X-2710Y-2674D01*
X-2677Y-2624D01*
X-2666Y-2567D01*
X-2677Y-2509D01*
X-2710Y-2460D01*
X-2759Y-2427D01*
X-2817Y-2415D01*
D02*
G37*
G36*
X-2384D02*
X-2442Y-2427D01*
X-2491Y-2460D01*
X-2524Y-2509D01*
X-2535Y-2567D01*
X-2524Y-2624D01*
X-2491Y-2674D01*
X-2442Y-2706D01*
X-2384Y-2718D01*
X-2326Y-2706D01*
X-2277Y-2674D01*
X-2244Y-2624D01*
X-2233Y-2567D01*
X-2244Y-2509D01*
X-2277Y-2460D01*
X-2326Y-2427D01*
X-2384Y-2415D01*
D02*
G37*
G36*
X-216Y-2266D02*
X-274Y-2277D01*
X-323Y-2310D01*
X-356Y-2359D01*
X-367Y-2417D01*
X-356Y-2475D01*
X-323Y-2524D01*
X-274Y-2557D01*
X-216Y-2568D01*
X-158Y-2557D01*
X-109Y-2524D01*
X-76Y-2475D01*
X-65Y-2417D01*
X-76Y-2359D01*
X-109Y-2310D01*
X-158Y-2277D01*
X-216Y-2266D01*
D02*
G37*
G36*
X-4116Y-2415D02*
X-4174Y-2427D01*
X-4223Y-2460D01*
X-4256Y-2509D01*
X-4267Y-2567D01*
X-4256Y-2624D01*
X-4223Y-2674D01*
X-4174Y-2706D01*
X-4116Y-2718D01*
X-4058Y-2706D01*
X-4009Y-2674D01*
X-3976Y-2624D01*
X-3965Y-2567D01*
X-3976Y-2509D01*
X-4009Y-2460D01*
X-4058Y-2427D01*
X-4116Y-2415D01*
D02*
G37*
G36*
X-3683D02*
X-3741Y-2427D01*
X-3790Y-2460D01*
X-3823Y-2509D01*
X-3834Y-2567D01*
X-3823Y-2624D01*
X-3790Y-2674D01*
X-3741Y-2706D01*
X-3683Y-2718D01*
X-3625Y-2706D01*
X-3576Y-2674D01*
X-3543Y-2624D01*
X-3532Y-2567D01*
X-3543Y-2509D01*
X-3576Y-2460D01*
X-3625Y-2427D01*
X-3683Y-2415D01*
D02*
G37*
G36*
X-3250D02*
X-3308Y-2427D01*
X-3357Y-2460D01*
X-3390Y-2509D01*
X-3401Y-2567D01*
X-3390Y-2624D01*
X-3357Y-2674D01*
X-3308Y-2706D01*
X-3250Y-2718D01*
X-3192Y-2706D01*
X-3143Y-2674D01*
X-3110Y-2624D01*
X-3099Y-2567D01*
X-3110Y-2509D01*
X-3143Y-2460D01*
X-3192Y-2427D01*
X-3250Y-2415D01*
D02*
G37*
G36*
X-216Y-3132D02*
X-274Y-3143D01*
X-323Y-3176D01*
X-356Y-3225D01*
X-367Y-3283D01*
X-356Y-3341D01*
X-323Y-3390D01*
X-274Y-3423D01*
X-216Y-3434D01*
X-158Y-3423D01*
X-109Y-3390D01*
X-76Y-3341D01*
X-65Y-3283D01*
X-76Y-3225D01*
X-109Y-3176D01*
X-158Y-3143D01*
X-216Y-3132D01*
D02*
G37*
G36*
X217D02*
X159Y-3143D01*
X110Y-3176D01*
X77Y-3225D01*
X66Y-3283D01*
X77Y-3341D01*
X110Y-3390D01*
X159Y-3423D01*
X217Y-3434D01*
X275Y-3423D01*
X324Y-3390D01*
X357Y-3341D01*
X368Y-3283D01*
X357Y-3225D01*
X324Y-3176D01*
X275Y-3143D01*
X217Y-3132D01*
D02*
G37*
G36*
X650D02*
X592Y-3143D01*
X543Y-3176D01*
X510Y-3225D01*
X499Y-3283D01*
X510Y-3341D01*
X543Y-3390D01*
X592Y-3423D01*
X650Y-3434D01*
X708Y-3423D01*
X757Y-3390D01*
X790Y-3341D01*
X801Y-3283D01*
X790Y-3225D01*
X757Y-3176D01*
X708Y-3143D01*
X650Y-3132D01*
D02*
G37*
G36*
X1083Y-3565D02*
X1025Y-3576D01*
X976Y-3609D01*
X943Y-3658D01*
X932Y-3716D01*
X943Y-3774D01*
X976Y-3823D01*
X1025Y-3856D01*
X1083Y-3867D01*
X1141Y-3856D01*
X1190Y-3823D01*
X1223Y-3774D01*
X1234Y-3716D01*
X1223Y-3658D01*
X1190Y-3609D01*
X1141Y-3576D01*
X1083Y-3565D01*
D02*
G37*
G36*
X1516D02*
X1458Y-3576D01*
X1409Y-3609D01*
X1376Y-3658D01*
X1365Y-3716D01*
X1376Y-3774D01*
X1409Y-3823D01*
X1458Y-3856D01*
X1516Y-3867D01*
X1574Y-3856D01*
X1623Y-3823D01*
X1656Y-3774D01*
X1667Y-3716D01*
X1656Y-3658D01*
X1623Y-3609D01*
X1574Y-3576D01*
X1516Y-3565D01*
D02*
G37*
G36*
X2400Y-3257D02*
X2345Y-3268D01*
X2299Y-3299D01*
X2268Y-3345D01*
X2257Y-3400D01*
X2268Y-3455D01*
X2299Y-3501D01*
X2324Y-3518D01*
X2314Y-3567D01*
X2270Y-3576D01*
X2213Y-3613D01*
X2176Y-3670D01*
X2170Y-3696D01*
X2501D01*
X2496Y-3670D01*
X2458Y-3613D01*
X2418Y-3586D01*
X2428Y-3537D01*
X2455Y-3532D01*
X2501Y-3501D01*
X2532Y-3455D01*
X2543Y-3400D01*
X2532Y-3345D01*
X2501Y-3299D01*
X2455Y-3268D01*
X2400Y-3257D01*
D02*
G37*
G36*
X1083Y-3132D02*
X1025Y-3143D01*
X976Y-3176D01*
X943Y-3225D01*
X932Y-3283D01*
X943Y-3341D01*
X976Y-3390D01*
X1025Y-3423D01*
X1083Y-3434D01*
X1141Y-3423D01*
X1190Y-3390D01*
X1223Y-3341D01*
X1234Y-3283D01*
X1223Y-3225D01*
X1190Y-3176D01*
X1141Y-3143D01*
X1083Y-3132D01*
D02*
G37*
G36*
X-3250Y-2848D02*
X-3308Y-2860D01*
X-3357Y-2893D01*
X-3390Y-2942D01*
X-3401Y-3000D01*
X-3390Y-3058D01*
X-3357Y-3107D01*
X-3308Y-3139D01*
X-3250Y-3151D01*
X-3192Y-3139D01*
X-3143Y-3107D01*
X-3110Y-3058D01*
X-3099Y-3000D01*
X-3110Y-2942D01*
X-3143Y-2893D01*
X-3192Y-2860D01*
X-3250Y-2848D01*
D02*
G37*
G36*
X-2817D02*
X-2875Y-2860D01*
X-2924Y-2893D01*
X-2957Y-2942D01*
X-2968Y-3000D01*
X-2957Y-3058D01*
X-2924Y-3107D01*
X-2875Y-3139D01*
X-2817Y-3151D01*
X-2759Y-3139D01*
X-2710Y-3107D01*
X-2677Y-3058D01*
X-2666Y-3000D01*
X-2677Y-2942D01*
X-2710Y-2893D01*
X-2759Y-2860D01*
X-2817Y-2848D01*
D02*
G37*
G36*
X-2384D02*
X-2442Y-2860D01*
X-2491Y-2893D01*
X-2524Y-2942D01*
X-2535Y-3000D01*
X-2524Y-3058D01*
X-2491Y-3107D01*
X-2442Y-3139D01*
X-2384Y-3151D01*
X-2326Y-3139D01*
X-2277Y-3107D01*
X-2244Y-3058D01*
X-2233Y-3000D01*
X-2244Y-2942D01*
X-2277Y-2893D01*
X-2326Y-2860D01*
X-2384Y-2848D01*
D02*
G37*
G36*
X1516Y-3132D02*
X1458Y-3143D01*
X1409Y-3176D01*
X1376Y-3225D01*
X1365Y-3283D01*
X1376Y-3341D01*
X1409Y-3390D01*
X1458Y-3423D01*
X1516Y-3434D01*
X1574Y-3423D01*
X1623Y-3390D01*
X1656Y-3341D01*
X1667Y-3283D01*
X1656Y-3225D01*
X1623Y-3176D01*
X1574Y-3143D01*
X1516Y-3132D01*
D02*
G37*
G36*
X-4116Y-2848D02*
X-4174Y-2860D01*
X-4223Y-2893D01*
X-4256Y-2942D01*
X-4267Y-3000D01*
X-4256Y-3058D01*
X-4223Y-3107D01*
X-4174Y-3139D01*
X-4116Y-3151D01*
X-4058Y-3139D01*
X-4009Y-3107D01*
X-3976Y-3058D01*
X-3965Y-3000D01*
X-3976Y-2942D01*
X-4009Y-2893D01*
X-4058Y-2860D01*
X-4116Y-2848D01*
D02*
G37*
G36*
X-3683D02*
X-3741Y-2860D01*
X-3790Y-2893D01*
X-3823Y-2942D01*
X-3834Y-3000D01*
X-3823Y-3058D01*
X-3790Y-3107D01*
X-3741Y-3139D01*
X-3683Y-3151D01*
X-3625Y-3139D01*
X-3576Y-3107D01*
X-3543Y-3058D01*
X-3532Y-3000D01*
X-3543Y-2942D01*
X-3576Y-2893D01*
X-3625Y-2860D01*
X-3683Y-2848D01*
D02*
G37*
G36*
X4250Y3643D02*
X4195Y3632D01*
X4149Y3601D01*
X4118Y3555D01*
X4107Y3500D01*
X4118Y3445D01*
X4149Y3399D01*
X4195Y3368D01*
X4250Y3357D01*
X4305Y3368D01*
X4351Y3399D01*
X4382Y3445D01*
X4393Y3500D01*
X4382Y3555D01*
X4351Y3601D01*
X4305Y3632D01*
X4250Y3643D01*
D02*
G37*
G36*
X500Y3768D02*
X442Y3756D01*
X393Y3724D01*
X361Y3674D01*
X349Y3617D01*
X361Y3559D01*
X393Y3510D01*
X442Y3477D01*
X500Y3465D01*
X558Y3477D01*
X607Y3510D01*
X640Y3559D01*
X652Y3617D01*
X640Y3674D01*
X607Y3724D01*
X558Y3756D01*
X500Y3768D01*
D02*
G37*
G36*
X933D02*
X876Y3756D01*
X826Y3724D01*
X794Y3674D01*
X782Y3617D01*
X794Y3559D01*
X826Y3510D01*
X876Y3477D01*
X933Y3465D01*
X991Y3477D01*
X1040Y3510D01*
X1073Y3559D01*
X1085Y3617D01*
X1073Y3674D01*
X1040Y3724D01*
X991Y3756D01*
X933Y3768D01*
D02*
G37*
G36*
X-4600Y3593D02*
X-4655Y3582D01*
X-4701Y3551D01*
X-4732Y3505D01*
X-4743Y3450D01*
X-4732Y3395D01*
X-4701Y3349D01*
X-4655Y3318D01*
X-4600Y3307D01*
X-4545Y3318D01*
X-4499Y3349D01*
X-4468Y3395D01*
X-4457Y3450D01*
X-4468Y3505D01*
X-4499Y3551D01*
X-4545Y3582D01*
X-4600Y3593D01*
D02*
G37*
G36*
X3250D02*
X3195Y3582D01*
X3149Y3551D01*
X3118Y3505D01*
X3107Y3450D01*
X3118Y3395D01*
X3149Y3349D01*
X3195Y3318D01*
X3250Y3307D01*
X3305Y3318D01*
X3351Y3349D01*
X3382Y3395D01*
X3393Y3450D01*
X3382Y3505D01*
X3351Y3551D01*
X3305Y3582D01*
X3250Y3593D01*
D02*
G37*
G36*
X2405Y3838D02*
X2350Y3827D01*
X2304Y3796D01*
X2273Y3750D01*
X2262Y3695D01*
X2273Y3641D01*
X2304Y3594D01*
X2350Y3563D01*
X2405Y3553D01*
X2428Y3557D01*
X2463Y3522D01*
X2459Y3498D01*
X2470Y3444D01*
X2501Y3397D01*
X2547Y3367D01*
X2602Y3356D01*
X2656Y3367D01*
X2703Y3397D01*
X2733Y3444D01*
X2744Y3498D01*
X2733Y3553D01*
X2703Y3599D01*
X2656Y3630D01*
X2602Y3641D01*
X2578Y3637D01*
X2543Y3672D01*
X2547Y3695D01*
X2537Y3750D01*
X2506Y3796D01*
X2459Y3827D01*
X2405Y3838D01*
D02*
G37*
G36*
X1367Y3768D02*
X1309Y3756D01*
X1260Y3724D01*
X1227Y3674D01*
X1215Y3617D01*
X1227Y3559D01*
X1260Y3510D01*
X1309Y3477D01*
X1367Y3465D01*
X1424Y3477D01*
X1474Y3510D01*
X1506Y3559D01*
X1518Y3617D01*
X1506Y3674D01*
X1474Y3724D01*
X1424Y3756D01*
X1367Y3768D01*
D02*
G37*
G36*
X500Y4201D02*
X442Y4189D01*
X393Y4157D01*
X361Y4108D01*
X349Y4050D01*
X361Y3992D01*
X393Y3943D01*
X442Y3910D01*
X500Y3898D01*
X558Y3910D01*
X607Y3943D01*
X640Y3992D01*
X652Y4050D01*
X640Y4108D01*
X607Y4157D01*
X558Y4189D01*
X500Y4201D01*
D02*
G37*
G36*
X933D02*
X876Y4189D01*
X826Y4157D01*
X794Y4108D01*
X782Y4050D01*
X794Y3992D01*
X826Y3943D01*
X876Y3910D01*
X933Y3898D01*
X991Y3910D01*
X1040Y3943D01*
X1073Y3992D01*
X1085Y4050D01*
X1073Y4108D01*
X1040Y4157D01*
X991Y4189D01*
X933Y4201D01*
D02*
G37*
G36*
X1367D02*
X1309Y4189D01*
X1260Y4157D01*
X1227Y4108D01*
X1215Y4050D01*
X1227Y3992D01*
X1260Y3943D01*
X1309Y3910D01*
X1367Y3898D01*
X1424Y3910D01*
X1474Y3943D01*
X1506Y3992D01*
X1518Y4050D01*
X1506Y4108D01*
X1474Y4157D01*
X1424Y4189D01*
X1367Y4201D01*
D02*
G37*
G36*
X1800Y3768D02*
X1742Y3756D01*
X1693Y3724D01*
X1660Y3674D01*
X1648Y3617D01*
X1660Y3559D01*
X1693Y3510D01*
X1742Y3477D01*
X1800Y3465D01*
X1858Y3477D01*
X1907Y3510D01*
X1939Y3559D01*
X1951Y3617D01*
X1939Y3674D01*
X1907Y3724D01*
X1858Y3756D01*
X1800Y3768D01*
D02*
G37*
G36*
X-100Y3793D02*
X-155Y3782D01*
X-201Y3751D01*
X-232Y3705D01*
X-243Y3650D01*
X-232Y3595D01*
X-201Y3549D01*
X-155Y3518D01*
X-100Y3507D01*
X-45Y3518D01*
X1Y3549D01*
X32Y3595D01*
X43Y3650D01*
X32Y3705D01*
X1Y3751D01*
X-45Y3782D01*
X-100Y3793D01*
D02*
G37*
G36*
X4650Y3843D02*
X4595Y3832D01*
X4549Y3801D01*
X4518Y3755D01*
X4507Y3700D01*
X4518Y3645D01*
X4549Y3599D01*
X4595Y3568D01*
X4650Y3557D01*
X4705Y3568D01*
X4751Y3599D01*
X4782Y3645D01*
X4793Y3700D01*
X4782Y3755D01*
X4751Y3801D01*
X4705Y3832D01*
X4650Y3843D01*
D02*
G37*
G36*
X500Y3335D02*
X442Y3323D01*
X393Y3290D01*
X361Y3241D01*
X349Y3183D01*
X361Y3126D01*
X393Y3076D01*
X442Y3044D01*
X500Y3032D01*
X558Y3044D01*
X607Y3076D01*
X640Y3126D01*
X652Y3183D01*
X640Y3241D01*
X607Y3290D01*
X558Y3323D01*
X500Y3335D01*
D02*
G37*
G36*
X933D02*
X876Y3323D01*
X826Y3290D01*
X794Y3241D01*
X782Y3183D01*
X794Y3126D01*
X826Y3076D01*
X876Y3044D01*
X933Y3032D01*
X991Y3044D01*
X1040Y3076D01*
X1073Y3126D01*
X1085Y3183D01*
X1073Y3241D01*
X1040Y3290D01*
X991Y3323D01*
X933Y3335D01*
D02*
G37*
G36*
X1367D02*
X1309Y3323D01*
X1260Y3290D01*
X1227Y3241D01*
X1215Y3183D01*
X1227Y3126D01*
X1260Y3076D01*
X1309Y3044D01*
X1367Y3032D01*
X1424Y3044D01*
X1474Y3076D01*
X1506Y3126D01*
X1518Y3183D01*
X1506Y3241D01*
X1474Y3290D01*
X1424Y3323D01*
X1367Y3335D01*
D02*
G37*
G36*
X-5190Y3026D02*
X-5220Y3020D01*
X-5280Y2980D01*
X-5320Y2920D01*
X-5326Y2890D01*
X-5190D01*
Y3026D01*
D02*
G37*
G36*
X-4710D02*
Y2890D01*
X-4574D01*
X-4580Y2920D01*
X-4620Y2980D01*
X-4680Y3020D01*
X-4710Y3026D01*
D02*
G37*
G36*
X-4790D02*
X-4820Y3020D01*
X-4880Y2980D01*
X-4920Y2920D01*
X-4925Y2893D01*
X-4975D01*
X-4980Y2920D01*
X-5020Y2980D01*
X-5080Y3020D01*
X-5110Y3026D01*
Y2850D01*
Y2674D01*
X-5080Y2680D01*
X-5020Y2720D01*
X-4980Y2780D01*
X-4975Y2807D01*
X-4925D01*
X-4920Y2780D01*
X-4880Y2720D01*
X-4820Y2680D01*
X-4790Y2674D01*
Y2850D01*
Y3026D01*
D02*
G37*
G36*
X1800Y3335D02*
X1742Y3323D01*
X1693Y3290D01*
X1660Y3241D01*
X1648Y3183D01*
X1660Y3126D01*
X1693Y3076D01*
X1742Y3044D01*
X1800Y3032D01*
X1858Y3044D01*
X1907Y3076D01*
X1939Y3126D01*
X1951Y3183D01*
X1939Y3241D01*
X1907Y3290D01*
X1858Y3323D01*
X1800Y3335D01*
D02*
G37*
G36*
X-4774Y3210D02*
X-4910D01*
Y3074D01*
X-4880Y3080D01*
X-4820Y3120D01*
X-4780Y3180D01*
X-4774Y3210D01*
D02*
G37*
G36*
X3650Y3743D02*
X3595Y3732D01*
X3549Y3701D01*
X3518Y3655D01*
X3507Y3600D01*
X3518Y3545D01*
X3549Y3499D01*
X3571Y3484D01*
X3562Y3435D01*
X3545Y3432D01*
X3499Y3401D01*
X3468Y3355D01*
X3457Y3300D01*
X3468Y3245D01*
X3499Y3199D01*
X3545Y3168D01*
X3600Y3157D01*
X3655Y3168D01*
X3701Y3199D01*
X3732Y3245D01*
X3743Y3300D01*
X3732Y3355D01*
X3701Y3401D01*
X3679Y3416D01*
X3688Y3465D01*
X3705Y3468D01*
X3751Y3499D01*
X3782Y3545D01*
X3793Y3600D01*
X3782Y3655D01*
X3751Y3701D01*
X3705Y3732D01*
X3650Y3743D01*
D02*
G37*
G36*
X-4910Y3426D02*
Y3290D01*
X-4774D01*
X-4780Y3320D01*
X-4820Y3380D01*
X-4880Y3420D01*
X-4910Y3426D01*
D02*
G37*
G36*
X-2416Y3191D02*
X-2442Y3186D01*
X-2499Y3149D01*
X-2536Y3092D01*
X-2541Y3066D01*
X-2416D01*
Y3191D01*
D02*
G37*
G36*
X-2336D02*
Y3066D01*
X-2211D01*
X-2216Y3092D01*
X-2253Y3149D01*
X-2310Y3186D01*
X-2336Y3191D01*
D02*
G37*
G36*
X-4990Y3210D02*
X-5126D01*
X-5120Y3180D01*
X-5080Y3120D01*
X-5020Y3080D01*
X-4990Y3074D01*
Y3210D01*
D02*
G37*
G36*
X1800Y4201D02*
X1742Y4189D01*
X1693Y4157D01*
X1660Y4108D01*
X1648Y4050D01*
X1660Y3992D01*
X1693Y3943D01*
X1742Y3910D01*
X1800Y3898D01*
X1858Y3910D01*
X1907Y3943D01*
X1939Y3992D01*
X1951Y4050D01*
X1939Y4108D01*
X1907Y4157D01*
X1858Y4189D01*
X1800Y4201D01*
D02*
G37*
G36*
X-1276Y5569D02*
X-1331Y5558D01*
X-1377Y5527D01*
X-1408Y5481D01*
X-1419Y5426D01*
X-1408Y5371D01*
X-1377Y5325D01*
X-1331Y5294D01*
X-1276Y5283D01*
X-1221Y5294D01*
X-1175Y5325D01*
X-1144Y5371D01*
X-1133Y5426D01*
X-1144Y5481D01*
X-1175Y5527D01*
X-1221Y5558D01*
X-1276Y5569D01*
D02*
G37*
G36*
X-2050Y5643D02*
X-2105Y5632D01*
X-2151Y5601D01*
X-2182Y5555D01*
X-2193Y5500D01*
X-2182Y5445D01*
X-2151Y5399D01*
X-2105Y5368D01*
X-2050Y5357D01*
X-1995Y5368D01*
X-1949Y5399D01*
X-1918Y5445D01*
X-1907Y5500D01*
X-1918Y5555D01*
X-1949Y5601D01*
X-1995Y5632D01*
X-2050Y5643D01*
D02*
G37*
G36*
X-327Y5670D02*
X-382Y5659D01*
X-428Y5628D01*
X-459Y5582D01*
X-470Y5527D01*
X-459Y5473D01*
X-428Y5426D01*
X-382Y5395D01*
X-327Y5384D01*
X-273Y5395D01*
X-226Y5426D01*
X-195Y5473D01*
X-184Y5527D01*
X-195Y5582D01*
X-226Y5628D01*
X-273Y5659D01*
X-327Y5670D01*
D02*
G37*
G36*
X-414Y5042D02*
X-440Y5037D01*
X-496Y4999D01*
X-534Y4943D01*
X-539Y4916D01*
X-414D01*
Y5042D01*
D02*
G37*
G36*
X-334D02*
Y4916D01*
X-208D01*
X-213Y4943D01*
X-251Y4999D01*
X-307Y5037D01*
X-334Y5042D01*
D02*
G37*
G36*
X-877Y5516D02*
X-932Y5505D01*
X-978Y5474D01*
X-1009Y5427D01*
X-1020Y5373D01*
X-1009Y5318D01*
X-978Y5272D01*
X-932Y5241D01*
X-877Y5230D01*
X-823Y5241D01*
X-776Y5272D01*
X-745Y5318D01*
X-734Y5373D01*
X-745Y5427D01*
X-776Y5474D01*
X-823Y5505D01*
X-877Y5516D01*
D02*
G37*
G36*
X1950Y5743D02*
X1895Y5732D01*
X1849Y5701D01*
X1818Y5655D01*
X1807Y5600D01*
X1818Y5545D01*
X1849Y5499D01*
X1895Y5468D01*
X1950Y5457D01*
X2005Y5468D01*
X2051Y5499D01*
X2082Y5545D01*
X2093Y5600D01*
X2082Y5655D01*
X2051Y5701D01*
X2005Y5732D01*
X1950Y5743D01*
D02*
G37*
G36*
X-1640Y5865D02*
X-1666Y5860D01*
X-1723Y5823D01*
X-1760Y5766D01*
X-1765Y5740D01*
X-1640D01*
Y5865D01*
D02*
G37*
G36*
X-1560D02*
Y5740D01*
X-1435D01*
X-1440Y5766D01*
X-1477Y5823D01*
X-1534Y5860D01*
X-1560Y5865D01*
D02*
G37*
G36*
X-323Y6070D02*
X-377Y6059D01*
X-424Y6028D01*
X-455Y5982D01*
X-466Y5927D01*
X-455Y5873D01*
X-424Y5826D01*
X-377Y5795D01*
X-323Y5784D01*
X-268Y5795D01*
X-222Y5826D01*
X-191Y5873D01*
X-180Y5927D01*
X-191Y5982D01*
X-222Y6028D01*
X-268Y6059D01*
X-323Y6070D01*
D02*
G37*
G36*
X-1640Y5660D02*
X-1765D01*
X-1760Y5634D01*
X-1723Y5577D01*
X-1666Y5540D01*
X-1640Y5535D01*
Y5660D01*
D02*
G37*
G36*
X-1435D02*
X-1560D01*
Y5535D01*
X-1534Y5540D01*
X-1477Y5577D01*
X-1440Y5634D01*
X-1435Y5660D01*
D02*
G37*
G36*
X1165Y5860D02*
X1040D01*
Y5735D01*
X1066Y5740D01*
X1123Y5777D01*
X1160Y5834D01*
X1165Y5860D01*
D02*
G37*
G36*
X2617Y4625D02*
X2563Y4615D01*
X2516Y4584D01*
X2485Y4537D01*
X2475Y4483D01*
X2485Y4428D01*
X2516Y4382D01*
X2563Y4351D01*
X2617Y4340D01*
X2672Y4351D01*
X2718Y4382D01*
X2749Y4428D01*
X2760Y4483D01*
X2749Y4537D01*
X2718Y4584D01*
X2672Y4615D01*
X2617Y4625D01*
D02*
G37*
G36*
X3590Y4515D02*
Y4390D01*
X3715D01*
X3710Y4416D01*
X3673Y4473D01*
X3616Y4510D01*
X3590Y4515D01*
D02*
G37*
G36*
X-2850Y4743D02*
X-2905Y4732D01*
X-2951Y4701D01*
X-2982Y4655D01*
X-2993Y4600D01*
X-2982Y4545D01*
X-2951Y4499D01*
X-2905Y4468D01*
X-2850Y4457D01*
X-2795Y4468D01*
X-2749Y4499D01*
X-2718Y4545D01*
X-2707Y4600D01*
X-2718Y4655D01*
X-2749Y4701D01*
X-2795Y4732D01*
X-2850Y4743D01*
D02*
G37*
G36*
X2611Y4232D02*
X2556Y4221D01*
X2510Y4190D01*
X2479Y4144D01*
X2468Y4089D01*
X2479Y4034D01*
X2510Y3988D01*
X2556Y3957D01*
X2611Y3946D01*
X2666Y3957D01*
X2712Y3988D01*
X2743Y4034D01*
X2754Y4089D01*
X2743Y4144D01*
X2712Y4190D01*
X2666Y4221D01*
X2611Y4232D01*
D02*
G37*
G36*
X3224Y5019D02*
X3169Y5008D01*
X3123Y4977D01*
X3092Y4931D01*
X3081Y4876D01*
X3092Y4822D01*
X3123Y4775D01*
X3169Y4744D01*
X3170Y4744D01*
X3187Y4719D01*
X3196Y4697D01*
X3168Y4655D01*
X3157Y4600D01*
X3168Y4545D01*
X3199Y4499D01*
X3204Y4496D01*
X3217Y4432D01*
X3171Y4401D01*
X3140Y4355D01*
X3129Y4300D01*
X3140Y4245D01*
X3171Y4199D01*
X3217Y4168D01*
X3272Y4157D01*
X3326Y4168D01*
X3373Y4199D01*
X3383Y4215D01*
X3432Y4224D01*
X3484Y4190D01*
X3510Y4185D01*
Y4350D01*
Y4515D01*
X3484Y4510D01*
X3454Y4490D01*
X3419Y4526D01*
X3432Y4545D01*
X3443Y4600D01*
X3432Y4655D01*
X3401Y4701D01*
X3355Y4732D01*
X3354Y4732D01*
X3337Y4757D01*
X3327Y4780D01*
X3356Y4822D01*
X3366Y4876D01*
X3356Y4931D01*
X3325Y4977D01*
X3278Y5008D01*
X3224Y5019D01*
D02*
G37*
G36*
X3715Y4310D02*
X3590D01*
Y4185D01*
X3616Y4190D01*
X3673Y4227D01*
X3710Y4284D01*
X3715Y4310D01*
D02*
G37*
G36*
X-1350Y4543D02*
X-1405Y4532D01*
X-1451Y4501D01*
X-1499D01*
X-1545Y4532D01*
X-1600Y4543D01*
X-1655Y4532D01*
X-1701Y4501D01*
X-1749D01*
X-1795Y4532D01*
X-1850Y4543D01*
X-1905Y4532D01*
X-1951Y4501D01*
X-1982Y4455D01*
X-1993Y4400D01*
X-1982Y4345D01*
X-1951Y4299D01*
X-1905Y4268D01*
X-1850Y4257D01*
X-1795Y4268D01*
X-1749Y4299D01*
X-1701D01*
X-1655Y4268D01*
X-1600Y4257D01*
X-1545Y4268D01*
X-1499Y4299D01*
X-1451D01*
X-1405Y4268D01*
X-1350Y4257D01*
X-1340Y4208D01*
X-1351Y4201D01*
X-1382Y4155D01*
X-1393Y4100D01*
X-1382Y4045D01*
X-1351Y3999D01*
X-1305Y3968D01*
X-1250Y3957D01*
X-1195Y3968D01*
X-1149Y3999D01*
X-1118Y4045D01*
X-1107Y4100D01*
X-1107Y4100D01*
X-1107Y4100D01*
X-1107Y4102D01*
X-1061Y4123D01*
X-1055Y4118D01*
X-1000Y4107D01*
X-945Y4118D01*
X-899Y4149D01*
X-868Y4195D01*
X-857Y4250D01*
X-868Y4305D01*
X-899Y4351D01*
X-945Y4382D01*
X-1000Y4393D01*
X-1055Y4382D01*
X-1101Y4351D01*
X-1132Y4305D01*
X-1143Y4250D01*
X-1143Y4250D01*
X-1143Y4250D01*
X-1143Y4248D01*
X-1189Y4227D01*
X-1195Y4232D01*
X-1250Y4243D01*
X-1260Y4292D01*
X-1249Y4299D01*
X-1218Y4345D01*
X-1207Y4400D01*
X-1218Y4455D01*
X-1249Y4501D01*
X-1295Y4532D01*
X-1350Y4543D01*
D02*
G37*
G36*
X2400Y4893D02*
X2345Y4882D01*
X2299Y4851D01*
X2268Y4805D01*
X2257Y4750D01*
X2268Y4695D01*
X2299Y4649D01*
X2345Y4618D01*
X2400Y4607D01*
X2455Y4618D01*
X2501Y4649D01*
X2532Y4695D01*
X2543Y4750D01*
X2532Y4805D01*
X2501Y4851D01*
X2455Y4882D01*
X2400Y4893D01*
D02*
G37*
G36*
X-414Y4836D02*
X-539D01*
X-534Y4810D01*
X-496Y4754D01*
X-440Y4716D01*
X-414Y4711D01*
Y4836D01*
D02*
G37*
G36*
X-208D02*
X-334D01*
Y4711D01*
X-307Y4716D01*
X-251Y4754D01*
X-213Y4810D01*
X-208Y4836D01*
D02*
G37*
G36*
X500Y4793D02*
X445Y4782D01*
X399Y4751D01*
X368Y4705D01*
X357Y4650D01*
X368Y4595D01*
X399Y4549D01*
X445Y4518D01*
X500Y4507D01*
X555Y4518D01*
X601Y4549D01*
X632Y4595D01*
X643Y4650D01*
X632Y4705D01*
X601Y4751D01*
X555Y4782D01*
X500Y4793D01*
D02*
G37*
G36*
X850Y4993D02*
X795Y4982D01*
X749Y4951D01*
X718Y4905D01*
X707Y4850D01*
X718Y4795D01*
X749Y4749D01*
X795Y4718D01*
X850Y4707D01*
X860Y4709D01*
X907Y4700D01*
X918Y4645D01*
X949Y4599D01*
X995Y4568D01*
X1050Y4557D01*
X1105Y4568D01*
X1151Y4599D01*
X1182Y4645D01*
X1193Y4700D01*
X1182Y4755D01*
X1151Y4801D01*
X1105Y4832D01*
X1050Y4843D01*
X1040Y4841D01*
X993Y4850D01*
X982Y4905D01*
X951Y4951D01*
X905Y4982D01*
X850Y4993D01*
D02*
G37*
G36*
X1850Y4893D02*
X1795Y4882D01*
X1749Y4851D01*
X1718Y4805D01*
X1707Y4750D01*
X1718Y4695D01*
X1749Y4649D01*
X1795Y4618D01*
X1850Y4607D01*
X1905Y4618D01*
X1951Y4649D01*
X1982Y4695D01*
X1993Y4750D01*
X1982Y4805D01*
X1951Y4851D01*
X1905Y4882D01*
X1850Y4893D01*
D02*
G37*
G36*
X-4040Y1560D02*
X-4186D01*
X-4179Y1526D01*
X-4137Y1463D01*
X-4074Y1421D01*
X-4040Y1414D01*
Y1560D01*
D02*
G37*
G36*
X-3960Y1786D02*
Y1600D01*
Y1414D01*
X-3926Y1421D01*
X-3863Y1463D01*
X-3840Y1498D01*
X-3801Y1499D01*
X-3801Y1499D01*
Y1499D01*
D01*
D01*
D01*
X-3755Y1468D01*
X-3700Y1457D01*
X-3645Y1468D01*
X-3599Y1499D01*
X-3568Y1545D01*
X-3557Y1600D01*
X-3568Y1655D01*
X-3599Y1701D01*
X-3645Y1732D01*
X-3700Y1743D01*
X-3755Y1732D01*
X-3801Y1701D01*
D01*
D01*
D01*
X-3801Y1701D01*
Y1701D01*
X-3840Y1702D01*
X-3863Y1737D01*
X-3926Y1779D01*
X-3960Y1786D01*
D02*
G37*
G36*
X-650Y1793D02*
X-705Y1782D01*
X-751Y1751D01*
X-782Y1705D01*
X-793Y1650D01*
X-782Y1595D01*
X-751Y1549D01*
X-705Y1518D01*
X-650Y1507D01*
X-595Y1518D01*
X-549Y1549D01*
X-518Y1595D01*
X-507Y1650D01*
X-518Y1705D01*
X-549Y1751D01*
X-595Y1782D01*
X-650Y1793D01*
D02*
G37*
G36*
X2233Y1460D02*
X2178Y1449D01*
X2132Y1418D01*
X2101Y1372D01*
X2090Y1317D01*
X2101Y1263D01*
X2132Y1216D01*
X2178Y1185D01*
X2233Y1175D01*
X2287Y1185D01*
X2334Y1216D01*
X2365Y1263D01*
X2365Y1263D01*
X2415D01*
X2418Y1245D01*
X2449Y1199D01*
X2495Y1168D01*
X2550Y1157D01*
X2605Y1168D01*
X2651Y1199D01*
X2682Y1245D01*
X2693Y1300D01*
X2682Y1355D01*
X2651Y1401D01*
X2605Y1432D01*
X2550Y1443D01*
X2495Y1432D01*
X2449Y1401D01*
X2418Y1355D01*
X2418Y1354D01*
X2368D01*
X2365Y1372D01*
X2334Y1418D01*
X2287Y1449D01*
X2233Y1460D01*
D02*
G37*
G36*
X461Y1454D02*
X406Y1443D01*
X360Y1412D01*
X329Y1366D01*
X318Y1311D01*
X329Y1256D01*
X360Y1210D01*
X406Y1179D01*
X461Y1168D01*
X516Y1179D01*
X562Y1210D01*
X593Y1256D01*
X604Y1311D01*
X593Y1366D01*
X562Y1412D01*
X516Y1443D01*
X461Y1454D01*
D02*
G37*
G36*
X-4550Y1563D02*
X-4612Y1551D01*
X-4665Y1515D01*
X-4701Y1462D01*
X-4713Y1400D01*
X-4701Y1338D01*
X-4665Y1285D01*
X-4612Y1249D01*
X-4550Y1237D01*
X-4488Y1249D01*
X-4435Y1285D01*
X-4399Y1338D01*
X-4387Y1400D01*
X-4399Y1462D01*
X-4435Y1515D01*
X-4488Y1551D01*
X-4550Y1563D01*
D02*
G37*
G36*
X3800Y2043D02*
X3745Y2032D01*
X3699Y2001D01*
X3668Y1955D01*
X3657Y1900D01*
X3668Y1845D01*
X3699Y1799D01*
X3745Y1768D01*
X3800Y1757D01*
X3855Y1768D01*
X3888Y1790D01*
X3929Y1762D01*
X3927Y1750D01*
X3940Y1684D01*
X3977Y1627D01*
X4034Y1590D01*
X4060Y1585D01*
Y1750D01*
Y1915D01*
X4034Y1910D01*
X4001Y1888D01*
X3943Y1900D01*
X3932Y1955D01*
X3901Y2001D01*
X3855Y2032D01*
X3800Y2043D01*
D02*
G37*
G36*
X-1635Y1960D02*
X-1760D01*
Y1835D01*
X-1734Y1840D01*
X-1677Y1877D01*
X-1640Y1934D01*
X-1635Y1960D01*
D02*
G37*
G36*
X950Y2143D02*
X895Y2132D01*
X849Y2101D01*
X818Y2055D01*
X807Y2000D01*
X818Y1945D01*
X849Y1899D01*
X895Y1868D01*
X950Y1857D01*
X1005Y1868D01*
X1051Y1899D01*
X1082Y1945D01*
X1093Y2000D01*
X1082Y2055D01*
X1051Y2101D01*
X1005Y2132D01*
X950Y2143D01*
D02*
G37*
G36*
X3300D02*
X3245Y2132D01*
X3199Y2101D01*
X3168Y2055D01*
X3157Y2000D01*
X3168Y1945D01*
X3199Y1899D01*
X3245Y1868D01*
X3300Y1857D01*
X3355Y1868D01*
X3401Y1899D01*
X3432Y1945D01*
X3443Y2000D01*
X3432Y2055D01*
X3401Y2101D01*
X3355Y2132D01*
X3300Y2143D01*
D02*
G37*
G36*
X-4040Y1786D02*
X-4074Y1779D01*
X-4137Y1737D01*
X-4179Y1674D01*
X-4186Y1640D01*
X-4040D01*
Y1786D01*
D02*
G37*
G36*
X-4860Y2103D02*
X-4922Y2091D01*
X-4975Y2055D01*
X-5011Y2002D01*
X-5023Y1940D01*
X-5011Y1878D01*
X-4975Y1825D01*
X-4922Y1789D01*
X-4860Y1777D01*
X-4798Y1789D01*
X-4745Y1825D01*
X-4709Y1878D01*
X-4697Y1940D01*
X-4709Y2002D01*
X-4745Y2055D01*
X-4798Y2091D01*
X-4860Y2103D01*
D02*
G37*
G36*
X-1840Y1960D02*
X-1965D01*
X-1960Y1934D01*
X-1923Y1877D01*
X-1866Y1840D01*
X-1840Y1835D01*
Y1960D01*
D02*
G37*
G36*
X60Y715D02*
X34Y710D01*
X-23Y673D01*
X-60Y616D01*
X-65Y590D01*
X60D01*
Y715D01*
D02*
G37*
G36*
X140D02*
Y590D01*
X265D01*
X260Y616D01*
X223Y673D01*
X166Y710D01*
X140Y715D01*
D02*
G37*
G36*
X950Y893D02*
X895Y882D01*
X849Y851D01*
X818Y805D01*
X807Y750D01*
X818Y695D01*
X849Y649D01*
X895Y618D01*
X950Y607D01*
X1005Y618D01*
X1051Y649D01*
X1082Y695D01*
X1093Y750D01*
X1082Y805D01*
X1051Y851D01*
X1005Y882D01*
X950Y893D01*
D02*
G37*
G36*
X5050Y663D02*
X4988Y651D01*
X4935Y615D01*
X4899Y562D01*
X4887Y500D01*
X4899Y438D01*
X4935Y385D01*
X4988Y349D01*
X5050Y337D01*
X5112Y349D01*
X5165Y385D01*
X5201Y438D01*
X5213Y500D01*
X5201Y562D01*
X5165Y615D01*
X5112Y651D01*
X5050Y663D01*
D02*
G37*
G36*
X60Y510D02*
X-65D01*
X-60Y484D01*
X-23Y427D01*
X34Y390D01*
X60Y385D01*
Y510D01*
D02*
G37*
G36*
X265D02*
X140D01*
Y385D01*
X166Y390D01*
X223Y427D01*
X260Y484D01*
X265Y510D01*
D02*
G37*
G36*
X-348Y895D02*
X-402Y884D01*
X-449Y853D01*
X-480Y807D01*
X-490Y752D01*
X-480Y698D01*
X-449Y651D01*
X-402Y620D01*
X-348Y610D01*
X-293Y620D01*
X-247Y651D01*
X-216Y698D01*
X-205Y752D01*
X-216Y807D01*
X-247Y853D01*
X-293Y884D01*
X-348Y895D01*
D02*
G37*
G36*
X-400Y1293D02*
X-455Y1282D01*
X-501Y1251D01*
X-532Y1205D01*
X-543Y1150D01*
X-532Y1095D01*
X-501Y1049D01*
X-455Y1018D01*
X-400Y1007D01*
X-345Y1018D01*
X-299Y1049D01*
X-268Y1095D01*
X-257Y1150D01*
X-268Y1205D01*
X-299Y1251D01*
X-345Y1282D01*
X-400Y1293D01*
D02*
G37*
G36*
X1756Y1127D02*
X1701Y1116D01*
X1655Y1085D01*
X1624Y1039D01*
X1621Y1022D01*
X1572Y1013D01*
X1550Y1045D01*
X1494Y1083D01*
X1467Y1088D01*
Y923D01*
Y757D01*
X1494Y763D01*
X1550Y800D01*
X1587Y856D01*
X1594Y891D01*
X1643Y901D01*
X1655Y883D01*
X1701Y852D01*
X1756Y842D01*
X1811Y852D01*
X1857Y883D01*
X1888Y930D01*
X1899Y984D01*
X1888Y1039D01*
X1857Y1085D01*
X1811Y1116D01*
X1756Y1127D01*
D02*
G37*
G36*
X100Y1443D02*
X45Y1432D01*
X-1Y1401D01*
X-32Y1355D01*
X-43Y1300D01*
X-32Y1245D01*
X-1Y1199D01*
X45Y1168D01*
X100Y1157D01*
X155Y1168D01*
X201Y1199D01*
X232Y1245D01*
X243Y1300D01*
X232Y1355D01*
X201Y1401D01*
X155Y1432D01*
X100Y1443D01*
D02*
G37*
G36*
X548Y895D02*
X493Y884D01*
X447Y853D01*
X416Y807D01*
X405Y752D01*
X416Y698D01*
X447Y651D01*
X493Y620D01*
X548Y610D01*
X602Y620D01*
X649Y651D01*
X680Y698D01*
X690Y752D01*
X680Y807D01*
X649Y853D01*
X602Y884D01*
X548Y895D01*
D02*
G37*
G36*
X1387Y883D02*
X1262D01*
X1267Y856D01*
X1305Y800D01*
X1361Y763D01*
X1387Y757D01*
Y883D01*
D02*
G37*
G36*
Y1088D02*
X1361Y1083D01*
X1305Y1045D01*
X1267Y989D01*
X1262Y963D01*
X1387D01*
Y1088D01*
D02*
G37*
G36*
X4400Y2043D02*
X4345Y2032D01*
X4299Y2001D01*
X4268Y1955D01*
X4257Y1900D01*
X4199Y1888D01*
X4166Y1910D01*
X4140Y1915D01*
Y1750D01*
Y1585D01*
X4166Y1590D01*
X4223Y1627D01*
X4260Y1684D01*
X4273Y1750D01*
X4271Y1762D01*
X4312Y1790D01*
X4345Y1768D01*
X4400Y1757D01*
X4455Y1768D01*
X4501Y1799D01*
X4532Y1845D01*
X4543Y1900D01*
X4532Y1955D01*
X4501Y2001D01*
X4455Y2032D01*
X4400Y2043D01*
D02*
G37*
G36*
X933Y2902D02*
X876Y2890D01*
X826Y2857D01*
X794Y2808D01*
X782Y2750D01*
X794Y2692D01*
X826Y2643D01*
X876Y2611D01*
X933Y2599D01*
X991Y2611D01*
X1040Y2643D01*
X1073Y2692D01*
X1085Y2750D01*
X1073Y2808D01*
X1040Y2857D01*
X991Y2890D01*
X933Y2902D01*
D02*
G37*
G36*
X1367D02*
X1309Y2890D01*
X1260Y2857D01*
X1227Y2808D01*
X1215Y2750D01*
X1227Y2692D01*
X1260Y2643D01*
X1309Y2611D01*
X1367Y2599D01*
X1424Y2611D01*
X1474Y2643D01*
X1506Y2692D01*
X1518Y2750D01*
X1506Y2808D01*
X1474Y2857D01*
X1424Y2890D01*
X1367Y2902D01*
D02*
G37*
G36*
X1800D02*
X1742Y2890D01*
X1693Y2857D01*
X1660Y2808D01*
X1648Y2750D01*
X1660Y2692D01*
X1693Y2643D01*
X1742Y2611D01*
X1800Y2599D01*
X1858Y2611D01*
X1907Y2643D01*
X1939Y2692D01*
X1951Y2750D01*
X1939Y2808D01*
X1907Y2857D01*
X1858Y2890D01*
X1800Y2902D01*
D02*
G37*
G36*
X-161Y2854D02*
X-216Y2843D01*
X-262Y2812D01*
X-293Y2766D01*
X-304Y2711D01*
X-293Y2656D01*
X-262Y2610D01*
X-216Y2579D01*
X-161Y2568D01*
X-106Y2579D01*
X-60Y2610D01*
X-29Y2656D01*
X-18Y2711D01*
X-29Y2766D01*
X-60Y2812D01*
X-106Y2843D01*
X-161Y2854D01*
D02*
G37*
G36*
X5310Y2710D02*
X5185D01*
X5190Y2684D01*
X5227Y2627D01*
X5284Y2590D01*
X5310Y2585D01*
Y2710D01*
D02*
G37*
G36*
X500Y2902D02*
X442Y2890D01*
X393Y2857D01*
X361Y2808D01*
X349Y2750D01*
X361Y2692D01*
X393Y2643D01*
X442Y2611D01*
X500Y2599D01*
X558Y2611D01*
X607Y2643D01*
X640Y2692D01*
X652Y2750D01*
X640Y2808D01*
X607Y2857D01*
X558Y2890D01*
X500Y2902D01*
D02*
G37*
G36*
X2408Y3051D02*
X2353Y3040D01*
X2307Y3009D01*
X2276Y2962D01*
X2265Y2908D01*
X2276Y2853D01*
X2307Y2807D01*
X2353Y2776D01*
X2408Y2765D01*
X2438Y2771D01*
X2471Y2738D01*
X2466Y2688D01*
X2430Y2665D01*
X2405Y2682D01*
X2350Y2693D01*
X2295Y2682D01*
X2249Y2651D01*
X2218Y2605D01*
X2207Y2550D01*
X2218Y2495D01*
X2249Y2449D01*
X2295Y2418D01*
X2350Y2407D01*
X2405Y2418D01*
X2451Y2449D01*
X2482Y2495D01*
X2493Y2550D01*
X2489Y2569D01*
X2531Y2596D01*
X2556Y2579D01*
X2611Y2568D01*
X2666Y2579D01*
X2712Y2610D01*
X2743Y2656D01*
X2754Y2711D01*
X2743Y2766D01*
X2712Y2812D01*
X2666Y2843D01*
X2611Y2854D01*
X2581Y2848D01*
X2546Y2883D01*
X2551Y2908D01*
X2540Y2962D01*
X2509Y3009D01*
X2463Y3040D01*
X2408Y3051D01*
D02*
G37*
G36*
X-3250Y3143D02*
X-3305Y3132D01*
X-3351Y3101D01*
X-3382Y3055D01*
X-3393Y3000D01*
X-3382Y2945D01*
X-3351Y2899D01*
X-3305Y2868D01*
X-3250Y2857D01*
X-3195Y2868D01*
X-3149Y2899D01*
X-3118Y2945D01*
X-3107Y3000D01*
X-3118Y3055D01*
X-3149Y3101D01*
X-3195Y3132D01*
X-3250Y3143D01*
D02*
G37*
G36*
X-2416Y2986D02*
X-2541D01*
X-2536Y2960D01*
X-2499Y2903D01*
X-2442Y2866D01*
X-2416Y2861D01*
Y2986D01*
D02*
G37*
G36*
X-2211D02*
X-2336D01*
Y2861D01*
X-2310Y2866D01*
X-2253Y2903D01*
X-2216Y2960D01*
X-2211Y2986D01*
D02*
G37*
G36*
X-5190Y2810D02*
X-5326D01*
X-5320Y2780D01*
X-5280Y2720D01*
X-5220Y2680D01*
X-5190Y2674D01*
Y2810D01*
D02*
G37*
G36*
X-4574D02*
X-4710D01*
Y2674D01*
X-4680Y2680D01*
X-4620Y2720D01*
X-4580Y2780D01*
X-4574Y2810D01*
D02*
G37*
G36*
X3600Y3043D02*
X3545Y3032D01*
X3499Y3001D01*
X3468Y2955D01*
X3457Y2900D01*
X3468Y2845D01*
X3499Y2799D01*
X3545Y2768D01*
X3600Y2757D01*
X3655Y2768D01*
X3701Y2799D01*
X3732Y2845D01*
X3743Y2900D01*
X3732Y2955D01*
X3701Y3001D01*
X3655Y3032D01*
X3600Y3043D01*
D02*
G37*
G36*
X-1840Y2165D02*
X-1866Y2160D01*
X-1923Y2123D01*
X-1960Y2066D01*
X-1965Y2040D01*
X-1840D01*
Y2165D01*
D02*
G37*
G36*
X-1760D02*
Y2040D01*
X-1635D01*
X-1640Y2066D01*
X-1677Y2123D01*
X-1734Y2160D01*
X-1760Y2165D01*
D02*
G37*
G36*
X-317Y2460D02*
X-372Y2449D01*
X-418Y2418D01*
X-449Y2372D01*
X-460Y2317D01*
X-449Y2263D01*
X-418Y2216D01*
X-372Y2185D01*
X-317Y2175D01*
X-263Y2185D01*
X-216Y2216D01*
X-185Y2263D01*
X-175Y2317D01*
X-185Y2372D01*
X-216Y2418D01*
X-263Y2449D01*
X-317Y2460D01*
D02*
G37*
G36*
X1400Y2193D02*
X1345Y2182D01*
X1299Y2151D01*
X1268Y2105D01*
X1257Y2050D01*
X1268Y1995D01*
X1299Y1949D01*
X1345Y1918D01*
X1400Y1907D01*
X1455Y1918D01*
X1501Y1949D01*
X1532Y1995D01*
X1543Y2050D01*
X1532Y2105D01*
X1501Y2151D01*
X1455Y2182D01*
X1400Y2193D01*
D02*
G37*
G36*
X5200Y2143D02*
X5145Y2132D01*
X5099Y2101D01*
X5068Y2055D01*
X5057Y2000D01*
X5063Y1973D01*
X5027Y1937D01*
X5000Y1943D01*
X4945Y1932D01*
X4899Y1901D01*
X4868Y1855D01*
X4857Y1800D01*
X4868Y1745D01*
X4899Y1699D01*
X4945Y1668D01*
X5000Y1657D01*
X5055Y1668D01*
X5101Y1699D01*
X5132Y1745D01*
X5143Y1800D01*
X5137Y1827D01*
X5173Y1863D01*
X5200Y1857D01*
X5255Y1868D01*
X5301Y1899D01*
X5308Y1910D01*
X5357Y1900D01*
X5368Y1845D01*
X5399Y1799D01*
X5445Y1768D01*
X5500Y1757D01*
X5555Y1768D01*
X5601Y1799D01*
X5632Y1845D01*
X5643Y1900D01*
X5632Y1955D01*
X5601Y2001D01*
X5555Y2032D01*
X5500Y2043D01*
X5445Y2032D01*
X5399Y2001D01*
X5392Y1990D01*
X5343Y2000D01*
X5332Y2055D01*
X5301Y2101D01*
X5255Y2132D01*
X5200Y2143D01*
D02*
G37*
G36*
X2600D02*
X2545Y2132D01*
X2499Y2101D01*
X2468Y2055D01*
X2465Y2038D01*
X2416Y2029D01*
X2401Y2051D01*
X2355Y2082D01*
X2300Y2093D01*
X2245Y2082D01*
X2199Y2051D01*
X2199Y2051D01*
Y2051D01*
X2168Y2040D01*
D01*
X2137Y2087D01*
X2090Y2118D01*
X2036Y2129D01*
X1981Y2118D01*
X1935Y2087D01*
X1904Y2040D01*
X1893Y1986D01*
X1904Y1931D01*
X1935Y1885D01*
X1981Y1854D01*
X2036Y1843D01*
X2090Y1854D01*
X2137Y1885D01*
X2137Y1885D01*
Y1885D01*
X2168Y1895D01*
Y1895D01*
X2168Y1895D01*
X2199Y1849D01*
X2245Y1818D01*
X2300Y1807D01*
X2355Y1818D01*
X2401Y1849D01*
X2432Y1895D01*
X2435Y1912D01*
X2484Y1921D01*
X2499Y1899D01*
X2545Y1868D01*
X2600Y1857D01*
X2655Y1868D01*
X2701Y1899D01*
X2732Y1945D01*
X2743Y2000D01*
X2732Y2055D01*
X2701Y2101D01*
X2655Y2132D01*
X2600Y2143D01*
D02*
G37*
G36*
X539Y2443D02*
X484Y2432D01*
X438Y2401D01*
X407Y2355D01*
X396Y2300D01*
X400Y2277D01*
X359Y2250D01*
X355Y2252D01*
X300Y2263D01*
X245Y2252D01*
X199Y2221D01*
X168Y2175D01*
X157Y2120D01*
X165Y2082D01*
X137Y2040D01*
X95Y2032D01*
X49Y2001D01*
X18Y1955D01*
X7Y1900D01*
X18Y1845D01*
X49Y1799D01*
X95Y1768D01*
X150Y1757D01*
X205Y1768D01*
X251Y1799D01*
X282Y1845D01*
X293Y1900D01*
X285Y1939D01*
X313Y1980D01*
X355Y1989D01*
X401Y2020D01*
X432Y2066D01*
X443Y2120D01*
X438Y2143D01*
X480Y2171D01*
X484Y2168D01*
X539Y2157D01*
X593Y2168D01*
X640Y2199D01*
X670Y2245D01*
X681Y2300D01*
X670Y2355D01*
X640Y2401D01*
X593Y2432D01*
X539Y2443D01*
D02*
G37*
G36*
X-5390Y2626D02*
X-5420Y2620D01*
X-5480Y2580D01*
X-5520Y2520D01*
X-5526Y2490D01*
X-5390D01*
Y2626D01*
D02*
G37*
G36*
X-4910D02*
Y2490D01*
X-4774D01*
X-4780Y2520D01*
X-4820Y2580D01*
X-4880Y2620D01*
X-4910Y2626D01*
D02*
G37*
G36*
X-4990D02*
X-5020Y2620D01*
X-5080Y2580D01*
X-5120Y2520D01*
X-5125Y2493D01*
X-5175D01*
X-5180Y2520D01*
X-5220Y2580D01*
X-5280Y2620D01*
X-5310Y2626D01*
Y2450D01*
Y2274D01*
X-5280Y2280D01*
X-5220Y2320D01*
X-5180Y2380D01*
X-5175Y2407D01*
X-5125D01*
X-5120Y2380D01*
X-5080Y2320D01*
X-5020Y2280D01*
X-4990Y2274D01*
Y2450D01*
Y2626D01*
D02*
G37*
G36*
X-3855Y2647D02*
X-3909Y2637D01*
X-3956Y2606D01*
X-3987Y2559D01*
X-3997Y2505D01*
X-3987Y2450D01*
X-3956Y2404D01*
X-3909Y2373D01*
X-3855Y2362D01*
X-3800Y2373D01*
X-3782Y2385D01*
X-3736Y2366D01*
X-3732Y2345D01*
X-3701Y2299D01*
X-3655Y2268D01*
X-3600Y2257D01*
X-3545Y2268D01*
X-3499Y2299D01*
X-3468Y2345D01*
X-3457Y2400D01*
X-3468Y2455D01*
X-3499Y2501D01*
X-3545Y2532D01*
X-3600Y2543D01*
X-3655Y2532D01*
X-3673Y2520D01*
X-3719Y2539D01*
X-3723Y2559D01*
X-3754Y2606D01*
X-3800Y2637D01*
X-3855Y2647D01*
D02*
G37*
G36*
X-5390Y2410D02*
X-5526D01*
X-5520Y2380D01*
X-5480Y2320D01*
X-5420Y2280D01*
X-5390Y2274D01*
Y2410D01*
D02*
G37*
G36*
X-4774D02*
X-4910D01*
Y2274D01*
X-4880Y2280D01*
X-4820Y2320D01*
X-4780Y2380D01*
X-4774Y2410D01*
D02*
G37*
%LPD*%
D52*
X5350Y2750D02*
D03*
X250Y-850D02*
D03*
X100Y550D02*
D03*
X4100Y1750D02*
D03*
X-1600Y5700D02*
D03*
X-724Y-1463D02*
D03*
X1350Y-5450D02*
D03*
X-2500Y-4250D02*
D03*
X2336Y-3736D02*
D03*
X2350Y-2100D02*
D03*
X1536Y-1164D02*
D03*
X-628Y-4228D02*
D03*
X945Y-1155D02*
D03*
X-1050Y-1850D02*
D03*
X-1036Y-3736D02*
D03*
X-1800Y2000D02*
D03*
X-2376Y3026D02*
D03*
X-374Y4876D02*
D03*
X-1623Y-4723D02*
D03*
X1000Y5900D02*
D03*
X552Y-4541D02*
D03*
X1427Y923D02*
D03*
X3550Y4350D02*
D03*
D56*
X-4000Y1600D02*
D03*
D57*
X-5350Y2450D02*
D03*
X-5150Y2850D02*
D03*
X-4950Y3250D02*
D03*
X-4750Y2850D02*
D03*
X-4950Y2450D02*
D03*
M02*
