%FSLAX24Y24*%
%MOIN*%
G70*
G01*
G75*
G04 Layer_Color=8388736*
%ADD10C,0.0100*%
%ADD11R,0.2362X0.1890*%
%ADD12O,0.0315X0.0157*%
%ADD13O,0.0276X0.0098*%
%ADD14O,0.0098X0.0276*%
%ADD15R,0.0236X0.0157*%
%ADD16R,0.0197X0.0354*%
%ADD17R,0.0157X0.0236*%
%ADD18R,0.0354X0.0197*%
%ADD19R,0.1850X0.1850*%
%ADD20O,0.0110X0.0315*%
%ADD21O,0.0315X0.0110*%
%ADD22R,0.2028X0.2028*%
%ADD23O,0.0110X0.0335*%
%ADD24O,0.0335X0.0110*%
%ADD25O,0.0532X0.0177*%
%ADD26R,0.0532X0.0157*%
%ADD27R,0.0630X0.0748*%
%ADD28R,0.0551X0.0630*%
%ADD29R,0.0217X0.0394*%
%ADD30R,0.0276X0.0354*%
%ADD31R,0.0138X0.0098*%
%ADD32R,0.0098X0.0187*%
%ADD33R,0.0787X0.0472*%
%ADD34R,0.0142X0.0142*%
%ADD35R,0.0110X0.0110*%
G04:AMPARAMS|DCode=36|XSize=59.1mil|YSize=102.4mil|CornerRadius=0mil|HoleSize=0mil|Usage=FLASHONLY|Rotation=230.000|XOffset=0mil|YOffset=0mil|HoleType=Round|Shape=Rectangle|*
%AMROTATEDRECTD36*
4,1,4,-0.0202,0.0555,0.0582,-0.0103,0.0202,-0.0555,-0.0582,0.0103,-0.0202,0.0555,0.0*
%
%ADD36ROTATEDRECTD36*%

%ADD37R,0.0197X0.0315*%
G04:AMPARAMS|DCode=38|XSize=86.6mil|YSize=51.2mil|CornerRadius=12.8mil|HoleSize=0mil|Usage=FLASHONLY|Rotation=270.000|XOffset=0mil|YOffset=0mil|HoleType=Round|Shape=RoundedRectangle|*
%AMROUNDEDRECTD38*
21,1,0.0866,0.0256,0,0,270.0*
21,1,0.0610,0.0512,0,0,270.0*
1,1,0.0256,-0.0128,-0.0305*
1,1,0.0256,-0.0128,0.0305*
1,1,0.0256,0.0128,0.0305*
1,1,0.0256,0.0128,-0.0305*
%
%ADD38ROUNDEDRECTD38*%
G04:AMPARAMS|DCode=39|XSize=15.7mil|YSize=23.6mil|CornerRadius=3.9mil|HoleSize=0mil|Usage=FLASHONLY|Rotation=270.000|XOffset=0mil|YOffset=0mil|HoleType=Round|Shape=RoundedRectangle|*
%AMROUNDEDRECTD39*
21,1,0.0157,0.0157,0,0,270.0*
21,1,0.0079,0.0236,0,0,270.0*
1,1,0.0079,-0.0079,-0.0039*
1,1,0.0079,-0.0079,0.0039*
1,1,0.0079,0.0079,0.0039*
1,1,0.0079,0.0079,-0.0039*
%
%ADD39ROUNDEDRECTD39*%
%ADD40R,0.0118X0.0209*%
%ADD41R,0.0118X0.0193*%
%ADD42R,0.0157X0.0335*%
%ADD43R,0.0335X0.0157*%
%ADD44C,0.0060*%
%ADD45C,0.0050*%
%ADD46C,0.0120*%
%ADD47C,0.0181*%
%ADD48C,0.0080*%
%ADD49C,0.0150*%
%ADD50C,0.1260*%
%ADD51C,0.0630*%
%ADD52C,0.0197*%
%ADD53C,0.0180*%
%ADD54C,0.0260*%
%ADD55C,0.0220*%
%ADD56C,0.0200*%
%ADD57C,0.0276*%
%ADD58O,0.0098X0.0315*%
%ADD59O,0.0315X0.0098*%
%ADD60R,0.1299X0.1299*%
%ADD61R,0.0236X0.0591*%
%ADD62R,0.0591X0.0236*%
%ADD63R,0.0236X0.0610*%
%ADD64R,0.0472X0.0709*%
%ADD65R,0.0512X0.0217*%
%ADD66C,0.0098*%
%ADD67C,0.0079*%
%ADD68C,0.0039*%
%ADD69C,0.0047*%
G04:AMPARAMS|DCode=70|XSize=43.3mil|YSize=55.1mil|CornerRadius=0mil|HoleSize=0mil|Usage=FLASHONLY|Rotation=230.000|XOffset=0mil|YOffset=0mil|HoleType=Round|Shape=Rectangle|*
%AMROTATEDRECTD70*
4,1,4,-0.0072,0.0343,0.0350,-0.0011,0.0072,-0.0343,-0.0350,0.0011,-0.0072,0.0343,0.0*
%
%ADD70ROTATEDRECTD70*%

%ADD71R,0.2422X0.1950*%
%ADD72O,0.0375X0.0217*%
%ADD73O,0.0336X0.0158*%
%ADD74O,0.0158X0.0336*%
%ADD75R,0.0296X0.0217*%
%ADD76R,0.0257X0.0414*%
%ADD77R,0.0217X0.0296*%
%ADD78R,0.0414X0.0257*%
%ADD79R,0.1910X0.1910*%
%ADD80O,0.0165X0.0370*%
%ADD81O,0.0370X0.0165*%
%ADD82R,0.2088X0.2088*%
%ADD83O,0.0165X0.0390*%
%ADD84O,0.0390X0.0165*%
%ADD85O,0.0592X0.0237*%
%ADD86R,0.0610X0.0236*%
%ADD87R,0.0709X0.0827*%
%ADD88R,0.0630X0.0709*%
%ADD89R,0.0277X0.0454*%
%ADD90R,0.0336X0.0414*%
%ADD91R,0.0198X0.0158*%
%ADD92R,0.0158X0.0247*%
%ADD93R,0.0847X0.0532*%
%ADD94R,0.0202X0.0202*%
%ADD95R,0.0170X0.0170*%
G04:AMPARAMS|DCode=96|XSize=65.1mil|YSize=108.4mil|CornerRadius=0mil|HoleSize=0mil|Usage=FLASHONLY|Rotation=230.000|XOffset=0mil|YOffset=0mil|HoleType=Round|Shape=Rectangle|*
%AMROTATEDRECTD96*
4,1,4,-0.0206,0.0597,0.0624,-0.0099,0.0206,-0.0597,-0.0624,0.0099,-0.0206,0.0597,0.0*
%
%ADD96ROTATEDRECTD96*%

%ADD97R,0.0257X0.0375*%
G04:AMPARAMS|DCode=98|XSize=94.5mil|YSize=59.1mil|CornerRadius=16.7mil|HoleSize=0mil|Usage=FLASHONLY|Rotation=270.000|XOffset=0mil|YOffset=0mil|HoleType=Round|Shape=RoundedRectangle|*
%AMROUNDEDRECTD98*
21,1,0.0945,0.0256,0,0,270.0*
21,1,0.0610,0.0591,0,0,270.0*
1,1,0.0335,-0.0128,-0.0305*
1,1,0.0335,-0.0128,0.0305*
1,1,0.0335,0.0128,0.0305*
1,1,0.0335,0.0128,-0.0305*
%
%ADD98ROUNDEDRECTD98*%
G04:AMPARAMS|DCode=99|XSize=21.7mil|YSize=29.6mil|CornerRadius=6.9mil|HoleSize=0mil|Usage=FLASHONLY|Rotation=270.000|XOffset=0mil|YOffset=0mil|HoleType=Round|Shape=RoundedRectangle|*
%AMROUNDEDRECTD99*
21,1,0.0217,0.0157,0,0,270.0*
21,1,0.0079,0.0296,0,0,270.0*
1,1,0.0139,-0.0079,-0.0039*
1,1,0.0139,-0.0079,0.0039*
1,1,0.0139,0.0079,0.0039*
1,1,0.0139,0.0079,-0.0039*
%
%ADD99ROUNDEDRECTD99*%
%ADD100R,0.0178X0.0269*%
%ADD101R,0.0178X0.0253*%
%ADD102R,0.0217X0.0395*%
%ADD103R,0.0395X0.0217*%
%ADD104C,0.1320*%
%ADD105C,0.0690*%
%ADD106R,0.0060X0.0060*%
%ADD107C,0.0320*%
%ADD108C,0.0020*%
D10*
X-1850Y5650D02*
G03*
X-1850Y5650I-50J0D01*
G01*
X-5850Y200D02*
G03*
X-5850Y200I-50J0D01*
G01*
Y800D02*
G03*
X-5850Y800I-50J0D01*
G01*
D71*
X-3250Y-2350D02*
D03*
D72*
X-1695Y-1600D02*
D03*
Y-2100D02*
D03*
Y-2600D02*
D03*
Y-3100D02*
D03*
X-4805D02*
D03*
Y-2600D02*
D03*
Y-2100D02*
D03*
Y-1600D02*
D03*
D73*
X415Y-395D02*
D03*
Y-198D02*
D03*
Y-2D02*
D03*
Y195D02*
D03*
X-215D02*
D03*
Y-2D02*
D03*
Y-198D02*
D03*
Y-395D02*
D03*
D74*
X100Y294D02*
D03*
Y-494D02*
D03*
D75*
X-4250Y127D02*
D03*
Y-227D02*
D03*
X-750Y177D02*
D03*
Y-177D02*
D03*
X-1150Y2677D02*
D03*
Y2323D02*
D03*
X-3850Y2773D02*
D03*
Y3127D02*
D03*
X5300Y-2127D02*
D03*
Y-1773D02*
D03*
X-2800Y2727D02*
D03*
Y2373D02*
D03*
X-1100Y1777D02*
D03*
Y1423D02*
D03*
X-1600Y3477D02*
D03*
Y3123D02*
D03*
X-3850Y3827D02*
D03*
Y3473D02*
D03*
X-1150Y3477D02*
D03*
Y3123D02*
D03*
X-4300Y3827D02*
D03*
Y3473D02*
D03*
X-5300Y-2223D02*
D03*
Y-2577D02*
D03*
X-1300Y-1273D02*
D03*
Y-1627D02*
D03*
X-1900Y-5077D02*
D03*
Y-4723D02*
D03*
X-1400Y-4277D02*
D03*
Y-3923D02*
D03*
X-1900Y-4327D02*
D03*
Y-3973D02*
D03*
X1400Y-4673D02*
D03*
Y-5027D02*
D03*
X1900D02*
D03*
Y-4673D02*
D03*
X2600Y-4527D02*
D03*
Y-4173D02*
D03*
X2650Y-2927D02*
D03*
Y-2573D02*
D03*
X-750Y927D02*
D03*
Y573D02*
D03*
X0Y5573D02*
D03*
Y5927D02*
D03*
X400Y5573D02*
D03*
Y5927D02*
D03*
X-1600Y4177D02*
D03*
Y3823D02*
D03*
D76*
X-5445Y1400D02*
D03*
X-4855D02*
D03*
X3745Y-450D02*
D03*
X3155D02*
D03*
X-3595Y650D02*
D03*
X-3005D02*
D03*
X-3595Y2000D02*
D03*
X-3005D02*
D03*
D77*
X-2377Y2700D02*
D03*
X-2023D02*
D03*
X-3627Y4600D02*
D03*
X-3273D02*
D03*
X-3823Y4200D02*
D03*
X-4177D02*
D03*
X-5527Y-1600D02*
D03*
X-5173D02*
D03*
X2573Y-3400D02*
D03*
X2927D02*
D03*
X3373Y-950D02*
D03*
X3727D02*
D03*
X1073Y1200D02*
D03*
X1427D02*
D03*
X-327Y-850D02*
D03*
X27D02*
D03*
X-3273Y1200D02*
D03*
X-3627D02*
D03*
X-5141Y1940D02*
D03*
X-5496D02*
D03*
X1527Y5600D02*
D03*
X1173D02*
D03*
D78*
X-4350Y3095D02*
D03*
Y2505D02*
D03*
D79*
X1150Y3400D02*
D03*
D80*
X-326Y5172D02*
D03*
X-130D02*
D03*
X67D02*
D03*
X264D02*
D03*
X461D02*
D03*
X658D02*
D03*
X855D02*
D03*
X1052D02*
D03*
X1248D02*
D03*
X1445D02*
D03*
X1642D02*
D03*
X1839D02*
D03*
X2036D02*
D03*
X2233D02*
D03*
X2430D02*
D03*
X2626D02*
D03*
Y1628D02*
D03*
X2430D02*
D03*
X2233D02*
D03*
X2036D02*
D03*
X1839D02*
D03*
X1642D02*
D03*
X1445D02*
D03*
X1248D02*
D03*
X1052D02*
D03*
X855D02*
D03*
X658D02*
D03*
X461D02*
D03*
X264D02*
D03*
X67D02*
D03*
X-130D02*
D03*
X-326D02*
D03*
D81*
X2922Y4876D02*
D03*
Y4680D02*
D03*
Y4483D02*
D03*
Y4286D02*
D03*
Y4089D02*
D03*
Y3892D02*
D03*
Y3695D02*
D03*
Y3498D02*
D03*
Y3302D02*
D03*
Y3105D02*
D03*
Y2908D02*
D03*
Y2711D02*
D03*
Y2514D02*
D03*
Y2317D02*
D03*
Y2120D02*
D03*
Y1924D02*
D03*
X-622D02*
D03*
Y2120D02*
D03*
Y2317D02*
D03*
Y2514D02*
D03*
Y2711D02*
D03*
Y2908D02*
D03*
Y3105D02*
D03*
Y3302D02*
D03*
Y3498D02*
D03*
Y3695D02*
D03*
Y3892D02*
D03*
Y4089D02*
D03*
Y4286D02*
D03*
Y4483D02*
D03*
Y4680D02*
D03*
Y4876D02*
D03*
D82*
X650Y-2850D02*
D03*
D83*
X1733Y-4228D02*
D03*
X1536D02*
D03*
X1339D02*
D03*
X1142D02*
D03*
X945D02*
D03*
X748D02*
D03*
X552D02*
D03*
X355D02*
D03*
X158D02*
D03*
X-39D02*
D03*
X-236D02*
D03*
X-433D02*
D03*
Y-1472D02*
D03*
X-236D02*
D03*
X-39D02*
D03*
X158D02*
D03*
X355D02*
D03*
X552D02*
D03*
X748D02*
D03*
X945D02*
D03*
X1142D02*
D03*
X1339D02*
D03*
X1536D02*
D03*
X1733D02*
D03*
D84*
X-728Y-3933D02*
D03*
Y-3736D02*
D03*
Y-3539D02*
D03*
Y-3342D02*
D03*
Y-3145D02*
D03*
Y-2948D02*
D03*
Y-2752D02*
D03*
Y-2555D02*
D03*
Y-2358D02*
D03*
Y-2161D02*
D03*
Y-1964D02*
D03*
Y-1767D02*
D03*
X2028D02*
D03*
Y-1964D02*
D03*
Y-2161D02*
D03*
Y-2358D02*
D03*
Y-2555D02*
D03*
Y-2752D02*
D03*
Y-2948D02*
D03*
Y-3145D02*
D03*
Y-3342D02*
D03*
Y-3539D02*
D03*
Y-3736D02*
D03*
Y-3933D02*
D03*
D85*
X-2258Y3266D02*
D03*
Y3522D02*
D03*
Y3778D02*
D03*
Y4034D02*
D03*
X-3242Y3266D02*
D03*
Y3522D02*
D03*
Y3778D02*
D03*
Y4034D02*
D03*
D86*
X4547Y-512D02*
D03*
Y-256D02*
D03*
Y512D02*
D03*
Y256D02*
D03*
Y0D02*
D03*
D87*
X5600Y472D02*
D03*
Y-472D02*
D03*
D88*
X4616Y1260D02*
D03*
Y-1260D02*
D03*
D89*
X-5474Y792D02*
D03*
X-4726D02*
D03*
Y-192D02*
D03*
X-5100D02*
D03*
X-5474D02*
D03*
D90*
X-3300Y-824D02*
D03*
X-3556Y-76D02*
D03*
X-3044D02*
D03*
D91*
X-2248Y-4303D02*
D03*
Y-4500D02*
D03*
Y-4697D02*
D03*
X-3252D02*
D03*
Y-4500D02*
D03*
Y-4303D02*
D03*
D92*
X-2356Y-5017D02*
D03*
X-2553D02*
D03*
X-2750D02*
D03*
X-2947D02*
D03*
X-3144D02*
D03*
Y-3983D02*
D03*
X-2947D02*
D03*
X-2750D02*
D03*
X-2553D02*
D03*
X-2356D02*
D03*
D93*
X728Y-4917D02*
D03*
X-728D02*
D03*
Y-5783D02*
D03*
X728D02*
D03*
D94*
X3200Y-2850D02*
D03*
D95*
Y-2650D02*
D03*
X3000D02*
D03*
Y-2850D02*
D03*
D96*
X4837Y-2593D02*
D03*
X3534Y-4146D02*
D03*
D97*
X3781Y986D02*
D03*
X3427D02*
D03*
X3073D02*
D03*
X2718D02*
D03*
Y514D02*
D03*
X3073D02*
D03*
X3427D02*
D03*
X3781D02*
D03*
D98*
X4450Y2900D02*
D03*
D99*
X5001Y3294D02*
D03*
Y2900D02*
D03*
Y2506D02*
D03*
X3899D02*
D03*
Y2900D02*
D03*
Y3294D02*
D03*
D100*
X297Y1040D02*
D03*
D101*
X100Y1048D02*
D03*
X-97D02*
D03*
Y752D02*
D03*
X100D02*
D03*
X297D02*
D03*
D102*
X-2056Y1226D02*
D03*
X-1800D02*
D03*
X-1544D02*
D03*
Y1974D02*
D03*
X-2056D02*
D03*
D103*
X-2024Y4950D02*
D03*
X-1276Y4694D02*
D03*
Y4950D02*
D03*
Y5206D02*
D03*
X-2024D02*
D03*
Y4694D02*
D03*
D104*
X-1734Y0D02*
D03*
X1534D02*
D03*
D105*
X5600Y1250D02*
D03*
Y-1250D02*
D03*
D106*
X3446Y3904D02*
D03*
X5454Y1896D02*
D03*
D107*
X-5900Y-150D02*
D03*
X-3951Y451D02*
D03*
D108*
X-4000Y1600D02*
D03*
X-5100Y200D02*
D03*
X-4550Y1400D02*
D03*
X-4860Y1940D02*
D03*
X2400Y-5300D02*
D03*
X4050Y-2700D02*
D03*
X5050Y-800D02*
D03*
Y500D02*
D03*
M02*
