M48
;Layer_Color=9474304
;FILE_FORMAT=2:4
INCH,LZ
;TYPE=PLATED
T1F00S00C0.0080
T2F00S00C0.0081
T3F00S00C0.0100
T4F00S00C0.0120
T5F00S00C0.0157
T6F00S00C0.0160
T7F00S00C0.0472
T8F00S00C0.0846
%
T01
X0019Y-00525
X002273Y-004527
X002336Y-003736
X0024Y-0034
X002348Y-002752
X002342Y-002358
X00235Y-0021
X00305Y-0019
Y-0016
X00335Y-00135
X00375
X004139Y-001289
X00355Y-0023
X00315Y-0031
X00445Y-0038
X005577Y-002127
X00565Y-00175
X00505Y-0005
Y-00025
Y0
X005Y0018
X0052Y002
X0055Y0019
X00535Y00275
X00465Y0037
X00425Y0035
X00365Y0036
X0036Y0033
Y0029
X00325Y00345
X002602Y003498
X002405Y003695
X002611Y004089
X002617Y004483
X0024Y00475
X00185
X00195Y0056
X0024Y0055
X003224Y004876
X0033Y0046
X003272Y0043
X00355Y00435
X002611Y002711
X002408Y002908
X00235Y00255
X0023Y00195
X002036Y001986
X0026Y002
X0033
X0038Y0019
X0041Y00175
X0044Y0019
X00255Y0013
X002233Y001317
X001756Y000984
X001427Y000923
X0014Y00205
X001536Y-001164
X001927Y-001177
X002208Y-000492
X00125Y-00085
X000945Y-001155
X000158Y-001158
X00025Y-00085
X000698Y-000198
X000548Y000752
X00095Y00075
X0001Y00055
X-000348Y000752
X-0004Y00115
X0001Y0013
X000461Y001311
X00015Y0019
X0003Y00212
X000539Y0023
X00095Y002
X-000317Y002317
X-000161Y002711
X-0001Y00365
X-001Y00425
X-00125Y0041
X-00135Y0044
X-0016
X-00185
X-00285Y0046
X-0035Y0049
X-00205Y0055
X-0016Y0057
X-001276Y005426
X-000877Y005373
X-000327Y005527
X-000323Y005927
X0007Y005904
X001Y0059
X00085Y00485
X00105Y0047
X0005Y00465
X-000374Y004876
X-00065Y00165
X-0018Y002
Y00085
X-002056Y000856
X-0026Y-00005
X-0025Y-0008
X-0013Y-001
X-000724Y-001463
X-00105Y-00185
X-001022Y-00215
X-001192Y-002358
X-001039Y-002555
X-001198Y-002752
X-001048Y-002948
X-001228Y-003145
X-00105Y-00335
X-001211Y-003539
X-001036Y-003736
X-001123Y-004277
X-000628Y-004228
X-00165Y-00435
X-001623Y-004723
Y-005077
X-0015Y-0053
X-00115Y-00535
X-00025
X000023Y-005177
X000177Y-005623
X00025Y-00455
X000552Y-004541
X00085
X00135Y-00545
X-0025Y-00425
X-00285Y-0043
X-003055Y-0045
X-003Y-00475
X-0035Y-00405
X-0048Y-00285
Y-0024
Y-0019
Y-00135
X-0017Y-00185
Y-00235
Y-00335
X-0037Y0016
X-0036Y0024
X-003855Y002505
X-00325Y003
X-002376Y003026
X-0046Y00345
X-004577Y003827
T02
X001516Y-003716
Y-003283
Y-00285
Y-002417
Y-001984
X0018Y00275
Y003183
Y003617
Y00405
X001367
Y003617
Y003183
Y00275
X000933
X0005
Y003183
X000933
Y003617
X0005
Y00405
X000933
X001083Y-001984
Y-002417
Y-00285
Y-003283
Y-003716
X00065
X000217
X-000216
Y-003283
X000217
X00065
Y-00285
X000217
X-000216
Y-002417
X000217
Y-001984
X-000216
X00065
Y-002417
X-002384Y-002567
Y-002133
Y-0017
X-002817
Y-002133
Y-002567
Y-003
X-002384
X-00325
Y-002567
Y-002133
Y-0017
X-003683
Y-002133
Y-002567
Y-003
X-004116
Y-002567
Y-002133
Y-0017
T03
X-00535Y00245
X-00495
X-00515Y00285
X-00475
X-00495Y00325
T04
X0024Y-0053
X00405Y-0027
X00505Y-0008
Y0005
X-004Y0016
X-00455Y0014
X-00486Y00194
X-0051Y0002
T05
X00345Y0
T06
X-0059Y-00015
X-003951Y000451
T07
X0056Y-00125
Y00125
T08
X001534Y0
X-001734
M30
