%FSLAX24Y24*%
%MOIN*%
G70*
G01*
G75*
G04 Layer_Physical_Order=2*
G04 Layer_Color=36540*
%ADD10C,0.0100*%
G04:AMPARAMS|DCode=11|XSize=63mil|YSize=98.4mil|CornerRadius=15.7mil|HoleSize=0mil|Usage=FLASHONLY|Rotation=0.000|XOffset=0mil|YOffset=0mil|HoleType=Round|Shape=RoundedRectangle|*
%AMROUNDEDRECTD11*
21,1,0.0630,0.0669,0,0,0.0*
21,1,0.0315,0.0984,0,0,0.0*
1,1,0.0315,0.0157,-0.0335*
1,1,0.0315,-0.0157,-0.0335*
1,1,0.0315,-0.0157,0.0335*
1,1,0.0315,0.0157,0.0335*
%
%ADD11ROUNDEDRECTD11*%
G04:AMPARAMS|DCode=12|XSize=33.5mil|YSize=17.7mil|CornerRadius=4.4mil|HoleSize=0mil|Usage=FLASHONLY|Rotation=0.000|XOffset=0mil|YOffset=0mil|HoleType=Round|Shape=RoundedRectangle|*
%AMROUNDEDRECTD12*
21,1,0.0335,0.0089,0,0,0.0*
21,1,0.0246,0.0177,0,0,0.0*
1,1,0.0089,0.0123,-0.0044*
1,1,0.0089,-0.0123,-0.0044*
1,1,0.0089,-0.0123,0.0044*
1,1,0.0089,0.0123,0.0044*
%
%ADD12ROUNDEDRECTD12*%
%ADD13O,0.0335X0.0110*%
%ADD14O,0.0110X0.0335*%
%ADD15R,0.2028X0.2028*%
%ADD16R,0.1850X0.1850*%
%ADD17O,0.0110X0.0315*%
%ADD18O,0.0315X0.0110*%
%ADD19O,0.0276X0.0098*%
%ADD20O,0.0098X0.0276*%
%ADD21O,0.0532X0.0177*%
%ADD22R,0.0142X0.0142*%
%ADD23R,0.0110X0.0110*%
G04:AMPARAMS|DCode=24|XSize=59.1mil|YSize=102.4mil|CornerRadius=0mil|HoleSize=0mil|Usage=FLASHONLY|Rotation=230.000|XOffset=0mil|YOffset=0mil|HoleType=Round|Shape=Rectangle|*
%AMROTATEDRECTD24*
4,1,4,-0.0202,0.0555,0.0582,-0.0103,0.0202,-0.0555,-0.0582,0.0103,-0.0202,0.0555,0.0*
%
%ADD24ROTATEDRECTD24*%

%ADD25R,0.0551X0.0630*%
%ADD26R,0.0630X0.0748*%
%ADD27R,0.0532X0.0157*%
%ADD28R,0.0138X0.0098*%
%ADD29R,0.0098X0.0187*%
%ADD30R,0.0217X0.0394*%
%ADD31R,0.0118X0.0193*%
%ADD32R,0.0118X0.0209*%
%ADD33R,0.0787X0.0472*%
%ADD34R,0.0335X0.0157*%
%ADD35R,0.0157X0.0335*%
%ADD36R,0.0276X0.0354*%
%ADD37R,0.0197X0.0315*%
%ADD38O,0.0315X0.0157*%
%ADD39R,0.2362X0.1890*%
%ADD40R,0.0236X0.0157*%
%ADD41R,0.0197X0.0354*%
%ADD42R,0.0157X0.0236*%
%ADD43R,0.0354X0.0197*%
%ADD44C,0.0060*%
%ADD45C,0.0050*%
%ADD46C,0.0120*%
%ADD47C,0.0181*%
%ADD48C,0.0080*%
%ADD49C,0.0150*%
%ADD50C,0.1260*%
%ADD51C,0.0630*%
%ADD52C,0.0180*%
%ADD53C,0.0197*%
%ADD54C,0.0276*%
%ADD55C,0.0260*%
%ADD56C,0.0220*%
%ADD57C,0.0200*%
G36*
X483Y6131D02*
X930Y6078D01*
X941Y6029D01*
X899Y6001D01*
X876Y5967D01*
X826D01*
X801Y6005D01*
X755Y6036D01*
X700Y6047D01*
X645Y6036D01*
X599Y6005D01*
X568Y5959D01*
X557Y5904D01*
X568Y5850D01*
X599Y5803D01*
X645Y5772D01*
X700Y5762D01*
X755Y5772D01*
X801Y5803D01*
X824Y5837D01*
X874D01*
X899Y5799D01*
X945Y5768D01*
X1000Y5757D01*
X1055Y5768D01*
X1101Y5799D01*
X1132Y5845D01*
X1143Y5900D01*
X1132Y5955D01*
X1102Y5999D01*
X1130Y6041D01*
X1436Y5980D01*
X1900Y5849D01*
X1987Y5817D01*
X1973Y5769D01*
X1950Y5773D01*
X1884Y5760D01*
X1827Y5723D01*
X1790Y5666D01*
X1785Y5640D01*
X2115D01*
X2110Y5666D01*
X2073Y5723D01*
X2040Y5744D01*
X2063Y5789D01*
X2352Y5682D01*
X2348Y5632D01*
X2345Y5632D01*
X2299Y5601D01*
X2268Y5555D01*
X2257Y5500D01*
X2268Y5445D01*
X2299Y5399D01*
X2345Y5368D01*
X2400Y5357D01*
X2455Y5368D01*
X2501Y5399D01*
X2532Y5445D01*
X2543Y5500D01*
X2533Y5550D01*
X2572Y5581D01*
X2792Y5479D01*
X3213Y5244D01*
X3615Y4975D01*
X3994Y4676D01*
X4349Y4349D01*
X4676Y3994D01*
X4975Y3615D01*
X5244Y3213D01*
X5403Y2928D01*
X5374Y2888D01*
X5350Y2893D01*
X5295Y2882D01*
X5249Y2851D01*
X5218Y2805D01*
X5207Y2750D01*
X5218Y2695D01*
X5249Y2649D01*
X5295Y2618D01*
X5350Y2607D01*
X5405Y2618D01*
X5451Y2649D01*
X5478Y2690D01*
X5528Y2686D01*
X5528Y2686D01*
X5682Y2353D01*
X5849Y1900D01*
X5980Y1436D01*
X5987Y1399D01*
X5939Y1385D01*
X5919Y1434D01*
X5860Y1510D01*
X5784Y1569D01*
X5695Y1606D01*
X5600Y1618D01*
X5505Y1606D01*
X5416Y1569D01*
X5340Y1510D01*
X5281Y1434D01*
X5244Y1345D01*
X5232Y1250D01*
X5244Y1155D01*
X5281Y1066D01*
X5340Y990D01*
X5416Y931D01*
X5505Y894D01*
X5600Y882D01*
X5695Y894D01*
X5784Y931D01*
X5860Y990D01*
X5919Y1066D01*
X5956Y1155D01*
X5967Y1245D01*
X6017Y1247D01*
X6074Y962D01*
X6131Y483D01*
X6150Y0D01*
X6131Y-483D01*
X6074Y-962D01*
X6017Y-1247D01*
X5967Y-1245D01*
X5956Y-1155D01*
X5919Y-1066D01*
X5860Y-990D01*
X5784Y-931D01*
X5695Y-894D01*
X5600Y-882D01*
X5505Y-894D01*
X5416Y-931D01*
X5340Y-990D01*
X5281Y-1066D01*
X5244Y-1155D01*
X5232Y-1250D01*
X5244Y-1345D01*
X5281Y-1434D01*
X5340Y-1510D01*
X5416Y-1569D01*
X5505Y-1606D01*
X5521Y-1608D01*
X5533Y-1624D01*
X5546Y-1654D01*
X5518Y-1695D01*
X5507Y-1750D01*
X5518Y-1805D01*
X5549Y-1851D01*
X5595Y-1882D01*
X5650Y-1893D01*
X5705Y-1882D01*
X5751Y-1851D01*
X5782Y-1805D01*
X5793Y-1750D01*
X5782Y-1695D01*
X5751Y-1649D01*
X5734Y-1637D01*
X5738Y-1588D01*
X5784Y-1569D01*
X5860Y-1510D01*
X5919Y-1434D01*
X5939Y-1385D01*
X5987Y-1399D01*
X5980Y-1436D01*
X5849Y-1900D01*
X5774Y-2102D01*
X5755Y-2109D01*
X5711Y-2085D01*
X5709Y-2073D01*
X5678Y-2026D01*
X5632Y-1995D01*
X5577Y-1984D01*
X5523Y-1995D01*
X5521Y-1997D01*
X4600Y-1450D01*
X3285Y-3001D01*
X3251Y-2999D01*
X3205Y-2968D01*
X3150Y-2957D01*
X3095Y-2968D01*
X3049Y-2999D01*
X3018Y-3045D01*
X3007Y-3100D01*
X3018Y-3155D01*
X3049Y-3201D01*
X3060Y-3208D01*
X3067Y-3258D01*
X2344Y-4110D01*
X3374Y-5089D01*
X3369Y-5139D01*
X3213Y-5244D01*
X2792Y-5479D01*
X2353Y-5682D01*
X1900Y-5849D01*
X1436Y-5980D01*
X962Y-6074D01*
X483Y-6131D01*
X0Y-6150D01*
X-483Y-6131D01*
X-962Y-6074D01*
X-1436Y-5980D01*
X-1900Y-5849D01*
X-2353Y-5682D01*
X-2792Y-5479D01*
X-3213Y-5244D01*
X-3615Y-4975D01*
X-3994Y-4676D01*
X-4349Y-4349D01*
X-4676Y-3994D01*
X-4975Y-3615D01*
X-5244Y-3213D01*
X-5479Y-2792D01*
X-5682Y-2353D01*
X-5849Y-1900D01*
X-5980Y-1436D01*
X-6074Y-962D01*
X-6131Y-483D01*
X-6150Y0D01*
X-6131Y483D01*
X-6074Y962D01*
X-5980Y1436D01*
X-5849Y1900D01*
X-5682Y2353D01*
X-5479Y2792D01*
X-5244Y3213D01*
X-4975Y3615D01*
X-4757Y3892D01*
X-4711Y3871D01*
X-4720Y3827D01*
X-4709Y3773D01*
X-4678Y3726D01*
X-4632Y3695D01*
X-4577Y3684D01*
X-4523Y3695D01*
X-4476Y3726D01*
X-4445Y3773D01*
X-4434Y3827D01*
X-4445Y3882D01*
X-4476Y3928D01*
X-4523Y3959D01*
X-4577Y3970D01*
X-4632Y3959D01*
X-4651Y3946D01*
X-4685Y3983D01*
X-4676Y3994D01*
X-4349Y4349D01*
X-3994Y4676D01*
X-3716Y4895D01*
X-3669Y4878D01*
X-3660Y4834D01*
X-3623Y4777D01*
X-3566Y4740D01*
X-3540Y4735D01*
Y4900D01*
X-3500D01*
Y4940D01*
X-3335D01*
X-3340Y4966D01*
X-3377Y5023D01*
X-3423Y5053D01*
X-3423Y5103D01*
X-3213Y5244D01*
X-2792Y5479D01*
X-2353Y5682D01*
X-1900Y5849D01*
X-1436Y5980D01*
X-962Y6074D01*
X-483Y6131D01*
X0Y6150D01*
X483Y6131D01*
D02*
G37*
%LPC*%
G36*
X-2424Y-2393D02*
X-2453Y-2398D01*
X-2512Y-2438D01*
X-2552Y-2497D01*
X-2558Y-2527D01*
X-2424D01*
Y-2393D01*
D02*
G37*
G36*
X-2777D02*
Y-2527D01*
X-2643D01*
X-2649Y-2497D01*
X-2688Y-2438D01*
X-2747Y-2398D01*
X-2777Y-2393D01*
D02*
G37*
G36*
X-2857D02*
X-2887Y-2398D01*
X-2946Y-2438D01*
X-2985Y-2497D01*
X-2991Y-2527D01*
X-2857D01*
Y-2393D01*
D02*
G37*
G36*
X2508Y-2398D02*
X2382D01*
Y-2523D01*
X2408Y-2518D01*
X2465Y-2480D01*
X2502Y-2424D01*
X2508Y-2398D01*
D02*
G37*
G36*
X2302D02*
X2177D01*
X2182Y-2424D01*
X2220Y-2480D01*
X2276Y-2518D01*
X2302Y-2523D01*
Y-2398D01*
D02*
G37*
G36*
X-2344Y-2393D02*
Y-2527D01*
X-2210D01*
X-2216Y-2497D01*
X-2255Y-2438D01*
X-2314Y-2398D01*
X-2344Y-2393D01*
D02*
G37*
G36*
X-3210D02*
Y-2527D01*
X-3076D01*
X-3082Y-2497D01*
X-3121Y-2438D01*
X-3180Y-2398D01*
X-3210Y-2393D01*
D02*
G37*
G36*
X-4076D02*
Y-2527D01*
X-3942D01*
X-3948Y-2497D01*
X-3988Y-2438D01*
X-4047Y-2398D01*
X-4076Y-2393D01*
D02*
G37*
G36*
X-4156D02*
X-4186Y-2398D01*
X-4245Y-2438D01*
X-4284Y-2497D01*
X-4290Y-2527D01*
X-4156D01*
Y-2393D01*
D02*
G37*
G36*
X-4800Y-2257D02*
X-4855Y-2268D01*
X-4901Y-2299D01*
X-4932Y-2345D01*
X-4943Y-2400D01*
X-4932Y-2455D01*
X-4901Y-2501D01*
X-4855Y-2532D01*
X-4800Y-2543D01*
X-4745Y-2532D01*
X-4699Y-2501D01*
X-4668Y-2455D01*
X-4657Y-2400D01*
X-4668Y-2345D01*
X-4699Y-2299D01*
X-4745Y-2268D01*
X-4800Y-2257D01*
D02*
G37*
G36*
X-3290Y-2393D02*
X-3320Y-2398D01*
X-3379Y-2438D01*
X-3418Y-2497D01*
X-3424Y-2527D01*
X-3290D01*
Y-2393D01*
D02*
G37*
G36*
X-3643D02*
Y-2527D01*
X-3509D01*
X-3515Y-2497D01*
X-3554Y-2438D01*
X-3613Y-2398D01*
X-3643Y-2393D01*
D02*
G37*
G36*
X-3723D02*
X-3753Y-2398D01*
X-3812Y-2438D01*
X-3851Y-2497D01*
X-3857Y-2527D01*
X-3723D01*
Y-2393D01*
D02*
G37*
G36*
X-1700Y-2207D02*
X-1755Y-2218D01*
X-1801Y-2249D01*
X-1832Y-2295D01*
X-1843Y-2350D01*
X-1832Y-2405D01*
X-1801Y-2451D01*
X-1755Y-2482D01*
X-1700Y-2493D01*
X-1645Y-2482D01*
X-1599Y-2451D01*
X-1568Y-2405D01*
X-1557Y-2350D01*
X-1568Y-2295D01*
X-1599Y-2249D01*
X-1645Y-2218D01*
X-1700Y-2207D01*
D02*
G37*
G36*
X1123Y-2243D02*
Y-2377D01*
X1257D01*
X1251Y-2347D01*
X1212Y-2288D01*
X1153Y-2249D01*
X1123Y-2243D01*
D02*
G37*
G36*
X1043D02*
X1013Y-2249D01*
X954Y-2288D01*
X915Y-2347D01*
X909Y-2377D01*
X1043D01*
Y-2243D01*
D02*
G37*
G36*
X690D02*
Y-2377D01*
X824D01*
X818Y-2347D01*
X779Y-2288D01*
X720Y-2249D01*
X690Y-2243D01*
D02*
G37*
G36*
X2350Y-1957D02*
X2295Y-1968D01*
X2249Y-1999D01*
X2218Y-2045D01*
X2207Y-2100D01*
X2218Y-2155D01*
X2236Y-2182D01*
X2226Y-2231D01*
X2220Y-2235D01*
X2182Y-2292D01*
X2177Y-2318D01*
X2508D01*
X2502Y-2292D01*
X2465Y-2235D01*
X2451Y-2226D01*
Y-2201D01*
X2482Y-2155D01*
X2493Y-2100D01*
X2482Y-2045D01*
X2451Y-1999D01*
X2405Y-1968D01*
X2350Y-1957D01*
D02*
G37*
G36*
X1556Y-2243D02*
Y-2377D01*
X1690D01*
X1684Y-2347D01*
X1645Y-2288D01*
X1586Y-2249D01*
X1556Y-2243D01*
D02*
G37*
G36*
X1476D02*
X1447Y-2249D01*
X1388Y-2288D01*
X1348Y-2347D01*
X1342Y-2377D01*
X1476D01*
Y-2243D01*
D02*
G37*
G36*
X610D02*
X580Y-2249D01*
X521Y-2288D01*
X482Y-2347D01*
X476Y-2377D01*
X610D01*
Y-2243D01*
D02*
G37*
G36*
X-256D02*
X-286Y-2249D01*
X-345Y-2288D01*
X-384Y-2347D01*
X-390Y-2377D01*
X-256D01*
Y-2243D01*
D02*
G37*
G36*
X3715Y-2340D02*
X3590D01*
Y-2465D01*
X3616Y-2460D01*
X3673Y-2423D01*
X3710Y-2366D01*
X3715Y-2340D01*
D02*
G37*
G36*
X3510D02*
X3385D01*
X3390Y-2366D01*
X3427Y-2423D01*
X3484Y-2460D01*
X3510Y-2465D01*
Y-2340D01*
D02*
G37*
G36*
X257Y-2243D02*
Y-2377D01*
X391D01*
X385Y-2347D01*
X346Y-2288D01*
X287Y-2249D01*
X257Y-2243D01*
D02*
G37*
G36*
X177D02*
X147Y-2249D01*
X88Y-2288D01*
X49Y-2347D01*
X43Y-2377D01*
X177D01*
Y-2243D01*
D02*
G37*
G36*
X-176D02*
Y-2377D01*
X-42D01*
X-48Y-2347D01*
X-88Y-2288D01*
X-147Y-2249D01*
X-176Y-2243D01*
D02*
G37*
G36*
X-3723Y-2607D02*
X-3857D01*
X-3851Y-2636D01*
X-3812Y-2695D01*
X-3753Y-2735D01*
X-3723Y-2740D01*
Y-2607D01*
D02*
G37*
G36*
X-3942D02*
X-4076D01*
Y-2740D01*
X-4047Y-2735D01*
X-3988Y-2695D01*
X-3948Y-2636D01*
X-3942Y-2607D01*
D02*
G37*
G36*
X-4156D02*
X-4290D01*
X-4284Y-2636D01*
X-4245Y-2695D01*
X-4186Y-2735D01*
X-4156Y-2740D01*
Y-2607D01*
D02*
G37*
G36*
X-3076D02*
X-3210D01*
Y-2740D01*
X-3180Y-2735D01*
X-3121Y-2695D01*
X-3082Y-2636D01*
X-3076Y-2607D01*
D02*
G37*
G36*
X-3290D02*
X-3424D01*
X-3418Y-2636D01*
X-3379Y-2695D01*
X-3320Y-2735D01*
X-3290Y-2740D01*
Y-2607D01*
D02*
G37*
G36*
X-3509D02*
X-3643D01*
Y-2740D01*
X-3613Y-2735D01*
X-3554Y-2695D01*
X-3515Y-2636D01*
X-3509Y-2607D01*
D02*
G37*
G36*
X1556Y-2676D02*
Y-2810D01*
X1690D01*
X1684Y-2780D01*
X1645Y-2721D01*
X1586Y-2682D01*
X1556Y-2676D01*
D02*
G37*
G36*
X690D02*
Y-2810D01*
X824D01*
X818Y-2780D01*
X779Y-2721D01*
X720Y-2682D01*
X690Y-2676D01*
D02*
G37*
G36*
X610D02*
X580Y-2682D01*
X521Y-2721D01*
X482Y-2780D01*
X476Y-2810D01*
X610D01*
Y-2676D01*
D02*
G37*
G36*
X257D02*
Y-2810D01*
X391D01*
X385Y-2780D01*
X346Y-2721D01*
X287Y-2682D01*
X257Y-2676D01*
D02*
G37*
G36*
X1476D02*
X1447Y-2682D01*
X1388Y-2721D01*
X1348Y-2780D01*
X1342Y-2810D01*
X1476D01*
Y-2676D01*
D02*
G37*
G36*
X1123D02*
Y-2810D01*
X1257D01*
X1251Y-2780D01*
X1212Y-2721D01*
X1153Y-2682D01*
X1123Y-2676D01*
D02*
G37*
G36*
X1043D02*
X1013Y-2682D01*
X954Y-2721D01*
X915Y-2780D01*
X909Y-2810D01*
X1043D01*
Y-2676D01*
D02*
G37*
G36*
X-2857Y-2607D02*
X-2991D01*
X-2985Y-2636D01*
X-2946Y-2695D01*
X-2887Y-2735D01*
X-2857Y-2740D01*
Y-2607D01*
D02*
G37*
G36*
X1043Y-2457D02*
X909D01*
X915Y-2487D01*
X954Y-2546D01*
X1013Y-2585D01*
X1043Y-2591D01*
Y-2457D01*
D02*
G37*
G36*
X824D02*
X690D01*
Y-2591D01*
X720Y-2585D01*
X779Y-2546D01*
X818Y-2487D01*
X824Y-2457D01*
D02*
G37*
G36*
X610D02*
X476D01*
X482Y-2487D01*
X521Y-2546D01*
X580Y-2585D01*
X610Y-2591D01*
Y-2457D01*
D02*
G37*
G36*
X1690D02*
X1556D01*
Y-2591D01*
X1586Y-2585D01*
X1645Y-2546D01*
X1684Y-2487D01*
X1690Y-2457D01*
D02*
G37*
G36*
X1476D02*
X1342D01*
X1348Y-2487D01*
X1388Y-2546D01*
X1447Y-2585D01*
X1476Y-2591D01*
Y-2457D01*
D02*
G37*
G36*
X1257D02*
X1123D01*
Y-2591D01*
X1153Y-2585D01*
X1212Y-2546D01*
X1251Y-2487D01*
X1257Y-2457D01*
D02*
G37*
G36*
X391D02*
X257D01*
Y-2591D01*
X287Y-2585D01*
X346Y-2546D01*
X385Y-2487D01*
X391Y-2457D01*
D02*
G37*
G36*
X-2210Y-2607D02*
X-2344D01*
Y-2740D01*
X-2314Y-2735D01*
X-2255Y-2695D01*
X-2216Y-2636D01*
X-2210Y-2607D01*
D02*
G37*
G36*
X-2424D02*
X-2558D01*
X-2552Y-2636D01*
X-2512Y-2695D01*
X-2453Y-2735D01*
X-2424Y-2740D01*
Y-2607D01*
D02*
G37*
G36*
X-2643D02*
X-2777D01*
Y-2740D01*
X-2747Y-2735D01*
X-2688Y-2695D01*
X-2649Y-2636D01*
X-2643Y-2607D01*
D02*
G37*
G36*
X177Y-2457D02*
X43D01*
X49Y-2487D01*
X88Y-2546D01*
X147Y-2585D01*
X177Y-2591D01*
Y-2457D01*
D02*
G37*
G36*
X-42D02*
X-176D01*
Y-2591D01*
X-147Y-2585D01*
X-88Y-2546D01*
X-48Y-2487D01*
X-42Y-2457D01*
D02*
G37*
G36*
X-256D02*
X-390D01*
X-384Y-2487D01*
X-345Y-2546D01*
X-286Y-2585D01*
X-256Y-2591D01*
Y-2457D01*
D02*
G37*
G36*
X-4156Y-2173D02*
X-4290D01*
X-4284Y-2203D01*
X-4245Y-2262D01*
X-4186Y-2302D01*
X-4156Y-2307D01*
Y-2173D01*
D02*
G37*
G36*
X-256Y-1810D02*
X-286Y-1816D01*
X-345Y-1855D01*
X-384Y-1914D01*
X-390Y-1944D01*
X-256D01*
Y-1810D01*
D02*
G37*
G36*
X-1700Y-1707D02*
X-1755Y-1718D01*
X-1801Y-1749D01*
X-1832Y-1795D01*
X-1843Y-1850D01*
X-1832Y-1905D01*
X-1801Y-1951D01*
X-1755Y-1982D01*
X-1700Y-1993D01*
X-1645Y-1982D01*
X-1599Y-1951D01*
X-1568Y-1905D01*
X-1557Y-1850D01*
X-1568Y-1795D01*
X-1599Y-1749D01*
X-1645Y-1718D01*
X-1700Y-1707D01*
D02*
G37*
G36*
X-4800Y-1757D02*
X-4855Y-1768D01*
X-4901Y-1799D01*
X-4932Y-1845D01*
X-4943Y-1900D01*
X-4932Y-1955D01*
X-4901Y-2001D01*
X-4855Y-2032D01*
X-4800Y-2043D01*
X-4745Y-2032D01*
X-4699Y-2001D01*
X-4668Y-1955D01*
X-4657Y-1900D01*
X-4668Y-1845D01*
X-4699Y-1799D01*
X-4745Y-1768D01*
X-4800Y-1757D01*
D02*
G37*
G36*
X257Y-1810D02*
Y-1944D01*
X391D01*
X385Y-1914D01*
X346Y-1855D01*
X287Y-1816D01*
X257Y-1810D01*
D02*
G37*
G36*
X177D02*
X147Y-1816D01*
X88Y-1855D01*
X49Y-1914D01*
X43Y-1944D01*
X177D01*
Y-1810D01*
D02*
G37*
G36*
X-176D02*
Y-1944D01*
X-42D01*
X-48Y-1914D01*
X-88Y-1855D01*
X-147Y-1816D01*
X-176Y-1810D01*
D02*
G37*
G36*
X3215Y-1940D02*
X3090D01*
Y-2065D01*
X3116Y-2060D01*
X3173Y-2023D01*
X3210Y-1966D01*
X3215Y-1940D01*
D02*
G37*
G36*
X-2777Y-1960D02*
Y-2093D01*
X-2643D01*
X-2649Y-2064D01*
X-2688Y-2005D01*
X-2747Y-1965D01*
X-2777Y-1960D01*
D02*
G37*
G36*
X-2857D02*
X-2887Y-1965D01*
X-2946Y-2005D01*
X-2985Y-2064D01*
X-2991Y-2093D01*
X-2857D01*
Y-1960D01*
D02*
G37*
G36*
X-3210D02*
Y-2093D01*
X-3076D01*
X-3082Y-2064D01*
X-3121Y-2005D01*
X-3180Y-1965D01*
X-3210Y-1960D01*
D02*
G37*
G36*
X3010Y-1940D02*
X2885D01*
X2890Y-1966D01*
X2927Y-2023D01*
X2984Y-2060D01*
X3010Y-2065D01*
Y-1940D01*
D02*
G37*
G36*
X-2344Y-1960D02*
Y-2093D01*
X-2210D01*
X-2216Y-2064D01*
X-2255Y-2005D01*
X-2314Y-1965D01*
X-2344Y-1960D01*
D02*
G37*
G36*
X-2424D02*
X-2453Y-1965D01*
X-2512Y-2005D01*
X-2552Y-2064D01*
X-2558Y-2093D01*
X-2424D01*
Y-1960D01*
D02*
G37*
G36*
X610Y-1810D02*
X580Y-1816D01*
X521Y-1855D01*
X482Y-1914D01*
X476Y-1944D01*
X610D01*
Y-1810D01*
D02*
G37*
G36*
X-3290Y-1740D02*
X-3424D01*
X-3418Y-1770D01*
X-3379Y-1829D01*
X-3320Y-1868D01*
X-3290Y-1874D01*
Y-1740D01*
D02*
G37*
G36*
X-3509D02*
X-3643D01*
Y-1874D01*
X-3613Y-1868D01*
X-3554Y-1829D01*
X-3515Y-1770D01*
X-3509Y-1740D01*
D02*
G37*
G36*
X-3723D02*
X-3857D01*
X-3851Y-1770D01*
X-3812Y-1829D01*
X-3753Y-1868D01*
X-3723Y-1874D01*
Y-1740D01*
D02*
G37*
G36*
X-2643D02*
X-2777D01*
Y-1874D01*
X-2747Y-1868D01*
X-2688Y-1829D01*
X-2649Y-1770D01*
X-2643Y-1740D01*
D02*
G37*
G36*
X-2857D02*
X-2991D01*
X-2985Y-1770D01*
X-2946Y-1829D01*
X-2887Y-1868D01*
X-2857Y-1874D01*
Y-1740D01*
D02*
G37*
G36*
X-3076D02*
X-3210D01*
Y-1874D01*
X-3180Y-1868D01*
X-3121Y-1829D01*
X-3082Y-1770D01*
X-3076Y-1740D01*
D02*
G37*
G36*
X-3942D02*
X-4076D01*
Y-1874D01*
X-4047Y-1868D01*
X-3988Y-1829D01*
X-3948Y-1770D01*
X-3942Y-1740D01*
D02*
G37*
G36*
X1123Y-1810D02*
Y-1944D01*
X1257D01*
X1251Y-1914D01*
X1212Y-1855D01*
X1153Y-1816D01*
X1123Y-1810D01*
D02*
G37*
G36*
X1043D02*
X1013Y-1816D01*
X954Y-1855D01*
X915Y-1914D01*
X909Y-1944D01*
X1043D01*
Y-1810D01*
D02*
G37*
G36*
X690D02*
Y-1944D01*
X824D01*
X818Y-1914D01*
X779Y-1855D01*
X720Y-1816D01*
X690Y-1810D01*
D02*
G37*
G36*
X-4156Y-1740D02*
X-4290D01*
X-4284Y-1770D01*
X-4245Y-1829D01*
X-4186Y-1868D01*
X-4156Y-1874D01*
Y-1740D01*
D02*
G37*
G36*
X1556Y-1810D02*
Y-1944D01*
X1690D01*
X1684Y-1914D01*
X1645Y-1855D01*
X1586Y-1816D01*
X1556Y-1810D01*
D02*
G37*
G36*
X1476D02*
X1447Y-1816D01*
X1388Y-1855D01*
X1348Y-1914D01*
X1342Y-1944D01*
X1476D01*
Y-1810D01*
D02*
G37*
G36*
X3510Y-2135D02*
X3484Y-2140D01*
X3427Y-2177D01*
X3390Y-2234D01*
X3385Y-2260D01*
X3510D01*
Y-2135D01*
D02*
G37*
G36*
X-2210Y-2173D02*
X-2344D01*
Y-2307D01*
X-2314Y-2302D01*
X-2255Y-2262D01*
X-2216Y-2203D01*
X-2210Y-2173D01*
D02*
G37*
G36*
X-2424D02*
X-2558D01*
X-2552Y-2203D01*
X-2512Y-2262D01*
X-2453Y-2302D01*
X-2424Y-2307D01*
Y-2173D01*
D02*
G37*
G36*
X-256Y-2024D02*
X-390D01*
X-384Y-2053D01*
X-345Y-2113D01*
X-286Y-2152D01*
X-256Y-2158D01*
Y-2024D01*
D02*
G37*
G36*
X-1050Y-1707D02*
X-1105Y-1718D01*
X-1151Y-1749D01*
X-1182Y-1795D01*
X-1193Y-1850D01*
X-1182Y-1905D01*
X-1151Y-1951D01*
X-1105Y-1982D01*
X-1117Y-2045D01*
X-1123Y-2049D01*
X-1154Y-2095D01*
X-1165Y-2150D01*
X-1154Y-2205D01*
Y-2205D01*
X-1192Y-2215D01*
X-1192Y-2215D01*
Y-2215D01*
X-1247Y-2226D01*
X-1293Y-2257D01*
X-1324Y-2303D01*
X-1335Y-2358D01*
X-1324Y-2412D01*
X-1293Y-2459D01*
X-1247Y-2490D01*
X-1192Y-2501D01*
X-1182Y-2554D01*
X-1182Y-2555D01*
X-1179Y-2569D01*
X-1207Y-2610D01*
X-1253Y-2620D01*
X-1299Y-2651D01*
X-1330Y-2697D01*
X-1341Y-2752D01*
X-1330Y-2806D01*
X-1299Y-2853D01*
X-1253Y-2883D01*
X-1198Y-2894D01*
X-1189Y-2940D01*
X-1191Y-2948D01*
X-1187Y-2968D01*
X-1223Y-3004D01*
X-1228Y-3003D01*
X-1282Y-3013D01*
X-1329Y-3044D01*
X-1359Y-3091D01*
X-1370Y-3145D01*
X-1359Y-3200D01*
X-1329Y-3246D01*
X-1282Y-3277D01*
X-1228Y-3288D01*
X-1223Y-3287D01*
X-1187Y-3322D01*
X-1193Y-3350D01*
X-1191Y-3356D01*
X-1219Y-3398D01*
X-1266Y-3407D01*
X-1312Y-3438D01*
X-1343Y-3484D01*
X-1354Y-3539D01*
X-1343Y-3594D01*
X-1312Y-3640D01*
X-1266Y-3671D01*
X-1211Y-3682D01*
X-1210Y-3682D01*
X-1175Y-3717D01*
X-1179Y-3736D01*
X-1168Y-3790D01*
X-1137Y-3837D01*
X-1090Y-3868D01*
X-1036Y-3879D01*
X-981Y-3868D01*
X-935Y-3837D01*
X-904Y-3790D01*
X-893Y-3736D01*
X-904Y-3681D01*
X-935Y-3635D01*
X-981Y-3604D01*
X-1036Y-3593D01*
X-1037Y-3593D01*
X-1072Y-3558D01*
X-1068Y-3539D01*
X-1070Y-3533D01*
X-1042Y-3491D01*
X-995Y-3482D01*
X-949Y-3451D01*
X-918Y-3405D01*
X-907Y-3350D01*
X-918Y-3295D01*
X-949Y-3249D01*
X-995Y-3218D01*
X-1050Y-3207D01*
X-1055Y-3208D01*
X-1090Y-3173D01*
X-1085Y-3145D01*
X-1089Y-3126D01*
X-1053Y-3090D01*
X-1048Y-3091D01*
X-994Y-3080D01*
X-947Y-3049D01*
X-917Y-3003D01*
X-906Y-2948D01*
X-917Y-2894D01*
X-947Y-2847D01*
X-994Y-2817D01*
X-1048Y-2806D01*
X-1057Y-2760D01*
X-1056Y-2752D01*
X-1059Y-2737D01*
X-1031Y-2696D01*
X-984Y-2687D01*
X-938Y-2656D01*
X-907Y-2609D01*
X-896Y-2555D01*
X-907Y-2500D01*
X-938Y-2454D01*
X-984Y-2423D01*
X-1039Y-2412D01*
X-1050Y-2359D01*
X-1049Y-2358D01*
X-1060Y-2303D01*
X-1022Y-2293D01*
X-1022Y-2293D01*
Y-2293D01*
X-967Y-2282D01*
X-921Y-2251D01*
X-890Y-2205D01*
X-879Y-2150D01*
X-890Y-2095D01*
X-921Y-2049D01*
X-967Y-2018D01*
X-955Y-1955D01*
X-949Y-1951D01*
X-918Y-1905D01*
X-907Y-1850D01*
X-918Y-1795D01*
X-949Y-1749D01*
X-995Y-1718D01*
X-1050Y-1707D01*
D02*
G37*
G36*
X3590Y-2135D02*
Y-2260D01*
X3715D01*
X3710Y-2234D01*
X3673Y-2177D01*
X3616Y-2140D01*
X3590Y-2135D01*
D02*
G37*
G36*
X-2643Y-2173D02*
X-2777D01*
Y-2307D01*
X-2747Y-2302D01*
X-2688Y-2262D01*
X-2649Y-2203D01*
X-2643Y-2173D01*
D02*
G37*
G36*
X-3509D02*
X-3643D01*
Y-2307D01*
X-3613Y-2302D01*
X-3554Y-2262D01*
X-3515Y-2203D01*
X-3509Y-2173D01*
D02*
G37*
G36*
X-3723D02*
X-3857D01*
X-3851Y-2203D01*
X-3812Y-2262D01*
X-3753Y-2302D01*
X-3723Y-2307D01*
Y-2173D01*
D02*
G37*
G36*
X-3942D02*
X-4076D01*
Y-2307D01*
X-4047Y-2302D01*
X-3988Y-2262D01*
X-3948Y-2203D01*
X-3942Y-2173D01*
D02*
G37*
G36*
X-2857D02*
X-2991D01*
X-2985Y-2203D01*
X-2946Y-2262D01*
X-2887Y-2302D01*
X-2857Y-2307D01*
Y-2173D01*
D02*
G37*
G36*
X-3076D02*
X-3210D01*
Y-2307D01*
X-3180Y-2302D01*
X-3121Y-2262D01*
X-3082Y-2203D01*
X-3076Y-2173D01*
D02*
G37*
G36*
X-3290D02*
X-3424D01*
X-3418Y-2203D01*
X-3379Y-2262D01*
X-3320Y-2302D01*
X-3290Y-2307D01*
Y-2173D01*
D02*
G37*
G36*
X-42Y-2024D02*
X-176D01*
Y-2158D01*
X-147Y-2152D01*
X-88Y-2113D01*
X-48Y-2053D01*
X-42Y-2024D01*
D02*
G37*
G36*
X-4076Y-1960D02*
Y-2093D01*
X-3942D01*
X-3948Y-2064D01*
X-3988Y-2005D01*
X-4047Y-1965D01*
X-4076Y-1960D01*
D02*
G37*
G36*
X-4156D02*
X-4186Y-1965D01*
X-4245Y-2005D01*
X-4284Y-2064D01*
X-4290Y-2093D01*
X-4156D01*
Y-1960D01*
D02*
G37*
G36*
X1690Y-2024D02*
X1556D01*
Y-2158D01*
X1586Y-2152D01*
X1645Y-2113D01*
X1684Y-2053D01*
X1690Y-2024D01*
D02*
G37*
G36*
X-3290Y-1960D02*
X-3320Y-1965D01*
X-3379Y-2005D01*
X-3418Y-2064D01*
X-3424Y-2093D01*
X-3290D01*
Y-1960D01*
D02*
G37*
G36*
X-3643D02*
Y-2093D01*
X-3509D01*
X-3515Y-2064D01*
X-3554Y-2005D01*
X-3613Y-1965D01*
X-3643Y-1960D01*
D02*
G37*
G36*
X-3723D02*
X-3753Y-1965D01*
X-3812Y-2005D01*
X-3851Y-2064D01*
X-3857Y-2093D01*
X-3723D01*
Y-1960D01*
D02*
G37*
G36*
X1476Y-2024D02*
X1342D01*
X1348Y-2053D01*
X1388Y-2113D01*
X1447Y-2152D01*
X1476Y-2158D01*
Y-2024D01*
D02*
G37*
G36*
X610D02*
X476D01*
X482Y-2053D01*
X521Y-2113D01*
X580Y-2152D01*
X610Y-2158D01*
Y-2024D01*
D02*
G37*
G36*
X391D02*
X257D01*
Y-2158D01*
X287Y-2152D01*
X346Y-2113D01*
X385Y-2053D01*
X391Y-2024D01*
D02*
G37*
G36*
X177D02*
X43D01*
X49Y-2053D01*
X88Y-2113D01*
X147Y-2152D01*
X177Y-2158D01*
Y-2024D01*
D02*
G37*
G36*
X1257D02*
X1123D01*
Y-2158D01*
X1153Y-2152D01*
X1212Y-2113D01*
X1251Y-2053D01*
X1257Y-2024D01*
D02*
G37*
G36*
X1043D02*
X909D01*
X915Y-2053D01*
X954Y-2113D01*
X1013Y-2152D01*
X1043Y-2158D01*
Y-2024D01*
D02*
G37*
G36*
X824D02*
X690D01*
Y-2158D01*
X720Y-2152D01*
X779Y-2113D01*
X818Y-2053D01*
X824Y-2024D01*
D02*
G37*
G36*
X177Y-2676D02*
X147Y-2682D01*
X88Y-2721D01*
X49Y-2780D01*
X43Y-2810D01*
X177D01*
Y-2676D01*
D02*
G37*
G36*
X1476Y-3756D02*
X1342D01*
X1348Y-3786D01*
X1388Y-3845D01*
X1447Y-3884D01*
X1476Y-3890D01*
Y-3756D01*
D02*
G37*
G36*
X1257D02*
X1123D01*
Y-3890D01*
X1153Y-3884D01*
X1212Y-3845D01*
X1251Y-3786D01*
X1257Y-3756D01*
D02*
G37*
G36*
X1043D02*
X909D01*
X915Y-3786D01*
X954Y-3845D01*
X1013Y-3884D01*
X1043Y-3890D01*
Y-3756D01*
D02*
G37*
G36*
X-256Y-3542D02*
X-286Y-3548D01*
X-345Y-3587D01*
X-384Y-3647D01*
X-390Y-3676D01*
X-256D01*
Y-3542D01*
D02*
G37*
G36*
X2565Y-3440D02*
X2235D01*
X2240Y-3466D01*
X2277Y-3523D01*
X2318Y-3550D01*
X2308Y-3599D01*
X2281Y-3604D01*
X2235Y-3635D01*
X2204Y-3681D01*
X2193Y-3736D01*
X2204Y-3790D01*
X2235Y-3837D01*
X2281Y-3868D01*
X2336Y-3879D01*
X2390Y-3868D01*
X2437Y-3837D01*
X2468Y-3790D01*
X2479Y-3736D01*
X2468Y-3681D01*
X2437Y-3635D01*
X2412Y-3618D01*
X2421Y-3569D01*
X2466Y-3560D01*
X2523Y-3523D01*
X2560Y-3466D01*
X2565Y-3440D01*
D02*
G37*
G36*
X1690Y-3756D02*
X1556D01*
Y-3890D01*
X1586Y-3884D01*
X1645Y-3845D01*
X1684Y-3786D01*
X1690Y-3756D01*
D02*
G37*
G36*
X824D02*
X690D01*
Y-3890D01*
X720Y-3884D01*
X779Y-3845D01*
X818Y-3786D01*
X824Y-3756D01*
D02*
G37*
G36*
X-42D02*
X-176D01*
Y-3890D01*
X-147Y-3884D01*
X-88Y-3845D01*
X-48Y-3786D01*
X-42Y-3756D01*
D02*
G37*
G36*
X-256D02*
X-390D01*
X-384Y-3786D01*
X-345Y-3845D01*
X-286Y-3884D01*
X-256Y-3890D01*
Y-3756D01*
D02*
G37*
G36*
X-3500Y-3907D02*
X-3555Y-3918D01*
X-3601Y-3949D01*
X-3632Y-3995D01*
X-3643Y-4050D01*
X-3632Y-4105D01*
X-3601Y-4151D01*
X-3555Y-4182D01*
X-3500Y-4193D01*
X-3445Y-4182D01*
X-3399Y-4151D01*
X-3368Y-4105D01*
X-3357Y-4050D01*
X-3368Y-3995D01*
X-3399Y-3949D01*
X-3445Y-3918D01*
X-3500Y-3907D01*
D02*
G37*
G36*
X610Y-3756D02*
X476D01*
X482Y-3786D01*
X521Y-3845D01*
X580Y-3884D01*
X610Y-3890D01*
Y-3756D01*
D02*
G37*
G36*
X391D02*
X257D01*
Y-3890D01*
X287Y-3884D01*
X346Y-3845D01*
X385Y-3786D01*
X391Y-3756D01*
D02*
G37*
G36*
X177D02*
X43D01*
X49Y-3786D01*
X88Y-3845D01*
X147Y-3884D01*
X177Y-3890D01*
Y-3756D01*
D02*
G37*
G36*
X-176Y-3542D02*
Y-3676D01*
X-42D01*
X-48Y-3647D01*
X-88Y-3587D01*
X-147Y-3548D01*
X-176Y-3542D01*
D02*
G37*
G36*
X-256Y-3323D02*
X-390D01*
X-384Y-3353D01*
X-345Y-3412D01*
X-286Y-3451D01*
X-256Y-3457D01*
Y-3323D01*
D02*
G37*
G36*
X-1700Y-3207D02*
X-1755Y-3218D01*
X-1801Y-3249D01*
X-1832Y-3295D01*
X-1843Y-3350D01*
X-1832Y-3405D01*
X-1801Y-3451D01*
X-1755Y-3482D01*
X-1700Y-3493D01*
X-1645Y-3482D01*
X-1599Y-3451D01*
X-1568Y-3405D01*
X-1557Y-3350D01*
X-1568Y-3295D01*
X-1599Y-3249D01*
X-1645Y-3218D01*
X-1700Y-3207D01*
D02*
G37*
G36*
X1556Y-3542D02*
Y-3676D01*
X1690D01*
X1684Y-3647D01*
X1645Y-3587D01*
X1586Y-3548D01*
X1556Y-3542D01*
D02*
G37*
G36*
X391Y-3323D02*
X257D01*
Y-3457D01*
X287Y-3451D01*
X346Y-3412D01*
X385Y-3353D01*
X391Y-3323D01*
D02*
G37*
G36*
X177D02*
X43D01*
X49Y-3353D01*
X88Y-3412D01*
X147Y-3451D01*
X177Y-3457D01*
Y-3323D01*
D02*
G37*
G36*
X-42D02*
X-176D01*
Y-3457D01*
X-147Y-3451D01*
X-88Y-3412D01*
X-48Y-3353D01*
X-42Y-3323D01*
D02*
G37*
G36*
X1476Y-3542D02*
X1447Y-3548D01*
X1388Y-3587D01*
X1348Y-3647D01*
X1342Y-3676D01*
X1476D01*
Y-3542D01*
D02*
G37*
G36*
X610D02*
X580Y-3548D01*
X521Y-3587D01*
X482Y-3647D01*
X476Y-3676D01*
X610D01*
Y-3542D01*
D02*
G37*
G36*
X257D02*
Y-3676D01*
X391D01*
X385Y-3647D01*
X346Y-3587D01*
X287Y-3548D01*
X257Y-3542D01*
D02*
G37*
G36*
X177D02*
X147Y-3548D01*
X88Y-3587D01*
X49Y-3647D01*
X43Y-3676D01*
X177D01*
Y-3542D01*
D02*
G37*
G36*
X1123D02*
Y-3676D01*
X1257D01*
X1251Y-3647D01*
X1212Y-3587D01*
X1153Y-3548D01*
X1123Y-3542D01*
D02*
G37*
G36*
X1043D02*
X1013Y-3548D01*
X954Y-3587D01*
X915Y-3647D01*
X909Y-3676D01*
X1043D01*
Y-3542D01*
D02*
G37*
G36*
X690D02*
Y-3676D01*
X824D01*
X818Y-3647D01*
X779Y-3587D01*
X720Y-3548D01*
X690Y-3542D01*
D02*
G37*
G36*
X-1663Y-4912D02*
X-1689Y-4917D01*
X-1745Y-4955D01*
X-1783Y-5011D01*
X-1788Y-5037D01*
X-1663D01*
Y-4912D01*
D02*
G37*
G36*
X63Y-5012D02*
Y-5137D01*
X188D01*
X183Y-5111D01*
X145Y-5055D01*
X89Y-5017D01*
X63Y-5012D01*
D02*
G37*
G36*
X-17D02*
X-44Y-5017D01*
X-100Y-5055D01*
X-137Y-5111D01*
X-143Y-5137D01*
X-17D01*
Y-5012D01*
D02*
G37*
G36*
X2233Y-4567D02*
X2107D01*
X2113Y-4593D01*
X2150Y-4650D01*
X2207Y-4687D01*
X2233Y-4693D01*
Y-4567D01*
D02*
G37*
G36*
X-1623Y-4580D02*
X-1677Y-4591D01*
X-1724Y-4622D01*
X-1755Y-4668D01*
X-1766Y-4723D01*
X-1755Y-4777D01*
X-1724Y-4824D01*
X-1677Y-4855D01*
X-1652Y-4860D01*
Y-4871D01*
X-1593D01*
Y-4860D01*
X-1568Y-4855D01*
X-1522Y-4824D01*
X-1491Y-4777D01*
X-1480Y-4723D01*
X-1491Y-4668D01*
X-1522Y-4622D01*
X-1568Y-4591D01*
X-1623Y-4580D01*
D02*
G37*
G36*
X-1583Y-4912D02*
Y-5037D01*
X-1457D01*
X-1463Y-5011D01*
X-1500Y-4955D01*
X-1557Y-4917D01*
X-1583Y-4912D01*
D02*
G37*
G36*
X1940Y-5085D02*
Y-5210D01*
X2065D01*
X2060Y-5184D01*
X2023Y-5127D01*
X1966Y-5090D01*
X1940Y-5085D01*
D02*
G37*
G36*
X-250Y-5207D02*
X-305Y-5218D01*
X-351Y-5249D01*
X-382Y-5295D01*
X-393Y-5350D01*
X-382Y-5405D01*
X-351Y-5451D01*
X-305Y-5482D01*
X-250Y-5493D01*
X-195Y-5482D01*
X-149Y-5451D01*
X-118Y-5405D01*
X-107Y-5350D01*
X-43Y-5337D01*
X-17Y-5343D01*
Y-5217D01*
X-180D01*
X-189Y-5223D01*
X-195Y-5218D01*
X-250Y-5207D01*
D02*
G37*
G36*
X-985Y-5390D02*
X-1110D01*
Y-5515D01*
X-1084Y-5510D01*
X-1027Y-5473D01*
X-990Y-5416D01*
X-985Y-5390D01*
D02*
G37*
G36*
X-1457Y-5117D02*
X-1788D01*
X-1783Y-5143D01*
X-1745Y-5200D01*
X-1689Y-5237D01*
X-1667Y-5242D01*
X-1639Y-5283D01*
X-1643Y-5300D01*
X-1632Y-5355D01*
X-1601Y-5401D01*
X-1555Y-5432D01*
X-1500Y-5443D01*
X-1445Y-5432D01*
X-1399Y-5401D01*
X-1369Y-5356D01*
X-1320Y-5366D01*
X-1310Y-5416D01*
X-1273Y-5473D01*
X-1216Y-5510D01*
X-1190Y-5515D01*
Y-5350D01*
Y-5185D01*
X-1216Y-5190D01*
X-1273Y-5227D01*
X-1310Y-5284D01*
X-1310Y-5285D01*
X-1360D01*
X-1368Y-5245D01*
X-1399Y-5199D01*
X-1445Y-5168D01*
X-1453Y-5167D01*
X-1463Y-5143D01*
X-1457Y-5117D01*
D02*
G37*
G36*
X1860Y-5085D02*
X1834Y-5090D01*
X1777Y-5127D01*
X1740Y-5184D01*
X1735Y-5210D01*
X1860D01*
Y-5085D01*
D02*
G37*
G36*
X-1110Y-5185D02*
Y-5310D01*
X-985D01*
X-990Y-5284D01*
X-1027Y-5227D01*
X-1084Y-5190D01*
X-1110Y-5185D01*
D02*
G37*
G36*
X188Y-5217D02*
X63D01*
Y-5343D01*
X89Y-5337D01*
X145Y-5300D01*
X183Y-5243D01*
X188Y-5217D01*
D02*
G37*
G36*
X2438Y-4567D02*
X2313D01*
Y-4693D01*
X2339Y-4687D01*
X2395Y-4650D01*
X2433Y-4593D01*
X2438Y-4567D01*
D02*
G37*
G36*
X-1690Y-4185D02*
X-1716Y-4190D01*
X-1773Y-4227D01*
X-1810Y-4284D01*
X-1815Y-4310D01*
X-1690D01*
Y-4185D01*
D02*
G37*
G36*
X-628Y-4085D02*
X-683Y-4096D01*
X-729Y-4127D01*
X-760Y-4173D01*
X-771Y-4228D01*
X-760Y-4283D01*
X-729Y-4329D01*
X-683Y-4360D01*
X-628Y-4371D01*
X-573Y-4360D01*
X-527Y-4329D01*
X-496Y-4283D01*
X-485Y-4228D01*
X-496Y-4173D01*
X-527Y-4127D01*
X-573Y-4096D01*
X-628Y-4085D01*
D02*
G37*
G36*
X-2500Y-4107D02*
X-2555Y-4118D01*
X-2601Y-4149D01*
X-2632Y-4195D01*
X-2643Y-4250D01*
X-2632Y-4305D01*
X-2601Y-4351D01*
X-2555Y-4382D01*
X-2500Y-4393D01*
X-2445Y-4382D01*
X-2399Y-4351D01*
X-2368Y-4305D01*
X-2357Y-4250D01*
X-2368Y-4195D01*
X-2399Y-4149D01*
X-2445Y-4118D01*
X-2500Y-4107D01*
D02*
G37*
G36*
X-1083Y-4112D02*
Y-4237D01*
X-957D01*
X-963Y-4211D01*
X-1000Y-4155D01*
X-1057Y-4117D01*
X-1083Y-4112D01*
D02*
G37*
G36*
X-1163D02*
X-1189Y-4117D01*
X-1245Y-4155D01*
X-1283Y-4211D01*
X-1288Y-4237D01*
X-1163D01*
Y-4112D01*
D02*
G37*
G36*
X-1610Y-4185D02*
Y-4310D01*
X-1485D01*
X-1490Y-4284D01*
X-1527Y-4227D01*
X-1584Y-4190D01*
X-1610Y-4185D01*
D02*
G37*
G36*
X-957Y-4317D02*
X-1083D01*
Y-4443D01*
X-1057Y-4437D01*
X-1000Y-4400D01*
X-963Y-4344D01*
X-957Y-4317D01*
D02*
G37*
G36*
X2233Y-4362D02*
X2207Y-4367D01*
X2150Y-4405D01*
X2113Y-4461D01*
X2107Y-4487D01*
X2233D01*
Y-4362D01*
D02*
G37*
G36*
X-1485Y-4390D02*
X-1610D01*
Y-4515D01*
X-1584Y-4510D01*
X-1527Y-4473D01*
X-1490Y-4416D01*
X-1485Y-4390D01*
D02*
G37*
G36*
X-1690D02*
X-1815D01*
X-1810Y-4416D01*
X-1773Y-4473D01*
X-1716Y-4510D01*
X-1690Y-4515D01*
Y-4390D01*
D02*
G37*
G36*
X-1163Y-4317D02*
X-1288D01*
X-1283Y-4344D01*
X-1245Y-4400D01*
X-1189Y-4437D01*
X-1163Y-4443D01*
Y-4317D01*
D02*
G37*
G36*
X850Y-4398D02*
X795Y-4409D01*
X749Y-4440D01*
X726Y-4475D01*
X676D01*
X653Y-4440D01*
X606Y-4409D01*
X552Y-4398D01*
X497Y-4409D01*
X451Y-4440D01*
X423Y-4482D01*
X397D01*
X369Y-4476D01*
X351Y-4449D01*
X305Y-4418D01*
X250Y-4407D01*
X195Y-4418D01*
X149Y-4449D01*
X118Y-4495D01*
X107Y-4550D01*
X118Y-4605D01*
X149Y-4651D01*
X195Y-4682D01*
X250Y-4693D01*
X305Y-4682D01*
X351Y-4651D01*
X379Y-4609D01*
X404D01*
X433Y-4615D01*
X451Y-4642D01*
X497Y-4673D01*
X552Y-4683D01*
X606Y-4673D01*
X653Y-4642D01*
X676Y-4607D01*
X726D01*
X749Y-4642D01*
X795Y-4673D01*
X850Y-4683D01*
X905Y-4673D01*
X951Y-4642D01*
X982Y-4595D01*
X993Y-4541D01*
X982Y-4486D01*
X951Y-4440D01*
X905Y-4409D01*
X850Y-4398D01*
D02*
G37*
G36*
X2313Y-4362D02*
Y-4487D01*
X2438D01*
X2433Y-4461D01*
X2395Y-4405D01*
X2339Y-4367D01*
X2313Y-4362D01*
D02*
G37*
G36*
X610Y-3323D02*
X476D01*
X482Y-3353D01*
X521Y-3412D01*
X580Y-3451D01*
X610Y-3457D01*
Y-3323D01*
D02*
G37*
G36*
X1690Y-2890D02*
X1556D01*
Y-3024D01*
X1586Y-3018D01*
X1645Y-2979D01*
X1684Y-2920D01*
X1690Y-2890D01*
D02*
G37*
G36*
X1476D02*
X1342D01*
X1348Y-2920D01*
X1388Y-2979D01*
X1447Y-3018D01*
X1476Y-3024D01*
Y-2890D01*
D02*
G37*
G36*
X1257D02*
X1123D01*
Y-3024D01*
X1153Y-3018D01*
X1212Y-2979D01*
X1251Y-2920D01*
X1257Y-2890D01*
D02*
G37*
G36*
X-4156Y-2826D02*
X-4186Y-2832D01*
X-4245Y-2871D01*
X-4284Y-2930D01*
X-4290Y-2960D01*
X-4156D01*
Y-2826D01*
D02*
G37*
G36*
X-4635Y-2890D02*
X-4760D01*
Y-3015D01*
X-4734Y-3010D01*
X-4677Y-2973D01*
X-4640Y-2916D01*
X-4635Y-2890D01*
D02*
G37*
G36*
X-5900Y34D02*
X-5970Y20D01*
X-6030Y-20D01*
X-6070Y-80D01*
X-6084Y-150D01*
X-6070Y-220D01*
X-6030Y-280D01*
X-5995Y-303D01*
X-5988Y-467D01*
X-5933Y-932D01*
X-5842Y-1391D01*
X-5715Y-1841D01*
X-5553Y-2279D01*
X-5357Y-2704D01*
X-5129Y-3112D01*
X-4869Y-3501D01*
X-4579Y-3868D01*
X-4262Y-4212D01*
X-3918Y-4529D01*
X-3551Y-4819D01*
X-3162Y-5079D01*
X-2754Y-5307D01*
X-2329Y-5503D01*
X-1891Y-5665D01*
X-1441Y-5792D01*
X-982Y-5883D01*
X-517Y-5938D01*
X-50Y-5957D01*
X417Y-5938D01*
X882Y-5883D01*
X1341Y-5792D01*
X1791Y-5665D01*
X2229Y-5503D01*
X2341Y-5451D01*
X2400Y-5463D01*
X2462Y-5451D01*
X2515Y-5415D01*
X2551Y-5362D01*
X2563Y-5300D01*
X2551Y-5238D01*
X2515Y-5185D01*
X2462Y-5149D01*
X2400Y-5137D01*
X2338Y-5149D01*
X2285Y-5185D01*
X2249Y-5238D01*
X2243Y-5271D01*
X2151Y-5314D01*
X2102Y-5332D01*
X2064Y-5299D01*
X2065Y-5290D01*
X1735D01*
X1740Y-5316D01*
X1777Y-5373D01*
X1808Y-5393D01*
X1802Y-5442D01*
X1727Y-5470D01*
X1521Y-5528D01*
X1484Y-5494D01*
X1493Y-5450D01*
X1482Y-5395D01*
X1451Y-5349D01*
X1405Y-5318D01*
X1350Y-5307D01*
X1295Y-5318D01*
X1249Y-5349D01*
X1218Y-5395D01*
X1207Y-5450D01*
X1218Y-5505D01*
X1249Y-5551D01*
X1253Y-5553D01*
X1243Y-5602D01*
X850Y-5681D01*
X401Y-5734D01*
X323Y-5737D01*
X299Y-5693D01*
X309Y-5677D01*
X320Y-5623D01*
X309Y-5568D01*
X278Y-5522D01*
X232Y-5491D01*
X177Y-5480D01*
X123Y-5491D01*
X76Y-5522D01*
X45Y-5568D01*
X34Y-5623D01*
X45Y-5677D01*
X63Y-5703D01*
X40Y-5748D01*
X-50Y-5751D01*
X-501Y-5734D01*
X-950Y-5681D01*
X-1393Y-5592D01*
X-1827Y-5470D01*
X-2251Y-5314D01*
X-2661Y-5124D01*
X-2992Y-4939D01*
X-2984Y-4890D01*
X-2945Y-4882D01*
X-2899Y-4851D01*
X-2868Y-4805D01*
X-2857Y-4750D01*
X-2868Y-4695D01*
X-2899Y-4649D01*
X-2945Y-4618D01*
X-2937Y-4575D01*
X-2923Y-4555D01*
X-2912Y-4500D01*
X-2918Y-4472D01*
X-2882Y-4436D01*
X-2850Y-4443D01*
X-2795Y-4432D01*
X-2749Y-4401D01*
X-2718Y-4355D01*
X-2707Y-4300D01*
X-2718Y-4245D01*
X-2749Y-4199D01*
X-2795Y-4168D01*
X-2850Y-4157D01*
X-2905Y-4168D01*
X-2951Y-4199D01*
X-2982Y-4245D01*
X-2993Y-4300D01*
X-2987Y-4328D01*
X-3022Y-4364D01*
X-3055Y-4357D01*
X-3109Y-4368D01*
X-3156Y-4399D01*
X-3187Y-4445D01*
X-3198Y-4500D01*
X-3187Y-4555D01*
X-3156Y-4601D01*
X-3109Y-4632D01*
X-3118Y-4675D01*
X-3132Y-4695D01*
X-3143Y-4750D01*
X-3134Y-4796D01*
X-3175Y-4824D01*
X-3431Y-4653D01*
X-3785Y-4373D01*
X-4117Y-4067D01*
X-4423Y-3735D01*
X-4703Y-3381D01*
X-4947Y-3015D01*
X-4916Y-2984D01*
X-4910Y-2981D01*
X-4866Y-3010D01*
X-4840Y-3015D01*
Y-2890D01*
X-4995D01*
X-5014Y-2897D01*
X-5174Y-2611D01*
X-5364Y-2201D01*
X-5520Y-1777D01*
X-5642Y-1343D01*
X-5731Y-900D01*
X-5784Y-451D01*
X-5790Y-293D01*
X-5770Y-280D01*
X-5730Y-220D01*
X-5716Y-150D01*
X-5730Y-80D01*
X-5770Y-20D01*
X-5830Y20D01*
X-5900Y34D01*
D02*
G37*
G36*
X1043Y-2890D02*
X909D01*
X915Y-2920D01*
X954Y-2979D01*
X1013Y-3018D01*
X1043Y-3024D01*
Y-2890D01*
D02*
G37*
G36*
X177D02*
X43D01*
X49Y-2920D01*
X88Y-2979D01*
X147Y-3018D01*
X177Y-3024D01*
Y-2890D01*
D02*
G37*
G36*
X-42D02*
X-176D01*
Y-3024D01*
X-147Y-3018D01*
X-88Y-2979D01*
X-48Y-2920D01*
X-42Y-2890D01*
D02*
G37*
G36*
X-256D02*
X-390D01*
X-384Y-2920D01*
X-345Y-2979D01*
X-286Y-3018D01*
X-256Y-3024D01*
Y-2890D01*
D02*
G37*
G36*
X824D02*
X690D01*
Y-3024D01*
X720Y-3018D01*
X779Y-2979D01*
X818Y-2920D01*
X824Y-2890D01*
D02*
G37*
G36*
X610D02*
X476D01*
X482Y-2920D01*
X521Y-2979D01*
X580Y-3018D01*
X610Y-3024D01*
Y-2890D01*
D02*
G37*
G36*
X391D02*
X257D01*
Y-3024D01*
X287Y-3018D01*
X346Y-2979D01*
X385Y-2920D01*
X391Y-2890D01*
D02*
G37*
G36*
X-4076Y-2826D02*
Y-2960D01*
X-3942D01*
X-3948Y-2930D01*
X-3988Y-2871D01*
X-4047Y-2832D01*
X-4076Y-2826D01*
D02*
G37*
G36*
X-4840Y-2685D02*
X-4866Y-2690D01*
X-4923Y-2727D01*
X-4960Y-2784D01*
X-4965Y-2810D01*
X-4840D01*
Y-2685D01*
D02*
G37*
G36*
X2348Y-2609D02*
X2294Y-2620D01*
X2247Y-2651D01*
X2217Y-2697D01*
X2206Y-2752D01*
X2217Y-2806D01*
X2247Y-2853D01*
X2294Y-2883D01*
X2348Y-2894D01*
X2403Y-2883D01*
X2449Y-2853D01*
X2480Y-2806D01*
X2491Y-2752D01*
X2480Y-2697D01*
X2449Y-2651D01*
X2403Y-2620D01*
X2348Y-2609D01*
D02*
G37*
G36*
X-2344Y-2826D02*
Y-2960D01*
X-2210D01*
X-2216Y-2930D01*
X-2255Y-2871D01*
X-2314Y-2832D01*
X-2344Y-2826D01*
D02*
G37*
G36*
X-176Y-2676D02*
Y-2810D01*
X-42D01*
X-48Y-2780D01*
X-88Y-2721D01*
X-147Y-2682D01*
X-176Y-2676D01*
D02*
G37*
G36*
X-256D02*
X-286Y-2682D01*
X-345Y-2721D01*
X-384Y-2780D01*
X-390Y-2810D01*
X-256D01*
Y-2676D01*
D02*
G37*
G36*
X-4760Y-2685D02*
Y-2810D01*
X-4635D01*
X-4640Y-2784D01*
X-4677Y-2727D01*
X-4734Y-2690D01*
X-4760Y-2685D01*
D02*
G37*
G36*
X-2424Y-2826D02*
X-2453Y-2832D01*
X-2512Y-2871D01*
X-2552Y-2930D01*
X-2558Y-2960D01*
X-2424D01*
Y-2826D01*
D02*
G37*
G36*
X-3290D02*
X-3320Y-2832D01*
X-3379Y-2871D01*
X-3418Y-2930D01*
X-3424Y-2960D01*
X-3290D01*
Y-2826D01*
D02*
G37*
G36*
X-3643D02*
Y-2960D01*
X-3509D01*
X-3515Y-2930D01*
X-3554Y-2871D01*
X-3613Y-2832D01*
X-3643Y-2826D01*
D02*
G37*
G36*
X-3723D02*
X-3753Y-2832D01*
X-3812Y-2871D01*
X-3851Y-2930D01*
X-3857Y-2960D01*
X-3723D01*
Y-2826D01*
D02*
G37*
G36*
X-2777D02*
Y-2960D01*
X-2643D01*
X-2649Y-2930D01*
X-2688Y-2871D01*
X-2747Y-2832D01*
X-2777Y-2826D01*
D02*
G37*
G36*
X-2857D02*
X-2887Y-2832D01*
X-2946Y-2871D01*
X-2985Y-2930D01*
X-2991Y-2960D01*
X-2857D01*
Y-2826D01*
D02*
G37*
G36*
X-3210D02*
Y-2960D01*
X-3076D01*
X-3082Y-2930D01*
X-3121Y-2871D01*
X-3180Y-2832D01*
X-3210Y-2826D01*
D02*
G37*
G36*
X177Y-3109D02*
X147Y-3115D01*
X88Y-3154D01*
X49Y-3213D01*
X43Y-3243D01*
X177D01*
Y-3109D01*
D02*
G37*
G36*
X-176D02*
Y-3243D01*
X-42D01*
X-48Y-3213D01*
X-88Y-3154D01*
X-147Y-3115D01*
X-176Y-3109D01*
D02*
G37*
G36*
X-256D02*
X-286Y-3115D01*
X-345Y-3154D01*
X-384Y-3213D01*
X-390Y-3243D01*
X-256D01*
Y-3109D01*
D02*
G37*
G36*
X690D02*
Y-3243D01*
X824D01*
X818Y-3213D01*
X779Y-3154D01*
X720Y-3115D01*
X690Y-3109D01*
D02*
G37*
G36*
X610D02*
X580Y-3115D01*
X521Y-3154D01*
X482Y-3213D01*
X476Y-3243D01*
X610D01*
Y-3109D01*
D02*
G37*
G36*
X257D02*
Y-3243D01*
X391D01*
X385Y-3213D01*
X346Y-3154D01*
X287Y-3115D01*
X257Y-3109D01*
D02*
G37*
G36*
X2440Y-3235D02*
Y-3360D01*
X2565D01*
X2560Y-3334D01*
X2523Y-3277D01*
X2466Y-3240D01*
X2440Y-3235D01*
D02*
G37*
G36*
X1257Y-3323D02*
X1123D01*
Y-3457D01*
X1153Y-3451D01*
X1212Y-3412D01*
X1251Y-3353D01*
X1257Y-3323D01*
D02*
G37*
G36*
X1043D02*
X909D01*
X915Y-3353D01*
X954Y-3412D01*
X1013Y-3451D01*
X1043Y-3457D01*
Y-3323D01*
D02*
G37*
G36*
X824D02*
X690D01*
Y-3457D01*
X720Y-3451D01*
X779Y-3412D01*
X818Y-3353D01*
X824Y-3323D01*
D02*
G37*
G36*
X2360Y-3235D02*
X2334Y-3240D01*
X2277Y-3277D01*
X2240Y-3334D01*
X2235Y-3360D01*
X2360D01*
Y-3235D01*
D02*
G37*
G36*
X1690Y-3323D02*
X1556D01*
Y-3457D01*
X1586Y-3451D01*
X1645Y-3412D01*
X1684Y-3353D01*
X1690Y-3323D01*
D02*
G37*
G36*
X1476D02*
X1342D01*
X1348Y-3353D01*
X1388Y-3412D01*
X1447Y-3451D01*
X1476Y-3457D01*
Y-3323D01*
D02*
G37*
G36*
X1043Y-3109D02*
X1013Y-3115D01*
X954Y-3154D01*
X915Y-3213D01*
X909Y-3243D01*
X1043D01*
Y-3109D01*
D02*
G37*
G36*
X-2857Y-3040D02*
X-2991D01*
X-2985Y-3069D01*
X-2946Y-3128D01*
X-2887Y-3168D01*
X-2857Y-3174D01*
Y-3040D01*
D02*
G37*
G36*
X-3076D02*
X-3210D01*
Y-3174D01*
X-3180Y-3168D01*
X-3121Y-3128D01*
X-3082Y-3069D01*
X-3076Y-3040D01*
D02*
G37*
G36*
X-3290D02*
X-3424D01*
X-3418Y-3069D01*
X-3379Y-3128D01*
X-3320Y-3168D01*
X-3290Y-3174D01*
Y-3040D01*
D02*
G37*
G36*
X-2210D02*
X-2344D01*
Y-3174D01*
X-2314Y-3168D01*
X-2255Y-3128D01*
X-2216Y-3069D01*
X-2210Y-3040D01*
D02*
G37*
G36*
X-2424D02*
X-2558D01*
X-2552Y-3069D01*
X-2512Y-3128D01*
X-2453Y-3168D01*
X-2424Y-3174D01*
Y-3040D01*
D02*
G37*
G36*
X-2643D02*
X-2777D01*
Y-3174D01*
X-2747Y-3168D01*
X-2688Y-3128D01*
X-2649Y-3069D01*
X-2643Y-3040D01*
D02*
G37*
G36*
X-3509D02*
X-3643D01*
Y-3174D01*
X-3613Y-3168D01*
X-3554Y-3128D01*
X-3515Y-3069D01*
X-3509Y-3040D01*
D02*
G37*
G36*
X1556Y-3109D02*
Y-3243D01*
X1690D01*
X1684Y-3213D01*
X1645Y-3154D01*
X1586Y-3115D01*
X1556Y-3109D01*
D02*
G37*
G36*
X1476D02*
X1447Y-3115D01*
X1388Y-3154D01*
X1348Y-3213D01*
X1342Y-3243D01*
X1476D01*
Y-3109D01*
D02*
G37*
G36*
X1123D02*
Y-3243D01*
X1257D01*
X1251Y-3213D01*
X1212Y-3154D01*
X1153Y-3115D01*
X1123Y-3109D01*
D02*
G37*
G36*
X-3723Y-3040D02*
X-3857D01*
X-3851Y-3069D01*
X-3812Y-3128D01*
X-3753Y-3168D01*
X-3723Y-3174D01*
Y-3040D01*
D02*
G37*
G36*
X-3942D02*
X-4076D01*
Y-3174D01*
X-4047Y-3168D01*
X-3988Y-3128D01*
X-3948Y-3069D01*
X-3942Y-3040D01*
D02*
G37*
G36*
X-4156D02*
X-4290D01*
X-4284Y-3069D01*
X-4245Y-3128D01*
X-4186Y-3168D01*
X-4156Y-3174D01*
Y-3040D01*
D02*
G37*
G36*
X1327Y3357D02*
X1297Y3352D01*
X1238Y3312D01*
X1198Y3253D01*
X1193Y3223D01*
X1327D01*
Y3357D01*
D02*
G37*
G36*
X973D02*
Y3223D01*
X1107D01*
X1102Y3253D01*
X1062Y3312D01*
X1003Y3352D01*
X973Y3357D01*
D02*
G37*
G36*
X893D02*
X864Y3352D01*
X805Y3312D01*
X765Y3253D01*
X759Y3223D01*
X893D01*
Y3357D01*
D02*
G37*
G36*
X1840D02*
Y3223D01*
X1974D01*
X1968Y3253D01*
X1928Y3312D01*
X1869Y3352D01*
X1840Y3357D01*
D02*
G37*
G36*
X1760D02*
X1730Y3352D01*
X1671Y3312D01*
X1632Y3253D01*
X1626Y3223D01*
X1760D01*
Y3357D01*
D02*
G37*
G36*
X1407D02*
Y3223D01*
X1540D01*
X1535Y3253D01*
X1495Y3312D01*
X1436Y3352D01*
X1407Y3357D01*
D02*
G37*
G36*
X540D02*
Y3223D01*
X674D01*
X668Y3253D01*
X629Y3312D01*
X570Y3352D01*
X540Y3357D01*
D02*
G37*
G36*
X1974Y3143D02*
X1840D01*
Y3009D01*
X1869Y3015D01*
X1928Y3055D01*
X1968Y3114D01*
X1974Y3143D01*
D02*
G37*
G36*
X1760D02*
X1626D01*
X1632Y3114D01*
X1671Y3055D01*
X1730Y3015D01*
X1760Y3009D01*
Y3143D01*
D02*
G37*
G36*
X1540D02*
X1407D01*
Y3009D01*
X1436Y3015D01*
X1495Y3055D01*
X1535Y3114D01*
X1540Y3143D01*
D02*
G37*
G36*
X460Y3357D02*
X431Y3352D01*
X372Y3312D01*
X332Y3253D01*
X326Y3223D01*
X460D01*
Y3357D01*
D02*
G37*
G36*
X3650Y3743D02*
X3595Y3732D01*
X3549Y3701D01*
X3518Y3655D01*
X3507Y3600D01*
X3518Y3545D01*
X3549Y3499D01*
X3571Y3484D01*
X3562Y3435D01*
X3545Y3432D01*
X3499Y3401D01*
X3468Y3355D01*
X3457Y3300D01*
X3468Y3245D01*
X3499Y3199D01*
X3545Y3168D01*
X3600Y3157D01*
X3655Y3168D01*
X3701Y3199D01*
X3732Y3245D01*
X3743Y3300D01*
X3732Y3355D01*
X3701Y3401D01*
X3679Y3416D01*
X3688Y3465D01*
X3705Y3468D01*
X3751Y3499D01*
X3782Y3545D01*
X3793Y3600D01*
X3782Y3655D01*
X3751Y3701D01*
X3705Y3732D01*
X3650Y3743D01*
D02*
G37*
G36*
X-4950Y3403D02*
X-5009Y3391D01*
X-5058Y3358D01*
X-5091Y3309D01*
X-5103Y3250D01*
X-5091Y3191D01*
X-5058Y3142D01*
X-5009Y3109D01*
X-4950Y3097D01*
X-4891Y3109D01*
X-4842Y3142D01*
X-4809Y3191D01*
X-4797Y3250D01*
X-4809Y3309D01*
X-4842Y3358D01*
X-4891Y3391D01*
X-4950Y3403D01*
D02*
G37*
G36*
X-4640Y3410D02*
X-4765D01*
X-4760Y3384D01*
X-4723Y3327D01*
X-4666Y3290D01*
X-4640Y3285D01*
Y3410D01*
D02*
G37*
G36*
X1540Y3577D02*
X1407D01*
Y3443D01*
X1436Y3448D01*
X1495Y3488D01*
X1535Y3547D01*
X1540Y3577D01*
D02*
G37*
G36*
X1327D02*
X1193D01*
X1198Y3547D01*
X1238Y3488D01*
X1297Y3448D01*
X1327Y3443D01*
Y3577D01*
D02*
G37*
G36*
X1107D02*
X973D01*
Y3443D01*
X1003Y3448D01*
X1062Y3488D01*
X1102Y3547D01*
X1107Y3577D01*
D02*
G37*
G36*
X-4640Y3615D02*
X-4666Y3610D01*
X-4723Y3573D01*
X-4760Y3516D01*
X-4765Y3490D01*
X-4640D01*
Y3615D01*
D02*
G37*
G36*
X1974Y3577D02*
X1840D01*
Y3443D01*
X1869Y3448D01*
X1928Y3488D01*
X1968Y3547D01*
X1974Y3577D01*
D02*
G37*
G36*
X1760D02*
X1626D01*
X1632Y3547D01*
X1671Y3488D01*
X1730Y3448D01*
X1760Y3443D01*
Y3577D01*
D02*
G37*
G36*
X893D02*
X759D01*
X765Y3547D01*
X805Y3488D01*
X864Y3448D01*
X893Y3443D01*
Y3577D01*
D02*
G37*
G36*
X2405Y3838D02*
X2350Y3827D01*
X2304Y3796D01*
X2273Y3750D01*
X2262Y3695D01*
X2273Y3641D01*
X2304Y3594D01*
X2350Y3563D01*
X2405Y3553D01*
X2428Y3557D01*
X2463Y3522D01*
X2459Y3498D01*
X2470Y3444D01*
X2501Y3397D01*
X2547Y3367D01*
X2602Y3356D01*
X2656Y3367D01*
X2703Y3397D01*
X2733Y3444D01*
X2744Y3498D01*
X2733Y3553D01*
X2703Y3599D01*
X2656Y3630D01*
X2602Y3641D01*
X2578Y3637D01*
X2543Y3672D01*
X2547Y3695D01*
X2537Y3750D01*
X2506Y3796D01*
X2459Y3827D01*
X2405Y3838D01*
D02*
G37*
G36*
X3250Y3593D02*
X3195Y3582D01*
X3149Y3551D01*
X3118Y3505D01*
X3107Y3450D01*
X3118Y3395D01*
X3149Y3349D01*
X3195Y3318D01*
X3250Y3307D01*
X3305Y3318D01*
X3351Y3349D01*
X3382Y3395D01*
X3393Y3450D01*
X3382Y3505D01*
X3351Y3551D01*
X3305Y3582D01*
X3250Y3593D01*
D02*
G37*
G36*
X-4435Y3410D02*
X-4560D01*
Y3285D01*
X-4534Y3290D01*
X-4477Y3327D01*
X-4440Y3384D01*
X-4435Y3410D01*
D02*
G37*
G36*
X674Y3577D02*
X540D01*
Y3443D01*
X570Y3448D01*
X629Y3488D01*
X668Y3547D01*
X674Y3577D01*
D02*
G37*
G36*
X460D02*
X326D01*
X332Y3547D01*
X372Y3488D01*
X431Y3448D01*
X460Y3443D01*
Y3577D01*
D02*
G37*
G36*
X4250Y3643D02*
X4195Y3632D01*
X4149Y3601D01*
X4118Y3555D01*
X4107Y3500D01*
X4118Y3445D01*
X4149Y3399D01*
X4195Y3368D01*
X4250Y3357D01*
X4305Y3368D01*
X4351Y3399D01*
X4382Y3445D01*
X4393Y3500D01*
X4382Y3555D01*
X4351Y3601D01*
X4305Y3632D01*
X4250Y3643D01*
D02*
G37*
G36*
X3765Y2860D02*
X3640D01*
Y2735D01*
X3666Y2740D01*
X3723Y2777D01*
X3760Y2834D01*
X3765Y2860D01*
D02*
G37*
G36*
X3560D02*
X3435D01*
X3440Y2834D01*
X3477Y2777D01*
X3534Y2740D01*
X3560Y2735D01*
Y2860D01*
D02*
G37*
G36*
X-4750Y3003D02*
X-4809Y2991D01*
X-4858Y2958D01*
X-4891Y2909D01*
X-4903Y2850D01*
X-4891Y2791D01*
X-4858Y2742D01*
X-4809Y2709D01*
X-4750Y2697D01*
X-4691Y2709D01*
X-4642Y2742D01*
X-4609Y2791D01*
X-4597Y2850D01*
X-4609Y2909D01*
X-4642Y2958D01*
X-4691Y2991D01*
X-4750Y3003D01*
D02*
G37*
G36*
X893Y2924D02*
X864Y2918D01*
X805Y2879D01*
X765Y2820D01*
X759Y2790D01*
X893D01*
Y2924D01*
D02*
G37*
G36*
X540D02*
Y2790D01*
X674D01*
X668Y2820D01*
X629Y2879D01*
X570Y2918D01*
X540Y2924D01*
D02*
G37*
G36*
X460D02*
X431Y2918D01*
X372Y2879D01*
X332Y2820D01*
X326Y2790D01*
X460D01*
Y2924D01*
D02*
G37*
G36*
X-5150Y3003D02*
X-5209Y2991D01*
X-5258Y2958D01*
X-5291Y2909D01*
X-5303Y2850D01*
X-5291Y2791D01*
X-5258Y2742D01*
X-5209Y2709D01*
X-5150Y2697D01*
X-5091Y2709D01*
X-5042Y2742D01*
X-5009Y2791D01*
X-4997Y2850D01*
X-5009Y2909D01*
X-5042Y2958D01*
X-5091Y2991D01*
X-5150Y3003D01*
D02*
G37*
G36*
X1540Y2710D02*
X1407D01*
Y2576D01*
X1436Y2582D01*
X1495Y2622D01*
X1535Y2681D01*
X1540Y2710D01*
D02*
G37*
G36*
X1327D02*
X1193D01*
X1198Y2681D01*
X1238Y2622D01*
X1297Y2582D01*
X1327Y2576D01*
Y2710D01*
D02*
G37*
G36*
X1107D02*
X973D01*
Y2576D01*
X1003Y2582D01*
X1062Y2622D01*
X1102Y2681D01*
X1107Y2710D01*
D02*
G37*
G36*
X2408Y3051D02*
X2353Y3040D01*
X2307Y3009D01*
X2276Y2962D01*
X2265Y2908D01*
X2276Y2853D01*
X2307Y2807D01*
X2353Y2776D01*
X2408Y2765D01*
X2438Y2771D01*
X2471Y2738D01*
X2466Y2688D01*
X2430Y2665D01*
X2405Y2682D01*
X2350Y2693D01*
X2295Y2682D01*
X2249Y2651D01*
X2218Y2605D01*
X2207Y2550D01*
X2218Y2495D01*
X2249Y2449D01*
X2295Y2418D01*
X2350Y2407D01*
X2405Y2418D01*
X2451Y2449D01*
X2482Y2495D01*
X2493Y2550D01*
X2489Y2569D01*
X2531Y2596D01*
X2556Y2579D01*
X2611Y2568D01*
X2666Y2579D01*
X2712Y2610D01*
X2743Y2656D01*
X2754Y2711D01*
X2743Y2766D01*
X2712Y2812D01*
X2666Y2843D01*
X2611Y2854D01*
X2581Y2848D01*
X2546Y2883D01*
X2551Y2908D01*
X2540Y2962D01*
X2509Y3009D01*
X2463Y3040D01*
X2408Y3051D01*
D02*
G37*
G36*
X1974Y2710D02*
X1840D01*
Y2576D01*
X1869Y2582D01*
X1928Y2622D01*
X1968Y2681D01*
X1974Y2710D01*
D02*
G37*
G36*
X1760D02*
X1626D01*
X1632Y2681D01*
X1671Y2622D01*
X1730Y2582D01*
X1760Y2576D01*
Y2710D01*
D02*
G37*
G36*
X973Y2924D02*
Y2790D01*
X1107D01*
X1102Y2820D01*
X1062Y2879D01*
X1003Y2918D01*
X973Y2924D01*
D02*
G37*
G36*
X674Y3143D02*
X540D01*
Y3009D01*
X570Y3015D01*
X629Y3055D01*
X668Y3114D01*
X674Y3143D01*
D02*
G37*
G36*
X460D02*
X326D01*
X332Y3114D01*
X372Y3055D01*
X431Y3015D01*
X460Y3009D01*
Y3143D01*
D02*
G37*
G36*
X3640Y3065D02*
Y2940D01*
X3765D01*
X3760Y2966D01*
X3723Y3023D01*
X3666Y3060D01*
X3640Y3065D01*
D02*
G37*
G36*
X1327Y3143D02*
X1193D01*
X1198Y3114D01*
X1238Y3055D01*
X1297Y3015D01*
X1327Y3009D01*
Y3143D01*
D02*
G37*
G36*
X1107D02*
X973D01*
Y3009D01*
X1003Y3015D01*
X1062Y3055D01*
X1102Y3114D01*
X1107Y3143D01*
D02*
G37*
G36*
X893D02*
X759D01*
X765Y3114D01*
X805Y3055D01*
X864Y3015D01*
X893Y3009D01*
Y3143D01*
D02*
G37*
G36*
X3560Y3065D02*
X3534Y3060D01*
X3477Y3023D01*
X3440Y2966D01*
X3435Y2940D01*
X3560D01*
Y3065D01*
D02*
G37*
G36*
X1760Y2924D02*
X1730Y2918D01*
X1671Y2879D01*
X1632Y2820D01*
X1626Y2790D01*
X1760D01*
Y2924D01*
D02*
G37*
G36*
X1407D02*
Y2790D01*
X1540D01*
X1535Y2820D01*
X1495Y2879D01*
X1436Y2918D01*
X1407Y2924D01*
D02*
G37*
G36*
X1327D02*
X1297Y2918D01*
X1238Y2879D01*
X1198Y2820D01*
X1193Y2790D01*
X1327D01*
Y2924D01*
D02*
G37*
G36*
X-2376Y3169D02*
X-2431Y3158D01*
X-2477Y3127D01*
X-2508Y3081D01*
X-2519Y3026D01*
X-2508Y2971D01*
X-2477Y2925D01*
X-2431Y2894D01*
X-2376Y2883D01*
X-2321Y2894D01*
X-2275Y2925D01*
X-2244Y2971D01*
X-2233Y3026D01*
X-2244Y3081D01*
X-2275Y3127D01*
X-2321Y3158D01*
X-2376Y3169D01*
D02*
G37*
G36*
X-3250Y3143D02*
X-3305Y3132D01*
X-3351Y3101D01*
X-3382Y3055D01*
X-3393Y3000D01*
X-3382Y2945D01*
X-3351Y2899D01*
X-3305Y2868D01*
X-3250Y2857D01*
X-3195Y2868D01*
X-3149Y2899D01*
X-3118Y2945D01*
X-3107Y3000D01*
X-3118Y3055D01*
X-3149Y3101D01*
X-3195Y3132D01*
X-3250Y3143D01*
D02*
G37*
G36*
X1840Y2924D02*
Y2790D01*
X1974D01*
X1968Y2820D01*
X1928Y2879D01*
X1869Y2918D01*
X1840Y2924D01*
D02*
G37*
G36*
X-4560Y3615D02*
Y3490D01*
X-4435D01*
X-4440Y3516D01*
X-4477Y3573D01*
X-4534Y3610D01*
X-4560Y3615D01*
D02*
G37*
G36*
X1850Y4893D02*
X1795Y4882D01*
X1749Y4851D01*
X1718Y4805D01*
X1707Y4750D01*
X1718Y4695D01*
X1749Y4649D01*
X1795Y4618D01*
X1850Y4607D01*
X1905Y4618D01*
X1951Y4649D01*
X1982Y4695D01*
X1993Y4750D01*
X1982Y4805D01*
X1951Y4851D01*
X1905Y4882D01*
X1850Y4893D01*
D02*
G37*
G36*
X850Y4993D02*
X795Y4982D01*
X749Y4951D01*
X718Y4905D01*
X707Y4850D01*
X718Y4795D01*
X749Y4749D01*
X795Y4718D01*
X850Y4707D01*
X860Y4709D01*
X907Y4700D01*
X918Y4645D01*
X949Y4599D01*
X995Y4568D01*
X1050Y4557D01*
X1105Y4568D01*
X1151Y4599D01*
X1182Y4645D01*
X1193Y4700D01*
X1182Y4755D01*
X1151Y4801D01*
X1105Y4832D01*
X1050Y4843D01*
X1040Y4841D01*
X993Y4850D01*
X982Y4905D01*
X951Y4951D01*
X905Y4982D01*
X850Y4993D01*
D02*
G37*
G36*
X-1640Y4565D02*
X-1666Y4560D01*
X-1723Y4523D01*
X-1727D01*
X-1784Y4560D01*
X-1810Y4565D01*
Y4400D01*
Y4235D01*
X-1784Y4240D01*
X-1727Y4277D01*
X-1723D01*
X-1666Y4240D01*
X-1640Y4235D01*
Y4400D01*
Y4565D01*
D02*
G37*
G36*
X-3335Y4860D02*
X-3460D01*
Y4735D01*
X-3434Y4740D01*
X-3377Y4777D01*
X-3340Y4834D01*
X-3335Y4860D01*
D02*
G37*
G36*
X-374Y5019D02*
X-428Y5008D01*
X-475Y4977D01*
X-505Y4931D01*
X-516Y4876D01*
X-505Y4822D01*
X-475Y4775D01*
X-428Y4744D01*
X-374Y4734D01*
X-319Y4744D01*
X-273Y4775D01*
X-242Y4822D01*
X-231Y4876D01*
X-242Y4931D01*
X-273Y4977D01*
X-319Y5008D01*
X-374Y5019D01*
D02*
G37*
G36*
X2400Y4893D02*
X2345Y4882D01*
X2299Y4851D01*
X2268Y4805D01*
X2257Y4750D01*
X2268Y4695D01*
X2299Y4649D01*
X2345Y4618D01*
X2400Y4607D01*
X2455Y4618D01*
X2501Y4649D01*
X2532Y4695D01*
X2543Y4750D01*
X2532Y4805D01*
X2501Y4851D01*
X2455Y4882D01*
X2400Y4893D01*
D02*
G37*
G36*
X500Y4793D02*
X445Y4782D01*
X399Y4751D01*
X368Y4705D01*
X357Y4650D01*
X368Y4595D01*
X399Y4549D01*
X445Y4518D01*
X500Y4507D01*
X555Y4518D01*
X601Y4549D01*
X632Y4595D01*
X643Y4650D01*
X632Y4705D01*
X601Y4751D01*
X555Y4782D01*
X500Y4793D01*
D02*
G37*
G36*
X-1890Y4360D02*
X-2015D01*
X-2010Y4334D01*
X-1973Y4277D01*
X-1916Y4240D01*
X-1890Y4235D01*
Y4360D01*
D02*
G37*
G36*
X3224Y5019D02*
X3169Y5008D01*
X3123Y4977D01*
X3092Y4931D01*
X3081Y4876D01*
X3092Y4822D01*
X3123Y4775D01*
X3169Y4744D01*
X3170Y4744D01*
X3187Y4719D01*
X3196Y4697D01*
X3168Y4655D01*
X3157Y4600D01*
X3168Y4545D01*
X3199Y4499D01*
X3204Y4496D01*
X3217Y4432D01*
X3171Y4401D01*
X3140Y4355D01*
X3129Y4300D01*
X3140Y4245D01*
X3171Y4199D01*
X3217Y4168D01*
X3272Y4157D01*
X3326Y4168D01*
X3373Y4199D01*
X3404Y4245D01*
X3404Y4245D01*
Y4245D01*
D01*
X3418Y4295D01*
D01*
D01*
X3449Y4249D01*
X3495Y4218D01*
X3550Y4207D01*
X3605Y4218D01*
X3651Y4249D01*
X3682Y4295D01*
X3693Y4350D01*
X3682Y4405D01*
X3651Y4451D01*
X3605Y4482D01*
X3550Y4493D01*
X3495Y4482D01*
X3449Y4451D01*
X3418Y4405D01*
Y4405D01*
X3418D01*
D01*
Y4405D01*
X3375Y4398D01*
X3373Y4401D01*
X3367Y4404D01*
X3355Y4468D01*
X3401Y4499D01*
X3432Y4545D01*
X3443Y4600D01*
X3432Y4655D01*
X3401Y4701D01*
X3355Y4732D01*
X3354Y4732D01*
X3337Y4757D01*
X3327Y4780D01*
X3356Y4822D01*
X3366Y4876D01*
X3356Y4931D01*
X3325Y4977D01*
X3278Y5008D01*
X3224Y5019D01*
D02*
G37*
G36*
X-1560Y4565D02*
Y4400D01*
Y4235D01*
X-1534Y4240D01*
X-1477Y4277D01*
X-1477Y4277D01*
X-1451Y4299D01*
X-1405Y4268D01*
X-1350Y4257D01*
X-1340Y4208D01*
X-1351Y4201D01*
X-1382Y4155D01*
X-1393Y4100D01*
X-1382Y4045D01*
X-1351Y3999D01*
X-1305Y3968D01*
X-1250Y3957D01*
X-1195Y3968D01*
X-1149Y3999D01*
X-1118Y4045D01*
X-1107Y4100D01*
X-1107Y4100D01*
X-1107Y4100D01*
X-1107Y4102D01*
X-1061Y4123D01*
X-1055Y4118D01*
X-1000Y4107D01*
X-945Y4118D01*
X-899Y4149D01*
X-868Y4195D01*
X-857Y4250D01*
X-868Y4305D01*
X-899Y4351D01*
X-945Y4382D01*
X-1000Y4393D01*
X-1055Y4382D01*
X-1101Y4351D01*
X-1132Y4305D01*
X-1143Y4250D01*
X-1143Y4250D01*
X-1143Y4250D01*
X-1143Y4248D01*
X-1189Y4227D01*
X-1195Y4232D01*
X-1250Y4243D01*
X-1260Y4292D01*
X-1249Y4299D01*
X-1218Y4345D01*
X-1207Y4400D01*
X-1218Y4455D01*
X-1249Y4501D01*
X-1295Y4532D01*
X-1350Y4543D01*
X-1405Y4532D01*
X-1451Y4501D01*
X-1477Y4523D01*
X-1477Y4523D01*
X-1534Y4560D01*
X-1560Y4565D01*
D02*
G37*
G36*
X-2850Y4743D02*
X-2905Y4732D01*
X-2951Y4701D01*
X-2982Y4655D01*
X-2993Y4600D01*
X-2982Y4545D01*
X-2951Y4499D01*
X-2905Y4468D01*
X-2850Y4457D01*
X-2795Y4468D01*
X-2749Y4499D01*
X-2718Y4545D01*
X-2707Y4600D01*
X-2718Y4655D01*
X-2749Y4701D01*
X-2795Y4732D01*
X-2850Y4743D01*
D02*
G37*
G36*
X-1890Y4565D02*
X-1916Y4560D01*
X-1973Y4523D01*
X-2010Y4466D01*
X-2015Y4440D01*
X-1890D01*
Y4565D01*
D02*
G37*
G36*
X2617Y4625D02*
X2563Y4615D01*
X2516Y4584D01*
X2485Y4537D01*
X2475Y4483D01*
X2485Y4428D01*
X2516Y4382D01*
X2563Y4351D01*
X2617Y4340D01*
X2672Y4351D01*
X2718Y4382D01*
X2749Y4428D01*
X2760Y4483D01*
X2749Y4537D01*
X2718Y4584D01*
X2672Y4615D01*
X2617Y4625D01*
D02*
G37*
G36*
X-917Y5333D02*
X-1043D01*
X-1037Y5307D01*
X-1000Y5250D01*
X-944Y5213D01*
X-917Y5207D01*
Y5333D01*
D02*
G37*
G36*
X-1316Y5591D02*
X-1342Y5586D01*
X-1399Y5549D01*
X-1436Y5492D01*
X-1441Y5466D01*
X-1316D01*
Y5591D01*
D02*
G37*
G36*
X2115Y5560D02*
X1990D01*
Y5435D01*
X2016Y5440D01*
X2073Y5477D01*
X2110Y5534D01*
X2115Y5560D01*
D02*
G37*
G36*
X1910D02*
X1785D01*
X1790Y5534D01*
X1827Y5477D01*
X1884Y5440D01*
X1910Y5435D01*
Y5560D01*
D02*
G37*
G36*
X-323Y6070D02*
X-377Y6059D01*
X-424Y6028D01*
X-455Y5982D01*
X-466Y5927D01*
X-455Y5873D01*
X-424Y5826D01*
X-377Y5795D01*
X-323Y5784D01*
X-268Y5795D01*
X-222Y5826D01*
X-191Y5873D01*
X-180Y5927D01*
X-191Y5982D01*
X-222Y6028D01*
X-268Y6059D01*
X-323Y6070D01*
D02*
G37*
G36*
X-1600Y5843D02*
X-1655Y5832D01*
X-1701Y5801D01*
X-1732Y5755D01*
X-1743Y5700D01*
X-1732Y5645D01*
X-1701Y5599D01*
X-1655Y5568D01*
X-1600Y5557D01*
X-1545Y5568D01*
X-1499Y5599D01*
X-1468Y5645D01*
X-1457Y5700D01*
X-1468Y5755D01*
X-1499Y5801D01*
X-1545Y5832D01*
X-1600Y5843D01*
D02*
G37*
G36*
X-1236Y5591D02*
Y5466D01*
X-1111D01*
X-1116Y5492D01*
X-1153Y5549D01*
X-1210Y5586D01*
X-1236Y5591D01*
D02*
G37*
G36*
X-837Y5538D02*
Y5413D01*
X-712D01*
X-717Y5439D01*
X-755Y5495D01*
X-811Y5533D01*
X-837Y5538D01*
D02*
G37*
G36*
X-1111Y5386D02*
X-1236D01*
Y5261D01*
X-1210Y5266D01*
X-1153Y5303D01*
X-1116Y5360D01*
X-1111Y5386D01*
D02*
G37*
G36*
X-1316D02*
X-1441D01*
X-1436Y5360D01*
X-1399Y5303D01*
X-1342Y5266D01*
X-1316Y5261D01*
Y5386D01*
D02*
G37*
G36*
X-712Y5333D02*
X-837D01*
Y5207D01*
X-811Y5213D01*
X-755Y5250D01*
X-717Y5307D01*
X-712Y5333D01*
D02*
G37*
G36*
X-917Y5538D02*
X-944Y5533D01*
X-1000Y5495D01*
X-1037Y5439D01*
X-1043Y5413D01*
X-917D01*
Y5538D01*
D02*
G37*
G36*
X-327Y5670D02*
X-382Y5659D01*
X-428Y5628D01*
X-459Y5582D01*
X-470Y5527D01*
X-459Y5473D01*
X-428Y5426D01*
X-382Y5395D01*
X-327Y5384D01*
X-273Y5395D01*
X-226Y5426D01*
X-195Y5473D01*
X-184Y5527D01*
X-195Y5582D01*
X-226Y5628D01*
X-273Y5659D01*
X-327Y5670D01*
D02*
G37*
G36*
X-2050Y5643D02*
X-2105Y5632D01*
X-2151Y5601D01*
X-2182Y5555D01*
X-2193Y5500D01*
X-2182Y5445D01*
X-2151Y5399D01*
X-2105Y5368D01*
X-2050Y5357D01*
X-1995Y5368D01*
X-1949Y5399D01*
X-1918Y5445D01*
X-1907Y5500D01*
X-1918Y5555D01*
X-1949Y5601D01*
X-1995Y5632D01*
X-2050Y5643D01*
D02*
G37*
G36*
X1840Y3790D02*
Y3657D01*
X1974D01*
X1968Y3686D01*
X1928Y3745D01*
X1869Y3785D01*
X1840Y3790D01*
D02*
G37*
G36*
X1760D02*
X1730Y3785D01*
X1671Y3745D01*
X1632Y3686D01*
X1626Y3657D01*
X1760D01*
Y3790D01*
D02*
G37*
G36*
X1407D02*
Y3657D01*
X1540D01*
X1535Y3686D01*
X1495Y3745D01*
X1436Y3785D01*
X1407Y3790D01*
D02*
G37*
G36*
X893Y4010D02*
X759D01*
X765Y3980D01*
X805Y3921D01*
X864Y3882D01*
X893Y3876D01*
Y4010D01*
D02*
G37*
G36*
X674D02*
X540D01*
Y3876D01*
X570Y3882D01*
X629Y3921D01*
X668Y3980D01*
X674Y4010D01*
D02*
G37*
G36*
X460D02*
X326D01*
X332Y3980D01*
X372Y3921D01*
X431Y3882D01*
X460Y3876D01*
Y4010D01*
D02*
G37*
G36*
X1327Y3790D02*
X1297Y3785D01*
X1238Y3745D01*
X1198Y3686D01*
X1193Y3657D01*
X1327D01*
Y3790D01*
D02*
G37*
G36*
X460D02*
X431Y3785D01*
X372Y3745D01*
X332Y3686D01*
X326Y3657D01*
X460D01*
Y3790D01*
D02*
G37*
G36*
X4650Y3843D02*
X4595Y3832D01*
X4549Y3801D01*
X4518Y3755D01*
X4507Y3700D01*
X4518Y3645D01*
X4549Y3599D01*
X4595Y3568D01*
X4650Y3557D01*
X4705Y3568D01*
X4751Y3599D01*
X4782Y3645D01*
X4793Y3700D01*
X4782Y3755D01*
X4751Y3801D01*
X4705Y3832D01*
X4650Y3843D01*
D02*
G37*
G36*
X-100Y3793D02*
X-155Y3782D01*
X-201Y3751D01*
X-232Y3705D01*
X-243Y3650D01*
X-232Y3595D01*
X-201Y3549D01*
X-155Y3518D01*
X-100Y3507D01*
X-45Y3518D01*
X1Y3549D01*
X32Y3595D01*
X43Y3650D01*
X32Y3705D01*
X1Y3751D01*
X-45Y3782D01*
X-100Y3793D01*
D02*
G37*
G36*
X973Y3790D02*
Y3657D01*
X1107D01*
X1102Y3686D01*
X1062Y3745D01*
X1003Y3785D01*
X973Y3790D01*
D02*
G37*
G36*
X893D02*
X864Y3785D01*
X805Y3745D01*
X765Y3686D01*
X759Y3657D01*
X893D01*
Y3790D01*
D02*
G37*
G36*
X540D02*
Y3657D01*
X674D01*
X668Y3686D01*
X629Y3745D01*
X570Y3785D01*
X540Y3790D01*
D02*
G37*
G36*
X1107Y4010D02*
X973D01*
Y3876D01*
X1003Y3882D01*
X1062Y3921D01*
X1102Y3980D01*
X1107Y4010D01*
D02*
G37*
G36*
X1327Y4224D02*
X1297Y4218D01*
X1238Y4178D01*
X1198Y4119D01*
X1193Y4090D01*
X1327D01*
Y4224D01*
D02*
G37*
G36*
X973D02*
Y4090D01*
X1107D01*
X1102Y4119D01*
X1062Y4178D01*
X1003Y4218D01*
X973Y4224D01*
D02*
G37*
G36*
X893D02*
X864Y4218D01*
X805Y4178D01*
X765Y4119D01*
X759Y4090D01*
X893D01*
Y4224D01*
D02*
G37*
G36*
X1840D02*
Y4090D01*
X1974D01*
X1968Y4119D01*
X1928Y4178D01*
X1869Y4218D01*
X1840Y4224D01*
D02*
G37*
G36*
X1760D02*
X1730Y4218D01*
X1671Y4178D01*
X1632Y4119D01*
X1626Y4090D01*
X1760D01*
Y4224D01*
D02*
G37*
G36*
X1407D02*
Y4090D01*
X1540D01*
X1535Y4119D01*
X1495Y4178D01*
X1436Y4218D01*
X1407Y4224D01*
D02*
G37*
G36*
X540D02*
Y4090D01*
X674D01*
X668Y4119D01*
X629Y4178D01*
X570Y4218D01*
X540Y4224D01*
D02*
G37*
G36*
X1760Y4010D02*
X1626D01*
X1632Y3980D01*
X1671Y3921D01*
X1730Y3882D01*
X1760Y3876D01*
Y4010D01*
D02*
G37*
G36*
X1540D02*
X1407D01*
Y3876D01*
X1436Y3882D01*
X1495Y3921D01*
X1535Y3980D01*
X1540Y4010D01*
D02*
G37*
G36*
X1327D02*
X1193D01*
X1198Y3980D01*
X1238Y3921D01*
X1297Y3882D01*
X1327Y3876D01*
Y4010D01*
D02*
G37*
G36*
X460Y4224D02*
X431Y4218D01*
X372Y4178D01*
X332Y4119D01*
X326Y4090D01*
X460D01*
Y4224D01*
D02*
G37*
G36*
X2611Y4232D02*
X2556Y4221D01*
X2510Y4190D01*
X2479Y4144D01*
X2468Y4089D01*
X2479Y4034D01*
X2510Y3988D01*
X2556Y3957D01*
X2611Y3946D01*
X2666Y3957D01*
X2712Y3988D01*
X2743Y4034D01*
X2754Y4089D01*
X2743Y4144D01*
X2712Y4190D01*
X2666Y4221D01*
X2611Y4232D01*
D02*
G37*
G36*
X1974Y4010D02*
X1840D01*
Y3876D01*
X1869Y3882D01*
X1928Y3921D01*
X1968Y3980D01*
X1974Y4010D01*
D02*
G37*
G36*
X893Y2710D02*
X759D01*
X765Y2681D01*
X805Y2622D01*
X864Y2582D01*
X893Y2576D01*
Y2710D01*
D02*
G37*
G36*
X-1340Y-835D02*
X-1366Y-840D01*
X-1423Y-877D01*
X-1460Y-934D01*
X-1465Y-960D01*
X-1340D01*
Y-835D01*
D02*
G37*
G36*
X5050Y143D02*
X4995Y132D01*
X4949Y101D01*
X4918Y55D01*
X4907Y0D01*
X4918Y-55D01*
X4949Y-101D01*
Y-149D01*
X4918Y-195D01*
X4907Y-250D01*
X4918Y-305D01*
X4949Y-351D01*
Y-399D01*
X4918Y-445D01*
X4907Y-500D01*
X4918Y-555D01*
X4949Y-601D01*
X4967Y-613D01*
X4967Y-663D01*
X4935Y-685D01*
X4899Y-738D01*
X4887Y-800D01*
X4899Y-862D01*
X4935Y-915D01*
X4988Y-951D01*
X5050Y-963D01*
X5112Y-951D01*
X5165Y-915D01*
X5201Y-862D01*
X5213Y-800D01*
X5201Y-738D01*
X5165Y-685D01*
X5133Y-663D01*
X5133Y-613D01*
X5151Y-601D01*
X5182Y-555D01*
X5193Y-500D01*
X5182Y-445D01*
X5151Y-399D01*
Y-351D01*
X5182Y-305D01*
X5193Y-250D01*
X5182Y-195D01*
X5151Y-149D01*
Y-101D01*
X5182Y-55D01*
X5193Y0D01*
X5182Y55D01*
X5151Y101D01*
X5105Y132D01*
X5050Y143D01*
D02*
G37*
G36*
X1415Y-890D02*
X1290D01*
Y-1015D01*
X1316Y-1010D01*
X1373Y-973D01*
X1410Y-916D01*
X1415Y-890D01*
D02*
G37*
G36*
X2373Y-532D02*
X2248D01*
Y-658D01*
X2274Y-652D01*
X2330Y-615D01*
X2368Y-558D01*
X2373Y-532D01*
D02*
G37*
G36*
X-2500Y-657D02*
X-2555Y-668D01*
X-2601Y-699D01*
X-2632Y-745D01*
X-2643Y-800D01*
X-2632Y-855D01*
X-2601Y-901D01*
X-2555Y-932D01*
X-2500Y-943D01*
X-2445Y-932D01*
X-2399Y-901D01*
X-2368Y-855D01*
X-2357Y-800D01*
X-2368Y-745D01*
X-2399Y-699D01*
X-2445Y-668D01*
X-2500Y-657D01*
D02*
G37*
G36*
X-1260Y-835D02*
Y-960D01*
X-1135D01*
X-1140Y-934D01*
X-1177Y-877D01*
X-1234Y-840D01*
X-1260Y-835D01*
D02*
G37*
G36*
X1210Y-890D02*
X1085D01*
X1090Y-916D01*
X1127Y-973D01*
X1184Y-1010D01*
X1210Y-1015D01*
Y-890D01*
D02*
G37*
G36*
X-1340Y-1040D02*
X-1465D01*
X-1460Y-1066D01*
X-1423Y-1123D01*
X-1366Y-1160D01*
X-1340Y-1165D01*
Y-1040D01*
D02*
G37*
G36*
X4179Y-1124D02*
Y-1249D01*
X4304D01*
X4299Y-1223D01*
X4262Y-1166D01*
X4205Y-1129D01*
X4179Y-1124D01*
D02*
G37*
G36*
X4099D02*
X4073Y-1129D01*
X4016Y-1166D01*
X3979Y-1223D01*
X3974Y-1249D01*
X4099D01*
Y-1124D01*
D02*
G37*
G36*
X1967Y-1012D02*
Y-1137D01*
X2093D01*
X2087Y-1111D01*
X2050Y-1055D01*
X1993Y-1017D01*
X1967Y-1012D01*
D02*
G37*
G36*
X1887D02*
X1861Y-1017D01*
X1805Y-1055D01*
X1767Y-1111D01*
X1762Y-1137D01*
X1887D01*
Y-1012D01*
D02*
G37*
G36*
X-1135Y-1040D02*
X-1260D01*
Y-1165D01*
X-1234Y-1160D01*
X-1177Y-1123D01*
X-1140Y-1066D01*
X-1135Y-1040D01*
D02*
G37*
G36*
X2248Y-327D02*
Y-452D01*
X2373D01*
X2368Y-426D01*
X2330Y-370D01*
X2274Y-332D01*
X2248Y-327D01*
D02*
G37*
G36*
X-3991Y411D02*
X-4157D01*
X-4149Y369D01*
X-4103Y300D01*
X-4033Y253D01*
X-3991Y245D01*
Y411D01*
D02*
G37*
G36*
X-5060Y386D02*
Y240D01*
X-4914D01*
X-4921Y274D01*
X-4963Y337D01*
X-5026Y379D01*
X-5060Y386D01*
D02*
G37*
G36*
X-5140D02*
X-5174Y379D01*
X-5237Y337D01*
X-5279Y274D01*
X-5286Y240D01*
X-5140D01*
Y386D01*
D02*
G37*
G36*
X5236Y460D02*
X5090D01*
Y314D01*
X5124Y321D01*
X5187Y363D01*
X5229Y426D01*
X5236Y460D01*
D02*
G37*
G36*
X5010D02*
X4864D01*
X4871Y426D01*
X4913Y363D01*
X4976Y321D01*
X5010Y314D01*
Y460D01*
D02*
G37*
G36*
X-3745Y411D02*
X-3911D01*
Y245D01*
X-3869Y253D01*
X-3800Y300D01*
X-3753Y369D01*
X-3745Y411D01*
D02*
G37*
G36*
X3490Y214D02*
Y40D01*
X3664D01*
X3655Y85D01*
X3607Y157D01*
X3535Y205D01*
X3490Y214D01*
D02*
G37*
G36*
X1534Y683D02*
X1401Y670D01*
X1272Y631D01*
X1154Y568D01*
X1051Y483D01*
X966Y380D01*
X903Y261D01*
X864Y133D01*
X851Y0D01*
X861Y-102D01*
X814Y-119D01*
X799Y-97D01*
X753Y-67D01*
X698Y-56D01*
X644Y-67D01*
X597Y-97D01*
X567Y-144D01*
X556Y-198D01*
X567Y-253D01*
X597Y-299D01*
X644Y-330D01*
X698Y-341D01*
X753Y-330D01*
X799Y-299D01*
X830Y-253D01*
X838Y-215D01*
X888Y-213D01*
X903Y-261D01*
X966Y-380D01*
X1051Y-483D01*
X1154Y-568D01*
X1271Y-630D01*
X1254Y-677D01*
X1250Y-677D01*
X1184Y-690D01*
X1127Y-727D01*
X1090Y-784D01*
X1085Y-810D01*
X1415D01*
X1410Y-784D01*
X1373Y-727D01*
X1334Y-701D01*
X1355Y-656D01*
X1401Y-670D01*
X1534Y-683D01*
X1667Y-670D01*
X1795Y-631D01*
X1913Y-568D01*
X1993Y-503D01*
X2040Y-520D01*
X2048Y-558D01*
X2085Y-615D01*
X2142Y-652D01*
X2168Y-658D01*
Y-492D01*
Y-303D01*
X2153Y-284D01*
X2165Y-261D01*
X2204Y-133D01*
X2217Y0D01*
X2204Y133D01*
X2165Y261D01*
X2102Y380D01*
X2017Y483D01*
X1913Y568D01*
X1795Y631D01*
X1667Y670D01*
X1534Y683D01*
D02*
G37*
G36*
X3664Y-40D02*
X3490D01*
Y-214D01*
X3535Y-205D01*
X3607Y-157D01*
X3655Y-85D01*
X3664Y-40D01*
D02*
G37*
G36*
X3410D02*
X3236D01*
X3245Y-85D01*
X3293Y-157D01*
X3365Y-205D01*
X3410Y-214D01*
Y-40D01*
D02*
G37*
G36*
Y214D02*
X3365Y205D01*
X3293Y157D01*
X3245Y85D01*
X3236Y40D01*
X3410D01*
Y214D01*
D02*
G37*
G36*
X-4914Y160D02*
X-5060D01*
Y14D01*
X-5026Y21D01*
X-4963Y63D01*
X-4921Y126D01*
X-4914Y160D01*
D02*
G37*
G36*
X-5140D02*
X-5286D01*
X-5279Y126D01*
X-5237Y63D01*
X-5174Y21D01*
X-5140Y14D01*
Y160D01*
D02*
G37*
G36*
X-2857Y-1526D02*
X-2887Y-1532D01*
X-2946Y-1572D01*
X-2985Y-1631D01*
X-2991Y-1660D01*
X-2857D01*
Y-1526D01*
D02*
G37*
G36*
X-3210D02*
Y-1660D01*
X-3076D01*
X-3082Y-1631D01*
X-3121Y-1572D01*
X-3180Y-1532D01*
X-3210Y-1526D01*
D02*
G37*
G36*
X-3290D02*
X-3320Y-1532D01*
X-3379Y-1572D01*
X-3418Y-1631D01*
X-3424Y-1660D01*
X-3290D01*
Y-1526D01*
D02*
G37*
G36*
X-2344D02*
Y-1660D01*
X-2210D01*
X-2216Y-1631D01*
X-2255Y-1572D01*
X-2314Y-1532D01*
X-2344Y-1526D01*
D02*
G37*
G36*
X-2424D02*
X-2453Y-1532D01*
X-2512Y-1572D01*
X-2552Y-1631D01*
X-2558Y-1660D01*
X-2424D01*
Y-1526D01*
D02*
G37*
G36*
X-2777D02*
Y-1660D01*
X-2643D01*
X-2649Y-1631D01*
X-2688Y-1572D01*
X-2747Y-1532D01*
X-2777Y-1526D01*
D02*
G37*
G36*
X-3643D02*
Y-1660D01*
X-3509D01*
X-3515Y-1631D01*
X-3554Y-1572D01*
X-3613Y-1532D01*
X-3643Y-1526D01*
D02*
G37*
G36*
X3050Y-1457D02*
X2995Y-1468D01*
X2949Y-1499D01*
X2918Y-1545D01*
X2907Y-1600D01*
X2918Y-1655D01*
X2949Y-1701D01*
X2958Y-1707D01*
X2958Y-1757D01*
X2927Y-1777D01*
X2890Y-1834D01*
X2885Y-1860D01*
X3215D01*
X3210Y-1834D01*
X3173Y-1777D01*
X3142Y-1757D01*
X3142Y-1707D01*
X3151Y-1701D01*
X3182Y-1655D01*
X3193Y-1600D01*
X3182Y-1545D01*
X3151Y-1499D01*
X3105Y-1468D01*
X3050Y-1457D01*
D02*
G37*
G36*
X-2210Y-1740D02*
X-2344D01*
Y-1874D01*
X-2314Y-1868D01*
X-2255Y-1829D01*
X-2216Y-1770D01*
X-2210Y-1740D01*
D02*
G37*
G36*
X-2424D02*
X-2558D01*
X-2552Y-1770D01*
X-2512Y-1829D01*
X-2453Y-1868D01*
X-2424Y-1874D01*
Y-1740D01*
D02*
G37*
G36*
X-3723Y-1526D02*
X-3753Y-1532D01*
X-3812Y-1572D01*
X-3851Y-1631D01*
X-3857Y-1660D01*
X-3723D01*
Y-1526D01*
D02*
G37*
G36*
X-4076D02*
Y-1660D01*
X-3942D01*
X-3948Y-1631D01*
X-3988Y-1572D01*
X-4047Y-1532D01*
X-4076Y-1526D01*
D02*
G37*
G36*
X-4156D02*
X-4186Y-1532D01*
X-4245Y-1572D01*
X-4284Y-1631D01*
X-4290Y-1660D01*
X-4156D01*
Y-1526D01*
D02*
G37*
G36*
X-724Y-1320D02*
X-778Y-1331D01*
X-824Y-1362D01*
X-855Y-1408D01*
X-866Y-1463D01*
X-855Y-1517D01*
X-824Y-1563D01*
X-778Y-1594D01*
X-724Y-1605D01*
X-669Y-1594D01*
X-623Y-1563D01*
X-592Y-1517D01*
X-581Y-1463D01*
X-592Y-1408D01*
X-623Y-1362D01*
X-669Y-1331D01*
X-724Y-1320D01*
D02*
G37*
G36*
X3390Y-1185D02*
Y-1310D01*
X3515D01*
X3510Y-1284D01*
X3473Y-1227D01*
X3416Y-1190D01*
X3390Y-1185D01*
D02*
G37*
G36*
X3310D02*
X3284Y-1190D01*
X3227Y-1227D01*
X3190Y-1284D01*
X3185Y-1310D01*
X3310D01*
Y-1185D01*
D02*
G37*
G36*
X2093Y-1217D02*
X1967D01*
Y-1343D01*
X1993Y-1337D01*
X2050Y-1300D01*
X2087Y-1243D01*
X2093Y-1217D01*
D02*
G37*
G36*
X945Y-1012D02*
X891Y-1023D01*
X844Y-1054D01*
X813Y-1100D01*
X803Y-1155D01*
X813Y-1209D01*
X844Y-1256D01*
X891Y-1287D01*
X945Y-1297D01*
X1000Y-1287D01*
X1046Y-1256D01*
X1077Y-1209D01*
X1088Y-1155D01*
X1077Y-1100D01*
X1046Y-1054D01*
X1000Y-1023D01*
X945Y-1012D01*
D02*
G37*
G36*
X250Y-707D02*
X195Y-718D01*
X149Y-749D01*
X118Y-795D01*
X107Y-850D01*
X118Y-905D01*
X149Y-951D01*
X168Y-964D01*
X158Y-1015D01*
X103Y-1026D01*
X57Y-1057D01*
X26Y-1103D01*
X15Y-1158D01*
X26Y-1213D01*
X57Y-1259D01*
X103Y-1290D01*
X158Y-1301D01*
X213Y-1290D01*
X259Y-1259D01*
X290Y-1213D01*
X301Y-1158D01*
X290Y-1103D01*
X259Y-1057D01*
X240Y-1044D01*
X250Y-993D01*
X305Y-982D01*
X351Y-951D01*
X382Y-905D01*
X393Y-850D01*
X382Y-795D01*
X351Y-749D01*
X305Y-718D01*
X250Y-707D01*
D02*
G37*
G36*
X1536Y-1021D02*
X1481Y-1032D01*
X1435Y-1063D01*
X1404Y-1110D01*
X1393Y-1164D01*
X1404Y-1219D01*
X1435Y-1265D01*
X1481Y-1296D01*
X1536Y-1307D01*
X1590Y-1296D01*
X1637Y-1265D01*
X1668Y-1219D01*
X1679Y-1164D01*
X1668Y-1110D01*
X1637Y-1063D01*
X1590Y-1032D01*
X1536Y-1021D01*
D02*
G37*
G36*
X1887Y-1217D02*
X1762D01*
X1767Y-1243D01*
X1805Y-1300D01*
X1861Y-1337D01*
X1887Y-1343D01*
Y-1217D01*
D02*
G37*
G36*
X-4800Y-1207D02*
X-4855Y-1218D01*
X-4901Y-1249D01*
X-4932Y-1295D01*
X-4943Y-1350D01*
X-4932Y-1405D01*
X-4901Y-1451D01*
X-4855Y-1482D01*
X-4800Y-1493D01*
X-4745Y-1482D01*
X-4699Y-1451D01*
X-4668Y-1405D01*
X-4657Y-1350D01*
X-4668Y-1295D01*
X-4699Y-1249D01*
X-4745Y-1218D01*
X-4800Y-1207D01*
D02*
G37*
G36*
X3515Y-1390D02*
X3390D01*
Y-1515D01*
X3416Y-1510D01*
X3473Y-1473D01*
X3510Y-1416D01*
X3515Y-1390D01*
D02*
G37*
G36*
X3310D02*
X3185D01*
X3190Y-1416D01*
X3227Y-1473D01*
X3284Y-1510D01*
X3310Y-1515D01*
Y-1390D01*
D02*
G37*
G36*
X4304Y-1329D02*
X4179D01*
Y-1454D01*
X4205Y-1449D01*
X4262Y-1412D01*
X4299Y-1355D01*
X4304Y-1329D01*
D02*
G37*
G36*
X4099D02*
X3974D01*
X3979Y-1355D01*
X4016Y-1412D01*
X4073Y-1449D01*
X4099Y-1454D01*
Y-1329D01*
D02*
G37*
G36*
X3750Y-1207D02*
X3695Y-1218D01*
X3649Y-1249D01*
X3618Y-1295D01*
X3607Y-1350D01*
X3618Y-1405D01*
X3649Y-1451D01*
X3695Y-1482D01*
X3750Y-1493D01*
X3805Y-1482D01*
X3851Y-1451D01*
X3882Y-1405D01*
X3893Y-1350D01*
X3882Y-1295D01*
X3851Y-1249D01*
X3805Y-1218D01*
X3750Y-1207D01*
D02*
G37*
G36*
X100Y693D02*
X45Y682D01*
X-1Y651D01*
X-32Y605D01*
X-43Y550D01*
X-32Y495D01*
X-1Y449D01*
X45Y418D01*
X100Y407D01*
X155Y418D01*
X201Y449D01*
X232Y495D01*
X243Y550D01*
X232Y605D01*
X201Y651D01*
X155Y682D01*
X100Y693D01*
D02*
G37*
G36*
X950Y2143D02*
X895Y2132D01*
X849Y2101D01*
X818Y2055D01*
X807Y2000D01*
X818Y1945D01*
X849Y1899D01*
X895Y1868D01*
X950Y1857D01*
X1005Y1868D01*
X1051Y1899D01*
X1082Y1945D01*
X1093Y2000D01*
X1082Y2055D01*
X1051Y2101D01*
X1005Y2132D01*
X950Y2143D01*
D02*
G37*
G36*
X-1800D02*
X-1855Y2132D01*
X-1901Y2101D01*
X-1932Y2055D01*
X-1943Y2000D01*
X-1932Y1945D01*
X-1901Y1899D01*
X-1855Y1868D01*
X-1800Y1857D01*
X-1745Y1868D01*
X-1699Y1899D01*
X-1668Y1945D01*
X-1657Y2000D01*
X-1668Y2055D01*
X-1699Y2101D01*
X-1745Y2132D01*
X-1800Y2143D01*
D02*
G37*
G36*
X3465Y1960D02*
X3340D01*
Y1835D01*
X3366Y1840D01*
X3423Y1877D01*
X3460Y1934D01*
X3465Y1960D01*
D02*
G37*
G36*
X-4820Y2126D02*
Y1980D01*
X-4674D01*
X-4681Y2014D01*
X-4723Y2077D01*
X-4786Y2119D01*
X-4820Y2126D01*
D02*
G37*
G36*
X-4900D02*
X-4934Y2119D01*
X-4997Y2077D01*
X-5039Y2014D01*
X-5046Y1980D01*
X-4900D01*
Y2126D01*
D02*
G37*
G36*
X1400Y2193D02*
X1345Y2182D01*
X1299Y2151D01*
X1268Y2105D01*
X1257Y2050D01*
X1268Y1995D01*
X1299Y1949D01*
X1345Y1918D01*
X1400Y1907D01*
X1455Y1918D01*
X1501Y1949D01*
X1532Y1995D01*
X1543Y2050D01*
X1532Y2105D01*
X1501Y2151D01*
X1455Y2182D01*
X1400Y2193D01*
D02*
G37*
G36*
X3260Y1960D02*
X3135D01*
X3140Y1934D01*
X3177Y1877D01*
X3234Y1840D01*
X3260Y1835D01*
Y1960D01*
D02*
G37*
G36*
X-4674Y1900D02*
X-4820D01*
Y1754D01*
X-4786Y1761D01*
X-4723Y1803D01*
X-4681Y1866D01*
X-4674Y1900D01*
D02*
G37*
G36*
X-4900D02*
X-5046D01*
X-5039Y1866D01*
X-4997Y1803D01*
X-4934Y1761D01*
X-4900Y1754D01*
Y1900D01*
D02*
G37*
G36*
X-3740Y1765D02*
X-3766Y1760D01*
X-3823Y1723D01*
X-3831Y1710D01*
X-3881D01*
X-3885Y1715D01*
X-3938Y1751D01*
X-4000Y1763D01*
X-4062Y1751D01*
X-4115Y1715D01*
X-4151Y1662D01*
X-4163Y1600D01*
X-4151Y1538D01*
X-4115Y1485D01*
X-4062Y1449D01*
X-4000Y1437D01*
X-3938Y1449D01*
X-3885Y1485D01*
X-3881Y1490D01*
X-3831D01*
X-3823Y1477D01*
X-3766Y1440D01*
X-3740Y1435D01*
Y1600D01*
Y1765D01*
D02*
G37*
G36*
X5240Y2165D02*
Y2000D01*
Y1835D01*
X5266Y1840D01*
X5320Y1876D01*
X5335Y1869D01*
X5368Y1847D01*
X5368Y1845D01*
X5399Y1799D01*
X5445Y1768D01*
X5500Y1757D01*
X5555Y1768D01*
X5601Y1799D01*
X5632Y1845D01*
X5643Y1900D01*
X5632Y1955D01*
X5601Y2001D01*
X5555Y2032D01*
X5500Y2043D01*
X5445Y2032D01*
X5414Y2011D01*
X5367Y2030D01*
X5360Y2066D01*
X5323Y2123D01*
X5266Y2160D01*
X5240Y2165D01*
D02*
G37*
G36*
X4400Y2043D02*
X4345Y2032D01*
X4299Y2001D01*
X4268Y1955D01*
X4257Y1900D01*
X4268Y1845D01*
X4299Y1799D01*
X4345Y1768D01*
X4400Y1757D01*
X4455Y1768D01*
X4501Y1799D01*
X4532Y1845D01*
X4543Y1900D01*
X4532Y1955D01*
X4501Y2001D01*
X4455Y2032D01*
X4400Y2043D01*
D02*
G37*
G36*
X3800D02*
X3745Y2032D01*
X3699Y2001D01*
X3668Y1955D01*
X3657Y1900D01*
X3668Y1845D01*
X3699Y1799D01*
X3745Y1768D01*
X3800Y1757D01*
X3855Y1768D01*
X3901Y1799D01*
X3932Y1845D01*
X3943Y1900D01*
X3932Y1955D01*
X3901Y2001D01*
X3855Y2032D01*
X3800Y2043D01*
D02*
G37*
G36*
X2600Y2143D02*
X2545Y2132D01*
X2499Y2101D01*
X2468Y2055D01*
X2465Y2038D01*
X2416Y2029D01*
X2401Y2051D01*
X2355Y2082D01*
X2300Y2093D01*
X2245Y2082D01*
X2199Y2051D01*
X2199Y2051D01*
Y2051D01*
X2168Y2040D01*
D01*
X2137Y2087D01*
X2090Y2118D01*
X2036Y2129D01*
X1981Y2118D01*
X1935Y2087D01*
X1904Y2040D01*
X1893Y1986D01*
X1904Y1931D01*
X1935Y1885D01*
X1981Y1854D01*
X2036Y1843D01*
X2090Y1854D01*
X2137Y1885D01*
X2137Y1885D01*
Y1885D01*
X2168Y1895D01*
Y1895D01*
X2168Y1895D01*
X2199Y1849D01*
X2245Y1818D01*
X2300Y1807D01*
X2355Y1818D01*
X2401Y1849D01*
X2432Y1895D01*
X2435Y1912D01*
X2484Y1921D01*
X2499Y1899D01*
X2545Y1868D01*
X2600Y1857D01*
X2655Y1868D01*
X2701Y1899D01*
X2732Y1945D01*
X2743Y2000D01*
X2732Y2055D01*
X2701Y2101D01*
X2655Y2132D01*
X2600Y2143D01*
D02*
G37*
G36*
X-3895Y2670D02*
X-3921Y2665D01*
X-3977Y2627D01*
X-4015Y2571D01*
X-4020Y2545D01*
X-3895D01*
Y2670D01*
D02*
G37*
G36*
Y2465D02*
X-4020D01*
X-4015Y2438D01*
X-3977Y2382D01*
X-3921Y2345D01*
X-3895Y2339D01*
Y2465D01*
D02*
G37*
G36*
X-4950Y2603D02*
X-5009Y2591D01*
X-5058Y2558D01*
X-5091Y2509D01*
X-5103Y2450D01*
X-5091Y2391D01*
X-5058Y2342D01*
X-5009Y2309D01*
X-4950Y2297D01*
X-4891Y2309D01*
X-4842Y2342D01*
X-4809Y2391D01*
X-4797Y2450D01*
X-4809Y2509D01*
X-4842Y2558D01*
X-4891Y2591D01*
X-4950Y2603D01*
D02*
G37*
G36*
X674Y2710D02*
X540D01*
Y2576D01*
X570Y2582D01*
X629Y2622D01*
X668Y2681D01*
X674Y2710D01*
D02*
G37*
G36*
X460D02*
X326D01*
X332Y2681D01*
X372Y2622D01*
X431Y2582D01*
X460Y2576D01*
Y2710D01*
D02*
G37*
G36*
X-161Y2854D02*
X-216Y2843D01*
X-262Y2812D01*
X-293Y2766D01*
X-304Y2711D01*
X-293Y2656D01*
X-262Y2610D01*
X-216Y2579D01*
X-161Y2568D01*
X-106Y2579D01*
X-60Y2610D01*
X-29Y2656D01*
X-18Y2711D01*
X-29Y2766D01*
X-60Y2812D01*
X-106Y2843D01*
X-161Y2854D01*
D02*
G37*
G36*
X-5350Y2603D02*
X-5409Y2591D01*
X-5458Y2558D01*
X-5491Y2509D01*
X-5503Y2450D01*
X-5491Y2391D01*
X-5458Y2342D01*
X-5409Y2309D01*
X-5350Y2297D01*
X-5291Y2309D01*
X-5242Y2342D01*
X-5209Y2391D01*
X-5197Y2450D01*
X-5209Y2509D01*
X-5242Y2558D01*
X-5291Y2591D01*
X-5350Y2603D01*
D02*
G37*
G36*
X5160Y2165D02*
X5134Y2160D01*
X5077Y2123D01*
X5040Y2066D01*
X5035Y2040D01*
X5160D01*
Y2165D01*
D02*
G37*
G36*
X3340D02*
Y2040D01*
X3465D01*
X3460Y2066D01*
X3423Y2123D01*
X3366Y2160D01*
X3340Y2165D01*
D02*
G37*
G36*
X3260D02*
X3234Y2160D01*
X3177Y2123D01*
X3140Y2066D01*
X3135Y2040D01*
X3260D01*
Y2165D01*
D02*
G37*
G36*
X-3815Y2670D02*
Y2505D01*
Y2339D01*
X-3788Y2345D01*
X-3778Y2351D01*
X-3729Y2342D01*
X-3701Y2299D01*
X-3655Y2268D01*
X-3600Y2257D01*
X-3545Y2268D01*
X-3499Y2299D01*
X-3468Y2345D01*
X-3457Y2400D01*
X-3468Y2455D01*
X-3499Y2501D01*
X-3545Y2532D01*
X-3600Y2543D01*
X-3651Y2533D01*
X-3692Y2560D01*
X-3695Y2571D01*
X-3732Y2627D01*
X-3788Y2665D01*
X-3815Y2670D01*
D02*
G37*
G36*
X539Y2443D02*
X484Y2432D01*
X438Y2401D01*
X407Y2355D01*
X396Y2300D01*
X400Y2277D01*
X359Y2250D01*
X355Y2252D01*
X300Y2263D01*
X245Y2252D01*
X199Y2221D01*
X168Y2175D01*
X157Y2120D01*
X165Y2082D01*
X137Y2040D01*
X95Y2032D01*
X49Y2001D01*
X18Y1955D01*
X7Y1900D01*
X18Y1845D01*
X49Y1799D01*
X95Y1768D01*
X150Y1757D01*
X205Y1768D01*
X251Y1799D01*
X282Y1845D01*
X293Y1900D01*
X285Y1939D01*
X313Y1980D01*
X355Y1989D01*
X401Y2020D01*
X432Y2066D01*
X443Y2120D01*
X438Y2143D01*
X480Y2171D01*
X484Y2168D01*
X539Y2157D01*
X593Y2168D01*
X640Y2199D01*
X670Y2245D01*
X681Y2300D01*
X670Y2355D01*
X640Y2401D01*
X593Y2432D01*
X539Y2443D01*
D02*
G37*
G36*
X-317Y2460D02*
X-372Y2449D01*
X-418Y2418D01*
X-449Y2372D01*
X-460Y2317D01*
X-449Y2263D01*
X-418Y2216D01*
X-372Y2185D01*
X-317Y2175D01*
X-263Y2185D01*
X-216Y2216D01*
X-185Y2263D01*
X-175Y2317D01*
X-185Y2372D01*
X-216Y2418D01*
X-263Y2449D01*
X-317Y2460D01*
D02*
G37*
G36*
X-1760Y1015D02*
Y890D01*
X-1635D01*
X-1640Y916D01*
X-1677Y973D01*
X-1734Y1010D01*
X-1760Y1015D01*
D02*
G37*
G36*
X1756Y1127D02*
X1701Y1116D01*
X1655Y1085D01*
X1624Y1039D01*
X1613Y984D01*
X1624Y930D01*
X1655Y883D01*
X1701Y852D01*
X1756Y842D01*
X1811Y852D01*
X1857Y883D01*
X1888Y930D01*
X1899Y984D01*
X1888Y1039D01*
X1857Y1085D01*
X1811Y1116D01*
X1756Y1127D01*
D02*
G37*
G36*
X1427Y1066D02*
X1373Y1055D01*
X1326Y1024D01*
X1295Y977D01*
X1284Y923D01*
X1295Y868D01*
X1326Y822D01*
X1373Y791D01*
X1427Y780D01*
X1482Y791D01*
X1528Y822D01*
X1559Y868D01*
X1570Y923D01*
X1559Y977D01*
X1528Y1024D01*
X1482Y1055D01*
X1427Y1066D01*
D02*
G37*
G36*
X60Y1260D02*
X-65D01*
X-60Y1234D01*
X-23Y1177D01*
X34Y1140D01*
X60Y1135D01*
Y1260D01*
D02*
G37*
G36*
X-400Y1293D02*
X-455Y1282D01*
X-501Y1251D01*
X-532Y1205D01*
X-543Y1150D01*
X-532Y1095D01*
X-501Y1049D01*
X-455Y1018D01*
X-400Y1007D01*
X-345Y1018D01*
X-299Y1049D01*
X-268Y1095D01*
X-257Y1150D01*
X-268Y1205D01*
X-299Y1251D01*
X-345Y1282D01*
X-400Y1293D01*
D02*
G37*
G36*
X-1840Y1015D02*
X-1866Y1010D01*
X-1923Y973D01*
X-1933Y957D01*
X-1955D01*
X-2001Y988D01*
X-2056Y999D01*
X-2111Y988D01*
X-2157Y957D01*
X-2188Y911D01*
X-2199Y856D01*
X-2188Y801D01*
X-2157Y755D01*
X-2111Y724D01*
X-2056Y713D01*
X-2001Y724D01*
X-1975Y742D01*
X-1926Y732D01*
X-1923Y727D01*
X-1895Y709D01*
X-1902Y659D01*
X-1995Y631D01*
X-2113Y568D01*
X-2217Y483D01*
X-2302Y380D01*
X-2365Y261D01*
X-2404Y133D01*
X-2417Y1D01*
X-2467Y-1D01*
X-2468Y5D01*
X-2499Y51D01*
X-2545Y82D01*
X-2600Y93D01*
X-2655Y82D01*
X-2701Y51D01*
X-2732Y5D01*
X-2743Y-50D01*
X-2732Y-105D01*
X-2701Y-151D01*
X-2655Y-182D01*
X-2600Y-193D01*
X-2545Y-182D01*
X-2499Y-151D01*
X-2468Y-105D01*
X-2460Y-65D01*
X-2410Y-68D01*
X-2404Y-133D01*
X-2365Y-261D01*
X-2302Y-380D01*
X-2217Y-483D01*
X-2113Y-568D01*
X-1995Y-631D01*
X-1867Y-670D01*
X-1734Y-683D01*
X-1601Y-670D01*
X-1472Y-631D01*
X-1354Y-568D01*
X-1251Y-483D01*
X-1166Y-380D01*
X-1103Y-261D01*
X-1064Y-133D01*
X-1051Y0D01*
X-1064Y133D01*
X-1103Y261D01*
X-1166Y380D01*
X-1251Y483D01*
X-1354Y568D01*
X-1472Y631D01*
X-1601Y670D01*
X-1669Y677D01*
X-1681Y725D01*
X-1677Y727D01*
X-1640Y784D01*
X-1635Y810D01*
X-1800D01*
Y850D01*
X-1840D01*
Y1015D01*
D02*
G37*
G36*
X548Y895D02*
X493Y884D01*
X447Y853D01*
X416Y807D01*
X405Y752D01*
X416Y698D01*
X447Y651D01*
X493Y620D01*
X548Y610D01*
X602Y620D01*
X649Y651D01*
X680Y698D01*
X690Y752D01*
X680Y807D01*
X649Y853D01*
X602Y884D01*
X548Y895D01*
D02*
G37*
G36*
X5010Y686D02*
X4976Y679D01*
X4913Y637D01*
X4871Y574D01*
X4864Y540D01*
X5010D01*
Y686D01*
D02*
G37*
G36*
X-3911Y657D02*
Y491D01*
X-3745D01*
X-3753Y533D01*
X-3800Y603D01*
X-3869Y649D01*
X-3911Y657D01*
D02*
G37*
G36*
X-3991D02*
X-4033Y649D01*
X-4103Y603D01*
X-4149Y533D01*
X-4157Y491D01*
X-3991D01*
Y657D01*
D02*
G37*
G36*
X-348Y895D02*
X-402Y884D01*
X-449Y853D01*
X-480Y807D01*
X-490Y752D01*
X-480Y698D01*
X-449Y651D01*
X-402Y620D01*
X-348Y610D01*
X-293Y620D01*
X-247Y651D01*
X-216Y698D01*
X-205Y752D01*
X-216Y807D01*
X-247Y853D01*
X-293Y884D01*
X-348Y895D01*
D02*
G37*
G36*
X950Y893D02*
X895Y882D01*
X849Y851D01*
X818Y805D01*
X807Y750D01*
X818Y695D01*
X849Y649D01*
X895Y618D01*
X950Y607D01*
X1005Y618D01*
X1051Y649D01*
X1082Y695D01*
X1093Y750D01*
X1082Y805D01*
X1051Y851D01*
X1005Y882D01*
X950Y893D01*
D02*
G37*
G36*
X5090Y686D02*
Y540D01*
X5236D01*
X5229Y574D01*
X5187Y637D01*
X5124Y679D01*
X5090Y686D01*
D02*
G37*
G36*
X265Y1260D02*
X140D01*
Y1135D01*
X166Y1140D01*
X223Y1177D01*
X260Y1234D01*
X265Y1260D01*
D02*
G37*
G36*
X-650Y1793D02*
X-705Y1782D01*
X-751Y1751D01*
X-782Y1705D01*
X-793Y1650D01*
X-782Y1595D01*
X-751Y1549D01*
X-705Y1518D01*
X-650Y1507D01*
X-595Y1518D01*
X-549Y1549D01*
X-518Y1595D01*
X-507Y1650D01*
X-518Y1705D01*
X-549Y1751D01*
X-595Y1782D01*
X-650Y1793D01*
D02*
G37*
G36*
X-4510Y1586D02*
Y1440D01*
X-4364D01*
X-4371Y1474D01*
X-4413Y1537D01*
X-4476Y1579D01*
X-4510Y1586D01*
D02*
G37*
G36*
X-4590D02*
X-4624Y1579D01*
X-4687Y1537D01*
X-4729Y1474D01*
X-4736Y1440D01*
X-4590D01*
Y1586D01*
D02*
G37*
G36*
X5160Y1960D02*
X5017D01*
X5000Y1943D01*
X4945Y1932D01*
X4899Y1901D01*
X4868Y1855D01*
X4857Y1800D01*
X4868Y1745D01*
X4899Y1699D01*
X4945Y1668D01*
X5000Y1657D01*
X5055Y1668D01*
X5101Y1699D01*
X5132Y1745D01*
X5143Y1800D01*
X5160Y1817D01*
Y1960D01*
D02*
G37*
G36*
X-3660Y1765D02*
Y1640D01*
X-3535D01*
X-3540Y1666D01*
X-3577Y1723D01*
X-3634Y1760D01*
X-3660Y1765D01*
D02*
G37*
G36*
X4100Y1893D02*
X4045Y1882D01*
X3999Y1851D01*
X3968Y1805D01*
X3957Y1750D01*
X3968Y1695D01*
X3999Y1649D01*
X4045Y1618D01*
X4100Y1607D01*
X4155Y1618D01*
X4201Y1649D01*
X4232Y1695D01*
X4243Y1750D01*
X4232Y1805D01*
X4201Y1851D01*
X4155Y1882D01*
X4100Y1893D01*
D02*
G37*
G36*
X-3535Y1560D02*
X-3660D01*
Y1435D01*
X-3634Y1440D01*
X-3577Y1477D01*
X-3540Y1534D01*
X-3535Y1560D01*
D02*
G37*
G36*
X-4364Y1360D02*
X-4510D01*
Y1214D01*
X-4476Y1221D01*
X-4413Y1263D01*
X-4371Y1326D01*
X-4364Y1360D01*
D02*
G37*
G36*
X-4590D02*
X-4736D01*
X-4729Y1326D01*
X-4687Y1263D01*
X-4624Y1221D01*
X-4590Y1214D01*
Y1360D01*
D02*
G37*
G36*
X2233Y1460D02*
X2178Y1449D01*
X2132Y1418D01*
X2101Y1372D01*
X2090Y1317D01*
X2101Y1263D01*
X2132Y1216D01*
X2178Y1185D01*
X2233Y1175D01*
X2287Y1185D01*
X2334Y1216D01*
X2365Y1263D01*
X2365Y1263D01*
X2415D01*
X2418Y1245D01*
X2449Y1199D01*
X2495Y1168D01*
X2550Y1157D01*
X2605Y1168D01*
X2651Y1199D01*
X2682Y1245D01*
X2693Y1300D01*
X2682Y1355D01*
X2651Y1401D01*
X2605Y1432D01*
X2550Y1443D01*
X2495Y1432D01*
X2449Y1401D01*
X2418Y1355D01*
X2418Y1354D01*
X2368D01*
X2365Y1372D01*
X2334Y1418D01*
X2287Y1449D01*
X2233Y1460D01*
D02*
G37*
G36*
X140Y1465D02*
Y1340D01*
X265D01*
X260Y1366D01*
X223Y1423D01*
X166Y1460D01*
X140Y1465D01*
D02*
G37*
G36*
X60D02*
X34Y1460D01*
X-23Y1423D01*
X-60Y1366D01*
X-65Y1340D01*
X60D01*
Y1465D01*
D02*
G37*
G36*
X461Y1454D02*
X406Y1443D01*
X360Y1412D01*
X329Y1366D01*
X320Y1318D01*
X306D01*
Y1293D01*
X320D01*
Y1293D01*
X322D01*
X329Y1256D01*
X360Y1210D01*
X406Y1179D01*
X461Y1168D01*
X516Y1179D01*
X562Y1210D01*
X593Y1256D01*
X604Y1311D01*
X593Y1366D01*
X562Y1412D01*
X516Y1443D01*
X461Y1454D01*
D02*
G37*
%LPD*%
D10*
X-5900Y-150D02*
G03*
X2421Y-5304I5850J150D01*
G01*
D46*
X-5900Y-150D02*
X-5850Y-200D01*
D52*
X5200Y2000D02*
D03*
X-4800Y-2850D02*
D03*
X-1300Y-1000D02*
D03*
X3600Y2900D02*
D03*
X3550Y-2300D02*
D03*
X3050Y-1900D02*
D03*
X-1600Y4400D02*
D03*
X2273Y-4527D02*
D03*
X-877Y5373D02*
D03*
X1250Y-850D02*
D03*
X-3700Y1600D02*
D03*
X-1800Y850D02*
D03*
X1927Y-1177D02*
D03*
X2342Y-2358D02*
D03*
X4139Y-1289D02*
D03*
X2208Y-492D02*
D03*
X3350Y-1350D02*
D03*
X100Y1300D02*
D03*
X-3855Y2505D02*
D03*
X-1850Y4400D02*
D03*
X-4600Y3450D02*
D03*
X-3500Y4900D02*
D03*
X-1276Y5426D02*
D03*
X-1123Y-4277D02*
D03*
X-1623Y-5077D02*
D03*
X23Y-5177D02*
D03*
X1950Y5600D02*
D03*
X-1150Y-5350D02*
D03*
X1900Y-5250D02*
D03*
X3300Y2000D02*
D03*
X-1650Y-4350D02*
D03*
X2400Y-3400D02*
D03*
D53*
X1516Y-3716D02*
D03*
X1083D02*
D03*
X650D02*
D03*
X217D02*
D03*
X-216D02*
D03*
X1516Y-3283D02*
D03*
X1083D02*
D03*
X650D02*
D03*
X217D02*
D03*
X-216D02*
D03*
X1516Y-2850D02*
D03*
X1083D02*
D03*
X650D02*
D03*
X217D02*
D03*
X-216D02*
D03*
X1516Y-2417D02*
D03*
X1083D02*
D03*
X650D02*
D03*
X217D02*
D03*
X-216D02*
D03*
X1516Y-1984D02*
D03*
X1083D02*
D03*
X650D02*
D03*
X217D02*
D03*
X-216D02*
D03*
X1800Y2750D02*
D03*
X1367D02*
D03*
X933D02*
D03*
X500D02*
D03*
X1800Y3183D02*
D03*
X1367D02*
D03*
X933D02*
D03*
X500D02*
D03*
X1800Y3617D02*
D03*
X1367D02*
D03*
X933D02*
D03*
X500D02*
D03*
X1800Y4050D02*
D03*
X1367D02*
D03*
X933D02*
D03*
X500D02*
D03*
X-2384Y-1700D02*
D03*
Y-2133D02*
D03*
Y-2567D02*
D03*
Y-3000D02*
D03*
X-2817Y-1700D02*
D03*
Y-2133D02*
D03*
Y-2567D02*
D03*
Y-3000D02*
D03*
X-3250Y-1700D02*
D03*
Y-2133D02*
D03*
Y-2567D02*
D03*
Y-3000D02*
D03*
X-3683Y-1700D02*
D03*
Y-2133D02*
D03*
Y-2567D02*
D03*
Y-3000D02*
D03*
X-4116Y-1700D02*
D03*
Y-2133D02*
D03*
Y-2567D02*
D03*
Y-3000D02*
D03*
D54*
X3450Y0D02*
D03*
D55*
X-5900Y-150D02*
D03*
X-3951Y451D02*
D03*
D56*
X-5100Y200D02*
D03*
X-4550Y1400D02*
D03*
X-4860Y1940D02*
D03*
X2400Y-5300D02*
D03*
X5050Y500D02*
D03*
M02*
