%FSLAX24Y24*%
%MOIN*%
G70*
G01*
G75*
G04 Layer_Physical_Order=4*
G04 Layer_Color=16711680*
%ADD10R,0.0354X0.0276*%
%ADD11R,0.0315X0.0354*%
%ADD12R,0.0354X0.0315*%
%ADD13R,0.0236X0.0197*%
%ADD14R,0.0236X0.0591*%
%ADD15R,0.0197X0.0236*%
%ADD16R,0.0335X0.0157*%
%ADD17R,0.0276X0.0354*%
%ADD18R,0.0157X0.0335*%
%ADD19R,0.0512X0.0217*%
%ADD20R,0.0157X0.0157*%
%ADD21R,0.0118X0.0209*%
%ADD22R,0.0118X0.0193*%
%ADD23O,0.0118X0.0650*%
%ADD24R,0.0394X0.0217*%
G04:AMPARAMS|DCode=25|XSize=59.8mil|YSize=30mil|CornerRadius=0mil|HoleSize=0mil|Usage=FLASHONLY|Rotation=225.000|XOffset=0mil|YOffset=0mil|HoleType=Round|Shape=Rectangle|*
%AMROTATEDRECTD25*
4,1,4,0.0106,0.0318,0.0318,0.0106,-0.0106,-0.0318,-0.0318,-0.0106,0.0106,0.0318,0.0*
%
%ADD25ROTATEDRECTD25*%

G04:AMPARAMS|DCode=26|XSize=59.8mil|YSize=30mil|CornerRadius=0mil|HoleSize=0mil|Usage=FLASHONLY|Rotation=135.000|XOffset=0mil|YOffset=0mil|HoleType=Round|Shape=Rectangle|*
%AMROTATEDRECTD26*
4,1,4,0.0318,-0.0106,0.0106,-0.0318,-0.0318,0.0106,-0.0106,0.0318,0.0318,-0.0106,0.0*
%
%ADD26ROTATEDRECTD26*%

G04:AMPARAMS|DCode=27|XSize=60mil|YSize=30mil|CornerRadius=0mil|HoleSize=0mil|Usage=FLASHONLY|Rotation=135.000|XOffset=0mil|YOffset=0mil|HoleType=Round|Shape=Rectangle|*
%AMROTATEDRECTD27*
4,1,4,0.0318,-0.0106,0.0106,-0.0318,-0.0318,0.0106,-0.0106,0.0318,0.0318,-0.0106,0.0*
%
%ADD27ROTATEDRECTD27*%

%ADD28R,0.0240X0.1750*%
G04:AMPARAMS|DCode=29|XSize=35.4mil|YSize=31.5mil|CornerRadius=0mil|HoleSize=0mil|Usage=FLASHONLY|Rotation=315.000|XOffset=0mil|YOffset=0mil|HoleType=Round|Shape=Rectangle|*
%AMROTATEDRECTD29*
4,1,4,-0.0237,0.0014,-0.0014,0.0237,0.0237,-0.0014,0.0014,-0.0237,-0.0237,0.0014,0.0*
%
%ADD29ROTATEDRECTD29*%

%ADD30R,0.0098X0.0591*%
%ADD31R,0.0394X0.0591*%
%ADD32C,0.0120*%
%ADD33C,0.0150*%
%ADD34C,0.0200*%
%ADD35C,0.0984*%
%ADD36C,0.0591*%
%ADD37C,0.0661*%
%ADD38C,0.1772*%
%ADD39C,0.0400*%
%ADD40C,0.0320*%
%ADD41R,0.0661X0.0319*%
G36*
X9900Y14216D02*
X9853Y14199D01*
X9839Y14218D01*
X9784Y14259D01*
X9721Y14285D01*
X9693Y14289D01*
Y14032D01*
Y13775D01*
X9721Y13779D01*
X9784Y13805D01*
X9839Y13847D01*
X9853Y13865D01*
X9900Y13849D01*
Y8823D01*
X9127Y8050D01*
X9052Y8081D01*
X8950Y8094D01*
X8848Y8081D01*
X8753Y8041D01*
X8671Y7979D01*
X8609Y7897D01*
X8569Y7802D01*
X8556Y7700D01*
X8560Y7665D01*
X8553Y7655D01*
X8521Y7631D01*
X8468Y7653D01*
X8440Y7657D01*
Y7400D01*
Y7143D01*
X8468Y7147D01*
X8531Y7173D01*
X8585Y7215D01*
X8627Y7269D01*
X8653Y7332D01*
X8659Y7376D01*
X8705Y7395D01*
X8753Y7359D01*
X8848Y7319D01*
X8950Y7306D01*
X9052Y7319D01*
X9147Y7359D01*
X9229Y7421D01*
X9291Y7503D01*
X9294Y7508D01*
X9343Y7513D01*
X9391Y7441D01*
X9464Y7393D01*
X9550Y7376D01*
X9636Y7393D01*
X9709Y7441D01*
X9757Y7514D01*
X9774Y7600D01*
X9757Y7686D01*
X9709Y7759D01*
X9636Y7807D01*
X9550Y7824D01*
X9464Y7807D01*
X9391Y7759D01*
X9385Y7749D01*
X9336Y7760D01*
X9331Y7802D01*
X9300Y7877D01*
X9854Y8431D01*
X9900Y8412D01*
Y7000D01*
X4464D01*
X4437Y7042D01*
X4453Y7082D01*
X4457Y7110D01*
X3943D01*
X3947Y7082D01*
X3963Y7042D01*
X3936Y7000D01*
X3022D01*
Y8199D01*
X5051Y10228D01*
X5649D01*
X5900Y9977D01*
X5869Y9902D01*
X5856Y9800D01*
X5869Y9698D01*
X5909Y9603D01*
X5971Y9521D01*
X6053Y9459D01*
X6148Y9419D01*
X6250Y9406D01*
X6352Y9419D01*
X6447Y9459D01*
X6529Y9521D01*
X6591Y9603D01*
X6631Y9698D01*
X6644Y9800D01*
X6631Y9902D01*
X6591Y9997D01*
X6529Y10079D01*
X6447Y10141D01*
X6352Y10181D01*
X6250Y10194D01*
X6148Y10181D01*
X6073Y10150D01*
X5787Y10437D01*
X5747Y10463D01*
X5700Y10472D01*
X5000D01*
X4953Y10463D01*
X4913Y10437D01*
X2813Y8337D01*
X2787Y8297D01*
X2778Y8250D01*
Y7000D01*
X2173D01*
X1822Y7351D01*
Y9599D01*
X2801Y10578D01*
X7100D01*
X7147Y10587D01*
X7187Y10613D01*
X7187Y10613D01*
X7187Y10613D01*
X7737Y11163D01*
X7763Y11203D01*
X7763Y11203D01*
X7763Y11203D01*
X7772Y11250D01*
Y12149D01*
X8361Y12738D01*
X8411Y12735D01*
X8421Y12721D01*
X8503Y12659D01*
X8598Y12619D01*
X8700Y12606D01*
X8802Y12619D01*
X8897Y12659D01*
X8979Y12721D01*
X9041Y12803D01*
X9081Y12898D01*
X9094Y13000D01*
X9081Y13102D01*
X9041Y13197D01*
X8979Y13279D01*
X8897Y13341D01*
X8802Y13381D01*
X8700Y13394D01*
X8598Y13381D01*
X8503Y13341D01*
X8421Y13279D01*
X8359Y13197D01*
X8319Y13102D01*
X8310Y13033D01*
X7563Y12287D01*
X7537Y12247D01*
X7528Y12200D01*
Y11301D01*
X7049Y10822D01*
X2750D01*
X2703Y10813D01*
X2663Y10787D01*
X1613Y9737D01*
X1587Y9697D01*
X1578Y9650D01*
Y7300D01*
X1578Y7300D01*
X1578D01*
X1587Y7253D01*
X1613Y7213D01*
X1781Y7046D01*
X1762Y7000D01*
X1621D01*
X121Y8500D01*
X8535Y16915D01*
X9900D01*
Y14216D01*
D02*
G37*
G36*
X19475Y13075D02*
X19475Y13025D01*
X14950Y8550D01*
X12942Y10558D01*
X12932Y10654D01*
X12878Y10832D01*
X12790Y10997D01*
X12672Y11141D01*
X12528Y11259D01*
X12364Y11347D01*
X12185Y11401D01*
X12090Y11410D01*
X11322Y12178D01*
X11331Y12198D01*
X11344Y12300D01*
X11331Y12402D01*
X11291Y12497D01*
X11229Y12579D01*
X11147Y12641D01*
X11052Y12681D01*
X10950Y12694D01*
X10848Y12681D01*
X10828Y12672D01*
X10050Y13450D01*
Y14300D01*
X14420D01*
X14436Y14253D01*
X14386Y14214D01*
X14338Y14151D01*
X14308Y14078D01*
X14303Y14040D01*
X14897D01*
X14892Y14078D01*
X14862Y14151D01*
X14814Y14214D01*
X14764Y14253D01*
X14780Y14300D01*
X18250D01*
X19475Y13075D01*
D02*
G37*
%LPC*%
G36*
X12347Y12010D02*
X12090D01*
Y11753D01*
X12128Y11758D01*
X12201Y11788D01*
X12264Y11836D01*
X12312Y11899D01*
X12342Y11972D01*
X12347Y12010D01*
D02*
G37*
G36*
X4557Y11960D02*
X4340D01*
Y11743D01*
X4368Y11747D01*
X4431Y11773D01*
X4485Y11815D01*
X4527Y11869D01*
X4553Y11932D01*
X4557Y11960D01*
D02*
G37*
G36*
X12010Y12010D02*
X11753D01*
X11758Y11972D01*
X11788Y11899D01*
X11836Y11836D01*
X11899Y11788D01*
X11972Y11758D01*
X12010Y11753D01*
Y12010D01*
D02*
G37*
G36*
X17197Y12210D02*
X16940D01*
Y11953D01*
X16978Y11958D01*
X17051Y11988D01*
X17114Y12036D01*
X17162Y12099D01*
X17192Y12172D01*
X17197Y12210D01*
D02*
G37*
G36*
X14470Y12220D02*
X14213D01*
X14218Y12182D01*
X14248Y12109D01*
X14296Y12046D01*
X14359Y11998D01*
X14432Y11968D01*
X14470Y11963D01*
Y12220D01*
D02*
G37*
G36*
X7150Y12274D02*
X7064Y12257D01*
X6991Y12209D01*
X6943Y12136D01*
X6926Y12050D01*
X6943Y11964D01*
X6991Y11891D01*
X7064Y11843D01*
X7150Y11826D01*
X7236Y11843D01*
X7309Y11891D01*
X7357Y11964D01*
X7374Y12050D01*
X7357Y12136D01*
X7309Y12209D01*
X7236Y12257D01*
X7150Y12274D01*
D02*
G37*
G36*
X16860Y12210D02*
X16603D01*
X16608Y12172D01*
X16638Y12099D01*
X16686Y12036D01*
X16749Y11988D01*
X16822Y11958D01*
X16860Y11953D01*
Y12210D01*
D02*
G37*
G36*
X4260Y11960D02*
X4043D01*
X4047Y11932D01*
X4073Y11869D01*
X4115Y11815D01*
X4169Y11773D01*
X4232Y11747D01*
X4260Y11743D01*
Y11960D01*
D02*
G37*
G36*
X16010Y11647D02*
X15972Y11642D01*
X15899Y11612D01*
X15836Y11564D01*
X15788Y11501D01*
X15758Y11428D01*
X15753Y11390D01*
X16010D01*
Y11647D01*
D02*
G37*
G36*
X7357Y11460D02*
X7140D01*
Y11243D01*
X7168Y11247D01*
X7231Y11273D01*
X7285Y11315D01*
X7327Y11369D01*
X7353Y11432D01*
X7357Y11460D01*
D02*
G37*
G36*
X7060D02*
X6843D01*
X6847Y11432D01*
X6873Y11369D01*
X6915Y11315D01*
X6969Y11273D01*
X7032Y11247D01*
X7060Y11243D01*
Y11460D01*
D02*
G37*
G36*
X16090Y11647D02*
Y11390D01*
X16347D01*
X16342Y11428D01*
X16312Y11501D01*
X16264Y11564D01*
X16201Y11612D01*
X16128Y11642D01*
X16090Y11647D01*
D02*
G37*
G36*
X8350Y12024D02*
X8264Y12007D01*
X8191Y11959D01*
X8143Y11886D01*
X8126Y11800D01*
X8143Y11714D01*
X8191Y11641D01*
X8264Y11593D01*
X8350Y11576D01*
X8436Y11593D01*
X8509Y11641D01*
X8557Y11714D01*
X8574Y11800D01*
X8557Y11886D01*
X8509Y11959D01*
X8436Y12007D01*
X8350Y12024D01*
D02*
G37*
G36*
X7140Y11757D02*
Y11540D01*
X7357D01*
X7353Y11568D01*
X7327Y11631D01*
X7285Y11685D01*
X7231Y11727D01*
X7168Y11753D01*
X7140Y11757D01*
D02*
G37*
G36*
X7060D02*
X7032Y11753D01*
X6969Y11727D01*
X6915Y11685D01*
X6873Y11631D01*
X6847Y11568D01*
X6843Y11540D01*
X7060D01*
Y11757D01*
D02*
G37*
G36*
X14807Y12220D02*
X14550D01*
Y11963D01*
X14588Y11968D01*
X14661Y11998D01*
X14724Y12046D01*
X14772Y12109D01*
X14802Y12182D01*
X14807Y12220D01*
D02*
G37*
G36*
X16860Y12547D02*
X16822Y12542D01*
X16749Y12512D01*
X16686Y12464D01*
X16638Y12401D01*
X16608Y12328D01*
X16603Y12290D01*
X16860D01*
Y12547D01*
D02*
G37*
G36*
X6000Y12624D02*
X5914Y12607D01*
X5841Y12559D01*
X5793Y12486D01*
X5776Y12400D01*
X5793Y12314D01*
X5841Y12241D01*
X5914Y12193D01*
X6000Y12176D01*
X6086Y12193D01*
X6159Y12241D01*
X6207Y12314D01*
X6224Y12400D01*
X6207Y12486D01*
X6159Y12559D01*
X6086Y12607D01*
X6000Y12624D01*
D02*
G37*
G36*
X12090Y12347D02*
Y12090D01*
X12347D01*
X12342Y12128D01*
X12312Y12201D01*
X12264Y12264D01*
X12201Y12312D01*
X12128Y12342D01*
X12090Y12347D01*
D02*
G37*
G36*
X16940Y12547D02*
Y12290D01*
X17197D01*
X17192Y12328D01*
X17162Y12401D01*
X17114Y12464D01*
X17051Y12512D01*
X16978Y12542D01*
X16940Y12547D01*
D02*
G37*
G36*
X15270Y12557D02*
X15232Y12552D01*
X15159Y12522D01*
X15096Y12474D01*
X15048Y12411D01*
X15018Y12338D01*
X15013Y12300D01*
X15270D01*
Y12557D01*
D02*
G37*
G36*
X14550D02*
Y12300D01*
X14807D01*
X14802Y12338D01*
X14772Y12411D01*
X14724Y12474D01*
X14661Y12522D01*
X14588Y12552D01*
X14550Y12557D01*
D02*
G37*
G36*
X14470D02*
X14432Y12552D01*
X14359Y12522D01*
X14296Y12474D01*
X14248Y12411D01*
X14218Y12338D01*
X14213Y12300D01*
X14470D01*
Y12557D01*
D02*
G37*
G36*
X12010Y12347D02*
X11972Y12342D01*
X11899Y12312D01*
X11836Y12264D01*
X11788Y12201D01*
X11758Y12128D01*
X11753Y12090D01*
X12010D01*
Y12347D01*
D02*
G37*
G36*
X16070Y12220D02*
X15813D01*
X15818Y12182D01*
X15848Y12109D01*
X15896Y12046D01*
X15959Y11998D01*
X16032Y11968D01*
X16070Y11963D01*
Y12220D01*
D02*
G37*
G36*
X15607D02*
X15350D01*
Y11963D01*
X15388Y11968D01*
X15461Y11998D01*
X15524Y12046D01*
X15572Y12109D01*
X15602Y12182D01*
X15607Y12220D01*
D02*
G37*
G36*
X15270D02*
X15013D01*
X15018Y12182D01*
X15048Y12109D01*
X15096Y12046D01*
X15159Y11998D01*
X15232Y11968D01*
X15270Y11963D01*
Y12220D01*
D02*
G37*
G36*
X16407D02*
X16150D01*
Y11963D01*
X16188Y11968D01*
X16261Y11998D01*
X16324Y12046D01*
X16372Y12109D01*
X16402Y12182D01*
X16407Y12220D01*
D02*
G37*
G36*
X6650Y12524D02*
X6564Y12507D01*
X6491Y12459D01*
X6443Y12386D01*
X6426Y12300D01*
X6443Y12214D01*
X6491Y12141D01*
X6564Y12093D01*
X6650Y12076D01*
X6736Y12093D01*
X6809Y12141D01*
X6857Y12214D01*
X6874Y12300D01*
X6857Y12386D01*
X6809Y12459D01*
X6736Y12507D01*
X6650Y12524D01*
D02*
G37*
G36*
X4340Y12257D02*
Y12040D01*
X4557D01*
X4553Y12068D01*
X4527Y12131D01*
X4485Y12185D01*
X4431Y12227D01*
X4368Y12253D01*
X4340Y12257D01*
D02*
G37*
G36*
X4260D02*
X4232Y12253D01*
X4169Y12227D01*
X4115Y12185D01*
X4073Y12131D01*
X4047Y12068D01*
X4043Y12040D01*
X4260D01*
Y12257D01*
D02*
G37*
G36*
X16347Y11310D02*
X16090D01*
Y11053D01*
X16128Y11058D01*
X16201Y11088D01*
X16264Y11136D01*
X16312Y11199D01*
X16342Y11272D01*
X16347Y11310D01*
D02*
G37*
G36*
X9550Y9424D02*
X9464Y9407D01*
X9391Y9359D01*
X9343Y9286D01*
X9326Y9200D01*
X9343Y9114D01*
X9391Y9041D01*
X9464Y8993D01*
X9550Y8976D01*
X9636Y8993D01*
X9709Y9041D01*
X9757Y9114D01*
X9774Y9200D01*
X9757Y9286D01*
X9709Y9359D01*
X9636Y9407D01*
X9550Y9424D01*
D02*
G37*
G36*
X3850Y8674D02*
X3764Y8657D01*
X3691Y8609D01*
X3643Y8536D01*
X3626Y8450D01*
X3643Y8364D01*
X3691Y8291D01*
X3764Y8243D01*
X3850Y8226D01*
X3936Y8243D01*
X4009Y8291D01*
X4057Y8364D01*
X4074Y8450D01*
X4057Y8536D01*
X4009Y8609D01*
X3936Y8657D01*
X3850Y8674D01*
D02*
G37*
G36*
X2400Y8374D02*
X2314Y8357D01*
X2241Y8309D01*
X2193Y8236D01*
X2176Y8150D01*
X2193Y8064D01*
X2241Y7991D01*
X2314Y7943D01*
X2400Y7926D01*
X2486Y7943D01*
X2559Y7991D01*
X2607Y8064D01*
X2624Y8150D01*
X2607Y8236D01*
X2559Y8309D01*
X2486Y8357D01*
X2400Y8374D01*
D02*
G37*
G36*
X8900Y9844D02*
X8798Y9831D01*
X8703Y9791D01*
X8621Y9729D01*
X8559Y9647D01*
X8519Y9552D01*
X8506Y9450D01*
X8519Y9348D01*
X8559Y9253D01*
X8621Y9171D01*
X8703Y9109D01*
X8798Y9069D01*
X8900Y9056D01*
X9002Y9069D01*
X9097Y9109D01*
X9179Y9171D01*
X9241Y9253D01*
X9281Y9348D01*
X9294Y9450D01*
X9281Y9552D01*
X9241Y9647D01*
X9179Y9729D01*
X9097Y9791D01*
X9002Y9831D01*
X8900Y9844D01*
D02*
G37*
G36*
X2700Y10144D02*
X2598Y10131D01*
X2503Y10091D01*
X2421Y10029D01*
X2359Y9947D01*
X2319Y9852D01*
X2306Y9750D01*
X2319Y9648D01*
X2359Y9553D01*
X2421Y9471D01*
X2503Y9409D01*
X2598Y9369D01*
X2700Y9356D01*
X2802Y9369D01*
X2897Y9409D01*
X2979Y9471D01*
X3041Y9553D01*
X3081Y9648D01*
X3094Y9750D01*
X3081Y9852D01*
X3041Y9947D01*
X2979Y10029D01*
X2897Y10091D01*
X2802Y10131D01*
X2700Y10144D01*
D02*
G37*
G36*
X14747Y9960D02*
X14490D01*
Y9703D01*
X14518Y9706D01*
X14536Y9660D01*
X14535Y9659D01*
X14486Y9586D01*
X14469Y9500D01*
X14486Y9414D01*
X14535Y9341D01*
X14607Y9293D01*
X14693Y9276D01*
X14779Y9293D01*
X14852Y9341D01*
X14900Y9414D01*
X14917Y9500D01*
X14900Y9586D01*
X14852Y9659D01*
X14779Y9707D01*
X14693Y9724D01*
X14653Y9716D01*
X14633Y9762D01*
X14664Y9786D01*
X14712Y9849D01*
X14742Y9922D01*
X14747Y9960D01*
D02*
G37*
G36*
X5000Y9894D02*
X4898Y9881D01*
X4803Y9841D01*
X4721Y9779D01*
X4659Y9697D01*
X4619Y9602D01*
X4606Y9500D01*
X4619Y9398D01*
X4659Y9303D01*
X4721Y9221D01*
X4803Y9159D01*
X4898Y9119D01*
X5000Y9106D01*
X5102Y9119D01*
X5197Y9159D01*
X5279Y9221D01*
X5341Y9303D01*
X5381Y9398D01*
X5394Y9500D01*
X5381Y9602D01*
X5341Y9697D01*
X5279Y9779D01*
X5197Y9841D01*
X5102Y9881D01*
X5000Y9894D01*
D02*
G37*
G36*
X4700Y8224D02*
X4614Y8207D01*
X4541Y8159D01*
X4493Y8086D01*
X4476Y8000D01*
X4493Y7914D01*
X4541Y7841D01*
X4614Y7793D01*
X4700Y7776D01*
X4786Y7793D01*
X4859Y7841D01*
X4907Y7914D01*
X4924Y8000D01*
X4907Y8086D01*
X4859Y8159D01*
X4786Y8207D01*
X4700Y8224D01*
D02*
G37*
G36*
X4240Y7407D02*
Y7190D01*
X4457D01*
X4453Y7218D01*
X4427Y7281D01*
X4385Y7335D01*
X4331Y7377D01*
X4268Y7403D01*
X4240Y7407D01*
D02*
G37*
G36*
X4160D02*
X4132Y7403D01*
X4069Y7377D01*
X4015Y7335D01*
X3973Y7281D01*
X3947Y7218D01*
X3943Y7190D01*
X4160D01*
Y7407D01*
D02*
G37*
G36*
X8360Y7360D02*
X8143D01*
X8147Y7332D01*
X8173Y7269D01*
X8215Y7215D01*
X8269Y7173D01*
X8332Y7147D01*
X8360Y7143D01*
Y7360D01*
D02*
G37*
G36*
X2400Y7774D02*
X2314Y7757D01*
X2241Y7709D01*
X2193Y7636D01*
X2176Y7550D01*
X2193Y7464D01*
X2241Y7391D01*
X2314Y7343D01*
X2400Y7326D01*
X2486Y7343D01*
X2559Y7391D01*
X2607Y7464D01*
X2624Y7550D01*
X2607Y7636D01*
X2559Y7709D01*
X2486Y7757D01*
X2400Y7774D01*
D02*
G37*
G36*
X7700Y8524D02*
X7614Y8507D01*
X7541Y8459D01*
X7493Y8386D01*
X7476Y8300D01*
X7493Y8214D01*
X7541Y8141D01*
X7603Y8100D01*
Y8050D01*
X7541Y8009D01*
X7493Y7936D01*
X7476Y7850D01*
X7493Y7764D01*
X7541Y7691D01*
X7614Y7643D01*
X7700Y7626D01*
X7786Y7643D01*
X7859Y7691D01*
X7907Y7764D01*
X7924Y7850D01*
X7907Y7936D01*
X7859Y8009D01*
X7797Y8050D01*
Y8100D01*
X7859Y8141D01*
X7907Y8214D01*
X7924Y8300D01*
X7907Y8386D01*
X7859Y8459D01*
X7786Y8507D01*
X7700Y8524D01*
D02*
G37*
G36*
X7100Y7924D02*
X7014Y7907D01*
X6941Y7859D01*
X6893Y7786D01*
X6876Y7700D01*
X6893Y7614D01*
X6941Y7541D01*
X7014Y7493D01*
X7100Y7476D01*
X7186Y7493D01*
X7259Y7541D01*
X7307Y7614D01*
X7324Y7700D01*
X7307Y7786D01*
X7259Y7859D01*
X7186Y7907D01*
X7100Y7924D01*
D02*
G37*
G36*
X8360Y7657D02*
X8332Y7653D01*
X8269Y7627D01*
X8215Y7585D01*
X8173Y7531D01*
X8147Y7468D01*
X8143Y7440D01*
X8360D01*
Y7657D01*
D02*
G37*
G36*
X7400Y10344D02*
X7298Y10331D01*
X7203Y10291D01*
X7121Y10229D01*
X7059Y10147D01*
X7019Y10052D01*
X7006Y9950D01*
X7019Y9848D01*
X7059Y9753D01*
X7121Y9671D01*
X7203Y9609D01*
X7298Y9569D01*
X7400Y9556D01*
X7502Y9569D01*
X7597Y9609D01*
X7679Y9671D01*
X7741Y9753D01*
X7781Y9848D01*
X7794Y9950D01*
X7781Y10052D01*
X7741Y10147D01*
X7679Y10229D01*
X7597Y10291D01*
X7502Y10331D01*
X7400Y10344D01*
D02*
G37*
G36*
X15340Y10947D02*
Y10690D01*
X15597D01*
X15592Y10728D01*
X15562Y10801D01*
X15514Y10864D01*
X15451Y10912D01*
X15378Y10942D01*
X15340Y10947D01*
D02*
G37*
G36*
X15260D02*
X15222Y10942D01*
X15149Y10912D01*
X15086Y10864D01*
X15038Y10801D01*
X15008Y10728D01*
X15003Y10690D01*
X15260D01*
Y10947D01*
D02*
G37*
G36*
X13797Y10860D02*
X13540D01*
Y10603D01*
X13578Y10608D01*
X13651Y10638D01*
X13714Y10686D01*
X13762Y10749D01*
X13792Y10822D01*
X13797Y10860D01*
D02*
G37*
G36*
X4950Y11374D02*
X4864Y11357D01*
X4791Y11309D01*
X4743Y11236D01*
X4726Y11150D01*
X4743Y11064D01*
X4791Y10991D01*
X4864Y10943D01*
X4950Y10926D01*
X5036Y10943D01*
X5109Y10991D01*
X5157Y11064D01*
X5174Y11150D01*
X5157Y11236D01*
X5109Y11309D01*
X5036Y11357D01*
X4950Y11374D01*
D02*
G37*
G36*
X16010Y11310D02*
X15753D01*
X15758Y11272D01*
X15788Y11199D01*
X15836Y11136D01*
X15899Y11088D01*
X15972Y11058D01*
X16010Y11053D01*
Y11310D01*
D02*
G37*
G36*
X13540Y11197D02*
Y10940D01*
X13797D01*
X13792Y10978D01*
X13762Y11051D01*
X13714Y11114D01*
X13651Y11162D01*
X13578Y11192D01*
X13540Y11197D01*
D02*
G37*
G36*
X13460D02*
X13422Y11192D01*
X13349Y11162D01*
X13286Y11114D01*
X13238Y11051D01*
X13208Y10978D01*
X13203Y10940D01*
X13460D01*
Y11197D01*
D02*
G37*
G36*
Y10860D02*
X13203D01*
X13208Y10822D01*
X13238Y10749D01*
X13286Y10686D01*
X13349Y10638D01*
X13422Y10608D01*
X13460Y10603D01*
Y10860D01*
D02*
G37*
G36*
X14410Y10297D02*
X14372Y10292D01*
X14299Y10262D01*
X14236Y10214D01*
X14188Y10151D01*
X14158Y10078D01*
X14153Y10040D01*
X14410D01*
Y10297D01*
D02*
G37*
G36*
Y9960D02*
X14153D01*
X14158Y9922D01*
X14188Y9849D01*
X14236Y9786D01*
X14299Y9738D01*
X14372Y9708D01*
X14410Y9703D01*
Y9960D01*
D02*
G37*
G36*
X3850Y10444D02*
X3748Y10431D01*
X3653Y10391D01*
X3571Y10329D01*
X3509Y10247D01*
X3469Y10152D01*
X3456Y10050D01*
X3469Y9948D01*
X3509Y9853D01*
X3571Y9771D01*
X3653Y9709D01*
X3748Y9669D01*
X3850Y9656D01*
X3952Y9669D01*
X4047Y9709D01*
X4129Y9771D01*
X4191Y9853D01*
X4231Y9948D01*
X4244Y10050D01*
X4231Y10152D01*
X4191Y10247D01*
X4129Y10329D01*
X4047Y10391D01*
X3952Y10431D01*
X3850Y10444D01*
D02*
G37*
G36*
X14490Y10297D02*
Y10040D01*
X14747D01*
X14742Y10078D01*
X14712Y10151D01*
X14664Y10214D01*
X14601Y10262D01*
X14528Y10292D01*
X14490Y10297D01*
D02*
G37*
G36*
X15597Y10610D02*
X15340D01*
Y10353D01*
X15378Y10358D01*
X15451Y10388D01*
X15514Y10436D01*
X15562Y10499D01*
X15592Y10572D01*
X15597Y10610D01*
D02*
G37*
G36*
X15260D02*
X15003D01*
X15008Y10572D01*
X15038Y10499D01*
X15086Y10436D01*
X15149Y10388D01*
X15222Y10358D01*
X15260Y10353D01*
Y10610D01*
D02*
G37*
G36*
X9300Y11044D02*
X9198Y11031D01*
X9103Y10991D01*
X9021Y10929D01*
X8959Y10847D01*
X8919Y10752D01*
X8906Y10650D01*
X8919Y10548D01*
X8959Y10453D01*
X9021Y10371D01*
X9103Y10309D01*
X9198Y10269D01*
X9300Y10256D01*
X9402Y10269D01*
X9497Y10309D01*
X9579Y10371D01*
X9641Y10453D01*
X9681Y10548D01*
X9694Y10650D01*
X9681Y10752D01*
X9641Y10847D01*
X9579Y10929D01*
X9497Y10991D01*
X9402Y11031D01*
X9300Y11044D01*
D02*
G37*
G36*
X15350Y12557D02*
Y12300D01*
X15607D01*
X15602Y12338D01*
X15572Y12411D01*
X15524Y12474D01*
X15461Y12522D01*
X15388Y12552D01*
X15350Y12557D01*
D02*
G37*
G36*
X14560Y13960D02*
X14303D01*
X14308Y13922D01*
X14338Y13849D01*
X14386Y13786D01*
X14449Y13738D01*
X14522Y13708D01*
X14560Y13703D01*
Y13960D01*
D02*
G37*
G36*
X18397Y13860D02*
X18140D01*
Y13603D01*
X18178Y13608D01*
X18251Y13638D01*
X18314Y13686D01*
X18362Y13749D01*
X18392Y13822D01*
X18397Y13860D01*
D02*
G37*
G36*
X18060D02*
X17803D01*
X17808Y13822D01*
X17838Y13749D01*
X17886Y13686D01*
X17949Y13638D01*
X18022Y13608D01*
X18060Y13603D01*
Y13860D01*
D02*
G37*
G36*
X14897Y13960D02*
X14640D01*
Y13703D01*
X14678Y13708D01*
X14751Y13738D01*
X14814Y13786D01*
X14862Y13849D01*
X14892Y13922D01*
X14897Y13960D01*
D02*
G37*
G36*
X9010D02*
X8793D01*
X8797Y13932D01*
X8823Y13869D01*
X8865Y13815D01*
X8919Y13773D01*
X8982Y13747D01*
X9010Y13743D01*
Y13960D01*
D02*
G37*
G36*
X8707D02*
X8490D01*
Y13743D01*
X8518Y13747D01*
X8581Y13773D01*
X8635Y13815D01*
X8677Y13869D01*
X8703Y13932D01*
X8707Y13960D01*
D02*
G37*
G36*
X8410D02*
X8193D01*
X8197Y13932D01*
X8223Y13869D01*
X8265Y13815D01*
X8319Y13773D01*
X8382Y13747D01*
X8410Y13743D01*
Y13960D01*
D02*
G37*
G36*
X12147Y13810D02*
X11890D01*
Y13553D01*
X11928Y13558D01*
X12001Y13588D01*
X12064Y13636D01*
X12112Y13699D01*
X12142Y13772D01*
X12147Y13810D01*
D02*
G37*
G36*
X6360Y13779D02*
X6288Y13770D01*
X6183Y13726D01*
X6093Y13657D01*
X6024Y13567D01*
X5980Y13462D01*
X5971Y13390D01*
X6360D01*
Y13779D01*
D02*
G37*
G36*
X16940Y13547D02*
Y13290D01*
X17197D01*
X17192Y13328D01*
X17162Y13401D01*
X17114Y13464D01*
X17051Y13512D01*
X16978Y13542D01*
X16940Y13547D01*
D02*
G37*
G36*
X16860D02*
X16822Y13542D01*
X16749Y13512D01*
X16686Y13464D01*
X16638Y13401D01*
X16608Y13328D01*
X16603Y13290D01*
X16860D01*
Y13547D01*
D02*
G37*
G36*
X6440Y13779D02*
Y13390D01*
X6829D01*
X6820Y13462D01*
X6776Y13567D01*
X6707Y13657D01*
X6617Y13726D01*
X6512Y13770D01*
X6440Y13779D01*
D02*
G37*
G36*
X11810Y13810D02*
X11553D01*
X11558Y13772D01*
X11588Y13699D01*
X11636Y13636D01*
X11699Y13588D01*
X11772Y13558D01*
X11810Y13553D01*
Y13810D01*
D02*
G37*
G36*
X10847Y13760D02*
X10590D01*
Y13503D01*
X10628Y13508D01*
X10701Y13538D01*
X10764Y13586D01*
X10812Y13649D01*
X10842Y13722D01*
X10847Y13760D01*
D02*
G37*
G36*
X10510D02*
X10253D01*
X10258Y13722D01*
X10288Y13649D01*
X10336Y13586D01*
X10399Y13538D01*
X10472Y13508D01*
X10510Y13503D01*
Y13760D01*
D02*
G37*
G36*
X9307Y13960D02*
X9090D01*
Y13743D01*
X9118Y13747D01*
X9181Y13773D01*
X9235Y13815D01*
X9277Y13869D01*
X9303Y13932D01*
X9307Y13960D01*
D02*
G37*
G36*
X9090Y14257D02*
Y14040D01*
X9307D01*
X9303Y14068D01*
X9277Y14131D01*
X9235Y14185D01*
X9181Y14227D01*
X9118Y14253D01*
X9090Y14257D01*
D02*
G37*
G36*
X9010D02*
X8982Y14253D01*
X8919Y14227D01*
X8865Y14185D01*
X8823Y14131D01*
X8797Y14068D01*
X8793Y14040D01*
X9010D01*
Y14257D01*
D02*
G37*
G36*
X8490D02*
Y14040D01*
X8707D01*
X8703Y14068D01*
X8677Y14131D01*
X8635Y14185D01*
X8581Y14227D01*
X8518Y14253D01*
X8490Y14257D01*
D02*
G37*
G36*
X9613Y14289D02*
X9585Y14285D01*
X9522Y14259D01*
X9468Y14218D01*
X9426Y14163D01*
X9400Y14100D01*
X9396Y14072D01*
X9613D01*
Y14289D01*
D02*
G37*
G36*
X8950Y16574D02*
X8864Y16557D01*
X8791Y16509D01*
X8743Y16436D01*
X8726Y16350D01*
X8743Y16264D01*
X8791Y16191D01*
X8864Y16143D01*
X8950Y16126D01*
X9036Y16143D01*
X9109Y16191D01*
X9157Y16264D01*
X9174Y16350D01*
X9157Y16436D01*
X9109Y16509D01*
X9036Y16557D01*
X8950Y16574D01*
D02*
G37*
G36*
X7900Y15724D02*
X7814Y15707D01*
X7741Y15659D01*
X7693Y15586D01*
X7676Y15500D01*
X7693Y15414D01*
X7741Y15341D01*
X7814Y15293D01*
X7900Y15276D01*
X7986Y15293D01*
X8059Y15341D01*
X8107Y15414D01*
X8124Y15500D01*
X8107Y15586D01*
X8059Y15659D01*
X7986Y15707D01*
X7900Y15724D01*
D02*
G37*
G36*
X6800Y14724D02*
X6714Y14707D01*
X6641Y14659D01*
X6593Y14586D01*
X6576Y14500D01*
X6593Y14414D01*
X6641Y14341D01*
X6714Y14293D01*
X6800Y14276D01*
X6886Y14293D01*
X6959Y14341D01*
X7007Y14414D01*
X7024Y14500D01*
X7007Y14586D01*
X6959Y14659D01*
X6886Y14707D01*
X6800Y14724D01*
D02*
G37*
G36*
X8410Y14257D02*
X8382Y14253D01*
X8319Y14227D01*
X8265Y14185D01*
X8223Y14131D01*
X8197Y14068D01*
X8193Y14040D01*
X8410D01*
Y14257D01*
D02*
G37*
G36*
X10590Y14097D02*
Y13840D01*
X10847D01*
X10842Y13878D01*
X10812Y13951D01*
X10764Y14014D01*
X10701Y14062D01*
X10628Y14092D01*
X10590Y14097D01*
D02*
G37*
G36*
X10510D02*
X10472Y14092D01*
X10399Y14062D01*
X10336Y14014D01*
X10288Y13951D01*
X10258Y13878D01*
X10253Y13840D01*
X10510D01*
Y14097D01*
D02*
G37*
G36*
X9613Y13992D02*
X9396D01*
X9400Y13964D01*
X9426Y13901D01*
X9468Y13847D01*
X9522Y13805D01*
X9585Y13779D01*
X9613Y13775D01*
Y13992D01*
D02*
G37*
G36*
X11810Y14147D02*
X11772Y14142D01*
X11699Y14112D01*
X11636Y14064D01*
X11588Y14001D01*
X11558Y13928D01*
X11553Y13890D01*
X11810D01*
Y14147D01*
D02*
G37*
G36*
X18140Y14197D02*
Y13940D01*
X18397D01*
X18392Y13978D01*
X18362Y14051D01*
X18314Y14114D01*
X18251Y14162D01*
X18178Y14192D01*
X18140Y14197D01*
D02*
G37*
G36*
X18060D02*
X18022Y14192D01*
X17949Y14162D01*
X17886Y14114D01*
X17838Y14051D01*
X17808Y13978D01*
X17803Y13940D01*
X18060D01*
Y14197D01*
D02*
G37*
G36*
X11890Y14147D02*
Y13890D01*
X12147D01*
X12142Y13928D01*
X12112Y14001D01*
X12064Y14064D01*
X12001Y14112D01*
X11928Y14142D01*
X11890Y14147D01*
D02*
G37*
G36*
X16190Y13547D02*
Y13290D01*
X16447D01*
X16442Y13328D01*
X16412Y13401D01*
X16364Y13464D01*
X16301Y13512D01*
X16228Y13542D01*
X16190Y13547D01*
D02*
G37*
G36*
X12897Y12960D02*
X12640D01*
Y12703D01*
X12678Y12708D01*
X12751Y12738D01*
X12814Y12786D01*
X12862Y12849D01*
X12892Y12922D01*
X12897Y12960D01*
D02*
G37*
G36*
X12560D02*
X12303D01*
X12308Y12922D01*
X12338Y12849D01*
X12386Y12786D01*
X12449Y12738D01*
X12522Y12708D01*
X12560Y12703D01*
Y12960D01*
D02*
G37*
G36*
X13700Y12957D02*
Y12700D01*
X13957D01*
X13952Y12738D01*
X13922Y12811D01*
X13874Y12874D01*
X13811Y12922D01*
X13738Y12952D01*
X13700Y12957D01*
D02*
G37*
G36*
X6360Y13310D02*
X5971D01*
X5980Y13238D01*
X6024Y13133D01*
X6093Y13043D01*
X6183Y12974D01*
X6288Y12930D01*
X6360Y12921D01*
Y13310D01*
D02*
G37*
G36*
X14897Y13210D02*
X14640D01*
Y12953D01*
X14678Y12958D01*
X14751Y12988D01*
X14814Y13036D01*
X14862Y13099D01*
X14892Y13172D01*
X14897Y13210D01*
D02*
G37*
G36*
X14560D02*
X14303D01*
X14308Y13172D01*
X14338Y13099D01*
X14386Y13036D01*
X14449Y12988D01*
X14522Y12958D01*
X14560Y12953D01*
Y13210D01*
D02*
G37*
G36*
X6829Y13310D02*
X6440D01*
Y12921D01*
X6512Y12930D01*
X6617Y12974D01*
X6707Y13043D01*
X6776Y13133D01*
X6820Y13238D01*
X6829Y13310D01*
D02*
G37*
G36*
X13620Y12957D02*
X13582Y12952D01*
X13509Y12922D01*
X13446Y12874D01*
X13398Y12811D01*
X13368Y12738D01*
X13363Y12700D01*
X13620D01*
Y12957D01*
D02*
G37*
G36*
Y12620D02*
X13363D01*
X13368Y12582D01*
X13398Y12509D01*
X13446Y12446D01*
X13509Y12398D01*
X13582Y12368D01*
X13620Y12363D01*
Y12620D01*
D02*
G37*
G36*
X16150Y12557D02*
Y12300D01*
X16407D01*
X16402Y12338D01*
X16372Y12411D01*
X16324Y12474D01*
X16261Y12522D01*
X16188Y12552D01*
X16150Y12557D01*
D02*
G37*
G36*
X16070D02*
X16032Y12552D01*
X15959Y12522D01*
X15896Y12474D01*
X15848Y12411D01*
X15818Y12338D01*
X15813Y12300D01*
X16070D01*
Y12557D01*
D02*
G37*
G36*
X13957Y12620D02*
X13700D01*
Y12363D01*
X13738Y12368D01*
X13811Y12398D01*
X13874Y12446D01*
X13922Y12509D01*
X13952Y12582D01*
X13957Y12620D01*
D02*
G37*
G36*
X17937Y12900D02*
X17680D01*
Y12643D01*
X17718Y12648D01*
X17791Y12678D01*
X17854Y12726D01*
X17902Y12789D01*
X17932Y12862D01*
X17937Y12900D01*
D02*
G37*
G36*
X17600D02*
X17343D01*
X17348Y12862D01*
X17378Y12789D01*
X17426Y12726D01*
X17489Y12678D01*
X17562Y12648D01*
X17600Y12643D01*
Y12900D01*
D02*
G37*
G36*
X7000Y13024D02*
X6914Y13007D01*
X6841Y12959D01*
X6793Y12886D01*
X6776Y12800D01*
X6793Y12714D01*
X6841Y12641D01*
X6914Y12593D01*
X7000Y12576D01*
X7086Y12593D01*
X7159Y12641D01*
X7207Y12714D01*
X7224Y12800D01*
X7207Y12886D01*
X7159Y12959D01*
X7086Y13007D01*
X7000Y13024D01*
D02*
G37*
G36*
X15260Y13210D02*
X15003D01*
X15008Y13172D01*
X15038Y13099D01*
X15086Y13036D01*
X15149Y12988D01*
X15222Y12958D01*
X15260Y12953D01*
Y13210D01*
D02*
G37*
G36*
X14560Y13547D02*
X14522Y13542D01*
X14449Y13512D01*
X14386Y13464D01*
X14338Y13401D01*
X14308Y13328D01*
X14303Y13290D01*
X14560D01*
Y13547D01*
D02*
G37*
G36*
X7150Y13674D02*
X7064Y13657D01*
X6991Y13609D01*
X6943Y13536D01*
X6926Y13450D01*
X6943Y13364D01*
X6991Y13291D01*
X7064Y13243D01*
X7150Y13226D01*
X7236Y13243D01*
X7309Y13291D01*
X7357Y13364D01*
X7374Y13450D01*
X7357Y13536D01*
X7309Y13609D01*
X7236Y13657D01*
X7150Y13674D01*
D02*
G37*
G36*
X12640Y13297D02*
Y13040D01*
X12897D01*
X12892Y13078D01*
X12862Y13151D01*
X12814Y13214D01*
X12751Y13262D01*
X12678Y13292D01*
X12640Y13297D01*
D02*
G37*
G36*
X14640Y13547D02*
Y13290D01*
X14897D01*
X14892Y13328D01*
X14862Y13401D01*
X14814Y13464D01*
X14751Y13512D01*
X14678Y13542D01*
X14640Y13547D01*
D02*
G37*
G36*
X16110D02*
X16072Y13542D01*
X15999Y13512D01*
X15936Y13464D01*
X15888Y13401D01*
X15858Y13328D01*
X15853Y13290D01*
X16110D01*
Y13547D01*
D02*
G37*
G36*
X15340D02*
Y13290D01*
X15597D01*
X15592Y13328D01*
X15562Y13401D01*
X15514Y13464D01*
X15451Y13512D01*
X15378Y13542D01*
X15340Y13547D01*
D02*
G37*
G36*
X15260D02*
X15222Y13542D01*
X15149Y13512D01*
X15086Y13464D01*
X15038Y13401D01*
X15008Y13328D01*
X15003Y13290D01*
X15260D01*
Y13547D01*
D02*
G37*
G36*
X12560Y13297D02*
X12522Y13292D01*
X12449Y13262D01*
X12386Y13214D01*
X12338Y13151D01*
X12308Y13078D01*
X12303Y13040D01*
X12560D01*
Y13297D01*
D02*
G37*
G36*
X16447Y13210D02*
X16190D01*
Y12953D01*
X16228Y12958D01*
X16301Y12988D01*
X16364Y13036D01*
X16412Y13099D01*
X16442Y13172D01*
X16447Y13210D01*
D02*
G37*
G36*
X16110D02*
X15853D01*
X15858Y13172D01*
X15888Y13099D01*
X15936Y13036D01*
X15999Y12988D01*
X16072Y12958D01*
X16110Y12953D01*
Y13210D01*
D02*
G37*
G36*
X15597D02*
X15340D01*
Y12953D01*
X15378Y12958D01*
X15451Y12988D01*
X15514Y13036D01*
X15562Y13099D01*
X15592Y13172D01*
X15597Y13210D01*
D02*
G37*
G36*
X16860D02*
X16603D01*
X16608Y13172D01*
X16638Y13099D01*
X16686Y13036D01*
X16749Y12988D01*
X16822Y12958D01*
X16860Y12953D01*
Y13210D01*
D02*
G37*
G36*
X17680Y13237D02*
Y12980D01*
X17937D01*
X17932Y13018D01*
X17902Y13091D01*
X17854Y13154D01*
X17791Y13202D01*
X17718Y13232D01*
X17680Y13237D01*
D02*
G37*
G36*
X17600D02*
X17562Y13232D01*
X17489Y13202D01*
X17426Y13154D01*
X17378Y13091D01*
X17348Y13018D01*
X17343Y12980D01*
X17600D01*
Y13237D01*
D02*
G37*
G36*
X17197Y13210D02*
X16940D01*
Y12953D01*
X16978Y12958D01*
X17051Y12988D01*
X17114Y13036D01*
X17162Y13099D01*
X17192Y13172D01*
X17197Y13210D01*
D02*
G37*
%LPD*%
D28*
X15856Y1000D02*
D03*
X16644D02*
D03*
X17037D02*
D03*
X17431D02*
D03*
D32*
X14550Y6050D02*
X17450Y8950D01*
Y8900D02*
Y8950D01*
X19550Y1950D02*
X20307Y1193D01*
X18550Y2950D02*
X19550Y1950D01*
X26200Y8600D01*
X20307Y1193D02*
X20800D01*
X15350Y5300D02*
Y6050D01*
X13500Y3450D02*
X15350Y5300D01*
X9700Y3450D02*
X13500D01*
X9100Y4050D02*
X9700Y3450D01*
X15350Y6050D02*
X16850Y7550D01*
X18550Y2950D02*
Y3800D01*
X18400Y3950D02*
X18550Y3800D01*
X17600Y3950D02*
X18400D01*
X24400Y9000D02*
X24500D01*
X18900Y3350D02*
X24500Y8950D01*
X3800Y6200D02*
X5455D01*
X3500Y5500D02*
X4000D01*
X1700Y7300D02*
X3500Y5500D01*
X1700Y7300D02*
Y9650D01*
X2750Y10700D01*
X7100D01*
X7650Y11250D01*
Y12200D01*
X8450Y13000D01*
X8700D01*
X2900Y6650D02*
Y8250D01*
X5000Y10350D01*
X5700D01*
X6250Y9800D01*
X11200Y8600D02*
X13050D01*
X13350Y8900D01*
X8950Y7700D02*
X10150Y8900D01*
X10997D01*
X11017Y8880D02*
X12080D01*
X12950Y9750D01*
X10997Y8900D02*
X11017Y8880D01*
X12950Y9750D02*
X13400D01*
X14950Y8200D01*
X15600D01*
X16150Y8750D01*
X13850Y6050D02*
X14550D01*
X15900Y5250D02*
X22850Y12200D01*
X15900Y5000D02*
Y5250D01*
X10350Y5050D02*
Y5550D01*
X10750Y5950D01*
Y8150D01*
X11200Y8600D01*
X15856Y1000D02*
Y3594D01*
X15850Y3600D02*
X15856Y3594D01*
X15850Y3600D02*
X16100Y3850D01*
X16250D01*
X6600Y4850D02*
X9100D01*
X9250Y5000D01*
X7550Y4150D02*
Y4550D01*
X7000Y3600D02*
X7550Y4150D01*
X6050Y3600D02*
X7000D01*
X20800Y507D02*
Y1193D01*
X18800Y507D02*
Y1193D01*
X19793D01*
X19800Y1200D01*
X17431Y1000D02*
Y3781D01*
X17600Y3950D01*
X18400Y4250D02*
X19050Y4900D01*
X17600Y4250D02*
X18400D01*
X17037Y3687D02*
X17600Y4250D01*
X17037Y1000D02*
Y3687D01*
X16250Y3850D02*
X16450D01*
X16650Y3650D01*
Y1006D02*
Y3650D01*
X16644Y1000D02*
X16650Y1006D01*
D33*
X15250Y4450D02*
X16250D01*
X14750Y3950D02*
X15250Y4450D01*
X14750Y1509D02*
Y3950D01*
X14191Y950D02*
X14750Y1509D01*
X13275Y950D02*
X14191D01*
D35*
X12000Y10468D02*
D03*
Y6532D02*
D03*
D36*
X10125Y950D02*
D03*
X10913D02*
D03*
X11700D02*
D03*
X13275D02*
D03*
X13250Y2550D02*
D03*
X14250D02*
D03*
X7150Y2650D02*
D03*
X8150D02*
D03*
D37*
X3750Y6250D02*
D03*
X6050Y3600D02*
D03*
X9250Y5000D02*
D03*
X8700Y13000D02*
D03*
X9300Y10650D02*
D03*
X6250Y9800D02*
D03*
X3850Y10050D02*
D03*
X2700Y9750D02*
D03*
X5000Y9500D02*
D03*
X7400Y9950D02*
D03*
X6400Y13350D02*
D03*
X8900Y9450D02*
D03*
X10400Y11000D02*
D03*
X13350Y8900D02*
D03*
X10000Y6250D02*
D03*
X13600Y7400D02*
D03*
X10950Y12300D02*
D03*
X15900Y5000D02*
D03*
X13850Y6050D02*
D03*
X18000Y14850D02*
D03*
X8950Y7700D02*
D03*
D38*
X12000Y10468D02*
D03*
Y6532D02*
D03*
D39*
X18950Y14450D02*
D03*
X19300Y14086D02*
D03*
X23700Y13778D02*
D03*
X23350Y14136D02*
D03*
X22650Y14850D02*
D03*
X25150Y4700D02*
D03*
X24793Y4350D02*
D03*
X24450Y3986D02*
D03*
X24079Y3650D02*
D03*
X23700Y3322D02*
D03*
X23000Y2607D02*
D03*
X12600Y13000D02*
D03*
X16050Y11350D02*
D03*
X15300Y10650D02*
D03*
X14450Y10000D02*
D03*
X13500Y10900D02*
D03*
X12050Y12050D02*
D03*
X10550Y13800D02*
D03*
X11850Y13850D02*
D03*
X18100Y13900D02*
D03*
X10750Y3900D02*
D03*
X12150Y3050D02*
D03*
Y2350D02*
D03*
Y1650D02*
D03*
X14600Y14000D02*
D03*
X11150Y9200D02*
D03*
X13660Y12660D02*
D03*
X14510Y12260D02*
D03*
X15310D02*
D03*
X16110D02*
D03*
X16900Y12250D02*
D03*
X14600Y13250D02*
D03*
X15300D02*
D03*
X16150D02*
D03*
X16900D02*
D03*
X17640Y12940D02*
D03*
D40*
X14693Y9500D02*
D03*
X17450Y8900D02*
D03*
X26200Y8600D02*
D03*
X9100Y4050D02*
D03*
X16850Y7550D02*
D03*
X18900Y3350D02*
D03*
X5455Y6200D02*
D03*
X4000Y5500D02*
D03*
X2900Y6650D02*
D03*
X9653Y14032D02*
D03*
X9050Y14000D02*
D03*
X8450D02*
D03*
X16150Y8750D02*
D03*
X22850Y12200D02*
D03*
X11400Y1950D02*
D03*
X14750Y7657D02*
D03*
X15100Y7300D02*
D03*
X16172Y6250D02*
D03*
X16836Y5500D02*
D03*
X7700Y8300D02*
D03*
X8400Y7400D02*
D03*
X9550Y7600D02*
D03*
Y9200D02*
D03*
X7700Y7850D02*
D03*
X7100Y7700D02*
D03*
X3850Y8450D02*
D03*
X4200Y7150D02*
D03*
X4700Y8000D02*
D03*
X2400Y8150D02*
D03*
Y7550D02*
D03*
X4950Y11150D02*
D03*
X4300Y12000D02*
D03*
X6000Y12400D02*
D03*
X6650Y12300D02*
D03*
X7100Y11500D02*
D03*
X7150Y12050D02*
D03*
X8350Y11800D02*
D03*
X7000Y12800D02*
D03*
X7150Y13450D02*
D03*
X6800Y14500D02*
D03*
X7900Y15500D02*
D03*
X8950Y16350D02*
D03*
X8850Y5700D02*
D03*
X7050Y4200D02*
D03*
X7400Y3500D02*
D03*
X9100Y3450D02*
D03*
X13550Y4300D02*
D03*
X15000Y5550D02*
D03*
X10850Y5350D02*
D03*
Y4450D02*
D03*
X11700Y4000D02*
D03*
X13150Y5050D02*
D03*
X10350D02*
D03*
X16250Y4450D02*
D03*
Y3850D02*
D03*
X5600Y5200D02*
D03*
X6600Y4850D02*
D03*
X7550Y4550D02*
D03*
X19850Y600D02*
D03*
X28800Y8200D02*
D03*
X19800Y1200D02*
D03*
X19050Y4900D02*
D03*
X16600Y4150D02*
D03*
X24500Y9000D02*
D03*
X21450Y2750D02*
D03*
X20400Y2000D02*
D03*
X27850Y9450D02*
D03*
X20400Y15100D02*
D03*
X22200D02*
D03*
X19700Y14400D02*
D03*
D41*
X20800Y507D02*
D03*
Y1193D02*
D03*
X18800Y507D02*
D03*
Y1193D02*
D03*
M02*
