%FSLAX24Y24*%
%MOIN*%
G70*
G01*
G75*
G04 Layer_Color=65535*
%ADD10R,0.0335X0.0157*%
%ADD11R,0.0197X0.0315*%
%ADD12R,0.0118X0.0209*%
%ADD13R,0.0118X0.0193*%
%ADD14R,0.0512X0.0217*%
%ADD15R,0.0157X0.0335*%
%ADD16R,0.0236X0.0591*%
%ADD17O,0.0118X0.0650*%
%ADD18R,0.0394X0.0217*%
G04:AMPARAMS|DCode=19|XSize=60mil|YSize=30mil|CornerRadius=0mil|HoleSize=0mil|Usage=FLASHONLY|Rotation=135.000|XOffset=0mil|YOffset=0mil|HoleType=Round|Shape=Rectangle|*
%AMROTATEDRECTD19*
4,1,4,0.0318,-0.0106,0.0106,-0.0318,-0.0318,0.0106,-0.0106,0.0318,0.0318,-0.0106,0.0*
%
%ADD19ROTATEDRECTD19*%

G04:AMPARAMS|DCode=20|XSize=59.8mil|YSize=30mil|CornerRadius=0mil|HoleSize=0mil|Usage=FLASHONLY|Rotation=225.000|XOffset=0mil|YOffset=0mil|HoleType=Round|Shape=Rectangle|*
%AMROTATEDRECTD20*
4,1,4,0.0106,0.0318,0.0318,0.0106,-0.0106,-0.0318,-0.0318,-0.0106,0.0106,0.0318,0.0*
%
%ADD20ROTATEDRECTD20*%

G04:AMPARAMS|DCode=21|XSize=59.8mil|YSize=30mil|CornerRadius=0mil|HoleSize=0mil|Usage=FLASHONLY|Rotation=135.000|XOffset=0mil|YOffset=0mil|HoleType=Round|Shape=Rectangle|*
%AMROTATEDRECTD21*
4,1,4,0.0318,-0.0106,0.0106,-0.0318,-0.0318,0.0106,-0.0106,0.0318,0.0318,-0.0106,0.0*
%
%ADD21ROTATEDRECTD21*%

%ADD22R,0.0236X0.0197*%
G04:AMPARAMS|DCode=23|XSize=35.4mil|YSize=27.6mil|CornerRadius=0mil|HoleSize=0mil|Usage=FLASHONLY|Rotation=45.000|XOffset=0mil|YOffset=0mil|HoleType=Round|Shape=Rectangle|*
%AMROTATEDRECTD23*
4,1,4,-0.0028,-0.0223,-0.0223,-0.0028,0.0028,0.0223,0.0223,0.0028,-0.0028,-0.0223,0.0*
%
%ADD23ROTATEDRECTD23*%

%ADD24R,0.0354X0.0276*%
%ADD25R,0.0276X0.0354*%
%ADD26R,0.0197X0.0236*%
%ADD27R,0.0591X0.0236*%
%ADD28R,0.0240X0.1750*%
%ADD29R,0.0157X0.0157*%
%ADD30R,0.0354X0.0315*%
%ADD31R,0.0315X0.0354*%
G04:AMPARAMS|DCode=32|XSize=35.4mil|YSize=31.5mil|CornerRadius=0mil|HoleSize=0mil|Usage=FLASHONLY|Rotation=315.000|XOffset=0mil|YOffset=0mil|HoleType=Round|Shape=Rectangle|*
%AMROTATEDRECTD32*
4,1,4,-0.0237,0.0014,-0.0014,0.0237,0.0237,-0.0014,0.0014,-0.0237,-0.0237,0.0014,0.0*
%
%ADD32ROTATEDRECTD32*%

%ADD33R,0.0492X0.0394*%
%ADD34R,0.0197X0.0886*%
%ADD35C,0.0120*%
%ADD36C,0.0150*%
%ADD37C,0.0200*%
%ADD38R,0.0400X0.0350*%
%ADD39C,0.0984*%
%ADD40C,0.0591*%
%ADD41C,0.0661*%
%ADD42C,0.1772*%
%ADD43C,0.0320*%
%ADD44C,0.0400*%
%ADD45R,0.0661X0.0319*%
%ADD46P,0.2121X4X90.0*%
%ADD47C,0.0100*%
%ADD48C,0.0098*%
%ADD49C,0.0236*%
%ADD50C,0.0047*%
%ADD51C,0.0079*%
%ADD52C,0.0050*%
%ADD53C,0.0060*%
%ADD54C,0.0080*%
D36*
X20820Y1973D02*
X21794D01*
X27912Y8063D02*
X28399Y8550D01*
X27912Y9037D02*
X28399Y8550D01*
X20799Y15148D02*
X21286Y15635D01*
X21773Y15148D01*
X14222Y8543D02*
X14709Y9030D01*
X14222Y8543D02*
X14709Y8056D01*
D47*
X12700Y9150D02*
G03*
X12700Y9150I-50J0D01*
G01*
X14465Y4438D02*
G03*
X14465Y4438I-39J0D01*
G01*
X10466Y4654D02*
G03*
X10466Y4654I-10J0D01*
G01*
X7878Y11524D02*
G03*
X7878Y11524I-39J0D01*
G01*
X4714Y11662D02*
G03*
X4714Y11662I-39J0D01*
G01*
X4165Y7938D02*
G03*
X4165Y7938I-39J0D01*
G01*
X8015Y7788D02*
G03*
X8015Y7788I-39J0D01*
G01*
X22247Y2029D02*
G03*
X22247Y2029I-49J0D01*
G01*
X13993Y4556D02*
X14307D01*
X13993Y5344D02*
X14307D01*
X7956Y11643D02*
Y11957D01*
X8744Y11643D02*
Y11957D01*
X4793Y11544D02*
X5107D01*
X4793Y10756D02*
X5107D01*
X3693Y8056D02*
X4007D01*
X3693Y8844D02*
X4007D01*
X7543Y7906D02*
X7857D01*
X7543Y8694D02*
X7857D01*
D48*
X8063Y5550D02*
G03*
X8063Y5550I-49J0D01*
G01*
X8341Y14676D02*
G03*
X8341Y14676I-49J0D01*
G01*
X10969Y9207D02*
G03*
X10969Y9207I-49J0D01*
G01*
X9827Y3549D02*
G03*
X9827Y3549I-49J0D01*
G01*
X13023Y3991D02*
G03*
X13023Y3991I-49J0D01*
G01*
D49*
X10585Y8331D02*
G03*
X10585Y8331I-118J0D01*
G01*
D50*
X10545Y4674D02*
Y5126D01*
X11155Y4674D02*
Y5126D01*
X8590Y1796D02*
X14810D01*
Y104D02*
Y1796D01*
X8590Y104D02*
X14810D01*
X8590D02*
Y1796D01*
X6523Y5752D02*
Y5948D01*
X5962Y5752D02*
X6238D01*
X5962Y5948D02*
X6238D01*
D51*
X7462Y5590D02*
X7738D01*
X7462Y6810D02*
X7738D01*
Y5590D02*
Y6810D01*
X7462Y5590D02*
Y6810D01*
X8409Y15129D02*
Y15326D01*
X8724D01*
X9591Y15129D02*
Y15326D01*
X9276D02*
X9591D01*
X9640Y8725D02*
X10860D01*
X9640Y8075D02*
X10860D01*
Y8725D01*
X9640Y8075D02*
Y8725D01*
X10368Y2259D02*
Y3441D01*
X10132Y2259D02*
Y3441D01*
Y2259D02*
X10368D01*
X10132Y3441D02*
X10368D01*
X15742Y6403D02*
X15853Y6292D01*
X15547Y6208D02*
X15658Y6097D01*
X16497Y4808D02*
X16608Y4697D01*
X16692Y5003D02*
X16803Y4892D01*
X5288Y7621D02*
Y7779D01*
X5012Y7621D02*
Y7779D01*
X8021Y3638D02*
X8179D01*
X8021Y3362D02*
X8179D01*
X6021Y6412D02*
X6179D01*
X6021Y6688D02*
X6179D01*
X7871Y5288D02*
X8029D01*
X7871Y5012D02*
X8029D01*
X8121Y10938D02*
X8279D01*
X8121Y10662D02*
X8279D01*
X3671Y11038D02*
X3829D01*
X3671Y10762D02*
X3829D01*
X9062Y11721D02*
Y11879D01*
X9338Y11721D02*
Y11879D01*
X4871Y10438D02*
X5029D01*
X4871Y10162D02*
X5029D01*
X5021Y8562D02*
X5179D01*
X5021Y8838D02*
X5179D01*
X8871Y8412D02*
X9029D01*
X8871Y8688D02*
X9029D01*
X3721Y9112D02*
X3879D01*
X3721Y9388D02*
X3879D01*
X7571Y8962D02*
X7729D01*
X7571Y9238D02*
X7729D01*
X19488Y1971D02*
Y2129D01*
X19212Y1971D02*
Y2129D01*
X18788Y1971D02*
Y2129D01*
X18512Y1971D02*
Y2129D01*
X12324Y4109D02*
X12521D01*
X12324D02*
Y4424D01*
Y5291D02*
X12521D01*
X12324Y4976D02*
Y5291D01*
X19212Y821D02*
Y979D01*
X19488Y821D02*
Y979D01*
X18512Y821D02*
Y979D01*
X18788Y821D02*
Y979D01*
D52*
X12750Y3050D02*
X14750D01*
X12750Y2050D02*
X14750D01*
X12750D02*
Y3050D01*
X14750Y2050D02*
Y3050D01*
X6650Y3150D02*
X8650D01*
X6650Y2150D02*
X8650D01*
X6650D02*
Y3150D01*
X8650Y2150D02*
Y3150D01*
X12600Y3650D02*
X12400D01*
X12350Y3600D01*
Y3500D01*
X12400Y3450D01*
X12600D01*
X12650Y3500D01*
Y3600D01*
X12550Y3550D02*
X12650Y3650D01*
Y3600D02*
X12600Y3650D01*
X12650Y3750D02*
Y3850D01*
Y3800D01*
X12350D01*
X12400Y3750D01*
X11300Y9400D02*
Y9350D01*
X11400Y9250D01*
X11500Y9350D01*
Y9400D01*
X11400Y9250D02*
Y9100D01*
X11600D02*
X11700D01*
X11650D01*
Y9400D01*
X11600Y9350D01*
X7400Y10350D02*
X7350Y10400D01*
X7250D01*
X7200Y10350D01*
Y10150D01*
X7250Y10100D01*
X7350D01*
X7400Y10150D01*
X7700Y10100D02*
X7500D01*
X7700Y10300D01*
Y10350D01*
X7650Y10400D01*
X7550D01*
X7500Y10350D01*
X8000Y10100D02*
X7800D01*
X8000Y10300D01*
Y10350D01*
X7950Y10400D01*
X7850D01*
X7800Y10350D01*
X9900Y11000D02*
X9950Y11050D01*
Y11150D01*
X9900Y11200D01*
X9700D01*
X9650Y11150D01*
Y11050D01*
X9700Y11000D01*
X9650Y10700D02*
Y10900D01*
X9850Y10700D01*
X9900D01*
X9950Y10750D01*
Y10850D01*
X9900Y10900D01*
X9950Y10400D02*
Y10600D01*
X9800D01*
X9850Y10500D01*
Y10450D01*
X9800Y10400D01*
X9700D01*
X9650Y10450D01*
Y10550D01*
X9700Y10600D01*
X6450Y9800D02*
X6400Y9850D01*
X6300D01*
X6250Y9800D01*
Y9600D01*
X6300Y9550D01*
X6400D01*
X6450Y9600D01*
X6750Y9550D02*
X6550D01*
X6750Y9750D01*
Y9800D01*
X6700Y9850D01*
X6600D01*
X6550Y9800D01*
X7000Y9550D02*
Y9850D01*
X6850Y9700D01*
X7050D01*
X5200Y3450D02*
Y3750D01*
X5350D01*
X5400Y3700D01*
Y3600D01*
X5350Y3550D01*
X5200D01*
X5300D02*
X5400Y3450D01*
X5500Y3750D02*
X5700D01*
Y3700D01*
X5500Y3500D01*
Y3450D01*
X9000Y5400D02*
Y5700D01*
X9150D01*
X9200Y5650D01*
Y5550D01*
X9150Y5500D01*
X9000D01*
X9100D02*
X9200Y5400D01*
X9300Y5650D02*
X9350Y5700D01*
X9450D01*
X9500Y5650D01*
Y5600D01*
X9450Y5550D01*
X9500Y5500D01*
Y5450D01*
X9450Y5400D01*
X9350D01*
X9300Y5450D01*
Y5500D01*
X9350Y5550D01*
X9300Y5600D01*
Y5650D01*
X9350Y5550D02*
X9450D01*
X9550Y4350D02*
Y4650D01*
X9700D01*
X9750Y4600D01*
Y4500D01*
X9700Y4450D01*
X9550D01*
X9650D02*
X9750Y4350D01*
X10050D02*
X9850D01*
X10050Y4550D01*
Y4600D01*
X10000Y4650D01*
X9900D01*
X9850Y4600D01*
X10350Y4650D02*
X10150D01*
Y4500D01*
X10250Y4550D01*
X10300D01*
X10350Y4500D01*
Y4400D01*
X10300Y4350D01*
X10200D01*
X10150Y4400D01*
X3560Y10640D02*
X3510Y10690D01*
X3410D01*
X3360Y10640D01*
Y10440D01*
X3410Y10390D01*
X3510D01*
X3560Y10440D01*
X3860Y10390D02*
X3660D01*
X3860Y10590D01*
Y10640D01*
X3810Y10690D01*
X3710D01*
X3660Y10640D01*
X3960D02*
X4010Y10690D01*
X4110D01*
X4160Y10640D01*
Y10590D01*
X4110Y10540D01*
X4060D01*
X4110D01*
X4160Y10490D01*
Y10440D01*
X4110Y10390D01*
X4010D01*
X3960Y10440D01*
X15750Y5150D02*
Y5450D01*
X15900D01*
X15950Y5400D01*
Y5300D01*
X15900Y5250D01*
X15750D01*
X15850D02*
X15950Y5150D01*
X16250D02*
X16050D01*
X16250Y5350D01*
Y5400D01*
X16200Y5450D01*
X16100D01*
X16050Y5400D01*
X16350Y5450D02*
X16550D01*
Y5400D01*
X16350Y5200D01*
Y5150D01*
X13800Y3400D02*
Y3700D01*
X13950D01*
X14000Y3650D01*
Y3550D01*
X13950Y3500D01*
X13800D01*
X13900D02*
X14000Y3400D01*
X14300D02*
X14100D01*
X14300Y3600D01*
Y3650D01*
X14250Y3700D01*
X14150D01*
X14100Y3650D01*
X14400D02*
X14450Y3700D01*
X14550D01*
X14600Y3650D01*
Y3600D01*
X14550Y3550D01*
X14600Y3500D01*
Y3450D01*
X14550Y3400D01*
X14450D01*
X14400Y3450D01*
Y3500D01*
X14450Y3550D01*
X14400Y3600D01*
Y3650D01*
X14450Y3550D02*
X14550D01*
X16190Y5611D02*
Y5911D01*
X16340D01*
X16390Y5861D01*
Y5761D01*
X16340Y5711D01*
X16190D01*
X16290D02*
X16390Y5611D01*
X16690D02*
X16490D01*
X16690Y5811D01*
Y5861D01*
X16640Y5911D01*
X16540D01*
X16490Y5861D01*
X16990Y5911D02*
X16890Y5861D01*
X16790Y5761D01*
Y5661D01*
X16840Y5611D01*
X16940D01*
X16990Y5661D01*
Y5711D01*
X16940Y5761D01*
X16790D01*
X18500Y2650D02*
Y2950D01*
X18650D01*
X18700Y2900D01*
Y2800D01*
X18650Y2750D01*
X18500D01*
X18600D02*
X18700Y2650D01*
X18800D02*
X18900D01*
X18850D01*
Y2950D01*
X18800Y2900D01*
X19150Y2650D02*
Y2950D01*
X19300D01*
X19350Y2900D01*
Y2800D01*
X19300Y2750D01*
X19150D01*
X19250D02*
X19350Y2650D01*
X19650D02*
X19450D01*
X19650Y2850D01*
Y2900D01*
X19600Y2950D01*
X19500D01*
X19450Y2900D01*
X13200Y8200D02*
X13400D01*
X13300D01*
Y7900D01*
X13500Y8200D02*
X13700Y7900D01*
Y8200D02*
X13500Y7900D01*
X14000D02*
X13800D01*
X14000Y8100D01*
Y8150D01*
X13950Y8200D01*
X13850D01*
X13800Y8150D01*
X13000Y9700D02*
X13200D01*
X13100D01*
Y9400D01*
X13300Y9700D02*
X13500Y9400D01*
Y9700D02*
X13300Y9400D01*
X13600D02*
X13700D01*
X13650D01*
Y9700D01*
X13600Y9650D01*
X28800Y8750D02*
X28750Y8800D01*
X28650D01*
X28600Y8750D01*
Y8550D01*
X28650Y8500D01*
X28750D01*
X28800Y8550D01*
X28900Y8500D02*
X29000D01*
X28950D01*
Y8800D01*
X28900Y8750D01*
X9110Y3740D02*
X9060Y3790D01*
X8960D01*
X8910Y3740D01*
Y3540D01*
X8960Y3490D01*
X9060D01*
X9110Y3540D01*
X9410Y3490D02*
X9210D01*
X9410Y3690D01*
Y3740D01*
X9360Y3790D01*
X9260D01*
X9210Y3740D01*
X11350Y3450D02*
X11300Y3500D01*
X11200D01*
X11150Y3450D01*
Y3250D01*
X11200Y3200D01*
X11300D01*
X11350Y3250D01*
X11450Y3450D02*
X11500Y3500D01*
X11600D01*
X11650Y3450D01*
Y3400D01*
X11600Y3350D01*
X11550D01*
X11600D01*
X11650Y3300D01*
Y3250D01*
X11600Y3200D01*
X11500D01*
X11450Y3250D01*
X6550Y14500D02*
X6600Y14550D01*
Y14650D01*
X6550Y14700D01*
X6350D01*
X6300Y14650D01*
Y14550D01*
X6350Y14500D01*
X6300Y14250D02*
X6600D01*
X6450Y14400D01*
Y14200D01*
X8200Y16050D02*
X8250Y16100D01*
Y16200D01*
X8200Y16250D01*
X8000D01*
X7950Y16200D01*
Y16100D01*
X8000Y16050D01*
X8250Y15750D02*
Y15950D01*
X8100D01*
X8150Y15850D01*
Y15800D01*
X8100Y15750D01*
X8000D01*
X7950Y15800D01*
Y15900D01*
X8000Y15950D01*
X9600Y16800D02*
X9550Y16850D01*
X9450D01*
X9400Y16800D01*
Y16600D01*
X9450Y16550D01*
X9550D01*
X9600Y16600D01*
X9900Y16850D02*
X9800Y16800D01*
X9700Y16700D01*
Y16600D01*
X9750Y16550D01*
X9850D01*
X9900Y16600D01*
Y16650D01*
X9850Y16700D01*
X9700D01*
X6400Y9200D02*
X6350Y9250D01*
X6250D01*
X6200Y9200D01*
Y9000D01*
X6250Y8950D01*
X6350D01*
X6400Y9000D01*
X6500Y9250D02*
X6700D01*
Y9200D01*
X6500Y9000D01*
Y8950D01*
X8850Y7250D02*
X8800Y7300D01*
X8700D01*
X8650Y7250D01*
Y7050D01*
X8700Y7000D01*
X8800D01*
X8850Y7050D01*
X8950Y7250D02*
X9000Y7300D01*
X9100D01*
X9150Y7250D01*
Y7200D01*
X9100Y7150D01*
X9150Y7100D01*
Y7050D01*
X9100Y7000D01*
X9000D01*
X8950Y7050D01*
Y7100D01*
X9000Y7150D01*
X8950Y7200D01*
Y7250D01*
X9000Y7150D02*
X9100D01*
X6850Y7000D02*
X6900Y7050D01*
Y7150D01*
X6850Y7200D01*
X6650D01*
X6600Y7150D01*
Y7050D01*
X6650Y7000D01*
Y6900D02*
X6600Y6850D01*
Y6750D01*
X6650Y6700D01*
X6850D01*
X6900Y6750D01*
Y6850D01*
X6850Y6900D01*
X6800D01*
X6750Y6850D01*
Y6700D01*
X3400Y7250D02*
X3350Y7300D01*
X3250D01*
X3200Y7250D01*
Y7050D01*
X3250Y7000D01*
X3350D01*
X3400Y7050D01*
X3500Y7000D02*
X3600D01*
X3550D01*
Y7300D01*
X3500Y7250D01*
X3750D02*
X3800Y7300D01*
X3900D01*
X3950Y7250D01*
Y7050D01*
X3900Y7000D01*
X3800D01*
X3750Y7050D01*
Y7250D01*
X2050Y8000D02*
X2100Y8050D01*
Y8150D01*
X2050Y8200D01*
X1850D01*
X1800Y8150D01*
Y8050D01*
X1850Y8000D01*
X1800Y7900D02*
Y7800D01*
Y7850D01*
X2100D01*
X2050Y7900D01*
X1800Y7650D02*
Y7550D01*
Y7600D01*
X2100D01*
X2050Y7650D01*
X1400Y8900D02*
X1350Y8950D01*
X1250D01*
X1200Y8900D01*
Y8700D01*
X1250Y8650D01*
X1350D01*
X1400Y8700D01*
X1500Y8650D02*
X1600D01*
X1550D01*
Y8950D01*
X1500Y8900D01*
X1950Y8650D02*
X1750D01*
X1950Y8850D01*
Y8900D01*
X1900Y8950D01*
X1800D01*
X1750Y8900D01*
X6150Y10450D02*
X6100Y10500D01*
X6000D01*
X5950Y10450D01*
Y10250D01*
X6000Y10200D01*
X6100D01*
X6150Y10250D01*
X6250Y10200D02*
X6350D01*
X6300D01*
Y10500D01*
X6250Y10450D01*
X6500D02*
X6550Y10500D01*
X6650D01*
X6700Y10450D01*
Y10400D01*
X6650Y10350D01*
X6600D01*
X6650D01*
X6700Y10300D01*
Y10250D01*
X6650Y10200D01*
X6550D01*
X6500Y10250D01*
X4800Y12600D02*
X4750Y12650D01*
X4650D01*
X4600Y12600D01*
Y12400D01*
X4650Y12350D01*
X4750D01*
X4800Y12400D01*
X4900Y12350D02*
X5000D01*
X4950D01*
Y12650D01*
X4900Y12600D01*
X5300Y12350D02*
Y12650D01*
X5150Y12500D01*
X5350D01*
X5800Y13200D02*
X5850Y13250D01*
Y13350D01*
X5800Y13400D01*
X5600D01*
X5550Y13350D01*
Y13250D01*
X5600Y13200D01*
X5550Y13100D02*
Y13000D01*
Y13050D01*
X5850D01*
X5800Y13100D01*
X5850Y12650D02*
Y12850D01*
X5700D01*
X5750Y12750D01*
Y12700D01*
X5700Y12650D01*
X5600D01*
X5550Y12700D01*
Y12800D01*
X5600Y12850D01*
X7050Y11800D02*
X7100Y11850D01*
Y11950D01*
X7050Y12000D01*
X6850D01*
X6800Y11950D01*
Y11850D01*
X6850Y11800D01*
X6800Y11700D02*
Y11600D01*
Y11650D01*
X7100D01*
X7050Y11700D01*
X7100Y11250D02*
X7050Y11350D01*
X6950Y11450D01*
X6850D01*
X6800Y11400D01*
Y11300D01*
X6850Y11250D01*
X6900D01*
X6950Y11300D01*
Y11450D01*
X7550Y13300D02*
X7500Y13350D01*
X7400D01*
X7350Y13300D01*
Y13100D01*
X7400Y13050D01*
X7500D01*
X7550Y13100D01*
X7650Y13050D02*
X7750D01*
X7700D01*
Y13350D01*
X7650Y13300D01*
X7900Y13350D02*
X8100D01*
Y13300D01*
X7900Y13100D01*
Y13050D01*
X7950Y4650D02*
X7900Y4700D01*
X7800D01*
X7750Y4650D01*
Y4450D01*
X7800Y4400D01*
X7900D01*
X7950Y4450D01*
X8050Y4400D02*
X8150D01*
X8100D01*
Y4700D01*
X8050Y4650D01*
X8300D02*
X8350Y4700D01*
X8450D01*
X8500Y4650D01*
Y4600D01*
X8450Y4550D01*
X8500Y4500D01*
Y4450D01*
X8450Y4400D01*
X8350D01*
X8300Y4450D01*
Y4500D01*
X8350Y4550D01*
X8300Y4600D01*
Y4650D01*
X8350Y4550D02*
X8450D01*
X9450Y6550D02*
X9500Y6600D01*
Y6700D01*
X9450Y6750D01*
X9250D01*
X9200Y6700D01*
Y6600D01*
X9250Y6550D01*
X9200Y6450D02*
Y6350D01*
Y6400D01*
X9500D01*
X9450Y6450D01*
X9250Y6200D02*
X9200Y6150D01*
Y6050D01*
X9250Y6000D01*
X9450D01*
X9500Y6050D01*
Y6150D01*
X9450Y6200D01*
X9400D01*
X9350Y6150D01*
Y6000D01*
X6900Y4000D02*
X6850Y4050D01*
X6750D01*
X6700Y4000D01*
Y3800D01*
X6750Y3750D01*
X6850D01*
X6900Y3800D01*
X7200Y3750D02*
X7000D01*
X7200Y3950D01*
Y4000D01*
X7150Y4050D01*
X7050D01*
X7000Y4000D01*
X7300D02*
X7350Y4050D01*
X7450D01*
X7500Y4000D01*
Y3800D01*
X7450Y3750D01*
X7350D01*
X7300Y3800D01*
Y4000D01*
X6400Y7850D02*
X6450Y7900D01*
Y8000D01*
X6400Y8050D01*
X6200D01*
X6150Y8000D01*
Y7900D01*
X6200Y7850D01*
X6150Y7550D02*
Y7750D01*
X6350Y7550D01*
X6400D01*
X6450Y7600D01*
Y7700D01*
X6400Y7750D01*
X6150Y7450D02*
Y7350D01*
Y7400D01*
X6450D01*
X6400Y7450D01*
X18500Y400D02*
Y100D01*
X18650D01*
X18700Y150D01*
Y350D01*
X18650Y400D01*
X18500D01*
X18800Y100D02*
X18900D01*
X18850D01*
Y400D01*
X18800Y350D01*
X19150Y400D02*
Y100D01*
X19300D01*
X19350Y150D01*
Y350D01*
X19300Y400D01*
X19150D01*
X19650Y100D02*
X19450D01*
X19650Y300D01*
Y350D01*
X19600Y400D01*
X19500D01*
X19450Y350D01*
X5900Y5700D02*
Y5400D01*
X6050D01*
X6100Y5450D01*
Y5650D01*
X6050Y5700D01*
X5900D01*
X6200Y5650D02*
X6250Y5700D01*
X6350D01*
X6400Y5650D01*
Y5600D01*
X6350Y5550D01*
X6300D01*
X6350D01*
X6400Y5500D01*
Y5450D01*
X6350Y5400D01*
X6250D01*
X6200Y5450D01*
X7450Y9350D02*
Y9650D01*
X7600D01*
X7650Y9600D01*
Y9500D01*
X7600Y9450D01*
X7450D01*
X7550D02*
X7650Y9350D01*
X7750Y9600D02*
X7800Y9650D01*
X7900D01*
X7950Y9600D01*
Y9550D01*
X7900Y9500D01*
X7850D01*
X7900D01*
X7950Y9450D01*
Y9400D01*
X7900Y9350D01*
X7800D01*
X7750Y9400D01*
X3150Y9500D02*
Y9800D01*
X3300D01*
X3350Y9750D01*
Y9650D01*
X3300Y9600D01*
X3150D01*
X3250D02*
X3350Y9500D01*
X3600D02*
Y9800D01*
X3450Y9650D01*
X3650D01*
X8700Y8000D02*
Y8300D01*
X8850D01*
X8900Y8250D01*
Y8150D01*
X8850Y8100D01*
X8700D01*
X8800D02*
X8900Y8000D01*
X9200Y8300D02*
X9000D01*
Y8150D01*
X9100Y8200D01*
X9150D01*
X9200Y8150D01*
Y8050D01*
X9150Y8000D01*
X9050D01*
X9000Y8050D01*
X4850Y8950D02*
Y9250D01*
X5000D01*
X5050Y9200D01*
Y9100D01*
X5000Y9050D01*
X4850D01*
X4950D02*
X5050Y8950D01*
X5350Y9250D02*
X5250Y9200D01*
X5150Y9100D01*
Y9000D01*
X5200Y8950D01*
X5300D01*
X5350Y9000D01*
Y9050D01*
X5300Y9100D01*
X5150D01*
X5600Y9550D02*
Y9850D01*
X5750D01*
X5800Y9800D01*
Y9700D01*
X5750Y9650D01*
X5600D01*
X5700D02*
X5800Y9550D01*
X5900Y9600D02*
X5950Y9550D01*
X6050D01*
X6100Y9600D01*
Y9800D01*
X6050Y9850D01*
X5950D01*
X5900Y9800D01*
Y9750D01*
X5950Y9700D01*
X6100D01*
X9100Y11250D02*
X9400D01*
Y11100D01*
X9350Y11050D01*
X9250D01*
X9200Y11100D01*
Y11250D01*
Y11150D02*
X9100Y11050D01*
Y10950D02*
Y10850D01*
Y10900D01*
X9400D01*
X9350Y10950D01*
Y10700D02*
X9400Y10650D01*
Y10550D01*
X9350Y10500D01*
X9150D01*
X9100Y10550D01*
Y10650D01*
X9150Y10700D01*
X9350D01*
X3400Y11200D02*
Y11500D01*
X3550D01*
X3600Y11450D01*
Y11350D01*
X3550Y11300D01*
X3400D01*
X3500D02*
X3600Y11200D01*
X3700D02*
X3800D01*
X3750D01*
Y11500D01*
X3700Y11450D01*
X3950Y11200D02*
X4050D01*
X4000D01*
Y11500D01*
X3950Y11450D01*
X8000Y10200D02*
Y10500D01*
X8150D01*
X8200Y10450D01*
Y10350D01*
X8150Y10300D01*
X8000D01*
X8100D02*
X8200Y10200D01*
X8300D02*
X8400D01*
X8350D01*
Y10500D01*
X8300Y10450D01*
X8750Y10200D02*
X8550D01*
X8750Y10400D01*
Y10450D01*
X8700Y10500D01*
X8600D01*
X8550Y10450D01*
X6250Y12800D02*
X6550D01*
Y12650D01*
X6500Y12600D01*
X6400D01*
X6350Y12650D01*
Y12800D01*
Y12700D02*
X6250Y12600D01*
Y12500D02*
Y12400D01*
Y12450D01*
X6550D01*
X6500Y12500D01*
Y12250D02*
X6550Y12200D01*
Y12100D01*
X6500Y12050D01*
X6450D01*
X6400Y12100D01*
Y12150D01*
Y12100D01*
X6350Y12050D01*
X6300D01*
X6250Y12100D01*
Y12200D01*
X6300Y12250D01*
X7350Y13650D02*
Y13950D01*
X7500D01*
X7550Y13900D01*
Y13800D01*
X7500Y13750D01*
X7350D01*
X7450D02*
X7550Y13650D01*
X7650D02*
X7750D01*
X7700D01*
Y13950D01*
X7650Y13900D01*
X8050Y13650D02*
Y13950D01*
X7900Y13800D01*
X8100D01*
X4500Y4650D02*
Y4950D01*
X4650D01*
X4700Y4900D01*
Y4800D01*
X4650Y4750D01*
X4500D01*
X4600D02*
X4700Y4650D01*
X4800D02*
X4900D01*
X4850D01*
Y4950D01*
X4800Y4900D01*
X5250Y4950D02*
X5050D01*
Y4800D01*
X5150Y4850D01*
X5200D01*
X5250Y4800D01*
Y4700D01*
X5200Y4650D01*
X5100D01*
X5050Y4700D01*
X3650Y5000D02*
Y5300D01*
X3800D01*
X3850Y5250D01*
Y5150D01*
X3800Y5100D01*
X3650D01*
X3750D02*
X3850Y5000D01*
X3950D02*
X4050D01*
X4000D01*
Y5300D01*
X3950Y5250D01*
X4400Y5300D02*
X4300Y5250D01*
X4200Y5150D01*
Y5050D01*
X4250Y5000D01*
X4350D01*
X4400Y5050D01*
Y5100D01*
X4350Y5150D01*
X4200D01*
X8450Y4700D02*
Y5000D01*
X8600D01*
X8650Y4950D01*
Y4850D01*
X8600Y4800D01*
X8450D01*
X8550D02*
X8650Y4700D01*
X8750D02*
X8850D01*
X8800D01*
Y5000D01*
X8750Y4950D01*
X9000Y5000D02*
X9200D01*
Y4950D01*
X9000Y4750D01*
Y4700D01*
X4450Y6100D02*
Y6400D01*
X4600D01*
X4650Y6350D01*
Y6250D01*
X4600Y6200D01*
X4450D01*
X4550D02*
X4650Y6100D01*
X4750D02*
X4850D01*
X4800D01*
Y6400D01*
X4750Y6350D01*
X5000D02*
X5050Y6400D01*
X5150D01*
X5200Y6350D01*
Y6300D01*
X5150Y6250D01*
X5200Y6200D01*
Y6150D01*
X5150Y6100D01*
X5050D01*
X5000Y6150D01*
Y6200D01*
X5050Y6250D01*
X5000Y6300D01*
Y6350D01*
X5050Y6250D02*
X5150D01*
X5800Y4000D02*
Y4300D01*
X5950D01*
X6000Y4250D01*
Y4150D01*
X5950Y4100D01*
X5800D01*
X5900D02*
X6000Y4000D01*
X6100D02*
X6200D01*
X6150D01*
Y4300D01*
X6100Y4250D01*
X6350Y4050D02*
X6400Y4000D01*
X6500D01*
X6550Y4050D01*
Y4250D01*
X6500Y4300D01*
X6400D01*
X6350Y4250D01*
Y4200D01*
X6400Y4150D01*
X6550D01*
X5700Y6000D02*
Y6300D01*
X5850D01*
X5900Y6250D01*
Y6150D01*
X5850Y6100D01*
X5700D01*
X5800D02*
X5900Y6000D01*
X6200D02*
X6000D01*
X6200Y6200D01*
Y6250D01*
X6150Y6300D01*
X6050D01*
X6000Y6250D01*
X6300D02*
X6350Y6300D01*
X6450D01*
X6500Y6250D01*
Y6050D01*
X6450Y6000D01*
X6350D01*
X6300Y6050D01*
Y6250D01*
X4500Y5350D02*
Y5650D01*
X4650D01*
X4700Y5600D01*
Y5500D01*
X4650Y5450D01*
X4500D01*
X4600D02*
X4700Y5350D01*
X5000D02*
X4800D01*
X5000Y5550D01*
Y5600D01*
X4950Y5650D01*
X4850D01*
X4800Y5600D01*
X5100Y5350D02*
X5200D01*
X5150D01*
Y5650D01*
X5100Y5600D01*
X6650Y3350D02*
Y3650D01*
X6800D01*
X6850Y3600D01*
Y3500D01*
X6800Y3450D01*
X6650D01*
X6750D02*
X6850Y3350D01*
X7150D02*
X6950D01*
X7150Y3550D01*
Y3600D01*
X7100Y3650D01*
X7000D01*
X6950Y3600D01*
X7450Y3350D02*
X7250D01*
X7450Y3550D01*
Y3600D01*
X7400Y3650D01*
X7300D01*
X7250Y3600D01*
X5600Y4700D02*
Y5000D01*
X5750D01*
X5800Y4950D01*
Y4850D01*
X5750Y4800D01*
X5600D01*
X5700D02*
X5800Y4700D01*
X6100D02*
X5900D01*
X6100Y4900D01*
Y4950D01*
X6050Y5000D01*
X5950D01*
X5900Y4950D01*
X6200D02*
X6250Y5000D01*
X6350D01*
X6400Y4950D01*
Y4900D01*
X6350Y4850D01*
X6300D01*
X6350D01*
X6400Y4800D01*
Y4750D01*
X6350Y4700D01*
X6250D01*
X6200Y4750D01*
X5250Y7200D02*
X5550D01*
Y7050D01*
X5500Y7000D01*
X5400D01*
X5350Y7050D01*
Y7200D01*
Y7100D02*
X5250Y7000D01*
Y6700D02*
Y6900D01*
X5450Y6700D01*
X5500D01*
X5550Y6750D01*
Y6850D01*
X5500Y6900D01*
X5250Y6450D02*
X5550D01*
X5400Y6600D01*
Y6400D01*
X18850Y15050D02*
X18800Y15100D01*
X18700D01*
X18650Y15050D01*
Y15000D01*
X18700Y14950D01*
X18800D01*
X18850Y14900D01*
Y14850D01*
X18800Y14800D01*
X18700D01*
X18650Y14850D01*
X19150Y15100D02*
X18950D01*
Y14950D01*
X19050D01*
X18950D01*
Y14800D01*
X19250Y15100D02*
Y14800D01*
X19400D01*
X19450Y14850D01*
Y15050D01*
X19400Y15100D01*
X19250D01*
X10100Y13200D02*
Y13000D01*
X10200Y12900D01*
X10300Y13000D01*
Y13200D01*
X10600Y13150D02*
X10550Y13200D01*
X10450D01*
X10400Y13150D01*
Y12950D01*
X10450Y12900D01*
X10550D01*
X10600Y12950D01*
X10900Y13150D02*
X10850Y13200D01*
X10750D01*
X10700Y13150D01*
Y12950D01*
X10750Y12900D01*
X10850D01*
X10900Y12950D01*
X11000Y13150D02*
X11050Y13200D01*
X11150D01*
X11200Y13150D01*
Y13100D01*
X11150Y13050D01*
X11100D01*
X11150D01*
X11200Y13000D01*
Y12950D01*
X11150Y12900D01*
X11050D01*
X11000Y12950D01*
X11300Y12900D02*
Y12950D01*
X11350D01*
Y12900D01*
X11300D01*
X11550Y13150D02*
X11600Y13200D01*
X11699D01*
X11749Y13150D01*
Y13100D01*
X11699Y13050D01*
X11650D01*
X11699D01*
X11749Y13000D01*
Y12950D01*
X11699Y12900D01*
X11600D01*
X11550Y12950D01*
D53*
X9900Y4060D02*
Y3760D01*
X9960Y3700D01*
X10080D01*
X10140Y3760D01*
Y4060D01*
X10500Y3700D02*
X10260D01*
X10500Y3940D01*
Y4000D01*
X10440Y4060D01*
X10320D01*
X10260Y4000D01*
X11050Y8110D02*
Y7810D01*
X11110Y7750D01*
X11230D01*
X11290Y7810D01*
Y8110D01*
X11410Y8050D02*
X11470Y8110D01*
X11590D01*
X11650Y8050D01*
Y7990D01*
X11590Y7930D01*
X11530D01*
X11590D01*
X11650Y7870D01*
Y7810D01*
X11590Y7750D01*
X11470D01*
X11410Y7810D01*
X9750Y14860D02*
Y14560D01*
X9810Y14500D01*
X9930D01*
X9990Y14560D01*
Y14860D01*
X10290Y14500D02*
Y14860D01*
X10110Y14680D01*
X10350D01*
X8560Y9500D02*
X8260D01*
X8200Y9440D01*
Y9320D01*
X8260Y9260D01*
X8560D01*
Y8900D02*
Y9140D01*
X8380D01*
X8440Y9020D01*
Y8960D01*
X8380Y8900D01*
X8260D01*
X8200Y8960D01*
Y9080D01*
X8260Y9140D01*
X4860Y7700D02*
X4560D01*
X4500Y7640D01*
Y7520D01*
X4560Y7460D01*
X4860D01*
Y7100D02*
X4800Y7220D01*
X4680Y7340D01*
X4560D01*
X4500Y7280D01*
Y7160D01*
X4560Y7100D01*
X4620D01*
X4680Y7160D01*
Y7340D01*
X5810Y10550D02*
X5510D01*
X5450Y10490D01*
Y10370D01*
X5510Y10310D01*
X5810D01*
Y10190D02*
Y9950D01*
X5750D01*
X5510Y10190D01*
X5450D01*
X9250Y12760D02*
Y12460D01*
X9310Y12400D01*
X9430D01*
X9490Y12460D01*
Y12760D01*
X9610Y12700D02*
X9670Y12760D01*
X9790D01*
X9850Y12700D01*
Y12640D01*
X9790Y12580D01*
X9850Y12520D01*
Y12460D01*
X9790Y12400D01*
X9670D01*
X9610Y12460D01*
Y12520D01*
X9670Y12580D01*
X9610Y12640D01*
Y12700D01*
X9670Y12580D02*
X9790D01*
X7850Y7160D02*
Y6860D01*
X7910Y6800D01*
X8030D01*
X8090Y6860D01*
Y7160D01*
X8210Y6860D02*
X8270Y6800D01*
X8390D01*
X8450Y6860D01*
Y7100D01*
X8390Y7160D01*
X8270D01*
X8210Y7100D01*
Y7040D01*
X8270Y6980D01*
X8450D01*
X10350Y5860D02*
Y5560D01*
X10410Y5500D01*
X10530D01*
X10590Y5560D01*
Y5860D01*
X10710Y5500D02*
X10830D01*
X10770D01*
Y5860D01*
X10710Y5800D01*
X11010D02*
X11070Y5860D01*
X11190D01*
X11250Y5800D01*
Y5560D01*
X11190Y5500D01*
X11070D01*
X11010Y5560D01*
Y5800D01*
X15360Y5250D02*
X15060D01*
X15000Y5190D01*
Y5070D01*
X15060Y5010D01*
X15360D01*
X15000Y4890D02*
Y4770D01*
Y4830D01*
X15360D01*
X15300Y4890D01*
X15000Y4590D02*
Y4470D01*
Y4530D01*
X15360D01*
X15300Y4590D01*
D54*
X13050Y14600D02*
Y15080D01*
X13210Y14920D01*
X13370Y15080D01*
Y14600D01*
X13530Y15080D02*
X13690D01*
X13610D01*
Y14600D01*
X13530D01*
X13690D01*
X14250Y15000D02*
X14170Y15080D01*
X14010D01*
X13930Y15000D01*
Y14680D01*
X14010Y14600D01*
X14170D01*
X14250Y14680D01*
X14410Y15080D02*
Y14600D01*
Y14840D01*
X14729D01*
Y15080D01*
Y14600D01*
X14889Y15080D02*
X15049D01*
X14969D01*
Y14600D01*
X14889D01*
X15049D01*
X15609Y15000D02*
X15529Y15080D01*
X15369D01*
X15289Y15000D01*
Y14680D01*
X15369Y14600D01*
X15529D01*
X15609Y14680D01*
Y14840D01*
X15449D01*
X15769Y14600D02*
Y14920D01*
X15929Y15080D01*
X16089Y14920D01*
Y14600D01*
Y14840D01*
X15769D01*
X16249Y14600D02*
Y15080D01*
X16569Y14600D01*
Y15080D01*
X10600Y15909D02*
Y15429D01*
Y15669D01*
X10920D01*
Y15909D01*
Y15429D01*
X11080Y15749D02*
Y15509D01*
X11160Y15429D01*
X11400D01*
Y15749D01*
X11640D02*
X11800D01*
X11880Y15669D01*
Y15429D01*
X11640D01*
X11560Y15509D01*
X11640Y15589D01*
X11880D01*
X12040Y15429D02*
Y15749D01*
X12280D01*
X12360Y15669D01*
Y15429D01*
X12680Y15269D02*
X12760D01*
X12840Y15349D01*
Y15749D01*
X12600D01*
X12520Y15669D01*
Y15509D01*
X12600Y15429D01*
X12840D01*
X13080Y15349D02*
X13160Y15429D01*
Y15509D01*
X13080D01*
Y15429D01*
X13160D01*
X13080Y15349D01*
X13000Y15269D01*
X13959Y15909D02*
Y15429D01*
Y15589D01*
X14279Y15909D01*
X14039Y15669D01*
X14279Y15429D01*
X14439Y15749D02*
Y15509D01*
X14519Y15429D01*
X14759D01*
Y15749D01*
X14999Y15429D02*
X15159D01*
X15239Y15509D01*
Y15669D01*
X15159Y15749D01*
X14999D01*
X14919Y15669D01*
Y15509D01*
X14999Y15429D01*
X15479Y15349D02*
X15559Y15429D01*
Y15509D01*
X15479D01*
Y15429D01*
X15559D01*
X15479Y15349D01*
X15399Y15269D01*
X16359Y15429D02*
X16518D01*
X16439D01*
Y15909D01*
X16359Y15829D01*
X16758Y15429D02*
X16918D01*
X16838D01*
Y15909D01*
X16758Y15829D01*
X17158Y15429D02*
X17478Y15749D01*
X17638Y15829D02*
X17718Y15909D01*
X17878D01*
X17958Y15829D01*
Y15749D01*
X17878Y15669D01*
X17798D01*
X17878D01*
X17958Y15589D01*
Y15509D01*
X17878Y15429D01*
X17718D01*
X17638Y15509D01*
X18118Y15829D02*
X18198Y15909D01*
X18358D01*
X18438Y15829D01*
Y15509D01*
X18358Y15429D01*
X18198D01*
X18118Y15509D01*
Y15829D01*
X10900Y16630D02*
Y16230D01*
X10980Y16150D01*
X11140D01*
X11220Y16230D01*
Y16630D01*
X11380Y16150D02*
X11540D01*
X11460D01*
Y16630D01*
X11380D01*
X11860Y16550D02*
Y16470D01*
X11780D01*
X11940D01*
X11860D01*
Y16230D01*
X11940Y16150D01*
X12180Y16470D02*
Y16150D01*
Y16310D01*
X12260Y16390D01*
X12340Y16470D01*
X12420D01*
X12739D02*
X12899D01*
X12979Y16390D01*
Y16150D01*
X12739D01*
X12659Y16230D01*
X12739Y16310D01*
X12979D01*
X13139Y16150D02*
X13379D01*
X13459Y16230D01*
X13379Y16310D01*
X13219D01*
X13139Y16390D01*
X13219Y16470D01*
X13459D01*
X13699Y16150D02*
X13859D01*
X13939Y16230D01*
Y16390D01*
X13859Y16470D01*
X13699D01*
X13619Y16390D01*
Y16230D01*
X13699Y16150D01*
X14099D02*
Y16470D01*
X14339D01*
X14419Y16390D01*
Y16150D01*
X14579D02*
X14739D01*
X14659D01*
Y16470D01*
X14579D01*
X15299D02*
X15059D01*
X14979Y16390D01*
Y16230D01*
X15059Y16150D01*
X15299D01*
X15938Y16630D02*
Y16310D01*
X16098Y16150D01*
X16258Y16310D01*
Y16630D01*
X16418Y16150D02*
X16578D01*
X16498D01*
Y16630D01*
X16418Y16550D01*
X16818Y16150D02*
Y16230D01*
X16898D01*
Y16150D01*
X16818D01*
X17218Y16550D02*
X17298Y16630D01*
X17458D01*
X17538Y16550D01*
Y16230D01*
X17458Y16150D01*
X17298D01*
X17218Y16230D01*
Y16550D01*
M02*
