M48
;Layer_Color=9474304
;FILE_FORMAT=2:4
INCH,LZ
;TYPE=PLATED
T1F00S00C0.0160
T2F00S00C0.0200
T3F00S00C0.0354
T4F00S00C0.0394
T5F00S00C0.0472
T6F00S00C0.0669
T7F00S00C0.1181
%
T01
X004Y0055
X0056Y0052
X0066Y00485
X00705Y0042
X00755Y00455
X0074Y0035
X0091Y00345
Y00405
X01075Y0039
X01085Y00445
Y00535
X01035Y00505
X0117Y004
X01215Y00305
Y00235
Y00165
X0114Y00195
X01355Y0043
X01315Y00505
X015Y00555
X016836Y0055
X0166Y00415
X01625Y00445
Y00385
X0189Y00335
X01905Y0049
X02065Y00495
X0204Y002
X0198Y0012
X01985Y0006
X0224Y0018
X0218Y0038
X02125Y00435
X0245Y009
X0262Y0086
X02785Y00945
X0288Y0082
X02285Y0122
X0222Y0151
X0204
X0197Y0144
X0181Y0139
X01764Y01294
X0169Y01325
X01615
X0153
X0146
Y014
X01451Y01226
X01531
X01611
X0169Y01225
X01605Y01135
X0153Y01065
X01445Y01
X014693Y0095
X01475Y007657
X0151Y0073
X01685Y00755
X01615Y00875
X01745Y0089
X016172Y00625
X0135Y0109
X01366Y01266
X0126Y013
X01205Y01205
X01185Y01385
X01055Y0138
X009653Y014032
X00905Y014
X00845
X00715Y01345
X007Y0128
X00665Y0123
X006Y0124
X00715Y01205
X0071Y0115
X00835Y0118
X00955Y0092
Y0076
X0084Y0074
X0077Y00785
Y0083
X0071Y0077
X00885Y0057
X01115Y0092
X00895Y01635
X0079Y0155
X0068Y0145
X0043Y012
X00495Y01115
X0047Y008
X00385Y00845
X0042Y00715
X0029Y00665
X0024Y00755
Y00815
X005455Y0062
T02
X023Y002607
X0237Y003322
X024079Y00365
X02445Y003986
X024793Y00435
X02515Y0047
X0237Y013778
X02335Y014136
X02265Y01485
X01895Y01445
X0193Y014086
T03
X00715Y00265
X00815
X01325Y00255
X01425
T04
X010125Y00095
X010913
X0117
X013275
T05
X00605Y0036
X00925Y005
X0159
X01385Y00605
X0136Y0074
X01335Y0089
X0089Y00945
X0093Y01065
X0104Y011
X01095Y0123
X0087Y013
X0064Y01335
X00625Y0098
X0074Y00995
X00895Y0077
X01Y00625
X018Y01485
X005Y0095
X00385Y01005
X0027Y00975
X00375Y00625
T06
X012Y006532
Y010468
T07
X012Y006532
Y010468
M30
