%FSLAX24Y24*%
%MOIN*%
G70*
G01*
G75*
G04 Layer_Physical_Order=2*
G04 Layer_Color=36540*
%ADD10R,0.0354X0.0276*%
%ADD11R,0.0315X0.0354*%
%ADD12R,0.0354X0.0315*%
%ADD13R,0.0236X0.0197*%
%ADD14R,0.0236X0.0591*%
%ADD15R,0.0197X0.0236*%
%ADD16R,0.0335X0.0157*%
%ADD17R,0.0276X0.0354*%
%ADD18R,0.0157X0.0335*%
%ADD19R,0.0512X0.0217*%
%ADD20R,0.0157X0.0157*%
%ADD21R,0.0118X0.0209*%
%ADD22R,0.0118X0.0193*%
%ADD23O,0.0118X0.0650*%
%ADD24R,0.0394X0.0217*%
G04:AMPARAMS|DCode=25|XSize=59.8mil|YSize=30mil|CornerRadius=0mil|HoleSize=0mil|Usage=FLASHONLY|Rotation=225.000|XOffset=0mil|YOffset=0mil|HoleType=Round|Shape=Rectangle|*
%AMROTATEDRECTD25*
4,1,4,0.0106,0.0318,0.0318,0.0106,-0.0106,-0.0318,-0.0318,-0.0106,0.0106,0.0318,0.0*
%
%ADD25ROTATEDRECTD25*%

G04:AMPARAMS|DCode=26|XSize=59.8mil|YSize=30mil|CornerRadius=0mil|HoleSize=0mil|Usage=FLASHONLY|Rotation=135.000|XOffset=0mil|YOffset=0mil|HoleType=Round|Shape=Rectangle|*
%AMROTATEDRECTD26*
4,1,4,0.0318,-0.0106,0.0106,-0.0318,-0.0318,0.0106,-0.0106,0.0318,0.0318,-0.0106,0.0*
%
%ADD26ROTATEDRECTD26*%

G04:AMPARAMS|DCode=27|XSize=60mil|YSize=30mil|CornerRadius=0mil|HoleSize=0mil|Usage=FLASHONLY|Rotation=135.000|XOffset=0mil|YOffset=0mil|HoleType=Round|Shape=Rectangle|*
%AMROTATEDRECTD27*
4,1,4,0.0318,-0.0106,0.0106,-0.0318,-0.0318,0.0106,-0.0106,0.0318,0.0318,-0.0106,0.0*
%
%ADD27ROTATEDRECTD27*%

%ADD28R,0.0240X0.1750*%
G04:AMPARAMS|DCode=29|XSize=35.4mil|YSize=31.5mil|CornerRadius=0mil|HoleSize=0mil|Usage=FLASHONLY|Rotation=315.000|XOffset=0mil|YOffset=0mil|HoleType=Round|Shape=Rectangle|*
%AMROTATEDRECTD29*
4,1,4,-0.0237,0.0014,-0.0014,0.0237,0.0237,-0.0014,0.0014,-0.0237,-0.0237,0.0014,0.0*
%
%ADD29ROTATEDRECTD29*%

%ADD30R,0.0098X0.0591*%
%ADD31R,0.0394X0.0591*%
%ADD32C,0.0120*%
%ADD33C,0.0150*%
%ADD34C,0.0200*%
%ADD35C,0.0984*%
%ADD36C,0.0591*%
%ADD37C,0.0661*%
%ADD38C,0.1772*%
%ADD39C,0.0400*%
%ADD40C,0.0320*%
G36*
X29529Y8500D02*
X29063Y8033D01*
X29025Y8066D01*
X29027Y8069D01*
X29053Y8132D01*
X29057Y8160D01*
X28840D01*
Y7943D01*
X28868Y7947D01*
X28931Y7973D01*
X28934Y7975D01*
X28967Y7937D01*
X21115Y85D01*
X18385D01*
Y3600D01*
X18379Y3633D01*
X18360Y3660D01*
X18333Y3679D01*
X18300Y3685D01*
X17700D01*
X17667Y3679D01*
X17640Y3660D01*
X17621Y3633D01*
X17615Y3600D01*
X16485D01*
X16479Y3633D01*
X16460Y3660D01*
X16433Y3679D01*
X16446Y3748D01*
X16457Y3764D01*
X16474Y3850D01*
X16469Y3875D01*
X16508Y3907D01*
X16532Y3897D01*
X16560Y3893D01*
Y4110D01*
X16343D01*
X16345Y4097D01*
X16315Y4069D01*
X16303Y4064D01*
X16250Y4074D01*
X16164Y4057D01*
X16091Y4009D01*
X16043Y3936D01*
X16026Y3850D01*
X16043Y3764D01*
X16054Y3748D01*
X16067Y3679D01*
X16040Y3660D01*
X16021Y3633D01*
X16015Y3600D01*
X15685D01*
X15679Y3633D01*
X15660Y3660D01*
X15633Y3679D01*
X15600Y3685D01*
X14950D01*
X14917Y3679D01*
X14890Y3660D01*
X14871Y3633D01*
X14865Y3600D01*
Y85D01*
X8535D01*
X121Y8500D01*
X8535Y16915D01*
X21115D01*
X29529Y8500D01*
D02*
G37*
%LPC*%
G36*
X5560Y5457D02*
X5532Y5453D01*
X5469Y5427D01*
X5415Y5385D01*
X5373Y5331D01*
X5347Y5268D01*
X5343Y5240D01*
X5560D01*
Y5457D01*
D02*
G37*
G36*
X5640D02*
Y5240D01*
X5857D01*
X5853Y5268D01*
X5827Y5331D01*
X5785Y5385D01*
X5731Y5427D01*
X5668Y5453D01*
X5640Y5457D01*
D02*
G37*
G36*
X5857Y5160D02*
X5640D01*
Y4943D01*
X5668Y4947D01*
X5731Y4973D01*
X5785Y5015D01*
X5827Y5069D01*
X5853Y5132D01*
X5857Y5160D01*
D02*
G37*
G36*
X10810Y5310D02*
X10593D01*
X10597Y5282D01*
X10623Y5219D01*
X10665Y5165D01*
X10719Y5123D01*
X10782Y5097D01*
X10810Y5093D01*
Y5310D01*
D02*
G37*
G36*
X11107D02*
X10890D01*
Y5093D01*
X10918Y5097D01*
X10981Y5123D01*
X11035Y5165D01*
X11077Y5219D01*
X11103Y5282D01*
X11107Y5310D01*
D02*
G37*
G36*
X15000Y5774D02*
X14914Y5757D01*
X14841Y5709D01*
X14793Y5636D01*
X14776Y5550D01*
X14793Y5464D01*
X14841Y5391D01*
X14914Y5343D01*
X15000Y5326D01*
X15086Y5343D01*
X15159Y5391D01*
X15207Y5464D01*
X15224Y5550D01*
X15207Y5636D01*
X15159Y5709D01*
X15086Y5757D01*
X15000Y5774D01*
D02*
G37*
G36*
X10810Y5607D02*
X10782Y5603D01*
X10719Y5577D01*
X10665Y5535D01*
X10623Y5481D01*
X10597Y5418D01*
X10593Y5390D01*
X10810D01*
Y5607D01*
D02*
G37*
G36*
X10890D02*
Y5390D01*
X11107D01*
X11103Y5418D01*
X11077Y5481D01*
X11035Y5535D01*
X10981Y5577D01*
X10918Y5603D01*
X10890Y5607D01*
D02*
G37*
G36*
X16796Y5460D02*
X16579D01*
X16582Y5432D01*
X16609Y5369D01*
X16650Y5315D01*
X16705Y5273D01*
X16768Y5247D01*
X16796Y5243D01*
Y5460D01*
D02*
G37*
G36*
X17093D02*
X16876D01*
Y5243D01*
X16904Y5247D01*
X16967Y5273D01*
X17021Y5315D01*
X17063Y5369D01*
X17089Y5432D01*
X17093Y5460D01*
D02*
G37*
G36*
X4000Y5724D02*
X3914Y5707D01*
X3841Y5659D01*
X3793Y5586D01*
X3776Y5500D01*
X3793Y5414D01*
X3841Y5341D01*
X3914Y5293D01*
X4000Y5276D01*
X4086Y5293D01*
X4159Y5341D01*
X4207Y5414D01*
X4224Y5500D01*
X4207Y5586D01*
X4159Y5659D01*
X4086Y5707D01*
X4000Y5724D01*
D02*
G37*
G36*
X5560Y5160D02*
X5343D01*
X5347Y5132D01*
X5373Y5069D01*
X5415Y5015D01*
X5469Y4973D01*
X5532Y4947D01*
X5560Y4943D01*
Y5160D01*
D02*
G37*
G36*
X13510Y4557D02*
X13482Y4553D01*
X13419Y4527D01*
X13365Y4485D01*
X13323Y4431D01*
X13297Y4368D01*
X13293Y4340D01*
X13510D01*
Y4557D01*
D02*
G37*
G36*
X13590D02*
Y4340D01*
X13807D01*
X13803Y4368D01*
X13777Y4431D01*
X13735Y4485D01*
X13681Y4527D01*
X13618Y4553D01*
X13590Y4557D01*
D02*
G37*
G36*
X7550Y4774D02*
X7464Y4757D01*
X7391Y4709D01*
X7343Y4636D01*
X7326Y4550D01*
X7343Y4464D01*
X7391Y4391D01*
X7464Y4343D01*
X7550Y4326D01*
X7636Y4343D01*
X7709Y4391D01*
X7757Y4464D01*
X7774Y4550D01*
X7757Y4636D01*
X7709Y4709D01*
X7636Y4757D01*
X7550Y4774D01*
D02*
G37*
G36*
X15900Y5394D02*
X15798Y5381D01*
X15703Y5341D01*
X15621Y5279D01*
X15559Y5197D01*
X15519Y5102D01*
X15506Y5000D01*
X15519Y4898D01*
X15559Y4803D01*
X15621Y4721D01*
X15703Y4659D01*
X15798Y4619D01*
X15900Y4606D01*
X16002Y4619D01*
X16056Y4642D01*
X16088Y4603D01*
X16043Y4536D01*
X16026Y4450D01*
X16043Y4364D01*
X16091Y4291D01*
X16164Y4243D01*
X16250Y4226D01*
X16303Y4236D01*
X16315Y4231D01*
X16345Y4203D01*
X16343Y4190D01*
X16560D01*
Y4407D01*
X16532Y4403D01*
X16508Y4393D01*
X16469Y4425D01*
X16474Y4450D01*
X16457Y4536D01*
X16409Y4609D01*
X16336Y4657D01*
X16250Y4674D01*
X16179Y4660D01*
X16158Y4706D01*
X16179Y4721D01*
X16241Y4803D01*
X16281Y4898D01*
X16294Y5000D01*
X16281Y5102D01*
X16241Y5197D01*
X16179Y5279D01*
X16097Y5341D01*
X16002Y5381D01*
X15900Y5394D01*
D02*
G37*
G36*
X16640Y4407D02*
Y4190D01*
X16857D01*
X16853Y4218D01*
X16827Y4281D01*
X16785Y4335D01*
X16731Y4377D01*
X16668Y4403D01*
X16640Y4407D01*
D02*
G37*
G36*
X25150Y4962D02*
X25082Y4953D01*
X25019Y4927D01*
X24965Y4885D01*
X24923Y4831D01*
X24897Y4768D01*
X24888Y4700D01*
X24896Y4639D01*
X24860Y4603D01*
X24793Y4612D01*
X24725Y4603D01*
X24662Y4577D01*
X24607Y4535D01*
X24566Y4481D01*
X24540Y4418D01*
X24531Y4350D01*
X24540Y4282D01*
X24541Y4280D01*
X24510Y4240D01*
X24450Y4248D01*
X24382Y4239D01*
X24319Y4213D01*
X24265Y4171D01*
X24223Y4117D01*
X24197Y4054D01*
X24188Y3986D01*
X24195Y3930D01*
X24159Y3902D01*
X24154Y3900D01*
X24147Y3903D01*
X24079Y3912D01*
X24011Y3903D01*
X23948Y3877D01*
X23893Y3835D01*
X23852Y3781D01*
X23825Y3718D01*
X23816Y3650D01*
X23823Y3599D01*
X23784Y3568D01*
X23768Y3575D01*
X23700Y3584D01*
X23632Y3575D01*
X23569Y3549D01*
X23515Y3507D01*
X23473Y3453D01*
X23447Y3389D01*
X23438Y3322D01*
X23447Y3254D01*
X23473Y3190D01*
X23515Y3136D01*
X23569Y3094D01*
X23632Y3068D01*
X23700Y3059D01*
X23768Y3068D01*
X23831Y3094D01*
X23885Y3136D01*
X23927Y3190D01*
X23953Y3254D01*
X23962Y3322D01*
X23956Y3373D01*
X23995Y3403D01*
X24011Y3397D01*
X24079Y3388D01*
X24147Y3397D01*
X24210Y3423D01*
X24264Y3465D01*
X24306Y3519D01*
X24332Y3582D01*
X24341Y3650D01*
X24334Y3706D01*
X24370Y3734D01*
X24375Y3736D01*
X24382Y3732D01*
X24450Y3724D01*
X24518Y3732D01*
X24581Y3759D01*
X24635Y3800D01*
X24677Y3855D01*
X24703Y3918D01*
X24712Y3986D01*
X24703Y4054D01*
X24702Y4056D01*
X24733Y4096D01*
X24793Y4088D01*
X24861Y4097D01*
X24924Y4123D01*
X24978Y4165D01*
X25020Y4219D01*
X25046Y4282D01*
X25055Y4350D01*
X25047Y4411D01*
X25082Y4447D01*
X25150Y4438D01*
X25218Y4447D01*
X25281Y4473D01*
X25335Y4515D01*
X25377Y4569D01*
X25403Y4632D01*
X25412Y4700D01*
X25403Y4768D01*
X25377Y4831D01*
X25335Y4885D01*
X25281Y4927D01*
X25218Y4953D01*
X25150Y4962D01*
D02*
G37*
G36*
X10350Y5274D02*
X10264Y5257D01*
X10191Y5209D01*
X10143Y5136D01*
X10126Y5050D01*
X10143Y4964D01*
X10191Y4891D01*
X10264Y4843D01*
X10350Y4826D01*
X10436Y4843D01*
X10509Y4891D01*
X10557Y4964D01*
X10574Y5050D01*
X10557Y5136D01*
X10509Y5209D01*
X10436Y5257D01*
X10350Y5274D01*
D02*
G37*
G36*
X13150D02*
X13064Y5257D01*
X12991Y5209D01*
X12943Y5136D01*
X12926Y5050D01*
X12943Y4964D01*
X12991Y4891D01*
X13064Y4843D01*
X13150Y4826D01*
X13236Y4843D01*
X13309Y4891D01*
X13357Y4964D01*
X13374Y5050D01*
X13357Y5136D01*
X13309Y5209D01*
X13236Y5257D01*
X13150Y5274D01*
D02*
G37*
G36*
X19050Y5124D02*
X18964Y5107D01*
X18891Y5059D01*
X18843Y4986D01*
X18826Y4900D01*
X18843Y4814D01*
X18891Y4741D01*
X18964Y4693D01*
X19050Y4676D01*
X19136Y4693D01*
X19209Y4741D01*
X19257Y4814D01*
X19274Y4900D01*
X19257Y4986D01*
X19209Y5059D01*
X19136Y5107D01*
X19050Y5124D01*
D02*
G37*
G36*
X9250Y5394D02*
X9148Y5381D01*
X9053Y5341D01*
X8971Y5279D01*
X8909Y5197D01*
X8869Y5102D01*
X8856Y5000D01*
X8869Y4898D01*
X8909Y4803D01*
X8971Y4721D01*
X9053Y4659D01*
X9148Y4619D01*
X9250Y4606D01*
X9352Y4619D01*
X9447Y4659D01*
X9529Y4721D01*
X9591Y4803D01*
X9631Y4898D01*
X9644Y5000D01*
X9631Y5102D01*
X9591Y5197D01*
X9529Y5279D01*
X9447Y5341D01*
X9352Y5381D01*
X9250Y5394D01*
D02*
G37*
G36*
X6600Y5074D02*
X6514Y5057D01*
X6441Y5009D01*
X6393Y4936D01*
X6376Y4850D01*
X6393Y4764D01*
X6441Y4691D01*
X6514Y4643D01*
X6600Y4626D01*
X6686Y4643D01*
X6759Y4691D01*
X6807Y4764D01*
X6824Y4850D01*
X6807Y4936D01*
X6759Y5009D01*
X6686Y5057D01*
X6600Y5074D01*
D02*
G37*
G36*
X8850Y5924D02*
X8764Y5907D01*
X8691Y5859D01*
X8643Y5786D01*
X8626Y5700D01*
X8643Y5614D01*
X8691Y5541D01*
X8764Y5493D01*
X8850Y5476D01*
X8936Y5493D01*
X9009Y5541D01*
X9057Y5614D01*
X9074Y5700D01*
X9057Y5786D01*
X9009Y5859D01*
X8936Y5907D01*
X8850Y5924D01*
D02*
G37*
G36*
X15357Y7260D02*
X15140D01*
Y7043D01*
X15168Y7047D01*
X15231Y7073D01*
X15285Y7115D01*
X15327Y7169D01*
X15353Y7232D01*
X15357Y7260D01*
D02*
G37*
G36*
X2400Y7774D02*
X2314Y7757D01*
X2241Y7709D01*
X2193Y7636D01*
X2176Y7550D01*
X2193Y7464D01*
X2241Y7391D01*
X2314Y7343D01*
X2400Y7326D01*
X2486Y7343D01*
X2559Y7391D01*
X2607Y7464D01*
X2624Y7550D01*
X2607Y7636D01*
X2559Y7709D01*
X2486Y7757D01*
X2400Y7774D01*
D02*
G37*
G36*
X15060Y7260D02*
X14843D01*
X14847Y7232D01*
X14873Y7169D01*
X14915Y7115D01*
X14969Y7073D01*
X15032Y7047D01*
X15060Y7043D01*
Y7260D01*
D02*
G37*
G36*
X4200Y7374D02*
X4114Y7357D01*
X4041Y7309D01*
X3993Y7236D01*
X3976Y7150D01*
X3993Y7064D01*
X4041Y6991D01*
X4114Y6943D01*
X4200Y6926D01*
X4286Y6943D01*
X4359Y6991D01*
X4407Y7064D01*
X4424Y7150D01*
X4407Y7236D01*
X4359Y7309D01*
X4286Y7357D01*
X4200Y7374D01*
D02*
G37*
G36*
X13600Y7794D02*
X13498Y7781D01*
X13403Y7741D01*
X13321Y7679D01*
X13259Y7597D01*
X13219Y7502D01*
X13206Y7400D01*
X13219Y7298D01*
X13259Y7203D01*
X13321Y7121D01*
X13403Y7059D01*
X13498Y7019D01*
X13600Y7006D01*
X13702Y7019D01*
X13797Y7059D01*
X13879Y7121D01*
X13941Y7203D01*
X13981Y7298D01*
X13994Y7400D01*
X13981Y7502D01*
X13941Y7597D01*
X13879Y7679D01*
X13797Y7741D01*
X13702Y7781D01*
X13600Y7794D01*
D02*
G37*
G36*
X16850Y7774D02*
X16764Y7757D01*
X16691Y7709D01*
X16643Y7636D01*
X16626Y7550D01*
X16643Y7464D01*
X16691Y7391D01*
X16764Y7343D01*
X16850Y7326D01*
X16936Y7343D01*
X17009Y7391D01*
X17057Y7464D01*
X17074Y7550D01*
X17057Y7636D01*
X17009Y7709D01*
X16936Y7757D01*
X16850Y7774D01*
D02*
G37*
G36*
X8950Y8094D02*
X8848Y8081D01*
X8753Y8041D01*
X8671Y7979D01*
X8609Y7897D01*
X8569Y7802D01*
X8556Y7700D01*
X8568Y7607D01*
X8526Y7581D01*
X8486Y7607D01*
X8400Y7624D01*
X8314Y7607D01*
X8241Y7559D01*
X8193Y7486D01*
X8176Y7400D01*
X8193Y7314D01*
X8241Y7241D01*
X8314Y7193D01*
X8400Y7176D01*
X8486Y7193D01*
X8559Y7241D01*
X8607Y7314D01*
X8624Y7400D01*
X8624Y7404D01*
X8669Y7424D01*
X8671Y7421D01*
X8753Y7359D01*
X8848Y7319D01*
X8950Y7306D01*
X9052Y7319D01*
X9147Y7359D01*
X9229Y7421D01*
X9291Y7503D01*
X9294Y7508D01*
X9343Y7513D01*
X9391Y7441D01*
X9464Y7393D01*
X9550Y7376D01*
X9636Y7393D01*
X9709Y7441D01*
X9757Y7514D01*
X9774Y7600D01*
X9757Y7686D01*
X9709Y7759D01*
X9636Y7807D01*
X9550Y7824D01*
X9464Y7807D01*
X9391Y7759D01*
X9385Y7749D01*
X9336Y7760D01*
X9331Y7802D01*
X9291Y7897D01*
X9229Y7979D01*
X9147Y8041D01*
X9052Y8081D01*
X8950Y8094D01*
D02*
G37*
G36*
X7660Y7810D02*
X7443D01*
X7447Y7782D01*
X7473Y7719D01*
X7515Y7665D01*
X7569Y7623D01*
X7632Y7597D01*
X7660Y7593D01*
Y7810D01*
D02*
G37*
G36*
X7100Y7924D02*
X7014Y7907D01*
X6941Y7859D01*
X6893Y7786D01*
X6876Y7700D01*
X6893Y7614D01*
X6941Y7541D01*
X7014Y7493D01*
X7100Y7476D01*
X7186Y7493D01*
X7259Y7541D01*
X7307Y7614D01*
X7324Y7700D01*
X7307Y7786D01*
X7259Y7859D01*
X7186Y7907D01*
X7100Y7924D01*
D02*
G37*
G36*
X14750Y7881D02*
X14664Y7864D01*
X14591Y7815D01*
X14543Y7743D01*
X14526Y7657D01*
X14543Y7571D01*
X14591Y7498D01*
X14664Y7450D01*
X14750Y7433D01*
X14833Y7449D01*
X14853Y7425D01*
X14863Y7408D01*
X14847Y7368D01*
X14843Y7340D01*
X15060D01*
Y7557D01*
X15032Y7553D01*
X15002Y7541D01*
X14957Y7571D01*
X14974Y7657D01*
X14957Y7743D01*
X14909Y7815D01*
X14836Y7864D01*
X14750Y7881D01*
D02*
G37*
G36*
X15140Y7557D02*
Y7340D01*
X15357D01*
X15353Y7368D01*
X15327Y7431D01*
X15285Y7485D01*
X15231Y7527D01*
X15168Y7553D01*
X15140Y7557D01*
D02*
G37*
G36*
X2900Y6874D02*
X2814Y6857D01*
X2741Y6809D01*
X2693Y6736D01*
X2676Y6650D01*
X2693Y6564D01*
X2741Y6491D01*
X2814Y6443D01*
X2900Y6426D01*
X2986Y6443D01*
X3059Y6491D01*
X3107Y6564D01*
X3124Y6650D01*
X3107Y6736D01*
X3059Y6809D01*
X2986Y6857D01*
X2900Y6874D01*
D02*
G37*
G36*
X13850Y6444D02*
X13748Y6431D01*
X13653Y6391D01*
X13571Y6329D01*
X13509Y6247D01*
X13469Y6152D01*
X13456Y6050D01*
X13469Y5948D01*
X13509Y5853D01*
X13571Y5771D01*
X13653Y5709D01*
X13748Y5669D01*
X13850Y5656D01*
X13952Y5669D01*
X14047Y5709D01*
X14129Y5771D01*
X14191Y5853D01*
X14231Y5948D01*
X14244Y6050D01*
X14231Y6152D01*
X14191Y6247D01*
X14129Y6329D01*
X14047Y6391D01*
X13952Y6431D01*
X13850Y6444D01*
D02*
G37*
G36*
X3750Y6644D02*
X3648Y6631D01*
X3553Y6591D01*
X3471Y6529D01*
X3409Y6447D01*
X3369Y6352D01*
X3356Y6250D01*
X3369Y6148D01*
X3409Y6053D01*
X3471Y5971D01*
X3553Y5909D01*
X3648Y5869D01*
X3750Y5856D01*
X3852Y5869D01*
X3947Y5909D01*
X4029Y5971D01*
X4091Y6053D01*
X4131Y6148D01*
X4144Y6250D01*
X4131Y6352D01*
X4091Y6447D01*
X4029Y6529D01*
X3947Y6591D01*
X3852Y6631D01*
X3750Y6644D01*
D02*
G37*
G36*
X12000Y7482D02*
X11815Y7464D01*
X11636Y7410D01*
X11472Y7322D01*
X11328Y7204D01*
X11210Y7060D01*
X11122Y6895D01*
X11068Y6717D01*
X11050Y6532D01*
X11068Y6346D01*
X11122Y6168D01*
X11210Y6003D01*
X11328Y5859D01*
X11472Y5741D01*
X11636Y5653D01*
X11815Y5599D01*
X12000Y5581D01*
X12185Y5599D01*
X12364Y5653D01*
X12528Y5741D01*
X12672Y5859D01*
X12790Y6003D01*
X12878Y6168D01*
X12932Y6346D01*
X12950Y6532D01*
X12932Y6717D01*
X12878Y6895D01*
X12790Y7060D01*
X12672Y7204D01*
X12528Y7322D01*
X12364Y7410D01*
X12185Y7464D01*
X12000Y7482D01*
D02*
G37*
G36*
X16796Y5757D02*
X16768Y5753D01*
X16705Y5727D01*
X16650Y5685D01*
X16609Y5631D01*
X16582Y5568D01*
X16579Y5540D01*
X16796D01*
Y5757D01*
D02*
G37*
G36*
X16876D02*
Y5540D01*
X17093D01*
X17089Y5568D01*
X17063Y5631D01*
X17021Y5685D01*
X16967Y5727D01*
X16904Y5753D01*
X16876Y5757D01*
D02*
G37*
G36*
X10000Y6644D02*
X9898Y6631D01*
X9803Y6591D01*
X9721Y6529D01*
X9659Y6447D01*
X9619Y6352D01*
X9606Y6250D01*
X9619Y6148D01*
X9659Y6053D01*
X9721Y5971D01*
X9803Y5909D01*
X9898Y5869D01*
X10000Y5856D01*
X10102Y5869D01*
X10197Y5909D01*
X10279Y5971D01*
X10341Y6053D01*
X10381Y6148D01*
X10394Y6250D01*
X10381Y6352D01*
X10341Y6447D01*
X10279Y6529D01*
X10197Y6591D01*
X10102Y6631D01*
X10000Y6644D01*
D02*
G37*
G36*
X16132Y6507D02*
X16104Y6503D01*
X16040Y6477D01*
X15986Y6435D01*
X15944Y6381D01*
X15918Y6318D01*
X15915Y6290D01*
X16132D01*
Y6507D01*
D02*
G37*
G36*
X16212D02*
Y6290D01*
X16429D01*
X16425Y6318D01*
X16399Y6381D01*
X16357Y6435D01*
X16303Y6477D01*
X16239Y6503D01*
X16212Y6507D01*
D02*
G37*
G36*
X16429Y6210D02*
X16212D01*
Y5993D01*
X16239Y5997D01*
X16303Y6023D01*
X16357Y6065D01*
X16399Y6119D01*
X16425Y6182D01*
X16429Y6210D01*
D02*
G37*
G36*
X5455Y6424D02*
X5369Y6407D01*
X5296Y6359D01*
X5247Y6286D01*
X5230Y6200D01*
X5247Y6114D01*
X5296Y6041D01*
X5369Y5993D01*
X5455Y5976D01*
X5541Y5993D01*
X5613Y6041D01*
X5662Y6114D01*
X5679Y6200D01*
X5662Y6286D01*
X5613Y6359D01*
X5541Y6407D01*
X5455Y6424D01*
D02*
G37*
G36*
X16132Y6210D02*
X15915D01*
X15918Y6182D01*
X15944Y6119D01*
X15986Y6065D01*
X16040Y6023D01*
X16104Y5997D01*
X16132Y5993D01*
Y6210D01*
D02*
G37*
G36*
X20657Y1960D02*
X20440D01*
Y1743D01*
X20468Y1747D01*
X20531Y1773D01*
X20585Y1815D01*
X20627Y1869D01*
X20653Y1932D01*
X20657Y1960D01*
D02*
G37*
G36*
X20360Y2257D02*
X20332Y2253D01*
X20269Y2227D01*
X20215Y2185D01*
X20173Y2131D01*
X20147Y2068D01*
X20143Y2040D01*
X20360D01*
Y2257D01*
D02*
G37*
G36*
X20440D02*
Y2040D01*
X20657D01*
X20653Y2068D01*
X20627Y2131D01*
X20585Y2185D01*
X20531Y2227D01*
X20468Y2253D01*
X20440Y2257D01*
D02*
G37*
G36*
X12190Y1947D02*
Y1690D01*
X12447D01*
X12442Y1728D01*
X12412Y1801D01*
X12364Y1864D01*
X12301Y1912D01*
X12228Y1942D01*
X12190Y1947D01*
D02*
G37*
G36*
X11400Y2174D02*
X11314Y2157D01*
X11241Y2109D01*
X11193Y2036D01*
X11176Y1950D01*
X11193Y1864D01*
X11241Y1791D01*
X11314Y1743D01*
X11400Y1726D01*
X11486Y1743D01*
X11559Y1791D01*
X11607Y1864D01*
X11624Y1950D01*
X11607Y2036D01*
X11559Y2109D01*
X11486Y2157D01*
X11400Y2174D01*
D02*
G37*
G36*
X20360Y1960D02*
X20143D01*
X20147Y1932D01*
X20173Y1869D01*
X20215Y1815D01*
X20269Y1773D01*
X20332Y1747D01*
X20360Y1743D01*
Y1960D01*
D02*
G37*
G36*
X14250Y2908D02*
X14157Y2896D01*
X14071Y2860D01*
X13997Y2803D01*
X13940Y2729D01*
X13904Y2643D01*
X13892Y2550D01*
X13904Y2457D01*
X13940Y2371D01*
X13997Y2297D01*
X14071Y2240D01*
X14157Y2204D01*
X14250Y2192D01*
X14343Y2204D01*
X14429Y2240D01*
X14503Y2297D01*
X14560Y2371D01*
X14596Y2457D01*
X14608Y2550D01*
X14596Y2643D01*
X14560Y2729D01*
X14503Y2803D01*
X14429Y2860D01*
X14343Y2896D01*
X14250Y2908D01*
D02*
G37*
G36*
X7150Y3008D02*
X7057Y2996D01*
X6971Y2960D01*
X6897Y2903D01*
X6840Y2829D01*
X6804Y2743D01*
X6792Y2650D01*
X6804Y2557D01*
X6840Y2471D01*
X6897Y2397D01*
X6971Y2340D01*
X7057Y2304D01*
X7150Y2292D01*
X7243Y2304D01*
X7329Y2340D01*
X7403Y2397D01*
X7460Y2471D01*
X7496Y2557D01*
X7508Y2650D01*
X7496Y2743D01*
X7460Y2829D01*
X7403Y2903D01*
X7329Y2960D01*
X7243Y2996D01*
X7150Y3008D01*
D02*
G37*
G36*
X8150D02*
X8057Y2996D01*
X7971Y2960D01*
X7897Y2903D01*
X7840Y2829D01*
X7804Y2743D01*
X7792Y2650D01*
X7804Y2557D01*
X7840Y2471D01*
X7897Y2397D01*
X7971Y2340D01*
X8057Y2304D01*
X8150Y2292D01*
X8243Y2304D01*
X8329Y2340D01*
X8403Y2397D01*
X8460Y2471D01*
X8496Y2557D01*
X8508Y2650D01*
X8496Y2743D01*
X8460Y2829D01*
X8403Y2903D01*
X8329Y2960D01*
X8243Y2996D01*
X8150Y3008D01*
D02*
G37*
G36*
X12110Y2310D02*
X11853D01*
X11858Y2272D01*
X11888Y2199D01*
X11936Y2136D01*
X11999Y2088D01*
X12072Y2058D01*
X12110Y2053D01*
Y2310D01*
D02*
G37*
G36*
X12447D02*
X12190D01*
Y2053D01*
X12228Y2058D01*
X12301Y2088D01*
X12364Y2136D01*
X12412Y2199D01*
X12442Y2272D01*
X12447Y2310D01*
D02*
G37*
G36*
X13250Y2908D02*
X13157Y2896D01*
X13071Y2860D01*
X12997Y2803D01*
X12940Y2729D01*
X12904Y2643D01*
X12892Y2550D01*
X12904Y2457D01*
X12940Y2371D01*
X12997Y2297D01*
X13071Y2240D01*
X13157Y2204D01*
X13250Y2192D01*
X13343Y2204D01*
X13429Y2240D01*
X13503Y2297D01*
X13560Y2371D01*
X13596Y2457D01*
X13608Y2550D01*
X13596Y2643D01*
X13560Y2729D01*
X13503Y2803D01*
X13429Y2860D01*
X13343Y2896D01*
X13250Y2908D01*
D02*
G37*
G36*
X10913Y1308D02*
X10820Y1296D01*
X10733Y1260D01*
X10659Y1203D01*
X10602Y1129D01*
X10566Y1043D01*
X10554Y950D01*
X10566Y857D01*
X10602Y771D01*
X10659Y697D01*
X10733Y640D01*
X10820Y604D01*
X10913Y592D01*
X11005Y604D01*
X11092Y640D01*
X11166Y697D01*
X11223Y771D01*
X11259Y857D01*
X11271Y950D01*
X11259Y1043D01*
X11223Y1129D01*
X11166Y1203D01*
X11092Y1260D01*
X11005Y1296D01*
X10913Y1308D01*
D02*
G37*
G36*
X11700D02*
X11607Y1296D01*
X11521Y1260D01*
X11447Y1203D01*
X11390Y1129D01*
X11354Y1043D01*
X11342Y950D01*
X11354Y857D01*
X11390Y771D01*
X11447Y697D01*
X11521Y640D01*
X11607Y604D01*
X11700Y592D01*
X11793Y604D01*
X11879Y640D01*
X11953Y697D01*
X12010Y771D01*
X12046Y857D01*
X12058Y950D01*
X12046Y1043D01*
X12010Y1129D01*
X11953Y1203D01*
X11879Y1260D01*
X11793Y1296D01*
X11700Y1308D01*
D02*
G37*
G36*
X13275D02*
X13182Y1296D01*
X13096Y1260D01*
X13021Y1203D01*
X12964Y1129D01*
X12929Y1043D01*
X12916Y950D01*
X12929Y857D01*
X12964Y771D01*
X13021Y697D01*
X13096Y640D01*
X13182Y604D01*
X13275Y592D01*
X13368Y604D01*
X13454Y640D01*
X13528Y697D01*
X13585Y771D01*
X13621Y857D01*
X13633Y950D01*
X13621Y1043D01*
X13585Y1129D01*
X13528Y1203D01*
X13454Y1260D01*
X13368Y1296D01*
X13275Y1308D01*
D02*
G37*
G36*
X19810Y560D02*
X19593D01*
X19597Y532D01*
X19623Y469D01*
X19665Y415D01*
X19719Y373D01*
X19782Y347D01*
X19810Y343D01*
Y560D01*
D02*
G37*
G36*
X20107D02*
X19890D01*
Y343D01*
X19918Y347D01*
X19981Y373D01*
X20035Y415D01*
X20077Y469D01*
X20103Y532D01*
X20107Y560D01*
D02*
G37*
G36*
X10125Y1308D02*
X10032Y1296D01*
X9946Y1260D01*
X9872Y1203D01*
X9815Y1129D01*
X9779Y1043D01*
X9767Y950D01*
X9779Y857D01*
X9815Y771D01*
X9872Y697D01*
X9946Y640D01*
X10032Y604D01*
X10125Y592D01*
X10218Y604D01*
X10304Y640D01*
X10379Y697D01*
X10436Y771D01*
X10471Y857D01*
X10484Y950D01*
X10471Y1043D01*
X10436Y1129D01*
X10379Y1203D01*
X10304Y1260D01*
X10218Y1296D01*
X10125Y1308D01*
D02*
G37*
G36*
X12110Y1610D02*
X11853D01*
X11858Y1572D01*
X11888Y1499D01*
X11936Y1436D01*
X11999Y1388D01*
X12072Y1358D01*
X12110Y1353D01*
Y1610D01*
D02*
G37*
G36*
X12447D02*
X12190D01*
Y1353D01*
X12228Y1358D01*
X12301Y1388D01*
X12364Y1436D01*
X12412Y1499D01*
X12442Y1572D01*
X12447Y1610D01*
D02*
G37*
G36*
X12110Y1947D02*
X12072Y1942D01*
X11999Y1912D01*
X11936Y1864D01*
X11888Y1801D01*
X11858Y1728D01*
X11853Y1690D01*
X12110D01*
Y1947D01*
D02*
G37*
G36*
X19810Y857D02*
X19782Y853D01*
X19719Y827D01*
X19665Y785D01*
X19623Y731D01*
X19597Y668D01*
X19593Y640D01*
X19810D01*
Y857D01*
D02*
G37*
G36*
X19890D02*
Y640D01*
X20107D01*
X20103Y668D01*
X20077Y731D01*
X20035Y785D01*
X19981Y827D01*
X19918Y853D01*
X19890Y857D01*
D02*
G37*
G36*
X19800Y1424D02*
X19714Y1407D01*
X19641Y1359D01*
X19593Y1286D01*
X19576Y1200D01*
X19593Y1114D01*
X19641Y1041D01*
X19714Y993D01*
X19800Y976D01*
X19886Y993D01*
X19959Y1041D01*
X20007Y1114D01*
X20024Y1200D01*
X20007Y1286D01*
X19959Y1359D01*
X19886Y1407D01*
X19800Y1424D01*
D02*
G37*
G36*
X11957Y3960D02*
X11740D01*
Y3743D01*
X11768Y3747D01*
X11831Y3773D01*
X11885Y3815D01*
X11927Y3869D01*
X11953Y3932D01*
X11957Y3960D01*
D02*
G37*
G36*
X9100Y4274D02*
X9014Y4257D01*
X8941Y4209D01*
X8893Y4136D01*
X8876Y4050D01*
X8893Y3964D01*
X8941Y3891D01*
X9014Y3843D01*
X9100Y3826D01*
X9186Y3843D01*
X9259Y3891D01*
X9307Y3964D01*
X9324Y4050D01*
X9307Y4136D01*
X9259Y4209D01*
X9186Y4257D01*
X9100Y4274D01*
D02*
G37*
G36*
X16857Y4110D02*
X16640D01*
Y3893D01*
X16668Y3897D01*
X16731Y3923D01*
X16785Y3965D01*
X16827Y4019D01*
X16853Y4082D01*
X16857Y4110D01*
D02*
G37*
G36*
X10710Y3860D02*
X10453D01*
X10458Y3822D01*
X10488Y3749D01*
X10536Y3686D01*
X10599Y3638D01*
X10672Y3608D01*
X10710Y3603D01*
Y3860D01*
D02*
G37*
G36*
X11047D02*
X10790D01*
Y3603D01*
X10828Y3608D01*
X10901Y3638D01*
X10964Y3686D01*
X11012Y3749D01*
X11042Y3822D01*
X11047Y3860D01*
D02*
G37*
G36*
X11660Y3960D02*
X11443D01*
X11447Y3932D01*
X11473Y3869D01*
X11515Y3815D01*
X11569Y3773D01*
X11632Y3747D01*
X11660Y3743D01*
Y3960D01*
D02*
G37*
G36*
X11740Y4257D02*
Y4040D01*
X11957D01*
X11953Y4068D01*
X11927Y4131D01*
X11885Y4185D01*
X11831Y4227D01*
X11768Y4253D01*
X11740Y4257D01*
D02*
G37*
G36*
X13510Y4260D02*
X13293D01*
X13297Y4232D01*
X13323Y4169D01*
X13365Y4115D01*
X13419Y4073D01*
X13482Y4047D01*
X13510Y4043D01*
Y4260D01*
D02*
G37*
G36*
X13807D02*
X13590D01*
Y4043D01*
X13618Y4047D01*
X13681Y4073D01*
X13735Y4115D01*
X13777Y4169D01*
X13803Y4232D01*
X13807Y4260D01*
D02*
G37*
G36*
X10850Y4674D02*
X10764Y4657D01*
X10691Y4609D01*
X10643Y4536D01*
X10626Y4450D01*
X10643Y4364D01*
X10691Y4291D01*
X10753Y4250D01*
X10742Y4202D01*
X10672Y4192D01*
X10599Y4162D01*
X10536Y4114D01*
X10488Y4051D01*
X10458Y3978D01*
X10453Y3940D01*
X11047D01*
X11042Y3978D01*
X11012Y4051D01*
X10964Y4114D01*
X10901Y4162D01*
X10860Y4179D01*
X10865Y4229D01*
X10936Y4243D01*
X11009Y4291D01*
X11057Y4364D01*
X11074Y4450D01*
X11057Y4536D01*
X11009Y4609D01*
X10936Y4657D01*
X10850Y4674D01*
D02*
G37*
G36*
X7050Y4424D02*
X6964Y4407D01*
X6891Y4359D01*
X6843Y4286D01*
X6826Y4200D01*
X6843Y4114D01*
X6891Y4041D01*
X6964Y3993D01*
X7050Y3976D01*
X7136Y3993D01*
X7209Y4041D01*
X7257Y4114D01*
X7274Y4200D01*
X7257Y4286D01*
X7209Y4359D01*
X7136Y4407D01*
X7050Y4424D01*
D02*
G37*
G36*
X11660Y4257D02*
X11632Y4253D01*
X11569Y4227D01*
X11515Y4185D01*
X11473Y4131D01*
X11447Y4068D01*
X11443Y4040D01*
X11660D01*
Y4257D01*
D02*
G37*
G36*
X21450Y2974D02*
X21364Y2957D01*
X21291Y2909D01*
X21243Y2836D01*
X21226Y2750D01*
X21243Y2664D01*
X21291Y2591D01*
X21364Y2543D01*
X21450Y2526D01*
X21536Y2543D01*
X21609Y2591D01*
X21657Y2664D01*
X21674Y2750D01*
X21657Y2836D01*
X21609Y2909D01*
X21536Y2957D01*
X21450Y2974D01*
D02*
G37*
G36*
X12110Y3010D02*
X11853D01*
X11858Y2972D01*
X11888Y2899D01*
X11936Y2836D01*
X11999Y2788D01*
X12072Y2758D01*
X12110Y2753D01*
Y3010D01*
D02*
G37*
G36*
X12447D02*
X12190D01*
Y2753D01*
X12228Y2758D01*
X12301Y2788D01*
X12364Y2836D01*
X12412Y2899D01*
X12442Y2972D01*
X12447Y3010D01*
D02*
G37*
G36*
X23000Y2870D02*
X22932Y2861D01*
X22869Y2834D01*
X22815Y2793D01*
X22773Y2738D01*
X22747Y2675D01*
X22738Y2607D01*
X22747Y2539D01*
X22773Y2476D01*
X22815Y2422D01*
X22869Y2380D01*
X22932Y2354D01*
X23000Y2345D01*
X23068Y2354D01*
X23131Y2380D01*
X23185Y2422D01*
X23227Y2476D01*
X23253Y2539D01*
X23262Y2607D01*
X23253Y2675D01*
X23227Y2738D01*
X23185Y2793D01*
X23131Y2834D01*
X23068Y2861D01*
X23000Y2870D01*
D02*
G37*
G36*
X12110Y2647D02*
X12072Y2642D01*
X11999Y2612D01*
X11936Y2564D01*
X11888Y2501D01*
X11858Y2428D01*
X11853Y2390D01*
X12110D01*
Y2647D01*
D02*
G37*
G36*
X12190D02*
Y2390D01*
X12447D01*
X12442Y2428D01*
X12412Y2501D01*
X12364Y2564D01*
X12301Y2612D01*
X12228Y2642D01*
X12190Y2647D01*
D02*
G37*
G36*
X6050Y3994D02*
X5948Y3981D01*
X5853Y3941D01*
X5771Y3879D01*
X5709Y3797D01*
X5669Y3702D01*
X5656Y3600D01*
X5669Y3498D01*
X5709Y3403D01*
X5771Y3321D01*
X5853Y3259D01*
X5948Y3219D01*
X6050Y3206D01*
X6152Y3219D01*
X6247Y3259D01*
X6329Y3321D01*
X6391Y3403D01*
X6431Y3498D01*
X6444Y3600D01*
X6431Y3702D01*
X6391Y3797D01*
X6329Y3879D01*
X6247Y3941D01*
X6152Y3981D01*
X6050Y3994D01*
D02*
G37*
G36*
X9100Y3674D02*
X9014Y3657D01*
X8941Y3609D01*
X8893Y3536D01*
X8876Y3450D01*
X8893Y3364D01*
X8941Y3291D01*
X9014Y3243D01*
X9100Y3226D01*
X9186Y3243D01*
X9259Y3291D01*
X9307Y3364D01*
X9324Y3450D01*
X9307Y3536D01*
X9259Y3609D01*
X9186Y3657D01*
X9100Y3674D01*
D02*
G37*
G36*
X7400Y3724D02*
X7314Y3707D01*
X7241Y3659D01*
X7193Y3586D01*
X7176Y3500D01*
X7193Y3414D01*
X7241Y3341D01*
X7314Y3293D01*
X7400Y3276D01*
X7486Y3293D01*
X7559Y3341D01*
X7607Y3414D01*
X7624Y3500D01*
X7607Y3586D01*
X7559Y3659D01*
X7486Y3707D01*
X7400Y3724D01*
D02*
G37*
G36*
X12110Y3347D02*
X12072Y3342D01*
X11999Y3312D01*
X11936Y3264D01*
X11888Y3201D01*
X11858Y3128D01*
X11853Y3090D01*
X12110D01*
Y3347D01*
D02*
G37*
G36*
X12190D02*
Y3090D01*
X12447D01*
X12442Y3128D01*
X12412Y3201D01*
X12364Y3264D01*
X12301Y3312D01*
X12228Y3342D01*
X12190Y3347D01*
D02*
G37*
G36*
X18900Y3574D02*
X18814Y3557D01*
X18741Y3509D01*
X18693Y3436D01*
X18676Y3350D01*
X18693Y3264D01*
X18741Y3191D01*
X18814Y3143D01*
X18900Y3126D01*
X18986Y3143D01*
X19059Y3191D01*
X19107Y3264D01*
X19124Y3350D01*
X19107Y3436D01*
X19059Y3509D01*
X18986Y3557D01*
X18900Y3574D01*
D02*
G37*
G36*
X6400Y13744D02*
X6298Y13731D01*
X6203Y13691D01*
X6121Y13629D01*
X6059Y13547D01*
X6019Y13452D01*
X6006Y13350D01*
X6019Y13248D01*
X6059Y13153D01*
X6121Y13071D01*
X6203Y13009D01*
X6298Y12969D01*
X6400Y12956D01*
X6502Y12969D01*
X6597Y13009D01*
X6679Y13071D01*
X6741Y13153D01*
X6781Y13248D01*
X6794Y13350D01*
X6781Y13452D01*
X6741Y13547D01*
X6679Y13629D01*
X6597Y13691D01*
X6502Y13731D01*
X6400Y13744D01*
D02*
G37*
G36*
X14600Y13512D02*
X14532Y13503D01*
X14469Y13477D01*
X14415Y13435D01*
X14373Y13381D01*
X14347Y13318D01*
X14338Y13250D01*
X14347Y13182D01*
X14373Y13119D01*
X14415Y13065D01*
X14469Y13023D01*
X14532Y12997D01*
X14600Y12988D01*
X14668Y12997D01*
X14731Y13023D01*
X14785Y13065D01*
X14827Y13119D01*
X14853Y13182D01*
X14862Y13250D01*
X14853Y13318D01*
X14827Y13381D01*
X14785Y13435D01*
X14731Y13477D01*
X14668Y13503D01*
X14600Y13512D01*
D02*
G37*
G36*
X12600Y13262D02*
X12532Y13253D01*
X12469Y13227D01*
X12415Y13185D01*
X12373Y13131D01*
X12347Y13068D01*
X12338Y13000D01*
X12347Y12932D01*
X12373Y12869D01*
X12415Y12815D01*
X12469Y12773D01*
X12532Y12747D01*
X12600Y12738D01*
X12668Y12747D01*
X12731Y12773D01*
X12785Y12815D01*
X12827Y12869D01*
X12853Y12932D01*
X12862Y13000D01*
X12853Y13068D01*
X12827Y13131D01*
X12785Y13185D01*
X12731Y13227D01*
X12668Y13253D01*
X12600Y13262D01*
D02*
G37*
G36*
X8700Y13394D02*
X8598Y13381D01*
X8503Y13341D01*
X8421Y13279D01*
X8359Y13197D01*
X8319Y13102D01*
X8306Y13000D01*
X8319Y12898D01*
X8359Y12803D01*
X8421Y12721D01*
X8503Y12659D01*
X8598Y12619D01*
X8700Y12606D01*
X8802Y12619D01*
X8897Y12659D01*
X8979Y12721D01*
X9041Y12803D01*
X9081Y12898D01*
X9094Y13000D01*
X9081Y13102D01*
X9041Y13197D01*
X8979Y13279D01*
X8897Y13341D01*
X8802Y13381D01*
X8700Y13394D01*
D02*
G37*
G36*
X17640Y13202D02*
X17572Y13193D01*
X17509Y13167D01*
X17455Y13125D01*
X17413Y13071D01*
X17387Y13008D01*
X17378Y12940D01*
X17387Y12872D01*
X17413Y12809D01*
X17455Y12755D01*
X17509Y12713D01*
X17572Y12687D01*
X17640Y12678D01*
X17708Y12687D01*
X17771Y12713D01*
X17825Y12755D01*
X17867Y12809D01*
X17893Y12872D01*
X17902Y12940D01*
X17893Y13008D01*
X17867Y13071D01*
X17825Y13125D01*
X17771Y13167D01*
X17708Y13193D01*
X17640Y13202D01*
D02*
G37*
G36*
X15300Y13512D02*
X15232Y13503D01*
X15169Y13477D01*
X15115Y13435D01*
X15073Y13381D01*
X15047Y13318D01*
X15038Y13250D01*
X15047Y13182D01*
X15073Y13119D01*
X15115Y13065D01*
X15169Y13023D01*
X15232Y12997D01*
X15300Y12988D01*
X15368Y12997D01*
X15431Y13023D01*
X15485Y13065D01*
X15527Y13119D01*
X15553Y13182D01*
X15562Y13250D01*
X15553Y13318D01*
X15527Y13381D01*
X15485Y13435D01*
X15431Y13477D01*
X15368Y13503D01*
X15300Y13512D01*
D02*
G37*
G36*
X7407Y13410D02*
X7190D01*
Y13193D01*
X7218Y13197D01*
X7281Y13223D01*
X7335Y13265D01*
X7377Y13319D01*
X7403Y13382D01*
X7407Y13410D01*
D02*
G37*
G36*
X7110Y13707D02*
X7082Y13703D01*
X7019Y13677D01*
X6965Y13635D01*
X6923Y13581D01*
X6897Y13518D01*
X6893Y13490D01*
X7110D01*
Y13707D01*
D02*
G37*
G36*
Y13410D02*
X6893D01*
X6897Y13382D01*
X6923Y13319D01*
X6965Y13265D01*
X7019Y13223D01*
X7082Y13197D01*
X7110Y13193D01*
Y13410D01*
D02*
G37*
G36*
X16150Y13512D02*
X16082Y13503D01*
X16019Y13477D01*
X15965Y13435D01*
X15923Y13381D01*
X15897Y13318D01*
X15888Y13250D01*
X15897Y13182D01*
X15923Y13119D01*
X15965Y13065D01*
X16019Y13023D01*
X16082Y12997D01*
X16150Y12988D01*
X16218Y12997D01*
X16281Y13023D01*
X16335Y13065D01*
X16377Y13119D01*
X16403Y13182D01*
X16412Y13250D01*
X16403Y13318D01*
X16377Y13381D01*
X16335Y13435D01*
X16281Y13477D01*
X16218Y13503D01*
X16150Y13512D01*
D02*
G37*
G36*
X16900D02*
X16832Y13503D01*
X16769Y13477D01*
X16715Y13435D01*
X16673Y13381D01*
X16647Y13318D01*
X16638Y13250D01*
X16647Y13182D01*
X16673Y13119D01*
X16715Y13065D01*
X16769Y13023D01*
X16832Y12997D01*
X16900Y12988D01*
X16968Y12997D01*
X17031Y13023D01*
X17085Y13065D01*
X17127Y13119D01*
X17153Y13182D01*
X17162Y13250D01*
X17153Y13318D01*
X17127Y13381D01*
X17085Y13435D01*
X17031Y13477D01*
X16968Y13503D01*
X16900Y13512D01*
D02*
G37*
G36*
X7000Y13024D02*
X6914Y13007D01*
X6841Y12959D01*
X6793Y12886D01*
X6776Y12800D01*
X6793Y12714D01*
X6841Y12641D01*
X6914Y12593D01*
X7000Y12576D01*
X7086Y12593D01*
X7159Y12641D01*
X7207Y12714D01*
X7224Y12800D01*
X7207Y12886D01*
X7159Y12959D01*
X7086Y13007D01*
X7000Y13024D01*
D02*
G37*
G36*
X6610Y12260D02*
X6393D01*
X6397Y12232D01*
X6423Y12169D01*
X6465Y12115D01*
X6519Y12073D01*
X6582Y12047D01*
X6610Y12043D01*
Y12260D01*
D02*
G37*
G36*
X6907D02*
X6690D01*
Y12043D01*
X6718Y12047D01*
X6781Y12073D01*
X6835Y12115D01*
X6877Y12169D01*
X6903Y12232D01*
X6907Y12260D01*
D02*
G37*
G36*
X16110Y12522D02*
X16042Y12513D01*
X15979Y12487D01*
X15925Y12445D01*
X15883Y12391D01*
X15857Y12328D01*
X15848Y12260D01*
X15857Y12192D01*
X15883Y12129D01*
X15925Y12075D01*
X15979Y12033D01*
X16042Y12007D01*
X16110Y11998D01*
X16178Y12007D01*
X16241Y12033D01*
X16295Y12075D01*
X16337Y12129D01*
X16363Y12192D01*
X16372Y12260D01*
X16363Y12328D01*
X16337Y12391D01*
X16295Y12445D01*
X16241Y12487D01*
X16178Y12513D01*
X16110Y12522D01*
D02*
G37*
G36*
X14510D02*
X14442Y12513D01*
X14379Y12487D01*
X14325Y12445D01*
X14283Y12391D01*
X14257Y12328D01*
X14248Y12260D01*
X14257Y12192D01*
X14283Y12129D01*
X14325Y12075D01*
X14379Y12033D01*
X14442Y12007D01*
X14510Y11998D01*
X14578Y12007D01*
X14641Y12033D01*
X14695Y12075D01*
X14737Y12129D01*
X14763Y12192D01*
X14772Y12260D01*
X14763Y12328D01*
X14737Y12391D01*
X14695Y12445D01*
X14641Y12487D01*
X14578Y12513D01*
X14510Y12522D01*
D02*
G37*
G36*
X15310D02*
X15242Y12513D01*
X15179Y12487D01*
X15125Y12445D01*
X15083Y12391D01*
X15057Y12328D01*
X15048Y12260D01*
X15057Y12192D01*
X15083Y12129D01*
X15125Y12075D01*
X15179Y12033D01*
X15242Y12007D01*
X15310Y11998D01*
X15378Y12007D01*
X15441Y12033D01*
X15495Y12075D01*
X15537Y12129D01*
X15563Y12192D01*
X15572Y12260D01*
X15563Y12328D01*
X15537Y12391D01*
X15495Y12445D01*
X15441Y12487D01*
X15378Y12513D01*
X15310Y12522D01*
D02*
G37*
G36*
X6000Y12624D02*
X5914Y12607D01*
X5841Y12559D01*
X5793Y12486D01*
X5776Y12400D01*
X5793Y12314D01*
X5841Y12241D01*
X5914Y12193D01*
X6000Y12176D01*
X6086Y12193D01*
X6159Y12241D01*
X6207Y12314D01*
X6224Y12400D01*
X6207Y12486D01*
X6159Y12559D01*
X6086Y12607D01*
X6000Y12624D01*
D02*
G37*
G36*
X10990Y12729D02*
Y12340D01*
X11379D01*
X11370Y12412D01*
X11326Y12517D01*
X11257Y12607D01*
X11167Y12676D01*
X11062Y12720D01*
X10990Y12729D01*
D02*
G37*
G36*
X13660Y12922D02*
X13592Y12913D01*
X13529Y12887D01*
X13475Y12845D01*
X13433Y12791D01*
X13407Y12728D01*
X13398Y12660D01*
X13407Y12592D01*
X13433Y12529D01*
X13475Y12475D01*
X13529Y12433D01*
X13592Y12407D01*
X13660Y12398D01*
X13728Y12407D01*
X13791Y12433D01*
X13845Y12475D01*
X13887Y12529D01*
X13913Y12592D01*
X13922Y12660D01*
X13913Y12728D01*
X13887Y12791D01*
X13845Y12845D01*
X13791Y12887D01*
X13728Y12913D01*
X13660Y12922D01*
D02*
G37*
G36*
X10910Y12729D02*
X10838Y12720D01*
X10733Y12676D01*
X10643Y12607D01*
X10574Y12517D01*
X10530Y12412D01*
X10521Y12340D01*
X10910D01*
Y12729D01*
D02*
G37*
G36*
X6610Y12557D02*
X6582Y12553D01*
X6519Y12527D01*
X6465Y12485D01*
X6423Y12431D01*
X6397Y12368D01*
X6393Y12340D01*
X6610D01*
Y12557D01*
D02*
G37*
G36*
X6690D02*
Y12340D01*
X6907D01*
X6903Y12368D01*
X6877Y12431D01*
X6835Y12485D01*
X6781Y12527D01*
X6718Y12553D01*
X6690Y12557D01*
D02*
G37*
G36*
X7190Y13707D02*
Y13490D01*
X7407D01*
X7403Y13518D01*
X7377Y13581D01*
X7335Y13635D01*
X7281Y13677D01*
X7218Y13703D01*
X7190Y13707D01*
D02*
G37*
G36*
X6760Y14757D02*
X6732Y14753D01*
X6669Y14727D01*
X6615Y14685D01*
X6573Y14631D01*
X6547Y14568D01*
X6543Y14540D01*
X6760D01*
Y14757D01*
D02*
G37*
G36*
X6840D02*
Y14540D01*
X7057D01*
X7053Y14568D01*
X7027Y14631D01*
X6985Y14685D01*
X6931Y14727D01*
X6868Y14753D01*
X6840Y14757D01*
D02*
G37*
G36*
X18000Y15244D02*
X17898Y15231D01*
X17803Y15191D01*
X17721Y15129D01*
X17659Y15047D01*
X17619Y14952D01*
X17606Y14850D01*
X17619Y14748D01*
X17659Y14653D01*
X17721Y14571D01*
X17803Y14509D01*
X17898Y14469D01*
X18000Y14456D01*
X18102Y14469D01*
X18197Y14509D01*
X18279Y14571D01*
X18341Y14653D01*
X18381Y14748D01*
X18394Y14850D01*
X18381Y14952D01*
X18341Y15047D01*
X18279Y15129D01*
X18197Y15191D01*
X18102Y15231D01*
X18000Y15244D01*
D02*
G37*
G36*
X19660Y14657D02*
X19632Y14653D01*
X19569Y14627D01*
X19515Y14585D01*
X19473Y14531D01*
X19447Y14468D01*
X19443Y14440D01*
X19660D01*
Y14657D01*
D02*
G37*
G36*
X19740D02*
Y14440D01*
X19957D01*
X19953Y14468D01*
X19927Y14531D01*
X19885Y14585D01*
X19831Y14627D01*
X19768Y14653D01*
X19740Y14657D01*
D02*
G37*
G36*
X22240Y15357D02*
Y15100D01*
Y14843D01*
X22268Y14847D01*
X22331Y14873D01*
X22346Y14884D01*
X22389Y14859D01*
X22388Y14850D01*
X22397Y14782D01*
X22423Y14719D01*
X22465Y14664D01*
X22519Y14623D01*
X22582Y14596D01*
X22650Y14588D01*
X22718Y14596D01*
X22781Y14623D01*
X22835Y14664D01*
X22877Y14719D01*
X22903Y14782D01*
X22912Y14850D01*
X22903Y14918D01*
X22877Y14981D01*
X22835Y15035D01*
X22781Y15077D01*
X22718Y15103D01*
X22650Y15112D01*
X22582Y15103D01*
X22519Y15077D01*
X22504Y15066D01*
X22461Y15091D01*
X22462Y15100D01*
X22453Y15168D01*
X22427Y15231D01*
X22385Y15285D01*
X22331Y15327D01*
X22268Y15353D01*
X22240Y15357D01*
D02*
G37*
G36*
X7900Y15724D02*
X7814Y15707D01*
X7741Y15659D01*
X7693Y15586D01*
X7676Y15500D01*
X7693Y15414D01*
X7741Y15341D01*
X7814Y15293D01*
X7900Y15276D01*
X7986Y15293D01*
X8059Y15341D01*
X8107Y15414D01*
X8124Y15500D01*
X8107Y15586D01*
X8059Y15659D01*
X7986Y15707D01*
X7900Y15724D01*
D02*
G37*
G36*
X8950Y16574D02*
X8864Y16557D01*
X8791Y16509D01*
X8743Y16436D01*
X8726Y16350D01*
X8743Y16264D01*
X8791Y16191D01*
X8864Y16143D01*
X8950Y16126D01*
X9036Y16143D01*
X9109Y16191D01*
X9157Y16264D01*
X9174Y16350D01*
X9157Y16436D01*
X9109Y16509D01*
X9036Y16557D01*
X8950Y16574D01*
D02*
G37*
G36*
X22160Y15357D02*
X22132Y15353D01*
X22069Y15327D01*
X22015Y15285D01*
X21973Y15231D01*
X21947Y15168D01*
X21943Y15140D01*
X22160D01*
Y15357D01*
D02*
G37*
G36*
Y15060D02*
X21943D01*
X21947Y15032D01*
X21973Y14969D01*
X22015Y14915D01*
X22069Y14873D01*
X22132Y14847D01*
X22160Y14843D01*
Y15060D01*
D02*
G37*
G36*
X20400Y15324D02*
X20314Y15307D01*
X20241Y15259D01*
X20193Y15186D01*
X20176Y15100D01*
X20193Y15014D01*
X20241Y14941D01*
X20314Y14893D01*
X20400Y14876D01*
X20486Y14893D01*
X20559Y14941D01*
X20607Y15014D01*
X20624Y15100D01*
X20607Y15186D01*
X20559Y15259D01*
X20486Y15307D01*
X20400Y15324D01*
D02*
G37*
G36*
X7057Y14460D02*
X6840D01*
Y14243D01*
X6868Y14247D01*
X6931Y14273D01*
X6985Y14315D01*
X7027Y14369D01*
X7053Y14432D01*
X7057Y14460D01*
D02*
G37*
G36*
X18100Y14162D02*
X18032Y14153D01*
X17969Y14127D01*
X17915Y14085D01*
X17873Y14031D01*
X17847Y13968D01*
X17838Y13900D01*
X17847Y13832D01*
X17873Y13769D01*
X17915Y13715D01*
X17969Y13673D01*
X18032Y13647D01*
X18100Y13638D01*
X18168Y13647D01*
X18231Y13673D01*
X18285Y13715D01*
X18327Y13769D01*
X18353Y13832D01*
X18362Y13900D01*
X18353Y13968D01*
X18327Y14031D01*
X18285Y14085D01*
X18231Y14127D01*
X18168Y14153D01*
X18100Y14162D01*
D02*
G37*
G36*
X14600Y14262D02*
X14532Y14253D01*
X14469Y14227D01*
X14415Y14185D01*
X14373Y14131D01*
X14347Y14068D01*
X14338Y14000D01*
X14347Y13932D01*
X14373Y13869D01*
X14415Y13815D01*
X14469Y13773D01*
X14532Y13747D01*
X14600Y13738D01*
X14668Y13747D01*
X14731Y13773D01*
X14785Y13815D01*
X14827Y13869D01*
X14853Y13932D01*
X14862Y14000D01*
X14853Y14068D01*
X14827Y14131D01*
X14785Y14185D01*
X14731Y14227D01*
X14668Y14253D01*
X14600Y14262D01*
D02*
G37*
G36*
X11850Y14112D02*
X11782Y14103D01*
X11719Y14077D01*
X11665Y14035D01*
X11623Y13981D01*
X11597Y13918D01*
X11588Y13850D01*
X11597Y13782D01*
X11623Y13719D01*
X11665Y13665D01*
X11719Y13623D01*
X11782Y13597D01*
X11850Y13588D01*
X11918Y13597D01*
X11981Y13623D01*
X12035Y13665D01*
X12077Y13719D01*
X12103Y13782D01*
X12112Y13850D01*
X12103Y13918D01*
X12077Y13981D01*
X12035Y14035D01*
X11981Y14077D01*
X11918Y14103D01*
X11850Y14112D01*
D02*
G37*
G36*
X23350Y14398D02*
X23282Y14389D01*
X23219Y14363D01*
X23165Y14321D01*
X23123Y14267D01*
X23097Y14203D01*
X23088Y14136D01*
X23097Y14068D01*
X23123Y14004D01*
X23165Y13950D01*
X23219Y13908D01*
X23282Y13882D01*
X23350Y13873D01*
X23411Y13881D01*
X23447Y13846D01*
X23438Y13778D01*
X23447Y13711D01*
X23473Y13647D01*
X23515Y13593D01*
X23569Y13551D01*
X23632Y13525D01*
X23700Y13516D01*
X23768Y13525D01*
X23831Y13551D01*
X23885Y13593D01*
X23927Y13647D01*
X23953Y13711D01*
X23962Y13778D01*
X23953Y13846D01*
X23927Y13910D01*
X23885Y13964D01*
X23831Y14006D01*
X23768Y14032D01*
X23700Y14041D01*
X23639Y14033D01*
X23603Y14068D01*
X23612Y14136D01*
X23603Y14203D01*
X23577Y14267D01*
X23535Y14321D01*
X23481Y14363D01*
X23418Y14389D01*
X23350Y14398D01*
D02*
G37*
G36*
X10550Y14062D02*
X10482Y14053D01*
X10419Y14027D01*
X10365Y13985D01*
X10323Y13931D01*
X10297Y13868D01*
X10288Y13800D01*
X10297Y13732D01*
X10323Y13669D01*
X10365Y13615D01*
X10419Y13573D01*
X10482Y13547D01*
X10550Y13538D01*
X10618Y13547D01*
X10681Y13573D01*
X10735Y13615D01*
X10777Y13669D01*
X10803Y13732D01*
X10812Y13800D01*
X10803Y13868D01*
X10777Y13931D01*
X10735Y13985D01*
X10681Y14027D01*
X10618Y14053D01*
X10550Y14062D01*
D02*
G37*
G36*
X8450Y14224D02*
X8364Y14207D01*
X8291Y14159D01*
X8243Y14086D01*
X8226Y14000D01*
X8243Y13914D01*
X8291Y13841D01*
X8364Y13793D01*
X8450Y13776D01*
X8536Y13793D01*
X8609Y13841D01*
X8657Y13914D01*
X8674Y14000D01*
X8657Y14086D01*
X8609Y14159D01*
X8536Y14207D01*
X8450Y14224D01*
D02*
G37*
G36*
X19957Y14360D02*
X19740D01*
Y14143D01*
X19768Y14147D01*
X19831Y14173D01*
X19885Y14215D01*
X19927Y14269D01*
X19953Y14332D01*
X19957Y14360D01*
D02*
G37*
G36*
X6760Y14460D02*
X6543D01*
X6547Y14432D01*
X6573Y14369D01*
X6615Y14315D01*
X6669Y14273D01*
X6732Y14247D01*
X6760Y14243D01*
Y14460D01*
D02*
G37*
G36*
X18950Y14712D02*
X18882Y14703D01*
X18819Y14677D01*
X18765Y14635D01*
X18723Y14581D01*
X18697Y14518D01*
X18688Y14450D01*
X18697Y14382D01*
X18723Y14319D01*
X18765Y14265D01*
X18819Y14223D01*
X18882Y14197D01*
X18950Y14188D01*
X19018Y14197D01*
X19048Y14157D01*
X19047Y14153D01*
X19038Y14086D01*
X19047Y14018D01*
X19073Y13954D01*
X19115Y13900D01*
X19169Y13858D01*
X19232Y13832D01*
X19300Y13823D01*
X19368Y13832D01*
X19431Y13858D01*
X19485Y13900D01*
X19527Y13954D01*
X19553Y14018D01*
X19562Y14086D01*
X19556Y14131D01*
X19596Y14162D01*
X19632Y14147D01*
X19660Y14143D01*
Y14360D01*
X19443D01*
X19444Y14354D01*
X19404Y14324D01*
X19368Y14339D01*
X19300Y14348D01*
X19232Y14339D01*
X19202Y14379D01*
X19203Y14382D01*
X19212Y14450D01*
X19203Y14518D01*
X19177Y14581D01*
X19135Y14635D01*
X19081Y14677D01*
X19018Y14703D01*
X18950Y14712D01*
D02*
G37*
G36*
X9050Y14224D02*
X8964Y14207D01*
X8891Y14159D01*
X8843Y14086D01*
X8826Y14000D01*
X8843Y13914D01*
X8891Y13841D01*
X8964Y13793D01*
X9050Y13776D01*
X9136Y13793D01*
X9209Y13841D01*
X9257Y13914D01*
X9274Y14000D01*
X9257Y14086D01*
X9209Y14159D01*
X9136Y14207D01*
X9050Y14224D01*
D02*
G37*
G36*
X9653Y14256D02*
X9567Y14239D01*
X9495Y14191D01*
X9446Y14118D01*
X9429Y14032D01*
X9446Y13946D01*
X9495Y13874D01*
X9567Y13825D01*
X9653Y13808D01*
X9739Y13825D01*
X9812Y13874D01*
X9861Y13946D01*
X9878Y14032D01*
X9861Y14118D01*
X9812Y14191D01*
X9739Y14239D01*
X9653Y14256D01*
D02*
G37*
G36*
X16900Y12512D02*
X16832Y12503D01*
X16769Y12477D01*
X16715Y12435D01*
X16673Y12381D01*
X16647Y12318D01*
X16638Y12250D01*
X16647Y12182D01*
X16673Y12119D01*
X16715Y12065D01*
X16769Y12023D01*
X16832Y11997D01*
X16900Y11988D01*
X16968Y11997D01*
X17031Y12023D01*
X17085Y12065D01*
X17127Y12119D01*
X17153Y12182D01*
X17162Y12250D01*
X17153Y12318D01*
X17127Y12381D01*
X17085Y12435D01*
X17031Y12477D01*
X16968Y12503D01*
X16900Y12512D01*
D02*
G37*
G36*
X24500Y9224D02*
X24414Y9207D01*
X24341Y9159D01*
X24293Y9086D01*
X24276Y9000D01*
X24293Y8914D01*
X24341Y8841D01*
X24414Y8793D01*
X24500Y8776D01*
X24586Y8793D01*
X24659Y8841D01*
X24707Y8914D01*
X24724Y9000D01*
X24707Y9086D01*
X24659Y9159D01*
X24586Y9207D01*
X24500Y9224D01*
D02*
G37*
G36*
X11110Y9160D02*
X10853D01*
X10858Y9122D01*
X10888Y9049D01*
X10936Y8986D01*
X10999Y8938D01*
X11072Y8908D01*
X11110Y8903D01*
Y9160D01*
D02*
G37*
G36*
X17450Y9124D02*
X17364Y9107D01*
X17291Y9059D01*
X17243Y8986D01*
X17226Y8900D01*
X17243Y8814D01*
X17291Y8741D01*
X17364Y8693D01*
X17450Y8676D01*
X17536Y8693D01*
X17609Y8741D01*
X17657Y8814D01*
X17674Y8900D01*
X17657Y8986D01*
X17609Y9059D01*
X17536Y9107D01*
X17450Y9124D01*
D02*
G37*
G36*
X13350Y9294D02*
X13248Y9281D01*
X13153Y9241D01*
X13071Y9179D01*
X13009Y9097D01*
X12969Y9002D01*
X12956Y8900D01*
X12969Y8798D01*
X13009Y8703D01*
X13071Y8621D01*
X13153Y8559D01*
X13248Y8519D01*
X13350Y8506D01*
X13452Y8519D01*
X13547Y8559D01*
X13629Y8621D01*
X13691Y8703D01*
X13731Y8798D01*
X13744Y8900D01*
X13731Y9002D01*
X13691Y9097D01*
X13629Y9179D01*
X13547Y9241D01*
X13452Y9281D01*
X13350Y9294D01*
D02*
G37*
G36*
X16150Y8974D02*
X16064Y8957D01*
X15992Y8909D01*
X15943Y8836D01*
X15926Y8750D01*
X15943Y8664D01*
X15992Y8591D01*
X16064Y8543D01*
X16150Y8526D01*
X16236Y8543D01*
X16309Y8591D01*
X16357Y8664D01*
X16375Y8750D01*
X16357Y8836D01*
X16309Y8909D01*
X16236Y8957D01*
X16150Y8974D01*
D02*
G37*
G36*
X11447Y9160D02*
X11190D01*
Y8903D01*
X11228Y8908D01*
X11301Y8938D01*
X11364Y8986D01*
X11412Y9049D01*
X11442Y9122D01*
X11447Y9160D01*
D02*
G37*
G36*
X27850Y9674D02*
X27764Y9657D01*
X27691Y9609D01*
X27643Y9536D01*
X27626Y9450D01*
X27643Y9364D01*
X27691Y9291D01*
X27764Y9243D01*
X27850Y9226D01*
X27936Y9243D01*
X28009Y9291D01*
X28057Y9364D01*
X28074Y9450D01*
X28057Y9536D01*
X28009Y9609D01*
X27936Y9657D01*
X27850Y9674D01*
D02*
G37*
G36*
X11110Y9497D02*
X11072Y9492D01*
X10999Y9462D01*
X10936Y9414D01*
X10888Y9351D01*
X10858Y9278D01*
X10853Y9240D01*
X11110D01*
Y9497D01*
D02*
G37*
G36*
X5000Y9894D02*
X4898Y9881D01*
X4803Y9841D01*
X4721Y9779D01*
X4659Y9697D01*
X4619Y9602D01*
X4606Y9500D01*
X4619Y9398D01*
X4659Y9303D01*
X4721Y9221D01*
X4803Y9159D01*
X4898Y9119D01*
X5000Y9106D01*
X5102Y9119D01*
X5197Y9159D01*
X5279Y9221D01*
X5341Y9303D01*
X5381Y9398D01*
X5394Y9500D01*
X5381Y9602D01*
X5341Y9697D01*
X5279Y9779D01*
X5197Y9841D01*
X5102Y9881D01*
X5000Y9894D01*
D02*
G37*
G36*
X9550Y9424D02*
X9464Y9407D01*
X9391Y9359D01*
X9343Y9286D01*
X9326Y9200D01*
X9343Y9114D01*
X9391Y9041D01*
X9464Y8993D01*
X9550Y8976D01*
X9636Y8993D01*
X9709Y9041D01*
X9757Y9114D01*
X9774Y9200D01*
X9757Y9286D01*
X9709Y9359D01*
X9636Y9407D01*
X9550Y9424D01*
D02*
G37*
G36*
X8900Y9844D02*
X8798Y9831D01*
X8703Y9791D01*
X8621Y9729D01*
X8559Y9647D01*
X8519Y9552D01*
X8506Y9450D01*
X8519Y9348D01*
X8559Y9253D01*
X8621Y9171D01*
X8703Y9109D01*
X8798Y9069D01*
X8900Y9056D01*
X9002Y9069D01*
X9097Y9109D01*
X9179Y9171D01*
X9241Y9253D01*
X9281Y9348D01*
X9294Y9450D01*
X9281Y9552D01*
X9241Y9647D01*
X9179Y9729D01*
X9097Y9791D01*
X9002Y9831D01*
X8900Y9844D01*
D02*
G37*
G36*
X26200Y8824D02*
X26114Y8807D01*
X26041Y8759D01*
X25993Y8686D01*
X25976Y8600D01*
X25993Y8514D01*
X26041Y8441D01*
X26114Y8393D01*
X26200Y8376D01*
X26286Y8393D01*
X26359Y8441D01*
X26407Y8514D01*
X26424Y8600D01*
X26407Y8686D01*
X26359Y8759D01*
X26286Y8807D01*
X26200Y8824D01*
D02*
G37*
G36*
X2360Y8110D02*
X2143D01*
X2147Y8082D01*
X2173Y8019D01*
X2215Y7965D01*
X2269Y7923D01*
X2332Y7897D01*
X2360Y7893D01*
Y8110D01*
D02*
G37*
G36*
X2657D02*
X2440D01*
Y7893D01*
X2468Y7897D01*
X2531Y7923D01*
X2585Y7965D01*
X2627Y8019D01*
X2653Y8082D01*
X2657Y8110D01*
D02*
G37*
G36*
X7700Y8524D02*
X7614Y8507D01*
X7541Y8459D01*
X7493Y8386D01*
X7476Y8300D01*
X7493Y8214D01*
X7541Y8141D01*
X7565Y8126D01*
X7567Y8076D01*
X7515Y8035D01*
X7473Y7981D01*
X7447Y7918D01*
X7443Y7890D01*
X7957D01*
X7953Y7918D01*
X7927Y7981D01*
X7885Y8035D01*
X7833Y8076D01*
X7835Y8126D01*
X7859Y8141D01*
X7907Y8214D01*
X7924Y8300D01*
X7907Y8386D01*
X7859Y8459D01*
X7786Y8507D01*
X7700Y8524D01*
D02*
G37*
G36*
X7957Y7810D02*
X7740D01*
Y7593D01*
X7768Y7597D01*
X7831Y7623D01*
X7885Y7665D01*
X7927Y7719D01*
X7953Y7782D01*
X7957Y7810D01*
D02*
G37*
G36*
X4700Y8224D02*
X4614Y8207D01*
X4541Y8159D01*
X4493Y8086D01*
X4476Y8000D01*
X4493Y7914D01*
X4541Y7841D01*
X4614Y7793D01*
X4700Y7776D01*
X4786Y7793D01*
X4859Y7841D01*
X4907Y7914D01*
X4924Y8000D01*
X4907Y8086D01*
X4859Y8159D01*
X4786Y8207D01*
X4700Y8224D01*
D02*
G37*
G36*
X28760Y8160D02*
X28543D01*
X28547Y8132D01*
X28573Y8069D01*
X28615Y8015D01*
X28669Y7973D01*
X28732Y7947D01*
X28760Y7943D01*
Y8160D01*
D02*
G37*
G36*
Y8457D02*
X28732Y8453D01*
X28669Y8427D01*
X28615Y8385D01*
X28573Y8331D01*
X28547Y8268D01*
X28543Y8240D01*
X28760D01*
Y8457D01*
D02*
G37*
G36*
X28840D02*
Y8240D01*
X29057D01*
X29053Y8268D01*
X29027Y8331D01*
X28985Y8385D01*
X28931Y8427D01*
X28868Y8453D01*
X28840Y8457D01*
D02*
G37*
G36*
X3850Y8674D02*
X3764Y8657D01*
X3691Y8609D01*
X3643Y8536D01*
X3626Y8450D01*
X3643Y8364D01*
X3691Y8291D01*
X3764Y8243D01*
X3850Y8226D01*
X3936Y8243D01*
X4009Y8291D01*
X4057Y8364D01*
X4074Y8450D01*
X4057Y8536D01*
X4009Y8609D01*
X3936Y8657D01*
X3850Y8674D01*
D02*
G37*
G36*
X2360Y8407D02*
X2332Y8403D01*
X2269Y8377D01*
X2215Y8335D01*
X2173Y8281D01*
X2147Y8218D01*
X2143Y8190D01*
X2360D01*
Y8407D01*
D02*
G37*
G36*
X2440D02*
Y8190D01*
X2657D01*
X2653Y8218D01*
X2627Y8281D01*
X2585Y8335D01*
X2531Y8377D01*
X2468Y8403D01*
X2440Y8407D01*
D02*
G37*
G36*
X11190Y9497D02*
Y9240D01*
X11447D01*
X11442Y9278D01*
X11412Y9351D01*
X11364Y9414D01*
X11301Y9462D01*
X11228Y9492D01*
X11190Y9497D01*
D02*
G37*
G36*
X7100Y11724D02*
X7014Y11707D01*
X6941Y11659D01*
X6893Y11586D01*
X6876Y11500D01*
X6893Y11414D01*
X6941Y11341D01*
X7014Y11293D01*
X7100Y11276D01*
X7186Y11293D01*
X7259Y11341D01*
X7307Y11414D01*
X7324Y11500D01*
X7307Y11586D01*
X7259Y11659D01*
X7186Y11707D01*
X7100Y11724D01*
D02*
G37*
G36*
X8350Y12024D02*
X8264Y12007D01*
X8191Y11959D01*
X8143Y11886D01*
X8126Y11800D01*
X8143Y11714D01*
X8191Y11641D01*
X8264Y11593D01*
X8350Y11576D01*
X8436Y11593D01*
X8509Y11641D01*
X8557Y11714D01*
X8574Y11800D01*
X8557Y11886D01*
X8509Y11959D01*
X8436Y12007D01*
X8350Y12024D01*
D02*
G37*
G36*
X16050Y11612D02*
X15982Y11603D01*
X15919Y11577D01*
X15865Y11535D01*
X15823Y11481D01*
X15797Y11418D01*
X15788Y11350D01*
X15797Y11282D01*
X15823Y11219D01*
X15865Y11165D01*
X15919Y11123D01*
X15982Y11097D01*
X16050Y11088D01*
X16118Y11097D01*
X16181Y11123D01*
X16235Y11165D01*
X16277Y11219D01*
X16303Y11282D01*
X16312Y11350D01*
X16303Y11418D01*
X16277Y11481D01*
X16235Y11535D01*
X16181Y11577D01*
X16118Y11603D01*
X16050Y11612D01*
D02*
G37*
G36*
X13500Y11162D02*
X13432Y11153D01*
X13369Y11127D01*
X13315Y11085D01*
X13273Y11031D01*
X13247Y10968D01*
X13238Y10900D01*
X13247Y10832D01*
X13273Y10769D01*
X13315Y10715D01*
X13369Y10673D01*
X13432Y10647D01*
X13500Y10638D01*
X13568Y10647D01*
X13631Y10673D01*
X13685Y10715D01*
X13727Y10769D01*
X13753Y10832D01*
X13762Y10900D01*
X13753Y10968D01*
X13727Y11031D01*
X13685Y11085D01*
X13631Y11127D01*
X13568Y11153D01*
X13500Y11162D01*
D02*
G37*
G36*
X4950Y11374D02*
X4864Y11357D01*
X4791Y11309D01*
X4743Y11236D01*
X4726Y11150D01*
X4743Y11064D01*
X4791Y10991D01*
X4864Y10943D01*
X4950Y10926D01*
X5036Y10943D01*
X5109Y10991D01*
X5157Y11064D01*
X5174Y11150D01*
X5157Y11236D01*
X5109Y11309D01*
X5036Y11357D01*
X4950Y11374D01*
D02*
G37*
G36*
X4300Y12224D02*
X4214Y12207D01*
X4141Y12159D01*
X4093Y12086D01*
X4076Y12000D01*
X4093Y11914D01*
X4141Y11841D01*
X4214Y11793D01*
X4300Y11776D01*
X4386Y11793D01*
X4459Y11841D01*
X4507Y11914D01*
X4524Y12000D01*
X4507Y12086D01*
X4459Y12159D01*
X4386Y12207D01*
X4300Y12224D01*
D02*
G37*
G36*
X11379Y12260D02*
X10990D01*
Y11871D01*
X11062Y11880D01*
X11167Y11924D01*
X11257Y11993D01*
X11326Y12083D01*
X11370Y12188D01*
X11379Y12260D01*
D02*
G37*
G36*
X22850Y12424D02*
X22764Y12407D01*
X22691Y12359D01*
X22643Y12286D01*
X22626Y12200D01*
X22643Y12114D01*
X22691Y12041D01*
X22764Y11993D01*
X22850Y11976D01*
X22936Y11993D01*
X23009Y12041D01*
X23057Y12114D01*
X23074Y12200D01*
X23057Y12286D01*
X23009Y12359D01*
X22936Y12407D01*
X22850Y12424D01*
D02*
G37*
G36*
X10910Y12260D02*
X10521D01*
X10530Y12188D01*
X10574Y12083D01*
X10643Y11993D01*
X10733Y11924D01*
X10838Y11880D01*
X10910Y11871D01*
Y12260D01*
D02*
G37*
G36*
X12050Y12312D02*
X11982Y12303D01*
X11919Y12277D01*
X11865Y12235D01*
X11823Y12181D01*
X11797Y12118D01*
X11788Y12050D01*
X11797Y11982D01*
X11823Y11919D01*
X11865Y11865D01*
X11919Y11823D01*
X11982Y11797D01*
X12050Y11788D01*
X12118Y11797D01*
X12181Y11823D01*
X12235Y11865D01*
X12277Y11919D01*
X12303Y11982D01*
X12312Y12050D01*
X12303Y12118D01*
X12277Y12181D01*
X12235Y12235D01*
X12181Y12277D01*
X12118Y12303D01*
X12050Y12312D01*
D02*
G37*
G36*
X7150Y12274D02*
X7064Y12257D01*
X6991Y12209D01*
X6943Y12136D01*
X6926Y12050D01*
X6943Y11964D01*
X6991Y11891D01*
X7064Y11843D01*
X7150Y11826D01*
X7236Y11843D01*
X7309Y11891D01*
X7357Y11964D01*
X7374Y12050D01*
X7357Y12136D01*
X7309Y12209D01*
X7236Y12257D01*
X7150Y12274D01*
D02*
G37*
G36*
X10400Y11394D02*
X10298Y11381D01*
X10203Y11341D01*
X10121Y11279D01*
X10059Y11197D01*
X10019Y11102D01*
X10006Y11000D01*
X10019Y10898D01*
X10059Y10803D01*
X10121Y10721D01*
X10203Y10659D01*
X10298Y10619D01*
X10400Y10606D01*
X10502Y10619D01*
X10597Y10659D01*
X10679Y10721D01*
X10741Y10803D01*
X10781Y10898D01*
X10794Y11000D01*
X10781Y11102D01*
X10741Y11197D01*
X10679Y11279D01*
X10597Y11341D01*
X10502Y11381D01*
X10400Y11394D01*
D02*
G37*
G36*
X6250Y10194D02*
X6148Y10181D01*
X6053Y10141D01*
X5971Y10079D01*
X5909Y9997D01*
X5869Y9902D01*
X5856Y9800D01*
X5869Y9698D01*
X5909Y9603D01*
X5971Y9521D01*
X6053Y9459D01*
X6148Y9419D01*
X6250Y9406D01*
X6352Y9419D01*
X6447Y9459D01*
X6529Y9521D01*
X6591Y9603D01*
X6631Y9698D01*
X6644Y9800D01*
X6631Y9902D01*
X6591Y9997D01*
X6529Y10079D01*
X6447Y10141D01*
X6352Y10181D01*
X6250Y10194D01*
D02*
G37*
G36*
X12000Y11419D02*
X11815Y11401D01*
X11636Y11347D01*
X11472Y11259D01*
X11328Y11141D01*
X11210Y10997D01*
X11122Y10832D01*
X11068Y10654D01*
X11050Y10468D01*
X11068Y10283D01*
X11122Y10105D01*
X11210Y9940D01*
X11328Y9796D01*
X11472Y9678D01*
X11636Y9590D01*
X11815Y9536D01*
X12000Y9518D01*
X12185Y9536D01*
X12364Y9590D01*
X12528Y9678D01*
X12672Y9796D01*
X12790Y9940D01*
X12878Y10105D01*
X12932Y10283D01*
X12950Y10468D01*
X12932Y10654D01*
X12878Y10832D01*
X12790Y10997D01*
X12672Y11141D01*
X12528Y11259D01*
X12364Y11347D01*
X12185Y11401D01*
X12000Y11419D01*
D02*
G37*
G36*
X2700Y10144D02*
X2598Y10131D01*
X2503Y10091D01*
X2421Y10029D01*
X2359Y9947D01*
X2319Y9852D01*
X2306Y9750D01*
X2319Y9648D01*
X2359Y9553D01*
X2421Y9471D01*
X2503Y9409D01*
X2598Y9369D01*
X2700Y9356D01*
X2802Y9369D01*
X2897Y9409D01*
X2979Y9471D01*
X3041Y9553D01*
X3081Y9648D01*
X3094Y9750D01*
X3081Y9852D01*
X3041Y9947D01*
X2979Y10029D01*
X2897Y10091D01*
X2802Y10131D01*
X2700Y10144D01*
D02*
G37*
G36*
X14653Y9460D02*
X14436D01*
X14440Y9432D01*
X14466Y9369D01*
X14508Y9315D01*
X14562Y9273D01*
X14625Y9247D01*
X14653Y9243D01*
Y9460D01*
D02*
G37*
G36*
X14950D02*
X14733D01*
Y9243D01*
X14761Y9247D01*
X14824Y9273D01*
X14879Y9315D01*
X14920Y9369D01*
X14946Y9432D01*
X14950Y9460D01*
D02*
G37*
G36*
X14450Y10262D02*
X14382Y10253D01*
X14319Y10227D01*
X14265Y10185D01*
X14223Y10131D01*
X14197Y10068D01*
X14188Y10000D01*
X14197Y9932D01*
X14223Y9869D01*
X14265Y9815D01*
X14319Y9773D01*
X14382Y9747D01*
X14450Y9738D01*
X14506Y9745D01*
X14525Y9699D01*
X14508Y9685D01*
X14466Y9631D01*
X14440Y9568D01*
X14436Y9540D01*
X14653D01*
Y9757D01*
X14637Y9755D01*
X14618Y9801D01*
X14635Y9815D01*
X14677Y9869D01*
X14703Y9932D01*
X14712Y10000D01*
X14703Y10068D01*
X14677Y10131D01*
X14635Y10185D01*
X14581Y10227D01*
X14518Y10253D01*
X14450Y10262D01*
D02*
G37*
G36*
X9300Y11044D02*
X9198Y11031D01*
X9103Y10991D01*
X9021Y10929D01*
X8959Y10847D01*
X8919Y10752D01*
X8906Y10650D01*
X8919Y10548D01*
X8959Y10453D01*
X9021Y10371D01*
X9103Y10309D01*
X9198Y10269D01*
X9300Y10256D01*
X9402Y10269D01*
X9497Y10309D01*
X9579Y10371D01*
X9641Y10453D01*
X9681Y10548D01*
X9694Y10650D01*
X9681Y10752D01*
X9641Y10847D01*
X9579Y10929D01*
X9497Y10991D01*
X9402Y11031D01*
X9300Y11044D01*
D02*
G37*
G36*
X15300Y10912D02*
X15232Y10903D01*
X15169Y10877D01*
X15115Y10835D01*
X15073Y10781D01*
X15047Y10718D01*
X15038Y10650D01*
X15047Y10582D01*
X15073Y10519D01*
X15115Y10465D01*
X15169Y10423D01*
X15232Y10397D01*
X15300Y10388D01*
X15368Y10397D01*
X15431Y10423D01*
X15485Y10465D01*
X15527Y10519D01*
X15553Y10582D01*
X15562Y10650D01*
X15553Y10718D01*
X15527Y10781D01*
X15485Y10835D01*
X15431Y10877D01*
X15368Y10903D01*
X15300Y10912D01*
D02*
G37*
G36*
X3850Y10444D02*
X3748Y10431D01*
X3653Y10391D01*
X3571Y10329D01*
X3509Y10247D01*
X3469Y10152D01*
X3456Y10050D01*
X3469Y9948D01*
X3509Y9853D01*
X3571Y9771D01*
X3653Y9709D01*
X3748Y9669D01*
X3850Y9656D01*
X3952Y9669D01*
X4047Y9709D01*
X4129Y9771D01*
X4191Y9853D01*
X4231Y9948D01*
X4244Y10050D01*
X4231Y10152D01*
X4191Y10247D01*
X4129Y10329D01*
X4047Y10391D01*
X3952Y10431D01*
X3850Y10444D01*
D02*
G37*
G36*
X14733Y9757D02*
Y9540D01*
X14950D01*
X14946Y9568D01*
X14920Y9631D01*
X14879Y9685D01*
X14824Y9727D01*
X14761Y9753D01*
X14733Y9757D01*
D02*
G37*
G36*
X7400Y10344D02*
X7298Y10331D01*
X7203Y10291D01*
X7121Y10229D01*
X7059Y10147D01*
X7019Y10052D01*
X7006Y9950D01*
X7019Y9848D01*
X7059Y9753D01*
X7121Y9671D01*
X7203Y9609D01*
X7298Y9569D01*
X7400Y9556D01*
X7502Y9569D01*
X7597Y9609D01*
X7679Y9671D01*
X7741Y9753D01*
X7781Y9848D01*
X7794Y9950D01*
X7781Y10052D01*
X7741Y10147D01*
X7679Y10229D01*
X7597Y10291D01*
X7502Y10331D01*
X7400Y10344D01*
D02*
G37*
%LPD*%
D35*
X12000Y10468D02*
D03*
Y6532D02*
D03*
D37*
X10950Y12300D02*
D03*
D38*
X12000Y10468D02*
D03*
Y6532D02*
D03*
D39*
X10750Y3900D02*
D03*
X12150Y3050D02*
D03*
Y2350D02*
D03*
Y1650D02*
D03*
X11150Y9200D02*
D03*
D40*
X14693Y9500D02*
D03*
X15100Y7300D02*
D03*
X16172Y6250D02*
D03*
X16836Y5500D02*
D03*
X7700Y7850D02*
D03*
X2400Y8150D02*
D03*
X6650Y12300D02*
D03*
X7150Y13450D02*
D03*
X6800Y14500D02*
D03*
X13550Y4300D02*
D03*
X10850Y5350D02*
D03*
X11700Y4000D02*
D03*
X5600Y5200D02*
D03*
X19850Y600D02*
D03*
X28800Y8200D02*
D03*
X16600Y4150D02*
D03*
X20400Y2000D02*
D03*
X22200Y15100D02*
D03*
X19700Y14400D02*
D03*
M02*
