%FSLAX24Y24*%
%MOIN*%
G70*
G01*
G75*
G04 Layer_Color=16711935*
%ADD10R,0.0354X0.0276*%
%ADD11R,0.0315X0.0354*%
%ADD12R,0.0354X0.0315*%
%ADD13R,0.0236X0.0197*%
%ADD14R,0.0236X0.0591*%
%ADD15R,0.0197X0.0236*%
%ADD16R,0.0335X0.0157*%
%ADD17R,0.0276X0.0354*%
%ADD18R,0.0157X0.0335*%
%ADD19R,0.0512X0.0217*%
%ADD20R,0.0157X0.0157*%
%ADD21R,0.0118X0.0209*%
%ADD22R,0.0118X0.0193*%
%ADD23O,0.0118X0.0650*%
%ADD24R,0.0394X0.0217*%
G04:AMPARAMS|DCode=25|XSize=59.8mil|YSize=30mil|CornerRadius=0mil|HoleSize=0mil|Usage=FLASHONLY|Rotation=225.000|XOffset=0mil|YOffset=0mil|HoleType=Round|Shape=Rectangle|*
%AMROTATEDRECTD25*
4,1,4,0.0106,0.0318,0.0318,0.0106,-0.0106,-0.0318,-0.0318,-0.0106,0.0106,0.0318,0.0*
%
%ADD25ROTATEDRECTD25*%

G04:AMPARAMS|DCode=26|XSize=59.8mil|YSize=30mil|CornerRadius=0mil|HoleSize=0mil|Usage=FLASHONLY|Rotation=135.000|XOffset=0mil|YOffset=0mil|HoleType=Round|Shape=Rectangle|*
%AMROTATEDRECTD26*
4,1,4,0.0318,-0.0106,0.0106,-0.0318,-0.0318,0.0106,-0.0106,0.0318,0.0318,-0.0106,0.0*
%
%ADD26ROTATEDRECTD26*%

G04:AMPARAMS|DCode=27|XSize=60mil|YSize=30mil|CornerRadius=0mil|HoleSize=0mil|Usage=FLASHONLY|Rotation=135.000|XOffset=0mil|YOffset=0mil|HoleType=Round|Shape=Rectangle|*
%AMROTATEDRECTD27*
4,1,4,0.0318,-0.0106,0.0106,-0.0318,-0.0318,0.0106,-0.0106,0.0318,0.0318,-0.0106,0.0*
%
%ADD27ROTATEDRECTD27*%

%ADD28R,0.0240X0.1750*%
G04:AMPARAMS|DCode=29|XSize=35.4mil|YSize=31.5mil|CornerRadius=0mil|HoleSize=0mil|Usage=FLASHONLY|Rotation=315.000|XOffset=0mil|YOffset=0mil|HoleType=Round|Shape=Rectangle|*
%AMROTATEDRECTD29*
4,1,4,-0.0237,0.0014,-0.0014,0.0237,0.0237,-0.0014,0.0014,-0.0237,-0.0237,0.0014,0.0*
%
%ADD29ROTATEDRECTD29*%

%ADD30R,0.0098X0.0591*%
%ADD31R,0.0394X0.0591*%
%ADD32C,0.0120*%
%ADD33C,0.0150*%
%ADD34C,0.0200*%
%ADD35C,0.0984*%
%ADD36C,0.0591*%
%ADD37C,0.0661*%
%ADD38C,0.1772*%
%ADD39C,0.0400*%
%ADD40C,0.0320*%
%ADD41R,0.0661X0.0319*%
%ADD42C,0.0098*%
%ADD43C,0.0100*%
%ADD44C,0.0236*%
%ADD45C,0.0079*%
%ADD46C,0.0047*%
%ADD47C,0.0050*%
%ADD48C,0.0080*%
%ADD49C,0.0060*%
%ADD50R,0.0414X0.0336*%
%ADD51R,0.0375X0.0414*%
%ADD52R,0.0414X0.0375*%
%ADD53R,0.0296X0.0257*%
%ADD54R,0.0296X0.0651*%
%ADD55R,0.0257X0.0296*%
%ADD56R,0.0395X0.0217*%
%ADD57R,0.0336X0.0414*%
%ADD58R,0.0217X0.0395*%
%ADD59R,0.0572X0.0277*%
%ADD60R,0.0217X0.0217*%
%ADD61R,0.0178X0.0269*%
%ADD62R,0.0178X0.0253*%
%ADD63O,0.0178X0.0710*%
%ADD64R,0.0454X0.0277*%
G04:AMPARAMS|DCode=65|XSize=65.8mil|YSize=36mil|CornerRadius=0mil|HoleSize=0mil|Usage=FLASHONLY|Rotation=225.000|XOffset=0mil|YOffset=0mil|HoleType=Round|Shape=Rectangle|*
%AMROTATEDRECTD65*
4,1,4,0.0106,0.0360,0.0360,0.0106,-0.0106,-0.0360,-0.0360,-0.0106,0.0106,0.0360,0.0*
%
%ADD65ROTATEDRECTD65*%

G04:AMPARAMS|DCode=66|XSize=65.8mil|YSize=36mil|CornerRadius=0mil|HoleSize=0mil|Usage=FLASHONLY|Rotation=135.000|XOffset=0mil|YOffset=0mil|HoleType=Round|Shape=Rectangle|*
%AMROTATEDRECTD66*
4,1,4,0.0360,-0.0106,0.0106,-0.0360,-0.0360,0.0106,-0.0106,0.0360,0.0360,-0.0106,0.0*
%
%ADD66ROTATEDRECTD66*%

G04:AMPARAMS|DCode=67|XSize=66mil|YSize=36mil|CornerRadius=0mil|HoleSize=0mil|Usage=FLASHONLY|Rotation=135.000|XOffset=0mil|YOffset=0mil|HoleType=Round|Shape=Rectangle|*
%AMROTATEDRECTD67*
4,1,4,0.0361,-0.0106,0.0106,-0.0361,-0.0361,0.0106,-0.0106,0.0361,0.0361,-0.0106,0.0*
%
%ADD67ROTATEDRECTD67*%

%ADD68R,0.0300X0.1810*%
G04:AMPARAMS|DCode=69|XSize=41.4mil|YSize=37.5mil|CornerRadius=0mil|HoleSize=0mil|Usage=FLASHONLY|Rotation=315.000|XOffset=0mil|YOffset=0mil|HoleType=Round|Shape=Rectangle|*
%AMROTATEDRECTD69*
4,1,4,-0.0279,0.0014,-0.0014,0.0279,0.0279,-0.0014,0.0014,-0.0279,-0.0279,0.0014,0.0*
%
%ADD69ROTATEDRECTD69*%

%ADD70C,0.1044*%
%ADD71C,0.0651*%
%ADD72C,0.0721*%
%ADD73C,0.1832*%
%ADD74C,0.0460*%
%ADD75R,0.0721X0.0379*%
D68*
X15856Y1000D02*
D03*
X16644D02*
D03*
X17037D02*
D03*
X17431D02*
D03*
D70*
X12000Y10468D02*
D03*
Y6532D02*
D03*
D71*
X10125Y950D02*
D03*
X10913D02*
D03*
X11700D02*
D03*
X13275D02*
D03*
X13250Y2550D02*
D03*
X14250D02*
D03*
X7150Y2650D02*
D03*
X8150D02*
D03*
D72*
X3750Y6250D02*
D03*
X6050Y3600D02*
D03*
X9250Y5000D02*
D03*
X8700Y13000D02*
D03*
X9300Y10650D02*
D03*
X6250Y9800D02*
D03*
X3850Y10050D02*
D03*
X2700Y9750D02*
D03*
X5000Y9500D02*
D03*
X7400Y9950D02*
D03*
X6400Y13350D02*
D03*
X8900Y9450D02*
D03*
X10400Y11000D02*
D03*
X13350Y8900D02*
D03*
X10000Y6250D02*
D03*
X13600Y7400D02*
D03*
X10950Y12300D02*
D03*
X15900Y5000D02*
D03*
X13850Y6050D02*
D03*
X18000Y14850D02*
D03*
X8950Y7700D02*
D03*
D73*
X12000Y10468D02*
D03*
Y6532D02*
D03*
D74*
X18950Y14450D02*
D03*
X19300Y14086D02*
D03*
X23700Y13778D02*
D03*
X23350Y14136D02*
D03*
X22650Y14850D02*
D03*
X25150Y4700D02*
D03*
X24793Y4350D02*
D03*
X24450Y3986D02*
D03*
X24079Y3650D02*
D03*
X23700Y3322D02*
D03*
X23000Y2607D02*
D03*
D75*
X20800Y507D02*
D03*
Y1193D02*
D03*
X18800Y507D02*
D03*
Y1193D02*
D03*
M02*
