%FSLAX24Y24*%
%MOIN*%
G70*
G01*
G75*
G04 Layer_Physical_Order=3*
G04 Layer_Color=16440176*
%ADD10R,0.0354X0.0276*%
%ADD11R,0.0315X0.0354*%
%ADD12R,0.0354X0.0315*%
%ADD13R,0.0236X0.0197*%
%ADD14R,0.0236X0.0591*%
%ADD15R,0.0197X0.0236*%
%ADD16R,0.0335X0.0157*%
%ADD17R,0.0276X0.0354*%
%ADD18R,0.0157X0.0335*%
%ADD19R,0.0512X0.0217*%
%ADD20R,0.0157X0.0157*%
%ADD21R,0.0118X0.0209*%
%ADD22R,0.0118X0.0193*%
%ADD23O,0.0118X0.0650*%
%ADD24R,0.0394X0.0217*%
G04:AMPARAMS|DCode=25|XSize=59.8mil|YSize=30mil|CornerRadius=0mil|HoleSize=0mil|Usage=FLASHONLY|Rotation=225.000|XOffset=0mil|YOffset=0mil|HoleType=Round|Shape=Rectangle|*
%AMROTATEDRECTD25*
4,1,4,0.0106,0.0318,0.0318,0.0106,-0.0106,-0.0318,-0.0318,-0.0106,0.0106,0.0318,0.0*
%
%ADD25ROTATEDRECTD25*%

G04:AMPARAMS|DCode=26|XSize=59.8mil|YSize=30mil|CornerRadius=0mil|HoleSize=0mil|Usage=FLASHONLY|Rotation=135.000|XOffset=0mil|YOffset=0mil|HoleType=Round|Shape=Rectangle|*
%AMROTATEDRECTD26*
4,1,4,0.0318,-0.0106,0.0106,-0.0318,-0.0318,0.0106,-0.0106,0.0318,0.0318,-0.0106,0.0*
%
%ADD26ROTATEDRECTD26*%

G04:AMPARAMS|DCode=27|XSize=60mil|YSize=30mil|CornerRadius=0mil|HoleSize=0mil|Usage=FLASHONLY|Rotation=135.000|XOffset=0mil|YOffset=0mil|HoleType=Round|Shape=Rectangle|*
%AMROTATEDRECTD27*
4,1,4,0.0318,-0.0106,0.0106,-0.0318,-0.0318,0.0106,-0.0106,0.0318,0.0318,-0.0106,0.0*
%
%ADD27ROTATEDRECTD27*%

%ADD28R,0.0240X0.1750*%
G04:AMPARAMS|DCode=29|XSize=35.4mil|YSize=31.5mil|CornerRadius=0mil|HoleSize=0mil|Usage=FLASHONLY|Rotation=315.000|XOffset=0mil|YOffset=0mil|HoleType=Round|Shape=Rectangle|*
%AMROTATEDRECTD29*
4,1,4,-0.0237,0.0014,-0.0014,0.0237,0.0237,-0.0014,0.0014,-0.0237,-0.0237,0.0014,0.0*
%
%ADD29ROTATEDRECTD29*%

%ADD30R,0.0098X0.0591*%
%ADD31R,0.0394X0.0591*%
%ADD32C,0.0120*%
%ADD33C,0.0150*%
%ADD34C,0.0200*%
%ADD35C,0.0984*%
%ADD36C,0.0591*%
%ADD37C,0.0661*%
%ADD38C,0.1772*%
%ADD39C,0.0400*%
%ADD40C,0.0320*%
G36*
X29529Y8500D02*
X21115Y85D01*
X18385D01*
Y3600D01*
X18379Y3633D01*
X18360Y3660D01*
X18333Y3679D01*
X18300Y3685D01*
X17700D01*
X17667Y3679D01*
X17640Y3660D01*
X17621Y3633D01*
X17615Y3600D01*
X16485D01*
X16479Y3633D01*
X16460Y3660D01*
X16455Y3690D01*
X16477Y3719D01*
X16503Y3782D01*
X16507Y3810D01*
X15993D01*
X15997Y3782D01*
X16023Y3719D01*
X16045Y3690D01*
X16040Y3660D01*
X16021Y3633D01*
X16015Y3600D01*
X15685D01*
X15679Y3633D01*
X15660Y3660D01*
X15633Y3679D01*
X15600Y3685D01*
X14950D01*
X14917Y3679D01*
X14890Y3660D01*
X14871Y3633D01*
X14865Y3600D01*
Y85D01*
X8535D01*
X121Y8500D01*
X8535Y16915D01*
X21115D01*
X29529Y8500D01*
D02*
G37*
%LPC*%
G36*
X16836Y5724D02*
X16750Y5707D01*
X16677Y5659D01*
X16629Y5586D01*
X16611Y5500D01*
X16629Y5414D01*
X16677Y5341D01*
X16750Y5293D01*
X16836Y5276D01*
X16922Y5293D01*
X16994Y5341D01*
X17043Y5414D01*
X17060Y5500D01*
X17043Y5586D01*
X16994Y5659D01*
X16922Y5707D01*
X16836Y5724D01*
D02*
G37*
G36*
X14960Y5510D02*
X14743D01*
X14747Y5482D01*
X14773Y5419D01*
X14815Y5365D01*
X14869Y5323D01*
X14932Y5297D01*
X14960Y5293D01*
Y5510D01*
D02*
G37*
G36*
X15257D02*
X15040D01*
Y5293D01*
X15068Y5297D01*
X15131Y5323D01*
X15185Y5365D01*
X15227Y5419D01*
X15253Y5482D01*
X15257Y5510D01*
D02*
G37*
G36*
X13190Y5307D02*
Y5090D01*
X13407D01*
X13403Y5118D01*
X13377Y5181D01*
X13335Y5235D01*
X13281Y5277D01*
X13218Y5303D01*
X13190Y5307D01*
D02*
G37*
G36*
X10850Y5574D02*
X10764Y5557D01*
X10691Y5509D01*
X10643Y5436D01*
X10626Y5350D01*
X10643Y5264D01*
X10691Y5191D01*
X10764Y5143D01*
X10850Y5126D01*
X10936Y5143D01*
X11009Y5191D01*
X11057Y5264D01*
X11074Y5350D01*
X11057Y5436D01*
X11009Y5509D01*
X10936Y5557D01*
X10850Y5574D01*
D02*
G37*
G36*
X4000Y5724D02*
X3914Y5707D01*
X3841Y5659D01*
X3793Y5586D01*
X3776Y5500D01*
X3793Y5414D01*
X3841Y5341D01*
X3914Y5293D01*
X4000Y5276D01*
X4086Y5293D01*
X4159Y5341D01*
X4207Y5414D01*
X4224Y5500D01*
X4207Y5586D01*
X4159Y5659D01*
X4086Y5707D01*
X4000Y5724D01*
D02*
G37*
G36*
X14960Y5807D02*
X14932Y5803D01*
X14869Y5777D01*
X14815Y5735D01*
X14773Y5681D01*
X14747Y5618D01*
X14743Y5590D01*
X14960D01*
Y5807D01*
D02*
G37*
G36*
X15040D02*
Y5590D01*
X15257D01*
X15253Y5618D01*
X15227Y5681D01*
X15185Y5735D01*
X15131Y5777D01*
X15068Y5803D01*
X15040Y5807D01*
D02*
G37*
G36*
X13850Y6444D02*
X13748Y6431D01*
X13653Y6391D01*
X13571Y6329D01*
X13509Y6247D01*
X13469Y6152D01*
X13456Y6050D01*
X13469Y5948D01*
X13509Y5853D01*
X13571Y5771D01*
X13653Y5709D01*
X13748Y5669D01*
X13850Y5656D01*
X13952Y5669D01*
X14047Y5709D01*
X14129Y5771D01*
X14191Y5853D01*
X14231Y5948D01*
X14244Y6050D01*
X14231Y6152D01*
X14191Y6247D01*
X14129Y6329D01*
X14047Y6391D01*
X13952Y6431D01*
X13850Y6444D01*
D02*
G37*
G36*
X8810Y5660D02*
X8593D01*
X8597Y5632D01*
X8623Y5569D01*
X8665Y5515D01*
X8719Y5473D01*
X8782Y5447D01*
X8810Y5443D01*
Y5660D01*
D02*
G37*
G36*
X9107D02*
X8890D01*
Y5443D01*
X8918Y5447D01*
X8981Y5473D01*
X9035Y5515D01*
X9077Y5569D01*
X9103Y5632D01*
X9107Y5660D01*
D02*
G37*
G36*
X12000Y7482D02*
X11815Y7464D01*
X11636Y7410D01*
X11472Y7322D01*
X11328Y7204D01*
X11210Y7060D01*
X11122Y6895D01*
X11068Y6717D01*
X11050Y6532D01*
X11068Y6346D01*
X11122Y6168D01*
X11210Y6003D01*
X11328Y5859D01*
X11472Y5741D01*
X11636Y5653D01*
X11815Y5599D01*
X12000Y5581D01*
X12185Y5599D01*
X12364Y5653D01*
X12528Y5741D01*
X12672Y5859D01*
X12790Y6003D01*
X12878Y6168D01*
X12932Y6346D01*
X12950Y6532D01*
X12932Y6717D01*
X12878Y6895D01*
X12790Y7060D01*
X12672Y7204D01*
X12528Y7322D01*
X12364Y7410D01*
X12185Y7464D01*
X12000Y7482D01*
D02*
G37*
G36*
X13110Y5307D02*
X13082Y5303D01*
X13019Y5277D01*
X12965Y5235D01*
X12923Y5181D01*
X12897Y5118D01*
X12893Y5090D01*
X13110D01*
Y5307D01*
D02*
G37*
G36*
X10890Y4707D02*
Y4490D01*
X11107D01*
X11103Y4518D01*
X11077Y4581D01*
X11035Y4635D01*
X10981Y4677D01*
X10918Y4703D01*
X10890Y4707D01*
D02*
G37*
G36*
X25150Y4962D02*
X25082Y4953D01*
X25019Y4927D01*
X24965Y4885D01*
X24923Y4831D01*
X24897Y4768D01*
X24888Y4700D01*
X24896Y4639D01*
X24860Y4603D01*
X24793Y4612D01*
X24725Y4603D01*
X24662Y4577D01*
X24607Y4535D01*
X24566Y4481D01*
X24540Y4418D01*
X24531Y4350D01*
X24540Y4282D01*
X24541Y4280D01*
X24510Y4240D01*
X24450Y4248D01*
X24382Y4239D01*
X24319Y4213D01*
X24265Y4171D01*
X24223Y4117D01*
X24197Y4054D01*
X24188Y3986D01*
X24195Y3930D01*
X24159Y3902D01*
X24154Y3900D01*
X24147Y3903D01*
X24079Y3912D01*
X24011Y3903D01*
X23948Y3877D01*
X23893Y3835D01*
X23852Y3781D01*
X23825Y3718D01*
X23816Y3650D01*
X23823Y3599D01*
X23784Y3568D01*
X23768Y3575D01*
X23700Y3584D01*
X23632Y3575D01*
X23569Y3549D01*
X23515Y3507D01*
X23473Y3453D01*
X23447Y3389D01*
X23438Y3322D01*
X23447Y3254D01*
X23473Y3190D01*
X23515Y3136D01*
X23569Y3094D01*
X23632Y3068D01*
X23700Y3059D01*
X23768Y3068D01*
X23831Y3094D01*
X23885Y3136D01*
X23927Y3190D01*
X23953Y3254D01*
X23962Y3322D01*
X23956Y3373D01*
X23995Y3403D01*
X24011Y3397D01*
X24079Y3388D01*
X24147Y3397D01*
X24210Y3423D01*
X24264Y3465D01*
X24306Y3519D01*
X24332Y3582D01*
X24341Y3650D01*
X24334Y3706D01*
X24370Y3734D01*
X24375Y3736D01*
X24382Y3732D01*
X24450Y3724D01*
X24518Y3732D01*
X24581Y3759D01*
X24635Y3800D01*
X24677Y3855D01*
X24703Y3918D01*
X24712Y3986D01*
X24703Y4054D01*
X24702Y4056D01*
X24733Y4096D01*
X24793Y4088D01*
X24861Y4097D01*
X24924Y4123D01*
X24978Y4165D01*
X25020Y4219D01*
X25046Y4282D01*
X25055Y4350D01*
X25047Y4411D01*
X25082Y4447D01*
X25150Y4438D01*
X25218Y4447D01*
X25281Y4473D01*
X25335Y4515D01*
X25377Y4569D01*
X25403Y4632D01*
X25412Y4700D01*
X25403Y4768D01*
X25377Y4831D01*
X25335Y4885D01*
X25281Y4927D01*
X25218Y4953D01*
X25150Y4962D01*
D02*
G37*
G36*
X9250Y5394D02*
X9148Y5381D01*
X9053Y5341D01*
X8971Y5279D01*
X8909Y5197D01*
X8869Y5102D01*
X8856Y5000D01*
X8869Y4898D01*
X8909Y4803D01*
X8971Y4721D01*
X9053Y4659D01*
X9148Y4619D01*
X9250Y4606D01*
X9352Y4619D01*
X9447Y4659D01*
X9529Y4721D01*
X9591Y4803D01*
X9631Y4898D01*
X9644Y5000D01*
X9631Y5102D01*
X9591Y5197D01*
X9529Y5279D01*
X9447Y5341D01*
X9352Y5381D01*
X9250Y5394D01*
D02*
G37*
G36*
X7090Y4457D02*
Y4240D01*
X7307D01*
X7303Y4268D01*
X7277Y4331D01*
X7235Y4385D01*
X7181Y4427D01*
X7118Y4453D01*
X7090Y4457D01*
D02*
G37*
G36*
X7550Y4774D02*
X7464Y4757D01*
X7391Y4709D01*
X7343Y4636D01*
X7326Y4550D01*
X7343Y4464D01*
X7391Y4391D01*
X7464Y4343D01*
X7550Y4326D01*
X7636Y4343D01*
X7709Y4391D01*
X7757Y4464D01*
X7774Y4550D01*
X7757Y4636D01*
X7709Y4709D01*
X7636Y4757D01*
X7550Y4774D01*
D02*
G37*
G36*
X10810Y4707D02*
X10782Y4703D01*
X10719Y4677D01*
X10665Y4635D01*
X10623Y4581D01*
X10597Y4518D01*
X10593Y4490D01*
X10810D01*
Y4707D01*
D02*
G37*
G36*
X13407Y5010D02*
X13190D01*
Y4793D01*
X13218Y4797D01*
X13281Y4823D01*
X13335Y4865D01*
X13377Y4919D01*
X13403Y4982D01*
X13407Y5010D01*
D02*
G37*
G36*
X10350Y5274D02*
X10264Y5257D01*
X10191Y5209D01*
X10143Y5136D01*
X10126Y5050D01*
X10143Y4964D01*
X10191Y4891D01*
X10264Y4843D01*
X10350Y4826D01*
X10436Y4843D01*
X10509Y4891D01*
X10557Y4964D01*
X10574Y5050D01*
X10557Y5136D01*
X10509Y5209D01*
X10436Y5257D01*
X10350Y5274D01*
D02*
G37*
G36*
X5600Y5424D02*
X5514Y5407D01*
X5441Y5359D01*
X5393Y5286D01*
X5376Y5200D01*
X5393Y5114D01*
X5441Y5041D01*
X5514Y4993D01*
X5600Y4976D01*
X5686Y4993D01*
X5759Y5041D01*
X5807Y5114D01*
X5824Y5200D01*
X5807Y5286D01*
X5759Y5359D01*
X5686Y5407D01*
X5600Y5424D01*
D02*
G37*
G36*
X6600Y5074D02*
X6514Y5057D01*
X6441Y5009D01*
X6393Y4936D01*
X6376Y4850D01*
X6393Y4764D01*
X6441Y4691D01*
X6514Y4643D01*
X6600Y4626D01*
X6686Y4643D01*
X6759Y4691D01*
X6807Y4764D01*
X6824Y4850D01*
X6807Y4936D01*
X6759Y5009D01*
X6686Y5057D01*
X6600Y5074D01*
D02*
G37*
G36*
X19050Y5124D02*
X18964Y5107D01*
X18891Y5059D01*
X18843Y4986D01*
X18826Y4900D01*
X18843Y4814D01*
X18891Y4741D01*
X18964Y4693D01*
X19050Y4676D01*
X19136Y4693D01*
X19209Y4741D01*
X19257Y4814D01*
X19274Y4900D01*
X19257Y4986D01*
X19209Y5059D01*
X19136Y5107D01*
X19050Y5124D01*
D02*
G37*
G36*
X13110Y5010D02*
X12893D01*
X12897Y4982D01*
X12923Y4919D01*
X12965Y4865D01*
X13019Y4823D01*
X13082Y4797D01*
X13110Y4793D01*
Y5010D01*
D02*
G37*
G36*
X8810Y5957D02*
X8782Y5953D01*
X8719Y5927D01*
X8665Y5885D01*
X8623Y5831D01*
X8597Y5768D01*
X8593Y5740D01*
X8810D01*
Y5957D01*
D02*
G37*
G36*
X8950Y8094D02*
X8848Y8081D01*
X8753Y8041D01*
X8671Y7979D01*
X8609Y7897D01*
X8569Y7802D01*
X8556Y7700D01*
X8568Y7607D01*
X8526Y7581D01*
X8486Y7607D01*
X8400Y7624D01*
X8314Y7607D01*
X8241Y7559D01*
X8193Y7486D01*
X8176Y7400D01*
X8193Y7314D01*
X8241Y7241D01*
X8314Y7193D01*
X8400Y7176D01*
X8486Y7193D01*
X8559Y7241D01*
X8607Y7314D01*
X8624Y7400D01*
X8624Y7404D01*
X8669Y7424D01*
X8671Y7421D01*
X8753Y7359D01*
X8848Y7319D01*
X8950Y7306D01*
X9052Y7319D01*
X9147Y7359D01*
X9229Y7421D01*
X9272Y7478D01*
X9322Y7472D01*
X9323Y7469D01*
X9365Y7415D01*
X9419Y7373D01*
X9482Y7347D01*
X9510Y7343D01*
Y7600D01*
Y7857D01*
X9482Y7853D01*
X9419Y7827D01*
X9398Y7811D01*
X9343Y7804D01*
X9328Y7808D01*
X9291Y7897D01*
X9229Y7979D01*
X9147Y8041D01*
X9052Y8081D01*
X8950Y8094D01*
D02*
G37*
G36*
X2360Y7807D02*
X2332Y7803D01*
X2269Y7777D01*
X2215Y7735D01*
X2173Y7681D01*
X2147Y7618D01*
X2143Y7590D01*
X2360D01*
Y7807D01*
D02*
G37*
G36*
X2440D02*
Y7590D01*
X2657D01*
X2653Y7618D01*
X2627Y7681D01*
X2585Y7735D01*
X2531Y7777D01*
X2468Y7803D01*
X2440Y7807D01*
D02*
G37*
G36*
X14710Y7617D02*
X14493D01*
X14497Y7589D01*
X14523Y7526D01*
X14565Y7471D01*
X14619Y7430D01*
X14682Y7404D01*
X14710Y7400D01*
Y7617D01*
D02*
G37*
G36*
X7060Y7660D02*
X6843D01*
X6847Y7632D01*
X6873Y7569D01*
X6915Y7515D01*
X6969Y7473D01*
X7032Y7447D01*
X7060Y7443D01*
Y7660D01*
D02*
G37*
G36*
X7357D02*
X7140D01*
Y7443D01*
X7168Y7447D01*
X7231Y7473D01*
X7285Y7515D01*
X7327Y7569D01*
X7353Y7632D01*
X7357Y7660D01*
D02*
G37*
G36*
X14790Y7914D02*
Y7697D01*
X15007D01*
X15003Y7725D01*
X14977Y7788D01*
X14935Y7842D01*
X14881Y7884D01*
X14818Y7910D01*
X14790Y7914D01*
D02*
G37*
G36*
X7060Y7957D02*
X7032Y7953D01*
X6969Y7927D01*
X6915Y7885D01*
X6873Y7831D01*
X6847Y7768D01*
X6843Y7740D01*
X7060D01*
Y7957D01*
D02*
G37*
G36*
X7140D02*
Y7740D01*
X7357D01*
X7353Y7768D01*
X7327Y7831D01*
X7285Y7885D01*
X7231Y7927D01*
X7168Y7953D01*
X7140Y7957D01*
D02*
G37*
G36*
X7957Y8260D02*
X7443D01*
X7447Y8232D01*
X7473Y8169D01*
X7515Y8115D01*
X7567Y8074D01*
X7565Y8025D01*
X7541Y8009D01*
X7493Y7936D01*
X7476Y7850D01*
X7493Y7764D01*
X7541Y7691D01*
X7614Y7643D01*
X7700Y7626D01*
X7786Y7643D01*
X7859Y7691D01*
X7907Y7764D01*
X7924Y7850D01*
X7907Y7936D01*
X7859Y8009D01*
X7835Y8025D01*
X7833Y8074D01*
X7885Y8115D01*
X7927Y8169D01*
X7953Y8232D01*
X7957Y8260D01*
D02*
G37*
G36*
X9590Y7857D02*
Y7640D01*
X9807D01*
X9803Y7668D01*
X9777Y7731D01*
X9735Y7785D01*
X9681Y7827D01*
X9618Y7853D01*
X9590Y7857D01*
D02*
G37*
G36*
X14710Y7914D02*
X14682Y7910D01*
X14619Y7884D01*
X14565Y7842D01*
X14523Y7788D01*
X14497Y7725D01*
X14493Y7697D01*
X14710D01*
Y7914D01*
D02*
G37*
G36*
X9807Y7560D02*
X9590D01*
Y7343D01*
X9618Y7347D01*
X9681Y7373D01*
X9735Y7415D01*
X9777Y7469D01*
X9803Y7532D01*
X9807Y7560D01*
D02*
G37*
G36*
X5455Y6424D02*
X5369Y6407D01*
X5296Y6359D01*
X5247Y6286D01*
X5230Y6200D01*
X5247Y6114D01*
X5296Y6041D01*
X5369Y5993D01*
X5455Y5976D01*
X5541Y5993D01*
X5613Y6041D01*
X5662Y6114D01*
X5679Y6200D01*
X5662Y6286D01*
X5613Y6359D01*
X5541Y6407D01*
X5455Y6424D01*
D02*
G37*
G36*
X16172Y6474D02*
X16086Y6457D01*
X16013Y6409D01*
X15964Y6336D01*
X15947Y6250D01*
X15964Y6164D01*
X16013Y6091D01*
X16086Y6043D01*
X16172Y6026D01*
X16257Y6043D01*
X16330Y6091D01*
X16379Y6164D01*
X16396Y6250D01*
X16379Y6336D01*
X16330Y6409D01*
X16257Y6457D01*
X16172Y6474D01*
D02*
G37*
G36*
X2900Y6874D02*
X2814Y6857D01*
X2741Y6809D01*
X2693Y6736D01*
X2676Y6650D01*
X2693Y6564D01*
X2741Y6491D01*
X2814Y6443D01*
X2900Y6426D01*
X2986Y6443D01*
X3059Y6491D01*
X3107Y6564D01*
X3124Y6650D01*
X3107Y6736D01*
X3059Y6809D01*
X2986Y6857D01*
X2900Y6874D01*
D02*
G37*
G36*
X8890Y5957D02*
Y5740D01*
X9107D01*
X9103Y5768D01*
X9077Y5831D01*
X9035Y5885D01*
X8981Y5927D01*
X8918Y5953D01*
X8890Y5957D01*
D02*
G37*
G36*
X3750Y6644D02*
X3648Y6631D01*
X3553Y6591D01*
X3471Y6529D01*
X3409Y6447D01*
X3369Y6352D01*
X3356Y6250D01*
X3369Y6148D01*
X3409Y6053D01*
X3471Y5971D01*
X3553Y5909D01*
X3648Y5869D01*
X3750Y5856D01*
X3852Y5869D01*
X3947Y5909D01*
X4029Y5971D01*
X4091Y6053D01*
X4131Y6148D01*
X4144Y6250D01*
X4131Y6352D01*
X4091Y6447D01*
X4029Y6529D01*
X3947Y6591D01*
X3852Y6631D01*
X3750Y6644D01*
D02*
G37*
G36*
X10000D02*
X9898Y6631D01*
X9803Y6591D01*
X9721Y6529D01*
X9659Y6447D01*
X9619Y6352D01*
X9606Y6250D01*
X9619Y6148D01*
X9659Y6053D01*
X9721Y5971D01*
X9803Y5909D01*
X9898Y5869D01*
X10000Y5856D01*
X10102Y5869D01*
X10197Y5909D01*
X10279Y5971D01*
X10341Y6053D01*
X10381Y6148D01*
X10394Y6250D01*
X10381Y6352D01*
X10341Y6447D01*
X10279Y6529D01*
X10197Y6591D01*
X10102Y6631D01*
X10000Y6644D01*
D02*
G37*
G36*
X2360Y7510D02*
X2143D01*
X2147Y7482D01*
X2173Y7419D01*
X2215Y7365D01*
X2269Y7323D01*
X2332Y7297D01*
X2360Y7293D01*
Y7510D01*
D02*
G37*
G36*
X2657D02*
X2440D01*
Y7293D01*
X2468Y7297D01*
X2531Y7323D01*
X2585Y7365D01*
X2627Y7419D01*
X2653Y7482D01*
X2657Y7510D01*
D02*
G37*
G36*
X16850Y7774D02*
X16764Y7757D01*
X16691Y7709D01*
X16643Y7636D01*
X16626Y7550D01*
X16643Y7464D01*
X16691Y7391D01*
X16764Y7343D01*
X16850Y7326D01*
X16936Y7343D01*
X17009Y7391D01*
X17057Y7464D01*
X17074Y7550D01*
X17057Y7636D01*
X17009Y7709D01*
X16936Y7757D01*
X16850Y7774D01*
D02*
G37*
G36*
X4200Y7374D02*
X4114Y7357D01*
X4041Y7309D01*
X3993Y7236D01*
X3976Y7150D01*
X3993Y7064D01*
X4041Y6991D01*
X4114Y6943D01*
X4200Y6926D01*
X4286Y6943D01*
X4359Y6991D01*
X4407Y7064D01*
X4424Y7150D01*
X4407Y7236D01*
X4359Y7309D01*
X4286Y7357D01*
X4200Y7374D01*
D02*
G37*
G36*
X13600Y7794D02*
X13498Y7781D01*
X13403Y7741D01*
X13321Y7679D01*
X13259Y7597D01*
X13219Y7502D01*
X13206Y7400D01*
X13219Y7298D01*
X13259Y7203D01*
X13321Y7121D01*
X13403Y7059D01*
X13498Y7019D01*
X13600Y7006D01*
X13702Y7019D01*
X13797Y7059D01*
X13879Y7121D01*
X13941Y7203D01*
X13981Y7298D01*
X13994Y7400D01*
X13981Y7502D01*
X13941Y7597D01*
X13879Y7679D01*
X13797Y7741D01*
X13702Y7781D01*
X13600Y7794D01*
D02*
G37*
G36*
X15007Y7617D02*
X14790D01*
Y7400D01*
X14818Y7404D01*
X14848Y7416D01*
X14893Y7386D01*
X14876Y7300D01*
X14893Y7214D01*
X14941Y7141D01*
X15014Y7093D01*
X15100Y7076D01*
X15186Y7093D01*
X15259Y7141D01*
X15307Y7214D01*
X15324Y7300D01*
X15307Y7386D01*
X15259Y7459D01*
X15186Y7507D01*
X15100Y7524D01*
X15017Y7508D01*
X14997Y7532D01*
X14987Y7549D01*
X15003Y7589D01*
X15007Y7617D01*
D02*
G37*
G36*
X13210Y2510D02*
X12857D01*
X12865Y2447D01*
X12905Y2351D01*
X12968Y2268D01*
X13051Y2205D01*
X13147Y2165D01*
X13210Y2157D01*
Y2510D01*
D02*
G37*
G36*
X13643D02*
X13290D01*
Y2157D01*
X13353Y2165D01*
X13449Y2205D01*
X13532Y2268D01*
X13595Y2351D01*
X13635Y2447D01*
X13643Y2510D01*
D02*
G37*
G36*
X14210D02*
X13857D01*
X13865Y2447D01*
X13905Y2351D01*
X13968Y2268D01*
X14051Y2205D01*
X14147Y2165D01*
X14210Y2157D01*
Y2510D01*
D02*
G37*
G36*
X11360Y2207D02*
X11332Y2203D01*
X11269Y2177D01*
X11215Y2135D01*
X11173Y2081D01*
X11147Y2018D01*
X11143Y1990D01*
X11360D01*
Y2207D01*
D02*
G37*
G36*
X11440D02*
Y1990D01*
X11657D01*
X11653Y2018D01*
X11627Y2081D01*
X11585Y2135D01*
X11531Y2177D01*
X11468Y2203D01*
X11440Y2207D01*
D02*
G37*
G36*
X12150Y2612D02*
X12082Y2603D01*
X12019Y2577D01*
X11965Y2535D01*
X11923Y2481D01*
X11897Y2418D01*
X11888Y2350D01*
X11897Y2282D01*
X11923Y2219D01*
X11965Y2165D01*
X12019Y2123D01*
X12082Y2097D01*
X12150Y2088D01*
X12218Y2097D01*
X12281Y2123D01*
X12335Y2165D01*
X12377Y2219D01*
X12403Y2282D01*
X12412Y2350D01*
X12403Y2418D01*
X12377Y2481D01*
X12335Y2535D01*
X12281Y2577D01*
X12218Y2603D01*
X12150Y2612D01*
D02*
G37*
G36*
X23000Y2870D02*
X22932Y2861D01*
X22869Y2834D01*
X22815Y2793D01*
X22773Y2738D01*
X22747Y2675D01*
X22738Y2607D01*
X22747Y2539D01*
X22773Y2476D01*
X22815Y2422D01*
X22869Y2380D01*
X22932Y2354D01*
X23000Y2345D01*
X23068Y2354D01*
X23131Y2380D01*
X23185Y2422D01*
X23227Y2476D01*
X23253Y2539D01*
X23262Y2607D01*
X23253Y2675D01*
X23227Y2738D01*
X23185Y2793D01*
X23131Y2834D01*
X23068Y2861D01*
X23000Y2870D01*
D02*
G37*
G36*
X21410Y2710D02*
X21193D01*
X21197Y2682D01*
X21223Y2619D01*
X21265Y2565D01*
X21319Y2523D01*
X21382Y2497D01*
X21410Y2493D01*
Y2710D01*
D02*
G37*
G36*
X21707D02*
X21490D01*
Y2493D01*
X21518Y2497D01*
X21581Y2523D01*
X21635Y2565D01*
X21677Y2619D01*
X21703Y2682D01*
X21707Y2710D01*
D02*
G37*
G36*
X14643Y2510D02*
X14290D01*
Y2157D01*
X14353Y2165D01*
X14449Y2205D01*
X14532Y2268D01*
X14595Y2351D01*
X14635Y2447D01*
X14643Y2510D01*
D02*
G37*
G36*
X7150Y3008D02*
X7057Y2996D01*
X6971Y2960D01*
X6897Y2903D01*
X6840Y2829D01*
X6804Y2743D01*
X6792Y2650D01*
X6804Y2557D01*
X6840Y2471D01*
X6897Y2397D01*
X6971Y2340D01*
X7057Y2304D01*
X7150Y2292D01*
X7243Y2304D01*
X7329Y2340D01*
X7403Y2397D01*
X7460Y2471D01*
X7496Y2557D01*
X7508Y2650D01*
X7496Y2743D01*
X7460Y2829D01*
X7403Y2903D01*
X7329Y2960D01*
X7243Y2996D01*
X7150Y3008D01*
D02*
G37*
G36*
X8150D02*
X8057Y2996D01*
X7971Y2960D01*
X7897Y2903D01*
X7840Y2829D01*
X7804Y2743D01*
X7792Y2650D01*
X7804Y2557D01*
X7840Y2471D01*
X7897Y2397D01*
X7971Y2340D01*
X8057Y2304D01*
X8150Y2292D01*
X8243Y2304D01*
X8329Y2340D01*
X8403Y2397D01*
X8460Y2471D01*
X8496Y2557D01*
X8508Y2650D01*
X8496Y2743D01*
X8460Y2829D01*
X8403Y2903D01*
X8329Y2960D01*
X8243Y2996D01*
X8150Y3008D01*
D02*
G37*
G36*
X20400Y2224D02*
X20314Y2207D01*
X20241Y2159D01*
X20193Y2086D01*
X20176Y2000D01*
X20193Y1914D01*
X20241Y1841D01*
X20314Y1793D01*
X20400Y1776D01*
X20486Y1793D01*
X20559Y1841D01*
X20607Y1914D01*
X20624Y2000D01*
X20607Y2086D01*
X20559Y2159D01*
X20486Y2207D01*
X20400Y2224D01*
D02*
G37*
G36*
X11700Y1308D02*
X11607Y1296D01*
X11521Y1260D01*
X11447Y1203D01*
X11390Y1129D01*
X11354Y1043D01*
X11342Y950D01*
X11354Y857D01*
X11390Y771D01*
X11447Y697D01*
X11521Y640D01*
X11607Y604D01*
X11700Y592D01*
X11793Y604D01*
X11879Y640D01*
X11953Y697D01*
X12010Y771D01*
X12046Y857D01*
X12058Y950D01*
X12046Y1043D01*
X12010Y1129D01*
X11953Y1203D01*
X11879Y1260D01*
X11793Y1296D01*
X11700Y1308D01*
D02*
G37*
G36*
X13275D02*
X13182Y1296D01*
X13096Y1260D01*
X13021Y1203D01*
X12964Y1129D01*
X12929Y1043D01*
X12916Y950D01*
X12929Y857D01*
X12964Y771D01*
X13021Y697D01*
X13096Y640D01*
X13182Y604D01*
X13275Y592D01*
X13368Y604D01*
X13454Y640D01*
X13528Y697D01*
X13585Y771D01*
X13621Y857D01*
X13633Y950D01*
X13621Y1043D01*
X13585Y1129D01*
X13528Y1203D01*
X13454Y1260D01*
X13368Y1296D01*
X13275Y1308D01*
D02*
G37*
G36*
X19760Y1160D02*
X19543D01*
X19547Y1132D01*
X19573Y1069D01*
X19615Y1015D01*
X19669Y973D01*
X19732Y947D01*
X19760Y943D01*
Y1160D01*
D02*
G37*
G36*
X19850Y824D02*
X19764Y807D01*
X19691Y759D01*
X19643Y686D01*
X19626Y600D01*
X19643Y514D01*
X19691Y441D01*
X19764Y393D01*
X19850Y376D01*
X19936Y393D01*
X20009Y441D01*
X20057Y514D01*
X20074Y600D01*
X20057Y686D01*
X20009Y759D01*
X19936Y807D01*
X19850Y824D01*
D02*
G37*
G36*
X10125Y1308D02*
X10032Y1296D01*
X9946Y1260D01*
X9872Y1203D01*
X9815Y1129D01*
X9779Y1043D01*
X9767Y950D01*
X9779Y857D01*
X9815Y771D01*
X9872Y697D01*
X9946Y640D01*
X10032Y604D01*
X10125Y592D01*
X10218Y604D01*
X10304Y640D01*
X10379Y697D01*
X10436Y771D01*
X10471Y857D01*
X10484Y950D01*
X10471Y1043D01*
X10436Y1129D01*
X10379Y1203D01*
X10304Y1260D01*
X10218Y1296D01*
X10125Y1308D01*
D02*
G37*
G36*
X10913D02*
X10820Y1296D01*
X10733Y1260D01*
X10659Y1203D01*
X10602Y1129D01*
X10566Y1043D01*
X10554Y950D01*
X10566Y857D01*
X10602Y771D01*
X10659Y697D01*
X10733Y640D01*
X10820Y604D01*
X10913Y592D01*
X11005Y604D01*
X11092Y640D01*
X11166Y697D01*
X11223Y771D01*
X11259Y857D01*
X11271Y950D01*
X11259Y1043D01*
X11223Y1129D01*
X11166Y1203D01*
X11092Y1260D01*
X11005Y1296D01*
X10913Y1308D01*
D02*
G37*
G36*
X12150Y1912D02*
X12082Y1903D01*
X12019Y1877D01*
X11965Y1835D01*
X11923Y1781D01*
X11897Y1718D01*
X11888Y1650D01*
X11897Y1582D01*
X11923Y1519D01*
X11965Y1465D01*
X12019Y1423D01*
X12082Y1397D01*
X12150Y1388D01*
X12218Y1397D01*
X12281Y1423D01*
X12335Y1465D01*
X12377Y1519D01*
X12403Y1582D01*
X12412Y1650D01*
X12403Y1718D01*
X12377Y1781D01*
X12335Y1835D01*
X12281Y1877D01*
X12218Y1903D01*
X12150Y1912D01*
D02*
G37*
G36*
X11360Y1910D02*
X11143D01*
X11147Y1882D01*
X11173Y1819D01*
X11215Y1765D01*
X11269Y1723D01*
X11332Y1697D01*
X11360Y1693D01*
Y1910D01*
D02*
G37*
G36*
X11657D02*
X11440D01*
Y1693D01*
X11468Y1697D01*
X11531Y1723D01*
X11585Y1765D01*
X11627Y1819D01*
X11653Y1882D01*
X11657Y1910D01*
D02*
G37*
G36*
X20057Y1160D02*
X19840D01*
Y943D01*
X19868Y947D01*
X19931Y973D01*
X19985Y1015D01*
X20027Y1069D01*
X20053Y1132D01*
X20057Y1160D01*
D02*
G37*
G36*
X19760Y1457D02*
X19732Y1453D01*
X19669Y1427D01*
X19615Y1385D01*
X19573Y1331D01*
X19547Y1268D01*
X19543Y1240D01*
X19760D01*
Y1457D01*
D02*
G37*
G36*
X19840D02*
Y1240D01*
X20057D01*
X20053Y1268D01*
X20027Y1331D01*
X19985Y1385D01*
X19931Y1427D01*
X19868Y1453D01*
X19840Y1457D01*
D02*
G37*
G36*
X13210Y2943D02*
X13147Y2935D01*
X13051Y2895D01*
X12968Y2832D01*
X12905Y2749D01*
X12865Y2653D01*
X12857Y2590D01*
X13210D01*
Y2943D01*
D02*
G37*
G36*
X11107Y4410D02*
X10593D01*
X10597Y4382D01*
X10623Y4319D01*
X10665Y4265D01*
X10719Y4223D01*
X10748Y4211D01*
X10742Y4161D01*
X10682Y4153D01*
X10619Y4127D01*
X10565Y4085D01*
X10523Y4031D01*
X10497Y3968D01*
X10488Y3900D01*
X10497Y3832D01*
X10523Y3769D01*
X10565Y3715D01*
X10619Y3673D01*
X10682Y3647D01*
X10750Y3638D01*
X10818Y3647D01*
X10881Y3673D01*
X10935Y3715D01*
X10977Y3769D01*
X11003Y3832D01*
X11012Y3900D01*
X11003Y3968D01*
X10977Y4031D01*
X10935Y4085D01*
X10881Y4127D01*
X10852Y4139D01*
X10858Y4189D01*
X10918Y4197D01*
X10981Y4223D01*
X11035Y4265D01*
X11077Y4319D01*
X11103Y4382D01*
X11107Y4410D01*
D02*
G37*
G36*
X11700Y4224D02*
X11614Y4207D01*
X11541Y4159D01*
X11493Y4086D01*
X11476Y4000D01*
X11493Y3914D01*
X11541Y3841D01*
X11614Y3793D01*
X11700Y3776D01*
X11786Y3793D01*
X11859Y3841D01*
X11907Y3914D01*
X11924Y4000D01*
X11907Y4086D01*
X11859Y4159D01*
X11786Y4207D01*
X11700Y4224D01*
D02*
G37*
G36*
X9100Y4274D02*
X9014Y4257D01*
X8941Y4209D01*
X8893Y4136D01*
X8876Y4050D01*
X8893Y3964D01*
X8941Y3891D01*
X9014Y3843D01*
X9100Y3826D01*
X9186Y3843D01*
X9259Y3891D01*
X9307Y3964D01*
X9324Y4050D01*
X9307Y4136D01*
X9259Y4209D01*
X9186Y4257D01*
X9100Y4274D01*
D02*
G37*
G36*
X9140Y3707D02*
Y3490D01*
X9357D01*
X9353Y3518D01*
X9327Y3581D01*
X9285Y3635D01*
X9231Y3677D01*
X9168Y3703D01*
X9140Y3707D01*
D02*
G37*
G36*
X7360Y3757D02*
X7332Y3753D01*
X7269Y3727D01*
X7215Y3685D01*
X7173Y3631D01*
X7147Y3568D01*
X7143Y3540D01*
X7360D01*
Y3757D01*
D02*
G37*
G36*
X7440D02*
Y3540D01*
X7657D01*
X7653Y3568D01*
X7627Y3631D01*
X7585Y3685D01*
X7531Y3727D01*
X7468Y3753D01*
X7440Y3757D01*
D02*
G37*
G36*
X13550Y4524D02*
X13464Y4507D01*
X13391Y4459D01*
X13343Y4386D01*
X13326Y4300D01*
X13343Y4214D01*
X13391Y4141D01*
X13464Y4093D01*
X13550Y4076D01*
X13636Y4093D01*
X13709Y4141D01*
X13757Y4214D01*
X13774Y4300D01*
X13757Y4386D01*
X13709Y4459D01*
X13636Y4507D01*
X13550Y4524D01*
D02*
G37*
G36*
X15900Y5394D02*
X15798Y5381D01*
X15703Y5341D01*
X15621Y5279D01*
X15559Y5197D01*
X15519Y5102D01*
X15506Y5000D01*
X15519Y4898D01*
X15559Y4803D01*
X15621Y4721D01*
X15703Y4659D01*
X15798Y4619D01*
X15900Y4606D01*
X16002Y4619D01*
X16056Y4642D01*
X16088Y4603D01*
X16043Y4536D01*
X16026Y4450D01*
X16043Y4364D01*
X16091Y4291D01*
X16164Y4243D01*
X16250Y4226D01*
X16336Y4243D01*
X16349Y4251D01*
X16390Y4224D01*
X16376Y4150D01*
X16381Y4125D01*
X16342Y4093D01*
X16318Y4103D01*
X16290Y4107D01*
Y3890D01*
X16507D01*
X16505Y3903D01*
X16535Y3931D01*
X16547Y3936D01*
X16600Y3926D01*
X16686Y3943D01*
X16759Y3991D01*
X16807Y4064D01*
X16824Y4150D01*
X16807Y4236D01*
X16759Y4309D01*
X16686Y4357D01*
X16600Y4374D01*
X16514Y4357D01*
X16501Y4349D01*
X16460Y4376D01*
X16474Y4450D01*
X16457Y4536D01*
X16409Y4609D01*
X16336Y4657D01*
X16250Y4674D01*
X16179Y4660D01*
X16158Y4706D01*
X16179Y4721D01*
X16241Y4803D01*
X16281Y4898D01*
X16294Y5000D01*
X16281Y5102D01*
X16241Y5197D01*
X16179Y5279D01*
X16097Y5341D01*
X16002Y5381D01*
X15900Y5394D01*
D02*
G37*
G36*
X7010Y4457D02*
X6982Y4453D01*
X6919Y4427D01*
X6865Y4385D01*
X6823Y4331D01*
X6797Y4268D01*
X6793Y4240D01*
X7010D01*
Y4457D01*
D02*
G37*
G36*
X16210Y4107D02*
X16182Y4103D01*
X16119Y4077D01*
X16065Y4035D01*
X16023Y3981D01*
X15997Y3918D01*
X15993Y3890D01*
X16210D01*
Y4107D01*
D02*
G37*
G36*
X7010Y4160D02*
X6793D01*
X6797Y4132D01*
X6823Y4069D01*
X6865Y4015D01*
X6919Y3973D01*
X6982Y3947D01*
X7010Y3943D01*
Y4160D01*
D02*
G37*
G36*
X7307D02*
X7090D01*
Y3943D01*
X7118Y3947D01*
X7181Y3973D01*
X7235Y4015D01*
X7277Y4069D01*
X7303Y4132D01*
X7307Y4160D01*
D02*
G37*
G36*
X9060Y3707D02*
X9032Y3703D01*
X8969Y3677D01*
X8915Y3635D01*
X8873Y3581D01*
X8847Y3518D01*
X8843Y3490D01*
X9060D01*
Y3707D01*
D02*
G37*
G36*
X12150Y3312D02*
X12082Y3303D01*
X12019Y3277D01*
X11965Y3235D01*
X11923Y3181D01*
X11897Y3118D01*
X11888Y3050D01*
X11897Y2982D01*
X11923Y2919D01*
X11965Y2865D01*
X12019Y2823D01*
X12082Y2797D01*
X12150Y2788D01*
X12218Y2797D01*
X12281Y2823D01*
X12335Y2865D01*
X12377Y2919D01*
X12403Y2982D01*
X12412Y3050D01*
X12403Y3118D01*
X12377Y3181D01*
X12335Y3235D01*
X12281Y3277D01*
X12218Y3303D01*
X12150Y3312D01*
D02*
G37*
G36*
X21410Y3007D02*
X21382Y3003D01*
X21319Y2977D01*
X21265Y2935D01*
X21223Y2881D01*
X21197Y2818D01*
X21193Y2790D01*
X21410D01*
Y3007D01*
D02*
G37*
G36*
X21490D02*
Y2790D01*
X21707D01*
X21703Y2818D01*
X21677Y2881D01*
X21635Y2935D01*
X21581Y2977D01*
X21518Y3003D01*
X21490Y3007D01*
D02*
G37*
G36*
X13290Y2943D02*
Y2590D01*
X13643D01*
X13635Y2653D01*
X13595Y2749D01*
X13532Y2832D01*
X13449Y2895D01*
X13353Y2935D01*
X13290Y2943D01*
D02*
G37*
G36*
X14210D02*
X14147Y2935D01*
X14051Y2895D01*
X13968Y2832D01*
X13905Y2749D01*
X13865Y2653D01*
X13857Y2590D01*
X14210D01*
Y2943D01*
D02*
G37*
G36*
X14290D02*
Y2590D01*
X14643D01*
X14635Y2653D01*
X14595Y2749D01*
X14532Y2832D01*
X14449Y2895D01*
X14353Y2935D01*
X14290Y2943D01*
D02*
G37*
G36*
X6050Y3994D02*
X5948Y3981D01*
X5853Y3941D01*
X5771Y3879D01*
X5709Y3797D01*
X5669Y3702D01*
X5656Y3600D01*
X5669Y3498D01*
X5709Y3403D01*
X5771Y3321D01*
X5853Y3259D01*
X5948Y3219D01*
X6050Y3206D01*
X6152Y3219D01*
X6247Y3259D01*
X6329Y3321D01*
X6391Y3403D01*
X6431Y3498D01*
X6444Y3600D01*
X6431Y3702D01*
X6391Y3797D01*
X6329Y3879D01*
X6247Y3941D01*
X6152Y3981D01*
X6050Y3994D01*
D02*
G37*
G36*
X7360Y3460D02*
X7143D01*
X7147Y3432D01*
X7173Y3369D01*
X7215Y3315D01*
X7269Y3273D01*
X7332Y3247D01*
X7360Y3243D01*
Y3460D01*
D02*
G37*
G36*
X7657D02*
X7440D01*
Y3243D01*
X7468Y3247D01*
X7531Y3273D01*
X7585Y3315D01*
X7627Y3369D01*
X7653Y3432D01*
X7657Y3460D01*
D02*
G37*
G36*
X18900Y3574D02*
X18814Y3557D01*
X18741Y3509D01*
X18693Y3436D01*
X18676Y3350D01*
X18693Y3264D01*
X18741Y3191D01*
X18814Y3143D01*
X18900Y3126D01*
X18986Y3143D01*
X19059Y3191D01*
X19107Y3264D01*
X19124Y3350D01*
X19107Y3436D01*
X19059Y3509D01*
X18986Y3557D01*
X18900Y3574D01*
D02*
G37*
G36*
X9060Y3410D02*
X8843D01*
X8847Y3382D01*
X8873Y3319D01*
X8915Y3265D01*
X8969Y3223D01*
X9032Y3197D01*
X9060Y3193D01*
Y3410D01*
D02*
G37*
G36*
X9357D02*
X9140D01*
Y3193D01*
X9168Y3197D01*
X9231Y3223D01*
X9285Y3265D01*
X9327Y3319D01*
X9353Y3382D01*
X9357Y3410D01*
D02*
G37*
G36*
X8700Y13394D02*
X8598Y13381D01*
X8503Y13341D01*
X8421Y13279D01*
X8359Y13197D01*
X8319Y13102D01*
X8306Y13000D01*
X8319Y12898D01*
X8359Y12803D01*
X8421Y12721D01*
X8503Y12659D01*
X8598Y12619D01*
X8700Y12606D01*
X8802Y12619D01*
X8897Y12659D01*
X8979Y12721D01*
X9041Y12803D01*
X9081Y12898D01*
X9094Y13000D01*
X9081Y13102D01*
X9041Y13197D01*
X8979Y13279D01*
X8897Y13341D01*
X8802Y13381D01*
X8700Y13394D01*
D02*
G37*
G36*
X17640Y13202D02*
X17572Y13193D01*
X17509Y13167D01*
X17455Y13125D01*
X17413Y13071D01*
X17387Y13008D01*
X17378Y12940D01*
X17387Y12872D01*
X17413Y12809D01*
X17455Y12755D01*
X17509Y12713D01*
X17572Y12687D01*
X17640Y12678D01*
X17708Y12687D01*
X17771Y12713D01*
X17825Y12755D01*
X17867Y12809D01*
X17893Y12872D01*
X17902Y12940D01*
X17893Y13008D01*
X17867Y13071D01*
X17825Y13125D01*
X17771Y13167D01*
X17708Y13193D01*
X17640Y13202D01*
D02*
G37*
G36*
X12600Y13262D02*
X12532Y13253D01*
X12469Y13227D01*
X12415Y13185D01*
X12373Y13131D01*
X12347Y13068D01*
X12338Y13000D01*
X12347Y12932D01*
X12373Y12869D01*
X12415Y12815D01*
X12469Y12773D01*
X12532Y12747D01*
X12600Y12738D01*
X12668Y12747D01*
X12731Y12773D01*
X12785Y12815D01*
X12827Y12869D01*
X12853Y12932D01*
X12862Y13000D01*
X12853Y13068D01*
X12827Y13131D01*
X12785Y13185D01*
X12731Y13227D01*
X12668Y13253D01*
X12600Y13262D01*
D02*
G37*
G36*
X6040Y12657D02*
Y12440D01*
X6257D01*
X6253Y12468D01*
X6227Y12531D01*
X6185Y12585D01*
X6131Y12627D01*
X6068Y12653D01*
X6040Y12657D01*
D02*
G37*
G36*
X6960Y12760D02*
X6743D01*
X6747Y12732D01*
X6773Y12669D01*
X6815Y12615D01*
X6869Y12573D01*
X6932Y12547D01*
X6960Y12543D01*
Y12760D01*
D02*
G37*
G36*
X7257D02*
X7040D01*
Y12543D01*
X7068Y12547D01*
X7131Y12573D01*
X7185Y12615D01*
X7227Y12669D01*
X7253Y12732D01*
X7257Y12760D01*
D02*
G37*
G36*
X14600Y13512D02*
X14532Y13503D01*
X14469Y13477D01*
X14415Y13435D01*
X14373Y13381D01*
X14347Y13318D01*
X14338Y13250D01*
X14347Y13182D01*
X14373Y13119D01*
X14415Y13065D01*
X14469Y13023D01*
X14532Y12997D01*
X14600Y12988D01*
X14668Y12997D01*
X14731Y13023D01*
X14785Y13065D01*
X14827Y13119D01*
X14853Y13182D01*
X14862Y13250D01*
X14853Y13318D01*
X14827Y13381D01*
X14785Y13435D01*
X14731Y13477D01*
X14668Y13503D01*
X14600Y13512D01*
D02*
G37*
G36*
X15300D02*
X15232Y13503D01*
X15169Y13477D01*
X15115Y13435D01*
X15073Y13381D01*
X15047Y13318D01*
X15038Y13250D01*
X15047Y13182D01*
X15073Y13119D01*
X15115Y13065D01*
X15169Y13023D01*
X15232Y12997D01*
X15300Y12988D01*
X15368Y12997D01*
X15431Y13023D01*
X15485Y13065D01*
X15527Y13119D01*
X15553Y13182D01*
X15562Y13250D01*
X15553Y13318D01*
X15527Y13381D01*
X15485Y13435D01*
X15431Y13477D01*
X15368Y13503D01*
X15300Y13512D01*
D02*
G37*
G36*
X16150D02*
X16082Y13503D01*
X16019Y13477D01*
X15965Y13435D01*
X15923Y13381D01*
X15897Y13318D01*
X15888Y13250D01*
X15897Y13182D01*
X15923Y13119D01*
X15965Y13065D01*
X16019Y13023D01*
X16082Y12997D01*
X16150Y12988D01*
X16218Y12997D01*
X16281Y13023D01*
X16335Y13065D01*
X16377Y13119D01*
X16403Y13182D01*
X16412Y13250D01*
X16403Y13318D01*
X16377Y13381D01*
X16335Y13435D01*
X16281Y13477D01*
X16218Y13503D01*
X16150Y13512D01*
D02*
G37*
G36*
X6960Y13057D02*
X6932Y13053D01*
X6869Y13027D01*
X6815Y12985D01*
X6773Y12931D01*
X6747Y12868D01*
X6743Y12840D01*
X6960D01*
Y13057D01*
D02*
G37*
G36*
X7040D02*
Y12840D01*
X7257D01*
X7253Y12868D01*
X7227Y12931D01*
X7185Y12985D01*
X7131Y13027D01*
X7068Y13053D01*
X7040Y13057D01*
D02*
G37*
G36*
X6400Y13744D02*
X6298Y13731D01*
X6203Y13691D01*
X6121Y13629D01*
X6059Y13547D01*
X6019Y13452D01*
X6006Y13350D01*
X6019Y13248D01*
X6059Y13153D01*
X6121Y13071D01*
X6203Y13009D01*
X6298Y12969D01*
X6400Y12956D01*
X6502Y12969D01*
X6597Y13009D01*
X6679Y13071D01*
X6741Y13153D01*
X6781Y13248D01*
X6794Y13350D01*
X6781Y13452D01*
X6741Y13547D01*
X6679Y13629D01*
X6597Y13691D01*
X6502Y13731D01*
X6400Y13744D01*
D02*
G37*
G36*
X5960Y12657D02*
X5932Y12653D01*
X5869Y12627D01*
X5815Y12585D01*
X5773Y12531D01*
X5747Y12468D01*
X5743Y12440D01*
X5960D01*
Y12657D01*
D02*
G37*
G36*
X14510Y12522D02*
X14442Y12513D01*
X14379Y12487D01*
X14325Y12445D01*
X14283Y12391D01*
X14257Y12328D01*
X14248Y12260D01*
X14257Y12192D01*
X14283Y12129D01*
X14325Y12075D01*
X14379Y12033D01*
X14442Y12007D01*
X14510Y11998D01*
X14578Y12007D01*
X14641Y12033D01*
X14695Y12075D01*
X14737Y12129D01*
X14763Y12192D01*
X14772Y12260D01*
X14763Y12328D01*
X14737Y12391D01*
X14695Y12445D01*
X14641Y12487D01*
X14578Y12513D01*
X14510Y12522D01*
D02*
G37*
G36*
X15310D02*
X15242Y12513D01*
X15179Y12487D01*
X15125Y12445D01*
X15083Y12391D01*
X15057Y12328D01*
X15048Y12260D01*
X15057Y12192D01*
X15083Y12129D01*
X15125Y12075D01*
X15179Y12033D01*
X15242Y12007D01*
X15310Y11998D01*
X15378Y12007D01*
X15441Y12033D01*
X15495Y12075D01*
X15537Y12129D01*
X15563Y12192D01*
X15572Y12260D01*
X15563Y12328D01*
X15537Y12391D01*
X15495Y12445D01*
X15441Y12487D01*
X15378Y12513D01*
X15310Y12522D01*
D02*
G37*
G36*
X16110D02*
X16042Y12513D01*
X15979Y12487D01*
X15925Y12445D01*
X15883Y12391D01*
X15857Y12328D01*
X15848Y12260D01*
X15857Y12192D01*
X15883Y12129D01*
X15925Y12075D01*
X15979Y12033D01*
X16042Y12007D01*
X16110Y11998D01*
X16178Y12007D01*
X16241Y12033D01*
X16295Y12075D01*
X16337Y12129D01*
X16363Y12192D01*
X16372Y12260D01*
X16363Y12328D01*
X16337Y12391D01*
X16295Y12445D01*
X16241Y12487D01*
X16178Y12513D01*
X16110Y12522D01*
D02*
G37*
G36*
X10950Y12694D02*
X10848Y12681D01*
X10753Y12641D01*
X10671Y12579D01*
X10609Y12497D01*
X10569Y12402D01*
X10556Y12300D01*
X10569Y12198D01*
X10609Y12103D01*
X10671Y12021D01*
X10753Y11959D01*
X10848Y11919D01*
X10950Y11906D01*
X11052Y11919D01*
X11147Y11959D01*
X11229Y12021D01*
X11291Y12103D01*
X11331Y12198D01*
X11344Y12300D01*
X11331Y12402D01*
X11291Y12497D01*
X11229Y12579D01*
X11147Y12641D01*
X11052Y12681D01*
X10950Y12694D01*
D02*
G37*
G36*
X22850Y12424D02*
X22764Y12407D01*
X22691Y12359D01*
X22643Y12286D01*
X22626Y12200D01*
X22643Y12114D01*
X22691Y12041D01*
X22764Y11993D01*
X22850Y11976D01*
X22936Y11993D01*
X23009Y12041D01*
X23057Y12114D01*
X23074Y12200D01*
X23057Y12286D01*
X23009Y12359D01*
X22936Y12407D01*
X22850Y12424D01*
D02*
G37*
G36*
X16900Y12512D02*
X16832Y12503D01*
X16769Y12477D01*
X16715Y12435D01*
X16673Y12381D01*
X16647Y12318D01*
X16638Y12250D01*
X16647Y12182D01*
X16673Y12119D01*
X16715Y12065D01*
X16769Y12023D01*
X16832Y11997D01*
X16900Y11988D01*
X16968Y11997D01*
X17031Y12023D01*
X17085Y12065D01*
X17127Y12119D01*
X17153Y12182D01*
X17162Y12250D01*
X17153Y12318D01*
X17127Y12381D01*
X17085Y12435D01*
X17031Y12477D01*
X16968Y12503D01*
X16900Y12512D01*
D02*
G37*
G36*
X5960Y12360D02*
X5743D01*
X5747Y12332D01*
X5773Y12269D01*
X5815Y12215D01*
X5869Y12173D01*
X5932Y12147D01*
X5960Y12143D01*
Y12360D01*
D02*
G37*
G36*
X6257D02*
X6040D01*
Y12143D01*
X6068Y12147D01*
X6131Y12173D01*
X6185Y12215D01*
X6227Y12269D01*
X6253Y12332D01*
X6257Y12360D01*
D02*
G37*
G36*
X13660Y12922D02*
X13592Y12913D01*
X13529Y12887D01*
X13475Y12845D01*
X13433Y12791D01*
X13407Y12728D01*
X13398Y12660D01*
X13407Y12592D01*
X13433Y12529D01*
X13475Y12475D01*
X13529Y12433D01*
X13592Y12407D01*
X13660Y12398D01*
X13728Y12407D01*
X13791Y12433D01*
X13845Y12475D01*
X13887Y12529D01*
X13913Y12592D01*
X13922Y12660D01*
X13913Y12728D01*
X13887Y12791D01*
X13845Y12845D01*
X13791Y12887D01*
X13728Y12913D01*
X13660Y12922D01*
D02*
G37*
G36*
X6650Y12524D02*
X6564Y12507D01*
X6491Y12459D01*
X6443Y12386D01*
X6426Y12300D01*
X6443Y12214D01*
X6491Y12141D01*
X6564Y12093D01*
X6650Y12076D01*
X6736Y12093D01*
X6809Y12141D01*
X6857Y12214D01*
X6874Y12300D01*
X6857Y12386D01*
X6809Y12459D01*
X6736Y12507D01*
X6650Y12524D01*
D02*
G37*
G36*
X7110Y12307D02*
X7082Y12303D01*
X7019Y12277D01*
X6965Y12235D01*
X6923Y12181D01*
X6897Y12118D01*
X6893Y12090D01*
X7110D01*
Y12307D01*
D02*
G37*
G36*
X7190D02*
Y12090D01*
X7407D01*
X7403Y12118D01*
X7377Y12181D01*
X7335Y12235D01*
X7281Y12277D01*
X7218Y12303D01*
X7190Y12307D01*
D02*
G37*
G36*
X16900Y13512D02*
X16832Y13503D01*
X16769Y13477D01*
X16715Y13435D01*
X16673Y13381D01*
X16647Y13318D01*
X16638Y13250D01*
X16647Y13182D01*
X16673Y13119D01*
X16715Y13065D01*
X16769Y13023D01*
X16832Y12997D01*
X16900Y12988D01*
X16968Y12997D01*
X17031Y13023D01*
X17085Y13065D01*
X17127Y13119D01*
X17153Y13182D01*
X17162Y13250D01*
X17153Y13318D01*
X17127Y13381D01*
X17085Y13435D01*
X17031Y13477D01*
X16968Y13503D01*
X16900Y13512D01*
D02*
G37*
G36*
X20440Y15357D02*
Y15140D01*
X20657D01*
X20653Y15168D01*
X20627Y15231D01*
X20585Y15285D01*
X20531Y15327D01*
X20468Y15353D01*
X20440Y15357D01*
D02*
G37*
G36*
X7860Y15460D02*
X7643D01*
X7647Y15432D01*
X7673Y15369D01*
X7715Y15315D01*
X7769Y15273D01*
X7832Y15247D01*
X7860Y15243D01*
Y15460D01*
D02*
G37*
G36*
X8157D02*
X7940D01*
Y15243D01*
X7968Y15247D01*
X8031Y15273D01*
X8085Y15315D01*
X8127Y15369D01*
X8153Y15432D01*
X8157Y15460D01*
D02*
G37*
G36*
X20360Y15060D02*
X20143D01*
X20147Y15032D01*
X20173Y14969D01*
X20215Y14915D01*
X20269Y14873D01*
X20332Y14847D01*
X20360Y14843D01*
Y15060D01*
D02*
G37*
G36*
X20657D02*
X20440D01*
Y14843D01*
X20468Y14847D01*
X20531Y14873D01*
X20585Y14915D01*
X20627Y14969D01*
X20653Y15032D01*
X20657Y15060D01*
D02*
G37*
G36*
X20360Y15357D02*
X20332Y15353D01*
X20269Y15327D01*
X20215Y15285D01*
X20173Y15231D01*
X20147Y15168D01*
X20143Y15140D01*
X20360D01*
Y15357D01*
D02*
G37*
G36*
X9207Y16310D02*
X8990D01*
Y16093D01*
X9018Y16097D01*
X9081Y16123D01*
X9135Y16165D01*
X9177Y16219D01*
X9203Y16282D01*
X9207Y16310D01*
D02*
G37*
G36*
X8910Y16607D02*
X8882Y16603D01*
X8819Y16577D01*
X8765Y16535D01*
X8723Y16481D01*
X8697Y16418D01*
X8693Y16390D01*
X8910D01*
Y16607D01*
D02*
G37*
G36*
X8990D02*
Y16390D01*
X9207D01*
X9203Y16418D01*
X9177Y16481D01*
X9135Y16535D01*
X9081Y16577D01*
X9018Y16603D01*
X8990Y16607D01*
D02*
G37*
G36*
X7860Y15757D02*
X7832Y15753D01*
X7769Y15727D01*
X7715Y15685D01*
X7673Y15631D01*
X7647Y15568D01*
X7643Y15540D01*
X7860D01*
Y15757D01*
D02*
G37*
G36*
X7940D02*
Y15540D01*
X8157D01*
X8153Y15568D01*
X8127Y15631D01*
X8085Y15685D01*
X8031Y15727D01*
X7968Y15753D01*
X7940Y15757D01*
D02*
G37*
G36*
X8910Y16310D02*
X8693D01*
X8697Y16282D01*
X8723Y16219D01*
X8765Y16165D01*
X8819Y16123D01*
X8882Y16097D01*
X8910Y16093D01*
Y16310D01*
D02*
G37*
G36*
X22200Y15324D02*
X22114Y15307D01*
X22041Y15259D01*
X21993Y15186D01*
X21976Y15100D01*
X21993Y15014D01*
X22041Y14941D01*
X22114Y14893D01*
X22200Y14876D01*
X22286Y14893D01*
X22353Y14938D01*
X22396Y14912D01*
X22388Y14850D01*
X22397Y14782D01*
X22423Y14719D01*
X22465Y14664D01*
X22519Y14623D01*
X22582Y14596D01*
X22650Y14588D01*
X22718Y14596D01*
X22781Y14623D01*
X22835Y14664D01*
X22877Y14719D01*
X22903Y14782D01*
X22912Y14850D01*
X22903Y14918D01*
X22877Y14981D01*
X22835Y15035D01*
X22781Y15077D01*
X22718Y15103D01*
X22650Y15112D01*
X22582Y15103D01*
X22519Y15077D01*
X22465Y15035D01*
X22460Y15029D01*
X22414Y15050D01*
X22424Y15100D01*
X22407Y15186D01*
X22359Y15259D01*
X22286Y15307D01*
X22200Y15324D01*
D02*
G37*
G36*
X11850Y14112D02*
X11782Y14103D01*
X11719Y14077D01*
X11665Y14035D01*
X11623Y13981D01*
X11597Y13918D01*
X11588Y13850D01*
X11597Y13782D01*
X11623Y13719D01*
X11665Y13665D01*
X11719Y13623D01*
X11782Y13597D01*
X11850Y13588D01*
X11918Y13597D01*
X11981Y13623D01*
X12035Y13665D01*
X12077Y13719D01*
X12103Y13782D01*
X12112Y13850D01*
X12103Y13918D01*
X12077Y13981D01*
X12035Y14035D01*
X11981Y14077D01*
X11918Y14103D01*
X11850Y14112D01*
D02*
G37*
G36*
X18100Y14162D02*
X18032Y14153D01*
X17969Y14127D01*
X17915Y14085D01*
X17873Y14031D01*
X17847Y13968D01*
X17838Y13900D01*
X17847Y13832D01*
X17873Y13769D01*
X17915Y13715D01*
X17969Y13673D01*
X18032Y13647D01*
X18100Y13638D01*
X18168Y13647D01*
X18231Y13673D01*
X18285Y13715D01*
X18327Y13769D01*
X18353Y13832D01*
X18362Y13900D01*
X18353Y13968D01*
X18327Y14031D01*
X18285Y14085D01*
X18231Y14127D01*
X18168Y14153D01*
X18100Y14162D01*
D02*
G37*
G36*
X14600Y14262D02*
X14532Y14253D01*
X14469Y14227D01*
X14415Y14185D01*
X14373Y14131D01*
X14347Y14068D01*
X14338Y14000D01*
X14347Y13932D01*
X14373Y13869D01*
X14415Y13815D01*
X14469Y13773D01*
X14532Y13747D01*
X14600Y13738D01*
X14668Y13747D01*
X14731Y13773D01*
X14785Y13815D01*
X14827Y13869D01*
X14853Y13932D01*
X14862Y14000D01*
X14853Y14068D01*
X14827Y14131D01*
X14785Y14185D01*
X14731Y14227D01*
X14668Y14253D01*
X14600Y14262D01*
D02*
G37*
G36*
X7150Y13674D02*
X7064Y13657D01*
X6991Y13609D01*
X6943Y13536D01*
X6926Y13450D01*
X6943Y13364D01*
X6991Y13291D01*
X7064Y13243D01*
X7150Y13226D01*
X7236Y13243D01*
X7309Y13291D01*
X7357Y13364D01*
X7374Y13450D01*
X7357Y13536D01*
X7309Y13609D01*
X7236Y13657D01*
X7150Y13674D01*
D02*
G37*
G36*
X23350Y14398D02*
X23282Y14389D01*
X23219Y14363D01*
X23165Y14321D01*
X23123Y14267D01*
X23097Y14203D01*
X23088Y14136D01*
X23097Y14068D01*
X23123Y14004D01*
X23165Y13950D01*
X23219Y13908D01*
X23282Y13882D01*
X23350Y13873D01*
X23411Y13881D01*
X23447Y13846D01*
X23438Y13778D01*
X23447Y13711D01*
X23473Y13647D01*
X23515Y13593D01*
X23569Y13551D01*
X23632Y13525D01*
X23700Y13516D01*
X23768Y13525D01*
X23831Y13551D01*
X23885Y13593D01*
X23927Y13647D01*
X23953Y13711D01*
X23962Y13778D01*
X23953Y13846D01*
X23927Y13910D01*
X23885Y13964D01*
X23831Y14006D01*
X23768Y14032D01*
X23700Y14041D01*
X23639Y14033D01*
X23603Y14068D01*
X23612Y14136D01*
X23603Y14203D01*
X23577Y14267D01*
X23535Y14321D01*
X23481Y14363D01*
X23418Y14389D01*
X23350Y14398D01*
D02*
G37*
G36*
X10550Y14062D02*
X10482Y14053D01*
X10419Y14027D01*
X10365Y13985D01*
X10323Y13931D01*
X10297Y13868D01*
X10288Y13800D01*
X10297Y13732D01*
X10323Y13669D01*
X10365Y13615D01*
X10419Y13573D01*
X10482Y13547D01*
X10550Y13538D01*
X10618Y13547D01*
X10681Y13573D01*
X10735Y13615D01*
X10777Y13669D01*
X10803Y13732D01*
X10812Y13800D01*
X10803Y13868D01*
X10777Y13931D01*
X10735Y13985D01*
X10681Y14027D01*
X10618Y14053D01*
X10550Y14062D01*
D02*
G37*
G36*
X18950Y14712D02*
X18882Y14703D01*
X18819Y14677D01*
X18765Y14635D01*
X18723Y14581D01*
X18697Y14518D01*
X18688Y14450D01*
X18697Y14382D01*
X18723Y14319D01*
X18765Y14265D01*
X18819Y14223D01*
X18882Y14197D01*
X18950Y14188D01*
X19018Y14197D01*
X19048Y14157D01*
X19047Y14153D01*
X19038Y14086D01*
X19047Y14018D01*
X19073Y13954D01*
X19115Y13900D01*
X19169Y13858D01*
X19232Y13832D01*
X19300Y13823D01*
X19368Y13832D01*
X19431Y13858D01*
X19485Y13900D01*
X19527Y13954D01*
X19553Y14018D01*
X19562Y14086D01*
X19553Y14153D01*
X19540Y14184D01*
X19579Y14216D01*
X19614Y14193D01*
X19700Y14176D01*
X19786Y14193D01*
X19859Y14241D01*
X19907Y14314D01*
X19924Y14400D01*
X19907Y14486D01*
X19859Y14559D01*
X19786Y14607D01*
X19700Y14624D01*
X19614Y14607D01*
X19541Y14559D01*
X19493Y14486D01*
X19476Y14400D01*
X19490Y14326D01*
X19448Y14300D01*
X19431Y14313D01*
X19368Y14339D01*
X19300Y14348D01*
X19232Y14339D01*
X19202Y14379D01*
X19203Y14382D01*
X19212Y14450D01*
X19203Y14518D01*
X19177Y14581D01*
X19135Y14635D01*
X19081Y14677D01*
X19018Y14703D01*
X18950Y14712D01*
D02*
G37*
G36*
X6800Y14724D02*
X6714Y14707D01*
X6641Y14659D01*
X6593Y14586D01*
X6576Y14500D01*
X6593Y14414D01*
X6641Y14341D01*
X6714Y14293D01*
X6800Y14276D01*
X6886Y14293D01*
X6959Y14341D01*
X7007Y14414D01*
X7024Y14500D01*
X7007Y14586D01*
X6959Y14659D01*
X6886Y14707D01*
X6800Y14724D01*
D02*
G37*
G36*
X18000Y15244D02*
X17898Y15231D01*
X17803Y15191D01*
X17721Y15129D01*
X17659Y15047D01*
X17619Y14952D01*
X17606Y14850D01*
X17619Y14748D01*
X17659Y14653D01*
X17721Y14571D01*
X17803Y14509D01*
X17898Y14469D01*
X18000Y14456D01*
X18102Y14469D01*
X18197Y14509D01*
X18279Y14571D01*
X18341Y14653D01*
X18381Y14748D01*
X18394Y14850D01*
X18381Y14952D01*
X18341Y15047D01*
X18279Y15129D01*
X18197Y15191D01*
X18102Y15231D01*
X18000Y15244D01*
D02*
G37*
G36*
X8450Y14224D02*
X8364Y14207D01*
X8291Y14159D01*
X8243Y14086D01*
X8226Y14000D01*
X8243Y13914D01*
X8291Y13841D01*
X8364Y13793D01*
X8450Y13776D01*
X8536Y13793D01*
X8609Y13841D01*
X8657Y13914D01*
X8674Y14000D01*
X8657Y14086D01*
X8609Y14159D01*
X8536Y14207D01*
X8450Y14224D01*
D02*
G37*
G36*
X9050D02*
X8964Y14207D01*
X8891Y14159D01*
X8843Y14086D01*
X8826Y14000D01*
X8843Y13914D01*
X8891Y13841D01*
X8964Y13793D01*
X9050Y13776D01*
X9136Y13793D01*
X9209Y13841D01*
X9257Y13914D01*
X9274Y14000D01*
X9257Y14086D01*
X9209Y14159D01*
X9136Y14207D01*
X9050Y14224D01*
D02*
G37*
G36*
X9653Y14256D02*
X9567Y14239D01*
X9495Y14191D01*
X9446Y14118D01*
X9429Y14032D01*
X9446Y13946D01*
X9495Y13874D01*
X9567Y13825D01*
X9653Y13808D01*
X9739Y13825D01*
X9812Y13874D01*
X9861Y13946D01*
X9878Y14032D01*
X9861Y14118D01*
X9812Y14191D01*
X9739Y14239D01*
X9653Y14256D01*
D02*
G37*
G36*
X8390Y12057D02*
Y11840D01*
X8607D01*
X8603Y11868D01*
X8577Y11931D01*
X8535Y11985D01*
X8481Y12027D01*
X8418Y12053D01*
X8390Y12057D01*
D02*
G37*
G36*
X24500Y9224D02*
X24414Y9207D01*
X24341Y9159D01*
X24293Y9086D01*
X24276Y9000D01*
X24293Y8914D01*
X24341Y8841D01*
X24414Y8793D01*
X24500Y8776D01*
X24586Y8793D01*
X24659Y8841D01*
X24707Y8914D01*
X24724Y9000D01*
X24707Y9086D01*
X24659Y9159D01*
X24586Y9207D01*
X24500Y9224D01*
D02*
G37*
G36*
X11150Y9462D02*
X11082Y9453D01*
X11019Y9427D01*
X10965Y9385D01*
X10923Y9331D01*
X10897Y9268D01*
X10888Y9200D01*
X10897Y9132D01*
X10923Y9069D01*
X10965Y9015D01*
X11019Y8973D01*
X11082Y8947D01*
X11150Y8938D01*
X11218Y8947D01*
X11281Y8973D01*
X11335Y9015D01*
X11377Y9069D01*
X11403Y9132D01*
X11412Y9200D01*
X11403Y9268D01*
X11377Y9331D01*
X11335Y9385D01*
X11281Y9427D01*
X11218Y9453D01*
X11150Y9462D01*
D02*
G37*
G36*
X9510Y9160D02*
X9293D01*
X9297Y9132D01*
X9323Y9069D01*
X9365Y9015D01*
X9419Y8973D01*
X9482Y8947D01*
X9510Y8943D01*
Y9160D01*
D02*
G37*
G36*
X13350Y9294D02*
X13248Y9281D01*
X13153Y9241D01*
X13071Y9179D01*
X13009Y9097D01*
X12969Y9002D01*
X12956Y8900D01*
X12969Y8798D01*
X13009Y8703D01*
X13071Y8621D01*
X13153Y8559D01*
X13248Y8519D01*
X13350Y8506D01*
X13452Y8519D01*
X13547Y8559D01*
X13629Y8621D01*
X13691Y8703D01*
X13731Y8798D01*
X13744Y8900D01*
X13731Y9002D01*
X13691Y9097D01*
X13629Y9179D01*
X13547Y9241D01*
X13452Y9281D01*
X13350Y9294D01*
D02*
G37*
G36*
X16150Y8974D02*
X16064Y8957D01*
X15992Y8909D01*
X15943Y8836D01*
X15926Y8750D01*
X15943Y8664D01*
X15992Y8591D01*
X16064Y8543D01*
X16150Y8526D01*
X16236Y8543D01*
X16309Y8591D01*
X16357Y8664D01*
X16375Y8750D01*
X16357Y8836D01*
X16309Y8909D01*
X16236Y8957D01*
X16150Y8974D01*
D02*
G37*
G36*
X17450Y9124D02*
X17364Y9107D01*
X17291Y9059D01*
X17243Y8986D01*
X17226Y8900D01*
X17243Y8814D01*
X17291Y8741D01*
X17364Y8693D01*
X17450Y8676D01*
X17536Y8693D01*
X17609Y8741D01*
X17657Y8814D01*
X17674Y8900D01*
X17657Y8986D01*
X17609Y9059D01*
X17536Y9107D01*
X17450Y9124D01*
D02*
G37*
G36*
X28107Y9410D02*
X27890D01*
Y9193D01*
X27918Y9197D01*
X27981Y9223D01*
X28035Y9265D01*
X28077Y9319D01*
X28103Y9382D01*
X28107Y9410D01*
D02*
G37*
G36*
X8900Y9844D02*
X8798Y9831D01*
X8703Y9791D01*
X8621Y9729D01*
X8559Y9647D01*
X8519Y9552D01*
X8506Y9450D01*
X8519Y9348D01*
X8559Y9253D01*
X8621Y9171D01*
X8703Y9109D01*
X8798Y9069D01*
X8900Y9056D01*
X9002Y9069D01*
X9097Y9109D01*
X9179Y9171D01*
X9241Y9253D01*
X9246Y9265D01*
X9295Y9252D01*
X9293Y9240D01*
X9510D01*
Y9457D01*
X9482Y9453D01*
X9419Y9427D01*
X9365Y9385D01*
X9328Y9338D01*
X9282Y9357D01*
X9294Y9450D01*
X9281Y9552D01*
X9241Y9647D01*
X9179Y9729D01*
X9097Y9791D01*
X9002Y9831D01*
X8900Y9844D01*
D02*
G37*
G36*
X9590Y9457D02*
Y9240D01*
X9807D01*
X9803Y9268D01*
X9777Y9331D01*
X9735Y9385D01*
X9681Y9427D01*
X9618Y9453D01*
X9590Y9457D01*
D02*
G37*
G36*
X9807Y9160D02*
X9590D01*
Y8943D01*
X9618Y8947D01*
X9681Y8973D01*
X9735Y9015D01*
X9777Y9069D01*
X9803Y9132D01*
X9807Y9160D01*
D02*
G37*
G36*
X5000Y9894D02*
X4898Y9881D01*
X4803Y9841D01*
X4721Y9779D01*
X4659Y9697D01*
X4619Y9602D01*
X4606Y9500D01*
X4619Y9398D01*
X4659Y9303D01*
X4721Y9221D01*
X4803Y9159D01*
X4898Y9119D01*
X5000Y9106D01*
X5102Y9119D01*
X5197Y9159D01*
X5279Y9221D01*
X5341Y9303D01*
X5381Y9398D01*
X5394Y9500D01*
X5381Y9602D01*
X5341Y9697D01*
X5279Y9779D01*
X5197Y9841D01*
X5102Y9881D01*
X5000Y9894D01*
D02*
G37*
G36*
X27810Y9410D02*
X27593D01*
X27597Y9382D01*
X27623Y9319D01*
X27665Y9265D01*
X27719Y9223D01*
X27782Y9197D01*
X27810Y9193D01*
Y9410D01*
D02*
G37*
G36*
X3890Y8707D02*
Y8490D01*
X4107D01*
X4103Y8518D01*
X4077Y8581D01*
X4035Y8635D01*
X3981Y8677D01*
X3918Y8703D01*
X3890Y8707D01*
D02*
G37*
G36*
X28800Y8424D02*
X28714Y8407D01*
X28641Y8359D01*
X28593Y8286D01*
X28576Y8200D01*
X28593Y8114D01*
X28641Y8041D01*
X28714Y7993D01*
X28800Y7976D01*
X28886Y7993D01*
X28959Y8041D01*
X29007Y8114D01*
X29024Y8200D01*
X29007Y8286D01*
X28959Y8359D01*
X28886Y8407D01*
X28800Y8424D01*
D02*
G37*
G36*
X4660Y8257D02*
X4632Y8253D01*
X4569Y8227D01*
X4515Y8185D01*
X4473Y8131D01*
X4447Y8068D01*
X4443Y8040D01*
X4660D01*
Y8257D01*
D02*
G37*
G36*
X4740D02*
Y8040D01*
X4957D01*
X4953Y8068D01*
X4927Y8131D01*
X4885Y8185D01*
X4831Y8227D01*
X4768Y8253D01*
X4740Y8257D01*
D02*
G37*
G36*
X4660Y7960D02*
X4443D01*
X4447Y7932D01*
X4473Y7869D01*
X4515Y7815D01*
X4569Y7773D01*
X4632Y7747D01*
X4660Y7743D01*
Y7960D01*
D02*
G37*
G36*
X4957D02*
X4740D01*
Y7743D01*
X4768Y7747D01*
X4831Y7773D01*
X4885Y7815D01*
X4927Y7869D01*
X4953Y7932D01*
X4957Y7960D01*
D02*
G37*
G36*
X2400Y8374D02*
X2314Y8357D01*
X2241Y8309D01*
X2193Y8236D01*
X2176Y8150D01*
X2193Y8064D01*
X2241Y7991D01*
X2314Y7943D01*
X2400Y7926D01*
X2486Y7943D01*
X2559Y7991D01*
X2607Y8064D01*
X2624Y8150D01*
X2607Y8236D01*
X2559Y8309D01*
X2486Y8357D01*
X2400Y8374D01*
D02*
G37*
G36*
X7740Y8557D02*
Y8340D01*
X7957D01*
X7953Y8368D01*
X7927Y8431D01*
X7885Y8485D01*
X7831Y8527D01*
X7768Y8553D01*
X7740Y8557D01*
D02*
G37*
G36*
X26200Y8824D02*
X26114Y8807D01*
X26041Y8759D01*
X25993Y8686D01*
X25976Y8600D01*
X25993Y8514D01*
X26041Y8441D01*
X26114Y8393D01*
X26200Y8376D01*
X26286Y8393D01*
X26359Y8441D01*
X26407Y8514D01*
X26424Y8600D01*
X26407Y8686D01*
X26359Y8759D01*
X26286Y8807D01*
X26200Y8824D01*
D02*
G37*
G36*
X3810Y8707D02*
X3782Y8703D01*
X3719Y8677D01*
X3665Y8635D01*
X3623Y8581D01*
X3597Y8518D01*
X3593Y8490D01*
X3810D01*
Y8707D01*
D02*
G37*
G36*
Y8410D02*
X3593D01*
X3597Y8382D01*
X3623Y8319D01*
X3665Y8265D01*
X3719Y8223D01*
X3782Y8197D01*
X3810Y8193D01*
Y8410D01*
D02*
G37*
G36*
X4107D02*
X3890D01*
Y8193D01*
X3918Y8197D01*
X3981Y8223D01*
X4035Y8265D01*
X4077Y8319D01*
X4103Y8382D01*
X4107Y8410D01*
D02*
G37*
G36*
X7660Y8557D02*
X7632Y8553D01*
X7569Y8527D01*
X7515Y8485D01*
X7473Y8431D01*
X7447Y8368D01*
X7443Y8340D01*
X7660D01*
Y8557D01*
D02*
G37*
G36*
X14693Y9724D02*
X14607Y9707D01*
X14535Y9659D01*
X14486Y9586D01*
X14469Y9500D01*
X14486Y9414D01*
X14535Y9341D01*
X14607Y9293D01*
X14693Y9276D01*
X14779Y9293D01*
X14852Y9341D01*
X14900Y9414D01*
X14917Y9500D01*
X14900Y9586D01*
X14852Y9659D01*
X14779Y9707D01*
X14693Y9724D01*
D02*
G37*
G36*
X4990Y11407D02*
Y11190D01*
X5207D01*
X5203Y11218D01*
X5177Y11281D01*
X5135Y11335D01*
X5081Y11377D01*
X5018Y11403D01*
X4990Y11407D01*
D02*
G37*
G36*
X7100Y11724D02*
X7014Y11707D01*
X6941Y11659D01*
X6893Y11586D01*
X6876Y11500D01*
X6893Y11414D01*
X6941Y11341D01*
X7014Y11293D01*
X7100Y11276D01*
X7186Y11293D01*
X7259Y11341D01*
X7307Y11414D01*
X7324Y11500D01*
X7307Y11586D01*
X7259Y11659D01*
X7186Y11707D01*
X7100Y11724D01*
D02*
G37*
G36*
X8310Y11760D02*
X8093D01*
X8097Y11732D01*
X8123Y11669D01*
X8165Y11615D01*
X8219Y11573D01*
X8282Y11547D01*
X8310Y11543D01*
Y11760D01*
D02*
G37*
G36*
X5207Y11110D02*
X4990D01*
Y10893D01*
X5018Y10897D01*
X5081Y10923D01*
X5135Y10965D01*
X5177Y11019D01*
X5203Y11082D01*
X5207Y11110D01*
D02*
G37*
G36*
X16050Y11612D02*
X15982Y11603D01*
X15919Y11577D01*
X15865Y11535D01*
X15823Y11481D01*
X15797Y11418D01*
X15788Y11350D01*
X15797Y11282D01*
X15823Y11219D01*
X15865Y11165D01*
X15919Y11123D01*
X15982Y11097D01*
X16050Y11088D01*
X16118Y11097D01*
X16181Y11123D01*
X16235Y11165D01*
X16277Y11219D01*
X16303Y11282D01*
X16312Y11350D01*
X16303Y11418D01*
X16277Y11481D01*
X16235Y11535D01*
X16181Y11577D01*
X16118Y11603D01*
X16050Y11612D01*
D02*
G37*
G36*
X4910Y11407D02*
X4882Y11403D01*
X4819Y11377D01*
X4765Y11335D01*
X4723Y11281D01*
X4697Y11218D01*
X4693Y11190D01*
X4910D01*
Y11407D01*
D02*
G37*
G36*
X7110Y12010D02*
X6893D01*
X6897Y11982D01*
X6923Y11919D01*
X6965Y11865D01*
X7019Y11823D01*
X7082Y11797D01*
X7110Y11793D01*
Y12010D01*
D02*
G37*
G36*
X7407D02*
X7190D01*
Y11793D01*
X7218Y11797D01*
X7281Y11823D01*
X7335Y11865D01*
X7377Y11919D01*
X7403Y11982D01*
X7407Y12010D01*
D02*
G37*
G36*
X8310Y12057D02*
X8282Y12053D01*
X8219Y12027D01*
X8165Y11985D01*
X8123Y11931D01*
X8097Y11868D01*
X8093Y11840D01*
X8310D01*
Y12057D01*
D02*
G37*
G36*
X8607Y11760D02*
X8390D01*
Y11543D01*
X8418Y11547D01*
X8481Y11573D01*
X8535Y11615D01*
X8577Y11669D01*
X8603Y11732D01*
X8607Y11760D01*
D02*
G37*
G36*
X4300Y12224D02*
X4214Y12207D01*
X4141Y12159D01*
X4093Y12086D01*
X4076Y12000D01*
X4093Y11914D01*
X4141Y11841D01*
X4214Y11793D01*
X4300Y11776D01*
X4386Y11793D01*
X4459Y11841D01*
X4507Y11914D01*
X4524Y12000D01*
X4507Y12086D01*
X4459Y12159D01*
X4386Y12207D01*
X4300Y12224D01*
D02*
G37*
G36*
X12050Y12312D02*
X11982Y12303D01*
X11919Y12277D01*
X11865Y12235D01*
X11823Y12181D01*
X11797Y12118D01*
X11788Y12050D01*
X11797Y11982D01*
X11823Y11919D01*
X11865Y11865D01*
X11919Y11823D01*
X11982Y11797D01*
X12050Y11788D01*
X12118Y11797D01*
X12181Y11823D01*
X12235Y11865D01*
X12277Y11919D01*
X12303Y11982D01*
X12312Y12050D01*
X12303Y12118D01*
X12277Y12181D01*
X12235Y12235D01*
X12181Y12277D01*
X12118Y12303D01*
X12050Y12312D01*
D02*
G37*
G36*
X4910Y11110D02*
X4693D01*
X4697Y11082D01*
X4723Y11019D01*
X4765Y10965D01*
X4819Y10923D01*
X4882Y10897D01*
X4910Y10893D01*
Y11110D01*
D02*
G37*
G36*
X27890Y9707D02*
Y9490D01*
X28107D01*
X28103Y9518D01*
X28077Y9581D01*
X28035Y9635D01*
X27981Y9677D01*
X27918Y9703D01*
X27890Y9707D01*
D02*
G37*
G36*
X12000Y11419D02*
X11815Y11401D01*
X11636Y11347D01*
X11472Y11259D01*
X11328Y11141D01*
X11210Y10997D01*
X11122Y10832D01*
X11068Y10654D01*
X11050Y10468D01*
X11068Y10283D01*
X11122Y10105D01*
X11210Y9940D01*
X11328Y9796D01*
X11472Y9678D01*
X11636Y9590D01*
X11815Y9536D01*
X12000Y9518D01*
X12185Y9536D01*
X12364Y9590D01*
X12528Y9678D01*
X12672Y9796D01*
X12790Y9940D01*
X12878Y10105D01*
X12932Y10283D01*
X12950Y10468D01*
X12932Y10654D01*
X12878Y10832D01*
X12790Y10997D01*
X12672Y11141D01*
X12528Y11259D01*
X12364Y11347D01*
X12185Y11401D01*
X12000Y11419D01*
D02*
G37*
G36*
X7400Y10344D02*
X7298Y10331D01*
X7203Y10291D01*
X7121Y10229D01*
X7059Y10147D01*
X7019Y10052D01*
X7006Y9950D01*
X7019Y9848D01*
X7059Y9753D01*
X7121Y9671D01*
X7203Y9609D01*
X7298Y9569D01*
X7400Y9556D01*
X7502Y9569D01*
X7597Y9609D01*
X7679Y9671D01*
X7741Y9753D01*
X7781Y9848D01*
X7794Y9950D01*
X7781Y10052D01*
X7741Y10147D01*
X7679Y10229D01*
X7597Y10291D01*
X7502Y10331D01*
X7400Y10344D01*
D02*
G37*
G36*
X2700Y10144D02*
X2598Y10131D01*
X2503Y10091D01*
X2421Y10029D01*
X2359Y9947D01*
X2319Y9852D01*
X2306Y9750D01*
X2319Y9648D01*
X2359Y9553D01*
X2421Y9471D01*
X2503Y9409D01*
X2598Y9369D01*
X2700Y9356D01*
X2802Y9369D01*
X2897Y9409D01*
X2979Y9471D01*
X3041Y9553D01*
X3081Y9648D01*
X3094Y9750D01*
X3081Y9852D01*
X3041Y9947D01*
X2979Y10029D01*
X2897Y10091D01*
X2802Y10131D01*
X2700Y10144D01*
D02*
G37*
G36*
X6250Y10194D02*
X6148Y10181D01*
X6053Y10141D01*
X5971Y10079D01*
X5909Y9997D01*
X5869Y9902D01*
X5856Y9800D01*
X5869Y9698D01*
X5909Y9603D01*
X5971Y9521D01*
X6053Y9459D01*
X6148Y9419D01*
X6250Y9406D01*
X6352Y9419D01*
X6447Y9459D01*
X6529Y9521D01*
X6591Y9603D01*
X6631Y9698D01*
X6644Y9800D01*
X6631Y9902D01*
X6591Y9997D01*
X6529Y10079D01*
X6447Y10141D01*
X6352Y10181D01*
X6250Y10194D01*
D02*
G37*
G36*
X27810Y9707D02*
X27782Y9703D01*
X27719Y9677D01*
X27665Y9635D01*
X27623Y9581D01*
X27597Y9518D01*
X27593Y9490D01*
X27810D01*
Y9707D01*
D02*
G37*
G36*
X15300Y10912D02*
X15232Y10903D01*
X15169Y10877D01*
X15115Y10835D01*
X15073Y10781D01*
X15047Y10718D01*
X15038Y10650D01*
X15047Y10582D01*
X15073Y10519D01*
X15115Y10465D01*
X15169Y10423D01*
X15232Y10397D01*
X15300Y10388D01*
X15368Y10397D01*
X15431Y10423D01*
X15485Y10465D01*
X15527Y10519D01*
X15553Y10582D01*
X15562Y10650D01*
X15553Y10718D01*
X15527Y10781D01*
X15485Y10835D01*
X15431Y10877D01*
X15368Y10903D01*
X15300Y10912D01*
D02*
G37*
G36*
X10400Y11394D02*
X10298Y11381D01*
X10203Y11341D01*
X10121Y11279D01*
X10059Y11197D01*
X10019Y11102D01*
X10006Y11000D01*
X10019Y10898D01*
X10059Y10803D01*
X10121Y10721D01*
X10203Y10659D01*
X10298Y10619D01*
X10400Y10606D01*
X10502Y10619D01*
X10597Y10659D01*
X10679Y10721D01*
X10741Y10803D01*
X10781Y10898D01*
X10794Y11000D01*
X10781Y11102D01*
X10741Y11197D01*
X10679Y11279D01*
X10597Y11341D01*
X10502Y11381D01*
X10400Y11394D01*
D02*
G37*
G36*
X13500Y11162D02*
X13432Y11153D01*
X13369Y11127D01*
X13315Y11085D01*
X13273Y11031D01*
X13247Y10968D01*
X13238Y10900D01*
X13247Y10832D01*
X13273Y10769D01*
X13315Y10715D01*
X13369Y10673D01*
X13432Y10647D01*
X13500Y10638D01*
X13568Y10647D01*
X13631Y10673D01*
X13685Y10715D01*
X13727Y10769D01*
X13753Y10832D01*
X13762Y10900D01*
X13753Y10968D01*
X13727Y11031D01*
X13685Y11085D01*
X13631Y11127D01*
X13568Y11153D01*
X13500Y11162D01*
D02*
G37*
G36*
X3850Y10444D02*
X3748Y10431D01*
X3653Y10391D01*
X3571Y10329D01*
X3509Y10247D01*
X3469Y10152D01*
X3456Y10050D01*
X3469Y9948D01*
X3509Y9853D01*
X3571Y9771D01*
X3653Y9709D01*
X3748Y9669D01*
X3850Y9656D01*
X3952Y9669D01*
X4047Y9709D01*
X4129Y9771D01*
X4191Y9853D01*
X4231Y9948D01*
X4244Y10050D01*
X4231Y10152D01*
X4191Y10247D01*
X4129Y10329D01*
X4047Y10391D01*
X3952Y10431D01*
X3850Y10444D01*
D02*
G37*
G36*
X14450Y10262D02*
X14382Y10253D01*
X14319Y10227D01*
X14265Y10185D01*
X14223Y10131D01*
X14197Y10068D01*
X14188Y10000D01*
X14197Y9932D01*
X14223Y9869D01*
X14265Y9815D01*
X14319Y9773D01*
X14382Y9747D01*
X14450Y9738D01*
X14518Y9747D01*
X14581Y9773D01*
X14635Y9815D01*
X14677Y9869D01*
X14703Y9932D01*
X14712Y10000D01*
X14703Y10068D01*
X14677Y10131D01*
X14635Y10185D01*
X14581Y10227D01*
X14518Y10253D01*
X14450Y10262D01*
D02*
G37*
G36*
X9300Y11044D02*
X9198Y11031D01*
X9103Y10991D01*
X9021Y10929D01*
X8959Y10847D01*
X8919Y10752D01*
X8906Y10650D01*
X8919Y10548D01*
X8959Y10453D01*
X9021Y10371D01*
X9103Y10309D01*
X9198Y10269D01*
X9300Y10256D01*
X9402Y10269D01*
X9497Y10309D01*
X9579Y10371D01*
X9641Y10453D01*
X9681Y10548D01*
X9694Y10650D01*
X9681Y10752D01*
X9641Y10847D01*
X9579Y10929D01*
X9497Y10991D01*
X9402Y11031D01*
X9300Y11044D01*
D02*
G37*
%LPD*%
D35*
X12000Y10468D02*
D03*
Y6532D02*
D03*
D36*
X13250Y2550D02*
D03*
X14250D02*
D03*
D38*
X12000Y10468D02*
D03*
Y6532D02*
D03*
D40*
X11400Y1950D02*
D03*
X14750Y7657D02*
D03*
X7700Y8300D02*
D03*
X9550Y7600D02*
D03*
Y9200D02*
D03*
X7100Y7700D02*
D03*
X3850Y8450D02*
D03*
X4700Y8000D02*
D03*
X2400Y7550D02*
D03*
X4950Y11150D02*
D03*
X6000Y12400D02*
D03*
X7150Y12050D02*
D03*
X8350Y11800D02*
D03*
X7000Y12800D02*
D03*
X7900Y15500D02*
D03*
X8950Y16350D02*
D03*
X8850Y5700D02*
D03*
X7050Y4200D02*
D03*
X7400Y3500D02*
D03*
X9100Y3450D02*
D03*
X15000Y5550D02*
D03*
X10850Y4450D02*
D03*
X13150Y5050D02*
D03*
X16250Y3850D02*
D03*
X19800Y1200D02*
D03*
X21450Y2750D02*
D03*
X27850Y9450D02*
D03*
X20400Y15100D02*
D03*
M02*
