%FSLAX24Y24*%
%MOIN*%
G70*
G01*
G75*
G04 Layer_Color=8388736*
%ADD10R,0.0354X0.0276*%
%ADD11R,0.0315X0.0354*%
%ADD12R,0.0354X0.0315*%
%ADD13R,0.0236X0.0197*%
%ADD14R,0.0236X0.0591*%
%ADD15R,0.0197X0.0236*%
%ADD16R,0.0335X0.0157*%
%ADD17R,0.0276X0.0354*%
%ADD18R,0.0157X0.0335*%
%ADD19R,0.0512X0.0217*%
%ADD20R,0.0157X0.0157*%
%ADD21R,0.0118X0.0209*%
%ADD22R,0.0118X0.0193*%
%ADD23O,0.0118X0.0650*%
%ADD24R,0.0394X0.0217*%
G04:AMPARAMS|DCode=25|XSize=59.8mil|YSize=30mil|CornerRadius=0mil|HoleSize=0mil|Usage=FLASHONLY|Rotation=225.000|XOffset=0mil|YOffset=0mil|HoleType=Round|Shape=Rectangle|*
%AMROTATEDRECTD25*
4,1,4,0.0106,0.0318,0.0318,0.0106,-0.0106,-0.0318,-0.0318,-0.0106,0.0106,0.0318,0.0*
%
%ADD25ROTATEDRECTD25*%

G04:AMPARAMS|DCode=26|XSize=59.8mil|YSize=30mil|CornerRadius=0mil|HoleSize=0mil|Usage=FLASHONLY|Rotation=135.000|XOffset=0mil|YOffset=0mil|HoleType=Round|Shape=Rectangle|*
%AMROTATEDRECTD26*
4,1,4,0.0318,-0.0106,0.0106,-0.0318,-0.0318,0.0106,-0.0106,0.0318,0.0318,-0.0106,0.0*
%
%ADD26ROTATEDRECTD26*%

G04:AMPARAMS|DCode=27|XSize=60mil|YSize=30mil|CornerRadius=0mil|HoleSize=0mil|Usage=FLASHONLY|Rotation=135.000|XOffset=0mil|YOffset=0mil|HoleType=Round|Shape=Rectangle|*
%AMROTATEDRECTD27*
4,1,4,0.0318,-0.0106,0.0106,-0.0318,-0.0318,0.0106,-0.0106,0.0318,0.0318,-0.0106,0.0*
%
%ADD27ROTATEDRECTD27*%

%ADD28R,0.0240X0.1750*%
G04:AMPARAMS|DCode=29|XSize=35.4mil|YSize=31.5mil|CornerRadius=0mil|HoleSize=0mil|Usage=FLASHONLY|Rotation=315.000|XOffset=0mil|YOffset=0mil|HoleType=Round|Shape=Rectangle|*
%AMROTATEDRECTD29*
4,1,4,-0.0237,0.0014,-0.0014,0.0237,0.0237,-0.0014,0.0014,-0.0237,-0.0237,0.0014,0.0*
%
%ADD29ROTATEDRECTD29*%

%ADD30R,0.0098X0.0591*%
%ADD31R,0.0394X0.0591*%
%ADD32C,0.0120*%
%ADD33C,0.0150*%
%ADD34C,0.0200*%
%ADD35C,0.0984*%
%ADD36C,0.0591*%
%ADD37C,0.0661*%
%ADD38C,0.1772*%
%ADD39C,0.0400*%
%ADD40C,0.0320*%
%ADD41R,0.0661X0.0319*%
%ADD42C,0.0098*%
%ADD43C,0.0100*%
%ADD44C,0.0236*%
%ADD45C,0.0079*%
%ADD46C,0.0047*%
%ADD47C,0.0050*%
%ADD48C,0.0080*%
%ADD49C,0.0060*%
%ADD50R,0.0414X0.0336*%
%ADD51R,0.0375X0.0414*%
%ADD52R,0.0414X0.0375*%
%ADD53R,0.0296X0.0257*%
%ADD54R,0.0296X0.0651*%
%ADD55R,0.0257X0.0296*%
%ADD56R,0.0395X0.0217*%
%ADD57R,0.0336X0.0414*%
%ADD58R,0.0217X0.0395*%
%ADD59R,0.0572X0.0277*%
%ADD60R,0.0217X0.0217*%
%ADD61R,0.0178X0.0269*%
%ADD62R,0.0178X0.0253*%
%ADD63O,0.0178X0.0710*%
%ADD64R,0.0454X0.0277*%
G04:AMPARAMS|DCode=65|XSize=65.8mil|YSize=36mil|CornerRadius=0mil|HoleSize=0mil|Usage=FLASHONLY|Rotation=225.000|XOffset=0mil|YOffset=0mil|HoleType=Round|Shape=Rectangle|*
%AMROTATEDRECTD65*
4,1,4,0.0106,0.0360,0.0360,0.0106,-0.0106,-0.0360,-0.0360,-0.0106,0.0106,0.0360,0.0*
%
%ADD65ROTATEDRECTD65*%

G04:AMPARAMS|DCode=66|XSize=65.8mil|YSize=36mil|CornerRadius=0mil|HoleSize=0mil|Usage=FLASHONLY|Rotation=135.000|XOffset=0mil|YOffset=0mil|HoleType=Round|Shape=Rectangle|*
%AMROTATEDRECTD66*
4,1,4,0.0360,-0.0106,0.0106,-0.0360,-0.0360,0.0106,-0.0106,0.0360,0.0360,-0.0106,0.0*
%
%ADD66ROTATEDRECTD66*%

G04:AMPARAMS|DCode=67|XSize=66mil|YSize=36mil|CornerRadius=0mil|HoleSize=0mil|Usage=FLASHONLY|Rotation=135.000|XOffset=0mil|YOffset=0mil|HoleType=Round|Shape=Rectangle|*
%AMROTATEDRECTD67*
4,1,4,0.0361,-0.0106,0.0106,-0.0361,-0.0361,0.0106,-0.0106,0.0361,0.0361,-0.0106,0.0*
%
%ADD67ROTATEDRECTD67*%

%ADD68R,0.0300X0.1810*%
G04:AMPARAMS|DCode=69|XSize=41.4mil|YSize=37.5mil|CornerRadius=0mil|HoleSize=0mil|Usage=FLASHONLY|Rotation=315.000|XOffset=0mil|YOffset=0mil|HoleType=Round|Shape=Rectangle|*
%AMROTATEDRECTD69*
4,1,4,-0.0279,0.0014,-0.0014,0.0279,0.0279,-0.0014,0.0014,-0.0279,-0.0279,0.0014,0.0*
%
%ADD69ROTATEDRECTD69*%

%ADD70C,0.1044*%
%ADD71C,0.0651*%
%ADD72C,0.0721*%
%ADD73C,0.1832*%
%ADD74C,0.0460*%
D50*
X18650Y2345D02*
D03*
Y1755D02*
D03*
X19350Y2345D02*
D03*
Y1755D02*
D03*
X18650Y605D02*
D03*
Y1195D02*
D03*
X19350Y605D02*
D03*
Y1195D02*
D03*
X9200Y11505D02*
D03*
Y12095D02*
D03*
X5150Y7995D02*
D03*
Y7405D02*
D03*
D51*
X7424Y12800D02*
D03*
X7976D02*
D03*
X5226Y12000D02*
D03*
X4674D02*
D03*
X2274Y8850D02*
D03*
X2826D02*
D03*
X8376Y4100D02*
D03*
X7824D02*
D03*
X6576Y10800D02*
D03*
X6024D02*
D03*
X3624Y7550D02*
D03*
X4176D02*
D03*
X7474Y7400D02*
D03*
X8026D02*
D03*
X6124Y8700D02*
D03*
X6676D02*
D03*
D52*
X7550Y12026D02*
D03*
Y11474D02*
D03*
X7250Y15076D02*
D03*
Y14524D02*
D03*
X7900Y15076D02*
D03*
Y14524D02*
D03*
X9550Y16276D02*
D03*
Y15724D02*
D03*
X6000Y12026D02*
D03*
Y11474D02*
D03*
X5900Y7976D02*
D03*
Y7424D02*
D03*
X7050Y4574D02*
D03*
Y5126D02*
D03*
X11400Y2324D02*
D03*
Y2876D02*
D03*
X8850Y6074D02*
D03*
Y6626D02*
D03*
X2850Y7574D02*
D03*
Y8126D02*
D03*
X6700Y7424D02*
D03*
Y7976D02*
D03*
X9100Y3026D02*
D03*
Y2474D02*
D03*
D53*
X7503Y13450D02*
D03*
X7897D02*
D03*
X4613Y6640D02*
D03*
X5007D02*
D03*
X4653Y5800D02*
D03*
X5047D02*
D03*
X5047Y5150D02*
D03*
X4653D02*
D03*
X5047Y4500D02*
D03*
X4653D02*
D03*
X6003Y4500D02*
D03*
X6397D02*
D03*
X5953Y5200D02*
D03*
X6347D02*
D03*
D54*
X9000Y15424D02*
D03*
X9374Y14676D02*
D03*
X8626D02*
D03*
D55*
X6650Y11947D02*
D03*
Y11553D02*
D03*
D56*
X4576Y11406D02*
D03*
Y11150D02*
D03*
Y10894D02*
D03*
X5324D02*
D03*
Y11406D02*
D03*
X4224Y8194D02*
D03*
Y8450D02*
D03*
Y8706D02*
D03*
X3476D02*
D03*
Y8194D02*
D03*
X8074Y8044D02*
D03*
Y8300D02*
D03*
Y8556D02*
D03*
X7326D02*
D03*
Y8044D02*
D03*
D57*
X3455Y10900D02*
D03*
X4045D02*
D03*
X4655Y10300D02*
D03*
X5245D02*
D03*
X4095Y9250D02*
D03*
X3505D02*
D03*
X7655Y5150D02*
D03*
X8245D02*
D03*
X6395Y6550D02*
D03*
X5805D02*
D03*
X7805Y3500D02*
D03*
X8395D02*
D03*
X12905Y3550D02*
D03*
X13495D02*
D03*
X7905Y10800D02*
D03*
X8495D02*
D03*
X5395Y8700D02*
D03*
X4805D02*
D03*
X9245Y8550D02*
D03*
X8655D02*
D03*
X7945Y9100D02*
D03*
X7355D02*
D03*
D58*
X8094Y11426D02*
D03*
X8350D02*
D03*
X8606D02*
D03*
Y12174D02*
D03*
X8094D02*
D03*
D59*
X8092Y5826D02*
D03*
Y6200D02*
D03*
Y6574D02*
D03*
X7108D02*
D03*
Y5826D02*
D03*
X12692Y4326D02*
D03*
Y4700D02*
D03*
Y5074D02*
D03*
X11708D02*
D03*
Y4326D02*
D03*
X14992D02*
D03*
Y4700D02*
D03*
Y5074D02*
D03*
X14008D02*
D03*
Y4326D02*
D03*
D60*
X6376Y5850D02*
D03*
X5824D02*
D03*
D61*
X10653Y4760D02*
D03*
D62*
X10850Y4752D02*
D03*
X11047D02*
D03*
Y5048D02*
D03*
X10850D02*
D03*
X10653D02*
D03*
D63*
X10644Y9207D02*
D03*
X10447D02*
D03*
X10250D02*
D03*
X10053D02*
D03*
X9856D02*
D03*
X10644Y7593D02*
D03*
X10447D02*
D03*
X10250D02*
D03*
X10053D02*
D03*
X9856D02*
D03*
D64*
X10742Y3224D02*
D03*
Y2476D02*
D03*
X9758D02*
D03*
Y2850D02*
D03*
Y3224D02*
D03*
D65*
X20770Y2363D02*
D03*
X20416Y2716D02*
D03*
X20063Y3070D02*
D03*
X19709Y3423D02*
D03*
X19355Y3777D02*
D03*
X19002Y4131D02*
D03*
X18648Y4484D02*
D03*
X18295Y4838D02*
D03*
X17941Y5191D02*
D03*
X17588Y5545D02*
D03*
X17234Y5898D02*
D03*
X16881Y6252D02*
D03*
X16527Y6605D02*
D03*
X16173Y6959D02*
D03*
X15820Y7313D02*
D03*
X15466Y7666D02*
D03*
X15113Y8020D02*
D03*
X21830Y14737D02*
D03*
X22184Y14384D02*
D03*
X22537Y14030D02*
D03*
X22891Y13677D02*
D03*
X23245Y13323D02*
D03*
X23598Y12969D02*
D03*
X23952Y12616D02*
D03*
X24305Y12262D02*
D03*
X24659Y11909D02*
D03*
X25012Y11555D02*
D03*
X25366Y11202D02*
D03*
X25719Y10848D02*
D03*
X26073Y10495D02*
D03*
X26427Y10141D02*
D03*
X26780Y9787D02*
D03*
X27134Y9434D02*
D03*
X27487Y9080D02*
D03*
D66*
X15113D02*
D03*
X15466Y9434D02*
D03*
X15820Y9787D02*
D03*
X16173Y10141D02*
D03*
X16527Y10495D02*
D03*
X16881Y10848D02*
D03*
X17234Y11202D02*
D03*
X17588Y11555D02*
D03*
X17941Y11909D02*
D03*
X18295Y12262D02*
D03*
X18648Y12616D02*
D03*
X19002Y12969D02*
D03*
X19355Y13323D02*
D03*
X19709Y13677D02*
D03*
X20063Y14030D02*
D03*
X20416Y14384D02*
D03*
X20770Y14737D02*
D03*
D67*
X27487Y8020D02*
D03*
X27134Y7666D02*
D03*
X26780Y7313D02*
D03*
X26427Y6959D02*
D03*
X26073Y6605D02*
D03*
X25719Y6252D02*
D03*
X25366Y5898D02*
D03*
X25012Y5545D02*
D03*
X24659Y5191D02*
D03*
X24305Y4838D02*
D03*
X23952Y4484D02*
D03*
X23598Y4131D02*
D03*
X23245Y3777D02*
D03*
X22891Y3423D02*
D03*
X22537Y3070D02*
D03*
X22184Y2716D02*
D03*
X21830Y2363D02*
D03*
D68*
X15856Y1000D02*
D03*
X16644D02*
D03*
X17037D02*
D03*
X17431D02*
D03*
D69*
X28495Y7895D02*
D03*
X28105Y7505D02*
D03*
D70*
X12000Y10468D02*
D03*
Y6532D02*
D03*
D71*
X10125Y950D02*
D03*
X10913D02*
D03*
X11700D02*
D03*
X13275D02*
D03*
X13250Y2550D02*
D03*
X14250D02*
D03*
X7150Y2650D02*
D03*
X8150D02*
D03*
D72*
X3750Y6250D02*
D03*
X6050Y3600D02*
D03*
X9250Y5000D02*
D03*
X8700Y13000D02*
D03*
X9300Y10650D02*
D03*
X6250Y9800D02*
D03*
X3850Y10050D02*
D03*
X2700Y9750D02*
D03*
X5000Y9500D02*
D03*
X7400Y9950D02*
D03*
X6400Y13350D02*
D03*
X8900Y9450D02*
D03*
X10400Y11000D02*
D03*
X13350Y8900D02*
D03*
X10000Y6250D02*
D03*
X13600Y7400D02*
D03*
X10950Y12300D02*
D03*
X15900Y5000D02*
D03*
X13850Y6050D02*
D03*
X18000Y14850D02*
D03*
X8950Y7700D02*
D03*
D73*
X12000Y10468D02*
D03*
Y6532D02*
D03*
D74*
X18950Y14450D02*
D03*
X19300Y14086D02*
D03*
X23700Y13778D02*
D03*
X23350Y14136D02*
D03*
X22650Y14850D02*
D03*
X25150Y4700D02*
D03*
X24793Y4350D02*
D03*
X24450Y3986D02*
D03*
X24079Y3650D02*
D03*
X23700Y3322D02*
D03*
X23000Y2607D02*
D03*
M02*
