%FSLAX24Y24*%
%MOIN*%
G70*
G01*
G75*
G04 Layer_Physical_Order=1*
G04 Layer_Color=255*
%ADD10C,0.0100*%
%ADD11R,0.2362X0.1890*%
%ADD12O,0.0315X0.0157*%
%ADD13O,0.0276X0.0098*%
%ADD14O,0.0098X0.0276*%
%ADD15R,0.0236X0.0157*%
%ADD16R,0.0197X0.0354*%
%ADD17R,0.0157X0.0236*%
%ADD18R,0.0354X0.0197*%
%ADD19R,0.1850X0.1850*%
%ADD20O,0.0110X0.0315*%
%ADD21O,0.0315X0.0110*%
%ADD22R,0.2028X0.2028*%
%ADD23O,0.0110X0.0335*%
%ADD24O,0.0335X0.0110*%
%ADD25O,0.0532X0.0177*%
%ADD26R,0.0532X0.0157*%
%ADD27R,0.0630X0.0748*%
%ADD28R,0.0551X0.0630*%
%ADD29R,0.0217X0.0394*%
%ADD30R,0.0276X0.0354*%
%ADD31R,0.0138X0.0098*%
%ADD32R,0.0098X0.0187*%
%ADD33R,0.0787X0.0472*%
%ADD34R,0.0142X0.0142*%
%ADD35R,0.0110X0.0110*%
G04:AMPARAMS|DCode=36|XSize=59.1mil|YSize=102.4mil|CornerRadius=0mil|HoleSize=0mil|Usage=FLASHONLY|Rotation=230.000|XOffset=0mil|YOffset=0mil|HoleType=Round|Shape=Rectangle|*
%AMROTATEDRECTD36*
4,1,4,-0.0202,0.0555,0.0582,-0.0103,0.0202,-0.0555,-0.0582,0.0103,-0.0202,0.0555,0.0*
%
%ADD36ROTATEDRECTD36*%

%ADD37R,0.0197X0.0315*%
G04:AMPARAMS|DCode=38|XSize=86.6mil|YSize=51.2mil|CornerRadius=12.8mil|HoleSize=0mil|Usage=FLASHONLY|Rotation=270.000|XOffset=0mil|YOffset=0mil|HoleType=Round|Shape=RoundedRectangle|*
%AMROUNDEDRECTD38*
21,1,0.0866,0.0256,0,0,270.0*
21,1,0.0610,0.0512,0,0,270.0*
1,1,0.0256,-0.0128,-0.0305*
1,1,0.0256,-0.0128,0.0305*
1,1,0.0256,0.0128,0.0305*
1,1,0.0256,0.0128,-0.0305*
%
%ADD38ROUNDEDRECTD38*%
G04:AMPARAMS|DCode=39|XSize=15.7mil|YSize=23.6mil|CornerRadius=3.9mil|HoleSize=0mil|Usage=FLASHONLY|Rotation=270.000|XOffset=0mil|YOffset=0mil|HoleType=Round|Shape=RoundedRectangle|*
%AMROUNDEDRECTD39*
21,1,0.0157,0.0157,0,0,270.0*
21,1,0.0079,0.0236,0,0,270.0*
1,1,0.0079,-0.0079,-0.0039*
1,1,0.0079,-0.0079,0.0039*
1,1,0.0079,0.0079,0.0039*
1,1,0.0079,0.0079,-0.0039*
%
%ADD39ROUNDEDRECTD39*%
%ADD40R,0.0118X0.0209*%
%ADD41R,0.0118X0.0193*%
%ADD42R,0.0157X0.0335*%
%ADD43R,0.0335X0.0157*%
%ADD44C,0.0060*%
%ADD45C,0.0050*%
%ADD46C,0.0120*%
%ADD47C,0.0181*%
%ADD48C,0.0080*%
%ADD49C,0.0150*%
%ADD50C,0.1260*%
%ADD51C,0.0630*%
%ADD52C,0.0197*%
%ADD53C,0.0180*%
%ADD54C,0.0260*%
%ADD55C,0.0220*%
%ADD56C,0.0200*%
%ADD57C,0.0276*%
G36*
X4008Y-2200D02*
X3321Y-2950D01*
Y-2730D01*
X3306D01*
Y-2717D01*
X3318Y-2698D01*
X3328Y-2650D01*
Y-2612D01*
X3332Y-2605D01*
X3343Y-2550D01*
Y-2259D01*
X3509Y-2093D01*
X4007D01*
X4008Y-2200D01*
D02*
G37*
G36*
X-930Y-4286D02*
X-903Y-4303D01*
X-872Y-4310D01*
X-872Y-4310D01*
X-742D01*
X-729Y-4329D01*
X-683Y-4360D01*
X-628Y-4371D01*
X-573Y-4360D01*
X-540Y-4337D01*
Y-4340D01*
X-532Y-4381D01*
X-508Y-4416D01*
X-474Y-4439D01*
X-433Y-4447D01*
X-392Y-4439D01*
X-357Y-4416D01*
X-334Y-4382D01*
X-317Y-4407D01*
Y-4631D01*
X-1172D01*
Y-5181D01*
X-1216Y-5190D01*
X-1273Y-5227D01*
X-1310Y-5284D01*
X-1315Y-5310D01*
X-1150D01*
Y-5390D01*
X-1315D01*
X-1310Y-5416D01*
X-1273Y-5473D01*
X-1216Y-5510D01*
X-1172Y-5519D01*
Y-6032D01*
X-1436Y-5980D01*
X-1500Y-5962D01*
Y-5443D01*
X-1445Y-5432D01*
X-1399Y-5401D01*
X-1368Y-5355D01*
X-1357Y-5300D01*
X-1368Y-5245D01*
X-1399Y-5199D01*
X-1445Y-5168D01*
X-1475Y-5162D01*
X-1463Y-5143D01*
X-1457Y-5117D01*
X-1623D01*
Y-5037D01*
X-1457D01*
X-1463Y-5011D01*
X-1500Y-4955D01*
Y-4791D01*
X-1491Y-4777D01*
X-1480Y-4723D01*
X-1491Y-4668D01*
X-1500Y-4655D01*
Y-4436D01*
X-1440D01*
Y-4277D01*
X-1360D01*
Y-4436D01*
X-1202D01*
Y-4429D01*
X-1189Y-4437D01*
X-1163Y-4443D01*
Y-4277D01*
X-1083D01*
Y-4443D01*
X-1057Y-4437D01*
X-1000Y-4400D01*
X-963Y-4344D01*
X-950Y-4277D01*
X-952Y-4263D01*
X-930Y-4286D01*
D02*
G37*
G36*
X1263Y-4416D02*
X1298Y-4439D01*
X1339Y-4447D01*
X1380Y-4439D01*
X1415Y-4416D01*
X1437Y-4382D01*
X1460Y-4416D01*
X1495Y-4439D01*
X1536Y-4447D01*
X1577Y-4439D01*
X1612Y-4416D01*
X1634Y-4382D01*
X1651Y-4407D01*
Y-4506D01*
X1651Y-4506D01*
X1657Y-4537D01*
X1675Y-4563D01*
X1732Y-4620D01*
Y-4686D01*
X1565Y-4868D01*
X1440D01*
Y-5027D01*
X1400D01*
Y-5067D01*
X1202D01*
Y-5186D01*
X1274D01*
X990Y-5497D01*
X285D01*
Y-5532D01*
X278Y-5522D01*
X259Y-5509D01*
Y-5502D01*
X557Y-5203D01*
X1172D01*
Y-4631D01*
X958D01*
X982Y-4595D01*
X993Y-4541D01*
X982Y-4486D01*
X955Y-4445D01*
X986Y-4439D01*
X1021Y-4416D01*
X1044Y-4382D01*
X1061Y-4407D01*
Y-4415D01*
X1061Y-4415D01*
X1067Y-4446D01*
X1084Y-4473D01*
X1232Y-4620D01*
Y-4802D01*
X1386D01*
X1400Y-4804D01*
X1414Y-4802D01*
X1568D01*
Y-4544D01*
X1387D01*
X1234Y-4392D01*
X1241Y-4382D01*
X1263Y-4416D01*
D02*
G37*
G36*
X3195Y-707D02*
X3333D01*
Y-650D01*
X3597D01*
Y-677D01*
X3615D01*
Y-782D01*
X3598D01*
Y-1118D01*
X3638D01*
Y-1266D01*
X3618Y-1295D01*
X3607Y-1350D01*
X3618Y-1405D01*
X3649Y-1451D01*
X3695Y-1482D01*
X3750Y-1493D01*
X3805Y-1482D01*
X3851Y-1451D01*
X3882Y-1405D01*
X3893Y-1350D01*
X3882Y-1295D01*
X3862Y-1266D01*
Y-973D01*
X3862Y-973D01*
X3856Y-941D01*
Y-782D01*
X3839D01*
Y-677D01*
X3894D01*
Y-650D01*
X4000D01*
X4003Y-1187D01*
X3979Y-1223D01*
X3974Y-1249D01*
X4139D01*
Y-1329D01*
X3974D01*
X3979Y-1355D01*
X4004Y-1393D01*
X4006Y-1807D01*
X3450D01*
X3404Y-1816D01*
X3395Y-1818D01*
X3349Y-1849D01*
X3099Y-2099D01*
X3068Y-2145D01*
X3057Y-2200D01*
Y-2544D01*
X3010D01*
X2981Y-2515D01*
X2954Y-2497D01*
X2923Y-2491D01*
X2923Y-2491D01*
X2818D01*
Y-2444D01*
X2489D01*
X2502Y-2424D01*
X2508Y-2398D01*
X2342D01*
Y-2318D01*
X2508D01*
X2502Y-2292D01*
X2465Y-2235D01*
X2432Y-2214D01*
X2451Y-2201D01*
X2482Y-2155D01*
X2493Y-2100D01*
X2482Y-2045D01*
X2451Y-1999D01*
X2405Y-1968D01*
X2350Y-1957D01*
X2295Y-1968D01*
X2249Y-1999D01*
X2218Y-2045D01*
X2211Y-2079D01*
X2207D01*
X2182Y-2063D01*
X2216Y-2040D01*
X2239Y-2005D01*
X2247Y-1964D01*
X2239Y-1923D01*
X2216Y-1888D01*
X2182Y-1866D01*
X2216Y-1843D01*
X2239Y-1808D01*
X2247Y-1767D01*
X2239Y-1726D01*
X2216Y-1692D01*
X2181Y-1668D01*
X2140Y-1660D01*
X1916D01*
X1875Y-1668D01*
X1840Y-1692D01*
X1817Y-1726D01*
X1809Y-1767D01*
X1817Y-1808D01*
X1840Y-1843D01*
X1874Y-1866D01*
X1840Y-1888D01*
X1817Y-1923D01*
X1809Y-1964D01*
X1817Y-2005D01*
X1840Y-2040D01*
X1874Y-2063D01*
X1840Y-2085D01*
X1817Y-2120D01*
X1809Y-2161D01*
X1817Y-2202D01*
X1840Y-2237D01*
X1847Y-2241D01*
X1818Y-2260D01*
X1788Y-2305D01*
X1786Y-2318D01*
X2028D01*
Y-2398D01*
X1786D01*
X1788Y-2411D01*
X1818Y-2455D01*
X1847Y-2474D01*
X1840Y-2479D01*
X1817Y-2514D01*
X1809Y-2555D01*
X1817Y-2596D01*
X1840Y-2631D01*
X1874Y-2653D01*
X1840Y-2676D01*
X1817Y-2711D01*
X1809Y-2752D01*
X1817Y-2793D01*
X1840Y-2827D01*
X1874Y-2850D01*
X1840Y-2873D01*
X1817Y-2907D01*
X1809Y-2948D01*
X1817Y-2989D01*
X1840Y-3024D01*
X1847Y-3029D01*
X1818Y-3048D01*
X1788Y-3093D01*
X1786Y-3105D01*
X2028D01*
Y-3185D01*
X1786D01*
X1788Y-3198D01*
X1818Y-3243D01*
X1847Y-3262D01*
X1840Y-3266D01*
X1817Y-3301D01*
X1809Y-3342D01*
X1817Y-3383D01*
X1840Y-3418D01*
X1874Y-3441D01*
X1840Y-3463D01*
X1817Y-3498D01*
X1809Y-3539D01*
X1817Y-3580D01*
X1840Y-3615D01*
X1874Y-3637D01*
X1840Y-3660D01*
X1817Y-3695D01*
X1809Y-3736D01*
X1817Y-3777D01*
X1840Y-3812D01*
X1874Y-3834D01*
X1849Y-3851D01*
X1798D01*
X1767Y-3857D01*
X1756Y-3864D01*
X1744Y-3873D01*
Y-2890D01*
X-444D01*
Y-3928D01*
X-490Y-3975D01*
X-508Y-4001D01*
X-514Y-4033D01*
X-514Y-4033D01*
Y-4049D01*
X-532Y-4075D01*
X-540Y-4116D01*
Y-4118D01*
X-573Y-4096D01*
X-628Y-4085D01*
X-683Y-4096D01*
X-729Y-4127D01*
X-742Y-4146D01*
X-838D01*
X-954Y-4030D01*
Y-3850D01*
X-935Y-3837D01*
X-922Y-3817D01*
X-907D01*
X-882Y-3834D01*
X-916Y-3857D01*
X-939Y-3892D01*
X-947Y-3933D01*
X-939Y-3974D01*
X-916Y-4008D01*
X-881Y-4032D01*
X-840Y-4040D01*
X-616D01*
X-575Y-4032D01*
X-540Y-4008D01*
X-517Y-3974D01*
X-509Y-3933D01*
X-517Y-3892D01*
X-540Y-3857D01*
X-574Y-3834D01*
X-540Y-3812D01*
X-517Y-3777D01*
X-509Y-3736D01*
X-517Y-3695D01*
X-540Y-3660D01*
X-574Y-3637D01*
X-540Y-3615D01*
X-517Y-3580D01*
X-509Y-3539D01*
X-517Y-3498D01*
X-540Y-3463D01*
X-574Y-3441D01*
X-540Y-3418D01*
X-517Y-3383D01*
X-509Y-3342D01*
X-517Y-3301D01*
X-540Y-3266D01*
X-574Y-3244D01*
X-540Y-3221D01*
X-517Y-3186D01*
X-509Y-3145D01*
X-517Y-3104D01*
X-540Y-3069D01*
X-574Y-3047D01*
X-540Y-3024D01*
X-517Y-2989D01*
X-509Y-2948D01*
X-517Y-2907D01*
X-540Y-2873D01*
X-574Y-2850D01*
X-540Y-2827D01*
X-517Y-2793D01*
X-509Y-2752D01*
X-517Y-2711D01*
X-540Y-2676D01*
X-574Y-2653D01*
X-540Y-2631D01*
X-517Y-2596D01*
X-509Y-2555D01*
X-517Y-2514D01*
X-540Y-2479D01*
X-574Y-2456D01*
X-540Y-2434D01*
X-517Y-2399D01*
X-509Y-2358D01*
X-517Y-2317D01*
X-540Y-2282D01*
X-574Y-2259D01*
X-540Y-2237D01*
X-517Y-2202D01*
X-509Y-2161D01*
X-517Y-2120D01*
X-540Y-2085D01*
X-574Y-2063D01*
X-540Y-2040D01*
X-517Y-2005D01*
X-509Y-1964D01*
X-517Y-1923D01*
X-540Y-1888D01*
X-574Y-1866D01*
X-540Y-1843D01*
X-517Y-1808D01*
X-509Y-1767D01*
X-517Y-1726D01*
X-540Y-1692D01*
X-575Y-1668D01*
X-616Y-1660D01*
X-646D01*
Y-1579D01*
X-623Y-1563D01*
X-592Y-1517D01*
X-581Y-1463D01*
X-592Y-1408D01*
X-623Y-1362D01*
X-669Y-1331D01*
X-724Y-1320D01*
X-778Y-1331D01*
X-824Y-1362D01*
X-855Y-1408D01*
X-866Y-1463D01*
X-855Y-1517D01*
X-824Y-1563D01*
X-810Y-1573D01*
Y-1660D01*
X-840D01*
X-881Y-1668D01*
X-916Y-1692D01*
X-939Y-1726D01*
X-945Y-1755D01*
X-949Y-1749D01*
X-995Y-1718D01*
X-1050Y-1707D01*
X-1102Y-1717D01*
X-1132Y-1687D01*
Y-1498D01*
X-1468D01*
Y-1756D01*
X-1279D01*
X-1192Y-1844D01*
X-1193Y-1850D01*
X-1182Y-1905D01*
X-1151Y-1951D01*
X-1105Y-1982D01*
X-1050Y-1993D01*
X-1027Y-1988D01*
X-1005Y-2011D01*
X-1022Y-2007D01*
X-1077Y-2018D01*
X-1123Y-2049D01*
X-1154Y-2095D01*
X-1165Y-2150D01*
X-1154Y-2205D01*
X-1140Y-2226D01*
X-1192Y-2215D01*
X-1247Y-2226D01*
X-1293Y-2257D01*
X-1324Y-2303D01*
X-1335Y-2358D01*
X-1324Y-2412D01*
X-1293Y-2459D01*
X-1247Y-2490D01*
X-1192Y-2501D01*
X-1168Y-2496D01*
X-1171Y-2500D01*
X-1182Y-2555D01*
X-1171Y-2609D01*
X-1167Y-2615D01*
X-1198Y-2609D01*
X-1253Y-2620D01*
X-1299Y-2651D01*
X-1330Y-2697D01*
X-1341Y-2752D01*
X-1330Y-2806D01*
X-1299Y-2853D01*
X-1253Y-2883D01*
X-1198Y-2894D01*
X-1178Y-2890D01*
X-1180Y-2894D01*
X-1191Y-2948D01*
X-1180Y-3003D01*
X-1173Y-3013D01*
X-1228Y-3003D01*
X-1282Y-3013D01*
X-1329Y-3044D01*
X-1359Y-3091D01*
X-1370Y-3145D01*
X-1359Y-3200D01*
X-1329Y-3246D01*
X-1318Y-3253D01*
X-1500Y-3435D01*
Y-3158D01*
X-1495Y-3150D01*
X-1485Y-3100D01*
X-1495Y-3050D01*
X-1500Y-3042D01*
Y-2658D01*
X-1495Y-2650D01*
X-1485Y-2600D01*
X-1495Y-2550D01*
X-1500Y-2542D01*
Y-2158D01*
X-1495Y-2150D01*
X-1485Y-2100D01*
X-1495Y-2050D01*
X-1500Y-2042D01*
Y-1658D01*
X-1495Y-1650D01*
X-1485Y-1600D01*
X-1495Y-1550D01*
X-1500Y-1542D01*
Y-650D01*
X-10D01*
X7Y-675D01*
X16Y-682D01*
X-102D01*
Y-1018D01*
X143D01*
X103Y-1026D01*
X57Y-1057D01*
X26Y-1103D01*
X15Y-1158D01*
X26Y-1213D01*
X57Y-1259D01*
X76Y-1272D01*
Y-1289D01*
X58Y-1262D01*
X14Y-1233D01*
X1Y-1230D01*
Y-1472D01*
Y-1714D01*
X14Y-1712D01*
X58Y-1682D01*
X77Y-1653D01*
X82Y-1660D01*
X117Y-1683D01*
X158Y-1691D01*
X199Y-1683D01*
X234Y-1660D01*
X256Y-1626D01*
X279Y-1660D01*
X314Y-1683D01*
X355Y-1691D01*
X396Y-1683D01*
X431Y-1660D01*
X435Y-1653D01*
X454Y-1682D01*
X499Y-1712D01*
X512Y-1714D01*
Y-1472D01*
Y-1230D01*
X499Y-1233D01*
X454Y-1262D01*
X436Y-1289D01*
Y-1061D01*
X451Y-1051D01*
X482Y-1005D01*
X493Y-950D01*
X482Y-895D01*
X451Y-849D01*
X405Y-818D01*
X350Y-807D01*
X321Y-813D01*
X304Y-796D01*
X279Y-779D01*
X250Y-774D01*
X156D01*
Y-700D01*
X193Y-675D01*
X210Y-650D01*
X1334D01*
X1401Y-670D01*
X1534Y-683D01*
X1667Y-670D01*
X1733Y-650D01*
X2138D01*
X2142Y-652D01*
X2168Y-658D01*
Y-492D01*
X2248D01*
Y-658D01*
X2274Y-652D01*
X2278Y-650D01*
X2976D01*
Y-707D01*
X3115D01*
Y-450D01*
X3195D01*
Y-707D01*
D02*
G37*
G36*
X1995Y1427D02*
X2036Y1419D01*
X2077Y1427D01*
X2080Y1429D01*
X2115Y1394D01*
X2101Y1372D01*
X2090Y1317D01*
X2101Y1263D01*
X2132Y1216D01*
X2178Y1185D01*
X2233Y1175D01*
X2287Y1185D01*
X2334Y1216D01*
X2365Y1263D01*
X2365Y1263D01*
X2415D01*
X2418Y1245D01*
X2449Y1199D01*
X2495Y1168D01*
X2550Y1157D01*
X2570Y1141D01*
Y779D01*
D01*
Y779D01*
X2560Y768D01*
X2479D01*
X2440Y808D01*
X2413Y825D01*
X2382Y832D01*
X2382Y832D01*
X1866D01*
X1851Y879D01*
X1857Y883D01*
X1888Y930D01*
X1899Y984D01*
X1888Y1039D01*
X1857Y1085D01*
X1811Y1116D01*
X1756Y1127D01*
X1724Y1289D01*
Y1424D01*
X1768Y1447D01*
X1798Y1427D01*
X1839Y1419D01*
X1880Y1427D01*
X1915Y1450D01*
X1960D01*
X1995Y1427D01*
D02*
G37*
G36*
X3177Y1877D02*
X3230Y1843D01*
X3235Y1793D01*
X3196Y1754D01*
X3179Y1729D01*
X3174Y1700D01*
X3174Y1700D01*
X3174D01*
X3174Y1700D01*
X3174D01*
Y1224D01*
X3113D01*
Y986D01*
X3033D01*
Y1224D01*
X2894D01*
Y1194D01*
X2867D01*
Y1194D01*
X2700D01*
X2677Y1238D01*
X2682Y1245D01*
X2693Y1300D01*
X2682Y1355D01*
X2682Y1355D01*
X2682Y1355D01*
X2667Y1427D01*
X2702Y1450D01*
X2725Y1485D01*
X2734Y1526D01*
Y1731D01*
X2725Y1772D01*
X2702Y1806D01*
X2673Y1826D01*
X2681Y1869D01*
X2724Y1877D01*
X2744Y1848D01*
X2778Y1825D01*
X2819Y1816D01*
X3024D01*
X3065Y1825D01*
X3100Y1848D01*
X3123Y1883D01*
X3123Y1883D01*
D01*
D01*
D01*
Y1883D01*
X3145Y1926D01*
X3177Y1877D01*
D02*
G37*
G36*
X2677Y2188D02*
X2663Y2178D01*
X2663Y2178D01*
X2623Y2138D01*
X2600Y2143D01*
X2545Y2132D01*
X2499Y2101D01*
X2468Y2055D01*
X2465Y2038D01*
X2416Y2029D01*
X2401Y2051D01*
X2355Y2082D01*
X2300Y2093D01*
X2245Y2082D01*
X2199Y2051D01*
X2199Y2051D01*
Y2051D01*
X2168Y2040D01*
D01*
X2137Y2087D01*
X2090Y2118D01*
X2036Y2129D01*
X1981Y2118D01*
X1935Y2087D01*
X1904Y2040D01*
X1893Y1986D01*
X1904Y1931D01*
X1935Y1885D01*
X1946Y1877D01*
X1944Y1827D01*
X1910Y1810D01*
X1880Y1830D01*
X1839Y1838D01*
X1798Y1830D01*
X1763Y1806D01*
X1718D01*
X1683Y1830D01*
X1642Y1838D01*
X1601Y1830D01*
X1566Y1806D01*
X1521D01*
X1486Y1830D01*
X1445Y1838D01*
X1404Y1830D01*
X1369Y1806D01*
X1324D01*
X1289Y1830D01*
X1248Y1838D01*
X1207Y1830D01*
X1177Y1810D01*
X1133Y1833D01*
Y1898D01*
D01*
Y1898D01*
X1133D01*
D01*
Y1898D01*
X1133D01*
Y1898D01*
X1133Y1898D01*
X1133Y1898D01*
D01*
D01*
D01*
D01*
X1127Y1930D01*
X1121Y1939D01*
X1121Y1939D01*
X1120Y1940D01*
Y1940D01*
D01*
D01*
Y1940D01*
D01*
X1109Y1956D01*
X1109Y1956D01*
X1088Y1977D01*
X1093Y2000D01*
X1082Y2055D01*
X1051Y2101D01*
X1005Y2132D01*
X950Y2143D01*
X895Y2132D01*
X849Y2101D01*
X818Y2055D01*
X807Y2000D01*
X818Y1945D01*
X849Y1899D01*
X865Y1889D01*
X855Y1838D01*
X814Y1830D01*
X784Y1810D01*
X739Y1833D01*
Y2074D01*
X901Y2236D01*
X2663D01*
X2677Y2188D01*
D02*
G37*
G36*
X2969Y5268D02*
X3369Y5018D01*
X3869Y4668D01*
Y3424D01*
X3820D01*
X3785Y3417D01*
X3756Y3397D01*
X3754Y3396D01*
X3714D01*
X3682Y3434D01*
X3688Y3465D01*
X3705Y3468D01*
X3751Y3499D01*
X3782Y3545D01*
X3793Y3600D01*
X3782Y3655D01*
X3751Y3701D01*
X3705Y3732D01*
X3681Y3737D01*
X3662Y3783D01*
X3679Y3808D01*
X3698Y3904D01*
X3679Y4000D01*
X3624Y4082D01*
X3542Y4136D01*
X3446Y4156D01*
X3375Y4141D01*
X3355Y4188D01*
X3373Y4199D01*
X3404Y4245D01*
Y4245D01*
X3404D01*
D01*
Y4245D01*
X3447Y4252D01*
X3449Y4249D01*
X3495Y4218D01*
X3550Y4207D01*
X3605Y4218D01*
X3651Y4249D01*
X3682Y4295D01*
X3693Y4350D01*
X3682Y4405D01*
X3651Y4451D01*
X3605Y4482D01*
X3550Y4493D01*
X3495Y4482D01*
X3449Y4451D01*
X3418Y4405D01*
Y4405D01*
X3418D01*
D01*
Y4405D01*
X3375Y4398D01*
X3373Y4401D01*
X3367Y4404D01*
X3355Y4468D01*
X3401Y4499D01*
X3432Y4545D01*
X3443Y4600D01*
X3432Y4655D01*
X3401Y4701D01*
X3355Y4732D01*
X3354Y4732D01*
X3337Y4757D01*
X3327Y4780D01*
X3356Y4822D01*
X3366Y4876D01*
X3356Y4931D01*
X3325Y4977D01*
X3278Y5008D01*
X3224Y5019D01*
X3169Y5008D01*
X3123Y4977D01*
X3123Y4977D01*
Y4977D01*
X3091Y4958D01*
X3065Y4975D01*
X3024Y4984D01*
X2819D01*
X2778Y4975D01*
X2752Y4958D01*
X2731Y4969D01*
X2718Y5018D01*
X2725Y5028D01*
X2734Y5069D01*
Y5274D01*
X2725Y5315D01*
X2704Y5346D01*
X2737Y5384D01*
X2969Y5268D01*
D02*
G37*
G36*
X-856Y4193D02*
X-816Y4185D01*
X-803Y4160D01*
X-823Y4130D01*
X-831Y4089D01*
X-823Y4048D01*
X-800Y4013D01*
Y3968D01*
X-823Y3933D01*
X-831Y3892D01*
X-823Y3851D01*
X-800Y3816D01*
Y3771D01*
X-823Y3736D01*
X-831Y3695D01*
X-823Y3654D01*
X-800Y3619D01*
Y3574D01*
X-823Y3539D01*
X-831Y3498D01*
X-823Y3457D01*
X-800Y3423D01*
Y3377D01*
X-823Y3343D01*
X-831Y3302D01*
X-823Y3261D01*
X-800Y3226D01*
Y3181D01*
X-823Y3146D01*
X-831Y3105D01*
X-823Y3064D01*
X-800Y3029D01*
Y2984D01*
X-823Y2949D01*
X-831Y2908D01*
X-823Y2867D01*
X-800Y2832D01*
Y2787D01*
X-823Y2752D01*
X-831Y2711D01*
X-823Y2670D01*
X-800Y2635D01*
Y2590D01*
X-823Y2555D01*
X-831Y2514D01*
X-823Y2473D01*
X-800Y2438D01*
Y2393D01*
X-823Y2358D01*
X-831Y2317D01*
X-823Y2276D01*
X-800Y2242D01*
Y2196D01*
X-823Y2161D01*
X-831Y2120D01*
X-823Y2079D01*
X-800Y2045D01*
Y1999D01*
X-823Y1965D01*
X-831Y1924D01*
X-823Y1883D01*
X-800Y1848D01*
X-765Y1825D01*
X-732Y1818D01*
Y1764D01*
X-751Y1751D01*
X-782Y1705D01*
X-793Y1650D01*
X-782Y1595D01*
X-751Y1549D01*
X-705Y1518D01*
X-650Y1507D01*
X-595Y1518D01*
X-549Y1549D01*
X-518Y1595D01*
X-507Y1650D01*
X-518Y1705D01*
X-549Y1751D01*
X-568Y1764D01*
Y1816D01*
X-519D01*
X-478Y1825D01*
X-444Y1848D01*
X-420Y1883D01*
X-412Y1924D01*
X-420Y1965D01*
X-440Y1995D01*
X-417Y2039D01*
X21D01*
X45Y1995D01*
X18Y1955D01*
X7Y1900D01*
X12Y1877D01*
X10Y1875D01*
X-8Y1849D01*
X-12Y1829D01*
X-58Y1809D01*
X-89Y1830D01*
X-130Y1838D01*
X-171Y1830D01*
X-205Y1806D01*
X-251D01*
X-285Y1830D01*
X-326Y1838D01*
X-367Y1830D01*
X-402Y1806D01*
X-425Y1772D01*
X-434Y1731D01*
Y1526D01*
X-425Y1485D01*
X-408Y1459D01*
Y1291D01*
X-455Y1282D01*
X-501Y1251D01*
X-532Y1205D01*
X-543Y1150D01*
X-532Y1095D01*
X-501Y1049D01*
X-455Y1018D01*
X-400Y1007D01*
X-345Y1018D01*
X-299Y1049D01*
X-268Y1095D01*
X-261Y1132D01*
X-211Y1127D01*
Y1080D01*
X-211Y1080D01*
X-206Y1054D01*
Y901D01*
D01*
X-206Y901D01*
X-206Y899D01*
X-206D01*
Y881D01*
X-217Y873D01*
X-250Y856D01*
X-293Y884D01*
X-348Y895D01*
X-402Y884D01*
X-449Y853D01*
X-480Y807D01*
X-487Y768D01*
X-582D01*
Y798D01*
X-582D01*
Y1056D01*
X-668D01*
Y1250D01*
X-668Y1250D01*
X-675Y1281D01*
X-692Y1308D01*
X-692Y1308D01*
X-865Y1481D01*
X-892Y1498D01*
X-923Y1504D01*
X-932Y1550D01*
Y1552D01*
X-1231D01*
Y1648D01*
X-932D01*
Y1906D01*
X-1018D01*
Y2194D01*
X-982D01*
Y2452D01*
X-1231D01*
Y2548D01*
X-982D01*
Y2806D01*
X-1068D01*
Y2994D01*
X-982D01*
Y3252D01*
X-1231D01*
Y3348D01*
X-982D01*
Y3606D01*
X-1231D01*
Y3961D01*
X-1195Y3968D01*
X-1149Y3999D01*
X-1118Y4045D01*
X-1107Y4100D01*
X-1107Y4100D01*
X-1107Y4100D01*
X-1107Y4102D01*
X-1061Y4123D01*
X-1055Y4118D01*
X-1000Y4107D01*
X-945Y4118D01*
X-899Y4149D01*
X-869Y4194D01*
X-856Y4193D01*
D02*
G37*
G36*
X-451Y5662D02*
X-431Y5624D01*
X-459Y5582D01*
X-470Y5527D01*
X-459Y5473D01*
X-428Y5426D01*
X-403Y5409D01*
Y5349D01*
X-425Y5315D01*
X-434Y5274D01*
Y5069D01*
X-425Y5028D01*
X-422Y5023D01*
X-428Y5008D01*
X-475Y4977D01*
X-475Y4976D01*
X-478Y4975D01*
Y4975D01*
X-478Y4975D01*
X-519Y4984D01*
X-613D01*
X-638Y5008D01*
X-664Y5025D01*
X-695Y5032D01*
X-695Y5032D01*
X-1029D01*
Y5047D01*
X-1029D01*
Y5217D01*
X-985Y5240D01*
X-944Y5213D01*
X-917Y5207D01*
Y5373D01*
Y5538D01*
X-944Y5533D01*
X-1000Y5495D01*
X-1037Y5439D01*
X-1045Y5399D01*
X-1094Y5387D01*
X-1107Y5403D01*
X-1103Y5426D01*
X-1116Y5492D01*
X-1153Y5549D01*
X-1200Y5580D01*
X-1204Y5616D01*
X-1200Y5635D01*
X-1166Y5668D01*
X-455D01*
X-451Y5662D01*
D02*
G37*
G36*
X107Y4939D02*
X120Y4942D01*
X165Y4972D01*
X165Y4972D01*
X188Y4994D01*
X223Y4970D01*
X264Y4962D01*
X305Y4970D01*
X340Y4994D01*
X385D01*
X420Y4970D01*
X461Y4962D01*
X502Y4970D01*
X537Y4994D01*
X582D01*
X617Y4970D01*
X658Y4962D01*
X699Y4970D01*
X706Y4975D01*
X742Y4940D01*
X718Y4905D01*
X707Y4850D01*
X718Y4795D01*
X749Y4749D01*
X795Y4718D01*
X850Y4707D01*
X860Y4709D01*
X907Y4700D01*
X918Y4645D01*
X949Y4599D01*
X995Y4568D01*
X1050Y4557D01*
X1105Y4568D01*
X1151Y4599D01*
X1182Y4645D01*
X1193Y4700D01*
X1182Y4755D01*
X1151Y4801D01*
X1132Y4814D01*
Y4966D01*
X1145Y4975D01*
X1176Y4991D01*
X1207Y4970D01*
X1248Y4962D01*
X1289Y4970D01*
X1324Y4994D01*
X1369D01*
X1404Y4970D01*
X1445Y4962D01*
X1486Y4970D01*
X1521Y4994D01*
X1566D01*
X1601Y4970D01*
X1642Y4962D01*
X1683Y4970D01*
X1718Y4994D01*
X1763D01*
X1798Y4970D01*
X1839Y4962D01*
X1880Y4970D01*
X1915Y4994D01*
X1960D01*
X1995Y4970D01*
X2036Y4962D01*
X2077Y4970D01*
X2112Y4994D01*
X2157D01*
X2192Y4970D01*
X2233Y4962D01*
X2274Y4970D01*
X2308Y4994D01*
X2354D01*
X2389Y4970D01*
X2430Y4962D01*
X2462Y4969D01*
X2485Y4924D01*
X2445Y4884D01*
X2400Y4893D01*
X2345Y4882D01*
X2299Y4851D01*
X2268Y4805D01*
X2257Y4750D01*
X2268Y4695D01*
X2299Y4649D01*
X2345Y4618D01*
X2400Y4607D01*
X2455Y4618D01*
X2501Y4649D01*
X2532Y4695D01*
X2543Y4750D01*
X2543Y4751D01*
X2667Y4876D01*
X2715Y4861D01*
X2720Y4835D01*
X2744Y4801D01*
Y4755D01*
X2720Y4721D01*
X2712Y4680D01*
X2720Y4639D01*
X2678Y4610D01*
X2672Y4615D01*
X2617Y4625D01*
X2563Y4615D01*
X2516Y4584D01*
X2485Y4537D01*
X2475Y4483D01*
X2485Y4428D01*
X2516Y4382D01*
X2563Y4351D01*
X2617Y4340D01*
X2672Y4351D01*
X2678Y4355D01*
X2720Y4327D01*
X2712Y4286D01*
X2720Y4245D01*
X2722Y4242D01*
X2687Y4207D01*
X2666Y4221D01*
X2611Y4232D01*
X2556Y4221D01*
X2510Y4190D01*
X2479Y4144D01*
X2468Y4089D01*
X2479Y4034D01*
X2510Y3988D01*
X2556Y3957D01*
X2611Y3946D01*
X2666Y3957D01*
X2687Y3971D01*
X2722Y3936D01*
X2720Y3933D01*
X2712Y3892D01*
X2720Y3851D01*
X2740Y3821D01*
X2717Y3777D01*
X2519D01*
X2506Y3796D01*
X2459Y3827D01*
X2405Y3838D01*
X2350Y3827D01*
X2321Y3807D01*
X2276Y3831D01*
Y4400D01*
X2276Y4400D01*
X2271Y4429D01*
X2254Y4454D01*
X1987Y4721D01*
X1993Y4750D01*
X1982Y4805D01*
X1951Y4851D01*
X1905Y4882D01*
X1850Y4893D01*
X1795Y4882D01*
X1749Y4851D01*
X1718Y4805D01*
X1707Y4750D01*
X1718Y4695D01*
X1749Y4649D01*
X1795Y4618D01*
X1850Y4607D01*
X1879Y4613D01*
X2040Y4451D01*
X2021Y4405D01*
X1190D01*
Y3400D01*
X1150D01*
Y3360D01*
X145D01*
Y2395D01*
D01*
Y2395D01*
X132Y2382D01*
X34D01*
X-120Y2535D01*
X-106Y2579D01*
X-60Y2610D01*
X-29Y2656D01*
X-18Y2711D01*
X-29Y2766D01*
X-60Y2812D01*
X-106Y2843D01*
X-161Y2854D01*
X-216Y2843D01*
X-262Y2812D01*
X-275Y2793D01*
X-417D01*
X-440Y2837D01*
X-420Y2867D01*
X-412Y2908D01*
X-420Y2949D01*
X-444Y2984D01*
Y3029D01*
X-420Y3064D01*
X-412Y3105D01*
X-420Y3146D01*
X-444Y3181D01*
Y3226D01*
X-420Y3261D01*
X-412Y3302D01*
X-420Y3343D01*
X-443Y3376D01*
X-424Y3422D01*
X-420Y3423D01*
X-394Y3441D01*
X-292Y3542D01*
X-292Y3542D01*
X-282Y3558D01*
X-275Y3569D01*
X-273Y3575D01*
X-224Y3584D01*
X-201Y3549D01*
X-155Y3518D01*
X-100Y3507D01*
X-45Y3518D01*
X1Y3549D01*
X32Y3595D01*
X43Y3650D01*
X32Y3705D01*
X1Y3751D01*
X-45Y3782D01*
X-100Y3793D01*
X-155Y3782D01*
X-201Y3751D01*
X-221Y3722D01*
X-268Y3736D01*
Y4416D01*
X-116Y4568D01*
X386D01*
X399Y4549D01*
X445Y4518D01*
X500Y4507D01*
X555Y4518D01*
X601Y4549D01*
X632Y4595D01*
X643Y4650D01*
X632Y4705D01*
X601Y4751D01*
X555Y4782D01*
X500Y4793D01*
X445Y4782D01*
X399Y4751D01*
X386Y4732D01*
X-150D01*
X-150Y4732D01*
X-181Y4725D01*
X-208Y4708D01*
X-208Y4708D01*
X-381Y4534D01*
X-431Y4539D01*
X-444Y4558D01*
Y4604D01*
X-420Y4639D01*
X-412Y4680D01*
X-416Y4700D01*
X-381Y4735D01*
X-374Y4734D01*
X-319Y4744D01*
X-273Y4775D01*
X-242Y4822D01*
X-231Y4876D01*
X-241Y4925D01*
X-199Y4953D01*
X-182Y4942D01*
X-170Y4939D01*
Y5172D01*
X-90D01*
Y4939D01*
X-77Y4942D01*
X-32Y4972D01*
X-30D01*
X15Y4942D01*
X27Y4939D01*
Y5172D01*
X107D01*
Y4939D01*
D02*
G37*
G36*
X-4711Y3871D02*
X-4720Y3827D01*
X-4709Y3773D01*
X-4678Y3726D01*
X-4632Y3695D01*
X-4577Y3684D01*
X-4523Y3695D01*
X-4518Y3698D01*
X-4468Y3698D01*
Y3698D01*
X-4304D01*
Y3602D01*
X-4468D01*
Y3583D01*
X-4512Y3560D01*
X-4545Y3582D01*
X-4600Y3593D01*
X-4655Y3582D01*
X-4701Y3551D01*
X-4732Y3505D01*
X-4743Y3450D01*
X-4732Y3395D01*
X-4701Y3349D01*
X-4655Y3318D01*
X-4607Y3309D01*
Y3274D01*
X-4607D01*
Y3135D01*
X-4350D01*
Y3095D01*
X-4310D01*
Y2917D01*
X-4304D01*
Y2653D01*
X-4577D01*
Y2356D01*
X-4304D01*
Y450D01*
X-6100D01*
X-6125Y527D01*
X-6074Y962D01*
X-5980Y1436D01*
X-5849Y1900D01*
X-5682Y2353D01*
X-5479Y2792D01*
X-5244Y3213D01*
X-5169Y3325D01*
X-5122Y3306D01*
X-5126Y3290D01*
X-4990D01*
Y3426D01*
X-5020Y3420D01*
X-5068Y3388D01*
X-5103Y3423D01*
X-4975Y3615D01*
X-4757Y3892D01*
X-4711Y3871D01*
D02*
G37*
G36*
X-121Y-4407D02*
Y-4861D01*
X-121Y-4861D01*
X-114Y-4892D01*
X-97Y-4919D01*
X-41Y-4975D01*
X-41Y-4975D01*
X-14Y-4992D01*
X17Y-4999D01*
X17Y-4999D01*
X285D01*
Y-5203D01*
X327D01*
X119Y-5410D01*
X102Y-5437D01*
X96Y-5468D01*
X96Y-5468D01*
Y-5509D01*
X76Y-5522D01*
X45Y-5568D01*
X34Y-5623D01*
X45Y-5677D01*
X76Y-5724D01*
X123Y-5755D01*
X177Y-5766D01*
X232Y-5755D01*
X278Y-5724D01*
X285Y-5714D01*
Y-6069D01*
X465D01*
X406Y-6134D01*
X0Y-6150D01*
X-483Y-6131D01*
X-962Y-6074D01*
X-986Y-6069D01*
X-285D01*
Y-5497D01*
X-327D01*
X-309Y-5479D01*
X-305Y-5482D01*
X-250Y-5493D01*
X-195Y-5482D01*
X-149Y-5451D01*
X-118Y-5405D01*
X-107Y-5350D01*
X-118Y-5295D01*
X-149Y-5249D01*
X-154Y-5246D01*
Y-4407D01*
X-137Y-4382D01*
X-121Y-4407D01*
D02*
G37*
%LPC*%
G36*
X2093Y-1217D02*
X1967D01*
Y-1343D01*
X1993Y-1337D01*
X2050Y-1300D01*
X2087Y-1243D01*
X2093Y-1217D01*
D02*
G37*
G36*
X-473Y-1230D02*
X-485Y-1233D01*
X-530Y-1262D01*
X-560Y-1307D01*
X-570Y-1360D01*
Y-1432D01*
X-473D01*
Y-1230D01*
D02*
G37*
G36*
X945Y-1012D02*
X891Y-1023D01*
X844Y-1054D01*
X813Y-1100D01*
X803Y-1155D01*
X813Y-1209D01*
X844Y-1256D01*
X864Y-1269D01*
Y-1293D01*
X847Y-1318D01*
X824Y-1284D01*
X789Y-1261D01*
X748Y-1253D01*
X707Y-1261D01*
X673Y-1284D01*
X668Y-1291D01*
X649Y-1262D01*
X604Y-1233D01*
X592Y-1230D01*
Y-1472D01*
Y-1714D01*
X604Y-1712D01*
X649Y-1682D01*
X668Y-1653D01*
X673Y-1660D01*
X707Y-1683D01*
X748Y-1691D01*
X789Y-1683D01*
X824Y-1660D01*
X847Y-1626D01*
X869Y-1660D01*
X904Y-1683D01*
X945Y-1691D01*
X986Y-1683D01*
X1021Y-1660D01*
X1044Y-1626D01*
X1066Y-1660D01*
X1101Y-1683D01*
X1142Y-1691D01*
X1183Y-1683D01*
X1218Y-1660D01*
X1241Y-1626D01*
X1263Y-1660D01*
X1298Y-1683D01*
X1339Y-1691D01*
X1380Y-1683D01*
X1415Y-1660D01*
X1437Y-1626D01*
X1460Y-1660D01*
X1495Y-1683D01*
X1536Y-1691D01*
X1577Y-1683D01*
X1612Y-1660D01*
X1634Y-1626D01*
X1657Y-1660D01*
X1692Y-1683D01*
X1733Y-1691D01*
X1774Y-1683D01*
X1808Y-1660D01*
X1832Y-1625D01*
X1840Y-1584D01*
Y-1360D01*
X1832Y-1319D01*
X1830Y-1317D01*
X1861Y-1337D01*
X1887Y-1343D01*
Y-1217D01*
X1762D01*
X1767Y-1243D01*
X1783Y-1267D01*
X1774Y-1261D01*
X1733Y-1253D01*
X1692Y-1261D01*
X1657Y-1284D01*
X1634Y-1318D01*
X1617Y-1293D01*
Y-1278D01*
X1637Y-1265D01*
X1668Y-1219D01*
X1679Y-1164D01*
X1668Y-1110D01*
X1637Y-1063D01*
X1590Y-1032D01*
X1536Y-1021D01*
X1481Y-1032D01*
X1435Y-1063D01*
X1404Y-1110D01*
X1393Y-1164D01*
X1404Y-1219D01*
X1435Y-1265D01*
X1454Y-1278D01*
Y-1293D01*
X1437Y-1318D01*
X1415Y-1284D01*
X1380Y-1261D01*
X1339Y-1253D01*
X1298Y-1261D01*
X1263Y-1284D01*
X1241Y-1318D01*
X1218Y-1284D01*
X1183Y-1261D01*
X1142Y-1253D01*
X1101Y-1261D01*
X1066Y-1284D01*
X1044Y-1318D01*
X1027Y-1293D01*
Y-1269D01*
X1046Y-1256D01*
X1077Y-1209D01*
X1088Y-1155D01*
X1077Y-1100D01*
X1046Y-1054D01*
X1000Y-1023D01*
X945Y-1012D01*
D02*
G37*
G36*
X1415Y-890D02*
X1290D01*
Y-1015D01*
X1316Y-1010D01*
X1373Y-973D01*
X1410Y-916D01*
X1415Y-890D01*
D02*
G37*
G36*
X-1340Y-835D02*
X-1366Y-840D01*
X-1423Y-877D01*
X-1460Y-934D01*
X-1473Y-1000D01*
X-1460Y-1066D01*
X-1428Y-1114D01*
X-1498D01*
Y-1432D01*
X-1340D01*
Y-1273D01*
X-1300D01*
Y-1233D01*
X-1102D01*
Y-1114D01*
X-1172D01*
X-1140Y-1066D01*
X-1135Y-1040D01*
X-1300D01*
Y-1000D01*
X-1340D01*
Y-835D01*
D02*
G37*
G36*
X-1102Y-1313D02*
X-1260D01*
Y-1432D01*
X-1102D01*
Y-1313D01*
D02*
G37*
G36*
X3350Y-1177D02*
X3284Y-1190D01*
X3227Y-1227D01*
X3190Y-1284D01*
X3185Y-1310D01*
X3515D01*
X3510Y-1284D01*
X3473Y-1227D01*
X3416Y-1190D01*
X3350Y-1177D01*
D02*
G37*
G36*
X-367Y-890D02*
X-486D01*
Y-1048D01*
X-367D01*
Y-890D01*
D02*
G37*
G36*
X1967Y-1012D02*
Y-1137D01*
X2093D01*
X2087Y-1111D01*
X2050Y-1055D01*
X1993Y-1017D01*
X1967Y-1012D01*
D02*
G37*
G36*
X1210Y-890D02*
X1085D01*
X1090Y-916D01*
X1127Y-973D01*
X1184Y-1010D01*
X1210Y-1015D01*
Y-890D01*
D02*
G37*
G36*
X-168D02*
X-287D01*
Y-1048D01*
X-168D01*
Y-890D01*
D02*
G37*
G36*
X-276Y-1230D02*
X-289Y-1233D01*
X-333Y-1262D01*
X-334Y-1264D01*
X-335Y-1262D01*
X-380Y-1233D01*
X-393Y-1230D01*
Y-1472D01*
Y-1714D01*
X-380Y-1712D01*
X-335Y-1682D01*
X-334Y-1680D01*
X-333Y-1682D01*
X-289Y-1712D01*
X-276Y-1714D01*
Y-1472D01*
Y-1230D01*
D02*
G37*
G36*
X-79D02*
X-92Y-1233D01*
X-136Y-1262D01*
X-137Y-1264D01*
X-138Y-1262D01*
X-183Y-1233D01*
X-196Y-1230D01*
Y-1472D01*
Y-1714D01*
X-183Y-1712D01*
X-138Y-1682D01*
X-137Y-1680D01*
X-136Y-1682D01*
X-92Y-1712D01*
X-79Y-1714D01*
Y-1472D01*
Y-1230D01*
D02*
G37*
G36*
X1887Y-1012D02*
X1861Y-1017D01*
X1805Y-1055D01*
X1767Y-1111D01*
X1762Y-1137D01*
X1887D01*
Y-1012D01*
D02*
G37*
G36*
X3532Y-990D02*
X3214D01*
Y-1148D01*
X3532D01*
Y-990D01*
D02*
G37*
G36*
X610Y-1756D02*
X-444D01*
Y-2810D01*
X610D01*
Y-1756D01*
D02*
G37*
G36*
X1360Y-4868D02*
X1202D01*
Y-4987D01*
X1360D01*
Y-4868D01*
D02*
G37*
G36*
X3510Y-2340D02*
X3385D01*
X3390Y-2366D01*
X3427Y-2423D01*
X3484Y-2460D01*
X3510Y-2465D01*
Y-2340D01*
D02*
G37*
G36*
X1744Y-1756D02*
X690D01*
Y-2810D01*
X1744D01*
Y-1756D01*
D02*
G37*
G36*
X188Y-5217D02*
X63D01*
Y-5343D01*
X89Y-5337D01*
X145Y-5300D01*
X183Y-5243D01*
X188Y-5217D01*
D02*
G37*
G36*
X-17D02*
X-143D01*
X-137Y-5243D01*
X-100Y-5300D01*
X-44Y-5337D01*
X-17Y-5343D01*
Y-5217D01*
D02*
G37*
G36*
X63Y-5012D02*
Y-5137D01*
X188D01*
X183Y-5111D01*
X145Y-5055D01*
X89Y-5017D01*
X63Y-5012D01*
D02*
G37*
G36*
X-17D02*
X-44Y-5017D01*
X-100Y-5055D01*
X-137Y-5111D01*
X-143Y-5137D01*
X-17D01*
Y-5012D01*
D02*
G37*
G36*
X3715Y-2340D02*
X3590D01*
Y-2465D01*
X3616Y-2460D01*
X3673Y-2423D01*
X3710Y-2366D01*
X3715Y-2340D01*
D02*
G37*
G36*
X-473Y-1512D02*
X-570D01*
Y-1584D01*
X-560Y-1637D01*
X-530Y-1682D01*
X-485Y-1712D01*
X-473Y-1714D01*
Y-1512D01*
D02*
G37*
G36*
X3050Y-1457D02*
X2995Y-1468D01*
X2949Y-1499D01*
X2918Y-1545D01*
X2907Y-1600D01*
X2918Y-1655D01*
X2949Y-1701D01*
X2995Y-1732D01*
X3010Y-1735D01*
X2984Y-1740D01*
X2927Y-1777D01*
X2890Y-1834D01*
X2885Y-1860D01*
X3215D01*
X3210Y-1834D01*
X3173Y-1777D01*
X3116Y-1740D01*
X3090Y-1735D01*
X3105Y-1732D01*
X3151Y-1701D01*
X3182Y-1655D01*
X3193Y-1600D01*
X3182Y-1545D01*
X3151Y-1499D01*
X3105Y-1468D01*
X3050Y-1457D01*
D02*
G37*
G36*
X3515Y-1390D02*
X3390D01*
Y-1515D01*
X3416Y-1510D01*
X3473Y-1473D01*
X3510Y-1416D01*
X3515Y-1390D01*
D02*
G37*
G36*
X3310D02*
X3185D01*
X3190Y-1416D01*
X3227Y-1473D01*
X3284Y-1510D01*
X3310Y-1515D01*
Y-1390D01*
D02*
G37*
G36*
X3590Y-2135D02*
Y-2260D01*
X3715D01*
X3710Y-2234D01*
X3673Y-2177D01*
X3616Y-2140D01*
X3590Y-2135D01*
D02*
G37*
G36*
X3510D02*
X3484Y-2140D01*
X3427Y-2177D01*
X3390Y-2234D01*
X3385Y-2260D01*
X3510D01*
Y-2135D01*
D02*
G37*
G36*
X3215Y-1940D02*
X3090D01*
Y-2065D01*
X3116Y-2060D01*
X3173Y-2023D01*
X3210Y-1966D01*
X3215Y-1940D01*
D02*
G37*
G36*
X3010D02*
X2885D01*
X2890Y-1966D01*
X2927Y-2023D01*
X2984Y-2060D01*
X3010Y-2065D01*
Y-1940D01*
D02*
G37*
G36*
X-4990Y2626D02*
X-5020Y2620D01*
X-5080Y2580D01*
X-5120Y2520D01*
X-5125Y2493D01*
X-5175D01*
X-5180Y2520D01*
X-5220Y2580D01*
X-5280Y2620D01*
X-5310Y2626D01*
Y2450D01*
Y2274D01*
X-5280Y2280D01*
X-5220Y2320D01*
X-5180Y2380D01*
X-5175Y2407D01*
X-5125D01*
X-5120Y2380D01*
X-5080Y2320D01*
X-5020Y2280D01*
X-4990Y2274D01*
Y2450D01*
Y2626D01*
D02*
G37*
G36*
X-4910D02*
Y2490D01*
X-4774D01*
X-4780Y2520D01*
X-4820Y2580D01*
X-4880Y2620D01*
X-4910Y2626D01*
D02*
G37*
G36*
X-4574Y2810D02*
X-4710D01*
Y2674D01*
X-4680Y2680D01*
X-4620Y2720D01*
X-4580Y2780D01*
X-4574Y2810D01*
D02*
G37*
G36*
X-5190D02*
X-5326D01*
X-5320Y2780D01*
X-5280Y2720D01*
X-5220Y2680D01*
X-5190Y2674D01*
Y2810D01*
D02*
G37*
G36*
X-5390Y2626D02*
X-5420Y2620D01*
X-5480Y2580D01*
X-5520Y2520D01*
X-5526Y2490D01*
X-5390D01*
Y2626D01*
D02*
G37*
G36*
X-5337Y2138D02*
X-5456D01*
Y1980D01*
X-5337D01*
Y2138D01*
D02*
G37*
G36*
X-5536D02*
X-5654D01*
Y1980D01*
X-5536D01*
Y2138D01*
D02*
G37*
G36*
X-4774Y2410D02*
X-4910D01*
Y2274D01*
X-4880Y2280D01*
X-4820Y2320D01*
X-4780Y2380D01*
X-4774Y2410D01*
D02*
G37*
G36*
X-5390D02*
X-5526D01*
X-5520Y2380D01*
X-5480Y2320D01*
X-5420Y2280D01*
X-5390Y2274D01*
Y2410D01*
D02*
G37*
G36*
X1110Y4405D02*
X145D01*
Y3440D01*
X1110D01*
Y4405D01*
D02*
G37*
G36*
X-4910Y3426D02*
Y3290D01*
X-4774D01*
X-4780Y3320D01*
X-4820Y3380D01*
X-4880Y3420D01*
X-4910Y3426D01*
D02*
G37*
G36*
X-837Y5538D02*
Y5413D01*
X-712D01*
X-717Y5439D01*
X-755Y5495D01*
X-811Y5533D01*
X-837Y5538D01*
D02*
G37*
G36*
X-712Y5333D02*
X-837D01*
Y5207D01*
X-811Y5213D01*
X-755Y5250D01*
X-717Y5307D01*
X-712Y5333D01*
D02*
G37*
G36*
X-4774Y3210D02*
X-4910D01*
Y3074D01*
X-4880Y3080D01*
X-4820Y3120D01*
X-4780Y3180D01*
X-4774Y3210D01*
D02*
G37*
G36*
X-4790Y3026D02*
X-4820Y3020D01*
X-4880Y2980D01*
X-4920Y2920D01*
X-4925Y2893D01*
X-4975D01*
X-4980Y2920D01*
X-5020Y2980D01*
X-5080Y3020D01*
X-5110Y3026D01*
Y2850D01*
Y2674D01*
X-5080Y2680D01*
X-5020Y2720D01*
X-4980Y2780D01*
X-4975Y2807D01*
X-4925D01*
X-4920Y2780D01*
X-4880Y2720D01*
X-4820Y2680D01*
X-4790Y2674D01*
Y2850D01*
Y3026D01*
D02*
G37*
G36*
X-5190D02*
X-5220Y3020D01*
X-5280Y2980D01*
X-5320Y2920D01*
X-5326Y2890D01*
X-5190D01*
Y3026D01*
D02*
G37*
G36*
X-4990Y3210D02*
X-5126D01*
X-5120Y3180D01*
X-5080Y3120D01*
X-5020Y3080D01*
X-4990Y3074D01*
Y3210D01*
D02*
G37*
G36*
X-4390Y3055D02*
X-4607D01*
Y3024D01*
X-4651Y3001D01*
X-4680Y3020D01*
X-4710Y3026D01*
Y2890D01*
X-4562D01*
X-4540Y2917D01*
X-4390D01*
Y3055D01*
D02*
G37*
G36*
X-5286Y752D02*
X-5434D01*
Y515D01*
X-5286D01*
Y752D01*
D02*
G37*
G36*
X-5514D02*
X-5662D01*
Y515D01*
X-5514D01*
Y752D01*
D02*
G37*
G36*
Y1069D02*
X-5662D01*
Y832D01*
X-5514D01*
Y1069D01*
D02*
G37*
G36*
X-4568Y1039D02*
X-4884D01*
Y545D01*
X-4568D01*
Y1039D01*
D02*
G37*
G36*
X1250Y-677D02*
X1184Y-690D01*
X1127Y-727D01*
X1090Y-784D01*
X1085Y-810D01*
X1415D01*
X1410Y-784D01*
X1373Y-727D01*
X1316Y-690D01*
X1250Y-677D01*
D02*
G37*
G36*
X3333Y-752D02*
X3214D01*
Y-910D01*
X3333D01*
Y-752D01*
D02*
G37*
G36*
X-1260Y-835D02*
Y-960D01*
X-1135D01*
X-1140Y-934D01*
X-1177Y-877D01*
X-1234Y-840D01*
X-1260Y-835D01*
D02*
G37*
G36*
X-168Y-652D02*
X-486D01*
Y-810D01*
X-168D01*
Y-652D01*
D02*
G37*
G36*
X3532Y-752D02*
X3413D01*
Y-910D01*
X3532D01*
Y-752D01*
D02*
G37*
G36*
X-5536Y1900D02*
X-5654D01*
Y1742D01*
X-5536D01*
Y1900D01*
D02*
G37*
G36*
X-5267Y1657D02*
X-5405D01*
Y1440D01*
X-5267D01*
Y1657D01*
D02*
G37*
G36*
X-5013Y2108D02*
X-5270D01*
Y1772D01*
X-5013D01*
Y1796D01*
X-4968Y1820D01*
X-4922Y1789D01*
X-4860Y1777D01*
X-4798Y1789D01*
X-4745Y1825D01*
X-4709Y1878D01*
X-4697Y1940D01*
X-4709Y2002D01*
X-4745Y2055D01*
X-4798Y2091D01*
X-4860Y2103D01*
X-4922Y2091D01*
X-4968Y2060D01*
X-5013Y2084D01*
Y2108D01*
D02*
G37*
G36*
X-5337Y1900D02*
X-5456D01*
Y1742D01*
X-5337D01*
Y1900D01*
D02*
G37*
G36*
X-5485Y1657D02*
X-5624D01*
Y1440D01*
X-5485D01*
Y1657D01*
D02*
G37*
G36*
Y1360D02*
X-5624D01*
Y1143D01*
X-5485D01*
Y1360D01*
D02*
G37*
G36*
X-5286Y1069D02*
X-5434D01*
Y832D01*
X-5286D01*
Y1069D01*
D02*
G37*
G36*
X-4706Y1627D02*
X-5003D01*
Y1173D01*
X-4706D01*
Y1257D01*
X-4694Y1266D01*
X-4662Y1283D01*
X-4612Y1249D01*
X-4550Y1237D01*
X-4488Y1249D01*
X-4435Y1285D01*
X-4399Y1338D01*
X-4387Y1400D01*
X-4399Y1462D01*
X-4435Y1515D01*
X-4488Y1551D01*
X-4550Y1563D01*
X-4612Y1551D01*
X-4662Y1517D01*
X-4694Y1534D01*
X-4706Y1543D01*
Y1627D01*
D02*
G37*
G36*
X-5267Y1360D02*
X-5405D01*
Y1143D01*
X-5267D01*
Y1360D01*
D02*
G37*
%LPD*%
D10*
X-1850Y5650D02*
G03*
X-1850Y5650I-50J0D01*
G01*
X-5850Y200D02*
G03*
X-5850Y200I-50J0D01*
G01*
Y800D02*
G03*
X-5850Y800I-50J0D01*
G01*
X5001Y3300D02*
G03*
X4252Y3499I-401J0D01*
G01*
D11*
X-3250Y-2350D02*
D03*
D12*
X-1695Y-1600D02*
D03*
Y-2100D02*
D03*
Y-2600D02*
D03*
Y-3100D02*
D03*
X-4805D02*
D03*
Y-2600D02*
D03*
Y-2100D02*
D03*
Y-1600D02*
D03*
D13*
X415Y-395D02*
D03*
Y-198D02*
D03*
Y-2D02*
D03*
Y195D02*
D03*
X-215D02*
D03*
Y-2D02*
D03*
Y-198D02*
D03*
Y-395D02*
D03*
D14*
X100Y294D02*
D03*
Y-494D02*
D03*
D15*
X-4250Y127D02*
D03*
Y-227D02*
D03*
X-750Y177D02*
D03*
Y-177D02*
D03*
X-1150Y2677D02*
D03*
Y2323D02*
D03*
X-3850Y2773D02*
D03*
Y3127D02*
D03*
X5300Y-2127D02*
D03*
Y-1773D02*
D03*
X-2800Y2727D02*
D03*
Y2373D02*
D03*
X-1100Y1777D02*
D03*
Y1423D02*
D03*
X-1600Y3477D02*
D03*
Y3123D02*
D03*
X-3850Y3827D02*
D03*
Y3473D02*
D03*
X-1150Y3477D02*
D03*
Y3123D02*
D03*
X-4300Y3827D02*
D03*
Y3473D02*
D03*
X-5300Y-2223D02*
D03*
Y-2577D02*
D03*
X-1300Y-1273D02*
D03*
Y-1627D02*
D03*
X-1900Y-5077D02*
D03*
Y-4723D02*
D03*
X-1400Y-4277D02*
D03*
Y-3923D02*
D03*
X-1900Y-4327D02*
D03*
Y-3973D02*
D03*
X1400Y-4673D02*
D03*
Y-5027D02*
D03*
X1900D02*
D03*
Y-4673D02*
D03*
X2600Y-4527D02*
D03*
Y-4173D02*
D03*
X2650Y-2927D02*
D03*
Y-2573D02*
D03*
X-750Y927D02*
D03*
Y573D02*
D03*
X0Y5573D02*
D03*
Y5927D02*
D03*
X400Y5573D02*
D03*
Y5927D02*
D03*
X-1600Y4177D02*
D03*
Y3823D02*
D03*
D16*
X-5445Y1400D02*
D03*
X-4855D02*
D03*
X3745Y-450D02*
D03*
X3155D02*
D03*
X-3595Y650D02*
D03*
X-3005D02*
D03*
X-3595Y2000D02*
D03*
X-3005D02*
D03*
D17*
X-2377Y2700D02*
D03*
X-2023D02*
D03*
X-3627Y4600D02*
D03*
X-3273D02*
D03*
X-3823Y4200D02*
D03*
X-4177D02*
D03*
X-5527Y-1600D02*
D03*
X-5173D02*
D03*
X2573Y-3400D02*
D03*
X2927D02*
D03*
X3373Y-950D02*
D03*
X3727D02*
D03*
X1073Y1200D02*
D03*
X1427D02*
D03*
X-327Y-850D02*
D03*
X27D02*
D03*
X-3273Y1200D02*
D03*
X-3627D02*
D03*
X-5141Y1940D02*
D03*
X-5496D02*
D03*
X1527Y5600D02*
D03*
X1173D02*
D03*
D18*
X-4350Y3095D02*
D03*
Y2505D02*
D03*
D19*
X1150Y3400D02*
D03*
D20*
X-326Y5172D02*
D03*
X-130D02*
D03*
X67D02*
D03*
X264D02*
D03*
X461D02*
D03*
X658D02*
D03*
X855D02*
D03*
X1052D02*
D03*
X1248D02*
D03*
X1445D02*
D03*
X1642D02*
D03*
X1839D02*
D03*
X2036D02*
D03*
X2233D02*
D03*
X2430D02*
D03*
X2626D02*
D03*
Y1628D02*
D03*
X2430D02*
D03*
X2233D02*
D03*
X2036D02*
D03*
X1839D02*
D03*
X1642D02*
D03*
X1445D02*
D03*
X1248D02*
D03*
X1052D02*
D03*
X855D02*
D03*
X658D02*
D03*
X461D02*
D03*
X264D02*
D03*
X67D02*
D03*
X-130D02*
D03*
X-326D02*
D03*
D21*
X2922Y4876D02*
D03*
Y4680D02*
D03*
Y4483D02*
D03*
Y4286D02*
D03*
Y4089D02*
D03*
Y3892D02*
D03*
Y3695D02*
D03*
Y3498D02*
D03*
Y3302D02*
D03*
Y3105D02*
D03*
Y2908D02*
D03*
Y2711D02*
D03*
Y2514D02*
D03*
Y2317D02*
D03*
Y2120D02*
D03*
Y1924D02*
D03*
X-622D02*
D03*
Y2120D02*
D03*
Y2317D02*
D03*
Y2514D02*
D03*
Y2711D02*
D03*
Y2908D02*
D03*
Y3105D02*
D03*
Y3302D02*
D03*
Y3498D02*
D03*
Y3695D02*
D03*
Y3892D02*
D03*
Y4089D02*
D03*
Y4286D02*
D03*
Y4483D02*
D03*
Y4680D02*
D03*
Y4876D02*
D03*
D22*
X650Y-2850D02*
D03*
D23*
X1733Y-4228D02*
D03*
X1536D02*
D03*
X1339D02*
D03*
X1142D02*
D03*
X945D02*
D03*
X748D02*
D03*
X552D02*
D03*
X355D02*
D03*
X158D02*
D03*
X-39D02*
D03*
X-236D02*
D03*
X-433D02*
D03*
Y-1472D02*
D03*
X-236D02*
D03*
X-39D02*
D03*
X158D02*
D03*
X355D02*
D03*
X552D02*
D03*
X748D02*
D03*
X945D02*
D03*
X1142D02*
D03*
X1339D02*
D03*
X1536D02*
D03*
X1733D02*
D03*
D24*
X-728Y-3933D02*
D03*
Y-3736D02*
D03*
Y-3539D02*
D03*
Y-3342D02*
D03*
Y-3145D02*
D03*
Y-2948D02*
D03*
Y-2752D02*
D03*
Y-2555D02*
D03*
Y-2358D02*
D03*
Y-2161D02*
D03*
Y-1964D02*
D03*
Y-1767D02*
D03*
X2028D02*
D03*
Y-1964D02*
D03*
Y-2161D02*
D03*
Y-2358D02*
D03*
Y-2555D02*
D03*
Y-2752D02*
D03*
Y-2948D02*
D03*
Y-3145D02*
D03*
Y-3342D02*
D03*
Y-3539D02*
D03*
Y-3736D02*
D03*
Y-3933D02*
D03*
D25*
X-2258Y3266D02*
D03*
Y3522D02*
D03*
Y3778D02*
D03*
Y4034D02*
D03*
X-3242Y3266D02*
D03*
Y3522D02*
D03*
Y3778D02*
D03*
Y4034D02*
D03*
D26*
X4547Y-512D02*
D03*
Y-256D02*
D03*
Y512D02*
D03*
Y256D02*
D03*
Y0D02*
D03*
D27*
X5600Y472D02*
D03*
Y-472D02*
D03*
D28*
X4616Y1260D02*
D03*
Y-1260D02*
D03*
D29*
X-5474Y792D02*
D03*
X-4726D02*
D03*
Y-192D02*
D03*
X-5100D02*
D03*
X-5474D02*
D03*
D30*
X-3300Y-824D02*
D03*
X-3556Y-76D02*
D03*
X-3044D02*
D03*
D31*
X-2248Y-4303D02*
D03*
Y-4500D02*
D03*
Y-4697D02*
D03*
X-3252D02*
D03*
Y-4500D02*
D03*
Y-4303D02*
D03*
D32*
X-2356Y-5017D02*
D03*
X-2553D02*
D03*
X-2750D02*
D03*
X-2947D02*
D03*
X-3144D02*
D03*
Y-3983D02*
D03*
X-2947D02*
D03*
X-2750D02*
D03*
X-2553D02*
D03*
X-2356D02*
D03*
D33*
X728Y-4917D02*
D03*
X-728D02*
D03*
Y-5783D02*
D03*
X728D02*
D03*
D34*
X3200Y-2850D02*
D03*
D35*
Y-2650D02*
D03*
X3000D02*
D03*
Y-2850D02*
D03*
D36*
X4837Y-2593D02*
D03*
X3534Y-4146D02*
D03*
D37*
X3781Y986D02*
D03*
X3427D02*
D03*
X3073D02*
D03*
X2718D02*
D03*
Y514D02*
D03*
X3073D02*
D03*
X3427D02*
D03*
X3781D02*
D03*
D38*
X4450Y2900D02*
D03*
D39*
X5001Y3294D02*
D03*
Y2900D02*
D03*
Y2506D02*
D03*
X3899D02*
D03*
Y2900D02*
D03*
Y3294D02*
D03*
D40*
X297Y1040D02*
D03*
D41*
X100Y1048D02*
D03*
X-97D02*
D03*
Y752D02*
D03*
X100D02*
D03*
X297D02*
D03*
D42*
X-2056Y1226D02*
D03*
X-1800D02*
D03*
X-1544D02*
D03*
Y1974D02*
D03*
X-2056D02*
D03*
D43*
X-2024Y4950D02*
D03*
X-1276Y4694D02*
D03*
Y4950D02*
D03*
Y5206D02*
D03*
X-2024D02*
D03*
Y4694D02*
D03*
D44*
X-3276Y-800D02*
X-2500D01*
X-1700Y-1850D02*
X-1695Y-1855D01*
Y-2100D02*
Y-1855D01*
X-4805Y-1905D02*
X-4800Y-1900D01*
X-4805Y-2100D02*
Y-1905D01*
Y-2405D02*
X-4800Y-2400D01*
X-4805Y-2600D02*
Y-2405D01*
Y-3100D02*
Y-2855D01*
X-4800Y-2850D01*
X-1300Y-1273D02*
Y-1000D01*
X-2500Y-800D02*
X-2250D01*
X-3300Y-824D02*
X-3276Y-800D01*
X-2250D02*
X-1695Y-1355D01*
Y-1600D02*
Y-1355D01*
X-1700Y-2350D02*
X-1695Y-2355D01*
Y-2600D02*
Y-2355D01*
X-1700Y-3350D02*
X-1695Y-3345D01*
Y-3100D01*
X-1650Y-3700D02*
X-1228Y-3278D01*
Y-3145D01*
X-4828Y-2577D02*
X-4805Y-2600D01*
X-5300Y-2577D02*
X-4828D01*
X-5527Y-1996D02*
X-5300Y-2223D01*
X-5527Y-1996D02*
Y-1600D01*
Y-1077D01*
X-5350Y-900D01*
X-3376D01*
X-3300Y-824D01*
X3843Y3300D02*
X3849Y3294D01*
X3600Y3300D02*
X3843D01*
X3600Y2900D02*
X3849D01*
X2922Y4286D02*
X3286D01*
X1400Y-5027D02*
X1900D01*
X1375Y-4698D02*
X1400Y-4723D01*
X1142Y-4415D02*
X1400Y-4673D01*
X1142Y-4415D02*
Y-4228D01*
X2400Y5500D02*
X2430Y5470D01*
Y5172D02*
Y5470D01*
X-150Y4650D02*
X500D01*
X-350Y4450D02*
X-150Y4650D01*
X-350Y3600D02*
Y4450D01*
X-452Y3498D02*
X-350Y3600D01*
X-622Y3498D02*
X-452D01*
X950Y2000D02*
X1052Y1898D01*
Y1628D02*
Y1898D01*
X867Y2317D02*
X2922D01*
X658Y2108D02*
X867Y2317D01*
X658Y1628D02*
Y2108D01*
X-1000Y4250D02*
X-964Y4286D01*
X-622D01*
X-1350Y4400D02*
X-1267Y4483D01*
X-622D01*
X-1600Y4177D02*
Y4400D01*
X-2853Y-4303D02*
X-2850Y-4300D01*
X-3252Y-4303D02*
X-2853D01*
X-2900Y-3700D02*
X-1650D01*
X-2947Y-3747D02*
X-2900Y-3700D01*
X-2947Y-3983D02*
Y-3747D01*
X2273Y-4527D02*
X2600D01*
X-1228Y-3145D02*
X-728D01*
X-1042Y-3342D02*
X-728D01*
X-1050Y-3350D02*
X-1042Y-3342D01*
X2300Y1950D02*
X2430Y1820D01*
Y1628D02*
Y1820D01*
X2036Y1628D02*
Y1986D01*
X67Y1817D02*
X150Y1900D01*
X67Y1628D02*
Y1817D01*
X-400Y1150D02*
X-326Y1224D01*
Y1628D01*
X-622Y2120D02*
X300D01*
X-622Y2711D02*
X-161D01*
X-1200Y5750D02*
X550D01*
X-1650Y5300D02*
X-1200Y5750D01*
X-1650Y5100D02*
Y5300D01*
X-728Y-1467D02*
X-724Y-1463D01*
X-728Y-1767D02*
Y-1467D01*
X-2050Y5500D02*
X-1900Y5650D01*
X795Y-395D02*
X1250Y-850D01*
X415Y-395D02*
X795D01*
X650Y-2850D02*
X945Y-3145D01*
X2028D01*
X217Y-2417D02*
X650Y-2850D01*
X-216Y-1984D02*
X217Y-2417D01*
X-236Y-1964D02*
X-216Y-1984D01*
X-236Y-1964D02*
Y-1472D01*
X-3044Y-76D02*
X-2626D01*
X-2600Y-50D01*
X-2056Y856D02*
Y1226D01*
X2400Y4750D02*
X2426D01*
X2626Y4950D02*
Y5172D01*
X2426Y4750D02*
X2626Y4950D01*
X-3005Y2000D02*
Y2555D01*
X-3223Y2773D02*
X-3005Y2555D01*
X-3850Y2773D02*
X-3223D01*
X-1800Y850D02*
Y1226D01*
X-2500Y-4250D02*
X-2356Y-4106D01*
Y-3983D01*
X-1450Y-4327D02*
X-1400Y-4277D01*
X-622Y2317D02*
X-317D01*
X0Y2300D02*
X539D01*
X-214Y2514D02*
X0Y2300D01*
X-622Y2514D02*
X-214D01*
X-130Y1080D02*
X-97Y1048D01*
X-130Y1080D02*
Y1628D01*
X-650Y1895D02*
X-622Y1924D01*
X-650Y1650D02*
Y1895D01*
X1050Y5170D02*
X1052Y5172D01*
X1050Y4700D02*
Y5170D01*
X2600Y2000D02*
X2720Y2120D01*
X2922D01*
X945Y-4228D02*
Y-4045D01*
X881Y-3981D02*
X945Y-4045D01*
X569Y-3981D02*
X881D01*
X552Y-3998D02*
X569Y-3981D01*
X552Y-4228D02*
Y-3998D01*
X-1732Y-2D02*
X-215D01*
X881Y-3981D02*
X1681D01*
X1733Y-4228D02*
Y-4033D01*
X2028Y-2752D02*
X2348D01*
X2028Y-3736D02*
X2336D01*
X1681Y-3981D02*
X1733Y-4033D01*
X1798Y-3933D02*
X2028D01*
X1733Y-3998D02*
X1798Y-3933D01*
X1733Y-4033D02*
Y-3998D01*
X2028Y-3933D02*
Y-3736D01*
Y-3539D01*
Y-2555D02*
X2632D01*
X2028Y-2948D02*
X2629D01*
X2650Y-2573D02*
X2923D01*
X3000Y-2650D01*
X2650Y-2927D02*
X2923D01*
X3000Y-2850D01*
X3200Y-3050D02*
Y-2850D01*
X3150Y-3100D02*
X3200Y-3050D01*
X2950Y-3373D02*
X3150Y-3173D01*
Y-3100D01*
X2028Y-3539D02*
Y-3342D01*
X-433Y-4228D02*
Y-4033D01*
X-381Y-3981D01*
X569D01*
X2028Y-2358D02*
X2342D01*
X2028Y-2161D02*
X2289D01*
X2350Y-2100D01*
X1536Y-1472D02*
Y-1164D01*
X-628Y-4228D02*
X-433D01*
X1339Y-1472D02*
X1536D01*
X945D02*
Y-1155D01*
X748Y-1472D02*
X945D01*
X158D02*
Y-1158D01*
X355Y-1472D02*
Y-955D01*
X350Y-950D02*
X355Y-955D01*
X-728Y-1964D02*
X-714Y-1950D01*
X-936Y-1964D02*
X-728D01*
X-1050Y-1850D02*
X-936Y-1964D01*
X-1011Y-2161D02*
X-728D01*
X-1022Y-2150D02*
X-1011Y-2161D01*
X-1039Y-2555D02*
X-728D01*
X-1045D02*
X-1039D01*
X-1198Y-2752D02*
X-728D01*
X-1192Y-2358D02*
X-728D01*
X-1048Y-2948D02*
X-728D01*
X-1211Y-3539D02*
X-728D01*
X-1036Y-3736D02*
X-728D01*
X-1400Y-3923D02*
X-1213Y-3736D01*
X-1036D01*
Y-4064D02*
Y-3736D01*
Y-4064D02*
X-872Y-4228D01*
X-628D01*
X17Y-4917D02*
X728D01*
X-39Y-4861D02*
X17Y-4917D01*
X-39Y-4861D02*
Y-4345D01*
X1733Y-4506D02*
Y-4228D01*
Y-4506D02*
X1900Y-4673D01*
X2028Y-3933D02*
X2356D01*
X177Y-5623D02*
Y-5468D01*
X728Y-4917D01*
X415Y-2D02*
X1532D01*
X1534Y0D01*
X-750Y-177D02*
X-532Y-395D01*
X-215D01*
X100Y-494D02*
X317D01*
X415Y-395D01*
X-215Y-198D02*
X98D01*
X415D01*
X-215Y195D02*
X-97Y313D01*
Y752D01*
X297Y313D02*
Y752D01*
Y313D02*
X415Y195D01*
X100Y32D02*
Y294D01*
Y752D01*
Y1048D02*
Y1300D01*
X-348Y752D02*
X-97D01*
X548D02*
Y952D01*
X460Y1040D02*
X548Y952D01*
X297Y1040D02*
X460D01*
X-2376Y1226D02*
X-2056D01*
X-1826Y1974D02*
X-1800Y2000D01*
X-2056Y1974D02*
X-1826D01*
X-750Y177D02*
Y573D01*
X-1100Y1423D02*
X-923D01*
X-750Y1250D01*
Y927D02*
Y1250D01*
X-1544Y1974D02*
X-1297D01*
X-1100Y1777D01*
X-1297Y1226D02*
X-1100Y1423D01*
X-1544Y1226D02*
X-1297D01*
X-1100Y1777D02*
Y2273D01*
X-1150Y2677D02*
Y3123D01*
X-1600Y3477D02*
X-1150D01*
X-2213D02*
X-1600D01*
X-2023Y2700D02*
Y3031D01*
X-2258Y3266D02*
X-2023Y3031D01*
X-2258Y3266D02*
X-1743D01*
X-1600Y3123D01*
X-4300Y3827D02*
X-4177Y3950D01*
Y4200D01*
X-3801Y3778D02*
X-3242D01*
X-3850Y3827D02*
X-3801Y3778D01*
X-2258Y4034D02*
X-1743D01*
X-1600Y4177D01*
X-4350Y2505D02*
X-3855D01*
X-3850Y2509D01*
Y2773D01*
X-3242Y3778D02*
X-2928D01*
X-4577Y3827D02*
X-4300D01*
X-3823Y4200D02*
X-3627Y4396D01*
Y4600D01*
X-3273D02*
X-2850D01*
X-3627D02*
Y4773D01*
X-3500Y4900D01*
X2573Y-3400D02*
Y-3373D01*
X5300Y-2127D02*
X5577D01*
X2233Y1317D02*
Y1628D01*
X2408Y2908D02*
X2922D01*
X2402Y3302D02*
X2922D01*
X2611Y2711D02*
X2922D01*
X2602Y3498D02*
X2922D01*
X2405Y3695D02*
X2922D01*
X2611Y4089D02*
X2922D01*
X2617Y4483D02*
X2922D01*
X-622Y4876D02*
X-374D01*
X-1261Y4680D02*
X-622D01*
X-2024Y4574D02*
Y4694D01*
Y4574D02*
X-1850Y4400D01*
X-1276Y4950D02*
X-695D01*
X-622Y4876D01*
X-1276Y5206D02*
Y5426D01*
X-2024Y4950D02*
X-1800D01*
X-1650Y5100D01*
X550Y5750D02*
X658Y5642D01*
Y5172D02*
Y5642D01*
X-3242Y3522D02*
X-2922D01*
X-2850Y3450D01*
Y3100D02*
Y3450D01*
X-2950Y3000D02*
X-2850Y3100D01*
X-3250Y3000D02*
X-2950D01*
X-2377Y2473D02*
Y2700D01*
X-2477Y2373D02*
X-2377Y2473D01*
X-2800Y2373D02*
X-2477D01*
X-2800Y2727D02*
X-2700Y2827D01*
Y3550D01*
X-2928Y3778D02*
X-2700Y3550D01*
X-4251Y3522D02*
X-3242D01*
X-2050Y5500D02*
X-2024Y5474D01*
Y5206D02*
Y5474D01*
X-2248Y-4303D02*
X-1924D01*
X-2248Y-4697D02*
X-1926D01*
X-1900Y-4723D02*
X-1623D01*
X-2346Y-3973D02*
X-1900D01*
X-1400Y-4277D02*
X-1123D01*
X-2553Y-5017D02*
X-2356D01*
X-1960D01*
X-1900Y-5077D02*
X-1623D01*
X-1923Y-3950D02*
X-1900Y-3973D01*
X-3252Y-4500D02*
X-3055D01*
X-3144Y-5017D02*
Y-4894D01*
X-3000Y-4750D01*
X2356Y-3933D02*
X2623Y-4200D01*
X-4350Y3095D02*
X-3882D01*
X-3711Y3266D02*
X-3242D01*
X-3850Y3127D02*
X-3711Y3266D01*
X264Y5172D02*
Y5309D01*
X0Y5573D02*
X264Y5309D01*
X461Y5172D02*
Y5512D01*
X400Y5573D02*
X461Y5512D01*
X-323Y5927D02*
X0D01*
X423Y5904D02*
X700D01*
X400Y5927D02*
X423Y5904D01*
X950Y5600D02*
X1173D01*
X855Y5505D02*
X950Y5600D01*
X855Y5172D02*
Y5505D01*
X1527Y5600D02*
X1950D01*
X-3273Y4065D02*
Y4600D01*
Y4065D02*
X-3242Y4034D01*
X-2884D01*
X-2628Y3778D01*
X-2258D01*
X-1645D01*
X552Y-4541D02*
Y-4228D01*
Y-4548D02*
Y-4541D01*
X355Y-4445D02*
Y-4228D01*
X250Y-4550D02*
X355Y-4445D01*
X748Y-4448D02*
Y-4228D01*
X850Y-4550D02*
Y-4541D01*
X748Y-4448D02*
X850Y-4550D01*
X1642Y1098D02*
Y1628D01*
Y1098D02*
X1756Y984D01*
X1248Y1376D02*
Y1628D01*
X1073Y1200D02*
X1248Y1376D01*
X1073Y1150D02*
X1098Y1175D01*
X1427Y923D02*
Y1200D01*
X2386Y2514D02*
X2922D01*
X2350Y2550D02*
X2386Y2514D01*
X3272Y4300D02*
X3286Y4286D01*
X3220Y4680D02*
X3300Y4600D01*
X2922Y4680D02*
X3220D01*
X2922Y4876D02*
X3224D01*
X-250Y-5350D02*
X-236Y-5336D01*
Y-4345D01*
X-295Y-5350D02*
X-250D01*
X-728Y-5783D02*
X-295Y-5350D01*
X1900Y-5250D02*
Y-5027D01*
X-2750Y-5200D02*
Y-5017D01*
Y-5200D02*
X-2650Y-5300D01*
X-1500D01*
X-3403Y-4697D02*
X-3252D01*
X-3500Y-4600D02*
X-3403Y-4697D01*
X-3500Y-4600D02*
Y-4050D01*
X-5900Y-150D02*
Y150D01*
X-5850Y200D01*
X658Y1042D02*
X950Y750D01*
X658Y1042D02*
Y1628D01*
X3105Y-450D02*
X3130Y-475D01*
X1427Y923D02*
X1600Y750D01*
X2382D01*
X2618Y514D01*
X-1900Y-4327D02*
X-1673D01*
X-1650Y-4350D01*
X2400Y-3400D02*
X2573D01*
X5250Y-1723D02*
X5277Y-1750D01*
X5650D01*
X4547Y0D02*
X5050D01*
X4547Y-256D02*
X5044D01*
X5050Y-250D01*
D45*
X-4805Y-1355D02*
X-4800Y-1350D01*
X-4805Y-1600D02*
Y-1355D01*
X-5173Y-1600D02*
X-4805D01*
X-3700Y1600D02*
X-3673D01*
X-3273Y1200D01*
X1850Y4750D02*
X2200Y4400D01*
Y3503D02*
Y4400D01*
Y3503D02*
X2402Y3302D01*
X27Y-850D02*
X250D01*
X350Y-950D01*
X461Y1311D02*
Y1628D01*
X-1300Y-1627D02*
X-1077Y-1850D01*
X-1050D01*
X-3595Y650D02*
Y1168D01*
X-3627Y1200D02*
X-3595Y1168D01*
Y2000D02*
Y2395D01*
X-3600Y2400D02*
X-3595Y2395D01*
X-2750Y1600D02*
X-2376Y1226D01*
X-3195Y1600D02*
X-2750D01*
X-3595Y2000D02*
X-3195Y1600D01*
X-3273Y1200D02*
X-3005Y932D01*
Y650D02*
Y932D01*
X-326Y5172D02*
Y5526D01*
X-327Y5527D02*
X-326Y5526D01*
X855Y4855D02*
Y5172D01*
X850Y4850D02*
X855Y4855D01*
X3800Y1879D02*
Y1900D01*
X3781Y514D02*
X4014D01*
X4150Y650D01*
Y1600D01*
X4400Y1850D01*
Y1900D01*
X3781Y986D02*
Y1860D01*
X3800Y1879D01*
X3427Y3377D02*
X3650Y3600D01*
X3073Y514D02*
X3250Y691D01*
X3200Y3100D02*
X3250Y3050D01*
X2926Y3100D02*
X3200D01*
X2922Y3105D02*
X2926Y3100D01*
X5150Y2900D02*
X5250Y3000D01*
X4951Y2900D02*
X5001D01*
X5150D01*
X3427Y986D02*
Y1650D01*
X3600Y1823D01*
X3250Y1700D02*
X3500Y1950D01*
X3250Y691D02*
Y1700D01*
X3073Y986D02*
Y1773D01*
X3300Y2000D01*
X3250Y2400D02*
Y3050D01*
Y2400D02*
X3500Y2150D01*
Y1950D02*
Y2150D01*
X3427Y2423D02*
Y3377D01*
Y2423D02*
X3600Y2250D01*
Y1823D02*
Y2250D01*
D46*
X3373Y-950D02*
Y-668D01*
X3155Y-450D02*
X3373Y-668D01*
X3350Y-1350D02*
X3373Y-1327D01*
Y-950D01*
X3727Y-468D02*
X3745Y-450D01*
X3727Y-950D02*
Y-468D01*
Y-950D02*
X3750Y-973D01*
Y-1350D02*
Y-973D01*
X-5900Y-150D02*
X-5516D01*
X-4250Y127D02*
X-4123D01*
X-3951Y299D01*
Y451D01*
X-3950Y1200D02*
X-3627D01*
X-4000Y1250D02*
X-3950Y1200D01*
X-4000Y1250D02*
Y1600D01*
X-4800Y-700D02*
X-4726Y-626D01*
X-5350Y-700D02*
X-4800D01*
X-4691Y-227D02*
X-4250D01*
X-4726Y-192D02*
X-4691Y-227D01*
X-5474Y-576D02*
Y-192D01*
Y-576D02*
X-5350Y-700D01*
X-4726Y-626D02*
Y-192D01*
X-5100D02*
Y200D01*
X-4855Y1400D02*
X-4550D01*
X-5141Y1940D02*
X-4860D01*
X4762Y-512D02*
X5050Y-800D01*
X4547Y-512D02*
X4762D01*
X5038Y512D02*
X5050Y500D01*
X4547Y512D02*
X5038D01*
D47*
X4195Y-1950D02*
X4837Y-2593D01*
X3450Y-1950D02*
X4195D01*
X3200Y-2200D02*
X3450Y-1950D01*
X4780Y-2650D02*
X4837Y-2593D01*
X3200Y-2550D02*
Y-2200D01*
D48*
X-3595Y-37D02*
X-3556Y-76D01*
X-3595Y-37D02*
Y650D01*
D49*
X3200Y-2650D02*
Y-2550D01*
X3200Y-2550D02*
X3200Y-2550D01*
D50*
X-1734Y0D02*
D03*
X1534D02*
D03*
D51*
X5600Y1250D02*
D03*
Y-1250D02*
D03*
D52*
X-4116Y-3000D02*
D03*
Y-2567D02*
D03*
Y-2133D02*
D03*
Y-1700D02*
D03*
X-3683Y-3000D02*
D03*
Y-2567D02*
D03*
Y-2133D02*
D03*
Y-1700D02*
D03*
X-3250Y-3000D02*
D03*
Y-2567D02*
D03*
Y-2133D02*
D03*
Y-1700D02*
D03*
X-2817Y-3000D02*
D03*
Y-2567D02*
D03*
Y-2133D02*
D03*
Y-1700D02*
D03*
X-2384Y-3000D02*
D03*
Y-2567D02*
D03*
Y-2133D02*
D03*
Y-1700D02*
D03*
X1800Y2750D02*
D03*
X1367D02*
D03*
X933D02*
D03*
X500D02*
D03*
X1800Y3183D02*
D03*
X1367D02*
D03*
X933D02*
D03*
X500D02*
D03*
X1800Y3617D02*
D03*
X1367D02*
D03*
X933D02*
D03*
X500D02*
D03*
X1800Y4050D02*
D03*
X1367D02*
D03*
X933D02*
D03*
X500D02*
D03*
X-216Y-1984D02*
D03*
X217D02*
D03*
X650D02*
D03*
X1083D02*
D03*
X1516D02*
D03*
X-216Y-2417D02*
D03*
X217D02*
D03*
X650D02*
D03*
X1083D02*
D03*
X1516D02*
D03*
X-216Y-2850D02*
D03*
X217D02*
D03*
X650D02*
D03*
X1083D02*
D03*
X1516D02*
D03*
X-216Y-3283D02*
D03*
X217D02*
D03*
X650D02*
D03*
X1083D02*
D03*
X1516D02*
D03*
X-216Y-3716D02*
D03*
X217D02*
D03*
X650D02*
D03*
X1083D02*
D03*
X1516D02*
D03*
D53*
X-2500Y-800D02*
D03*
X-1700Y-1850D02*
D03*
X-4800Y-1350D02*
D03*
Y-1900D02*
D03*
Y-2400D02*
D03*
Y-2850D02*
D03*
X-1300Y-1000D02*
D03*
X-1700Y-2350D02*
D03*
Y-3350D02*
D03*
X4650Y3500D02*
D03*
X3750Y-1350D02*
D03*
X3600Y3300D02*
D03*
X3250Y3450D02*
D03*
X5250Y2700D02*
D03*
X3600Y2900D02*
D03*
X4450Y-3800D02*
D03*
X3550Y-2300D02*
D03*
X3050Y-1900D02*
D03*
X2400Y5500D02*
D03*
X-100Y3650D02*
D03*
X-1250Y4100D02*
D03*
X950Y2000D02*
D03*
X-1000Y4250D02*
D03*
X500Y4650D02*
D03*
X-1350Y4400D02*
D03*
X-1600D02*
D03*
X-2850Y-4300D02*
D03*
X2273Y-4527D02*
D03*
X-1228Y-3145D02*
D03*
X-1050Y-3350D02*
D03*
X2300Y1950D02*
D03*
X2036Y1986D02*
D03*
X150Y1900D02*
D03*
X300Y2120D02*
D03*
X-161Y2711D02*
D03*
X-1600Y5700D02*
D03*
X-877Y5373D02*
D03*
X-724Y-1463D02*
D03*
X1250Y-850D02*
D03*
X1350Y-5450D02*
D03*
X-2600Y-50D02*
D03*
X-3700Y1600D02*
D03*
X-2056Y856D02*
D03*
X2400Y4750D02*
D03*
X1850D02*
D03*
X-1800Y850D02*
D03*
X-2500Y-4250D02*
D03*
X-317Y2317D02*
D03*
X539Y2300D02*
D03*
X-650Y1650D02*
D03*
X1927Y-1177D02*
D03*
X3050Y-1600D02*
D03*
X2600Y2000D02*
D03*
X2348Y-2752D02*
D03*
X2336Y-3736D02*
D03*
X3150Y-3100D02*
D03*
X2342Y-2358D02*
D03*
X2350Y-2100D02*
D03*
X1536Y-1164D02*
D03*
X-628Y-4228D02*
D03*
X945Y-1155D02*
D03*
X158Y-1158D02*
D03*
X350Y-950D02*
D03*
X-1050Y-1850D02*
D03*
X-1022Y-2150D02*
D03*
X-1039Y-2555D02*
D03*
X-1198Y-2752D02*
D03*
X-1192Y-2358D02*
D03*
X-1048Y-2948D02*
D03*
X-1211Y-3539D02*
D03*
X-1036Y-3736D02*
D03*
X177Y-5623D02*
D03*
X4139Y-1289D02*
D03*
X2208Y-492D02*
D03*
X3350Y-1350D02*
D03*
X98Y-198D02*
D03*
X100Y32D02*
D03*
Y1300D02*
D03*
X-348Y752D02*
D03*
X548D02*
D03*
X-1800Y2000D02*
D03*
X-3855Y2505D02*
D03*
X-4577Y3827D02*
D03*
X-2376Y3026D02*
D03*
X-1850Y4400D02*
D03*
X-4600Y3450D02*
D03*
X-2850Y4600D02*
D03*
X-3500Y4900D02*
D03*
X5577Y-2127D02*
D03*
X2233Y1317D02*
D03*
X2408Y2908D02*
D03*
X2611Y2711D02*
D03*
X2602Y3498D02*
D03*
X2405Y3695D02*
D03*
X2611Y4089D02*
D03*
X2617Y4483D02*
D03*
X-374Y4876D02*
D03*
X-1276Y5426D02*
D03*
X-3250Y3000D02*
D03*
X-2050Y5500D02*
D03*
X-1623Y-4723D02*
D03*
X-1123Y-4277D02*
D03*
X-1623Y-5077D02*
D03*
X-3055Y-4500D02*
D03*
X-3000Y-4750D02*
D03*
X-400Y1150D02*
D03*
X461Y1311D02*
D03*
X-3600Y2400D02*
D03*
X-327Y5527D02*
D03*
X23Y-5177D02*
D03*
X-323Y5927D02*
D03*
X700Y5904D02*
D03*
X1950Y5600D02*
D03*
X850Y4850D02*
D03*
X1000Y5900D02*
D03*
X552Y-4541D02*
D03*
X250Y-4550D02*
D03*
X850Y-4541D02*
D03*
X1756Y984D02*
D03*
X1427Y923D02*
D03*
X2350Y2550D02*
D03*
X3272Y4300D02*
D03*
X3300Y4600D02*
D03*
X3224Y4876D02*
D03*
X-1150Y-5350D02*
D03*
X-250D02*
D03*
X1900Y-5250D02*
D03*
X-1500Y-5300D02*
D03*
X-3500Y-4050D02*
D03*
X3550Y4350D02*
D03*
X950Y750D02*
D03*
X2550Y1300D02*
D03*
X5250Y2400D02*
D03*
X4100Y2300D02*
D03*
X4700D02*
D03*
X4400Y1900D02*
D03*
X3800D02*
D03*
X3650Y3600D02*
D03*
X4250Y3500D02*
D03*
X5250Y3000D02*
D03*
X3300Y2000D02*
D03*
X-1650Y-4350D02*
D03*
X2400Y-3400D02*
D03*
X1050Y4700D02*
D03*
X5650Y-1750D02*
D03*
X5050Y0D02*
D03*
Y-250D02*
D03*
Y-500D02*
D03*
D54*
X-5900Y-150D02*
D03*
X-3951Y451D02*
D03*
D55*
X-4000Y1600D02*
D03*
X-5100Y200D02*
D03*
X-4550Y1400D02*
D03*
X-4860Y1940D02*
D03*
X2400Y-5300D02*
D03*
X4050Y-2700D02*
D03*
X5050Y-800D02*
D03*
Y500D02*
D03*
D56*
X-5350Y2450D02*
D03*
X-5150Y2850D02*
D03*
X-4950Y3250D02*
D03*
X-4750Y2850D02*
D03*
X-4950Y2450D02*
D03*
X4450Y2900D02*
D03*
D57*
X3450Y0D02*
D03*
M02*
