%FSLAX24Y24*%
%MOIN*%
G70*
G01*
G75*
G04 Layer_Color=65535*
%ADD10C,0.0100*%
%ADD11R,0.2362X0.1890*%
%ADD12O,0.0315X0.0157*%
%ADD13O,0.0276X0.0098*%
%ADD14O,0.0098X0.0276*%
%ADD15R,0.0236X0.0157*%
%ADD16R,0.0197X0.0354*%
%ADD17R,0.0157X0.0236*%
%ADD18R,0.0354X0.0197*%
%ADD19R,0.1850X0.1850*%
%ADD20O,0.0110X0.0315*%
%ADD21O,0.0315X0.0110*%
%ADD22R,0.2028X0.2028*%
%ADD23O,0.0110X0.0335*%
%ADD24O,0.0335X0.0110*%
%ADD25O,0.0532X0.0177*%
%ADD26R,0.0532X0.0157*%
%ADD27R,0.0630X0.0748*%
%ADD28R,0.0551X0.0630*%
%ADD29R,0.0217X0.0394*%
%ADD30R,0.0276X0.0354*%
%ADD31R,0.0138X0.0098*%
%ADD32R,0.0098X0.0187*%
%ADD33R,0.0787X0.0472*%
%ADD34R,0.0142X0.0142*%
%ADD35R,0.0110X0.0110*%
G04:AMPARAMS|DCode=36|XSize=59.1mil|YSize=102.4mil|CornerRadius=0mil|HoleSize=0mil|Usage=FLASHONLY|Rotation=230.000|XOffset=0mil|YOffset=0mil|HoleType=Round|Shape=Rectangle|*
%AMROTATEDRECTD36*
4,1,4,-0.0202,0.0555,0.0582,-0.0103,0.0202,-0.0555,-0.0582,0.0103,-0.0202,0.0555,0.0*
%
%ADD36ROTATEDRECTD36*%

%ADD37R,0.0197X0.0315*%
G04:AMPARAMS|DCode=38|XSize=86.6mil|YSize=51.2mil|CornerRadius=12.8mil|HoleSize=0mil|Usage=FLASHONLY|Rotation=270.000|XOffset=0mil|YOffset=0mil|HoleType=Round|Shape=RoundedRectangle|*
%AMROUNDEDRECTD38*
21,1,0.0866,0.0256,0,0,270.0*
21,1,0.0610,0.0512,0,0,270.0*
1,1,0.0256,-0.0128,-0.0305*
1,1,0.0256,-0.0128,0.0305*
1,1,0.0256,0.0128,0.0305*
1,1,0.0256,0.0128,-0.0305*
%
%ADD38ROUNDEDRECTD38*%
G04:AMPARAMS|DCode=39|XSize=15.7mil|YSize=23.6mil|CornerRadius=3.9mil|HoleSize=0mil|Usage=FLASHONLY|Rotation=270.000|XOffset=0mil|YOffset=0mil|HoleType=Round|Shape=RoundedRectangle|*
%AMROUNDEDRECTD39*
21,1,0.0157,0.0157,0,0,270.0*
21,1,0.0079,0.0236,0,0,270.0*
1,1,0.0079,-0.0079,-0.0039*
1,1,0.0079,-0.0079,0.0039*
1,1,0.0079,0.0079,0.0039*
1,1,0.0079,0.0079,-0.0039*
%
%ADD39ROUNDEDRECTD39*%
%ADD40R,0.0118X0.0209*%
%ADD41R,0.0118X0.0193*%
%ADD42R,0.0157X0.0335*%
%ADD43R,0.0335X0.0157*%
%ADD44C,0.0060*%
%ADD45C,0.0050*%
%ADD46C,0.0120*%
%ADD47C,0.0181*%
%ADD48C,0.0080*%
%ADD49C,0.0150*%
%ADD50C,0.1260*%
%ADD51C,0.0630*%
%ADD52C,0.0197*%
%ADD53C,0.0180*%
%ADD54C,0.0260*%
%ADD55C,0.0220*%
%ADD56C,0.0200*%
%ADD57C,0.0276*%
%ADD58O,0.0098X0.0315*%
%ADD59O,0.0315X0.0098*%
%ADD60R,0.1299X0.1299*%
%ADD61R,0.0236X0.0591*%
%ADD62R,0.0591X0.0236*%
%ADD63R,0.0236X0.0610*%
%ADD64R,0.0472X0.0709*%
%ADD65R,0.0512X0.0217*%
%ADD66C,0.0098*%
%ADD67C,0.0079*%
%ADD68C,0.0039*%
%ADD69C,0.0047*%
G04:AMPARAMS|DCode=70|XSize=43.3mil|YSize=55.1mil|CornerRadius=0mil|HoleSize=0mil|Usage=FLASHONLY|Rotation=230.000|XOffset=0mil|YOffset=0mil|HoleType=Round|Shape=Rectangle|*
%AMROTATEDRECTD70*
4,1,4,-0.0072,0.0343,0.0350,-0.0011,0.0072,-0.0343,-0.0350,0.0011,-0.0072,0.0343,0.0*
%
%ADD70ROTATEDRECTD70*%

G36*
X-484Y-700D02*
X-539D01*
Y-921D01*
X-484D01*
Y-1067D01*
X-758D01*
Y-921D01*
X-702D01*
Y-788D01*
X-840Y-979D01*
X-849D01*
X-985Y-788D01*
Y-921D01*
X-929D01*
Y-1067D01*
X-1203D01*
Y-921D01*
X-1150D01*
Y-700D01*
X-1203D01*
Y-554D01*
X-986D01*
X-847Y-746D01*
X-840D01*
X-701Y-554D01*
X-484D01*
Y-700D01*
D02*
G37*
D10*
X-2749Y-174D02*
G03*
X-2749Y-174I-39J0D01*
G01*
X-2328Y-3732D02*
G03*
X-2328Y-3732I-28J0D01*
G01*
X1280Y-4769D02*
G03*
X1280Y-4769I-30J0D01*
G01*
X3242Y-3026D02*
G03*
X3242Y-3026I-14J0D01*
G01*
X4026Y1094D02*
G03*
X4026Y1094I-14J0D01*
G01*
X3968Y3569D02*
G03*
X3968Y3569I-39J0D01*
G01*
X504Y1146D02*
G03*
X504Y1146I-10J0D01*
G01*
X-2272Y1324D02*
G03*
X-2272Y1324I-39J0D01*
G01*
X-1335Y4438D02*
G03*
X-1335Y4438I-39J0D01*
G01*
X-2906Y-607D02*
Y-293D01*
X-3694Y-607D02*
Y-293D01*
X-1406Y1443D02*
Y1757D01*
X-2194Y1443D02*
Y1757D01*
X-1807Y5344D02*
X-1493D01*
X-1807Y4556D02*
X-1493D01*
D44*
X-2159Y-5140D02*
Y-4876D01*
X-3341Y-5140D02*
Y-4876D01*
Y-4124D02*
Y-3860D01*
X-2159Y-4124D02*
Y-3860D01*
D45*
X4183Y-1545D02*
X4193Y-1555D01*
X4183Y-1545D02*
Y1555D01*
X4193Y-1555D02*
X6171D01*
X4183Y1555D02*
X6171D01*
Y-1555D02*
Y1555D01*
X2531Y455D02*
Y1045D01*
X3968Y455D02*
Y996D01*
X3100Y-2050D02*
Y-2350D01*
X3250D01*
X3300Y-2300D01*
Y-2250D01*
X3250Y-2200D01*
X3100D01*
X3250D01*
X3300Y-2150D01*
Y-2100D01*
X3250Y-2050D01*
X3100D01*
X3400Y-2350D02*
X3500D01*
X3450D01*
Y-2050D01*
X3400Y-2100D01*
X-1450Y-4950D02*
X-1500Y-5000D01*
Y-5100D01*
X-1450Y-5150D01*
X-1250D01*
X-1200Y-5100D01*
Y-5000D01*
X-1250Y-4950D01*
X-1200Y-4650D02*
Y-4850D01*
X-1400Y-4650D01*
X-1450D01*
X-1500Y-4700D01*
Y-4800D01*
X-1450Y-4850D01*
X-1350Y-2150D02*
X-1400Y-2200D01*
Y-2300D01*
X-1350Y-2350D01*
X-1150D01*
X-1100Y-2300D01*
Y-2200D01*
X-1150Y-2150D01*
Y-2050D02*
X-1100Y-2000D01*
Y-1900D01*
X-1150Y-1850D01*
X-1350D01*
X-1400Y-1900D01*
Y-2000D01*
X-1350Y-2050D01*
X-1300D01*
X-1250Y-2000D01*
Y-1850D01*
X700Y-850D02*
X650Y-800D01*
X550D01*
X500Y-850D01*
Y-1050D01*
X550Y-1100D01*
X650D01*
X700Y-1050D01*
X800Y-1100D02*
X900D01*
X850D01*
Y-800D01*
X800Y-850D01*
X1050Y-1100D02*
X1150D01*
X1100D01*
Y-800D01*
X1050Y-850D01*
X2200Y-5250D02*
X2150Y-5300D01*
Y-5400D01*
X2200Y-5450D01*
X2400D01*
X2450Y-5400D01*
Y-5300D01*
X2400Y-5250D01*
X2450Y-5150D02*
Y-5050D01*
Y-5100D01*
X2150D01*
X2200Y-5150D01*
X2150Y-4900D02*
Y-4700D01*
X2200D01*
X2400Y-4900D01*
X2450D01*
X2900Y-5000D02*
X2850Y-5050D01*
Y-5150D01*
X2900Y-5200D01*
X3100D01*
X3150Y-5150D01*
Y-5050D01*
X3100Y-5000D01*
X3150Y-4900D02*
Y-4800D01*
Y-4850D01*
X2850D01*
X2900Y-4900D01*
Y-4650D02*
X2850Y-4600D01*
Y-4500D01*
X2900Y-4450D01*
X2950D01*
X3000Y-4500D01*
X3050Y-4450D01*
X3100D01*
X3150Y-4500D01*
Y-4600D01*
X3100Y-4650D01*
X3050D01*
X3000Y-4600D01*
X2950Y-4650D01*
X2900D01*
X3000Y-4600D02*
Y-4500D01*
X1950Y5650D02*
X1900Y5700D01*
X1800D01*
X1750Y5650D01*
Y5450D01*
X1800Y5400D01*
X1900D01*
X1950Y5450D01*
X2250Y5400D02*
X2050D01*
X2250Y5600D01*
Y5650D01*
X2200Y5700D01*
X2100D01*
X2050Y5650D01*
X2350Y5400D02*
X2450D01*
X2400D01*
Y5700D01*
X2350Y5650D01*
X3350Y-3050D02*
X3300Y-3000D01*
X3200D01*
X3150Y-3050D01*
Y-3250D01*
X3200Y-3300D01*
X3300D01*
X3350Y-3250D01*
X3650Y-3300D02*
X3450D01*
X3650Y-3100D01*
Y-3050D01*
X3600Y-3000D01*
X3500D01*
X3450Y-3050D01*
X3750D02*
X3800Y-3000D01*
X3900D01*
X3950Y-3050D01*
Y-3100D01*
X3900Y-3150D01*
X3850D01*
X3900D01*
X3950Y-3200D01*
Y-3250D01*
X3900Y-3300D01*
X3800D01*
X3750Y-3250D01*
X-2550Y750D02*
X-2600Y800D01*
X-2700D01*
X-2750Y750D01*
Y550D01*
X-2700Y500D01*
X-2600D01*
X-2550Y550D01*
X-2250Y500D02*
X-2450D01*
X-2250Y700D01*
Y750D01*
X-2300Y800D01*
X-2400D01*
X-2450Y750D01*
X-2000Y500D02*
Y800D01*
X-2150Y650D01*
X-1950D01*
X-4400Y1300D02*
X-4450Y1350D01*
X-4550D01*
X-4600Y1300D01*
Y1100D01*
X-4550Y1050D01*
X-4450D01*
X-4400Y1100D01*
X-4100Y1050D02*
X-4300D01*
X-4100Y1250D01*
Y1300D01*
X-4150Y1350D01*
X-4250D01*
X-4300Y1300D01*
X-3800Y1350D02*
X-4000D01*
Y1200D01*
X-3900Y1250D01*
X-3850D01*
X-3800Y1200D01*
Y1100D01*
X-3850Y1050D01*
X-3950D01*
X-4000Y1100D01*
X-4350Y2100D02*
X-4400Y2150D01*
X-4500D01*
X-4550Y2100D01*
Y1900D01*
X-4500Y1850D01*
X-4400D01*
X-4350Y1900D01*
X-4050Y1850D02*
X-4250D01*
X-4050Y2050D01*
Y2100D01*
X-4100Y2150D01*
X-4200D01*
X-4250Y2100D01*
X-3750Y2150D02*
X-3850Y2100D01*
X-3950Y2000D01*
Y1900D01*
X-3900Y1850D01*
X-3800D01*
X-3750Y1900D01*
Y1950D01*
X-3800Y2000D01*
X-3950D01*
X-5250Y2500D02*
X-5300Y2550D01*
X-5400D01*
X-5450Y2500D01*
Y2300D01*
X-5400Y2250D01*
X-5300D01*
X-5250Y2300D01*
X-4950Y2250D02*
X-5150D01*
X-4950Y2450D01*
Y2500D01*
X-5000Y2550D01*
X-5100D01*
X-5150Y2500D01*
X-4850Y2300D02*
X-4800Y2250D01*
X-4700D01*
X-4650Y2300D01*
Y2500D01*
X-4700Y2550D01*
X-4800D01*
X-4850Y2500D01*
Y2450D01*
X-4800Y2400D01*
X-4650D01*
X2400Y-350D02*
X2350Y-300D01*
X2250D01*
X2200Y-350D01*
Y-550D01*
X2250Y-600D01*
X2350D01*
X2400Y-550D01*
X2500Y-350D02*
X2550Y-300D01*
X2650D01*
X2700Y-350D01*
Y-400D01*
X2650Y-450D01*
X2600D01*
X2650D01*
X2700Y-500D01*
Y-550D01*
X2650Y-600D01*
X2550D01*
X2500Y-550D01*
X3000Y-600D02*
X2800D01*
X3000Y-400D01*
Y-350D01*
X2950Y-300D01*
X2850D01*
X2800Y-350D01*
X2500Y-850D02*
X2450Y-800D01*
X2350D01*
X2300Y-850D01*
Y-1050D01*
X2350Y-1100D01*
X2450D01*
X2500Y-1050D01*
X2600Y-850D02*
X2650Y-800D01*
X2750D01*
X2800Y-850D01*
Y-900D01*
X2750Y-950D01*
X2700D01*
X2750D01*
X2800Y-1000D01*
Y-1050D01*
X2750Y-1100D01*
X2650D01*
X2600Y-1050D01*
X3050Y-1100D02*
Y-800D01*
X2900Y-950D01*
X3100D01*
X-1150Y3850D02*
X-1200Y3800D01*
Y3700D01*
X-1150Y3650D01*
X-950D01*
X-900Y3700D01*
Y3800D01*
X-950Y3850D01*
X-900Y4100D02*
X-1200D01*
X-1050Y3950D01*
Y4150D01*
X-1150Y4250D02*
X-1200Y4300D01*
Y4400D01*
X-1150Y4450D01*
X-1100D01*
X-1050Y4400D01*
Y4350D01*
Y4400D01*
X-1000Y4450D01*
X-950D01*
X-900Y4400D01*
Y4300D01*
X-950Y4250D01*
X2550Y-2050D02*
Y-2350D01*
X2750D01*
X2850D02*
X2950D01*
X2900D01*
Y-2050D01*
X2850Y-2100D01*
X1650Y1100D02*
Y1400D01*
X1800D01*
X1850Y1350D01*
Y1250D01*
X1800Y1200D01*
X1650D01*
X1750D02*
X1850Y1100D01*
X1950Y1350D02*
X2000Y1400D01*
X2100D01*
X2150Y1350D01*
Y1300D01*
X2100Y1250D01*
X2050D01*
X2100D01*
X2150Y1200D01*
Y1150D01*
X2100Y1100D01*
X2000D01*
X1950Y1150D01*
X1750Y-5700D02*
X1450D01*
Y-5550D01*
X1500Y-5500D01*
X1600D01*
X1650Y-5550D01*
Y-5700D01*
Y-5600D02*
X1750Y-5500D01*
X1450Y-5200D02*
Y-5400D01*
X1600D01*
X1550Y-5300D01*
Y-5250D01*
X1600Y-5200D01*
X1700D01*
X1750Y-5250D01*
Y-5350D01*
X1700Y-5400D01*
X-5300Y-2750D02*
X-5000D01*
Y-2900D01*
X-5050Y-2950D01*
X-5150D01*
X-5200Y-2900D01*
Y-2750D01*
Y-2850D02*
X-5300Y-2950D01*
X-5250Y-3050D02*
X-5300Y-3100D01*
Y-3200D01*
X-5250Y-3250D01*
X-5050D01*
X-5000Y-3200D01*
Y-3100D01*
X-5050Y-3050D01*
X-5100D01*
X-5150Y-3100D01*
Y-3250D01*
X-5900Y-1350D02*
Y-1050D01*
X-5750D01*
X-5700Y-1100D01*
Y-1200D01*
X-5750Y-1250D01*
X-5900D01*
X-5800D02*
X-5700Y-1350D01*
X-5600D02*
X-5500D01*
X-5550D01*
Y-1050D01*
X-5600Y-1100D01*
X-5350Y-1350D02*
X-5250D01*
X-5300D01*
Y-1050D01*
X-5350Y-1100D01*
X-3850Y-4200D02*
Y-4450D01*
X-3800Y-4500D01*
X-3700D01*
X-3650Y-4450D01*
Y-4200D01*
X-3550Y-4500D02*
X-3450D01*
X-3500D01*
Y-4200D01*
X-3550Y-4250D01*
X3800Y4150D02*
Y3900D01*
X3850Y3850D01*
X3950D01*
X4000Y3900D01*
Y4150D01*
X4300Y3850D02*
X4100D01*
X4300Y4050D01*
Y4100D01*
X4250Y4150D01*
X4150D01*
X4100Y4100D01*
X-5750Y-550D02*
Y-800D01*
X-5700Y-850D01*
X-5600D01*
X-5550Y-800D01*
Y-550D01*
X-5450Y-600D02*
X-5400Y-550D01*
X-5300D01*
X-5250Y-600D01*
Y-650D01*
X-5300Y-700D01*
X-5250Y-750D01*
Y-800D01*
X-5300Y-850D01*
X-5400D01*
X-5450Y-800D01*
Y-750D01*
X-5400Y-700D01*
X-5450Y-650D01*
Y-600D01*
X-5400Y-700D02*
X-5300D01*
X-2750Y1150D02*
X-2500D01*
X-2450Y1200D01*
Y1300D01*
X-2500Y1350D01*
X-2750D01*
X-2450Y1450D02*
Y1550D01*
Y1500D01*
X-2750D01*
X-2700Y1450D01*
X-2450Y1900D02*
Y1700D01*
X-2650Y1900D01*
X-2700D01*
X-2750Y1850D01*
Y1750D01*
X-2700Y1700D01*
X-2650Y4550D02*
X-2400D01*
X-2350Y4600D01*
Y4700D01*
X-2400Y4750D01*
X-2650D01*
X-2350Y4850D02*
Y4950D01*
Y4900D01*
X-2650D01*
X-2600Y4850D01*
Y5100D02*
X-2650Y5150D01*
Y5250D01*
X-2600Y5300D01*
X-2550D01*
X-2500Y5250D01*
Y5200D01*
Y5250D01*
X-2450Y5300D01*
X-2400D01*
X-2350Y5250D01*
Y5150D01*
X-2400Y5100D01*
X650Y350D02*
X900D01*
X950Y400D01*
Y500D01*
X900Y550D01*
X650D01*
X950Y650D02*
Y750D01*
Y700D01*
X650D01*
X700Y650D01*
X650Y1100D02*
X700Y1000D01*
X800Y900D01*
X900D01*
X950Y950D01*
Y1050D01*
X900Y1100D01*
X850D01*
X800Y1050D01*
Y900D01*
X2000Y950D02*
Y900D01*
X2100Y800D01*
X2200Y900D01*
Y950D01*
X2100Y800D02*
Y650D01*
X2300D02*
X2400D01*
X2350D01*
Y950D01*
X2300Y900D01*
X-1800Y-5500D02*
Y-5550D01*
X-1700Y-5650D01*
X-1600Y-5550D01*
Y-5500D01*
X-1700Y-5650D02*
Y-5800D01*
X-1300D02*
X-1500D01*
X-1300Y-5600D01*
Y-5550D01*
X-1350Y-5500D01*
X-1450D01*
X-1500Y-5550D01*
X2750Y-1850D02*
Y-1650D01*
X2850Y-1550D01*
X2950Y-1650D01*
Y-1850D01*
Y-1700D01*
X2750D01*
X3050Y-1850D02*
Y-1550D01*
X3250Y-1850D01*
Y-1550D01*
X3350D02*
X3550D01*
X3450D01*
Y-1850D01*
X3650D02*
X3750D01*
X3700D01*
Y-1550D01*
X3650Y-1600D01*
X-4100Y-750D02*
Y-550D01*
X-4150Y-500D01*
X-4250D01*
X-4300Y-550D01*
Y-750D01*
X-4250Y-800D01*
X-4150D01*
X-4200Y-700D02*
X-4100Y-800D01*
X-4150D02*
X-4100Y-750D01*
X-4000Y-800D02*
X-3900D01*
X-3950D01*
Y-500D01*
X-4000Y-550D01*
X-4250Y-3800D02*
Y-4050D01*
X-4200Y-4100D01*
X-4100D01*
X-4050Y-4050D01*
Y-3800D01*
X-3750D02*
X-3950D01*
Y-3950D01*
X-3850Y-3900D01*
X-3800D01*
X-3750Y-3950D01*
Y-4050D01*
X-3800Y-4100D01*
X-3900D01*
X-3950Y-4050D01*
X700Y5500D02*
X1000D01*
Y5650D01*
X950Y5700D01*
X750D01*
X700Y5650D01*
Y5500D01*
X750Y5800D02*
X700Y5850D01*
Y5950D01*
X750Y6000D01*
X800D01*
X850Y5950D01*
Y5900D01*
Y5950D01*
X900Y6000D01*
X950D01*
X1000Y5950D01*
Y5850D01*
X950Y5800D01*
X-750Y5550D02*
X-450D01*
Y5700D01*
X-500Y5750D01*
X-700D01*
X-750Y5700D01*
Y5550D01*
X-450Y6050D02*
Y5850D01*
X-650Y6050D01*
X-700D01*
X-750Y6000D01*
Y5900D01*
X-700Y5850D01*
X5750Y-1900D02*
X5800Y-1850D01*
Y-1750D01*
X5750Y-1700D01*
X5550D01*
X5500Y-1750D01*
Y-1850D01*
X5550Y-1900D01*
X5800Y-2000D02*
X5500D01*
X5650D01*
Y-2200D01*
X5800D01*
X5500D01*
D66*
X-5051Y-1149D02*
G03*
X-5051Y-1149I-49J0D01*
G01*
X818Y-395D02*
G03*
X818Y-395I-49J0D01*
G01*
X-907Y5191D02*
G03*
X-907Y5191I-49J0D01*
G01*
X2422Y-4257D02*
G03*
X2422Y-4257I-49J0D01*
G01*
X-2209Y2961D02*
G03*
X-2209Y2961I-49J0D01*
G01*
X-5750Y-172D02*
G03*
X-5750Y-172I-49J0D01*
G01*
D67*
X-4904Y-1364D02*
Y-1090D01*
X-3236D01*
X-4904Y-3610D02*
Y-3336D01*
Y-3610D02*
X-3236D01*
X-3264D02*
X-1596D01*
Y-3336D01*
Y-1364D02*
Y-1090D01*
X-3264D02*
X-1596D01*
X435Y-700D02*
Y-513D01*
X307D02*
X435D01*
X-235D02*
X-107D01*
X-235Y-700D02*
Y-513D01*
Y313D02*
Y500D01*
Y313D02*
X-107D01*
X307D02*
X435D01*
Y500D01*
X-700Y1550D02*
X-523D01*
X-700D02*
Y1727D01*
X2823Y1550D02*
X3000D01*
Y1727D01*
Y5073D02*
Y5250D01*
X2823D02*
X3000D01*
X-700D02*
X-523D01*
X-700Y5073D02*
Y5250D01*
X1930Y-1383D02*
X2117D01*
Y-1570D02*
Y-1383D01*
X-817D02*
X-630D01*
X-817Y-1570D02*
Y-1383D01*
Y-4317D02*
Y-4130D01*
Y-4317D02*
X-630D01*
X1930D02*
X2117D01*
Y-4130D01*
X-2819Y3059D02*
X-2681D01*
X-2819Y4241D02*
X-2681D01*
X-5691Y418D02*
X-4509D01*
X-5691Y182D02*
X-4509D01*
Y418D01*
X-5691Y182D02*
Y418D01*
D68*
X-4358Y-89D02*
Y-11D01*
X-4142Y-89D02*
Y-11D01*
X-5288Y1223D02*
X-5012D01*
X-5288Y1567D02*
X-5012D01*
X-2239Y2592D02*
X-2161D01*
X-2239Y2808D02*
X-2161D01*
X-858Y-39D02*
Y39D01*
X-642Y-39D02*
Y39D01*
X-1258Y2461D02*
Y2539D01*
X-1042Y2461D02*
Y2539D01*
X-3742Y2911D02*
Y2989D01*
X-3958Y2911D02*
Y2989D01*
X-4527Y2662D02*
Y2938D01*
X-4183Y2662D02*
Y2938D01*
X-3489Y4492D02*
X-3411D01*
X-3489Y4708D02*
X-3411D01*
X5231Y-1999D02*
X5369D01*
X5300Y-1970D02*
X5369Y-1901D01*
X5231D02*
X5300Y-1970D01*
X5231Y-1901D02*
X5369D01*
X-2908Y2511D02*
Y2589D01*
X-2692Y2511D02*
Y2589D01*
X-1208Y1561D02*
Y1639D01*
X-992Y1561D02*
Y1639D01*
X-1708Y3261D02*
Y3339D01*
X-1492Y3261D02*
Y3339D01*
X-3958Y3611D02*
Y3689D01*
X-3742Y3611D02*
Y3689D01*
X-1258Y3261D02*
Y3339D01*
X-1042Y3261D02*
Y3339D01*
X-4408Y3611D02*
Y3689D01*
X-4192Y3611D02*
Y3689D01*
X-4039Y4308D02*
X-3961D01*
X-4039Y4092D02*
X-3961D01*
X-5408Y-2439D02*
Y-2361D01*
X-5192Y-2439D02*
Y-2361D01*
X-5389Y-1708D02*
X-5311D01*
X-5389Y-1492D02*
X-5311D01*
X-1408Y-1489D02*
Y-1411D01*
X-1192Y-1489D02*
Y-1411D01*
X-1792Y-4939D02*
Y-4861D01*
X-2008Y-4939D02*
Y-4861D01*
X-1292Y-4139D02*
Y-4061D01*
X-1508Y-4139D02*
Y-4061D01*
X-1792Y-4189D02*
Y-4111D01*
X-2008Y-4189D02*
Y-4111D01*
X-295Y-6019D02*
X295D01*
X-1122Y-5507D02*
Y-5193D01*
X-295Y-4681D02*
X295D01*
X1122Y-5507D02*
Y-5193D01*
X1292Y-4889D02*
Y-4811D01*
X1508Y-4889D02*
Y-4811D01*
X2008Y-4889D02*
Y-4811D01*
X1792Y-4889D02*
Y-4811D01*
X2708Y-4389D02*
Y-4311D01*
X2492Y-4389D02*
Y-4311D01*
X2711Y-3508D02*
X2789D01*
X2711Y-3292D02*
X2789D01*
X2758Y-2789D02*
Y-2711D01*
X2542Y-2789D02*
Y-2711D01*
X3511Y-1058D02*
X3589D01*
X3511Y-842D02*
X3589D01*
X3312Y-273D02*
X3588D01*
X3312Y-617D02*
X3588D01*
X3900Y-650D02*
Y-250D01*
X5041Y3412D02*
Y3491D01*
X3859D02*
X5041D01*
X3859Y3412D02*
Y3491D01*
Y2309D02*
Y2388D01*
Y2309D02*
X5041D01*
Y2388D01*
X1211Y1092D02*
X1289D01*
X1211Y1308D02*
X1289D01*
X-189Y-958D02*
X-111D01*
X-189Y-742D02*
X-111D01*
X-858Y711D02*
Y789D01*
X-642Y711D02*
Y789D01*
X-3438Y473D02*
X-3162D01*
X-3438Y817D02*
X-3162D01*
X-3489Y1308D02*
X-3411D01*
X-3489Y1092D02*
X-3411D01*
X-3438Y1823D02*
X-3162D01*
X-3438Y2167D02*
X-3162D01*
X-5358Y2048D02*
X-5279D01*
X-5358Y1832D02*
X-5279D01*
X-69Y5701D02*
X69D01*
X0Y5730D02*
X69Y5799D01*
X-69D02*
X0Y5730D01*
X-69Y5799D02*
X69D01*
X331Y5701D02*
X469D01*
X400Y5730D02*
X469Y5799D01*
X331D02*
X400Y5730D01*
X331Y5799D02*
X469D01*
X1311Y5708D02*
X1389D01*
X1311Y5492D02*
X1389D01*
X-1708Y3961D02*
Y4039D01*
X-1492Y3961D02*
Y4039D01*
D69*
X405Y674D02*
Y1126D01*
X-205Y674D02*
Y1126D01*
D70*
X4209Y-1963D02*
D03*
M02*
