%FSLAX24Y24*%
%MOIN*%
G70*
G01*
G75*
G04 Layer_Physical_Order=3*
G04 Layer_Color=16440176*
%ADD10C,0.0177*%
%ADD11C,0.0100*%
%ADD12C,0.0100*%
%ADD13R,0.0551X0.0453*%
%ADD14O,0.0177X0.0532*%
%ADD15R,0.0343X0.0343*%
%ADD16R,0.0157X0.0335*%
%ADD17O,0.0315X0.0079*%
%ADD18O,0.0079X0.0315*%
%ADD19R,0.2598X0.2598*%
%ADD20O,0.0295X0.0079*%
%ADD21R,0.1417X0.1417*%
%ADD22O,0.0079X0.0295*%
%ADD23O,0.0098X0.0276*%
%ADD24O,0.0276X0.0098*%
%ADD25R,0.0118X0.0193*%
%ADD26R,0.0118X0.0205*%
%ADD27R,0.0138X0.0217*%
%ADD28R,0.0157X0.0532*%
%ADD29R,0.0748X0.0630*%
%ADD30R,0.0630X0.0551*%
%ADD31R,0.0335X0.0374*%
%ADD32R,0.0335X0.0118*%
%ADD33R,0.0217X0.0098*%
%ADD34R,0.0197X0.0354*%
%ADD35R,0.0177X0.0177*%
%ADD36R,0.0157X0.0236*%
%ADD37R,0.0138X0.0157*%
%ADD38R,0.0335X0.0157*%
%ADD39R,0.0236X0.0157*%
%ADD40R,0.0354X0.0197*%
%ADD41C,0.0080*%
%ADD42C,0.0200*%
%ADD43C,0.1260*%
%ADD44C,0.0630*%
%ADD45C,0.0260*%
%ADD46C,0.0300*%
%ADD47C,0.0340*%
%ADD48C,0.0500*%
%ADD49C,0.0240*%
%ADD50C,0.0290*%
G36*
X-2014Y579D02*
X-2019Y576D01*
X-2124Y490D01*
X-2210Y385D01*
X-2274Y265D01*
X-2314Y135D01*
X-2327Y0D01*
X-2314Y-135D01*
X-2278Y-253D01*
X-2322Y-279D01*
X-3179Y578D01*
X-3159Y628D01*
X-2026D01*
X-2014Y579D01*
D02*
G37*
G36*
X-5280Y1023D02*
X-5230Y1033D01*
X-5154Y1084D01*
X-5103Y1160D01*
X-5098Y1189D01*
X-5047Y1203D01*
X-5005Y1175D01*
X-5001Y1118D01*
X-5002Y1117D01*
X-5017Y1107D01*
X-5059Y1044D01*
X-5074Y970D01*
X-5059Y896D01*
X-5036Y862D01*
X-5063Y812D01*
X-5470D01*
X-5513Y804D01*
X-5549Y779D01*
X-5549Y779D01*
X-5879Y449D01*
X-5904Y413D01*
X-5912Y370D01*
X-5912Y370D01*
Y-343D01*
X-5962Y-371D01*
X-6000Y-363D01*
Y-590D01*
X-6080D01*
Y-363D01*
X-6130Y-373D01*
X-6178Y-405D01*
X-6228Y-379D01*
Y523D01*
X-5585Y1166D01*
X-5530Y1150D01*
X-5486Y1084D01*
X-5410Y1033D01*
X-5360Y1023D01*
Y1250D01*
X-5280D01*
Y1023D01*
D02*
G37*
G36*
X5728Y5050D02*
X5703Y5004D01*
X5700Y5005D01*
X5610Y4987D01*
X5534Y4936D01*
X5483Y4860D01*
X5473Y4810D01*
X5700D01*
Y4770D01*
X5740D01*
Y4543D01*
X5790Y4553D01*
X5866Y4604D01*
X5868Y4608D01*
X5918Y4592D01*
Y2950D01*
X5926Y2911D01*
X5948Y2878D01*
X6248Y2578D01*
Y1894D01*
X6204Y1870D01*
X6180Y1887D01*
X6130Y1897D01*
Y1670D01*
Y1443D01*
X6180Y1453D01*
X6204Y1470D01*
X6248Y1446D01*
Y-4388D01*
X6031Y-4604D01*
X5990Y-4596D01*
X5916Y-4611D01*
X5853Y-4653D01*
X5811Y-4716D01*
X5796Y-4790D01*
X5811Y-4864D01*
X5853Y-4927D01*
X5916Y-4969D01*
X5990Y-4984D01*
X6064Y-4969D01*
X6127Y-4927D01*
X6169Y-4864D01*
X6184Y-4790D01*
X6176Y-4749D01*
X6342Y-4583D01*
X6388Y-4602D01*
Y-5500D01*
X6389Y-5505D01*
X6372Y-5673D01*
X6322Y-5840D01*
X6239Y-5994D01*
X6129Y-6129D01*
X5994Y-6239D01*
X5840Y-6322D01*
X5673Y-6372D01*
X5505Y-6389D01*
X5500Y-6388D01*
X1529D01*
X1513Y-6341D01*
X1517Y-6337D01*
X1578Y-6259D01*
X1615Y-6168D01*
X1628Y-6070D01*
X1619Y-5997D01*
X1666Y-5974D01*
X1801Y-6109D01*
X1801Y-6109D01*
X1838Y-6134D01*
X1881Y-6142D01*
X1881Y-6142D01*
X5250D01*
X5250Y-6142D01*
X5293Y-6134D01*
X5329Y-6109D01*
X5969Y-5469D01*
X5990Y-5474D01*
X6060Y-5460D01*
X6120Y-5420D01*
X6160Y-5360D01*
X6174Y-5290D01*
X6160Y-5220D01*
X6120Y-5160D01*
X6060Y-5120D01*
X5990Y-5106D01*
X5920Y-5120D01*
X5860Y-5160D01*
X5820Y-5220D01*
X5806Y-5290D01*
X5811Y-5311D01*
X5204Y-5918D01*
X4899D01*
X4890Y-5869D01*
X4953Y-5827D01*
X4995Y-5764D01*
X5010Y-5690D01*
X4995Y-5615D01*
X4953Y-5553D01*
X4890Y-5511D01*
X4830Y-5499D01*
Y-5448D01*
X4890Y-5436D01*
X4953Y-5394D01*
X4995Y-5331D01*
X5010Y-5257D01*
X4995Y-5182D01*
X4953Y-5120D01*
X4890Y-5078D01*
X4830Y-5065D01*
Y-5015D01*
X4890Y-5002D01*
X4953Y-4960D01*
X4995Y-4898D01*
X5010Y-4823D01*
X4995Y-4749D01*
X4953Y-4686D01*
X4890Y-4644D01*
X4830Y-4632D01*
Y-4581D01*
X4890Y-4569D01*
X4953Y-4527D01*
X4995Y-4465D01*
X5010Y-4390D01*
X4995Y-4316D01*
X4953Y-4253D01*
X4890Y-4211D01*
X4816Y-4197D01*
X4742Y-4211D01*
X4679Y-4253D01*
X4637Y-4316D01*
X4625Y-4377D01*
X4574D01*
X4562Y-4316D01*
X4520Y-4253D01*
X4457Y-4211D01*
X4383Y-4197D01*
X4309Y-4211D01*
X4246Y-4253D01*
X4204Y-4316D01*
X4192Y-4377D01*
X4141D01*
X4129Y-4316D01*
X4087Y-4253D01*
X4024Y-4211D01*
X3950Y-4197D01*
X3876Y-4211D01*
X3813Y-4253D01*
X3771Y-4316D01*
X3759Y-4377D01*
X3708D01*
X3696Y-4316D01*
X3654Y-4253D01*
X3591Y-4211D01*
X3517Y-4197D01*
X3443Y-4211D01*
X3380Y-4253D01*
X3338Y-4316D01*
X3326Y-4377D01*
X3275D01*
X3263Y-4316D01*
X3221Y-4253D01*
X3158Y-4211D01*
X3084Y-4197D01*
X3010Y-4211D01*
X2947Y-4253D01*
X2905Y-4316D01*
X2890Y-4390D01*
X2905Y-4465D01*
X2947Y-4527D01*
X3010Y-4569D01*
X3070Y-4581D01*
Y-4632D01*
X3010Y-4644D01*
X2947Y-4686D01*
X2905Y-4749D01*
X2890Y-4823D01*
X2905Y-4898D01*
X2947Y-4960D01*
X3010Y-5002D01*
X3070Y-5015D01*
Y-5065D01*
X3010Y-5078D01*
X2947Y-5120D01*
X2905Y-5182D01*
X2890Y-5257D01*
X2905Y-5331D01*
X2947Y-5394D01*
X3010Y-5436D01*
X3070Y-5448D01*
Y-5499D01*
X3010Y-5511D01*
X2947Y-5553D01*
X2905Y-5615D01*
X2890Y-5690D01*
X2905Y-5764D01*
X2947Y-5827D01*
X3010Y-5869D01*
X3001Y-5918D01*
X2176D01*
X2153Y-5874D01*
X2159Y-5864D01*
X2174Y-5790D01*
X2159Y-5716D01*
X2117Y-5653D01*
X2054Y-5611D01*
X1980Y-5596D01*
X1939Y-5604D01*
X1865Y-5531D01*
X1868Y-5504D01*
X1879Y-5494D01*
X1918Y-5471D01*
X1980Y-5484D01*
X2054Y-5469D01*
X2117Y-5427D01*
X2159Y-5364D01*
X2174Y-5290D01*
X2159Y-5216D01*
X2117Y-5153D01*
X2082Y-5130D01*
Y-4832D01*
X3022Y-3892D01*
X3044Y-3859D01*
X3052Y-3820D01*
Y-3561D01*
X3098Y-3542D01*
X3438Y-3882D01*
X3471Y-3904D01*
X3510Y-3912D01*
X5478D01*
X5814Y-4249D01*
X5806Y-4290D01*
X5821Y-4364D01*
X5863Y-4427D01*
X5926Y-4469D01*
X6000Y-4484D01*
X6074Y-4469D01*
X6137Y-4427D01*
X6179Y-4364D01*
X6194Y-4290D01*
X6179Y-4216D01*
X6137Y-4153D01*
X6074Y-4111D01*
X6000Y-4096D01*
X5959Y-4105D01*
X5592Y-3738D01*
X5559Y-3716D01*
X5520Y-3708D01*
X3552D01*
X3192Y-3348D01*
Y-548D01*
X3242Y-521D01*
X3260Y-533D01*
X3340Y-549D01*
X3420Y-533D01*
X3422Y-532D01*
X3467Y-562D01*
X3461Y-590D01*
X3477Y-670D01*
X3522Y-738D01*
X3590Y-783D01*
X3670Y-799D01*
X3750Y-783D01*
X3818Y-738D01*
X3863Y-670D01*
X3879Y-590D01*
X3863Y-510D01*
X3818Y-442D01*
X3750Y-397D01*
X3670Y-381D01*
X3590Y-397D01*
X3588Y-398D01*
X3543Y-368D01*
X3549Y-340D01*
X3533Y-260D01*
X3488Y-192D01*
X3420Y-147D01*
X3340Y-131D01*
X3260Y-147D01*
X3242Y-159D01*
X3192Y-132D01*
Y998D01*
X3236Y1022D01*
X3264Y1003D01*
X3310Y994D01*
Y1210D01*
Y1426D01*
X3264Y1417D01*
X3236Y1398D01*
X3192Y1422D01*
Y1493D01*
X3345Y1646D01*
X3367Y1679D01*
X3375Y1718D01*
Y2783D01*
X3702Y3110D01*
X3724Y3143D01*
X3732Y3182D01*
Y3551D01*
X3776Y3575D01*
X3786Y3568D01*
X3860Y3553D01*
X3934Y3568D01*
X3997Y3610D01*
X4039Y3673D01*
X4051Y3733D01*
X4102D01*
X4114Y3673D01*
X4156Y3610D01*
X4219Y3568D01*
X4293Y3553D01*
X4367Y3568D01*
X4430Y3610D01*
X4472Y3673D01*
X4484Y3733D01*
X4535D01*
X4547Y3673D01*
X4589Y3610D01*
X4652Y3568D01*
X4726Y3553D01*
X4800Y3568D01*
X4863Y3610D01*
X4905Y3673D01*
X4920Y3747D01*
X4905Y3821D01*
X4863Y3884D01*
X4800Y3926D01*
X4740Y3938D01*
Y3989D01*
X4800Y4001D01*
X4863Y4043D01*
X4905Y4106D01*
X4920Y4180D01*
X4905Y4254D01*
X4863Y4317D01*
X4800Y4359D01*
X4740Y4371D01*
Y4422D01*
X4800Y4434D01*
X4863Y4476D01*
X4905Y4539D01*
X4920Y4613D01*
X4905Y4687D01*
X4863Y4750D01*
X4800Y4792D01*
X4726Y4807D01*
X4652Y4792D01*
X4589Y4750D01*
X4547Y4687D01*
X4535Y4627D01*
X4484D01*
X4472Y4687D01*
X4430Y4750D01*
X4367Y4792D01*
X4293Y4807D01*
X4219Y4792D01*
X4156Y4750D01*
X4114Y4687D01*
X4102Y4627D01*
X4051D01*
X4039Y4687D01*
X3997Y4750D01*
X3934Y4792D01*
X3860Y4807D01*
X3786Y4792D01*
X3776Y4785D01*
X3732Y4809D01*
Y5620D01*
X3724Y5659D01*
X3702Y5692D01*
X3372Y6022D01*
X3391Y6068D01*
X4710D01*
X5728Y5050D01*
D02*
G37*
G36*
X5673Y6372D02*
X5840Y6322D01*
X5994Y6239D01*
X6129Y6129D01*
X6239Y5994D01*
X6304Y5873D01*
X6280Y5840D01*
Y5600D01*
Y5373D01*
X6330Y5383D01*
X6344Y5393D01*
X6388Y5369D01*
Y4993D01*
X6338Y4966D01*
X6324Y4975D01*
X6281Y4984D01*
X5422Y5842D01*
X5439Y5896D01*
X5464Y5901D01*
X5527Y5943D01*
X5569Y6006D01*
X5584Y6080D01*
X5569Y6154D01*
X5527Y6217D01*
X5464Y6259D01*
X5390Y6274D01*
X5316Y6259D01*
X5253Y6217D01*
X5211Y6154D01*
X5206Y6129D01*
X5152Y6112D01*
X4926Y6338D01*
X4947Y6388D01*
X5500D01*
X5505Y6389D01*
X5673Y6372D01*
D02*
G37*
G36*
X-6009Y2476D02*
X-5967Y2413D01*
X-5904Y2371D01*
X-5830Y2356D01*
X-5801Y2362D01*
X-5177Y1738D01*
X-5196Y1692D01*
X-5329D01*
X-5329Y1692D01*
X-5372Y1684D01*
X-5409Y1659D01*
X-5409Y1659D01*
X-6342Y726D01*
X-6388Y746D01*
Y1140D01*
X-6338Y1167D01*
X-6314Y1151D01*
X-6240Y1136D01*
X-6166Y1151D01*
X-6103Y1193D01*
X-6061Y1256D01*
X-6046Y1330D01*
X-6061Y1404D01*
X-6103Y1467D01*
X-6166Y1509D01*
X-6240Y1524D01*
X-6314Y1509D01*
X-6338Y1493D01*
X-6388Y1520D01*
Y2363D01*
X-6338Y2390D01*
X-6324Y2381D01*
X-6250Y2366D01*
X-6176Y2381D01*
X-6113Y2423D01*
X-6071Y2486D01*
X-6066Y2509D01*
X-6016D01*
X-6009Y2476D01*
D02*
G37*
G36*
X-5742Y-856D02*
Y-2407D01*
X-5764Y-2411D01*
X-5827Y-2453D01*
X-5869Y-2516D01*
X-5884Y-2590D01*
X-5876Y-2626D01*
X-5884Y-2637D01*
X-5892Y-2680D01*
X-5892Y-2680D01*
Y-3457D01*
X-5898Y-3461D01*
X-5948Y-3433D01*
Y-996D01*
X-5788Y-836D01*
X-5742Y-856D01*
D02*
G37*
G36*
X-4364Y-218D02*
X-4389Y-256D01*
X-4404Y-330D01*
X-4389Y-404D01*
X-4347Y-467D01*
X-4322Y-484D01*
Y-2894D01*
X-5049Y-3621D01*
X-5074Y-3657D01*
X-5082Y-3700D01*
X-5082Y-3700D01*
Y-3908D01*
X-5586D01*
X-5603Y-3883D01*
X-5642Y-3857D01*
X-5645Y-3798D01*
X-5643Y-3797D01*
X-5601Y-3734D01*
X-5586Y-3660D01*
X-5601Y-3586D01*
X-5643Y-3523D01*
X-5668Y-3506D01*
Y-2779D01*
X-5616Y-2769D01*
X-5553Y-2727D01*
X-5511Y-2664D01*
X-5496Y-2590D01*
X-5511Y-2516D01*
X-5518Y-2506D01*
Y-797D01*
X-5514Y-794D01*
X-5440Y-779D01*
X-5377Y-737D01*
X-5335Y-674D01*
X-5320Y-600D01*
X-5326Y-571D01*
X-4924Y-168D01*
X-4390D01*
X-4364Y-218D01*
D02*
G37*
G36*
X-1006Y-392D02*
Y-1544D01*
X-1052Y-1564D01*
X-1941Y-675D01*
X-1911Y-634D01*
X-1899Y-640D01*
X-1769Y-680D01*
X-1634Y-693D01*
X-1499Y-680D01*
X-1369Y-640D01*
X-1249Y-576D01*
X-1144Y-490D01*
X-1057Y-385D01*
X-1055Y-380D01*
X-1006Y-392D01*
D02*
G37*
G36*
X-303Y446D02*
X-334Y407D01*
X-384Y441D01*
X-440Y452D01*
Y250D01*
X-238D01*
X-249Y306D01*
X-283Y356D01*
X-244Y387D01*
X238Y-95D01*
X214Y-141D01*
X200Y-138D01*
Y-340D01*
X402D01*
X399Y-326D01*
X445Y-302D01*
X2548Y-2404D01*
Y-3621D01*
X1521Y-4649D01*
X1496Y-4685D01*
X1488Y-4728D01*
X1488Y-4728D01*
Y-5717D01*
X1439Y-5742D01*
X1348Y-5705D01*
X1250Y-5692D01*
X1152Y-5705D01*
X1061Y-5742D01*
X983Y-5803D01*
X922Y-5881D01*
X885Y-5972D01*
X872Y-6070D01*
X885Y-6168D01*
X922Y-6259D01*
X983Y-6337D01*
X987Y-6341D01*
X971Y-6388D01*
X-971D01*
X-987Y-6341D01*
X-983Y-6337D01*
X-922Y-6259D01*
X-885Y-6168D01*
X-872Y-6070D01*
X-885Y-5972D01*
X-922Y-5881D01*
X-983Y-5803D01*
X-1061Y-5742D01*
X-1152Y-5705D01*
X-1250Y-5692D01*
X-1348Y-5705D01*
X-1439Y-5742D01*
X-1517Y-5803D01*
X-1578Y-5881D01*
X-1615Y-5972D01*
X-1628Y-6070D01*
X-1615Y-6168D01*
X-1578Y-6259D01*
X-1517Y-6337D01*
X-1513Y-6341D01*
X-1529Y-6388D01*
X-1777D01*
X-1804Y-6338D01*
X-1781Y-6304D01*
X-1766Y-6230D01*
X-1781Y-6156D01*
X-1823Y-6093D01*
X-1886Y-6051D01*
X-1960Y-6036D01*
X-2034Y-6051D01*
X-2097Y-6093D01*
X-2139Y-6156D01*
X-2154Y-6230D01*
X-2139Y-6304D01*
X-2116Y-6338D01*
X-2143Y-6388D01*
X-2277D01*
X-2304Y-6338D01*
X-2281Y-6304D01*
X-2266Y-6230D01*
X-2281Y-6156D01*
X-2323Y-6093D01*
X-2386Y-6051D01*
X-2460Y-6036D01*
X-2534Y-6051D01*
X-2597Y-6093D01*
X-2639Y-6156D01*
X-2654Y-6230D01*
X-2639Y-6304D01*
X-2616Y-6338D01*
X-2643Y-6388D01*
X-5500D01*
X-5505Y-6389D01*
X-5673Y-6372D01*
X-5840Y-6322D01*
X-5994Y-6239D01*
X-6129Y-6129D01*
X-6239Y-5994D01*
X-6322Y-5840D01*
X-6372Y-5673D01*
X-6389Y-5505D01*
X-6388Y-5500D01*
Y-4306D01*
X-6342Y-4287D01*
X-6248Y-4381D01*
X-6254Y-4410D01*
X-6239Y-4484D01*
X-6197Y-4547D01*
X-6134Y-4589D01*
X-6060Y-4604D01*
X-5986Y-4589D01*
X-5923Y-4547D01*
X-5881Y-4484D01*
X-5866Y-4410D01*
X-5881Y-4336D01*
X-5923Y-4273D01*
X-5986Y-4231D01*
X-6039Y-4220D01*
Y-4170D01*
X-5986Y-4159D01*
X-5951Y-4136D01*
X-5886Y-4144D01*
X-5877Y-4157D01*
X-5814Y-4199D01*
X-5740Y-4214D01*
X-5666Y-4199D01*
X-5603Y-4157D01*
X-5586Y-4132D01*
X-5037D01*
X-3567Y-5602D01*
Y-5946D01*
X-3592Y-5963D01*
X-3634Y-6026D01*
X-3649Y-6100D01*
X-3634Y-6174D01*
X-3592Y-6237D01*
X-3529Y-6279D01*
X-3455Y-6294D01*
X-3381Y-6279D01*
X-3318Y-6237D01*
X-3276Y-6174D01*
X-3262Y-6100D01*
X-3276Y-6026D01*
X-3318Y-5963D01*
X-3343Y-5946D01*
Y-5555D01*
X-3352Y-5512D01*
X-3376Y-5476D01*
X-3376Y-5476D01*
X-4858Y-3994D01*
Y-3746D01*
X-4131Y-3019D01*
X-4131Y-3019D01*
X-4106Y-2983D01*
X-4098Y-2940D01*
Y-484D01*
X-4073Y-467D01*
X-4031Y-404D01*
X-4016Y-330D01*
X-4031Y-256D01*
X-4056Y-218D01*
X-4030Y-168D01*
X-3317D01*
X-2993Y-492D01*
X-3009Y-516D01*
X-3024Y-590D01*
X-3009Y-664D01*
X-2967Y-727D01*
X-2904Y-769D01*
X-2830Y-784D01*
X-2781Y-774D01*
X-2742Y-815D01*
X-2747Y-840D01*
X-2520D01*
Y-880D01*
X-2480D01*
Y-1107D01*
X-2430Y-1097D01*
X-2354Y-1046D01*
X-2303Y-970D01*
X-2296Y-934D01*
X-2242Y-917D01*
X-1127Y-2032D01*
Y-3190D01*
X-1147Y-3203D01*
X-1189Y-3266D01*
X-1204Y-3340D01*
X-1189Y-3414D01*
X-1147Y-3477D01*
X-1084Y-3519D01*
X-1010Y-3534D01*
X-936Y-3519D01*
X-873Y-3477D01*
X-831Y-3414D01*
X-816Y-3340D01*
X-831Y-3266D01*
X-873Y-3203D01*
X-903Y-3183D01*
Y-2953D01*
X-859Y-2929D01*
X-844Y-2939D01*
X-770Y-2954D01*
X-696Y-2939D01*
X-633Y-2897D01*
X-591Y-2834D01*
X-576Y-2760D01*
X-591Y-2686D01*
X-633Y-2623D01*
X-696Y-2581D01*
X-770Y-2566D01*
X-844Y-2581D01*
X-859Y-2591D01*
X-903Y-2567D01*
Y-2096D01*
X-857Y-2076D01*
X151Y-3084D01*
X151Y-3084D01*
X188Y-3109D01*
X231Y-3117D01*
X231Y-3117D01*
X739D01*
X863Y-3242D01*
X839Y-3288D01*
X776Y-3301D01*
X713Y-3343D01*
X671Y-3406D01*
X656Y-3480D01*
X671Y-3554D01*
X713Y-3617D01*
X776Y-3659D01*
X850Y-3674D01*
X924Y-3659D01*
X987Y-3617D01*
X1029Y-3554D01*
X1042Y-3491D01*
X1088Y-3467D01*
X1313Y-3692D01*
X1289Y-3738D01*
X1280Y-3736D01*
X1206Y-3751D01*
X1143Y-3793D01*
X1101Y-3856D01*
X1086Y-3930D01*
X1101Y-4004D01*
X1143Y-4067D01*
X1206Y-4109D01*
X1280Y-4124D01*
X1354Y-4109D01*
X1417Y-4067D01*
X1459Y-4004D01*
X1465Y-3971D01*
X1516D01*
X1521Y-3994D01*
X1563Y-4057D01*
X1626Y-4099D01*
X1700Y-4114D01*
X1774Y-4099D01*
X1837Y-4057D01*
X1879Y-3994D01*
X1894Y-3920D01*
X1879Y-3846D01*
X1837Y-3783D01*
X1774Y-3741D01*
X1700Y-3726D01*
X1671Y-3732D01*
X896Y-2957D01*
X901Y-2908D01*
X917Y-2897D01*
X959Y-2834D01*
X962Y-2817D01*
X1010Y-2802D01*
X1757Y-3549D01*
X1794Y-3574D01*
X1836Y-3582D01*
X1836Y-3582D01*
X2076D01*
X2093Y-3607D01*
X2156Y-3649D01*
X2230Y-3664D01*
X2304Y-3649D01*
X2367Y-3607D01*
X2409Y-3544D01*
X2424Y-3470D01*
X2409Y-3396D01*
X2367Y-3333D01*
X2304Y-3291D01*
X2230Y-3276D01*
X2156Y-3291D01*
X2093Y-3333D01*
X2076Y-3358D01*
X1883D01*
X1538Y-3013D01*
X1560Y-2973D01*
Y-2780D01*
X1367D01*
X1327Y-2802D01*
X961Y-2436D01*
X924Y-2411D01*
X881Y-2403D01*
X881Y-2403D01*
X288D01*
X261Y-2353D01*
X297Y-2300D01*
X307Y-2250D01*
X80D01*
Y-2210D01*
X40D01*
Y-1983D01*
X-10Y-1993D01*
X-86Y-2044D01*
X-137Y-2120D01*
X-145Y-2161D01*
X-199Y-2178D01*
X-782Y-1595D01*
Y306D01*
X-790Y349D01*
X-815Y386D01*
X-815Y386D01*
X-1170Y742D01*
X-1151Y788D01*
X-644D01*
X-303Y446D01*
D02*
G37*
G36*
X-3248Y103D02*
X-3268Y61D01*
X-3272Y56D01*
X-4970D01*
X-4970Y56D01*
X-5013Y48D01*
X-5049Y23D01*
X-5049Y23D01*
X-5485Y-412D01*
X-5514Y-406D01*
X-5588Y-421D01*
X-5638Y-454D01*
X-5688Y-435D01*
Y324D01*
X-5424Y588D01*
X-4454D01*
X-4445Y542D01*
X-4446Y538D01*
X-4507Y497D01*
X-4549Y434D01*
X-4564Y360D01*
X-4549Y286D01*
X-4507Y223D01*
X-4444Y181D01*
X-4370Y166D01*
X-4296Y181D01*
X-4233Y223D01*
X-4191Y286D01*
X-4176Y360D01*
X-4191Y434D01*
X-4200Y447D01*
X-4197Y462D01*
X-4174Y499D01*
X-4116Y511D01*
X-4053Y553D01*
X-4011Y616D01*
X-4001Y668D01*
X-3982Y697D01*
X-3950Y713D01*
X-3858D01*
X-3248Y103D01*
D02*
G37*
G36*
X-5500Y6388D02*
X-4635D01*
X-4620Y6338D01*
X-4636Y6327D01*
X-4678Y6264D01*
X-4693Y6190D01*
X-4678Y6116D01*
X-4636Y6053D01*
X-4573Y6011D01*
X-4499Y5996D01*
X-4425Y6011D01*
X-4362Y6053D01*
X-4339Y6088D01*
X-4272D01*
X-4224Y6080D01*
X-4209Y6006D01*
X-4167Y5943D01*
X-4104Y5901D01*
X-4030Y5886D01*
X-3956Y5901D01*
X-3893Y5943D01*
X-3870Y5978D01*
X-3830D01*
X-3791Y5986D01*
X-3758Y6008D01*
X-3698Y6068D01*
X-3541D01*
X-3522Y6022D01*
X-3559Y5986D01*
X-3600Y5994D01*
X-3674Y5979D01*
X-3737Y5937D01*
X-3779Y5874D01*
X-3794Y5800D01*
X-3790Y5781D01*
X-3822Y5742D01*
X-4930D01*
X-4953Y5777D01*
X-5016Y5819D01*
X-5090Y5834D01*
X-5164Y5819D01*
X-5227Y5777D01*
X-5241Y5756D01*
X-5291D01*
X-5304Y5776D01*
X-5380Y5827D01*
X-5430Y5837D01*
Y5610D01*
Y5383D01*
X-5380Y5393D01*
X-5304Y5444D01*
X-5276Y5486D01*
X-5265Y5490D01*
X-5212Y5493D01*
X-5164Y5461D01*
X-5090Y5446D01*
X-5016Y5461D01*
X-4953Y5503D01*
X-4930Y5538D01*
X-3808D01*
X-3747Y5478D01*
X-3714Y5456D01*
X-3675Y5448D01*
X-3299D01*
X-3283Y5398D01*
X-3319Y5344D01*
X-3334Y5270D01*
X-3319Y5196D01*
X-3277Y5133D01*
X-3214Y5091D01*
X-3140Y5076D01*
X-3066Y5091D01*
X-3003Y5133D01*
X-2961Y5196D01*
X-2946Y5270D01*
X-2948Y5281D01*
X-2906Y5323D01*
X-2870Y5316D01*
X-2822Y5326D01*
X-2794Y5300D01*
X-2550D01*
Y5260D01*
X-2510D01*
Y5033D01*
X-2460Y5043D01*
X-2384Y5094D01*
X-2340Y5160D01*
X-2285Y5176D01*
X-2280Y5171D01*
X-2280Y5171D01*
X-2244Y5146D01*
X-2201Y5138D01*
X-1928D01*
X-1927Y5127D01*
X-1853D01*
X-1852Y5138D01*
X2858D01*
X2882Y5102D01*
X2950Y5057D01*
X3030Y5041D01*
X3110Y5057D01*
X3131Y5071D01*
X3175Y5047D01*
Y3267D01*
X2878Y2970D01*
X2856Y2937D01*
X2848Y2898D01*
Y1833D01*
X2738Y1723D01*
X2716Y1690D01*
X2661Y1669D01*
X2640Y1683D01*
X2560Y1699D01*
X2480Y1683D01*
X2412Y1638D01*
X2367Y1570D01*
X2351Y1490D01*
X2367Y1410D01*
X2412Y1342D01*
X2480Y1297D01*
X2560Y1281D01*
X2640Y1297D01*
X2658Y1309D01*
X2708Y1282D01*
Y341D01*
X2658Y324D01*
X2600Y363D01*
X2520Y379D01*
X2440Y363D01*
X2372Y318D01*
X2330Y254D01*
X2310Y252D01*
X2277Y256D01*
X2274Y265D01*
X2210Y385D01*
X2124Y490D01*
X2034Y564D01*
X2032Y612D01*
X2036Y624D01*
X2078Y652D01*
X2123Y720D01*
X2139Y800D01*
X2123Y880D01*
X2078Y948D01*
X2010Y993D01*
X1930Y1009D01*
X1850Y993D01*
X1782Y948D01*
X1737Y880D01*
X1721Y800D01*
X1734Y734D01*
X1704Y686D01*
X1634Y693D01*
X1499Y680D01*
X1369Y640D01*
X1249Y576D01*
X1144Y490D01*
X1057Y385D01*
X1049Y369D01*
X990Y366D01*
X957Y417D01*
X876Y471D01*
X820Y482D01*
Y240D01*
Y-2D01*
X876Y9D01*
X899Y25D01*
X907Y20D01*
X941Y-7D01*
X954Y-135D01*
X993Y-265D01*
X1057Y-385D01*
X1144Y-490D01*
X1249Y-576D01*
X1369Y-640D01*
X1499Y-680D01*
X1634Y-693D01*
X1769Y-680D01*
X1899Y-640D01*
X2019Y-576D01*
X2124Y-490D01*
X2192Y-408D01*
X2245Y-422D01*
X2259Y-496D01*
X2313Y-577D01*
X2394Y-631D01*
X2450Y-642D01*
Y-400D01*
X2530D01*
Y-642D01*
X2586Y-631D01*
X2658Y-582D01*
X2708Y-598D01*
Y-2182D01*
X2662Y-2201D01*
X-45Y506D01*
X-40Y517D01*
X-16Y547D01*
X30Y538D01*
Y740D01*
X-172D01*
X-163Y694D01*
X-193Y670D01*
X-204Y665D01*
X-518Y979D01*
X-555Y1004D01*
X-598Y1012D01*
X-598Y1012D01*
X-1894D01*
X-1909Y1062D01*
X-1863Y1093D01*
X-1821Y1156D01*
X-1806Y1230D01*
X-1821Y1304D01*
X-1830Y1318D01*
X-1803Y1368D01*
X-94D01*
X-94Y1368D01*
X-51Y1376D01*
X-15Y1401D01*
X529Y1945D01*
X554Y1981D01*
X562Y2024D01*
X562Y2024D01*
Y4426D01*
X587Y4443D01*
X629Y4506D01*
X644Y4580D01*
X629Y4654D01*
X587Y4717D01*
X524Y4759D01*
X450Y4774D01*
X376Y4759D01*
X313Y4717D01*
X278Y4664D01*
X257Y4660D01*
X243D01*
X222Y4664D01*
X187Y4717D01*
X124Y4759D01*
X50Y4774D01*
X-24Y4759D01*
X-87Y4717D01*
X-122Y4664D01*
X-143Y4660D01*
X-157D01*
X-178Y4664D01*
X-213Y4717D01*
X-276Y4759D01*
X-350Y4774D01*
X-424Y4759D01*
X-487Y4717D01*
X-529Y4654D01*
X-544Y4580D01*
X-529Y4506D01*
X-487Y4443D01*
X-424Y4401D01*
X-420Y4400D01*
X-374Y4391D01*
X-374D01*
X-371Y4390D01*
X-366Y4389D01*
Y4389D01*
Y4389D01*
Y4387D01*
Y4342D01*
Y4340D01*
Y4339D01*
Y4339D01*
X-372Y4337D01*
X-372D01*
X-414Y4329D01*
X-477Y4287D01*
X-519Y4224D01*
X-534Y4150D01*
X-519Y4076D01*
X-477Y4013D01*
X-414Y3971D01*
X-340Y3956D01*
X-266Y3971D01*
X-203Y4013D01*
X-161Y4076D01*
X-146Y4150D01*
X-161Y4224D01*
X-203Y4287D01*
X-266Y4329D01*
X-270Y4330D01*
X-316Y4339D01*
X-319Y4340D01*
X-324Y4341D01*
Y4341D01*
Y4341D01*
Y4343D01*
Y4388D01*
Y4390D01*
Y4391D01*
Y4391D01*
X-318Y4393D01*
X-318D01*
X-276Y4401D01*
X-213Y4443D01*
X-178Y4496D01*
X-157Y4500D01*
X-143D01*
X-122Y4496D01*
X-87Y4443D01*
X-24Y4401D01*
X50Y4386D01*
X124Y4401D01*
X187Y4443D01*
X222Y4496D01*
X243Y4500D01*
X257D01*
X278Y4496D01*
X313Y4443D01*
X338Y4426D01*
Y2098D01*
X320Y2084D01*
X308Y2084D01*
X259Y2099D01*
X227Y2147D01*
X164Y2189D01*
X90Y2204D01*
X16Y2189D01*
X-47Y2147D01*
X-89Y2085D01*
X-104Y2010D01*
X-89Y1936D01*
X-47Y1873D01*
X16Y1831D01*
X33Y1828D01*
X48Y1780D01*
X-140Y1592D01*
X-2310D01*
X-2353Y1584D01*
X-2389Y1559D01*
X-2389Y1559D01*
X-2521Y1428D01*
X-2550Y1434D01*
X-2624Y1419D01*
X-2687Y1377D01*
X-2729Y1314D01*
X-2784Y1294D01*
X-2790Y1297D01*
X-2800Y1350D01*
X-2840Y1410D01*
X-2900Y1450D01*
X-2970Y1464D01*
X-3040Y1450D01*
X-3093Y1414D01*
X-3115Y1409D01*
X-3150D01*
X-3154Y1416D01*
X-3230Y1467D01*
X-3280Y1477D01*
Y1250D01*
X-3360D01*
Y1477D01*
X-3410Y1467D01*
X-3486Y1416D01*
X-3537Y1340D01*
X-3543Y1310D01*
X-3590Y1296D01*
X-4114Y1819D01*
X-4151Y1844D01*
X-4194Y1852D01*
X-4194Y1852D01*
X-4974D01*
X-5642Y2521D01*
X-5636Y2550D01*
X-5651Y2624D01*
X-5693Y2687D01*
X-5756Y2729D01*
X-5830Y2744D01*
X-5904Y2729D01*
X-5967Y2687D01*
X-6009Y2624D01*
X-6014Y2601D01*
X-6064D01*
X-6071Y2634D01*
X-6112Y2695D01*
X-6119Y2708D01*
Y2751D01*
X-6084Y2774D01*
X-6033Y2850D01*
X-6023Y2900D01*
X-6250D01*
Y2940D01*
X-6290D01*
Y3167D01*
X-6338Y3157D01*
X-6347Y3156D01*
X-6388Y3183D01*
Y4409D01*
X-6338Y4439D01*
X-6310Y4434D01*
Y4650D01*
Y4866D01*
X-6338Y4861D01*
X-6388Y4891D01*
Y5111D01*
X-6338Y5127D01*
X-6284Y5091D01*
X-6210Y5076D01*
X-6136Y5091D01*
X-6073Y5133D01*
X-6031Y5196D01*
X-6016Y5270D01*
X-6031Y5344D01*
X-6073Y5407D01*
X-6136Y5449D01*
X-6210Y5464D01*
X-6284Y5449D01*
X-6338Y5413D01*
X-6388Y5429D01*
Y5500D01*
X-6389Y5505D01*
X-6372Y5673D01*
X-6322Y5840D01*
X-6239Y5994D01*
X-6129Y6129D01*
X-5994Y6239D01*
X-5840Y6322D01*
X-5673Y6372D01*
X-5505Y6389D01*
X-5500Y6388D01*
D02*
G37*
G36*
X2111Y5607D02*
X2110Y5598D01*
X2096Y5530D01*
X2110Y5460D01*
X2142Y5412D01*
X2124Y5362D01*
X123D01*
X96Y5412D01*
X119Y5446D01*
X134Y5520D01*
X119Y5594D01*
X112Y5604D01*
X136Y5648D01*
X2085D01*
X2111Y5607D01*
D02*
G37*
G36*
X-232Y5604D02*
X-239Y5594D01*
X-254Y5520D01*
X-239Y5446D01*
X-216Y5412D01*
X-243Y5362D01*
X-1377D01*
X-1404Y5412D01*
X-1381Y5446D01*
X-1366Y5520D01*
X-1381Y5594D01*
X-1388Y5604D01*
X-1364Y5648D01*
X-256D01*
X-232Y5604D01*
D02*
G37*
%LPC*%
G36*
X4690Y-1167D02*
X4660Y-1171D01*
X4594Y-1198D01*
X4537Y-1241D01*
X4494Y-1298D01*
X4467Y-1364D01*
X4463Y-1394D01*
X4690D01*
Y-1167D01*
D02*
G37*
G36*
X-520Y452D02*
X-576Y441D01*
X-657Y387D01*
X-711Y306D01*
X-722Y250D01*
X-520D01*
Y452D01*
D02*
G37*
G36*
X-238Y170D02*
X-440D01*
Y-32D01*
X-384Y-21D01*
X-303Y33D01*
X-249Y114D01*
X-238Y170D01*
D02*
G37*
G36*
X630Y-1831D02*
X550Y-1847D01*
X482Y-1892D01*
X437Y-1960D01*
X421Y-2040D01*
X437Y-2120D01*
X482Y-2188D01*
X550Y-2233D01*
X630Y-2249D01*
X710Y-2233D01*
X778Y-2188D01*
X823Y-2120D01*
X839Y-2040D01*
X823Y-1960D01*
X778Y-1892D01*
X710Y-1847D01*
X630Y-1831D01*
D02*
G37*
G36*
X5870Y-1647D02*
X5789Y-1658D01*
X5714Y-1689D01*
X5649Y-1739D01*
X5599Y-1804D01*
X5568Y-1879D01*
X5557Y-1960D01*
X5568Y-2041D01*
X5599Y-2116D01*
X5649Y-2181D01*
X5714Y-2231D01*
X5789Y-2262D01*
X5870Y-2273D01*
X5951Y-2262D01*
X6026Y-2231D01*
X6091Y-2181D01*
X6141Y-2116D01*
X6172Y-2041D01*
X6183Y-1960D01*
X6172Y-1879D01*
X6141Y-1804D01*
X6091Y-1739D01*
X6026Y-1689D01*
X5951Y-1658D01*
X5870Y-1647D01*
D02*
G37*
G36*
X120Y-1983D02*
Y-2170D01*
X307D01*
X297Y-2120D01*
X246Y-2044D01*
X170Y-1993D01*
X120Y-1983D01*
D02*
G37*
G36*
X-5237Y-1834D02*
X-5311Y-1848D01*
X-5374Y-1890D01*
X-5416Y-1953D01*
X-5431Y-2027D01*
X-5416Y-2101D01*
X-5374Y-2164D01*
X-5311Y-2206D01*
X-5237Y-2221D01*
X-5163Y-2206D01*
X-5100Y-2164D01*
X-5058Y-2101D01*
X-5044Y-2027D01*
X-5058Y-1953D01*
X-5100Y-1890D01*
X-5163Y-1848D01*
X-5237Y-1834D01*
D02*
G37*
G36*
X-520Y170D02*
X-722D01*
X-711Y114D01*
X-657Y33D01*
X-576Y-21D01*
X-520Y-32D01*
Y170D01*
D02*
G37*
G36*
X740Y200D02*
X538D01*
X549Y144D01*
X603Y63D01*
X684Y9D01*
X740Y-2D01*
Y200D01*
D02*
G37*
G36*
X120Y-138D02*
X64Y-149D01*
X-17Y-203D01*
X-71Y-284D01*
X-82Y-340D01*
X120D01*
Y-138D01*
D02*
G37*
G36*
X402Y-420D02*
X200D01*
Y-622D01*
X256Y-611D01*
X337Y-557D01*
X391Y-476D01*
X402Y-420D01*
D02*
G37*
G36*
X4770Y-1167D02*
Y-1394D01*
X4997D01*
X4993Y-1364D01*
X4966Y-1298D01*
X4923Y-1241D01*
X4866Y-1198D01*
X4800Y-1171D01*
X4770Y-1167D01*
D02*
G37*
G36*
X-2560Y-920D02*
X-2747D01*
X-2737Y-970D01*
X-2686Y-1046D01*
X-2610Y-1097D01*
X-2560Y-1107D01*
Y-920D01*
D02*
G37*
G36*
X120Y-420D02*
X-82D01*
X-71Y-476D01*
X-17Y-557D01*
X64Y-611D01*
X120Y-622D01*
Y-420D01*
D02*
G37*
G36*
X4997Y-1474D02*
X4463D01*
X4467Y-1505D01*
X4494Y-1570D01*
X4537Y-1627D01*
X4566Y-1649D01*
X4566Y-1710D01*
X4529Y-1739D01*
X4479Y-1804D01*
X4448Y-1879D01*
X4437Y-1960D01*
X4448Y-2041D01*
X4479Y-2116D01*
X4529Y-2181D01*
X4594Y-2231D01*
X4669Y-2262D01*
X4750Y-2273D01*
X4831Y-2262D01*
X4906Y-2231D01*
X4971Y-2181D01*
X5021Y-2116D01*
X5052Y-2041D01*
X5063Y-1960D01*
X5052Y-1879D01*
X5021Y-1804D01*
X4971Y-1739D01*
X4915Y-1696D01*
X4908Y-1662D01*
X4910Y-1636D01*
X4923Y-1627D01*
X4966Y-1570D01*
X4993Y-1505D01*
X4997Y-1474D01*
D02*
G37*
G36*
X-2343Y-4370D02*
X-2530D01*
Y-4557D01*
X-2480Y-4547D01*
X-2404Y-4496D01*
X-2353Y-4420D01*
X-2343Y-4370D01*
D02*
G37*
G36*
X-2610D02*
X-2797D01*
X-2787Y-4420D01*
X-2736Y-4496D01*
X-2660Y-4547D01*
X-2610Y-4557D01*
Y-4370D01*
D02*
G37*
G36*
Y-4103D02*
X-2660Y-4113D01*
X-2736Y-4164D01*
X-2787Y-4240D01*
X-2797Y-4290D01*
X-2610D01*
Y-4103D01*
D02*
G37*
G36*
X-4360Y-3710D02*
X-4547D01*
X-4537Y-3760D01*
X-4486Y-3836D01*
X-4410Y-3887D01*
X-4360Y-3897D01*
Y-3710D01*
D02*
G37*
G36*
X-2530Y-4103D02*
Y-4290D01*
X-2343D01*
X-2353Y-4240D01*
X-2404Y-4164D01*
X-2480Y-4113D01*
X-2530Y-4103D01*
D02*
G37*
G36*
X120Y-5316D02*
X46Y-5331D01*
X-17Y-5373D01*
X-59Y-5436D01*
X-74Y-5510D01*
X-59Y-5584D01*
X-17Y-5647D01*
X46Y-5689D01*
X120Y-5704D01*
X194Y-5689D01*
X257Y-5647D01*
X299Y-5584D01*
X314Y-5510D01*
X299Y-5436D01*
X257Y-5373D01*
X194Y-5331D01*
X120Y-5316D01*
D02*
G37*
G36*
X-350D02*
X-424Y-5331D01*
X-487Y-5373D01*
X-529Y-5436D01*
X-544Y-5510D01*
X-529Y-5584D01*
X-487Y-5647D01*
X-424Y-5689D01*
X-350Y-5704D01*
X-276Y-5689D01*
X-213Y-5647D01*
X-171Y-5584D01*
X-156Y-5510D01*
X-171Y-5436D01*
X-213Y-5373D01*
X-276Y-5331D01*
X-350Y-5316D01*
D02*
G37*
G36*
X-4640Y-4826D02*
X-4722Y-4842D01*
X-4791Y-4889D01*
X-4838Y-4958D01*
X-4854Y-5040D01*
X-4838Y-5122D01*
X-4791Y-5191D01*
X-4722Y-5238D01*
X-4640Y-5254D01*
X-4558Y-5238D01*
X-4489Y-5191D01*
X-4442Y-5122D01*
X-4426Y-5040D01*
X-4442Y-4958D01*
X-4489Y-4889D01*
X-4558Y-4842D01*
X-4640Y-4826D01*
D02*
G37*
G36*
X-510Y-4196D02*
X-584Y-4211D01*
X-647Y-4253D01*
X-689Y-4316D01*
X-704Y-4390D01*
X-689Y-4464D01*
X-647Y-4527D01*
X-584Y-4569D01*
X-510Y-4584D01*
X-436Y-4569D01*
X-373Y-4527D01*
X-331Y-4464D01*
X-316Y-4390D01*
X-331Y-4316D01*
X-373Y-4253D01*
X-436Y-4211D01*
X-510Y-4196D01*
D02*
G37*
G36*
X-2020Y-4786D02*
X-2094Y-4801D01*
X-2157Y-4843D01*
X-2199Y-4906D01*
X-2214Y-4980D01*
X-2199Y-5054D01*
X-2157Y-5117D01*
X-2094Y-5159D01*
X-2020Y-5174D01*
X-1946Y-5159D01*
X-1883Y-5117D01*
X-1841Y-5054D01*
X-1826Y-4980D01*
X-1841Y-4906D01*
X-1883Y-4843D01*
X-1946Y-4801D01*
X-2020Y-4786D01*
D02*
G37*
G36*
X4670Y-3113D02*
Y-3300D01*
X4857D01*
X4847Y-3250D01*
X4796Y-3174D01*
X4720Y-3123D01*
X4670Y-3113D01*
D02*
G37*
G36*
X4590D02*
X4540Y-3123D01*
X4464Y-3174D01*
X4413Y-3250D01*
X4403Y-3300D01*
X4590D01*
Y-3113D01*
D02*
G37*
G36*
X3680Y-2866D02*
X3610Y-2880D01*
X3550Y-2920D01*
X3510Y-2980D01*
X3496Y-3050D01*
X3510Y-3120D01*
X3550Y-3180D01*
X3610Y-3220D01*
X3680Y-3234D01*
X3750Y-3220D01*
X3810Y-3180D01*
X3850Y-3120D01*
X3864Y-3050D01*
X3850Y-2980D01*
X3810Y-2920D01*
X3750Y-2880D01*
X3680Y-2866D01*
D02*
G37*
G36*
X1950Y-2326D02*
X1876Y-2341D01*
X1813Y-2383D01*
X1771Y-2446D01*
X1758Y-2509D01*
X1727Y-2530D01*
X1708Y-2536D01*
X1690Y-2523D01*
X1640Y-2513D01*
Y-2740D01*
Y-2967D01*
X1690Y-2957D01*
X1766Y-2906D01*
X1817Y-2830D01*
X1835Y-2740D01*
X1831Y-2725D01*
X1873Y-2697D01*
X1876Y-2699D01*
X1950Y-2714D01*
X2024Y-2699D01*
X2087Y-2657D01*
X2129Y-2594D01*
X2144Y-2520D01*
X2129Y-2446D01*
X2087Y-2383D01*
X2024Y-2341D01*
X1950Y-2326D01*
D02*
G37*
G36*
X1560Y-2513D02*
X1510Y-2523D01*
X1434Y-2574D01*
X1383Y-2650D01*
X1373Y-2700D01*
X1560D01*
Y-2513D01*
D02*
G37*
G36*
X-4360Y-3443D02*
X-4410Y-3453D01*
X-4486Y-3504D01*
X-4537Y-3580D01*
X-4547Y-3630D01*
X-4360D01*
Y-3443D01*
D02*
G37*
G36*
X-4093Y-3710D02*
X-4280D01*
Y-3897D01*
X-4230Y-3887D01*
X-4154Y-3836D01*
X-4103Y-3760D01*
X-4093Y-3710D01*
D02*
G37*
G36*
X-4280Y-3443D02*
Y-3630D01*
X-4093D01*
X-4103Y-3580D01*
X-4154Y-3504D01*
X-4230Y-3453D01*
X-4280Y-3443D01*
D02*
G37*
G36*
X4857Y-3380D02*
X4670D01*
Y-3567D01*
X4720Y-3557D01*
X4796Y-3506D01*
X4847Y-3430D01*
X4857Y-3380D01*
D02*
G37*
G36*
X4590D02*
X4403D01*
X4413Y-3430D01*
X4464Y-3506D01*
X4540Y-3557D01*
X4590Y-3567D01*
Y-3380D01*
D02*
G37*
G36*
X740Y482D02*
X684Y471D01*
X603Y417D01*
X549Y336D01*
X538Y280D01*
X740D01*
Y482D01*
D02*
G37*
G36*
X-2727Y4566D02*
X-2801Y4552D01*
X-2864Y4510D01*
X-2906Y4447D01*
X-2914Y4407D01*
X-2914Y4407D01*
X-2918Y4386D01*
X-2919D01*
X-2921D01*
X-2925D01*
X-2963D01*
X-2967D01*
X-2969D01*
X-2969D01*
X-2974Y4407D01*
X-2974Y4407D01*
X-2981Y4447D01*
X-3023Y4510D01*
X-3086Y4552D01*
X-3160Y4566D01*
X-3235Y4552D01*
X-3297Y4510D01*
X-3339Y4447D01*
X-3347Y4407D01*
Y4407D01*
X-3351Y4386D01*
X-3352D01*
X-3354D01*
X-3358D01*
X-3396D01*
X-3400D01*
X-3402D01*
X-3402D01*
X-3407Y4407D01*
Y4407D01*
X-3414Y4447D01*
X-3456Y4510D01*
X-3519Y4552D01*
X-3593Y4566D01*
X-3668Y4552D01*
X-3730Y4510D01*
X-3772Y4447D01*
X-3780Y4407D01*
X-3780Y4407D01*
X-3785Y4386D01*
X-3785D01*
X-3787D01*
X-3791D01*
X-3829D01*
X-3833D01*
X-3835D01*
X-3835D01*
X-3840Y4407D01*
X-3840Y4407D01*
X-3848Y4447D01*
X-3890Y4510D01*
X-3952Y4552D01*
X-4027Y4566D01*
X-4101Y4552D01*
X-4164Y4510D01*
X-4206Y4447D01*
X-4213Y4407D01*
X-4213Y4407D01*
X-4218Y4386D01*
X-4218D01*
X-4220D01*
X-4224D01*
X-4262D01*
X-4266D01*
X-4268D01*
X-4269D01*
X-4273Y4407D01*
X-4273Y4407D01*
X-4281Y4447D01*
X-4323Y4510D01*
X-4385Y4552D01*
X-4460Y4566D01*
X-4534Y4552D01*
X-4597Y4510D01*
X-4639Y4447D01*
X-4646Y4407D01*
X-4646Y4407D01*
X-4651Y4386D01*
X-4651D01*
X-4653D01*
X-4657D01*
X-4695D01*
X-4699D01*
X-4701D01*
X-4702D01*
X-4706Y4407D01*
X-4706Y4407D01*
X-4714Y4447D01*
X-4756Y4510D01*
X-4819Y4552D01*
X-4893Y4566D01*
X-4967Y4552D01*
X-5030Y4510D01*
X-5072Y4447D01*
X-5086Y4373D01*
X-5072Y4299D01*
X-5030Y4236D01*
X-4967Y4194D01*
X-4927Y4186D01*
X-4927Y4186D01*
X-4906Y4182D01*
Y4181D01*
Y4179D01*
Y4175D01*
Y4137D01*
Y4133D01*
Y4131D01*
Y4131D01*
X-4927Y4126D01*
X-4927Y4126D01*
X-4967Y4119D01*
X-5030Y4077D01*
X-5072Y4014D01*
X-5086Y3940D01*
X-5072Y3865D01*
X-5030Y3803D01*
X-4967Y3761D01*
X-4927Y3753D01*
X-4927Y3753D01*
X-4906Y3749D01*
Y3748D01*
Y3746D01*
Y3742D01*
Y3704D01*
Y3700D01*
Y3698D01*
Y3698D01*
X-4927Y3693D01*
X-4927Y3693D01*
X-4967Y3686D01*
X-5030Y3644D01*
X-5072Y3581D01*
X-5086Y3507D01*
X-5072Y3432D01*
X-5030Y3370D01*
X-4967Y3328D01*
X-4927Y3320D01*
X-4927Y3320D01*
X-4906Y3315D01*
Y3315D01*
Y3313D01*
Y3309D01*
Y3271D01*
Y3267D01*
Y3265D01*
Y3265D01*
X-4927Y3260D01*
X-4927Y3260D01*
X-4967Y3252D01*
X-5030Y3210D01*
X-5072Y3148D01*
X-5086Y3073D01*
X-5072Y2999D01*
X-5030Y2936D01*
X-4967Y2894D01*
X-4927Y2887D01*
X-4927D01*
X-4906Y2882D01*
Y2882D01*
Y2880D01*
Y2876D01*
Y2838D01*
Y2834D01*
Y2832D01*
Y2831D01*
X-4927Y2827D01*
X-4927D01*
X-4967Y2819D01*
X-5030Y2777D01*
X-5072Y2715D01*
X-5086Y2640D01*
X-5072Y2566D01*
X-5030Y2503D01*
X-4967Y2461D01*
X-4927Y2454D01*
X-4927Y2454D01*
X-4906Y2449D01*
Y2449D01*
Y2447D01*
Y2443D01*
Y2405D01*
Y2401D01*
Y2399D01*
Y2398D01*
X-4927Y2394D01*
X-4927Y2394D01*
X-4967Y2386D01*
X-5030Y2344D01*
X-5072Y2281D01*
X-5086Y2207D01*
X-5072Y2133D01*
X-5030Y2070D01*
X-4967Y2028D01*
X-4893Y2014D01*
X-4819Y2028D01*
X-4756Y2070D01*
X-4714Y2133D01*
X-4706Y2173D01*
X-4706Y2173D01*
X-4702Y2194D01*
X-4701D01*
X-4699D01*
X-4695D01*
X-4657D01*
X-4653D01*
X-4651D01*
X-4651D01*
X-4646Y2173D01*
X-4646Y2173D01*
X-4639Y2133D01*
X-4597Y2070D01*
X-4534Y2028D01*
X-4460Y2014D01*
X-4385Y2028D01*
X-4323Y2070D01*
X-4281Y2133D01*
X-4273Y2173D01*
X-4273Y2173D01*
X-4269Y2194D01*
X-4268D01*
X-4266D01*
X-4262D01*
X-4224D01*
X-4220D01*
X-4218D01*
X-4218D01*
X-4213Y2173D01*
X-4213Y2173D01*
X-4206Y2133D01*
X-4164Y2070D01*
X-4101Y2028D01*
X-4027Y2014D01*
X-3952Y2028D01*
X-3890Y2070D01*
X-3848Y2133D01*
X-3840Y2173D01*
X-3840Y2173D01*
X-3835Y2194D01*
X-3835D01*
X-3833D01*
X-3829D01*
X-3791D01*
X-3787D01*
X-3785D01*
X-3785D01*
X-3780Y2173D01*
X-3780Y2173D01*
X-3772Y2133D01*
X-3730Y2070D01*
X-3668Y2028D01*
X-3593Y2014D01*
X-3519Y2028D01*
X-3456Y2070D01*
X-3414Y2133D01*
X-3407Y2173D01*
Y2173D01*
X-3402Y2194D01*
X-3402D01*
X-3400D01*
X-3396D01*
X-3358D01*
X-3354D01*
X-3352D01*
X-3351D01*
X-3347Y2173D01*
Y2173D01*
X-3339Y2133D01*
X-3297Y2070D01*
X-3235Y2028D01*
X-3160Y2014D01*
X-3086Y2028D01*
X-3023Y2070D01*
X-2981Y2133D01*
X-2974Y2173D01*
X-2974Y2173D01*
X-2969Y2194D01*
X-2969D01*
X-2967D01*
X-2963D01*
X-2925D01*
X-2921D01*
X-2919D01*
X-2918D01*
X-2914Y2173D01*
X-2914Y2173D01*
X-2906Y2133D01*
X-2864Y2070D01*
X-2801Y2028D01*
X-2727Y2014D01*
X-2653Y2028D01*
X-2590Y2070D01*
X-2548Y2133D01*
X-2534Y2207D01*
X-2548Y2281D01*
X-2590Y2344D01*
X-2653Y2386D01*
X-2693Y2394D01*
X-2693Y2394D01*
X-2714Y2398D01*
Y2399D01*
Y2401D01*
Y2405D01*
Y2443D01*
Y2447D01*
Y2449D01*
Y2449D01*
X-2693Y2454D01*
X-2693Y2454D01*
X-2653Y2461D01*
X-2590Y2503D01*
X-2548Y2566D01*
X-2534Y2640D01*
X-2548Y2715D01*
X-2590Y2777D01*
X-2653Y2819D01*
X-2693Y2827D01*
X-2693D01*
X-2714Y2831D01*
Y2832D01*
Y2834D01*
Y2838D01*
Y2876D01*
Y2880D01*
Y2882D01*
Y2882D01*
X-2693Y2887D01*
X-2693D01*
X-2653Y2894D01*
X-2590Y2936D01*
X-2548Y2999D01*
X-2534Y3073D01*
X-2548Y3148D01*
X-2590Y3210D01*
X-2653Y3252D01*
X-2693Y3260D01*
X-2693Y3260D01*
X-2714Y3265D01*
Y3265D01*
Y3267D01*
Y3271D01*
Y3309D01*
Y3313D01*
Y3315D01*
Y3315D01*
X-2693Y3320D01*
X-2693Y3320D01*
X-2653Y3328D01*
X-2590Y3370D01*
X-2548Y3432D01*
X-2534Y3507D01*
X-2548Y3581D01*
X-2590Y3644D01*
X-2653Y3686D01*
X-2693Y3693D01*
X-2693Y3693D01*
X-2714Y3698D01*
Y3698D01*
Y3700D01*
Y3704D01*
Y3742D01*
Y3746D01*
Y3748D01*
Y3749D01*
X-2693Y3753D01*
X-2693Y3753D01*
X-2653Y3761D01*
X-2590Y3803D01*
X-2548Y3865D01*
X-2534Y3940D01*
X-2548Y4014D01*
X-2590Y4077D01*
X-2653Y4119D01*
X-2693Y4126D01*
X-2693Y4126D01*
X-2714Y4131D01*
Y4131D01*
Y4133D01*
Y4137D01*
Y4175D01*
Y4179D01*
Y4181D01*
Y4182D01*
X-2693Y4186D01*
X-2693Y4186D01*
X-2653Y4194D01*
X-2590Y4236D01*
X-2548Y4299D01*
X-2534Y4373D01*
X-2548Y4447D01*
X-2590Y4510D01*
X-2653Y4552D01*
X-2727Y4566D01*
D02*
G37*
G36*
X1820Y4659D02*
X1740Y4643D01*
X1672Y4598D01*
X1627Y4530D01*
X1611Y4450D01*
X1627Y4370D01*
X1672Y4302D01*
X1712Y4275D01*
X1714Y4269D01*
X1709Y4218D01*
X1663Y4187D01*
X1621Y4124D01*
X1606Y4050D01*
X1621Y3976D01*
X1663Y3913D01*
X1726Y3871D01*
X1800Y3856D01*
X1874Y3871D01*
X1937Y3913D01*
X1979Y3976D01*
X1994Y4050D01*
X1979Y4124D01*
X1937Y4187D01*
X1907Y4207D01*
X1904Y4224D01*
X1911Y4264D01*
X1968Y4302D01*
X2013Y4370D01*
X2029Y4450D01*
X2013Y4530D01*
X1968Y4598D01*
X1900Y4643D01*
X1820Y4659D01*
D02*
G37*
G36*
X-6054Y4610D02*
X-6230D01*
Y4434D01*
X-6184Y4443D01*
X-6111Y4491D01*
X-6063Y4564D01*
X-6054Y4610D01*
D02*
G37*
G36*
X-1930Y4820D02*
X-2117D01*
X-2107Y4770D01*
X-2056Y4694D01*
X-1980Y4643D01*
X-1930Y4633D01*
Y4820D01*
D02*
G37*
G36*
X5660Y4730D02*
X5473D01*
X5483Y4680D01*
X5534Y4604D01*
X5610Y4553D01*
X5660Y4543D01*
Y4730D01*
D02*
G37*
G36*
X-1460Y3590D02*
X-1647D01*
X-1637Y3540D01*
X-1586Y3464D01*
X-1510Y3413D01*
X-1460Y3403D01*
Y3590D01*
D02*
G37*
G36*
X2140Y3859D02*
X2060Y3843D01*
X1992Y3798D01*
X1947Y3730D01*
X1931Y3650D01*
X1947Y3570D01*
X1992Y3502D01*
X2022Y3482D01*
X2023Y3481D01*
X2032Y3415D01*
X1999Y3366D01*
X1988Y3310D01*
X2472D01*
X2461Y3366D01*
X2407Y3447D01*
X2326Y3501D01*
X2311Y3537D01*
X2333Y3570D01*
X2349Y3650D01*
X2333Y3730D01*
X2288Y3798D01*
X2220Y3843D01*
X2140Y3859D01*
D02*
G37*
G36*
X-1193Y3590D02*
X-1380D01*
Y3403D01*
X-1330Y3413D01*
X-1254Y3464D01*
X-1203Y3540D01*
X-1193Y3590D01*
D02*
G37*
G36*
X-1080Y4084D02*
X-1154Y4069D01*
X-1217Y4027D01*
X-1259Y3964D01*
X-1274Y3890D01*
X-1269Y3866D01*
X-1314Y3836D01*
X-1330Y3847D01*
X-1380Y3857D01*
Y3670D01*
X-1193D01*
X-1195Y3678D01*
X-1154Y3711D01*
X-1080Y3696D01*
X-1006Y3711D01*
X-943Y3753D01*
X-901Y3816D01*
X-886Y3890D01*
X-901Y3964D01*
X-943Y4027D01*
X-1006Y4069D01*
X-1080Y4084D01*
D02*
G37*
G36*
X-1460Y3857D02*
X-1510Y3847D01*
X-1586Y3796D01*
X-1637Y3720D01*
X-1647Y3670D01*
X-1460D01*
Y3857D01*
D02*
G37*
G36*
X6200Y5560D02*
X6013D01*
X6023Y5510D01*
X6074Y5434D01*
X6150Y5383D01*
X6200Y5373D01*
Y5560D01*
D02*
G37*
G36*
X-2590Y5220D02*
X-2777D01*
X-2767Y5170D01*
X-2716Y5094D01*
X-2640Y5043D01*
X-2590Y5033D01*
Y5220D01*
D02*
G37*
G36*
X-5510Y5570D02*
X-5697D01*
X-5687Y5520D01*
X-5636Y5444D01*
X-5560Y5393D01*
X-5510Y5383D01*
Y5570D01*
D02*
G37*
G36*
Y5837D02*
X-5560Y5827D01*
X-5636Y5776D01*
X-5687Y5700D01*
X-5697Y5650D01*
X-5510D01*
Y5837D01*
D02*
G37*
G36*
X6200Y5827D02*
X6150Y5817D01*
X6074Y5766D01*
X6023Y5690D01*
X6013Y5640D01*
X6200D01*
Y5827D01*
D02*
G37*
G36*
X2620Y5044D02*
X2546Y5029D01*
X2483Y4987D01*
X2441Y4924D01*
X2426Y4850D01*
X2441Y4776D01*
X2483Y4713D01*
X2546Y4671D01*
X2620Y4656D01*
X2694Y4671D01*
X2757Y4713D01*
X2799Y4776D01*
X2814Y4850D01*
X2799Y4924D01*
X2757Y4987D01*
X2694Y5029D01*
X2620Y5044D01*
D02*
G37*
G36*
X-1663Y4820D02*
X-1850D01*
Y4633D01*
X-1800Y4643D01*
X-1724Y4694D01*
X-1673Y4770D01*
X-1663Y4820D01*
D02*
G37*
G36*
X-6230Y4866D02*
Y4690D01*
X-6054D01*
X-6063Y4736D01*
X-6111Y4809D01*
X-6184Y4857D01*
X-6230Y4866D01*
D02*
G37*
G36*
X-1850Y5087D02*
Y4900D01*
X-1663D01*
X-1673Y4950D01*
X-1724Y5026D01*
X-1800Y5077D01*
X-1850Y5087D01*
D02*
G37*
G36*
X-1930D02*
X-1980Y5077D01*
X-2056Y5026D01*
X-2107Y4950D01*
X-2117Y4900D01*
X-1930D01*
Y5087D01*
D02*
G37*
G36*
X1400Y1429D02*
X1320Y1413D01*
X1252Y1368D01*
X1207Y1300D01*
X1191Y1220D01*
X1207Y1140D01*
X1252Y1072D01*
X1320Y1027D01*
X1400Y1011D01*
X1480Y1027D01*
X1548Y1072D01*
X1593Y1140D01*
X1609Y1220D01*
X1593Y1300D01*
X1548Y1368D01*
X1480Y1413D01*
X1400Y1429D01*
D02*
G37*
G36*
X3566Y1170D02*
X3390D01*
Y994D01*
X3436Y1003D01*
X3509Y1051D01*
X3557Y1124D01*
X3566Y1170D01*
D02*
G37*
G36*
X3390Y1426D02*
Y1250D01*
X3566D01*
X3557Y1296D01*
X3509Y1369D01*
X3436Y1417D01*
X3390Y1426D01*
D02*
G37*
G36*
X-6030Y2034D02*
X-6104Y2019D01*
X-6167Y1977D01*
X-6209Y1914D01*
X-6224Y1840D01*
X-6209Y1766D01*
X-6167Y1703D01*
X-6104Y1661D01*
X-6030Y1646D01*
X-5956Y1661D01*
X-5893Y1703D01*
X-5851Y1766D01*
X-5836Y1840D01*
X-5851Y1914D01*
X-5893Y1977D01*
X-5956Y2019D01*
X-6030Y2034D01*
D02*
G37*
G36*
X6050Y1630D02*
X5863D01*
X5873Y1580D01*
X5924Y1504D01*
X6000Y1453D01*
X6050Y1443D01*
Y1630D01*
D02*
G37*
G36*
X3490Y789D02*
X3410Y773D01*
X3342Y728D01*
X3297Y660D01*
X3281Y580D01*
X3297Y500D01*
X3342Y432D01*
X3410Y387D01*
X3490Y371D01*
X3570Y387D01*
X3638Y432D01*
X3683Y500D01*
X3699Y580D01*
X3683Y660D01*
X3638Y728D01*
X3570Y773D01*
X3490Y789D01*
D02*
G37*
G36*
X4160Y719D02*
X4080Y703D01*
X4012Y658D01*
X3967Y590D01*
X3951Y510D01*
X3967Y430D01*
X4012Y362D01*
X4080Y317D01*
X4160Y301D01*
X4240Y317D01*
X4308Y362D01*
X4353Y430D01*
X4369Y510D01*
X4353Y590D01*
X4308Y658D01*
X4240Y703D01*
X4160Y719D01*
D02*
G37*
G36*
X312Y740D02*
X110D01*
Y538D01*
X166Y549D01*
X247Y603D01*
X301Y684D01*
X312Y740D01*
D02*
G37*
G36*
X110Y1022D02*
Y820D01*
X312D01*
X301Y876D01*
X247Y957D01*
X166Y1011D01*
X110Y1022D01*
D02*
G37*
G36*
X30D02*
X-26Y1011D01*
X-107Y957D01*
X-161Y876D01*
X-172Y820D01*
X30D01*
Y1022D01*
D02*
G37*
G36*
X-1770Y3007D02*
X-1820Y2997D01*
X-1896Y2946D01*
X-1947Y2870D01*
X-1957Y2820D01*
X-1770D01*
Y3007D01*
D02*
G37*
G36*
X2472Y3230D02*
X1988D01*
X1999Y3174D01*
X2053Y3093D01*
X2107Y3057D01*
X2097Y3004D01*
X2040Y2993D01*
X1972Y2948D01*
X1927Y2880D01*
X1911Y2800D01*
X1927Y2720D01*
X1972Y2652D01*
X2040Y2607D01*
X2120Y2591D01*
X2200Y2607D01*
X2268Y2652D01*
X2313Y2720D01*
X2329Y2800D01*
X2313Y2880D01*
X2268Y2948D01*
X2230Y2973D01*
Y2973D01*
X2245Y3023D01*
X2326Y3039D01*
X2407Y3093D01*
X2461Y3174D01*
X2472Y3230D01*
D02*
G37*
G36*
X-1690Y3007D02*
Y2820D01*
X-1503D01*
X-1513Y2870D01*
X-1564Y2946D01*
X-1640Y2997D01*
X-1690Y3007D01*
D02*
G37*
G36*
X890Y3889D02*
X810Y3873D01*
X742Y3828D01*
X697Y3760D01*
X681Y3680D01*
X697Y3600D01*
X742Y3532D01*
X742Y3472D01*
X703Y3447D01*
X649Y3366D01*
X638Y3310D01*
X1122D01*
X1111Y3366D01*
X1057Y3447D01*
X1021Y3471D01*
Y3521D01*
X1038Y3532D01*
X1083Y3600D01*
X1099Y3680D01*
X1083Y3760D01*
X1038Y3828D01*
X970Y3873D01*
X890Y3889D01*
D02*
G37*
G36*
X-6210Y3167D02*
Y2980D01*
X-6023D01*
X-6033Y3030D01*
X-6084Y3106D01*
X-6160Y3157D01*
X-6210Y3167D01*
D02*
G37*
G36*
X-380Y2474D02*
X-454Y2459D01*
X-517Y2417D01*
X-559Y2354D01*
X-574Y2280D01*
X-559Y2206D01*
X-517Y2143D01*
X-454Y2101D01*
X-380Y2086D01*
X-306Y2101D01*
X-243Y2143D01*
X-201Y2206D01*
X-186Y2280D01*
X-201Y2354D01*
X-243Y2417D01*
X-306Y2459D01*
X-380Y2474D01*
D02*
G37*
G36*
X6050Y1897D02*
X6000Y1887D01*
X5924Y1836D01*
X5873Y1760D01*
X5863Y1710D01*
X6050D01*
Y1897D01*
D02*
G37*
G36*
X-1770Y2740D02*
X-1957D01*
X-1947Y2690D01*
X-1896Y2614D01*
X-1820Y2563D01*
X-1770Y2553D01*
Y2740D01*
D02*
G37*
G36*
X1122Y3230D02*
X638D01*
X649Y3174D01*
X703Y3093D01*
X784Y3039D01*
X843Y3027D01*
X845Y3022D01*
X849Y2975D01*
X792Y2938D01*
X747Y2870D01*
X731Y2790D01*
X747Y2710D01*
X792Y2642D01*
X860Y2597D01*
X940Y2581D01*
X1020Y2597D01*
X1088Y2642D01*
X1133Y2710D01*
X1149Y2790D01*
X1133Y2870D01*
X1088Y2938D01*
X1020Y2983D01*
X985Y2990D01*
X978Y3025D01*
X980Y3042D01*
X1057Y3093D01*
X1111Y3174D01*
X1122Y3230D01*
D02*
G37*
G36*
X-1503Y2740D02*
X-1690D01*
Y2553D01*
X-1640Y2563D01*
X-1564Y2614D01*
X-1513Y2690D01*
X-1503Y2740D01*
D02*
G37*
%LPD*%
D11*
X-2870Y5510D02*
X-2860Y5500D01*
X-2451D01*
X-2201Y5250D01*
X3030D01*
X3020Y5260D02*
X3030Y5250D01*
X-3140Y5270D02*
X-3130Y5260D01*
X-5800Y-689D02*
Y370D01*
X-6060Y-949D02*
X-5800Y-689D01*
X-6060Y-3980D02*
Y-949D01*
X-3600Y5800D02*
X-3550D01*
X-6340Y-4130D02*
Y569D01*
Y-4130D02*
X-6060Y-4410D01*
X-6080D02*
X-6060D01*
X-2830Y-590D02*
Y-496D01*
X-3270Y-56D02*
X-2830Y-496D01*
X-3870Y1070D02*
X-3830D01*
X-3971Y825D02*
X-3812D01*
X-2510Y-477D01*
X-3830Y1070D02*
X-2350Y-410D01*
Y-424D02*
X231Y-3005D01*
X-2350Y-424D02*
Y-410D01*
X-2510Y-491D02*
X-1015Y-1986D01*
X-2510Y-491D02*
Y-477D01*
X-5740Y-4020D02*
X-4970D01*
Y-3700D01*
Y-4041D02*
Y-4020D01*
Y-4041D02*
X-3455Y-5555D01*
Y-6100D02*
Y-5555D01*
X-5514Y-600D02*
X-4970Y-56D01*
X-5630Y-716D02*
X-5514Y-600D01*
X-5630Y-2530D02*
Y-716D01*
X-5690Y-2590D02*
X-5630Y-2530D01*
X-4500Y950D02*
Y1269D01*
X-4194Y1740D02*
X-3193Y740D01*
X-5020Y1740D02*
X-4194D01*
X-4811Y1580D02*
X-4500Y1269D01*
X-5329Y1580D02*
X-4811D01*
X-6340Y569D02*
X-5329Y1580D01*
X-5830Y2550D02*
X-5020Y1740D01*
X-5470Y700D02*
X-4200D01*
X-95Y-2453D02*
X-33Y-2515D01*
X881D01*
X1836Y-3470D02*
X2230D01*
X-894Y-1641D02*
X-95Y-2440D01*
X-894Y-1641D02*
Y306D01*
X-1327Y740D02*
X-894Y306D01*
X-3193Y740D02*
X-1327D01*
X785Y-3005D02*
X1700Y-3920D01*
X231Y-3005D02*
X785D01*
X-1015Y-3335D02*
X-1010Y-3340D01*
X-1015Y-3335D02*
Y-1986D01*
X-4115Y969D02*
X-3971Y825D01*
X-4115Y969D02*
Y1085D01*
X-4240Y1210D02*
X-4115Y1085D01*
X-4970Y-56D02*
X-3270D01*
X-5780Y-2680D02*
X-5690Y-2590D01*
X-5780Y-3660D02*
Y-2680D01*
X-5800Y370D02*
X-5470Y700D01*
X-4200D02*
X-4190Y690D01*
X881Y-2515D02*
X1836Y-3470D01*
X-4970Y-3700D02*
X-4210Y-2940D01*
Y-330D01*
X-2310Y1480D02*
X-94D01*
X-2550Y1240D02*
X-2310Y1480D01*
X-2970Y1280D02*
X-2590Y900D01*
X-598D01*
X2660Y-3668D02*
Y-2358D01*
X1600Y-4728D02*
X2660Y-3668D01*
X1600Y-5749D02*
Y-4728D01*
Y-5749D02*
X1881Y-6030D01*
X5250D01*
X5990Y-5290D01*
X-598Y900D02*
X2660Y-2358D01*
X450Y2024D02*
Y4580D01*
X-94Y1480D02*
X450Y2024D01*
D41*
X6350Y-4430D02*
Y2620D01*
X3090Y-3390D02*
Y1535D01*
X2950Y-3820D02*
Y1593D01*
X2810Y-3730D02*
Y1651D01*
X3273Y1718D02*
Y2825D01*
X3090Y1535D02*
X3273Y1718D01*
Y2825D02*
X3630Y3182D01*
X3277Y3225D02*
Y5577D01*
X3090Y2840D02*
X3490Y3240D01*
Y5562D01*
X3630Y3182D02*
Y5620D01*
X6020Y2950D02*
X6350Y2620D01*
X6020Y2950D02*
Y4902D01*
X-4030Y6080D02*
X-3830D01*
X-5090Y5640D02*
X-3765D01*
X6250Y4796D02*
Y4870D01*
X-4499Y6190D02*
X-4245D01*
X3090Y1733D02*
Y2840D01*
X2950Y1593D02*
X3090Y1733D01*
X2950Y1791D02*
Y2898D01*
X2810Y1651D02*
X2950Y1791D01*
Y2898D02*
X3277Y3225D01*
X3104Y5750D02*
X3277Y5577D01*
X3162Y5890D02*
X3490Y5562D01*
X3220Y6030D02*
X3630Y5620D01*
X4752Y6170D02*
X6020Y4902D01*
X-3830Y6080D02*
X-3740Y6170D01*
X4810Y6310D02*
X6250Y4870D01*
X-4245Y6190D02*
X-4125Y6310D01*
X-3740Y6170D02*
X4752D01*
X-3370Y6030D02*
X3220D01*
X-3160Y5890D02*
X3162D01*
X-2970Y5750D02*
X3104D01*
X-3600Y5800D02*
X-3370Y6030D01*
X-3270Y5780D02*
X-3160Y5890D01*
X-3765Y5640D02*
X-3675Y5550D01*
X-3170D01*
X-2970Y5750D01*
X3090Y-3390D02*
X3510Y-3810D01*
X5520D01*
X6000Y-4290D01*
X5990Y-4790D02*
X6350Y-4430D01*
X1980Y-4790D02*
X2950Y-3820D01*
X1980Y-5290D02*
Y-4790D01*
X1750D02*
X2810Y-3730D01*
X1750Y-5560D02*
Y-4790D01*
Y-5560D02*
X1980Y-5790D01*
X-4125Y6310D02*
X4810D01*
D45*
X4630Y-3340D02*
D03*
X-6040Y-590D02*
D03*
X-6060Y-4410D02*
D03*
Y-3980D02*
D03*
X-1730Y2780D02*
D03*
X80Y-2210D02*
D03*
X-2830Y-590D02*
D03*
X-3455Y-6100D02*
D03*
X-5514Y-600D02*
D03*
X-5320Y1250D02*
D03*
X5700Y4770D02*
D03*
X2230Y-3470D02*
D03*
X-5830Y2550D02*
D03*
X-5090Y5640D02*
D03*
X-4240Y1210D02*
D03*
X-3870Y1070D02*
D03*
X450Y4580D02*
D03*
X-4030Y6080D02*
D03*
X-1010Y-3340D02*
D03*
X-2520Y-880D02*
D03*
X-4210Y-330D02*
D03*
X-5470Y5610D02*
D03*
X6250Y4796D02*
D03*
X1700Y-3920D02*
D03*
X-5780Y-3660D02*
D03*
X-5690Y-2590D02*
D03*
X-4500Y950D02*
D03*
X-4320Y-3670D02*
D03*
X-3320Y1250D02*
D03*
X-1420Y3630D02*
D03*
X-1890Y4860D02*
D03*
X6240Y5600D02*
D03*
X-3600Y5800D02*
D03*
X-4499Y6190D02*
D03*
X1980Y-5790D02*
D03*
Y-5290D02*
D03*
X-2570Y-4330D02*
D03*
X-4190Y690D02*
D03*
X-5740Y-4020D02*
D03*
X1600Y-2740D02*
D03*
X-6250Y2940D02*
D03*
X-2870Y5510D02*
D03*
X-2550Y5260D02*
D03*
X-3270Y5780D02*
D03*
X-3140Y5270D02*
D03*
X6000Y-4290D02*
D03*
X6090Y1670D02*
D03*
X-2550Y1240D02*
D03*
X5990Y-4790D02*
D03*
D47*
X4730Y-1434D02*
D03*
D49*
X3350Y1210D02*
D03*
X-6270Y4650D02*
D03*
X-2970Y1280D02*
D03*
X5990Y-5290D02*
D03*
D50*
X2490Y-400D02*
D03*
X2230Y3270D02*
D03*
X3030Y5250D02*
D03*
X-480Y210D02*
D03*
X70Y780D02*
D03*
X780Y240D02*
D03*
X160Y-380D02*
D03*
X880Y3270D02*
D03*
M02*
