%FSLAX24Y24*%
%MOIN*%
G70*
G01*
G75*
G04 Layer_Color=128*
%ADD10C,0.0177*%
%ADD11C,0.0100*%
%ADD12R,0.0102X0.0209*%
%ADD13R,0.0102X0.0193*%
%ADD14R,0.0177X0.0177*%
%ADD15R,0.0138X0.0157*%
%ADD16R,0.0236X0.0157*%
%ADD17R,0.0157X0.0236*%
%ADD18R,0.0394X0.1378*%
%ADD19R,0.0591X0.1339*%
%ADD20R,0.0197X0.0354*%
%ADD21R,0.0551X0.0453*%
%ADD22R,0.0335X0.0374*%
%ADD23O,0.0295X0.0079*%
%ADD24O,0.0079X0.0295*%
%ADD25R,0.1417X0.1417*%
%ADD26R,0.0343X0.0343*%
%ADD27R,0.0138X0.0394*%
%ADD28R,0.0157X0.0335*%
%ADD29R,0.2598X0.2598*%
%ADD30O,0.0079X0.0315*%
%ADD31O,0.0315X0.0079*%
%ADD32R,0.0630X0.0551*%
%ADD33R,0.0748X0.0630*%
%ADD34R,0.0157X0.0532*%
%ADD35R,0.0335X0.0157*%
%ADD36O,0.0276X0.0098*%
%ADD37O,0.0098X0.0276*%
%ADD38O,0.0177X0.0532*%
%ADD39R,0.0354X0.0197*%
%ADD40R,0.0217X0.0098*%
%ADD41C,0.0080*%
%ADD42C,0.0200*%
%ADD43C,0.0630*%
%ADD44C,0.1260*%
%ADD45C,0.0260*%
%ADD46C,0.0240*%
%ADD47C,0.0340*%
%ADD48C,0.0300*%
%ADD49C,0.0290*%
%ADD50R,0.0354X0.0276*%
%ADD51O,0.0315X0.0157*%
%ADD52R,0.2362X0.1890*%
%ADD53R,0.0512X0.0217*%
%ADD54R,0.0394X0.0217*%
%ADD55R,0.0197X0.0315*%
%ADD56R,0.1299X0.1299*%
%ADD57O,0.0315X0.0098*%
%ADD58O,0.0098X0.0315*%
%ADD59R,0.0591X0.0236*%
%ADD60R,0.0187X0.0098*%
%ADD61R,0.0098X0.0138*%
%ADD62C,0.0098*%
%ADD63C,0.0039*%
%ADD64C,0.0079*%
%ADD65C,0.0050*%
%ADD66C,0.0040*%
%ADD67R,0.0148X0.0177*%
%ADD68R,0.0162X0.0269*%
%ADD69R,0.0162X0.0253*%
%ADD70R,0.0237X0.0237*%
%ADD71R,0.0198X0.0217*%
%ADD72R,0.0296X0.0217*%
%ADD73R,0.0217X0.0296*%
%ADD74R,0.0454X0.1438*%
%ADD75R,0.0651X0.1399*%
%ADD76R,0.0257X0.0414*%
%ADD77R,0.0611X0.0513*%
%ADD78R,0.0395X0.0434*%
%ADD79O,0.0355X0.0139*%
%ADD80O,0.0139X0.0355*%
%ADD81R,0.1477X0.1477*%
%ADD82R,0.0606X0.0606*%
%ADD83R,0.0198X0.0454*%
%ADD84R,0.0217X0.0395*%
%ADD85R,0.2658X0.2658*%
%ADD86O,0.0139X0.0375*%
%ADD87O,0.0375X0.0139*%
%ADD88R,0.0709X0.0630*%
%ADD89R,0.0827X0.0709*%
%ADD90R,0.0236X0.0610*%
%ADD91R,0.0395X0.0217*%
%ADD92O,0.0336X0.0158*%
%ADD93O,0.0158X0.0336*%
%ADD94O,0.0237X0.0592*%
%ADD95R,0.0414X0.0257*%
%ADD96R,0.0277X0.0158*%
%ADD97C,0.0690*%
%ADD98C,0.1320*%
%ADD99R,0.0414X0.0336*%
%ADD100O,0.0375X0.0217*%
%ADD101R,0.2422X0.1950*%
%ADD102R,0.0572X0.0277*%
%ADD103R,0.0454X0.0277*%
%ADD104R,0.0257X0.0375*%
%ADD105R,0.1359X0.1359*%
%ADD106O,0.0375X0.0158*%
%ADD107O,0.0158X0.0375*%
%ADD108R,0.0651X0.0296*%
%ADD109R,0.0247X0.0158*%
%ADD110R,0.0158X0.0198*%
D16*
X-5920Y-1587D02*
D03*
Y-1233D02*
D03*
X5860Y3517D02*
D03*
Y3163D02*
D03*
X5360Y3517D02*
D03*
Y3163D02*
D03*
X6200Y2777D02*
D03*
Y2423D02*
D03*
X-2570Y-3957D02*
D03*
Y-3603D02*
D03*
X-3060Y-3957D02*
D03*
Y-3603D02*
D03*
X-3940Y-3667D02*
D03*
Y-3313D02*
D03*
X-3480Y-3667D02*
D03*
Y-3313D02*
D03*
X-6040Y-287D02*
D03*
Y67D02*
D03*
X-5540Y-287D02*
D03*
Y67D02*
D03*
X-1730Y2457D02*
D03*
Y2103D02*
D03*
X-1350Y3317D02*
D03*
Y2963D02*
D03*
X-2240Y4867D02*
D03*
Y4513D02*
D03*
X-2000Y5253D02*
D03*
Y5607D02*
D03*
X6210Y-3143D02*
D03*
Y-3497D02*
D03*
D17*
X1683Y-4790D02*
D03*
X2037D02*
D03*
X6297Y-5290D02*
D03*
X5943D02*
D03*
X-5577Y2820D02*
D03*
X-5223D02*
D03*
X-2167Y1340D02*
D03*
X-1813D02*
D03*
X-3787Y-330D02*
D03*
X-3433D02*
D03*
X-2527Y860D02*
D03*
X-2173D02*
D03*
X4983Y-2530D02*
D03*
X5337D02*
D03*
X2493Y-2080D02*
D03*
X2847D02*
D03*
X4733Y-920D02*
D03*
X5087D02*
D03*
X3173Y-2080D02*
D03*
X3527D02*
D03*
X-6277Y2200D02*
D03*
X-5923D02*
D03*
X-2403Y-4980D02*
D03*
X-2757D02*
D03*
X-5917Y-2180D02*
D03*
X-5563D02*
D03*
X-5777Y-3270D02*
D03*
X-5423D02*
D03*
X-1387Y-910D02*
D03*
X-1033D02*
D03*
X-1387Y-1390D02*
D03*
X-1033D02*
D03*
X-3433Y-790D02*
D03*
X-3787D02*
D03*
X-407Y-910D02*
D03*
X-53D02*
D03*
X-5613Y1010D02*
D03*
X-5967D02*
D03*
X-3317Y1590D02*
D03*
X-2963D02*
D03*
X-2813Y4840D02*
D03*
X-3167D02*
D03*
D20*
X5315Y-1920D02*
D03*
X4725D02*
D03*
X-2425Y-5840D02*
D03*
X-3015D02*
D03*
X-525Y-2154D02*
D03*
X-1115D02*
D03*
X185Y-1450D02*
D03*
X-405D02*
D03*
D50*
X5784Y-3310D02*
D03*
X5036Y-3054D02*
D03*
Y-3566D02*
D03*
X-2956Y430D02*
D03*
X-3704Y686D02*
D03*
Y174D02*
D03*
D51*
X2495Y-5790D02*
D03*
Y-5290D02*
D03*
Y-4790D02*
D03*
Y-4290D02*
D03*
X5605D02*
D03*
Y-4790D02*
D03*
Y-5290D02*
D03*
Y-5790D02*
D03*
D52*
X4050Y-5040D02*
D03*
D53*
X4182Y-2536D02*
D03*
Y-2910D02*
D03*
Y-3284D02*
D03*
X3198D02*
D03*
Y-2536D02*
D03*
D54*
X3178Y-1364D02*
D03*
Y-990D02*
D03*
Y-616D02*
D03*
X4162D02*
D03*
Y-1364D02*
D03*
D55*
X4218Y5676D02*
D03*
X4573D02*
D03*
X4927D02*
D03*
X5282D02*
D03*
Y5204D02*
D03*
X4927D02*
D03*
X4573D02*
D03*
X4218D02*
D03*
D56*
X-4640Y-5040D02*
D03*
D57*
X-5624Y-4351D02*
D03*
Y-4548D02*
D03*
Y-4745D02*
D03*
Y-4942D02*
D03*
Y-5138D02*
D03*
Y-5335D02*
D03*
Y-5532D02*
D03*
Y-5729D02*
D03*
X-3656D02*
D03*
Y-5532D02*
D03*
Y-5335D02*
D03*
Y-5138D02*
D03*
Y-4942D02*
D03*
Y-4745D02*
D03*
Y-4548D02*
D03*
Y-4351D02*
D03*
D58*
X-5329Y-6024D02*
D03*
X-5132D02*
D03*
X-4935D02*
D03*
X-4738D02*
D03*
X-4542D02*
D03*
X-4345D02*
D03*
X-4148D02*
D03*
X-3951D02*
D03*
Y-4056D02*
D03*
X-4148D02*
D03*
X-4345D02*
D03*
X-4542D02*
D03*
X-4738D02*
D03*
X-4935D02*
D03*
X-5132D02*
D03*
X-5329D02*
D03*
D59*
X-2844Y-1780D02*
D03*
X-2096Y-2154D02*
D03*
Y-1406D02*
D03*
D60*
X-4773Y5964D02*
D03*
Y5767D02*
D03*
Y5570D02*
D03*
Y5373D02*
D03*
Y5176D02*
D03*
X-5807D02*
D03*
Y5373D02*
D03*
Y5570D02*
D03*
Y5767D02*
D03*
Y5964D02*
D03*
D61*
X-5093Y5068D02*
D03*
X-5290D02*
D03*
X-5487D02*
D03*
Y6072D02*
D03*
X-5290D02*
D03*
X-5093D02*
D03*
M02*
