%FSLAX24Y24*%
%MOIN*%
G70*
G01*
G75*
G04 Layer_Physical_Order=2*
G04 Layer_Color=36540*
%ADD10C,0.0177*%
%ADD11C,0.0100*%
%ADD12R,0.0102X0.0209*%
%ADD13R,0.0102X0.0193*%
%ADD14R,0.0177X0.0177*%
%ADD15R,0.0138X0.0157*%
%ADD16R,0.0236X0.0157*%
%ADD17R,0.0157X0.0236*%
%ADD18R,0.0394X0.1378*%
%ADD19R,0.0591X0.1339*%
%ADD20R,0.0197X0.0354*%
%ADD21R,0.0551X0.0453*%
%ADD22R,0.0335X0.0374*%
%ADD23O,0.0295X0.0079*%
%ADD24O,0.0079X0.0295*%
%ADD25R,0.1417X0.1417*%
%ADD26R,0.0343X0.0343*%
%ADD27R,0.0138X0.0394*%
%ADD28R,0.0157X0.0335*%
%ADD29R,0.2598X0.2598*%
%ADD30O,0.0079X0.0315*%
%ADD31O,0.0315X0.0079*%
%ADD32R,0.0630X0.0551*%
%ADD33R,0.0748X0.0630*%
%ADD34R,0.0157X0.0532*%
%ADD35R,0.0335X0.0157*%
%ADD36O,0.0276X0.0098*%
%ADD37O,0.0098X0.0276*%
%ADD38O,0.0177X0.0532*%
%ADD39R,0.0354X0.0197*%
%ADD40R,0.0217X0.0098*%
%ADD41C,0.0080*%
%ADD42C,0.0200*%
%ADD43C,0.0630*%
%ADD44C,0.1260*%
%ADD45C,0.0260*%
%ADD46C,0.0240*%
%ADD47C,0.0340*%
%ADD48C,0.0300*%
%ADD49C,0.0290*%
G36*
X5673Y6372D02*
X5840Y6322D01*
X5994Y6239D01*
X6129Y6129D01*
X6239Y5994D01*
X6322Y5840D01*
X6328Y5820D01*
X6294Y5783D01*
X6240Y5794D01*
X6166Y5779D01*
X6103Y5737D01*
X6061Y5674D01*
X6046Y5600D01*
X6061Y5526D01*
X6103Y5463D01*
X6166Y5421D01*
X6240Y5406D01*
X6314Y5421D01*
X6344Y5441D01*
X6388Y5417D01*
Y4985D01*
X6344Y4962D01*
X6324Y4975D01*
X6250Y4990D01*
X6176Y4975D01*
X6113Y4933D01*
X6071Y4870D01*
X6056Y4796D01*
X6071Y4722D01*
X6113Y4659D01*
X6173Y4619D01*
Y4569D01*
X6113Y4529D01*
X6071Y4466D01*
X6056Y4392D01*
X6071Y4318D01*
X6113Y4255D01*
X6173Y4215D01*
Y4165D01*
X6113Y4125D01*
X6071Y4062D01*
X6056Y3988D01*
X6071Y3914D01*
X6113Y3851D01*
X6173Y3811D01*
Y3761D01*
X6113Y3721D01*
X6071Y3658D01*
X6056Y3584D01*
X6071Y3510D01*
X6113Y3447D01*
X6173Y3407D01*
Y3357D01*
X6113Y3317D01*
X6071Y3254D01*
X6056Y3180D01*
X6071Y3106D01*
X6113Y3043D01*
X6176Y3001D01*
X6250Y2986D01*
X6324Y3001D01*
X6344Y3014D01*
X6388Y2991D01*
Y-5500D01*
X6389Y-5505D01*
X6372Y-5673D01*
X6322Y-5840D01*
X6239Y-5994D01*
X6129Y-6129D01*
X5994Y-6239D01*
X5840Y-6322D01*
X5673Y-6372D01*
X5505Y-6389D01*
X5500Y-6388D01*
X1529D01*
X1513Y-6341D01*
X1517Y-6337D01*
X1578Y-6259D01*
X1615Y-6168D01*
X1628Y-6070D01*
X1615Y-5972D01*
X1578Y-5881D01*
X1517Y-5803D01*
X1439Y-5742D01*
X1348Y-5705D01*
X1250Y-5692D01*
X1152Y-5705D01*
X1061Y-5742D01*
X983Y-5803D01*
X922Y-5881D01*
X885Y-5972D01*
X872Y-6070D01*
X885Y-6168D01*
X922Y-6259D01*
X983Y-6337D01*
X987Y-6341D01*
X971Y-6388D01*
X-971D01*
X-987Y-6341D01*
X-983Y-6337D01*
X-922Y-6259D01*
X-885Y-6168D01*
X-872Y-6070D01*
X-885Y-5972D01*
X-922Y-5881D01*
X-983Y-5803D01*
X-1061Y-5742D01*
X-1152Y-5705D01*
X-1250Y-5692D01*
X-1348Y-5705D01*
X-1439Y-5742D01*
X-1517Y-5803D01*
X-1578Y-5881D01*
X-1615Y-5972D01*
X-1628Y-6070D01*
X-1615Y-6168D01*
X-1578Y-6259D01*
X-1517Y-6337D01*
X-1513Y-6341D01*
X-1529Y-6388D01*
X-1736D01*
X-1759Y-6344D01*
X-1743Y-6320D01*
X-1733Y-6270D01*
X-2187D01*
X-2177Y-6320D01*
X-2161Y-6344D01*
X-2184Y-6388D01*
X-2284D01*
X-2307Y-6344D01*
X-2281Y-6304D01*
X-2266Y-6230D01*
X-2281Y-6156D01*
X-2323Y-6093D01*
X-2386Y-6051D01*
X-2460Y-6036D01*
X-2534Y-6051D01*
X-2597Y-6093D01*
X-2639Y-6156D01*
X-2654Y-6230D01*
X-2639Y-6304D01*
X-2613Y-6344D01*
X-2636Y-6388D01*
X-5500D01*
X-5505Y-6389D01*
X-5673Y-6372D01*
X-5840Y-6322D01*
X-5994Y-6239D01*
X-6129Y-6129D01*
X-6239Y-5994D01*
X-6322Y-5840D01*
X-6372Y-5673D01*
X-6389Y-5505D01*
X-6388Y-5500D01*
Y1099D01*
X-6344Y1123D01*
X-6330Y1113D01*
X-6280Y1103D01*
Y1330D01*
Y1557D01*
X-6330Y1547D01*
X-6344Y1537D01*
X-6388Y1561D01*
Y2371D01*
X-6344Y2394D01*
X-6324Y2381D01*
X-6250Y2366D01*
X-6176Y2381D01*
X-6113Y2423D01*
X-6071Y2486D01*
X-6066Y2511D01*
X-6016D01*
X-6009Y2476D01*
X-5967Y2413D01*
X-5904Y2371D01*
X-5830Y2356D01*
X-5756Y2371D01*
X-5693Y2413D01*
X-5651Y2476D01*
X-5648Y2493D01*
X-5600Y2508D01*
X-5432Y2340D01*
Y1404D01*
X-5457Y1387D01*
X-5499Y1324D01*
X-5514Y1250D01*
X-5499Y1176D01*
X-5457Y1113D01*
X-5394Y1071D01*
X-5320Y1056D01*
X-5246Y1071D01*
X-5183Y1113D01*
X-5141Y1176D01*
X-5128Y1241D01*
X-5079Y1251D01*
X-5047Y1203D01*
X-4998Y1170D01*
Y1120D01*
X-5017Y1107D01*
X-5059Y1044D01*
X-5074Y970D01*
X-5059Y896D01*
X-5017Y833D01*
X-4954Y791D01*
X-4880Y776D01*
X-4806Y791D01*
X-4743Y833D01*
X-4722Y865D01*
X-4672D01*
X-4637Y813D01*
X-4574Y771D01*
X-4500Y756D01*
X-4426Y771D01*
X-4413Y780D01*
X-4371Y752D01*
X-4384Y690D01*
X-4369Y616D01*
X-4414Y586D01*
X-4460Y577D01*
X-4536Y526D01*
X-4587Y450D01*
X-4597Y400D01*
X-4143D01*
X-4153Y450D01*
X-4160Y460D01*
X-4141Y506D01*
X-4116Y511D01*
X-4053Y553D01*
X-4011Y616D01*
X-3996Y690D01*
X-4011Y764D01*
X-4053Y827D01*
X-4116Y869D01*
X-4190Y884D01*
X-4264Y869D01*
X-4277Y860D01*
X-4319Y888D01*
X-4306Y950D01*
X-4314Y989D01*
X-4279Y1024D01*
X-4240Y1016D01*
X-4166Y1031D01*
X-4106Y1071D01*
X-4089Y1064D01*
X-4058Y1043D01*
X-4049Y996D01*
X-4007Y933D01*
X-3944Y891D01*
X-3870Y876D01*
X-3796Y891D01*
X-3733Y933D01*
X-3691Y996D01*
X-3676Y1070D01*
X-3691Y1144D01*
X-3733Y1207D01*
X-3796Y1249D01*
X-3870Y1264D01*
X-3944Y1249D01*
X-4004Y1209D01*
X-4021Y1216D01*
X-4052Y1237D01*
X-4061Y1284D01*
X-4103Y1347D01*
X-4166Y1389D01*
X-4240Y1404D01*
X-4314Y1389D01*
X-4377Y1347D01*
X-4419Y1284D01*
X-4434Y1210D01*
X-4426Y1171D01*
X-4461Y1136D01*
X-4500Y1144D01*
X-4574Y1129D01*
X-4637Y1087D01*
X-4658Y1055D01*
X-4708D01*
X-4743Y1107D01*
X-4792Y1140D01*
Y1190D01*
X-4773Y1203D01*
X-4731Y1266D01*
X-4716Y1340D01*
X-4731Y1414D01*
X-4773Y1477D01*
X-4836Y1519D01*
X-4910Y1534D01*
X-4984Y1519D01*
X-5047Y1477D01*
X-5089Y1414D01*
X-5102Y1349D01*
X-5151Y1339D01*
X-5183Y1387D01*
X-5208Y1404D01*
Y2386D01*
X-5208Y2386D01*
X-5216Y2429D01*
X-5241Y2466D01*
X-5241Y2466D01*
X-5794Y3019D01*
X-5831Y3044D01*
X-5874Y3052D01*
X-5874Y3052D01*
X-6096D01*
X-6113Y3077D01*
X-6176Y3119D01*
X-6250Y3134D01*
X-6324Y3119D01*
X-6344Y3106D01*
X-6388Y3129D01*
Y4459D01*
X-6344Y4483D01*
X-6340Y4480D01*
X-6270Y4466D01*
X-6200Y4480D01*
X-6140Y4520D01*
X-6100Y4580D01*
X-6086Y4650D01*
X-6100Y4720D01*
X-6140Y4780D01*
X-6200Y4820D01*
X-6270Y4834D01*
X-6340Y4820D01*
X-6344Y4817D01*
X-6388Y4841D01*
Y5059D01*
X-6344Y5083D01*
X-6300Y5053D01*
X-6250Y5043D01*
Y5270D01*
Y5497D01*
X-6300Y5487D01*
X-6344Y5457D01*
X-6388Y5481D01*
Y5500D01*
X-6389Y5505D01*
X-6372Y5673D01*
X-6322Y5840D01*
X-6239Y5994D01*
X-6129Y6129D01*
X-5994Y6239D01*
X-5840Y6322D01*
X-5673Y6372D01*
X-5505Y6389D01*
X-5500Y6388D01*
X-4631D01*
X-4616Y6340D01*
X-4636Y6327D01*
X-4678Y6264D01*
X-4693Y6190D01*
X-4678Y6116D01*
X-4636Y6053D01*
X-4573Y6011D01*
X-4499Y5996D01*
X-4425Y6011D01*
X-4362Y6053D01*
X-4320Y6116D01*
X-4305Y6190D01*
X-4320Y6264D01*
X-4362Y6327D01*
X-4381Y6340D01*
X-4367Y6388D01*
X5500D01*
X5505Y6389D01*
X5673Y6372D01*
D02*
G37*
%LPC*%
G36*
X590Y-2080D02*
X388D01*
X399Y-2136D01*
X453Y-2217D01*
X534Y-2271D01*
X590Y-2282D01*
Y-2080D01*
D02*
G37*
G36*
X1970Y-1829D02*
X1880Y-1847D01*
X1804Y-1898D01*
X1753Y-1974D01*
X1735Y-2064D01*
X1753Y-2153D01*
X1804Y-2230D01*
X1880Y-2280D01*
X1905Y-2285D01*
Y-2335D01*
X1876Y-2341D01*
X1813Y-2383D01*
X1771Y-2446D01*
X1756Y-2520D01*
X1766Y-2567D01*
X1724Y-2594D01*
X1674Y-2561D01*
X1600Y-2546D01*
X1526Y-2561D01*
X1463Y-2603D01*
X1421Y-2666D01*
X1406Y-2740D01*
X1421Y-2814D01*
X1463Y-2877D01*
X1526Y-2919D01*
X1600Y-2934D01*
X1674Y-2919D01*
X1737Y-2877D01*
X1779Y-2814D01*
X1794Y-2740D01*
X1784Y-2693D01*
X1826Y-2666D01*
X1876Y-2699D01*
X1950Y-2714D01*
X2024Y-2699D01*
X2087Y-2657D01*
X2129Y-2594D01*
X2144Y-2520D01*
X2129Y-2446D01*
X2087Y-2383D01*
X2024Y-2341D01*
X2015Y-2339D01*
Y-2289D01*
X2060Y-2280D01*
X2136Y-2230D01*
X2187Y-2153D01*
X2205Y-2064D01*
X2187Y-1974D01*
X2136Y-1898D01*
X2060Y-1847D01*
X1970Y-1829D01*
D02*
G37*
G36*
X80Y-2016D02*
X6Y-2031D01*
X-57Y-2073D01*
X-99Y-2136D01*
X-114Y-2210D01*
X-99Y-2284D01*
X-57Y-2347D01*
X6Y-2389D01*
X80Y-2404D01*
X154Y-2389D01*
X217Y-2347D01*
X259Y-2284D01*
X274Y-2210D01*
X259Y-2136D01*
X217Y-2073D01*
X154Y-2031D01*
X80Y-2016D01*
D02*
G37*
G36*
X872Y-2080D02*
X670D01*
Y-2282D01*
X726Y-2271D01*
X807Y-2217D01*
X861Y-2136D01*
X872Y-2080D01*
D02*
G37*
G36*
X590Y-1798D02*
X534Y-1809D01*
X453Y-1863D01*
X399Y-1944D01*
X388Y-2000D01*
X590D01*
Y-1798D01*
D02*
G37*
G36*
X-5011Y-2067D02*
X-5197D01*
Y-2254D01*
X-5148Y-2244D01*
X-5071Y-2193D01*
X-5021Y-2117D01*
X-5011Y-2067D01*
D02*
G37*
G36*
X-5277D02*
X-5464D01*
X-5454Y-2117D01*
X-5403Y-2193D01*
X-5327Y-2244D01*
X-5277Y-2254D01*
Y-2067D01*
D02*
G37*
G36*
X2610Y-3014D02*
Y-3190D01*
X2786D01*
X2777Y-3144D01*
X2729Y-3071D01*
X2656Y-3023D01*
X2610Y-3014D01*
D02*
G37*
G36*
X2530D02*
X2484Y-3023D01*
X2411Y-3071D01*
X2363Y-3144D01*
X2354Y-3190D01*
X2530D01*
Y-3014D01*
D02*
G37*
G36*
Y-3270D02*
X2351D01*
X2312Y-3296D01*
X2304Y-3291D01*
X2230Y-3276D01*
X2156Y-3291D01*
X2093Y-3333D01*
X2051Y-3396D01*
X2036Y-3470D01*
X2051Y-3544D01*
X2093Y-3607D01*
X2156Y-3649D01*
X2230Y-3664D01*
X2304Y-3649D01*
X2367Y-3607D01*
X2409Y-3544D01*
X2424Y-3470D01*
X2420Y-3450D01*
X2461Y-3422D01*
X2484Y-3437D01*
X2530Y-3446D01*
Y-3270D01*
D02*
G37*
G36*
X-770Y-2566D02*
X-844Y-2581D01*
X-907Y-2623D01*
X-949Y-2686D01*
X-964Y-2760D01*
X-949Y-2834D01*
X-907Y-2897D01*
X-844Y-2939D01*
X-770Y-2954D01*
X-696Y-2939D01*
X-633Y-2897D01*
X-591Y-2834D01*
X-576Y-2760D01*
X-591Y-2686D01*
X-633Y-2623D01*
X-696Y-2581D01*
X-770Y-2566D01*
D02*
G37*
G36*
X-5690Y-2396D02*
X-5764Y-2411D01*
X-5827Y-2453D01*
X-5869Y-2516D01*
X-5884Y-2590D01*
X-5869Y-2664D01*
X-5827Y-2727D01*
X-5764Y-2769D01*
X-5690Y-2784D01*
X-5616Y-2769D01*
X-5553Y-2727D01*
X-5511Y-2664D01*
X-5496Y-2590D01*
X-5511Y-2516D01*
X-5553Y-2453D01*
X-5616Y-2411D01*
X-5690Y-2396D01*
D02*
G37*
G36*
X6010Y-2476D02*
X5936Y-2491D01*
X5873Y-2533D01*
X5831Y-2596D01*
X5816Y-2670D01*
X5831Y-2744D01*
X5873Y-2807D01*
X5936Y-2849D01*
X6010Y-2864D01*
X6084Y-2849D01*
X6147Y-2807D01*
X6189Y-2744D01*
X6204Y-2670D01*
X6189Y-2596D01*
X6147Y-2533D01*
X6084Y-2491D01*
X6010Y-2476D01*
D02*
G37*
G36*
X780Y-2566D02*
X706Y-2581D01*
X643Y-2623D01*
X601Y-2686D01*
X586Y-2760D01*
X601Y-2834D01*
X643Y-2897D01*
X706Y-2939D01*
X780Y-2954D01*
X854Y-2939D01*
X917Y-2897D01*
X959Y-2834D01*
X974Y-2760D01*
X959Y-2686D01*
X917Y-2623D01*
X854Y-2581D01*
X780Y-2566D01*
D02*
G37*
G36*
X670Y-1798D02*
Y-2000D01*
X872D01*
X861Y-1944D01*
X807Y-1863D01*
X726Y-1809D01*
X670Y-1798D01*
D02*
G37*
G36*
X-4410Y320D02*
X-4597D01*
X-4587Y270D01*
X-4536Y194D01*
X-4460Y143D01*
X-4410Y133D01*
Y320D01*
D02*
G37*
G36*
X-4210Y-136D02*
X-4284Y-151D01*
X-4347Y-193D01*
X-4389Y-256D01*
X-4404Y-330D01*
X-4389Y-404D01*
X-4347Y-467D01*
X-4284Y-509D01*
X-4210Y-524D01*
X-4136Y-509D01*
X-4073Y-467D01*
X-4031Y-404D01*
X-4016Y-330D01*
X-4031Y-256D01*
X-4073Y-193D01*
X-4136Y-151D01*
X-4210Y-136D01*
D02*
G37*
G36*
X1634Y693D02*
X1499Y680D01*
X1369Y640D01*
X1249Y576D01*
X1144Y490D01*
X1057Y385D01*
X993Y265D01*
X954Y135D01*
X941Y0D01*
X954Y-135D01*
X993Y-265D01*
X1057Y-385D01*
X1144Y-490D01*
X1249Y-576D01*
X1369Y-640D01*
X1499Y-680D01*
X1634Y-693D01*
X1769Y-680D01*
X1899Y-640D01*
X2019Y-576D01*
X2124Y-490D01*
X2210Y-385D01*
X2274Y-265D01*
X2314Y-135D01*
X2327Y0D01*
X2314Y135D01*
X2274Y265D01*
X2210Y385D01*
X2124Y490D01*
X2019Y576D01*
X1899Y640D01*
X1769Y680D01*
X1634Y693D01*
D02*
G37*
G36*
X-4143Y320D02*
X-4330D01*
Y133D01*
X-4280Y143D01*
X-4204Y194D01*
X-4153Y270D01*
X-4143Y320D01*
D02*
G37*
G36*
X3320Y1634D02*
X3246Y1619D01*
X3183Y1577D01*
X3141Y1514D01*
X3126Y1440D01*
X3141Y1366D01*
X3183Y1303D01*
X3246Y1261D01*
X3320Y1246D01*
X3394Y1261D01*
X3457Y1303D01*
X3499Y1366D01*
X3514Y1440D01*
X3499Y1514D01*
X3457Y1577D01*
X3394Y1619D01*
X3320Y1634D01*
D02*
G37*
G36*
X-6013Y1290D02*
X-6200D01*
Y1103D01*
X-6150Y1113D01*
X-6074Y1164D01*
X-6023Y1240D01*
X-6013Y1290D01*
D02*
G37*
G36*
X-2460Y1394D02*
X-2534Y1379D01*
X-2597Y1337D01*
X-2639Y1274D01*
X-2654Y1200D01*
X-2639Y1126D01*
X-2597Y1063D01*
X-2534Y1021D01*
X-2460Y1006D01*
X-2386Y1021D01*
X-2323Y1063D01*
X-2281Y1126D01*
X-2266Y1200D01*
X-2281Y1274D01*
X-2323Y1337D01*
X-2386Y1379D01*
X-2460Y1394D01*
D02*
G37*
G36*
X4730Y-1135D02*
X4640Y-1153D01*
X4564Y-1204D01*
X4513Y-1280D01*
X4495Y-1370D01*
X4513Y-1460D01*
X4564Y-1536D01*
X4640Y-1587D01*
X4730Y-1605D01*
X4820Y-1587D01*
X4896Y-1536D01*
X4947Y-1460D01*
X4965Y-1370D01*
X4947Y-1280D01*
X4896Y-1204D01*
X4820Y-1153D01*
X4730Y-1135D01*
D02*
G37*
G36*
X-5197Y-1801D02*
Y-1987D01*
X-5011D01*
X-5021Y-1938D01*
X-5071Y-1861D01*
X-5148Y-1811D01*
X-5197Y-1801D01*
D02*
G37*
G36*
X-5277D02*
X-5327Y-1811D01*
X-5403Y-1861D01*
X-5454Y-1938D01*
X-5464Y-1987D01*
X-5277D01*
Y-1801D01*
D02*
G37*
G36*
X-2830Y-396D02*
X-2904Y-411D01*
X-2967Y-453D01*
X-3009Y-516D01*
X-3024Y-590D01*
X-3009Y-664D01*
X-2967Y-727D01*
X-2904Y-769D01*
X-2830Y-784D01*
X-2756Y-769D01*
X-2715Y-742D01*
X-2680Y-777D01*
X-2699Y-806D01*
X-2714Y-880D01*
X-2699Y-954D01*
X-2657Y-1017D01*
X-2594Y-1059D01*
X-2520Y-1074D01*
X-2446Y-1059D01*
X-2383Y-1017D01*
X-2341Y-954D01*
X-2326Y-880D01*
X-2341Y-806D01*
X-2383Y-743D01*
X-2446Y-701D01*
X-2520Y-686D01*
X-2594Y-701D01*
X-2635Y-728D01*
X-2670Y-693D01*
X-2651Y-664D01*
X-2636Y-590D01*
X-2651Y-516D01*
X-2693Y-453D01*
X-2756Y-411D01*
X-2830Y-396D01*
D02*
G37*
G36*
X-1634Y693D02*
X-1769Y680D01*
X-1899Y640D01*
X-2019Y576D01*
X-2124Y490D01*
X-2210Y385D01*
X-2274Y265D01*
X-2314Y135D01*
X-2327Y0D01*
X-2314Y-135D01*
X-2274Y-265D01*
X-2210Y-385D01*
X-2124Y-490D01*
X-2019Y-576D01*
X-1899Y-640D01*
X-1769Y-680D01*
X-1634Y-693D01*
X-1499Y-680D01*
X-1369Y-640D01*
X-1249Y-576D01*
X-1144Y-490D01*
X-1057Y-385D01*
X-993Y-265D01*
X-954Y-135D01*
X-941Y0D01*
X-954Y135D01*
X-993Y265D01*
X-1057Y385D01*
X-1144Y490D01*
X-1249Y576D01*
X-1369Y640D01*
X-1499Y680D01*
X-1634Y693D01*
D02*
G37*
G36*
X-6040Y-396D02*
X-6114Y-411D01*
X-6177Y-453D01*
X-6219Y-516D01*
X-6234Y-590D01*
X-6219Y-664D01*
X-6177Y-727D01*
X-6114Y-769D01*
X-6040Y-784D01*
X-5966Y-769D01*
X-5903Y-727D01*
X-5861Y-664D01*
X-5846Y-590D01*
X-5861Y-516D01*
X-5903Y-453D01*
X-5966Y-411D01*
X-6040Y-396D01*
D02*
G37*
G36*
X-5514Y-406D02*
X-5588Y-421D01*
X-5651Y-463D01*
X-5693Y-526D01*
X-5708Y-600D01*
X-5693Y-674D01*
X-5651Y-737D01*
X-5588Y-779D01*
X-5514Y-794D01*
X-5440Y-779D01*
X-5377Y-737D01*
X-5335Y-674D01*
X-5320Y-600D01*
X-5335Y-526D01*
X-5377Y-463D01*
X-5440Y-421D01*
X-5514Y-406D01*
D02*
G37*
G36*
X-4680Y-5080D02*
X-4887D01*
X-4875Y-5138D01*
X-4820Y-5220D01*
X-4738Y-5275D01*
X-4680Y-5287D01*
Y-5080D01*
D02*
G37*
G36*
X2050Y-5096D02*
X1976Y-5111D01*
X1913Y-5153D01*
X1871Y-5216D01*
X1856Y-5290D01*
X1871Y-5364D01*
X1913Y-5427D01*
X1976Y-5469D01*
X2050Y-5484D01*
X2124Y-5469D01*
X2187Y-5427D01*
X2229Y-5364D01*
X2244Y-5290D01*
X2229Y-5216D01*
X2187Y-5153D01*
X2124Y-5111D01*
X2050Y-5096D01*
D02*
G37*
G36*
X120Y-5316D02*
X46Y-5331D01*
X-17Y-5373D01*
X-59Y-5436D01*
X-74Y-5510D01*
X-59Y-5584D01*
X-17Y-5647D01*
X46Y-5689D01*
X120Y-5704D01*
X194Y-5689D01*
X257Y-5647D01*
X299Y-5584D01*
X314Y-5510D01*
X299Y-5436D01*
X257Y-5373D01*
X194Y-5331D01*
X120Y-5316D01*
D02*
G37*
G36*
X-4393Y-5080D02*
X-4600D01*
Y-5287D01*
X-4542Y-5275D01*
X-4460Y-5220D01*
X-4405Y-5138D01*
X-4393Y-5080D01*
D02*
G37*
G36*
X-4600Y-4793D02*
Y-5000D01*
X-4393D01*
X-4405Y-4942D01*
X-4460Y-4860D01*
X-4542Y-4805D01*
X-4600Y-4793D01*
D02*
G37*
G36*
X-4680D02*
X-4738Y-4805D01*
X-4820Y-4860D01*
X-4875Y-4942D01*
X-4887Y-5000D01*
X-4680D01*
Y-4793D01*
D02*
G37*
G36*
X-2020Y-4786D02*
X-2094Y-4801D01*
X-2157Y-4843D01*
X-2199Y-4906D01*
X-2214Y-4980D01*
X-2199Y-5054D01*
X-2157Y-5117D01*
X-2094Y-5159D01*
X-2020Y-5174D01*
X-1946Y-5159D01*
X-1883Y-5117D01*
X-1841Y-5054D01*
X-1826Y-4980D01*
X-1841Y-4906D01*
X-1883Y-4843D01*
X-1946Y-4801D01*
X-2020Y-4786D01*
D02*
G37*
G36*
X-1920Y-6003D02*
Y-6190D01*
X-1733D01*
X-1743Y-6140D01*
X-1794Y-6064D01*
X-1870Y-6013D01*
X-1920Y-6003D01*
D02*
G37*
G36*
X-2000D02*
X-2050Y-6013D01*
X-2126Y-6064D01*
X-2177Y-6140D01*
X-2187Y-6190D01*
X-2000D01*
Y-6003D01*
D02*
G37*
G36*
X-3455Y-5906D02*
X-3529Y-5921D01*
X-3592Y-5963D01*
X-3634Y-6026D01*
X-3649Y-6100D01*
X-3634Y-6174D01*
X-3592Y-6237D01*
X-3529Y-6279D01*
X-3455Y-6294D01*
X-3381Y-6279D01*
X-3318Y-6237D01*
X-3276Y-6174D01*
X-3262Y-6100D01*
X-3276Y-6026D01*
X-3318Y-5963D01*
X-3381Y-5921D01*
X-3455Y-5906D01*
D02*
G37*
G36*
X2060Y-5596D02*
X1986Y-5611D01*
X1923Y-5653D01*
X1881Y-5716D01*
X1866Y-5790D01*
X1881Y-5864D01*
X1923Y-5927D01*
X1986Y-5969D01*
X2060Y-5984D01*
X2134Y-5969D01*
X2197Y-5927D01*
X2239Y-5864D01*
X2254Y-5790D01*
X2239Y-5716D01*
X2197Y-5653D01*
X2134Y-5611D01*
X2060Y-5596D01*
D02*
G37*
G36*
X-350Y-5316D02*
X-424Y-5331D01*
X-487Y-5373D01*
X-529Y-5436D01*
X-544Y-5510D01*
X-529Y-5584D01*
X-487Y-5647D01*
X-424Y-5689D01*
X-350Y-5704D01*
X-276Y-5689D01*
X-213Y-5647D01*
X-171Y-5584D01*
X-156Y-5510D01*
X-171Y-5436D01*
X-213Y-5373D01*
X-276Y-5331D01*
X-350Y-5316D01*
D02*
G37*
G36*
X5143Y-5730D02*
X4956D01*
Y-5916D01*
X5006Y-5906D01*
X5082Y-5855D01*
X5133Y-5779D01*
X5143Y-5730D01*
D02*
G37*
G36*
X3144D02*
X2957D01*
X2967Y-5779D01*
X3018Y-5855D01*
X3094Y-5906D01*
X3144Y-5916D01*
Y-5730D01*
D02*
G37*
G36*
X6000Y-4596D02*
X5926Y-4611D01*
X5863Y-4653D01*
X5821Y-4716D01*
X5806Y-4790D01*
X5821Y-4864D01*
X5863Y-4927D01*
X5926Y-4969D01*
X6000Y-4984D01*
X6074Y-4969D01*
X6137Y-4927D01*
X6179Y-4864D01*
X6194Y-4790D01*
X6179Y-4716D01*
X6137Y-4653D01*
X6074Y-4611D01*
X6000Y-4596D01*
D02*
G37*
G36*
X-4320Y-3476D02*
X-4394Y-3491D01*
X-4457Y-3533D01*
X-4499Y-3596D01*
X-4514Y-3670D01*
X-4499Y-3744D01*
X-4457Y-3807D01*
X-4394Y-3849D01*
X-4320Y-3864D01*
X-4246Y-3849D01*
X-4183Y-3807D01*
X-4141Y-3744D01*
X-4126Y-3670D01*
X-4141Y-3596D01*
X-4183Y-3533D01*
X-4246Y-3491D01*
X-4320Y-3476D01*
D02*
G37*
G36*
X1240Y-3703D02*
X1190Y-3713D01*
X1114Y-3764D01*
X1063Y-3840D01*
X1053Y-3890D01*
X1240D01*
Y-3703D01*
D02*
G37*
G36*
X1320D02*
Y-3930D01*
Y-4157D01*
X1370Y-4147D01*
X1446Y-4096D01*
X1492Y-4026D01*
X1529D01*
X1544Y-4029D01*
X1563Y-4057D01*
X1626Y-4099D01*
X1700Y-4114D01*
X1774Y-4099D01*
X1837Y-4057D01*
X1879Y-3994D01*
X1894Y-3920D01*
X1879Y-3846D01*
X1837Y-3783D01*
X1774Y-3741D01*
X1700Y-3726D01*
X1626Y-3741D01*
X1563Y-3783D01*
X1536Y-3824D01*
X1486D01*
X1446Y-3764D01*
X1370Y-3713D01*
X1320Y-3703D01*
D02*
G37*
G36*
X-5780Y-3466D02*
X-5854Y-3481D01*
X-5917Y-3523D01*
X-5959Y-3586D01*
X-5974Y-3660D01*
X-5959Y-3734D01*
X-5928Y-3781D01*
X-5963Y-3816D01*
X-5986Y-3801D01*
X-6060Y-3786D01*
X-6134Y-3801D01*
X-6197Y-3843D01*
X-6239Y-3906D01*
X-6254Y-3980D01*
X-6239Y-4054D01*
X-6197Y-4117D01*
X-6134Y-4159D01*
X-6079Y-4170D01*
Y-4220D01*
X-6134Y-4231D01*
X-6197Y-4273D01*
X-6239Y-4336D01*
X-6254Y-4410D01*
X-6239Y-4484D01*
X-6197Y-4547D01*
X-6134Y-4589D01*
X-6060Y-4604D01*
X-5986Y-4589D01*
X-5923Y-4547D01*
X-5881Y-4484D01*
X-5866Y-4410D01*
X-5881Y-4336D01*
X-5923Y-4273D01*
X-5986Y-4231D01*
X-6041Y-4220D01*
Y-4170D01*
X-5986Y-4159D01*
X-5939Y-4128D01*
X-5890Y-4137D01*
X-5877Y-4157D01*
X-5814Y-4199D01*
X-5740Y-4214D01*
X-5666Y-4199D01*
X-5603Y-4157D01*
X-5561Y-4094D01*
X-5546Y-4020D01*
X-5561Y-3946D01*
X-5603Y-3883D01*
X-5650Y-3852D01*
Y-3802D01*
X-5643Y-3797D01*
X-5601Y-3734D01*
X-5586Y-3660D01*
X-5601Y-3586D01*
X-5643Y-3523D01*
X-5706Y-3481D01*
X-5780Y-3466D01*
D02*
G37*
G36*
X2786Y-3270D02*
X2610D01*
Y-3446D01*
X2656Y-3437D01*
X2729Y-3389D01*
X2777Y-3316D01*
X2786Y-3270D01*
D02*
G37*
G36*
X-1010Y-3146D02*
X-1084Y-3161D01*
X-1147Y-3203D01*
X-1189Y-3266D01*
X-1204Y-3340D01*
X-1189Y-3414D01*
X-1147Y-3477D01*
X-1084Y-3519D01*
X-1010Y-3534D01*
X-936Y-3519D01*
X-873Y-3477D01*
X-831Y-3414D01*
X-816Y-3340D01*
X-831Y-3266D01*
X-873Y-3203D01*
X-936Y-3161D01*
X-1010Y-3146D01*
D02*
G37*
G36*
X850Y-3286D02*
X776Y-3301D01*
X713Y-3343D01*
X671Y-3406D01*
X656Y-3480D01*
X671Y-3554D01*
X713Y-3617D01*
X776Y-3659D01*
X850Y-3674D01*
X924Y-3659D01*
X987Y-3617D01*
X1029Y-3554D01*
X1044Y-3480D01*
X1029Y-3406D01*
X987Y-3343D01*
X924Y-3301D01*
X850Y-3286D01*
D02*
G37*
G36*
X6000Y-4096D02*
X5926Y-4111D01*
X5863Y-4153D01*
X5821Y-4216D01*
X5806Y-4290D01*
X5821Y-4364D01*
X5863Y-4427D01*
X5926Y-4469D01*
X6000Y-4484D01*
X6074Y-4469D01*
X6137Y-4427D01*
X6179Y-4364D01*
X6194Y-4290D01*
X6179Y-4216D01*
X6137Y-4153D01*
X6074Y-4111D01*
X6000Y-4096D01*
D02*
G37*
G36*
X-2570Y-4136D02*
X-2644Y-4151D01*
X-2707Y-4193D01*
X-2749Y-4256D01*
X-2764Y-4330D01*
X-2749Y-4404D01*
X-2707Y-4467D01*
X-2644Y-4509D01*
X-2570Y-4524D01*
X-2496Y-4509D01*
X-2433Y-4467D01*
X-2391Y-4404D01*
X-2376Y-4330D01*
X-2391Y-4256D01*
X-2433Y-4193D01*
X-2496Y-4151D01*
X-2570Y-4136D01*
D02*
G37*
G36*
X-510Y-4196D02*
X-584Y-4211D01*
X-647Y-4253D01*
X-689Y-4316D01*
X-704Y-4390D01*
X-689Y-4464D01*
X-647Y-4527D01*
X-584Y-4569D01*
X-510Y-4584D01*
X-436Y-4569D01*
X-373Y-4527D01*
X-331Y-4464D01*
X-316Y-4390D01*
X-331Y-4316D01*
X-373Y-4253D01*
X-436Y-4211D01*
X-510Y-4196D01*
D02*
G37*
G36*
X3144Y-4164D02*
X3094Y-4174D01*
X3018Y-4225D01*
X2967Y-4301D01*
X2957Y-4350D01*
X3144D01*
Y-4164D01*
D02*
G37*
G36*
X1240Y-3970D02*
X1053D01*
X1063Y-4020D01*
X1114Y-4096D01*
X1190Y-4147D01*
X1240Y-4157D01*
Y-3970D01*
D02*
G37*
G36*
X4876Y-4164D02*
X4826Y-4174D01*
X4750Y-4225D01*
X4725Y-4263D01*
X4675D01*
X4649Y-4225D01*
X4573Y-4174D01*
X4523Y-4164D01*
Y-4390D01*
X4443D01*
Y-4164D01*
X4393Y-4174D01*
X4317Y-4225D01*
X4292Y-4263D01*
X4242D01*
X4216Y-4225D01*
X4140Y-4174D01*
X4090Y-4164D01*
Y-4390D01*
X4010D01*
Y-4164D01*
X3960Y-4174D01*
X3884Y-4225D01*
X3858Y-4263D01*
X3808D01*
X3783Y-4225D01*
X3707Y-4174D01*
X3657Y-4164D01*
Y-4390D01*
X3577D01*
Y-4164D01*
X3527Y-4174D01*
X3451Y-4225D01*
X3425Y-4263D01*
X3375D01*
X3350Y-4225D01*
X3274Y-4174D01*
X3224Y-4164D01*
Y-4390D01*
X3184D01*
Y-4430D01*
X2957D01*
X2967Y-4480D01*
X3018Y-4556D01*
X3057Y-4582D01*
Y-4632D01*
X3018Y-4658D01*
X2967Y-4734D01*
X2957Y-4783D01*
X3184D01*
Y-4863D01*
X2957D01*
X2967Y-4913D01*
X3018Y-4989D01*
X3057Y-5015D01*
Y-5065D01*
X3018Y-5091D01*
X2967Y-5167D01*
X2957Y-5217D01*
X3184D01*
Y-5297D01*
X2957D01*
X2967Y-5346D01*
X3018Y-5422D01*
X3057Y-5448D01*
Y-5498D01*
X3018Y-5524D01*
X2967Y-5600D01*
X2957Y-5650D01*
X3184D01*
Y-5690D01*
X3224D01*
Y-5916D01*
X3274Y-5906D01*
X3350Y-5855D01*
X3375Y-5817D01*
X3425D01*
X3451Y-5855D01*
X3527Y-5906D01*
X3577Y-5916D01*
Y-5690D01*
X3657D01*
Y-5916D01*
X3707Y-5906D01*
X3783Y-5855D01*
X3808Y-5817D01*
X3858D01*
X3884Y-5855D01*
X3960Y-5906D01*
X4010Y-5916D01*
Y-5690D01*
X4090D01*
Y-5916D01*
X4140Y-5906D01*
X4216Y-5855D01*
X4242Y-5817D01*
X4292D01*
X4317Y-5855D01*
X4393Y-5906D01*
X4443Y-5916D01*
Y-5690D01*
X4523D01*
Y-5916D01*
X4573Y-5906D01*
X4649Y-5855D01*
X4675Y-5817D01*
X4725D01*
X4750Y-5855D01*
X4826Y-5906D01*
X4876Y-5916D01*
Y-5690D01*
X4916D01*
Y-5650D01*
X5143D01*
X5133Y-5600D01*
X5082Y-5524D01*
X5043Y-5498D01*
Y-5448D01*
X5082Y-5422D01*
X5133Y-5346D01*
X5143Y-5297D01*
X4916D01*
Y-5217D01*
X5143D01*
X5133Y-5167D01*
X5082Y-5091D01*
X5043Y-5065D01*
Y-5015D01*
X5082Y-4989D01*
X5133Y-4913D01*
X5143Y-4863D01*
X4916D01*
Y-4783D01*
X5143D01*
X5133Y-4734D01*
X5082Y-4658D01*
X5043Y-4632D01*
Y-4582D01*
X5082Y-4556D01*
X5133Y-4480D01*
X5143Y-4430D01*
X4916D01*
Y-4390D01*
X4876D01*
Y-4164D01*
D02*
G37*
G36*
X4956D02*
Y-4350D01*
X5143D01*
X5133Y-4301D01*
X5082Y-4225D01*
X5006Y-4174D01*
X4956Y-4164D01*
D02*
G37*
G36*
X-2900Y1444D02*
X-2974Y1429D01*
X-3037Y1387D01*
X-3079Y1324D01*
X-3085Y1294D01*
X-3135D01*
X-3141Y1324D01*
X-3183Y1387D01*
X-3246Y1429D01*
X-3320Y1444D01*
X-3394Y1429D01*
X-3457Y1387D01*
X-3499Y1324D01*
X-3514Y1250D01*
X-3499Y1176D01*
X-3457Y1113D01*
X-3394Y1071D01*
X-3320Y1056D01*
X-3246Y1071D01*
X-3183Y1113D01*
X-3141Y1176D01*
X-3135Y1206D01*
X-3085D01*
X-3079Y1176D01*
X-3037Y1113D01*
X-2974Y1071D01*
X-2900Y1056D01*
X-2826Y1071D01*
X-2763Y1113D01*
X-2721Y1176D01*
X-2706Y1250D01*
X-2721Y1324D01*
X-2763Y1387D01*
X-2826Y1429D01*
X-2900Y1444D01*
D02*
G37*
G36*
X-5983Y5230D02*
X-6170D01*
Y5043D01*
X-6120Y5053D01*
X-6044Y5104D01*
X-5993Y5180D01*
X-5983Y5230D01*
D02*
G37*
G36*
X-1620Y5100D02*
X-1807D01*
X-1802Y5079D01*
X-1838Y5043D01*
X-1890Y5054D01*
X-1964Y5039D01*
X-2027Y4997D01*
X-2069Y4934D01*
X-2084Y4860D01*
X-2069Y4786D01*
X-2027Y4723D01*
X-1964Y4681D01*
X-1890Y4666D01*
X-1816Y4681D01*
X-1753Y4723D01*
X-1711Y4786D01*
X-1696Y4860D01*
X-1700Y4878D01*
X-1678Y4911D01*
X-1666Y4923D01*
X-1620Y4913D01*
Y5100D01*
D02*
G37*
G36*
X-1353D02*
X-1540D01*
Y4913D01*
X-1490Y4923D01*
X-1414Y4974D01*
X-1363Y5050D01*
X-1353Y5100D01*
D02*
G37*
G36*
X-1620Y5367D02*
X-1670Y5357D01*
X-1746Y5306D01*
X-1797Y5230D01*
X-1807Y5180D01*
X-1620D01*
Y5367D01*
D02*
G37*
G36*
X37Y5410D02*
X-150D01*
Y5223D01*
X-100Y5233D01*
X-24Y5284D01*
X27Y5360D01*
X37Y5410D01*
D02*
G37*
G36*
X-230D02*
X-417D01*
X-407Y5360D01*
X-356Y5284D01*
X-280Y5233D01*
X-230Y5223D01*
Y5410D01*
D02*
G37*
G36*
X-1540Y5367D02*
Y5180D01*
X-1353D01*
X-1363Y5230D01*
X-1414Y5306D01*
X-1490Y5357D01*
X-1540Y5367D01*
D02*
G37*
G36*
X4766Y4840D02*
Y4653D01*
X4953D01*
X4943Y4703D01*
X4892Y4779D01*
X4816Y4830D01*
X4766Y4840D01*
D02*
G37*
G36*
X3820D02*
X3770Y4830D01*
X3694Y4779D01*
X3643Y4703D01*
X3633Y4653D01*
X3820D01*
Y4840D01*
D02*
G37*
G36*
X-390Y4807D02*
X-440Y4797D01*
X-516Y4746D01*
X-567Y4670D01*
X-577Y4620D01*
X-390D01*
Y4807D01*
D02*
G37*
G36*
X10D02*
X-40Y4797D01*
X-116Y4746D01*
X-125Y4732D01*
X-175D01*
X-184Y4746D01*
X-260Y4797D01*
X-310Y4807D01*
Y4580D01*
X-350D01*
Y4540D01*
X-577D01*
X-567Y4490D01*
X-516Y4414D01*
X-475Y4387D01*
Y4337D01*
X-506Y4316D01*
X-557Y4240D01*
X-567Y4190D01*
X-113D01*
X-123Y4240D01*
X-174Y4316D01*
X-215Y4343D01*
Y4393D01*
X-184Y4414D01*
X-175Y4428D01*
X-125D01*
X-116Y4414D01*
X-40Y4363D01*
X10Y4353D01*
Y4580D01*
Y4807D01*
D02*
G37*
G36*
X2830Y4997D02*
Y4810D01*
X3017D01*
X3007Y4860D01*
X2956Y4936D01*
X2880Y4987D01*
X2830Y4997D01*
D02*
G37*
G36*
X2750D02*
X2700Y4987D01*
X2624Y4936D01*
X2573Y4860D01*
X2563Y4810D01*
X2750D01*
Y4997D01*
D02*
G37*
G36*
X4686Y4840D02*
X4636Y4830D01*
X4560Y4779D01*
X4535Y4740D01*
X4485D01*
X4459Y4779D01*
X4383Y4830D01*
X4333Y4840D01*
Y4613D01*
X4253D01*
Y4840D01*
X4203Y4830D01*
X4127Y4779D01*
X4102Y4740D01*
X4052D01*
X4026Y4779D01*
X3950Y4830D01*
X3900Y4840D01*
Y4613D01*
X3860D01*
Y4573D01*
X3633D01*
X3643Y4523D01*
X3694Y4447D01*
X3733Y4422D01*
Y4372D01*
X3694Y4346D01*
X3643Y4270D01*
X3633Y4220D01*
X3860D01*
Y4140D01*
X3633D01*
X3643Y4090D01*
X3694Y4014D01*
X3733Y3988D01*
Y3938D01*
X3694Y3913D01*
X3643Y3837D01*
X3633Y3787D01*
X3860D01*
Y3747D01*
X3900D01*
Y3520D01*
X3950Y3530D01*
X4026Y3581D01*
X4052Y3620D01*
X4102D01*
X4127Y3581D01*
X4203Y3530D01*
X4253Y3520D01*
Y3747D01*
X4333D01*
Y3520D01*
X4383Y3530D01*
X4459Y3581D01*
X4485Y3620D01*
X4535D01*
X4560Y3581D01*
X4636Y3530D01*
X4686Y3520D01*
Y3747D01*
X4726D01*
Y3787D01*
X4953D01*
X4943Y3837D01*
X4892Y3913D01*
X4853Y3938D01*
Y3988D01*
X4892Y4014D01*
X4943Y4090D01*
X4953Y4140D01*
X4726D01*
Y4220D01*
X4953D01*
X4943Y4270D01*
X4892Y4346D01*
X4853Y4372D01*
Y4422D01*
X4892Y4447D01*
X4943Y4523D01*
X4953Y4573D01*
X4726D01*
Y4613D01*
X4686D01*
Y4840D01*
D02*
G37*
G36*
X-6170Y5497D02*
Y5310D01*
X-5983D01*
X-5993Y5360D01*
X-6044Y5436D01*
X-6120Y5487D01*
X-6170Y5497D01*
D02*
G37*
G36*
X5350Y6040D02*
X5163D01*
X5173Y5990D01*
X5224Y5914D01*
X5300Y5863D01*
X5350Y5853D01*
Y6040D01*
D02*
G37*
G36*
X-5090Y5834D02*
X-5164Y5819D01*
X-5227Y5777D01*
X-5265Y5720D01*
X-5299D01*
X-5318Y5724D01*
X-5333Y5747D01*
X-5396Y5789D01*
X-5470Y5804D01*
X-5544Y5789D01*
X-5607Y5747D01*
X-5649Y5684D01*
X-5664Y5610D01*
X-5649Y5536D01*
X-5607Y5473D01*
X-5544Y5431D01*
X-5470Y5416D01*
X-5396Y5431D01*
X-5333Y5473D01*
X-5295Y5530D01*
X-5261D01*
X-5242Y5526D01*
X-5227Y5503D01*
X-5164Y5461D01*
X-5090Y5446D01*
X-5016Y5461D01*
X-4953Y5503D01*
X-4911Y5566D01*
X-4896Y5640D01*
X-4911Y5714D01*
X-4953Y5777D01*
X-5016Y5819D01*
X-5090Y5834D01*
D02*
G37*
G36*
X-2500Y5704D02*
X-2574Y5689D01*
X-2637Y5647D01*
X-2644Y5637D01*
X-2683D01*
X-2746Y5679D01*
X-2820Y5694D01*
X-2894Y5679D01*
X-2957Y5637D01*
X-2999Y5574D01*
X-3014Y5500D01*
X-3007Y5465D01*
X-3048Y5437D01*
X-3066Y5449D01*
X-3140Y5464D01*
X-3214Y5449D01*
X-3277Y5407D01*
X-3319Y5344D01*
X-3334Y5270D01*
X-3319Y5196D01*
X-3277Y5133D01*
X-3214Y5091D01*
X-3140Y5076D01*
X-3066Y5091D01*
X-3003Y5133D01*
X-2961Y5196D01*
X-2946Y5270D01*
X-2953Y5305D01*
X-2912Y5333D01*
X-2894Y5321D01*
X-2820Y5306D01*
X-2746Y5321D01*
X-2683Y5363D01*
X-2676Y5373D01*
X-2637D01*
X-2574Y5331D01*
X-2500Y5316D01*
X-2426Y5331D01*
X-2363Y5373D01*
X-2321Y5436D01*
X-2306Y5510D01*
X-2321Y5584D01*
X-2363Y5647D01*
X-2426Y5689D01*
X-2500Y5704D01*
D02*
G37*
G36*
X5617Y6040D02*
X5430D01*
Y5853D01*
X5480Y5863D01*
X5556Y5914D01*
X5607Y5990D01*
X5617Y6040D01*
D02*
G37*
G36*
X5430Y6307D02*
Y6120D01*
X5617D01*
X5607Y6170D01*
X5556Y6246D01*
X5480Y6297D01*
X5430Y6307D01*
D02*
G37*
G36*
X5350D02*
X5300Y6297D01*
X5224Y6246D01*
X5173Y6170D01*
X5163Y6120D01*
X5350D01*
Y6307D01*
D02*
G37*
G36*
X-4030Y6274D02*
X-4104Y6259D01*
X-4167Y6217D01*
X-4209Y6154D01*
X-4224Y6080D01*
X-4209Y6006D01*
X-4167Y5943D01*
X-4104Y5901D01*
X-4030Y5886D01*
X-3956Y5901D01*
X-3893Y5943D01*
X-3851Y6006D01*
X-3836Y6080D01*
X-3851Y6154D01*
X-3893Y6217D01*
X-3956Y6259D01*
X-4030Y6274D01*
D02*
G37*
G36*
X-230Y5677D02*
X-280Y5667D01*
X-356Y5616D01*
X-407Y5540D01*
X-417Y5490D01*
X-230D01*
Y5677D01*
D02*
G37*
G36*
X2496Y5490D02*
X2320D01*
Y5314D01*
X2366Y5323D01*
X2439Y5371D01*
X2487Y5444D01*
X2496Y5490D01*
D02*
G37*
G36*
X2240D02*
X2064D01*
X2073Y5444D01*
X2121Y5371D01*
X2194Y5323D01*
X2240Y5314D01*
Y5490D01*
D02*
G37*
G36*
X-150Y5677D02*
Y5490D01*
X37D01*
X27Y5540D01*
X-24Y5616D01*
X-100Y5667D01*
X-150Y5677D01*
D02*
G37*
G36*
X-3600Y5994D02*
X-3674Y5979D01*
X-3737Y5937D01*
X-3779Y5874D01*
X-3794Y5800D01*
X-3779Y5726D01*
X-3737Y5663D01*
X-3674Y5621D01*
X-3600Y5606D01*
X-3526Y5621D01*
X-3463Y5663D01*
X-3463D01*
X-3463Y5663D01*
X-3414Y5653D01*
X-3407Y5643D01*
X-3344Y5601D01*
X-3270Y5586D01*
X-3196Y5601D01*
X-3133Y5643D01*
X-3091Y5706D01*
X-3076Y5780D01*
X-3091Y5854D01*
X-3133Y5917D01*
X-3196Y5959D01*
X-3270Y5974D01*
X-3344Y5959D01*
X-3407Y5917D01*
X-3407D01*
D01*
X-3456Y5927D01*
X-3463Y5937D01*
X-3526Y5979D01*
X-3600Y5994D01*
D02*
G37*
G36*
X2320Y5746D02*
Y5570D01*
X2496D01*
X2487Y5616D01*
X2439Y5689D01*
X2366Y5737D01*
X2320Y5746D01*
D02*
G37*
G36*
X2240D02*
X2194Y5737D01*
X2121Y5689D01*
X2073Y5616D01*
X2064Y5570D01*
X2240D01*
Y5746D01*
D02*
G37*
G36*
X3820Y3707D02*
X3633D01*
X3643Y3657D01*
X3694Y3581D01*
X3770Y3530D01*
X3820Y3520D01*
Y3707D01*
D02*
G37*
G36*
X-1730Y2974D02*
X-1804Y2959D01*
X-1867Y2917D01*
X-1909Y2854D01*
X-1924Y2780D01*
X-1909Y2706D01*
X-1867Y2643D01*
X-1804Y2601D01*
X-1730Y2586D01*
X-1656Y2601D01*
X-1593Y2643D01*
X-1551Y2706D01*
X-1536Y2780D01*
X-1551Y2854D01*
X-1593Y2917D01*
X-1656Y2959D01*
X-1730Y2974D01*
D02*
G37*
G36*
X-380Y2474D02*
X-454Y2459D01*
X-517Y2417D01*
X-559Y2354D01*
X-574Y2280D01*
X-559Y2206D01*
X-517Y2143D01*
X-454Y2101D01*
X-380Y2086D01*
X-306Y2101D01*
X-243Y2143D01*
X-201Y2206D01*
X-186Y2280D01*
X-201Y2354D01*
X-243Y2417D01*
X-306Y2459D01*
X-380Y2474D01*
D02*
G37*
G36*
X4953Y3707D02*
X4766D01*
Y3520D01*
X4816Y3530D01*
X4892Y3581D01*
X4943Y3657D01*
X4953Y3707D01*
D02*
G37*
G36*
X1760Y4010D02*
X1573D01*
X1583Y3960D01*
X1634Y3884D01*
X1710Y3833D01*
X1760Y3823D01*
Y4010D01*
D02*
G37*
G36*
X-1120Y3850D02*
X-1307D01*
X-1304Y3836D01*
X-1345Y3809D01*
X-1346Y3809D01*
X-1420Y3824D01*
X-1494Y3809D01*
X-1557Y3767D01*
X-1599Y3704D01*
X-1614Y3630D01*
X-1599Y3556D01*
X-1557Y3493D01*
X-1494Y3451D01*
X-1420Y3436D01*
X-1346Y3451D01*
X-1283Y3493D01*
X-1241Y3556D01*
X-1226Y3630D01*
X-1232Y3659D01*
X-1191Y3687D01*
X-1170Y3673D01*
X-1120Y3663D01*
Y3850D01*
D02*
G37*
G36*
X-853D02*
X-1040D01*
Y3663D01*
X-990Y3673D01*
X-914Y3724D01*
X-863Y3800D01*
X-853Y3850D01*
D02*
G37*
G36*
X-6030Y2034D02*
X-6104Y2019D01*
X-6167Y1977D01*
X-6209Y1914D01*
X-6224Y1840D01*
X-6209Y1766D01*
X-6167Y1703D01*
X-6104Y1661D01*
X-6030Y1646D01*
X-5956Y1661D01*
X-5893Y1703D01*
X-5851Y1766D01*
X-5836Y1840D01*
X-5851Y1914D01*
X-5893Y1977D01*
X-5956Y2019D01*
X-6030Y2034D01*
D02*
G37*
G36*
X6090Y1864D02*
X6016Y1849D01*
X5953Y1807D01*
X5911Y1744D01*
X5896Y1670D01*
X5911Y1596D01*
X5953Y1533D01*
X6016Y1491D01*
X6090Y1476D01*
X6164Y1491D01*
X6227Y1533D01*
X6269Y1596D01*
X6284Y1670D01*
X6269Y1744D01*
X6227Y1807D01*
X6164Y1849D01*
X6090Y1864D01*
D02*
G37*
G36*
X-6200Y1557D02*
Y1370D01*
X-6013D01*
X-6023Y1420D01*
X-6074Y1496D01*
X-6150Y1547D01*
X-6200Y1557D01*
D02*
G37*
G36*
X3530Y2024D02*
X3460Y2010D01*
X3400Y1970D01*
X3360Y1910D01*
X3346Y1840D01*
X3360Y1770D01*
X3400Y1710D01*
X3460Y1670D01*
X3530Y1656D01*
X3600Y1670D01*
X3660Y1710D01*
X3700Y1770D01*
X3714Y1840D01*
X3700Y1910D01*
X3660Y1970D01*
X3600Y2010D01*
X3530Y2024D01*
D02*
G37*
G36*
X-2501Y2167D02*
X-2687D01*
Y1981D01*
X-2638Y1991D01*
X-2562Y2042D01*
X-2511Y2118D01*
X-2501Y2167D01*
D02*
G37*
G36*
X-4933D02*
X-5119D01*
X-5109Y2118D01*
X-5059Y2042D01*
X-4982Y1991D01*
X-4933Y1981D01*
Y2167D01*
D02*
G37*
G36*
X90Y2204D02*
X16Y2189D01*
X-47Y2147D01*
X-89Y2085D01*
X-104Y2010D01*
X-89Y1936D01*
X-47Y1873D01*
X16Y1831D01*
X90Y1817D01*
X164Y1831D01*
X227Y1873D01*
X269Y1936D01*
X284Y2010D01*
X269Y2085D01*
X227Y2147D01*
X164Y2189D01*
X90Y2204D01*
D02*
G37*
G36*
X2027Y4010D02*
X1840D01*
Y3823D01*
X1890Y3833D01*
X1966Y3884D01*
X2017Y3960D01*
X2027Y4010D01*
D02*
G37*
G36*
X1860Y4692D02*
Y4490D01*
X2062D01*
X2051Y4546D01*
X1997Y4627D01*
X1916Y4681D01*
X1860Y4692D01*
D02*
G37*
G36*
X1780D02*
X1724Y4681D01*
X1643Y4627D01*
X1589Y4546D01*
X1578Y4490D01*
X1780D01*
Y4692D01*
D02*
G37*
G36*
X-2687Y4599D02*
Y4413D01*
X-2501D01*
X-2511Y4462D01*
X-2562Y4539D01*
X-2638Y4589D01*
X-2687Y4599D01*
D02*
G37*
G36*
X-2767D02*
X-2817Y4589D01*
X-2893Y4539D01*
X-2919Y4500D01*
X-2969D01*
X-2995Y4539D01*
X-3071Y4589D01*
X-3120Y4599D01*
Y4373D01*
X-3200D01*
Y4599D01*
X-3250Y4589D01*
X-3326Y4539D01*
X-3352Y4500D01*
X-3402D01*
X-3428Y4539D01*
X-3504Y4589D01*
X-3553Y4599D01*
Y4373D01*
X-3633D01*
Y4599D01*
X-3683Y4589D01*
X-3759Y4539D01*
X-3785Y4500D01*
X-3835D01*
X-3861Y4539D01*
X-3937Y4589D01*
X-3987Y4599D01*
Y4373D01*
X-4067D01*
Y4599D01*
X-4116Y4589D01*
X-4192Y4539D01*
X-4218Y4500D01*
X-4268D01*
X-4294Y4539D01*
X-4370Y4589D01*
X-4420Y4599D01*
Y4373D01*
X-4500D01*
Y4599D01*
X-4549Y4589D01*
X-4625Y4539D01*
X-4651Y4500D01*
X-4701D01*
X-4727Y4539D01*
X-4803Y4589D01*
X-4853Y4599D01*
Y4373D01*
X-4893D01*
Y4333D01*
X-5119D01*
X-5109Y4283D01*
X-5059Y4207D01*
X-5020Y4181D01*
Y4131D01*
X-5059Y4105D01*
X-5109Y4029D01*
X-5119Y3980D01*
X-4893D01*
Y3900D01*
X-5119D01*
X-5109Y3850D01*
X-5059Y3774D01*
X-5020Y3748D01*
Y3698D01*
X-5059Y3672D01*
X-5109Y3596D01*
X-5119Y3547D01*
X-4893D01*
Y3467D01*
X-5119D01*
X-5109Y3417D01*
X-5059Y3341D01*
X-5020Y3315D01*
Y3265D01*
X-5059Y3239D01*
X-5109Y3163D01*
X-5119Y3113D01*
X-4893D01*
Y3033D01*
X-5119D01*
X-5109Y2984D01*
X-5059Y2908D01*
X-5020Y2882D01*
Y2832D01*
X-5059Y2806D01*
X-5109Y2730D01*
X-5119Y2680D01*
X-4893D01*
Y2600D01*
X-5119D01*
X-5109Y2551D01*
X-5059Y2475D01*
X-5020Y2449D01*
Y2399D01*
X-5059Y2373D01*
X-5109Y2297D01*
X-5119Y2247D01*
X-4893D01*
Y2207D01*
X-4853D01*
Y1981D01*
X-4803Y1991D01*
X-4727Y2042D01*
X-4701Y2080D01*
X-4651D01*
X-4625Y2042D01*
X-4549Y1991D01*
X-4500Y1981D01*
Y2207D01*
X-4420D01*
Y1981D01*
X-4370Y1991D01*
X-4294Y2042D01*
X-4268Y2080D01*
X-4218D01*
X-4192Y2042D01*
X-4116Y1991D01*
X-4067Y1981D01*
Y2207D01*
X-3987D01*
Y1981D01*
X-3937Y1991D01*
X-3861Y2042D01*
X-3835Y2080D01*
X-3785D01*
X-3759Y2042D01*
X-3683Y1991D01*
X-3633Y1981D01*
Y2207D01*
X-3553D01*
Y1981D01*
X-3504Y1991D01*
X-3428Y2042D01*
X-3402Y2080D01*
X-3352D01*
X-3326Y2042D01*
X-3250Y1991D01*
X-3200Y1981D01*
Y2207D01*
X-3120D01*
Y1981D01*
X-3071Y1991D01*
X-2995Y2042D01*
X-2969Y2080D01*
X-2919D01*
X-2893Y2042D01*
X-2817Y1991D01*
X-2767Y1981D01*
Y2207D01*
X-2727D01*
Y2247D01*
X-2501D01*
X-2511Y2297D01*
X-2562Y2373D01*
X-2600Y2399D01*
Y2449D01*
X-2562Y2475D01*
X-2511Y2551D01*
X-2501Y2600D01*
X-2727D01*
Y2680D01*
X-2501D01*
X-2511Y2730D01*
X-2562Y2806D01*
X-2600Y2832D01*
Y2882D01*
X-2562Y2908D01*
X-2511Y2984D01*
X-2501Y3033D01*
X-2727D01*
Y3113D01*
X-2501D01*
X-2511Y3163D01*
X-2562Y3239D01*
X-2600Y3265D01*
Y3315D01*
X-2562Y3341D01*
X-2511Y3417D01*
X-2501Y3467D01*
X-2727D01*
Y3547D01*
X-2501D01*
X-2511Y3596D01*
X-2562Y3672D01*
X-2600Y3698D01*
Y3748D01*
X-2562Y3774D01*
X-2511Y3850D01*
X-2501Y3900D01*
X-2727D01*
Y3980D01*
X-2501D01*
X-2511Y4029D01*
X-2562Y4105D01*
X-2600Y4131D01*
Y4181D01*
X-2562Y4207D01*
X-2511Y4283D01*
X-2501Y4333D01*
X-2727D01*
Y4373D01*
X-2767D01*
Y4599D01*
D02*
G37*
G36*
X5700Y4964D02*
X5626Y4949D01*
X5563Y4907D01*
X5521Y4844D01*
X5506Y4770D01*
X5521Y4696D01*
X5563Y4633D01*
X5626Y4591D01*
X5700Y4576D01*
X5774Y4591D01*
X5837Y4633D01*
X5879Y4696D01*
X5894Y4770D01*
X5879Y4844D01*
X5837Y4907D01*
X5774Y4949D01*
X5700Y4964D01*
D02*
G37*
G36*
X3017Y4730D02*
X2830D01*
Y4543D01*
X2880Y4553D01*
X2956Y4604D01*
X3007Y4680D01*
X3017Y4730D01*
D02*
G37*
G36*
X2750D02*
X2563D01*
X2573Y4680D01*
X2624Y4604D01*
X2700Y4553D01*
X2750Y4543D01*
Y4730D01*
D02*
G37*
G36*
X-1120Y4117D02*
X-1170Y4107D01*
X-1246Y4056D01*
X-1297Y3980D01*
X-1307Y3930D01*
X-1120D01*
Y4117D01*
D02*
G37*
G36*
X-113Y4110D02*
X-300D01*
Y3923D01*
X-250Y3933D01*
X-174Y3984D01*
X-123Y4060D01*
X-113Y4110D01*
D02*
G37*
G36*
X-380D02*
X-567D01*
X-557Y4060D01*
X-506Y3984D01*
X-430Y3933D01*
X-380Y3923D01*
Y4110D01*
D02*
G37*
G36*
X-1040Y4117D02*
Y3930D01*
X-853D01*
X-863Y3980D01*
X-914Y4056D01*
X-990Y4107D01*
X-1040Y4117D01*
D02*
G37*
G36*
X-4933Y4599D02*
X-4982Y4589D01*
X-5059Y4539D01*
X-5109Y4462D01*
X-5119Y4413D01*
X-4933D01*
Y4599D01*
D02*
G37*
G36*
X90Y4807D02*
Y4580D01*
Y4353D01*
X140Y4363D01*
X216Y4414D01*
X249Y4464D01*
X299D01*
X313Y4443D01*
X376Y4401D01*
X450Y4386D01*
X524Y4401D01*
X587Y4443D01*
X629Y4506D01*
X644Y4580D01*
X629Y4654D01*
X587Y4717D01*
X524Y4759D01*
X450Y4774D01*
X376Y4759D01*
X313Y4717D01*
X299Y4696D01*
X249D01*
X216Y4746D01*
X140Y4797D01*
X90Y4807D01*
D02*
G37*
G36*
X2062Y4410D02*
X1578D01*
X1589Y4354D01*
X1643Y4273D01*
X1644Y4273D01*
Y4223D01*
X1634Y4216D01*
X1583Y4140D01*
X1573Y4090D01*
X2027D01*
X2017Y4140D01*
X1966Y4216D01*
Y4253D01*
X1997Y4273D01*
X2051Y4354D01*
X2062Y4410D01*
D02*
G37*
%LPD*%
D11*
X-5874Y2940D02*
X-5320Y2386D01*
X-3160Y2640D02*
Y3073D01*
Y3507D01*
Y3940D01*
X-2727Y2207D02*
Y2640D01*
X-4027Y3073D02*
Y3507D01*
Y3940D01*
X-4460Y3073D02*
Y3507D01*
Y3940D02*
Y4373D01*
X-4893Y2207D02*
Y2640D01*
Y4373D02*
X-4460D01*
X-4027D01*
X-3593D01*
X-3160D01*
X-2727D01*
X-4893Y3940D02*
X-4460D01*
X-4027D01*
X-3593D02*
X-3160D01*
X-2727D01*
X-4893Y3507D02*
X-4460D01*
X-4027D02*
X-3593D01*
X-3160D02*
X-2727D01*
X-4893Y3073D02*
X-4460D01*
X-4027D01*
X-3593D01*
X-3160D01*
X-2727D01*
X-4893Y2640D02*
X-4460D01*
X-4027D01*
X-3593D01*
X-3160D02*
X-2727D01*
X-4893Y2207D02*
X-4460D01*
X-4027D01*
X-3593D01*
X-3160D01*
X-2727D01*
X-5320Y1250D02*
Y2386D01*
X-6110Y-4435D02*
X-6085Y-4410D01*
X-6060D01*
X-6250Y2940D02*
X-5874D01*
D41*
X4483Y-4823D02*
Y-4390D01*
Y-5257D02*
Y-4823D01*
Y-5690D02*
Y-5257D01*
X3617Y-4823D02*
Y-4390D01*
Y-5257D02*
Y-4823D01*
Y-5690D02*
Y-5257D01*
X4483Y-4823D02*
X4916D01*
X4050D02*
X4483D01*
X3617D02*
X4050D01*
X3184D02*
X3617D01*
X4050Y-5257D02*
X4483D01*
X3184D02*
X3617D01*
X4483Y-5690D02*
X4916D01*
X4050D02*
X4483D01*
X3184D02*
X3617D01*
X4916Y-4823D02*
Y-4390D01*
Y-5257D02*
Y-4823D01*
X3184D02*
Y-4390D01*
X4050D02*
X4483D01*
D45*
X4916Y-5690D02*
D03*
Y-5257D02*
D03*
Y-4823D02*
D03*
Y-4390D02*
D03*
X4483Y-5690D02*
D03*
Y-5257D02*
D03*
Y-4823D02*
D03*
Y-4390D02*
D03*
X4050Y-5690D02*
D03*
Y-5257D02*
D03*
Y-4823D02*
D03*
Y-4390D02*
D03*
X3617Y-5690D02*
D03*
Y-5257D02*
D03*
Y-4823D02*
D03*
Y-4390D02*
D03*
X3184Y-5690D02*
D03*
Y-5257D02*
D03*
Y-4823D02*
D03*
Y-4390D02*
D03*
X-1960Y-6230D02*
D03*
X-4370Y360D02*
D03*
X-6250Y2940D02*
D03*
X-1080Y3890D02*
D03*
X-340Y4150D02*
D03*
X4726Y3747D02*
D03*
X4293D02*
D03*
X3860D02*
D03*
X4726Y4180D02*
D03*
X3860D02*
D03*
X4726Y4613D02*
D03*
X4293D02*
D03*
X3860D02*
D03*
X-2727Y2207D02*
D03*
X-3160D02*
D03*
X-3593D02*
D03*
X-4027D02*
D03*
X-4460D02*
D03*
X-4893D02*
D03*
X-2727Y2640D02*
D03*
X-3160D02*
D03*
X-3593D02*
D03*
X-4027D02*
D03*
X-4460D02*
D03*
X-4893D02*
D03*
X-2727Y3073D02*
D03*
X-3160D02*
D03*
X-3593D02*
D03*
X-4027D02*
D03*
X-4460D02*
D03*
X-4893D02*
D03*
X-2727Y3507D02*
D03*
X-3160D02*
D03*
X-3593D02*
D03*
X-4027D02*
D03*
X-4460D02*
D03*
X-4893D02*
D03*
X-2727Y3940D02*
D03*
X-3160D02*
D03*
X-3593D02*
D03*
X-4027D02*
D03*
X-4460D02*
D03*
X-4893D02*
D03*
X-2727Y4373D02*
D03*
X-3160D02*
D03*
X-3593D02*
D03*
X-4027D02*
D03*
X-4460D02*
D03*
X-4893D02*
D03*
X1280Y-3930D02*
D03*
X-1580Y5140D02*
D03*
X5390Y6080D02*
D03*
X-6210Y5270D02*
D03*
X-6240Y1330D02*
D03*
X-350Y4580D02*
D03*
X50D02*
D03*
X-5320Y1250D02*
D03*
X-5237Y-2027D02*
D03*
X-6060Y-4410D02*
D03*
X1800Y4050D02*
D03*
X2790Y4770D02*
D03*
X-190Y5450D02*
D03*
D46*
X2570Y-3230D02*
D03*
X2280Y5530D02*
D03*
D48*
X-4640Y-5040D02*
D03*
D49*
X630Y-2040D02*
D03*
X1820Y4450D02*
D03*
M02*
