%FSLAX24Y24*%
%MOIN*%
G70*
G01*
G75*
G04 Layer_Physical_Order=4*
G04 Layer_Color=16711680*
%ADD10R,0.0354X0.0315*%
%ADD11R,0.0315X0.0354*%
%ADD12R,0.0276X0.0354*%
%ADD13R,0.0319X0.0661*%
%ADD14R,0.0394X0.0315*%
%ADD15R,0.0276X0.0591*%
%ADD16R,0.0600X0.0300*%
%ADD17R,0.0300X0.0598*%
%ADD18R,0.0598X0.0300*%
%ADD19R,0.0217X0.0394*%
%ADD20R,0.0157X0.0157*%
%ADD21C,0.0150*%
%ADD22C,0.0120*%
%ADD23C,0.0100*%
%ADD24C,0.0181*%
%ADD25C,0.0630*%
%ADD26C,0.0661*%
%ADD27C,0.0591*%
%ADD28C,0.1378*%
%ADD29C,0.0320*%
%ADD30C,0.0400*%
%ADD31C,0.0500*%
%ADD32R,0.0354X0.0276*%
%ADD33R,0.0532X0.0157*%
%ADD34R,0.0630X0.0748*%
%ADD35R,0.0551X0.0630*%
%ADD36R,0.0236X0.0591*%
%ADD37R,0.0591X0.0236*%
%ADD38O,0.0118X0.0650*%
%ADD39R,0.0335X0.0157*%
%ADD40R,0.0512X0.0217*%
%ADD41R,0.0209X0.0118*%
%ADD42R,0.0193X0.0118*%
%ADD43R,0.0201X0.0136*%
%ADD44R,0.0136X0.0201*%
%ADD45R,0.0315X0.0197*%
%ADD46C,0.0200*%
D10*
X7100Y1474D02*
D03*
Y2026D02*
D03*
X9350Y1474D02*
D03*
Y2026D02*
D03*
X11600Y1524D02*
D03*
Y2076D02*
D03*
X11300Y6374D02*
D03*
Y6926D02*
D03*
X8550Y9424D02*
D03*
Y9976D02*
D03*
X9350Y3276D02*
D03*
Y2724D02*
D03*
X11600Y3276D02*
D03*
Y2724D02*
D03*
D11*
X6326Y3550D02*
D03*
X5774D02*
D03*
X5176Y3050D02*
D03*
X4624D02*
D03*
X6276Y1400D02*
D03*
X5724D02*
D03*
X7874Y4100D02*
D03*
X8426D02*
D03*
X10124D02*
D03*
X10676D02*
D03*
X5774Y4200D02*
D03*
X6326D02*
D03*
X8426Y1450D02*
D03*
X7874D02*
D03*
X10676D02*
D03*
X10124D02*
D03*
X12374Y4100D02*
D03*
X12926D02*
D03*
X12876Y1450D02*
D03*
X12324D02*
D03*
X11274Y5126D02*
D03*
X10723D02*
D03*
X11874Y6550D02*
D03*
X12426D02*
D03*
X7976Y7900D02*
D03*
X7424D02*
D03*
D12*
X7995Y9450D02*
D03*
X7405D02*
D03*
X5805Y9450D02*
D03*
X6395D02*
D03*
X8445Y3200D02*
D03*
X7855D02*
D03*
X10695D02*
D03*
X10105D02*
D03*
X12945D02*
D03*
X12355D02*
D03*
X11955Y8200D02*
D03*
X12545D02*
D03*
X11955Y7250D02*
D03*
X12545D02*
D03*
X5105Y8750D02*
D03*
X5695D02*
D03*
X6295Y8750D02*
D03*
X5705D02*
D03*
D21*
X3450Y8900D02*
X3600Y8750D01*
X1100Y1500D02*
Y3900D01*
X300Y4700D02*
X1100Y3900D01*
X300Y4700D02*
Y9550D01*
X3600Y8750D02*
X5105D01*
X1700Y10950D02*
Y11250D01*
X300Y9550D02*
X1700Y10950D01*
X1534Y3110D02*
Y3734D01*
X550Y1378D02*
Y2322D01*
X747Y1378D02*
X1534Y590D01*
X2300Y400D02*
X2350D01*
X2110Y590D02*
X2300Y400D01*
X1534Y590D02*
X2110D01*
X1100Y1500D02*
X1262Y1338D01*
X1603D01*
X8550Y9976D02*
X8976D01*
D22*
X5695Y8359D02*
Y8750D01*
Y8359D02*
X7130Y6924D01*
X7174D01*
X5700Y7650D02*
Y7800D01*
Y7650D02*
X6426Y6924D01*
X6295Y8750D02*
X6700D01*
X6900Y8950D01*
X8100D01*
X11150Y4200D02*
Y5002D01*
X12892Y5126D02*
X13521D01*
X13700Y5305D01*
X12545Y8200D02*
X14100D01*
X14400Y7900D01*
Y4650D02*
Y7900D01*
X13905Y4155D02*
X14400Y4650D01*
X13700Y4155D02*
X13905D01*
X13700Y5305D02*
X13905D01*
X14100Y5500D01*
Y6450D01*
X13995Y6555D02*
X14100Y6450D01*
X13700Y6555D02*
X13995D01*
X13250Y7150D02*
X13255Y7145D01*
X13700D01*
X12426Y5524D02*
Y6550D01*
X11908Y5874D02*
Y6517D01*
X10050Y5799D02*
Y6350D01*
Y5799D02*
X10723Y5126D01*
X10550Y6355D02*
X11280D01*
X11274Y5126D02*
X11908D01*
X9524Y5456D02*
X9794D01*
X10650Y4600D01*
X13700Y4745D02*
Y5305D01*
X12892Y5895D02*
Y6903D01*
X12913Y5895D02*
X13700D01*
X11374Y5874D02*
X11908D01*
X12545Y7250D02*
X12892Y6903D01*
X12450Y5500D02*
X12892D01*
X13645Y4100D02*
X13700Y4155D01*
X12926Y4100D02*
X13645D01*
X10055Y6355D02*
X10550D01*
X2006Y1594D02*
X2450Y1150D01*
X1603Y1594D02*
X2006D01*
X2300Y1850D02*
X2450Y1700D01*
X1603Y1850D02*
X2300D01*
X1603Y2106D02*
X2656D01*
X1603Y2362D02*
X2612D01*
X10650Y9400D02*
X10827Y9223D01*
X11114D01*
X5805Y11055D02*
X6050Y11300D01*
X5805Y9450D02*
Y11055D01*
X6350Y9495D02*
X6395Y9450D01*
X6350Y9495D02*
Y10000D01*
X7350Y9505D02*
X7405Y9450D01*
X7350Y9505D02*
Y10000D01*
X8400Y11750D02*
X8850Y11300D01*
X5750Y6250D02*
X6450Y5550D01*
X7300D02*
X7453Y5397D01*
X7752D01*
X7000Y5200D02*
X7752D01*
X6800Y5400D02*
X7000Y5200D01*
X6800Y5400D02*
Y6176D01*
X7750Y4700D02*
X7752Y4698D01*
Y5003D01*
Y4698D02*
X7900Y4550D01*
Y5750D02*
X8040Y5610D01*
Y5397D02*
Y5610D01*
X6150Y4700D02*
X7750D01*
X3950Y5800D02*
X5050D01*
X6150Y4700D01*
X9894Y4944D02*
X9900Y4950D01*
X9524Y4944D02*
X9894D01*
X8200Y4650D02*
X8750D01*
X8776Y4676D01*
Y4944D01*
X8048Y4802D02*
X8200Y4650D01*
X8048Y4802D02*
Y5003D01*
Y5200D02*
X8400D01*
X5693Y6857D02*
X5700Y6850D01*
X7055Y4200D02*
X7150Y4295D01*
X4497Y4503D02*
X4800Y4200D01*
X5774D01*
X6174Y2874D02*
X6776D01*
X6326Y2898D02*
Y3550D01*
X4624Y3050D02*
X5124Y3550D01*
X5774D01*
X4250Y6250D02*
X5750D01*
X4800Y4700D02*
X5650D01*
X4694Y4806D02*
X4800Y4700D01*
X4694Y4806D02*
Y5243D01*
X2850Y7684D02*
X4116D01*
X4300Y7500D01*
Y6857D02*
Y7500D01*
X2850Y4416D02*
X3916D01*
X4103Y4603D01*
Y5243D01*
X4497Y4503D02*
Y5243D01*
X7150Y3705D02*
X7479D01*
X7874Y4100D01*
Y3220D02*
Y4100D01*
X7855Y3200D02*
X7874Y3220D01*
X7855Y2585D02*
Y3200D01*
X7776Y2506D02*
X7855Y2585D01*
X8445Y2585D02*
Y3200D01*
X8426Y3220D02*
Y4100D01*
X10124Y3220D02*
Y4100D01*
X10105Y3200D02*
X10124Y3220D01*
X10105Y2585D02*
Y3200D01*
X10026Y2506D02*
X10105Y2585D01*
X10695Y2585D02*
Y3200D01*
Y2585D02*
X10774Y2506D01*
X10676Y3220D02*
Y4100D01*
X12945Y2585D02*
Y3200D01*
Y2585D02*
X13024Y2506D01*
X12276D02*
X12355Y2585D01*
X12926Y3220D02*
Y4100D01*
Y3220D02*
X12945Y3200D01*
X6174Y1552D02*
Y2126D01*
Y1552D02*
X6276Y1450D01*
X7075D01*
X7100Y1100D02*
X7300Y900D01*
X9100D01*
X9350Y1150D01*
Y1474D01*
Y2026D02*
X9574Y2250D01*
X10026D01*
X7100Y1474D02*
X7256D01*
X7776Y1994D01*
X7100Y1100D02*
Y1474D01*
X7324Y2250D02*
X7776D01*
X7100Y2026D02*
X7324Y2250D01*
X9350Y1474D02*
X9506D01*
X10026Y1994D01*
Y2250D02*
X10450D01*
Y1776D02*
Y2250D01*
X10124Y1450D02*
X10450Y1776D01*
X7776Y2250D02*
X8200D01*
Y1776D02*
Y2250D01*
X7874Y1450D02*
X8200Y1776D01*
X9100Y900D02*
X11350D01*
X11600Y1150D01*
Y1524D01*
X11774Y2250D02*
X12276D01*
X11600Y2076D02*
X11774Y2250D01*
X11600Y1524D02*
X11806D01*
X12276Y1994D01*
Y2250D02*
X12700D01*
Y1826D02*
Y2250D01*
X12324Y1450D02*
X12700Y1826D01*
X8650Y1450D02*
X8900Y1700D01*
X8426Y1450D02*
X8500D01*
X8650D01*
X8500D02*
Y1970D01*
X10850Y1450D02*
X11150Y1750D01*
X10676Y1450D02*
X10774D01*
X10850D01*
X10774D02*
Y1994D01*
X13150Y1450D02*
X13450Y1750D01*
X12876Y1450D02*
X13024D01*
X13150D01*
X13024D02*
Y1994D01*
X5426Y2500D02*
X6100D01*
X4200Y3050D02*
X4624D01*
X5352Y2874D02*
X6174D01*
X5176Y3050D02*
X5352Y2874D01*
X13024Y2506D02*
X14194D01*
X14600Y2100D01*
Y750D02*
Y2100D01*
X13500Y900D02*
X13800Y1200D01*
Y2050D01*
X11350Y900D02*
X13500D01*
X4103Y6397D02*
X4250Y6250D01*
X4103Y6397D02*
Y6857D01*
X2656Y2106D02*
X3000Y2450D01*
X3800D01*
X2612Y2362D02*
X2750Y2500D01*
Y3250D01*
X3000Y3500D01*
X3700D01*
X3850Y3350D01*
Y2800D02*
Y3350D01*
Y2800D02*
X4350Y2300D01*
X4300Y4150D02*
Y5243D01*
X4497Y6857D02*
Y7903D01*
X4300Y8100D02*
X4497Y7903D01*
X3607Y6857D02*
X3906D01*
Y5756D02*
X3950Y5800D01*
X3906Y5243D02*
Y5756D01*
X10632Y9931D02*
X11114D01*
X11586D02*
X12069D01*
X10668Y8868D02*
X11114D01*
X11586Y9223D02*
X12023D01*
X4694Y6857D02*
X5693D01*
X7976Y7474D02*
Y7900D01*
X13700Y750D02*
X14600D01*
X6350Y400D02*
X6550Y200D01*
X13150D01*
X13700Y750D01*
X11955Y7250D02*
Y8200D01*
X11345D02*
X11955D01*
X11300Y6926D02*
Y7655D01*
X10570Y6926D02*
X11300D01*
X10550Y6945D02*
X10570Y6926D01*
X9895Y6945D02*
X10550D01*
X9132Y2506D02*
X9350Y2724D01*
X8524Y2506D02*
X9132D01*
X9350Y4495D02*
X9729D01*
X10124Y4100D01*
X9350Y3276D02*
Y3905D01*
X11381Y2506D02*
X11600Y2724D01*
X10774Y2506D02*
X11381D01*
X11600Y3276D02*
Y3905D01*
Y4495D02*
X11979D01*
X12374Y4100D01*
Y2604D02*
Y4100D01*
X6905Y3195D02*
X7150D01*
X6750Y3350D02*
X6905Y3195D01*
X6750Y3350D02*
Y4200D01*
X6326D02*
X6750D01*
X7055D01*
X7105Y2605D02*
X7150D01*
X6626Y2126D02*
X7105Y2605D01*
X6174Y2126D02*
X6626D01*
X1850Y4950D02*
Y8000D01*
X5600Y11750D01*
X8400D01*
D23*
X12069Y9931D02*
X12350Y9650D01*
Y9000D02*
Y9650D01*
X10555Y8600D02*
X10557Y8598D01*
X11948D02*
X12350Y9000D01*
X10557Y8598D02*
X11948D01*
X8962Y7288D02*
X9250Y7000D01*
X9550D01*
X9900Y7350D01*
X5250Y1400D02*
X5724D01*
X9650Y6700D02*
X9895Y6945D01*
X7900Y6700D02*
X9650D01*
X8556Y7294D02*
X8800Y7050D01*
X8556Y7294D02*
Y7818D01*
X7700Y8350D02*
X7744Y8306D01*
X6800Y6176D02*
X8056D01*
X8776Y5456D01*
X9100Y5200D02*
X9524D01*
X9100D02*
Y5700D01*
X8400Y6400D02*
X9100Y5700D01*
X7650Y6400D02*
X8400D01*
X7600Y6450D02*
X7650Y6400D01*
X6550Y7900D02*
X6550Y7900D01*
X7424D01*
X7950Y11300D02*
X7995Y11255D01*
Y9450D02*
Y11255D01*
X8179Y8103D02*
X8468D01*
X7976Y7900D02*
X8179Y8103D01*
X7750Y8300D02*
X8468D01*
X8153Y8497D02*
X8468D01*
X8000Y8650D02*
X8153Y8497D01*
X7300Y8650D02*
X8000D01*
X7150Y8500D02*
X7300Y8650D01*
X8268Y8782D02*
X8556D01*
X8100Y8950D02*
X8268Y8782D01*
X8556D02*
Y9418D01*
X9147Y8782D02*
Y9430D01*
X9648Y9931D02*
X10632D01*
X9147Y9430D02*
X9648Y9931D01*
X9344Y8782D02*
Y9044D01*
X9500Y9200D01*
X9432Y8497D02*
X9497D01*
X9600Y8600D01*
X10555D01*
X9432Y8300D02*
X9800D01*
X9432Y8103D02*
X9603D01*
X9800Y8300D01*
X9768Y7818D02*
X10250Y8300D01*
X9344Y7818D02*
X9768D01*
X9147D02*
Y8103D01*
X9050Y8200D02*
X9147Y8103D01*
X8850Y8200D02*
X9050D01*
X8759Y8109D02*
X8850Y8200D01*
X8759Y7818D02*
Y8109D01*
X9147Y7453D02*
Y7818D01*
Y7453D02*
X9300Y7300D01*
X8950D02*
Y7818D01*
X8962Y7288D02*
Y7300D01*
D25*
X550Y3100D02*
D03*
Y600D02*
D03*
D26*
X3300Y2950D02*
D03*
X14600Y750D02*
D03*
D27*
X3300Y850D02*
D03*
Y1850D02*
D03*
D28*
X2850Y7684D02*
D03*
Y4416D02*
D03*
D29*
X1850Y4950D02*
D03*
X1534Y3734D02*
D03*
X1826Y8574D02*
D03*
X1250Y6050D02*
D03*
Y6700D02*
D03*
X700Y6400D02*
D03*
Y7000D02*
D03*
Y7550D02*
D03*
Y8100D02*
D03*
X900Y9250D02*
D03*
X11150Y4200D02*
D03*
X13250Y7150D02*
D03*
X11374Y5874D02*
D03*
X12450Y5500D02*
D03*
X2350Y400D02*
D03*
X2450Y1150D02*
D03*
Y1700D02*
D03*
X2750Y3250D02*
D03*
X9500Y9200D02*
D03*
X10650Y9400D02*
D03*
X7350Y10000D02*
D03*
X6350D02*
D03*
X5500Y10550D02*
D03*
X6050Y11300D02*
D03*
X8850D02*
D03*
X5700Y7800D02*
D03*
X6450Y5550D02*
D03*
X7300D02*
D03*
X7900Y5750D02*
D03*
Y4550D02*
D03*
X10650Y4600D02*
D03*
X9900Y4950D02*
D03*
X8400Y5200D02*
D03*
X5650Y4700D02*
D03*
X5700Y6850D02*
D03*
X15200Y8100D02*
D03*
Y8600D02*
D03*
Y9100D02*
D03*
Y9600D02*
D03*
Y10100D02*
D03*
Y10600D02*
D03*
X14500Y10400D02*
D03*
X15200Y5100D02*
D03*
Y4600D02*
D03*
Y4100D02*
D03*
Y3600D02*
D03*
Y3100D02*
D03*
Y2600D02*
D03*
Y2100D02*
D03*
X10450Y2250D02*
D03*
X8200D02*
D03*
X12700D02*
D03*
X8900Y1700D02*
D03*
X11150Y1750D02*
D03*
X13450D02*
D03*
X6100Y2500D02*
D03*
X4200Y3050D02*
D03*
X10050Y6350D02*
D03*
X13800Y2050D02*
D03*
X14050Y2800D02*
D03*
Y9800D02*
D03*
X13850Y400D02*
D03*
X6350D02*
D03*
X6776Y2874D02*
D03*
X4350Y2300D02*
D03*
X3800Y2450D02*
D03*
X4600Y9800D02*
D03*
X4300Y4150D02*
D03*
Y8100D02*
D03*
X3607Y6857D02*
D03*
X5850Y400D02*
D03*
X12800Y11350D02*
D03*
X9850Y11350D02*
D03*
X10632Y9931D02*
D03*
X12069D02*
D03*
X10668Y8868D02*
D03*
X12023Y9223D02*
D03*
X7976Y7474D02*
D03*
X9800Y8300D02*
D03*
X9400Y7300D02*
D03*
X9900Y7350D02*
D03*
X5250Y1400D02*
D03*
X7900Y6700D02*
D03*
X8800Y7050D02*
D03*
X7700Y8350D02*
D03*
X7150Y8500D02*
D03*
X7600Y6450D02*
D03*
X6550Y7900D02*
D03*
X8100Y8950D02*
D03*
X13350Y11300D02*
D03*
X15200Y7550D02*
D03*
Y7050D02*
D03*
Y6450D02*
D03*
X10250Y8300D02*
D03*
X6550Y11300D02*
D03*
X7950D02*
D03*
X8976Y9976D02*
D03*
D30*
X1700Y11250D02*
D03*
D31*
X3450Y8900D02*
D03*
Y10250D02*
D03*
D32*
X11300Y7655D02*
D03*
Y8245D02*
D03*
X7150Y3705D02*
D03*
Y4295D02*
D03*
X9350Y4495D02*
D03*
Y3905D02*
D03*
X11600Y4495D02*
D03*
Y3905D02*
D03*
X13700Y5305D02*
D03*
Y5895D02*
D03*
X10550Y6945D02*
D03*
Y6355D02*
D03*
X13700Y6555D02*
D03*
Y7145D02*
D03*
X7150Y2605D02*
D03*
Y3195D02*
D03*
X4050Y1055D02*
D03*
Y1645D02*
D03*
X13700Y4745D02*
D03*
Y4155D02*
D03*
D33*
X1603Y1338D02*
D03*
Y1594D02*
D03*
Y2362D02*
D03*
Y2106D02*
D03*
Y1850D02*
D03*
D34*
X550Y2322D02*
D03*
Y1378D02*
D03*
D35*
X1534Y3110D02*
D03*
Y590D02*
D03*
D36*
X6426Y6924D02*
D03*
X7174D02*
D03*
X6800Y6176D02*
D03*
D37*
X6174Y2874D02*
D03*
Y2126D02*
D03*
X5426Y2500D02*
D03*
D38*
X3906Y6857D02*
D03*
X4103D02*
D03*
X4300D02*
D03*
X4497D02*
D03*
X4694D02*
D03*
X3906Y5243D02*
D03*
X4103D02*
D03*
X4300D02*
D03*
X4497D02*
D03*
X4694D02*
D03*
D39*
X8524Y1994D02*
D03*
Y2506D02*
D03*
X7776D02*
D03*
Y2250D02*
D03*
Y1994D02*
D03*
X10774D02*
D03*
Y2506D02*
D03*
X10026D02*
D03*
Y2250D02*
D03*
Y1994D02*
D03*
X13024D02*
D03*
Y2506D02*
D03*
X12276D02*
D03*
Y2250D02*
D03*
Y1994D02*
D03*
X8776Y5456D02*
D03*
Y4944D02*
D03*
X9524D02*
D03*
Y5200D02*
D03*
Y5456D02*
D03*
D40*
X11908Y5874D02*
D03*
Y5126D02*
D03*
X12892D02*
D03*
Y5500D02*
D03*
Y5874D02*
D03*
D41*
X8040Y5397D02*
D03*
D42*
X8048Y5200D02*
D03*
Y5003D02*
D03*
X7752D02*
D03*
Y5200D02*
D03*
Y5397D02*
D03*
D43*
X8468Y8497D02*
D03*
Y8300D02*
D03*
Y8103D02*
D03*
X9432D02*
D03*
Y8300D02*
D03*
Y8497D02*
D03*
D44*
X8556Y7818D02*
D03*
X8753D02*
D03*
X8950D02*
D03*
X9147D02*
D03*
X9344D02*
D03*
Y8782D02*
D03*
X9147D02*
D03*
X8950D02*
D03*
X8753D02*
D03*
X8556D02*
D03*
D45*
X11114Y9931D02*
D03*
Y9577D02*
D03*
Y9223D02*
D03*
Y8868D02*
D03*
X11586D02*
D03*
Y9223D02*
D03*
Y9577D02*
D03*
Y9931D02*
D03*
D46*
X3300Y850D02*
X3845D01*
X4050Y1055D01*
X3300Y1850D02*
X3845D01*
X4050Y1645D01*
M02*
