%FSLAX24Y24*%
%MOIN*%
G70*
G01*
G75*
G04 Layer_Physical_Order=1*
G04 Layer_Color=255*
%ADD10C,0.0177*%
%ADD11C,0.0100*%
%ADD12C,0.0100*%
%ADD13R,0.0551X0.0453*%
%ADD14O,0.0177X0.0532*%
%ADD15R,0.0343X0.0343*%
%ADD16R,0.0157X0.0335*%
%ADD17O,0.0315X0.0079*%
%ADD18O,0.0079X0.0315*%
%ADD19R,0.2598X0.2598*%
%ADD20O,0.0295X0.0079*%
%ADD21R,0.1417X0.1417*%
%ADD22O,0.0079X0.0295*%
%ADD23O,0.0098X0.0276*%
%ADD24O,0.0276X0.0098*%
%ADD25R,0.0118X0.0193*%
%ADD26R,0.0118X0.0205*%
%ADD27R,0.0138X0.0217*%
%ADD28R,0.0157X0.0532*%
%ADD29R,0.0748X0.0630*%
%ADD30R,0.0630X0.0551*%
%ADD31R,0.0335X0.0374*%
%ADD32R,0.0335X0.0118*%
%ADD33R,0.0217X0.0098*%
%ADD34R,0.0197X0.0354*%
%ADD35R,0.0177X0.0177*%
%ADD36R,0.0157X0.0236*%
%ADD37R,0.0138X0.0157*%
%ADD38R,0.0335X0.0157*%
%ADD39R,0.0236X0.0157*%
%ADD40R,0.0354X0.0197*%
%ADD41C,0.0080*%
%ADD42C,0.0200*%
%ADD43C,0.1260*%
%ADD44C,0.0630*%
%ADD45C,0.0260*%
%ADD46C,0.0300*%
%ADD47C,0.0340*%
%ADD48C,0.0500*%
%ADD49C,0.0240*%
%ADD50C,0.0290*%
G36*
X-5500Y6388D02*
X-4599D01*
X-4590Y6358D01*
X-4636Y6327D01*
X-4678Y6264D01*
X-4693Y6190D01*
X-4678Y6116D01*
X-4636Y6053D01*
X-4611Y6036D01*
Y5362D01*
X-4641Y5350D01*
X-4902Y5611D01*
X-4896Y5640D01*
X-4911Y5714D01*
X-4936Y5752D01*
X-4920Y5782D01*
X-4734D01*
Y5960D01*
X-5092D01*
Y5858D01*
X-5098Y5855D01*
X-5128Y5874D01*
Y6178D01*
X-5406D01*
Y6092D01*
X-5484D01*
Y6158D01*
X-5762D01*
Y5802D01*
X-5616D01*
X-5599Y5783D01*
X-5602Y5750D01*
X-5607Y5747D01*
X-5624Y5722D01*
X-5704D01*
Y5758D01*
X-5770D01*
X-5798Y5762D01*
Y5940D01*
X-6156D01*
Y5798D01*
X-6157D01*
Y5620D01*
X-6018D01*
Y5735D01*
X-6012Y5740D01*
X-5982Y5726D01*
Y5411D01*
X-6001Y5400D01*
X-6011Y5399D01*
X-6018Y5406D01*
Y5540D01*
X-6197D01*
Y5580D01*
X-6237D01*
Y5798D01*
X-6309D01*
X-6327Y5822D01*
X-6322Y5840D01*
X-6239Y5994D01*
X-6184Y6061D01*
X-6156Y6051D01*
Y6020D01*
X-5798D01*
Y6198D01*
X-6000D01*
X-6010Y6226D01*
X-5994Y6239D01*
X-5840Y6322D01*
X-5673Y6372D01*
X-5505Y6389D01*
X-5500Y6388D01*
D02*
G37*
G36*
X-6145Y1992D02*
X-6167Y1977D01*
X-6209Y1914D01*
X-6224Y1840D01*
X-6209Y1766D01*
X-6167Y1703D01*
X-6104Y1661D01*
X-6030Y1646D01*
X-5956Y1661D01*
X-5908Y1693D01*
X-5878Y1677D01*
Y831D01*
X-6360Y348D01*
X-6388Y360D01*
Y1120D01*
X-6361Y1134D01*
X-6330Y1113D01*
X-6280Y1103D01*
Y1330D01*
Y1557D01*
X-6330Y1547D01*
X-6361Y1526D01*
X-6388Y1540D01*
Y2022D01*
X-6154D01*
X-6145Y1992D01*
D02*
G37*
G36*
X-484Y-5371D02*
X-487Y-5373D01*
X-529Y-5436D01*
X-544Y-5510D01*
X-529Y-5584D01*
X-487Y-5647D01*
X-460Y-5665D01*
X-469Y-5695D01*
X-906D01*
Y-5853D01*
X-936Y-5863D01*
X-983Y-5803D01*
X-1061Y-5742D01*
X-1152Y-5705D01*
X-1250Y-5692D01*
X-1348Y-5705D01*
X-1439Y-5742D01*
X-1517Y-5803D01*
X-1578Y-5881D01*
X-1615Y-5972D01*
X-1628Y-6070D01*
X-1615Y-6168D01*
X-1578Y-6259D01*
X-1517Y-6337D01*
X-1489Y-6359D01*
X-1498Y-6388D01*
X-1757D01*
X-1771Y-6361D01*
X-1743Y-6320D01*
X-1733Y-6270D01*
X-2187D01*
X-2177Y-6320D01*
X-2149Y-6361D01*
X-2163Y-6388D01*
X-2304D01*
X-2317Y-6358D01*
X-2281Y-6304D01*
X-2266Y-6230D01*
X-2281Y-6158D01*
Y-5928D01*
X-2254D01*
Y-5862D01*
X-2151D01*
X-2138Y-5875D01*
Y-6033D01*
X-2131D01*
X-2122Y-6062D01*
X-2126Y-6064D01*
X-2177Y-6140D01*
X-2187Y-6190D01*
X-1733D01*
X-1743Y-6140D01*
X-1794Y-6064D01*
X-1798Y-6062D01*
X-1789Y-6033D01*
X-1782D01*
Y-5756D01*
X-1940D01*
X-1989Y-5706D01*
X-1978Y-5679D01*
X-1782D01*
Y-5652D01*
X-968D01*
X-968Y-5652D01*
X-925Y-5644D01*
X-889Y-5619D01*
X-612Y-5343D01*
X-493D01*
X-484Y-5371D01*
D02*
G37*
G36*
X2090Y5642D02*
X2073Y5616D01*
X2064Y5570D01*
X2280D01*
Y5490D01*
X2064D01*
X2073Y5444D01*
X2121Y5371D01*
X2143Y5357D01*
X2134Y5328D01*
X2038D01*
Y5210D01*
X2037Y5208D01*
X2026Y5150D01*
Y4686D01*
X2014D01*
Y4650D01*
X1984Y4635D01*
X1916Y4681D01*
X1860Y4692D01*
Y4450D01*
X1820D01*
Y4410D01*
X1578D01*
X1589Y4354D01*
X1613Y4318D01*
X1597Y4288D01*
X1338D01*
Y4170D01*
X1337Y4168D01*
X1326Y4110D01*
Y2367D01*
X1325D01*
X1339Y2187D01*
X1382Y2011D01*
X1451Y1844D01*
X1545Y1690D01*
X1663Y1552D01*
X1663Y1552D01*
X1663Y1552D01*
X1663Y1552D01*
X3028Y188D01*
X3028Y188D01*
X3028Y187D01*
X3165Y70D01*
X3319Y-25D01*
X3486Y-94D01*
X3662Y-136D01*
X3842Y-150D01*
Y-150D01*
X4637D01*
Y-229D01*
X5099D01*
Y233D01*
X4637D01*
Y153D01*
X3842D01*
X3836Y152D01*
X3676Y168D01*
X3517Y216D01*
X3370Y295D01*
X3246Y396D01*
X3242Y402D01*
X1877Y1767D01*
X1871Y1771D01*
X1770Y1894D01*
X1691Y2042D01*
X1643Y2201D01*
X1627Y2360D01*
X1629Y2367D01*
Y3852D01*
X1659Y3868D01*
X1710Y3833D01*
X1760Y3823D01*
Y4050D01*
X1840D01*
Y3823D01*
X1890Y3833D01*
X1966Y3884D01*
X2017Y3960D01*
X2035Y4050D01*
X2034Y4051D01*
X2053Y4074D01*
X2131D01*
X2152Y4052D01*
X2152Y4052D01*
X2298Y3932D01*
X2464Y3843D01*
X2645Y3789D01*
X2832Y3770D01*
Y3773D01*
X3048D01*
X3062Y3746D01*
X3059Y3742D01*
X3057Y3728D01*
X3299D01*
Y3648D01*
X3057D01*
X3059Y3634D01*
X3090Y3587D01*
X3098Y3582D01*
X3105Y3541D01*
X3097Y3530D01*
X3089Y3491D01*
X3097Y3452D01*
X3099Y3450D01*
X3075Y3426D01*
X3048Y3416D01*
Y3416D01*
X3048Y3416D01*
X2692D01*
Y3382D01*
X2402D01*
X2378Y3418D01*
X2333Y3448D01*
X2330Y3452D01*
X2326Y3488D01*
X2371Y3554D01*
X2382Y3610D01*
X1898D01*
X1909Y3554D01*
X1963Y3473D01*
X2044Y3419D01*
X2052Y3418D01*
X2064Y3390D01*
X2037Y3350D01*
X2021Y3270D01*
X2037Y3190D01*
X2082Y3122D01*
X2150Y3077D01*
X2230Y3061D01*
X2310Y3077D01*
X2378Y3122D01*
X2402Y3158D01*
X2692D01*
Y3138D01*
X3048D01*
Y3165D01*
X3085D01*
X3085Y3165D01*
X3128Y3174D01*
X3164Y3198D01*
X3356Y3390D01*
X3407D01*
X3446Y3397D01*
X3454Y3403D01*
X3484Y3387D01*
Y3371D01*
X3500D01*
X3516Y3341D01*
X3510Y3333D01*
X3503Y3294D01*
Y3243D01*
X3116Y2856D01*
X3088Y2868D01*
Y2883D01*
X2910D01*
Y2744D01*
X3001D01*
X3020Y2721D01*
X3018Y2712D01*
X3018Y2712D01*
Y2646D01*
X2952D01*
Y2368D01*
X3246D01*
Y2332D01*
X3170D01*
Y2153D01*
Y1974D01*
X3246D01*
Y1357D01*
X3220Y1340D01*
X3180Y1280D01*
X3166Y1210D01*
X3180Y1140D01*
X3220Y1080D01*
X3280Y1040D01*
X3350Y1026D01*
X3420Y1040D01*
X3480Y1080D01*
X3520Y1140D01*
X3534Y1210D01*
X3520Y1280D01*
X3480Y1340D01*
X3470Y1346D01*
Y2116D01*
X3498Y2128D01*
X3711Y1914D01*
Y1479D01*
X4095D01*
Y1378D01*
X4068D01*
Y1022D01*
X4346D01*
Y1378D01*
X4319D01*
Y1479D01*
X4383D01*
Y2051D01*
X4405Y2069D01*
X4423D01*
Y2355D01*
X3671D01*
Y2332D01*
X3641Y2317D01*
X3630Y2325D01*
Y2473D01*
X3641Y2481D01*
X3671Y2466D01*
Y2435D01*
X4007D01*
Y2721D01*
X3905D01*
X3894Y2749D01*
X4077Y2932D01*
X4083Y2940D01*
X4112D01*
X4115Y2936D01*
X4302Y2749D01*
X4291Y2721D01*
X4087D01*
Y2435D01*
X4423D01*
Y2590D01*
X4450Y2601D01*
X4577Y2474D01*
Y2109D01*
X4555Y2091D01*
X4537D01*
Y1805D01*
X4913D01*
Y1725D01*
X4537D01*
Y1439D01*
X4644D01*
X4674Y1438D01*
X4674Y1409D01*
Y1260D01*
X5032D01*
Y1409D01*
X5032Y1438D01*
X5061Y1439D01*
X5208D01*
Y1398D01*
X5068D01*
Y1042D01*
X5346D01*
Y1200D01*
X5394Y1248D01*
X5414Y1243D01*
X5424Y1237D01*
Y1160D01*
X5563D01*
Y1338D01*
X5432D01*
Y1647D01*
X5460Y1659D01*
X5572Y1547D01*
Y1374D01*
X5724D01*
X5728Y1368D01*
X5712Y1338D01*
X5643D01*
Y1160D01*
X5782D01*
Y1270D01*
X5812Y1286D01*
X5818Y1281D01*
Y942D01*
X6096D01*
Y1298D01*
X6059D01*
Y1306D01*
X6051Y1345D01*
X6029Y1378D01*
X5928Y1479D01*
Y1520D01*
X5958Y1530D01*
X6016Y1491D01*
X6090Y1476D01*
X6164Y1491D01*
X6227Y1533D01*
X6269Y1596D01*
X6284Y1670D01*
X6278Y1699D01*
X6329Y1751D01*
X6329Y1751D01*
X6354Y1787D01*
X6358Y1808D01*
X6388Y1805D01*
Y-5500D01*
X6389Y-5505D01*
X6372Y-5673D01*
X6322Y-5840D01*
X6239Y-5994D01*
X6129Y-6129D01*
X5994Y-6239D01*
X5840Y-6322D01*
X5673Y-6372D01*
X5505Y-6389D01*
X5500Y-6388D01*
X1498D01*
X1489Y-6359D01*
X1517Y-6337D01*
X1578Y-6259D01*
X1615Y-6168D01*
X1628Y-6070D01*
X1615Y-5972D01*
X1578Y-5881D01*
X1517Y-5803D01*
X1439Y-5742D01*
X1348Y-5705D01*
X1250Y-5692D01*
X1152Y-5705D01*
X1061Y-5742D01*
X983Y-5803D01*
X936Y-5863D01*
X906Y-5853D01*
Y-5695D01*
X239D01*
X230Y-5665D01*
X257Y-5647D01*
X299Y-5584D01*
X314Y-5510D01*
X299Y-5436D01*
X257Y-5373D01*
X254Y-5371D01*
X263Y-5343D01*
X333D01*
Y-5383D01*
X472D01*
Y-5017D01*
Y-4651D01*
X333D01*
Y-4691D01*
X-349D01*
Y-4491D01*
X-331Y-4464D01*
X-316Y-4390D01*
X-331Y-4316D01*
X-373Y-4253D01*
X-436Y-4211D01*
X-510Y-4196D01*
X-584Y-4211D01*
X-647Y-4253D01*
X-689Y-4316D01*
X-704Y-4390D01*
X-689Y-4464D01*
X-675Y-4485D01*
Y-5017D01*
X-663Y-5076D01*
X-857Y-5271D01*
X-885Y-5259D01*
Y-4750D01*
X-1635D01*
Y-5421D01*
X-1662Y-5428D01*
X-1782D01*
Y-5401D01*
X-1940D01*
X-2231Y-5111D01*
X-2254Y-5095D01*
Y-5012D01*
X-2532D01*
Y-5368D01*
X-2290D01*
X-2138Y-5520D01*
Y-5638D01*
X-2254D01*
Y-5572D01*
X-2532D01*
Y-5928D01*
X-2505D01*
Y-6045D01*
X-2534Y-6051D01*
X-2597Y-6093D01*
X-2639Y-6156D01*
X-2654Y-6230D01*
X-2639Y-6304D01*
X-2603Y-6358D01*
X-2616Y-6388D01*
X-5500D01*
X-5505Y-6389D01*
X-5673Y-6372D01*
X-5840Y-6322D01*
X-5994Y-6239D01*
X-6129Y-6129D01*
X-6239Y-5994D01*
X-6322Y-5840D01*
X-6372Y-5673D01*
X-6389Y-5505D01*
X-6388Y-5500D01*
Y-1586D01*
X-6360Y-1574D01*
X-6165Y-1770D01*
Y-1977D01*
X-5949D01*
Y-2017D01*
X-5810D01*
Y-1750D01*
Y-1483D01*
X-5855D01*
X-5866Y-1455D01*
X-5803Y-1391D01*
X-5086D01*
Y-1457D01*
X-4846D01*
X-4833Y-1487D01*
X-4918Y-1572D01*
X-5076D01*
Y-1638D01*
X-5375D01*
Y-1523D01*
X-5591D01*
Y-1483D01*
X-5730D01*
Y-1750D01*
Y-2017D01*
X-5591D01*
Y-1977D01*
X-5486D01*
X-5477Y-1987D01*
X-5011D01*
X-5017Y-1958D01*
X-4994Y-1928D01*
X-4798D01*
Y-1770D01*
X-4749Y-1721D01*
X-4722Y-1732D01*
Y-1928D01*
X-4695D01*
Y-2072D01*
X-4722D01*
Y-2428D01*
X-4695D01*
Y-2601D01*
X-4743Y-2634D01*
X-4773Y-2625D01*
X-4780Y-2619D01*
Y-2295D01*
X-4780Y-2295D01*
X-4788Y-2252D01*
X-4798Y-2237D01*
Y-2072D01*
X-4988D01*
X-4992Y-2067D01*
X-5464D01*
X-5454Y-2117D01*
X-5429Y-2154D01*
X-5443Y-2181D01*
X-5882D01*
Y-2154D01*
X-6238D01*
Y-2432D01*
X-5882D01*
Y-2405D01*
X-5809D01*
X-5800Y-2435D01*
X-5827Y-2453D01*
X-5856Y-2497D01*
X-5882Y-2508D01*
X-5882D01*
X-5882Y-2508D01*
X-5882Y-2508D01*
X-6238D01*
Y-2786D01*
X-6172D01*
Y-2927D01*
X-6238D01*
Y-3204D01*
X-5882D01*
Y-2927D01*
X-5948D01*
Y-2786D01*
X-5882D01*
Y-2699D01*
X-5852Y-2690D01*
X-5827Y-2727D01*
X-5764Y-2769D01*
X-5690Y-2784D01*
X-5626Y-2771D01*
X-5596Y-2789D01*
Y-2878D01*
X-5404D01*
Y-2958D01*
X-5596D01*
Y-3095D01*
X-5581Y-3169D01*
X-5540Y-3231D01*
X-5477Y-3273D01*
X-5451Y-3278D01*
X-5454Y-3308D01*
X-5882D01*
Y-3281D01*
X-6238D01*
Y-3559D01*
X-5973D01*
X-5961Y-3581D01*
X-5960Y-3589D01*
X-5974Y-3660D01*
X-5959Y-3734D01*
X-5917Y-3797D01*
X-5874Y-3826D01*
X-5870Y-3862D01*
X-5876Y-3868D01*
X-5908Y-3865D01*
X-5923Y-3843D01*
X-5986Y-3801D01*
X-6060Y-3786D01*
X-6134Y-3801D01*
X-6197Y-3843D01*
X-6239Y-3906D01*
X-6254Y-3980D01*
X-6239Y-4054D01*
X-6197Y-4117D01*
X-6134Y-4159D01*
X-6060Y-4174D01*
X-5986Y-4159D01*
X-5935Y-4125D01*
X-5897Y-4127D01*
X-5877Y-4157D01*
X-5822Y-4194D01*
Y-4274D01*
X-5888D01*
X-5888Y-4274D01*
Y-4274D01*
X-5917Y-4283D01*
X-5923Y-4273D01*
X-5986Y-4231D01*
X-6060Y-4216D01*
X-6134Y-4231D01*
X-6197Y-4273D01*
X-6239Y-4336D01*
X-6254Y-4410D01*
X-6239Y-4484D01*
X-6197Y-4547D01*
X-6134Y-4589D01*
X-6060Y-4604D01*
X-5986Y-4589D01*
X-5923Y-4547D01*
X-5917Y-4538D01*
X-5888Y-4546D01*
Y-4552D01*
X-5532D01*
Y-4274D01*
X-5598D01*
Y-4149D01*
X-5578Y-4119D01*
X-5546Y-4126D01*
X-5544Y-4137D01*
X-5511Y-4186D01*
X-5462Y-4219D01*
X-5404Y-4231D01*
X-5346Y-4219D01*
X-5297Y-4186D01*
X-5267Y-4195D01*
X-5260Y-4201D01*
Y-4292D01*
X-5260Y-4292D01*
X-5252Y-4335D01*
X-5227Y-4371D01*
X-5129Y-4469D01*
X-5129Y-4469D01*
X-5093Y-4494D01*
X-5050Y-4502D01*
X-4232D01*
X-4231Y-4502D01*
X-4189Y-4494D01*
X-4152Y-4469D01*
X-3911Y-4228D01*
X-3753D01*
Y-3872D01*
X-3779D01*
Y-3686D01*
X-3779Y-3686D01*
X-3788Y-3643D01*
X-3812Y-3607D01*
Y-3448D01*
X-4168D01*
Y-3507D01*
X-4198Y-3523D01*
X-4246Y-3491D01*
X-4291Y-3482D01*
X-4301Y-3449D01*
X-4198Y-3347D01*
X-4168Y-3349D01*
Y-3372D01*
X-3812D01*
Y-3094D01*
X-4168D01*
Y-3121D01*
X-4243D01*
X-4286Y-3129D01*
X-4322Y-3154D01*
X-4322Y-3154D01*
X-4476Y-3308D01*
X-4700D01*
X-4700Y-3308D01*
X-4700Y-3308D01*
X-5353D01*
X-5356Y-3278D01*
X-5330Y-3273D01*
X-5268Y-3231D01*
X-5251Y-3205D01*
X-5206Y-3235D01*
X-5148Y-3247D01*
X-5090Y-3235D01*
X-5041Y-3202D01*
X-5035Y-3193D01*
X-5005D01*
X-4999Y-3202D01*
X-4950Y-3235D01*
X-4892Y-3247D01*
X-4834Y-3235D01*
X-4785Y-3202D01*
X-4779Y-3193D01*
X-4749D01*
X-4743Y-3202D01*
X-4694Y-3235D01*
X-4636Y-3247D01*
X-4578Y-3235D01*
X-4529Y-3202D01*
X-4496Y-3153D01*
X-4485Y-3095D01*
Y-2925D01*
X-4242Y-2682D01*
X-4066D01*
Y-2748D01*
X-3788D01*
Y-2392D01*
X-4066D01*
Y-2458D01*
X-4288D01*
X-4288Y-2458D01*
X-4331Y-2466D01*
X-4368Y-2491D01*
X-4368Y-2491D01*
X-4443Y-2566D01*
X-4471Y-2555D01*
Y-2428D01*
X-4444D01*
Y-2072D01*
X-4471D01*
Y-1928D01*
X-4444D01*
Y-1572D01*
X-4561D01*
X-4573Y-1544D01*
X-4514Y-1485D01*
X-4514Y-1485D01*
X-4495Y-1457D01*
X-4454D01*
Y-1101D01*
X-4612D01*
X-4708Y-1006D01*
X-4696Y-978D01*
X-4643D01*
Y-800D01*
X-4782D01*
Y-864D01*
X-4812Y-880D01*
X-4818Y-876D01*
Y-582D01*
X-5058D01*
X-5070Y-552D01*
X-4967Y-448D01*
X-4808D01*
Y-122D01*
X-4778Y-110D01*
X-4732Y-157D01*
Y-448D01*
X-4454D01*
Y-92D01*
X-4491D01*
X-4514Y-58D01*
X-4514Y-58D01*
X-4661Y89D01*
X-4697Y114D01*
X-4740Y122D01*
X-4740Y122D01*
X-5018D01*
X-5044Y132D01*
X-5044Y152D01*
Y310D01*
X-5402D01*
Y132D01*
X-5344D01*
X-5335Y102D01*
X-5354Y89D01*
X-5354Y89D01*
X-5396Y47D01*
X-5633D01*
Y-427D01*
X-5633Y-427D01*
X-5633D01*
X-5640Y-456D01*
X-5651Y-463D01*
X-5693Y-526D01*
X-5708Y-600D01*
X-5693Y-674D01*
X-5651Y-737D01*
X-5640Y-745D01*
X-5649Y-775D01*
X-5653D01*
Y-1167D01*
X-5849D01*
X-5864Y-1170D01*
X-5887Y-1151D01*
Y-775D01*
X-5914D01*
Y-734D01*
X-5903Y-727D01*
X-5861Y-664D01*
X-5846Y-590D01*
X-5861Y-516D01*
X-5902Y-455D01*
X-5907Y-427D01*
X-5907Y-427D01*
X-5907Y-427D01*
Y-138D01*
X-5597Y172D01*
X-5438D01*
Y528D01*
X-5465D01*
Y662D01*
X-5438D01*
Y1018D01*
X-5465D01*
Y1082D01*
X-5439Y1096D01*
X-5414Y1083D01*
X-5402Y1058D01*
Y1058D01*
X-5402Y1058D01*
X-5402Y1058D01*
Y880D01*
X-5223D01*
Y840D01*
X-5183D01*
Y622D01*
X-5044D01*
Y824D01*
X-5014Y831D01*
X-4954Y791D01*
X-4880Y776D01*
X-4806Y791D01*
X-4743Y833D01*
X-4711Y881D01*
X-4679Y876D01*
X-4637Y813D01*
X-4574Y771D01*
X-4500Y756D01*
X-4426Y771D01*
X-4380Y802D01*
X-4358Y780D01*
X-4369Y764D01*
X-4384Y690D01*
X-4370Y623D01*
X-4370Y614D01*
X-4388Y591D01*
X-4460Y577D01*
X-4536Y526D01*
X-4587Y450D01*
X-4597Y400D01*
X-4143D01*
X-4153Y450D01*
X-4170Y475D01*
X-4159Y503D01*
X-4116Y511D01*
X-4102Y520D01*
X-4076Y502D01*
X-4082Y470D01*
X-4082Y470D01*
Y-155D01*
X-4109Y-169D01*
X-4136Y-151D01*
X-4210Y-136D01*
X-4284Y-151D01*
X-4347Y-193D01*
X-4389Y-256D01*
X-4404Y-330D01*
X-4389Y-404D01*
X-4347Y-467D01*
X-4284Y-509D01*
X-4210Y-524D01*
X-4136Y-509D01*
X-4109Y-491D01*
X-4082Y-505D01*
Y-1003D01*
X-4082Y-1003D01*
X-4074Y-1046D01*
X-4049Y-1082D01*
X-3788Y-1344D01*
Y-1551D01*
X-3761D01*
Y-1703D01*
X-3761Y-1703D01*
X-3753Y-1745D01*
X-3728Y-1782D01*
X-3630Y-1880D01*
Y-2038D01*
X-3353D01*
Y-1682D01*
X-3511D01*
X-3537Y-1656D01*
Y-1591D01*
X-3433D01*
Y-1324D01*
Y-1057D01*
X-3572D01*
Y-1097D01*
X-3718D01*
X-3858Y-957D01*
Y424D01*
X-3602Y679D01*
X-3575Y668D01*
Y437D01*
X-3436D01*
Y704D01*
Y971D01*
X-3488D01*
Y1108D01*
X-3459Y1116D01*
X-3457Y1113D01*
X-3394Y1071D01*
X-3320Y1056D01*
X-3246Y1071D01*
X-3183Y1113D01*
X-3147Y1167D01*
X-3114Y1171D01*
X-3107Y1160D01*
X-3102Y1142D01*
X-3109Y1120D01*
X-3219Y1009D01*
X-3244Y973D01*
X-3244Y971D01*
X-3356D01*
Y704D01*
Y437D01*
X-3217D01*
Y477D01*
X-3073D01*
X-3062Y449D01*
X-3327Y183D01*
X-3535D01*
Y-271D01*
X-3257D01*
Y-64D01*
X-3051Y143D01*
X-3023Y131D01*
Y-271D01*
X-2815D01*
X-2632Y-455D01*
Y-490D01*
X-2662Y-499D01*
X-2693Y-453D01*
X-2756Y-411D01*
X-2830Y-396D01*
X-2904Y-411D01*
X-2967Y-453D01*
X-2968Y-455D01*
X-2998Y-446D01*
Y-349D01*
X-3276D01*
Y-748D01*
X-3319D01*
X-3510Y-556D01*
Y-349D01*
X-3788D01*
Y-803D01*
X-3580D01*
X-3444Y-939D01*
X-3444Y-939D01*
X-3408Y-964D01*
X-3365Y-972D01*
X-2687D01*
X-2657Y-1017D01*
X-2594Y-1059D01*
X-2520Y-1074D01*
X-2446Y-1059D01*
X-2383Y-1017D01*
X-2341Y-954D01*
X-2326Y-880D01*
X-2341Y-806D01*
X-2383Y-743D01*
X-2408Y-726D01*
Y-408D01*
X-2408Y-408D01*
X-2416Y-365D01*
X-2441Y-329D01*
X-2441Y-329D01*
X-2745Y-24D01*
Y183D01*
X-2971D01*
X-2982Y211D01*
X-2879Y315D01*
X-2464D01*
X-2464Y315D01*
X-2421Y323D01*
X-2385Y347D01*
X-1079Y1653D01*
X191D01*
X191Y1653D01*
X234Y1662D01*
X271Y1686D01*
X699Y2115D01*
X724Y2151D01*
X732Y2194D01*
X732Y2194D01*
Y2608D01*
X761Y2617D01*
X763Y2613D01*
X844Y2559D01*
X900Y2548D01*
Y2790D01*
Y3032D01*
X844Y3021D01*
X763Y2967D01*
X761Y2963D01*
X732Y2972D01*
Y3086D01*
X762Y3102D01*
X800Y3077D01*
X880Y3061D01*
X960Y3077D01*
X1028Y3122D01*
X1073Y3190D01*
X1089Y3270D01*
X1073Y3350D01*
X1028Y3418D01*
X1010Y3430D01*
Y3466D01*
X1067Y3503D01*
X1121Y3584D01*
X1132Y3640D01*
X890D01*
Y3680D01*
X850D01*
Y3922D01*
X794Y3911D01*
X759Y3887D01*
X732Y3901D01*
Y4256D01*
X854Y4378D01*
X969D01*
Y4113D01*
X980Y4055D01*
X984Y4049D01*
Y3942D01*
X961Y3916D01*
X930Y3922D01*
Y3720D01*
X1132D01*
X1121Y3776D01*
X1067Y3857D01*
X999Y3902D01*
X1008Y3932D01*
X1262D01*
Y4063D01*
X1271Y4113D01*
Y4378D01*
X1505D01*
Y4715D01*
X1474D01*
X1455Y4743D01*
X1455Y4743D01*
X1354Y4844D01*
X1318Y4868D01*
X1275Y4877D01*
X1275Y4877D01*
X685D01*
X685Y4877D01*
X642Y4868D01*
X606Y4844D01*
X606Y4844D01*
X521Y4760D01*
X450Y4774D01*
X376Y4759D01*
X313Y4717D01*
X292Y4685D01*
X256Y4686D01*
X216Y4746D01*
X140Y4797D01*
X90Y4807D01*
Y4580D01*
Y4353D01*
X140Y4363D01*
X216Y4414D01*
X256Y4474D01*
X292Y4475D01*
X313Y4443D01*
X376Y4401D01*
X450Y4386D01*
X518Y4400D01*
X534Y4380D01*
X536Y4375D01*
X516Y4345D01*
X508Y4303D01*
X508Y4303D01*
Y3948D01*
X457D01*
Y3730D01*
Y3512D01*
X508D01*
Y3068D01*
X457D01*
Y2850D01*
Y2632D01*
X508D01*
Y2240D01*
X305Y2038D01*
X277Y2047D01*
X269Y2085D01*
X227Y2147D01*
X164Y2189D01*
X90Y2204D01*
X16Y2189D01*
X-47Y2147D01*
X-64Y2123D01*
X-224D01*
X-237Y2153D01*
X-201Y2206D01*
X-186Y2280D01*
X-201Y2354D01*
X-243Y2417D01*
X-306Y2459D01*
X-380Y2474D01*
X-454Y2459D01*
X-517Y2417D01*
X-559Y2354D01*
X-566Y2319D01*
X-1284D01*
Y2400D01*
X-1642D01*
Y2319D01*
X-1678D01*
Y2566D01*
X-1672Y2570D01*
X-1642Y2552D01*
Y2480D01*
X-1275D01*
X-1256Y2488D01*
X-1209Y2441D01*
X-1173Y2416D01*
X-1130Y2408D01*
X-1130Y2408D01*
X-691D01*
X-648Y2416D01*
X-612Y2441D01*
X-601Y2457D01*
X-584Y2468D01*
X-455Y2598D01*
X-196D01*
Y2732D01*
X-76D01*
Y2672D01*
X202D01*
Y3028D01*
X-76D01*
Y2957D01*
X-196D01*
Y3092D01*
X-999D01*
X-1012Y3122D01*
X-965Y3168D01*
X-196D01*
Y3618D01*
X-76D01*
Y3552D01*
X202D01*
Y3908D01*
X-76D01*
Y3842D01*
X-730D01*
X-730Y3842D01*
X-773Y3834D01*
X-809Y3809D01*
X-809Y3809D01*
X-845Y3773D01*
X-869Y3793D01*
X-863Y3800D01*
X-853Y3850D01*
X-1080D01*
Y3930D01*
X-853D01*
X-863Y3980D01*
X-914Y4056D01*
X-924Y4063D01*
X-927Y4093D01*
X-705Y4315D01*
X-542D01*
X-526Y4285D01*
X-557Y4240D01*
X-567Y4190D01*
X-113D01*
X-123Y4240D01*
X-174Y4316D01*
X-226Y4350D01*
Y4386D01*
X-184Y4414D01*
X-165Y4443D01*
X-135D01*
X-116Y4414D01*
X-40Y4363D01*
X10Y4353D01*
Y4580D01*
Y4807D01*
X-40Y4797D01*
X-116Y4746D01*
X-135Y4717D01*
X-165D01*
X-184Y4746D01*
X-260Y4797D01*
X-310Y4807D01*
Y4580D01*
X-390D01*
Y4807D01*
X-440Y4797D01*
X-447Y4792D01*
X-477Y4808D01*
Y4906D01*
X-1012D01*
Y4872D01*
X-1028Y4849D01*
X-1068D01*
Y5065D01*
X-1114D01*
X-1126Y5080D01*
X-1130Y5095D01*
X-1094Y5148D01*
X-1037Y5187D01*
X-973Y5199D01*
X-970Y5199D01*
X-577D01*
X-575Y5199D01*
X-520Y5188D01*
X-472Y5156D01*
X-439Y5107D01*
X-428Y5051D01*
X-429Y5050D01*
X-429D01*
X-417Y4992D01*
X-416Y4990D01*
Y4872D01*
X-138D01*
Y4990D01*
X-137Y4992D01*
X-126Y5050D01*
X-125D01*
X-138Y5154D01*
Y5228D01*
X-165D01*
X-185Y5276D01*
X-209Y5307D01*
X-188Y5329D01*
X-150Y5303D01*
X-100Y5293D01*
Y5480D01*
X-287D01*
X-277Y5430D01*
X-266Y5414D01*
X-288Y5394D01*
X-351Y5442D01*
X-460Y5487D01*
X-577Y5502D01*
Y5501D01*
X-970D01*
Y5503D01*
X-1094Y5486D01*
X-1209Y5439D01*
X-1308Y5363D01*
X-1384Y5264D01*
X-1432Y5148D01*
X-1443Y5065D01*
X-1523D01*
Y4849D01*
X-1563D01*
Y4730D01*
X-1296D01*
Y4650D01*
X-1563D01*
Y4531D01*
X-1523D01*
Y4365D01*
X-1750Y4138D01*
X-1778Y4150D01*
Y4706D01*
X-1753Y4723D01*
X-1711Y4786D01*
X-1696Y4860D01*
X-1711Y4934D01*
X-1753Y4997D01*
X-1816Y5039D01*
X-1890Y5054D01*
X-1964Y5039D01*
X-2027Y4997D01*
X-2069Y4934D01*
X-2084Y4860D01*
X-2069Y4786D01*
X-2027Y4723D01*
X-2002Y4706D01*
Y4630D01*
X-2032Y4621D01*
X-2045Y4641D01*
X-2078Y4663D01*
X-2117Y4671D01*
X-2123D01*
Y5172D01*
X-2088D01*
Y5528D01*
X-2366D01*
Y5380D01*
X-2396Y5371D01*
X-2413Y5397D01*
X-2476Y5439D01*
X-2550Y5454D01*
X-2624Y5439D01*
X-2676Y5404D01*
X-2698Y5426D01*
X-2691Y5436D01*
X-2676Y5510D01*
X-2691Y5584D01*
X-2727Y5638D01*
X-2715Y5668D01*
X-1770D01*
X-1755Y5642D01*
X-1777Y5610D01*
X-1785Y5568D01*
X-1833D01*
Y5350D01*
Y5132D01*
X-1694D01*
Y5301D01*
X-1668Y5315D01*
X-1650Y5303D01*
X-1600Y5293D01*
Y5520D01*
X-1560D01*
Y5560D01*
X-1333D01*
X-1343Y5610D01*
X-1365Y5642D01*
X-1350Y5668D01*
X-270D01*
X-255Y5642D01*
X-277Y5610D01*
X-287Y5560D01*
X167D01*
X157Y5610D01*
X135Y5642D01*
X150Y5668D01*
X2076D01*
X2090Y5642D01*
D02*
G37*
G36*
X5582Y5254D02*
X5588D01*
Y4924D01*
X5563Y4907D01*
X5561Y4904D01*
X5529Y4910D01*
X5527Y4923D01*
X5496Y4969D01*
X5450Y5000D01*
X5395Y5011D01*
X5327D01*
Y4869D01*
X5247D01*
Y5011D01*
X5179D01*
X5125Y5000D01*
X5121Y4998D01*
X5102Y4989D01*
X5102D01*
X5088Y4997D01*
X5076Y5027D01*
X5083Y5066D01*
Y5117D01*
X5247Y5281D01*
X5582D01*
Y5254D01*
D02*
G37*
G36*
X2769Y4641D02*
Y4519D01*
X2769Y4519D01*
X2778Y4476D01*
X2802Y4439D01*
X3018Y4224D01*
X3005Y4194D01*
X2921D01*
X2917Y4193D01*
X2830Y4210D01*
X2757Y4259D01*
X2755Y4262D01*
X2726Y4282D01*
Y4340D01*
X2517D01*
Y4420D01*
X2726D01*
Y4529D01*
X2686D01*
Y4629D01*
X2710Y4633D01*
X2743Y4655D01*
X2769Y4641D01*
D02*
G37*
G36*
X-5585Y5447D02*
X-5582Y5418D01*
X-5582D01*
Y5062D01*
X-5373D01*
X-5191Y4879D01*
Y4747D01*
X-5185Y4719D01*
X-5186Y4719D01*
X-5211Y4700D01*
X-5212Y4701D01*
X-5267Y4712D01*
X-5345D01*
Y4570D01*
X-5425D01*
Y4712D01*
X-5503D01*
X-5557Y4701D01*
X-5584Y4712D01*
X-5586Y4723D01*
X-5611Y4759D01*
X-5611Y4759D01*
X-5688Y4837D01*
X-5725Y4861D01*
X-5768Y4870D01*
X-5768Y4870D01*
X-5801D01*
Y4897D01*
X-6059D01*
Y4665D01*
X-6089Y4662D01*
X-6100Y4720D01*
X-6140Y4780D01*
X-6200Y4820D01*
X-6270Y4834D01*
X-6340Y4820D01*
X-6361Y4805D01*
X-6388Y4820D01*
Y5076D01*
X-6358Y5092D01*
X-6300Y5053D01*
X-6250Y5043D01*
Y5270D01*
X-6170D01*
Y5043D01*
X-6120Y5053D01*
X-6044Y5104D01*
X-6006Y5161D01*
X-5976Y5152D01*
Y5022D01*
X-5837D01*
Y5240D01*
X-5797D01*
Y5280D01*
X-5618D01*
Y5436D01*
X-5591Y5451D01*
X-5585Y5447D01*
D02*
G37*
G36*
X3502Y5594D02*
Y5174D01*
X3503Y5171D01*
Y5066D01*
X3510Y5027D01*
X3516Y5019D01*
X3509Y5005D01*
X3484Y4989D01*
X3465Y4998D01*
X3462Y5000D01*
X3407Y5011D01*
X3339D01*
Y4869D01*
X3259D01*
Y5011D01*
X3191D01*
X3177Y5008D01*
X3153Y5027D01*
Y5086D01*
X3178Y5102D01*
X3223Y5170D01*
X3239Y5250D01*
X3223Y5330D01*
X3178Y5398D01*
X3110Y5443D01*
X3030Y5459D01*
X2950Y5443D01*
X2945Y5439D01*
X2918Y5454D01*
Y5487D01*
X2740D01*
Y5348D01*
X2790D01*
X2807Y5318D01*
X2804Y5312D01*
X2522D01*
Y5061D01*
X2454Y5016D01*
X2403Y4940D01*
X2393Y4890D01*
X2620D01*
Y4810D01*
X2393D01*
X2403Y4760D01*
X2435Y4713D01*
X2421Y4686D01*
X2329D01*
Y5150D01*
X2317Y5208D01*
X2316Y5210D01*
Y5313D01*
X2366Y5323D01*
X2439Y5371D01*
X2453Y5393D01*
X2482Y5384D01*
Y5348D01*
X2660D01*
Y5527D01*
X2700D01*
Y5567D01*
X2918D01*
Y5668D01*
X3428D01*
X3502Y5594D01*
D02*
G37*
G36*
X5673Y6372D02*
X5840Y6322D01*
X5994Y6239D01*
X6129Y6129D01*
X6239Y5994D01*
X6322Y5840D01*
X6334Y5799D01*
X6309Y5780D01*
X6240Y5794D01*
X6166Y5779D01*
X6103Y5737D01*
X6061Y5674D01*
X6046Y5600D01*
X6052Y5571D01*
X5986Y5505D01*
X5938D01*
Y5532D01*
X5582D01*
Y5505D01*
X5201D01*
X5201Y5505D01*
X5158Y5496D01*
X5121Y5472D01*
X5024Y5374D01*
X5021Y5376D01*
X4982Y5384D01*
X4943Y5376D01*
X4910Y5354D01*
X4902Y5341D01*
X4866D01*
X4857Y5354D01*
X4824Y5376D01*
X4785Y5384D01*
X4746Y5376D01*
X4720Y5359D01*
X4697Y5367D01*
X4690Y5372D01*
Y5852D01*
X4683Y5891D01*
X4660Y5924D01*
X4224Y6360D01*
X4236Y6388D01*
X5500D01*
X5505Y6389D01*
X5673Y6372D01*
D02*
G37*
%LPC*%
G36*
X3720Y-2834D02*
Y-3010D01*
X3896D01*
X3887Y-2964D01*
X3839Y-2891D01*
X3766Y-2843D01*
X3720Y-2834D01*
D02*
G37*
G36*
X590Y-1798D02*
X534Y-1809D01*
X453Y-1863D01*
X399Y-1944D01*
X388Y-2000D01*
X590D01*
Y-1798D01*
D02*
G37*
G36*
X4730Y-1200D02*
X4640Y-1217D01*
X4564Y-1268D01*
X4513Y-1344D01*
X4495Y-1434D01*
X4513Y-1524D01*
X4564Y-1600D01*
X4628Y-1643D01*
X4626Y-1676D01*
X4594Y-1689D01*
X4529Y-1739D01*
X4479Y-1804D01*
X4448Y-1879D01*
X4437Y-1960D01*
X4448Y-2041D01*
X4479Y-2116D01*
X4529Y-2181D01*
X4594Y-2231D01*
X4669Y-2262D01*
X4750Y-2273D01*
X4831Y-2262D01*
X4906Y-2231D01*
X4971Y-2181D01*
X5021Y-2116D01*
X5052Y-2041D01*
X5063Y-1960D01*
X5052Y-1879D01*
X5021Y-1804D01*
X4971Y-1739D01*
X4906Y-1689D01*
X4851Y-1666D01*
X4847Y-1632D01*
X4896Y-1600D01*
X4947Y-1524D01*
X4965Y-1434D01*
X4947Y-1344D01*
X4896Y-1268D01*
X4820Y-1217D01*
X4730Y-1200D01*
D02*
G37*
G36*
X-2793Y-2390D02*
X-2932D01*
Y-2568D01*
X-2793D01*
Y-2390D01*
D02*
G37*
G36*
X3640Y-2834D02*
X3594Y-2843D01*
X3521Y-2891D01*
X3473Y-2964D01*
X3464Y-3010D01*
X3640D01*
Y-2834D01*
D02*
G37*
G36*
X3896Y-3090D02*
X3720D01*
Y-3266D01*
X3766Y-3257D01*
X3839Y-3209D01*
X3887Y-3136D01*
X3896Y-3090D01*
D02*
G37*
G36*
X670Y-1798D02*
Y-2000D01*
X872D01*
X861Y-1944D01*
X807Y-1863D01*
X726Y-1809D01*
X670Y-1798D01*
D02*
G37*
G36*
X5830Y-1612D02*
X5779Y-1619D01*
X5693Y-1654D01*
X5620Y-1710D01*
X5564Y-1783D01*
X5529Y-1869D01*
X5522Y-1920D01*
X5830D01*
Y-1612D01*
D02*
G37*
G36*
Y-2000D02*
X5522D01*
X5529Y-2051D01*
X5564Y-2137D01*
X5620Y-2210D01*
X5693Y-2266D01*
X5779Y-2301D01*
X5830Y-2308D01*
Y-2000D01*
D02*
G37*
G36*
X-3214Y-1057D02*
X-3353D01*
Y-1324D01*
Y-1591D01*
X-3249D01*
Y-1682D01*
X-3276D01*
Y-2038D01*
X-3219D01*
Y-2172D01*
X-3246D01*
Y-2330D01*
X-3374Y-2458D01*
X-3434D01*
Y-2392D01*
X-3712D01*
Y-2748D01*
X-3434D01*
Y-2682D01*
X-3327D01*
X-3327Y-2682D01*
X-3284Y-2674D01*
X-3248Y-2649D01*
X-3127Y-2528D01*
X-2968D01*
Y-2172D01*
X-2995D01*
Y-1890D01*
X-2998Y-1873D01*
Y-1682D01*
X-3025D01*
Y-1551D01*
X-2998D01*
Y-1097D01*
X-3214D01*
Y-1057D01*
D02*
G37*
G36*
X-2574Y-2132D02*
X-2713D01*
Y-2310D01*
X-2574D01*
Y-2132D01*
D02*
G37*
G36*
X-2793D02*
X-2932D01*
Y-2310D01*
X-2793D01*
Y-2132D01*
D02*
G37*
G36*
X872Y-2080D02*
X670D01*
Y-2282D01*
X726Y-2271D01*
X807Y-2217D01*
X861Y-2136D01*
X872Y-2080D01*
D02*
G37*
G36*
X-2574Y-2390D02*
X-2713D01*
Y-2568D01*
X-2574D01*
Y-2390D01*
D02*
G37*
G36*
X6218Y-2000D02*
X5910D01*
Y-2308D01*
X5961Y-2301D01*
X6047Y-2266D01*
X6120Y-2210D01*
X6176Y-2137D01*
X6211Y-2051D01*
X6218Y-2000D01*
D02*
G37*
G36*
X590Y-2080D02*
X388D01*
X399Y-2136D01*
X453Y-2217D01*
X534Y-2271D01*
X590Y-2282D01*
Y-2080D01*
D02*
G37*
G36*
X3300Y-98D02*
X3244Y-109D01*
X3163Y-163D01*
X3109Y-244D01*
X3098Y-300D01*
X3300D01*
Y-98D01*
D02*
G37*
G36*
X5863Y233D02*
X5401D01*
Y-229D01*
X5863D01*
Y233D01*
D02*
G37*
G36*
X3300Y-380D02*
X3098D01*
X3109Y-436D01*
X3163Y-517D01*
X3244Y-571D01*
X3300Y-582D01*
Y-380D01*
D02*
G37*
G36*
X3710Y-348D02*
Y-550D01*
X3912D01*
X3901Y-494D01*
X3847Y-413D01*
X3766Y-359D01*
X3710Y-348D01*
D02*
G37*
G36*
X2762Y130D02*
X2560D01*
Y-72D01*
X2616Y-61D01*
X2697Y-7D01*
X2751Y74D01*
X2762Y130D01*
D02*
G37*
G36*
X2560Y412D02*
Y210D01*
X2762D01*
X2751Y266D01*
X2697Y347D01*
X2616Y401D01*
X2560Y412D01*
D02*
G37*
G36*
X4120Y470D02*
X3918D01*
X3929Y414D01*
X3983Y333D01*
X4064Y279D01*
X4120Y268D01*
Y470D01*
D02*
G37*
G36*
X-4410Y320D02*
X-4597D01*
X-4587Y270D01*
X-4536Y194D01*
X-4460Y143D01*
X-4410Y133D01*
Y320D01*
D02*
G37*
G36*
X-4143D02*
X-4330D01*
Y133D01*
X-4280Y143D01*
X-4204Y194D01*
X-4153Y270D01*
X-4143Y320D01*
D02*
G37*
G36*
X5863Y-531D02*
X5401D01*
Y-993D01*
X5863D01*
Y-531D01*
D02*
G37*
G36*
X-4424Y-800D02*
X-4563D01*
Y-978D01*
X-4424D01*
Y-800D01*
D02*
G37*
G36*
X5910Y-1612D02*
Y-1920D01*
X6218D01*
X6211Y-1869D01*
X6176Y-1783D01*
X6120Y-1710D01*
X6047Y-1654D01*
X5961Y-1619D01*
X5910Y-1612D01*
D02*
G37*
G36*
X5099Y-531D02*
X4637D01*
Y-993D01*
X5099D01*
Y-531D01*
D02*
G37*
G36*
X3380Y-98D02*
Y-340D01*
Y-582D01*
X3394Y-579D01*
X3423Y-604D01*
X3439Y-686D01*
X3493Y-767D01*
X3574Y-821D01*
X3630Y-832D01*
Y-590D01*
Y-348D01*
X3616Y-351D01*
X3587Y-326D01*
X3571Y-244D01*
X3517Y-163D01*
X3436Y-109D01*
X3380Y-98D01*
D02*
G37*
G36*
X-4424Y-542D02*
X-4563D01*
Y-720D01*
X-4424D01*
Y-542D01*
D02*
G37*
G36*
X2490Y-191D02*
X2410Y-207D01*
X2342Y-252D01*
X2297Y-320D01*
X2281Y-400D01*
X2297Y-480D01*
X2342Y-548D01*
X2410Y-593D01*
X2490Y-609D01*
X2570Y-593D01*
X2638Y-548D01*
X2683Y-480D01*
X2699Y-400D01*
X2683Y-320D01*
X2638Y-252D01*
X2570Y-207D01*
X2490Y-191D01*
D02*
G37*
G36*
X3912Y-630D02*
X3710D01*
Y-832D01*
X3766Y-821D01*
X3847Y-767D01*
X3901Y-686D01*
X3912Y-630D01*
D02*
G37*
G36*
X-4643Y-542D02*
X-4782D01*
Y-720D01*
X-4643D01*
Y-542D01*
D02*
G37*
G36*
X-2787Y-5230D02*
X-2926D01*
Y-5408D01*
X-2787D01*
Y-5230D01*
D02*
G37*
G36*
X-2568D02*
X-2707D01*
Y-5408D01*
X-2568D01*
Y-5230D01*
D02*
G37*
G36*
X5990Y-5106D02*
X5920Y-5120D01*
X5860Y-5160D01*
X5820Y-5220D01*
X5806Y-5290D01*
X5820Y-5360D01*
X5860Y-5420D01*
X5920Y-5460D01*
X5990Y-5474D01*
X6060Y-5460D01*
X6120Y-5420D01*
X6160Y-5360D01*
X6174Y-5290D01*
X6160Y-5220D01*
X6120Y-5160D01*
X6060Y-5120D01*
X5990Y-5106D01*
D02*
G37*
G36*
X1635Y-4750D02*
X885D01*
Y-5421D01*
X1635D01*
Y-4750D01*
D02*
G37*
G36*
X-4393Y-5080D02*
X-4600D01*
Y-5287D01*
X-4542Y-5275D01*
X-4460Y-5220D01*
X-4405Y-5138D01*
X-4393Y-5080D01*
D02*
G37*
G36*
X-2787Y-4972D02*
X-2926D01*
Y-5150D01*
X-2787D01*
Y-4972D01*
D02*
G37*
G36*
X691Y-5057D02*
X552D01*
Y-5383D01*
X691D01*
Y-5057D01*
D02*
G37*
G36*
X-4680Y-5080D02*
X-4887D01*
X-4875Y-5138D01*
X-4820Y-5220D01*
X-4738Y-5275D01*
X-4680Y-5287D01*
Y-5080D01*
D02*
G37*
G36*
X1980Y-5096D02*
X1906Y-5111D01*
X1843Y-5153D01*
X1801Y-5216D01*
X1786Y-5290D01*
X1801Y-5364D01*
X1843Y-5427D01*
X1906Y-5469D01*
X1980Y-5484D01*
X2054Y-5469D01*
X2117Y-5427D01*
X2159Y-5364D01*
X2174Y-5290D01*
X2159Y-5216D01*
X2117Y-5153D01*
X2054Y-5111D01*
X1980Y-5096D01*
D02*
G37*
G36*
X-2787Y-5790D02*
X-2926D01*
Y-5968D01*
X-2787D01*
Y-5790D01*
D02*
G37*
G36*
X-2568D02*
X-2707D01*
Y-5968D01*
X-2568D01*
Y-5790D01*
D02*
G37*
G36*
X-3455Y-5906D02*
X-3529Y-5921D01*
X-3592Y-5963D01*
X-3634Y-6026D01*
X-3649Y-6100D01*
X-3634Y-6174D01*
X-3592Y-6237D01*
X-3529Y-6279D01*
X-3455Y-6294D01*
X-3381Y-6279D01*
X-3318Y-6237D01*
X-3276Y-6174D01*
X-3262Y-6100D01*
X-3276Y-6026D01*
X-3318Y-5963D01*
X-3381Y-5921D01*
X-3455Y-5906D01*
D02*
G37*
G36*
X1980Y-5596D02*
X1906Y-5611D01*
X1843Y-5653D01*
X1801Y-5716D01*
X1786Y-5790D01*
X1801Y-5864D01*
X1843Y-5927D01*
X1906Y-5969D01*
X1980Y-5984D01*
X2054Y-5969D01*
X2117Y-5927D01*
X2159Y-5864D01*
X2174Y-5790D01*
X2159Y-5716D01*
X2117Y-5653D01*
X2054Y-5611D01*
X1980Y-5596D01*
D02*
G37*
G36*
X-2787Y-5532D02*
X-2926D01*
Y-5710D01*
X-2787D01*
Y-5532D01*
D02*
G37*
G36*
X-2568D02*
X-2707D01*
Y-5710D01*
X-2568D01*
Y-5532D01*
D02*
G37*
G36*
X3044Y-5730D02*
X2857D01*
X2867Y-5779D01*
X2918Y-5855D01*
X2994Y-5906D01*
X3044Y-5916D01*
Y-5730D01*
D02*
G37*
G36*
X5043D02*
X4856D01*
Y-5916D01*
X4906Y-5906D01*
X4982Y-5855D01*
X5033Y-5779D01*
X5043Y-5730D01*
D02*
G37*
G36*
X-2568Y-4972D02*
X-2707D01*
Y-5150D01*
X-2568D01*
Y-4972D01*
D02*
G37*
G36*
X4776Y-4164D02*
X4726Y-4174D01*
X4650Y-4225D01*
X4615Y-4278D01*
X4585D01*
X4549Y-4225D01*
X4473Y-4174D01*
X4423Y-4164D01*
Y-4390D01*
X4343D01*
Y-4164D01*
X4293Y-4174D01*
X4217Y-4225D01*
X4182Y-4278D01*
X4152D01*
X4116Y-4225D01*
X4040Y-4174D01*
X3990Y-4164D01*
Y-4390D01*
X3910D01*
Y-4164D01*
X3860Y-4174D01*
X3784Y-4225D01*
X3748Y-4278D01*
X3718D01*
X3683Y-4225D01*
X3607Y-4174D01*
X3557Y-4164D01*
Y-4390D01*
X3477D01*
Y-4164D01*
X3427Y-4174D01*
X3351Y-4225D01*
X3315Y-4278D01*
X3285D01*
X3250Y-4225D01*
X3174Y-4174D01*
X3124Y-4164D01*
Y-4390D01*
X3084D01*
Y-4430D01*
X2857D01*
X2867Y-4480D01*
X2918Y-4556D01*
X2971Y-4592D01*
Y-4622D01*
X2918Y-4658D01*
X2867Y-4734D01*
X2857Y-4783D01*
X3084D01*
Y-4863D01*
X2857D01*
X2867Y-4913D01*
X2918Y-4989D01*
X2971Y-5025D01*
Y-5055D01*
X2918Y-5091D01*
X2867Y-5167D01*
X2857Y-5217D01*
X3084D01*
Y-5297D01*
X2857D01*
X2867Y-5346D01*
X2918Y-5422D01*
X2971Y-5458D01*
Y-5488D01*
X2918Y-5524D01*
X2867Y-5600D01*
X2857Y-5650D01*
X3084D01*
Y-5690D01*
X3124D01*
Y-5916D01*
X3174Y-5906D01*
X3250Y-5855D01*
X3285Y-5802D01*
X3315D01*
X3351Y-5855D01*
X3427Y-5906D01*
X3477Y-5916D01*
Y-5690D01*
X3557D01*
Y-5916D01*
X3607Y-5906D01*
X3683Y-5855D01*
X3718Y-5802D01*
X3748D01*
X3784Y-5855D01*
X3860Y-5906D01*
X3910Y-5916D01*
Y-5690D01*
X3990D01*
Y-5916D01*
X4040Y-5906D01*
X4116Y-5855D01*
X4152Y-5802D01*
X4182D01*
X4217Y-5855D01*
X4293Y-5906D01*
X4343Y-5916D01*
Y-5690D01*
X4423D01*
Y-5916D01*
X4473Y-5906D01*
X4549Y-5855D01*
X4585Y-5802D01*
X4615D01*
X4650Y-5855D01*
X4726Y-5906D01*
X4776Y-5916D01*
Y-5690D01*
X4816D01*
Y-5650D01*
X5043D01*
X5033Y-5600D01*
X4982Y-5524D01*
X4929Y-5488D01*
Y-5458D01*
X4982Y-5422D01*
X5033Y-5346D01*
X5043Y-5297D01*
X4816D01*
Y-5217D01*
X5043D01*
X5033Y-5167D01*
X4982Y-5091D01*
X4929Y-5055D01*
Y-5025D01*
X4982Y-4989D01*
X5033Y-4913D01*
X5043Y-4863D01*
X4816D01*
Y-4783D01*
X5043D01*
X5033Y-4734D01*
X4982Y-4658D01*
X4929Y-4622D01*
Y-4592D01*
X4982Y-4556D01*
X5033Y-4480D01*
X5043Y-4430D01*
X4816D01*
Y-4390D01*
X4776D01*
Y-4164D01*
D02*
G37*
G36*
X-3398Y-3362D02*
X-3676D01*
Y-3718D01*
X-3649D01*
Y-3872D01*
X-3676D01*
Y-4228D01*
X-3398D01*
Y-3872D01*
X-3425D01*
Y-3718D01*
X-3398D01*
Y-3362D01*
D02*
G37*
G36*
X3044Y-4164D02*
X2994Y-4174D01*
X2918Y-4225D01*
X2867Y-4301D01*
X2857Y-4350D01*
X3044D01*
Y-4164D01*
D02*
G37*
G36*
X4856D02*
Y-4350D01*
X5043D01*
X5033Y-4301D01*
X4982Y-4225D01*
X4906Y-4174D01*
X4856Y-4164D01*
D02*
G37*
G36*
X4630Y-3146D02*
X4556Y-3161D01*
X4493Y-3203D01*
X4451Y-3266D01*
X4436Y-3340D01*
X4451Y-3414D01*
X4493Y-3477D01*
X4556Y-3519D01*
X4630Y-3534D01*
X4704Y-3519D01*
X4767Y-3477D01*
X4809Y-3414D01*
X4824Y-3340D01*
X4809Y-3266D01*
X4767Y-3203D01*
X4704Y-3161D01*
X4630Y-3146D01*
D02*
G37*
G36*
X3640Y-3090D02*
X3464D01*
X3473Y-3136D01*
X3521Y-3209D01*
X3594Y-3257D01*
X3640Y-3266D01*
Y-3090D01*
D02*
G37*
G36*
X-2244Y-3362D02*
X-2522D01*
Y-3718D01*
X-2363D01*
X-2298Y-3783D01*
Y-3931D01*
X-2413D01*
Y-4147D01*
X-2453D01*
Y-4148D01*
X-2480Y-4162D01*
X-2496Y-4151D01*
X-2570Y-4136D01*
X-2644Y-4151D01*
X-2680Y-4175D01*
X-2707Y-4161D01*
Y-3931D01*
X-2822D01*
Y-3783D01*
X-2757Y-3718D01*
X-2598D01*
Y-3362D01*
X-2876D01*
Y-3428D01*
X-3044D01*
Y-3362D01*
X-3322D01*
Y-3718D01*
X-3073D01*
X-3046Y-3737D01*
X-3046Y-3737D01*
Y-3737D01*
X-3046Y-3747D01*
Y-3931D01*
X-3161D01*
Y-4208D01*
X-2753D01*
X-2743Y-4238D01*
X-2762Y-4251D01*
X-2762Y-4251D01*
X-2954Y-4443D01*
X-3161D01*
Y-4720D01*
X-2707D01*
Y-4513D01*
X-2679Y-4485D01*
X-2644Y-4509D01*
X-2570Y-4524D01*
X-2496Y-4509D01*
X-2480Y-4499D01*
X-2453Y-4504D01*
Y-4504D01*
X-2453Y-4504D01*
X-2413D01*
Y-4720D01*
X-2206D01*
X-2132Y-4794D01*
Y-4826D01*
X-2157Y-4843D01*
X-2199Y-4906D01*
X-2214Y-4980D01*
X-2199Y-5054D01*
X-2157Y-5117D01*
X-2094Y-5159D01*
X-2020Y-5174D01*
X-1946Y-5159D01*
X-1883Y-5117D01*
X-1841Y-5054D01*
X-1826Y-4980D01*
X-1841Y-4906D01*
X-1883Y-4843D01*
X-1908Y-4826D01*
Y-4747D01*
X-1908Y-4747D01*
X-1916Y-4704D01*
X-1941Y-4668D01*
X-1941Y-4668D01*
X-1959Y-4650D01*
Y-4504D01*
X-1919D01*
Y-4366D01*
X-2186D01*
Y-4286D01*
X-1919D01*
Y-4182D01*
X-1838D01*
Y-4208D01*
X-1482D01*
Y-3931D01*
X-1838D01*
Y-3957D01*
X-1959D01*
Y-3931D01*
X-2074D01*
Y-3737D01*
X-2082Y-3694D01*
X-2107Y-3658D01*
X-2107Y-3658D01*
X-2244Y-3520D01*
Y-3362D01*
D02*
G37*
G36*
X548Y-3755D02*
X355D01*
Y-3867D01*
X404D01*
X462Y-3856D01*
X511Y-3823D01*
X544Y-3774D01*
X548Y-3755D01*
D02*
G37*
G36*
X6000Y-4096D02*
X5926Y-4111D01*
X5863Y-4153D01*
X5821Y-4216D01*
X5806Y-4290D01*
X5821Y-4364D01*
X5863Y-4427D01*
X5926Y-4469D01*
X6000Y-4484D01*
X6074Y-4469D01*
X6137Y-4427D01*
X6179Y-4364D01*
X6194Y-4290D01*
X6179Y-4216D01*
X6137Y-4153D01*
X6074Y-4111D01*
X6000Y-4096D01*
D02*
G37*
G36*
X5990Y-4596D02*
X5916Y-4611D01*
X5853Y-4653D01*
X5811Y-4716D01*
X5796Y-4790D01*
X5811Y-4864D01*
X5853Y-4927D01*
X5916Y-4969D01*
X5990Y-4984D01*
X6064Y-4969D01*
X6127Y-4927D01*
X6169Y-4864D01*
X6184Y-4790D01*
X6169Y-4716D01*
X6127Y-4653D01*
X6064Y-4611D01*
X5990Y-4596D01*
D02*
G37*
G36*
X691Y-4651D02*
X552D01*
Y-4977D01*
X691D01*
Y-4651D01*
D02*
G37*
G36*
X-4680Y-4793D02*
X-4738Y-4805D01*
X-4820Y-4860D01*
X-4875Y-4942D01*
X-4887Y-5000D01*
X-4680D01*
Y-4793D01*
D02*
G37*
G36*
X-4600D02*
Y-5000D01*
X-4393D01*
X-4405Y-4942D01*
X-4460Y-4860D01*
X-4542Y-4805D01*
X-4600Y-4793D01*
D02*
G37*
G36*
X-5750Y-4588D02*
X-5928D01*
Y-4727D01*
X-5750D01*
Y-4588D01*
D02*
G37*
G36*
X-5492D02*
X-5670D01*
Y-4727D01*
X-5492D01*
Y-4588D01*
D02*
G37*
G36*
X-5750Y-4807D02*
X-5928D01*
Y-4946D01*
X-5750D01*
Y-4807D01*
D02*
G37*
G36*
X-5492D02*
X-5670D01*
Y-4946D01*
X-5492D01*
Y-4807D01*
D02*
G37*
G36*
X2100Y3892D02*
X2044Y3881D01*
X1963Y3827D01*
X1909Y3746D01*
X1898Y3690D01*
X2100D01*
Y3892D01*
D02*
G37*
G36*
X2180D02*
Y3690D01*
X2382D01*
X2371Y3746D01*
X2317Y3827D01*
X2236Y3881D01*
X2180Y3892D01*
D02*
G37*
G36*
X3088Y3102D02*
X2910D01*
Y2963D01*
X3088D01*
Y3102D01*
D02*
G37*
G36*
X377Y3690D02*
X238D01*
Y3512D01*
X377D01*
Y3690D01*
D02*
G37*
G36*
X-113Y4110D02*
X-300D01*
Y3923D01*
X-250Y3933D01*
X-174Y3984D01*
X-123Y4060D01*
X-113Y4110D01*
D02*
G37*
G36*
X1780Y4692D02*
X1724Y4681D01*
X1643Y4627D01*
X1589Y4546D01*
X1578Y4490D01*
X1780D01*
Y4692D01*
D02*
G37*
G36*
X377Y3948D02*
X238D01*
Y3770D01*
X377D01*
Y3948D01*
D02*
G37*
G36*
X-380Y4110D02*
X-567D01*
X-557Y4060D01*
X-506Y3984D01*
X-430Y3933D01*
X-380Y3923D01*
Y4110D01*
D02*
G37*
G36*
X2830Y3102D02*
X2652D01*
Y2963D01*
X2830D01*
Y3102D01*
D02*
G37*
G36*
X377Y2810D02*
X238D01*
Y2632D01*
X377D01*
Y2810D01*
D02*
G37*
G36*
X2830Y2883D02*
X2652D01*
Y2744D01*
X2830D01*
Y2883D01*
D02*
G37*
G36*
X2080Y2760D02*
X1878D01*
X1889Y2704D01*
X1943Y2623D01*
X2024Y2569D01*
X2080Y2558D01*
Y2760D01*
D02*
G37*
G36*
X2362D02*
X2160D01*
Y2558D01*
X2216Y2569D01*
X2297Y2623D01*
X2351Y2704D01*
X2362Y2760D01*
D02*
G37*
G36*
X2160Y3042D02*
Y2840D01*
X2362D01*
X2351Y2896D01*
X2297Y2977D01*
X2216Y3031D01*
X2160Y3042D01*
D02*
G37*
G36*
X377Y3068D02*
X238D01*
Y2890D01*
X377D01*
Y3068D01*
D02*
G37*
G36*
X980Y3032D02*
Y2830D01*
X1182D01*
X1171Y2886D01*
X1117Y2967D01*
X1036Y3021D01*
X980Y3032D01*
D02*
G37*
G36*
X2080Y3042D02*
X2024Y3031D01*
X1943Y2977D01*
X1889Y2896D01*
X1878Y2840D01*
X2080D01*
Y3042D01*
D02*
G37*
G36*
X1289Y5582D02*
X1160D01*
Y5373D01*
Y5165D01*
X1289D01*
Y5205D01*
X1488D01*
X1571Y5171D01*
X1648Y5111D01*
X1650Y5108D01*
X1684Y5075D01*
Y4972D01*
X1962D01*
Y5090D01*
X1963Y5092D01*
X1974Y5150D01*
X1963Y5208D01*
X1962Y5210D01*
Y5328D01*
X1858D01*
X1760Y5409D01*
X1641Y5473D01*
X1511Y5512D01*
X1505Y5513D01*
Y5542D01*
X1289D01*
Y5582D01*
D02*
G37*
G36*
X5978Y5926D02*
X5800D01*
Y5787D01*
X5978D01*
Y5926D01*
D02*
G37*
G36*
X5350Y6040D02*
X5163D01*
X5173Y5990D01*
X5224Y5914D01*
X5300Y5863D01*
X5350Y5853D01*
Y6040D01*
D02*
G37*
G36*
X5978Y5707D02*
X5800D01*
Y5568D01*
X5978D01*
Y5707D01*
D02*
G37*
G36*
X5617Y6040D02*
X5430D01*
Y5853D01*
X5480Y5863D01*
X5515Y5887D01*
X5542Y5873D01*
Y5787D01*
X5720D01*
Y5926D01*
X5595D01*
X5581Y5952D01*
X5607Y5990D01*
X5617Y6040D01*
D02*
G37*
G36*
X5350Y6307D02*
X5300Y6297D01*
X5224Y6246D01*
X5173Y6170D01*
X5163Y6120D01*
X5350D01*
Y6307D01*
D02*
G37*
G36*
X5430D02*
Y6120D01*
X5617D01*
X5607Y6170D01*
X5556Y6246D01*
X5480Y6297D01*
X5430Y6307D01*
D02*
G37*
G36*
X-4953Y6218D02*
X-5092D01*
Y6040D01*
X-4953D01*
Y6218D01*
D02*
G37*
G36*
X-4734D02*
X-4873D01*
Y6040D01*
X-4734D01*
Y6218D01*
D02*
G37*
G36*
X5720Y5707D02*
X5542D01*
Y5568D01*
X5720D01*
Y5707D01*
D02*
G37*
G36*
X-5618Y5200D02*
X-5757D01*
Y5022D01*
X-5618D01*
Y5200D01*
D02*
G37*
G36*
X-1913Y5310D02*
X-2052D01*
Y5132D01*
X-1913D01*
Y5310D01*
D02*
G37*
G36*
X-784Y5105D02*
X-1012D01*
Y4986D01*
X-784D01*
Y5105D01*
D02*
G37*
G36*
X-477D02*
X-704D01*
Y4986D01*
X-477D01*
Y5105D01*
D02*
G37*
G36*
X167Y5480D02*
X-20D01*
Y5293D01*
X30Y5303D01*
X106Y5354D01*
X157Y5430D01*
X167Y5480D01*
D02*
G37*
G36*
X-1913Y5568D02*
X-2052D01*
Y5390D01*
X-1913D01*
Y5568D01*
D02*
G37*
G36*
X1080Y5582D02*
X951D01*
Y5542D01*
X735D01*
Y5459D01*
X673Y5396D01*
X671Y5393D01*
X573Y5313D01*
X457Y5251D01*
X333Y5213D01*
X238Y5204D01*
X216Y5224D01*
Y5228D01*
X-62D01*
Y5110D01*
X-63Y5108D01*
X-74Y5050D01*
X-63Y4992D01*
X-62Y4990D01*
Y4872D01*
X216D01*
Y4898D01*
X392Y4915D01*
X574Y4971D01*
X741Y5060D01*
X888Y5181D01*
X888Y5181D01*
X888Y5181D01*
X888Y5183D01*
X910Y5205D01*
X951D01*
Y5165D01*
X1080D01*
Y5373D01*
Y5582D01*
D02*
G37*
G36*
X-1333Y5480D02*
X-1520D01*
Y5293D01*
X-1470Y5303D01*
X-1394Y5354D01*
X-1343Y5430D01*
X-1333Y5480D01*
D02*
G37*
G36*
X2172Y760D02*
X1688D01*
X1697Y717D01*
X1676Y689D01*
X1634Y693D01*
X1499Y680D01*
X1369Y640D01*
X1249Y576D01*
X1144Y490D01*
X1057Y385D01*
X1009Y294D01*
X977Y299D01*
X973Y320D01*
X928Y388D01*
X860Y433D01*
X780Y449D01*
X700Y433D01*
X632Y388D01*
X587Y320D01*
X571Y240D01*
X579Y198D01*
X202Y-179D01*
X160Y-171D01*
X80Y-187D01*
X12Y-232D01*
X-33Y-300D01*
X-49Y-380D01*
X-33Y-460D01*
X12Y-528D01*
X80Y-573D01*
X160Y-589D01*
X240Y-573D01*
X308Y-528D01*
X353Y-460D01*
X369Y-380D01*
X361Y-338D01*
X738Y39D01*
X780Y31D01*
X860Y47D01*
X919Y86D01*
X948Y72D01*
X941Y0D01*
X954Y-135D01*
X993Y-265D01*
X1057Y-385D01*
X1144Y-490D01*
X1249Y-576D01*
X1369Y-640D01*
X1499Y-680D01*
X1522Y-682D01*
Y-2290D01*
X993Y-2819D01*
X965Y-2804D01*
X974Y-2760D01*
X959Y-2686D01*
X917Y-2623D01*
X854Y-2581D01*
X780Y-2566D01*
X706Y-2581D01*
X643Y-2623D01*
X601Y-2686D01*
X586Y-2760D01*
X592Y-2789D01*
X369Y-3013D01*
X315D01*
X311Y-3013D01*
X226D01*
X200Y-3019D01*
X182Y-2992D01*
X184Y-2989D01*
X192Y-2946D01*
X192Y-2946D01*
Y-2364D01*
X217Y-2347D01*
X259Y-2284D01*
X274Y-2210D01*
X259Y-2136D01*
X217Y-2073D01*
X154Y-2031D01*
X80Y-2016D01*
X6Y-2031D01*
X-57Y-2073D01*
X-99Y-2136D01*
X-114Y-2210D01*
X-99Y-2284D01*
X-57Y-2347D01*
X-32Y-2364D01*
Y-2833D01*
X-43Y-2835D01*
X-79Y-2859D01*
X-103Y-2895D01*
X-111Y-2938D01*
Y-3022D01*
X-112Y-3026D01*
X-111Y-3030D01*
Y-3046D01*
X-141Y-3055D01*
X-148Y-3046D01*
X-184Y-3022D01*
X-226Y-3013D01*
X-311D01*
X-315Y-3013D01*
X-359D01*
X-582Y-2789D01*
X-576Y-2760D01*
X-591Y-2686D01*
X-633Y-2623D01*
X-696Y-2581D01*
X-770Y-2566D01*
X-844Y-2581D01*
X-907Y-2623D01*
X-949Y-2686D01*
X-964Y-2760D01*
X-952Y-2816D01*
X-980Y-2831D01*
X-1522Y-2290D01*
Y-682D01*
X-1499Y-680D01*
X-1369Y-640D01*
X-1249Y-576D01*
X-1144Y-490D01*
X-1057Y-385D01*
X-993Y-265D01*
X-954Y-135D01*
X-941Y0D01*
X-954Y135D01*
X-993Y265D01*
X-1057Y385D01*
X-1144Y490D01*
X-1249Y576D01*
X-1369Y640D01*
X-1499Y680D01*
X-1634Y693D01*
X-1769Y680D01*
X-1899Y640D01*
X-2019Y576D01*
X-2124Y490D01*
X-2210Y385D01*
X-2274Y265D01*
X-2314Y135D01*
X-2327Y0D01*
X-2314Y-135D01*
X-2274Y-265D01*
X-2210Y-385D01*
X-2124Y-490D01*
X-2019Y-576D01*
X-1899Y-640D01*
X-1769Y-680D01*
X-1746Y-682D01*
Y-2336D01*
X-1746Y-2336D01*
X-1737Y-2379D01*
X-1713Y-2415D01*
X-1011Y-3118D01*
X-1022Y-3149D01*
X-1084Y-3161D01*
X-1147Y-3203D01*
X-1189Y-3266D01*
X-1204Y-3340D01*
X-1189Y-3414D01*
X-1147Y-3477D01*
X-1102Y-3507D01*
X-1111Y-3537D01*
X-1346D01*
Y-3603D01*
X-1482D01*
Y-3577D01*
X-1838D01*
Y-3854D01*
X-1482D01*
Y-3827D01*
X-1346D01*
Y-3893D01*
X-1068D01*
Y-3553D01*
X-1043Y-3527D01*
X-1010Y-3534D01*
X-992Y-3561D01*
Y-3893D01*
X-714D01*
Y-3827D01*
X-315D01*
X-311Y-3827D01*
X-226D01*
X-184Y-3818D01*
X-179Y-3815D01*
X-152Y-3829D01*
Y-3902D01*
X-141Y-3961D01*
X-108Y-4010D01*
X-58Y-4043D01*
X-40Y-4046D01*
Y-3814D01*
X40D01*
Y-4046D01*
X58Y-4043D01*
X108Y-4010D01*
X141Y-3961D01*
X152Y-3902D01*
Y-3878D01*
X182Y-3859D01*
X226Y-3867D01*
X275D01*
Y-3715D01*
X315D01*
Y-3675D01*
X548D01*
X544Y-3657D01*
X511Y-3608D01*
X504Y-3603D01*
X498Y-3573D01*
X506Y-3561D01*
X515Y-3518D01*
X506Y-3476D01*
X498Y-3464D01*
X514Y-3434D01*
X635D01*
X661Y-3459D01*
X656Y-3480D01*
X671Y-3554D01*
X713Y-3617D01*
X776Y-3659D01*
X850Y-3674D01*
X894Y-3665D01*
X901Y-3667D01*
X923Y-3690D01*
Y-4031D01*
X923Y-4031D01*
X931Y-4074D01*
X956Y-4111D01*
X1099Y-4254D01*
X1099Y-4254D01*
X1136Y-4279D01*
X1179Y-4287D01*
X1179Y-4287D01*
X1791D01*
X1791Y-4287D01*
X1834Y-4279D01*
X1871Y-4254D01*
X2024Y-4101D01*
X2024Y-4101D01*
X2049Y-4064D01*
X2057Y-4021D01*
Y-3605D01*
X2086Y-3596D01*
X2093Y-3607D01*
X2156Y-3649D01*
X2230Y-3664D01*
X2304Y-3649D01*
X2367Y-3607D01*
X2409Y-3544D01*
X2424Y-3470D01*
X2409Y-3396D01*
X2367Y-3333D01*
X2304Y-3291D01*
X2230Y-3276D01*
X2156Y-3291D01*
X2093Y-3333D01*
X2087Y-3342D01*
X2057Y-3333D01*
Y-2677D01*
X2087Y-2657D01*
X2129Y-2594D01*
X2144Y-2520D01*
X2129Y-2446D01*
X2087Y-2383D01*
X2024Y-2341D01*
X1950Y-2326D01*
X1876Y-2341D01*
X1813Y-2383D01*
X1771Y-2446D01*
X1756Y-2520D01*
X1771Y-2594D01*
X1813Y-2657D01*
X1833Y-2670D01*
Y-2933D01*
X1816Y-2956D01*
X1642D01*
X1639Y-2926D01*
X1674Y-2919D01*
X1737Y-2877D01*
X1779Y-2814D01*
X1794Y-2740D01*
X1779Y-2666D01*
X1737Y-2603D01*
X1674Y-2561D01*
X1621Y-2550D01*
X1611Y-2518D01*
X1713Y-2415D01*
X1713Y-2415D01*
X1737Y-2379D01*
X1746Y-2336D01*
X1746Y-2336D01*
Y-682D01*
X1769Y-680D01*
X1899Y-640D01*
X2019Y-576D01*
X2124Y-490D01*
X2210Y-385D01*
X2274Y-265D01*
X2314Y-135D01*
X2324Y-28D01*
X2356Y-15D01*
X2424Y-61D01*
X2480Y-72D01*
Y170D01*
Y412D01*
X2424Y401D01*
X2343Y347D01*
X2300Y281D01*
X2265Y283D01*
X2210Y385D01*
X2124Y490D01*
X2046Y554D01*
X2048Y584D01*
X2107Y623D01*
X2161Y704D01*
X2172Y760D01*
D02*
G37*
G36*
X1890Y1042D02*
X1834Y1031D01*
X1753Y977D01*
X1699Y896D01*
X1688Y840D01*
X1890D01*
Y1042D01*
D02*
G37*
G36*
X3530Y822D02*
Y620D01*
X3732D01*
X3721Y676D01*
X3667Y757D01*
X3586Y811D01*
X3530Y822D01*
D02*
G37*
G36*
X-5263Y800D02*
X-5402D01*
Y622D01*
X-5263D01*
Y800D01*
D02*
G37*
G36*
X1970Y1042D02*
Y840D01*
X2172D01*
X2161Y896D01*
X2107Y977D01*
X2026Y1031D01*
X1970Y1042D01*
D02*
G37*
G36*
X1360Y1180D02*
X1158D01*
X1169Y1124D01*
X1223Y1043D01*
X1304Y989D01*
X1360Y978D01*
Y1180D01*
D02*
G37*
G36*
X1642D02*
X1440D01*
Y978D01*
X1496Y989D01*
X1577Y1043D01*
X1631Y1124D01*
X1642Y1180D01*
D02*
G37*
G36*
X5563Y1080D02*
X5424D01*
Y902D01*
X5563D01*
Y1080D01*
D02*
G37*
G36*
X5782D02*
X5643D01*
Y902D01*
X5782D01*
Y1080D01*
D02*
G37*
G36*
X3732Y540D02*
X3530D01*
Y338D01*
X3586Y349D01*
X3667Y403D01*
X3721Y484D01*
X3732Y540D01*
D02*
G37*
G36*
X-5263Y568D02*
X-5402D01*
Y390D01*
X-5263D01*
Y568D01*
D02*
G37*
G36*
X4402Y470D02*
X4200D01*
Y268D01*
X4256Y279D01*
X4337Y333D01*
X4391Y414D01*
X4402Y470D01*
D02*
G37*
G36*
X3450Y540D02*
X3248D01*
X3259Y484D01*
X3313Y403D01*
X3394Y349D01*
X3450Y338D01*
Y540D01*
D02*
G37*
G36*
X-5044Y568D02*
X-5183D01*
Y390D01*
X-5044D01*
Y568D01*
D02*
G37*
G36*
X70Y989D02*
X-10Y973D01*
X-78Y928D01*
X-123Y860D01*
X-139Y780D01*
X-127Y721D01*
X-438Y411D01*
X-480Y419D01*
X-560Y403D01*
X-628Y358D01*
X-673Y290D01*
X-689Y210D01*
X-673Y130D01*
X-628Y62D01*
X-560Y17D01*
X-480Y1D01*
X-400Y17D01*
X-332Y62D01*
X-287Y130D01*
X-271Y210D01*
X-279Y252D01*
X45Y576D01*
X70Y571D01*
X150Y587D01*
X218Y632D01*
X263Y700D01*
X279Y780D01*
X263Y860D01*
X218Y928D01*
X150Y973D01*
X70Y989D01*
D02*
G37*
G36*
X3450Y822D02*
X3394Y811D01*
X3313Y757D01*
X3259Y676D01*
X3248Y620D01*
X3450D01*
Y822D01*
D02*
G37*
G36*
X4120Y752D02*
X4064Y741D01*
X3983Y687D01*
X3929Y606D01*
X3918Y550D01*
X4120D01*
Y752D01*
D02*
G37*
G36*
X4200D02*
Y550D01*
X4402D01*
X4391Y606D01*
X4337Y687D01*
X4256Y741D01*
X4200Y752D01*
D02*
G37*
G36*
X-6200Y1557D02*
Y1370D01*
X-6013D01*
X-6023Y1420D01*
X-6074Y1496D01*
X-6150Y1547D01*
X-6200Y1557D01*
D02*
G37*
G36*
X2520Y1732D02*
X2464Y1721D01*
X2383Y1667D01*
X2329Y1586D01*
X2318Y1530D01*
X2520D01*
Y1732D01*
D02*
G37*
G36*
X1360Y1462D02*
X1304Y1451D01*
X1223Y1397D01*
X1169Y1316D01*
X1158Y1260D01*
X1360D01*
Y1462D01*
D02*
G37*
G36*
X1440D02*
Y1260D01*
X1642D01*
X1631Y1316D01*
X1577Y1397D01*
X1496Y1451D01*
X1440Y1462D01*
D02*
G37*
G36*
X3090Y2332D02*
X2912D01*
Y2193D01*
X3090D01*
Y2332D01*
D02*
G37*
G36*
X1182Y2750D02*
X980D01*
Y2548D01*
X1036Y2559D01*
X1117Y2613D01*
X1171Y2694D01*
X1182Y2750D01*
D02*
G37*
G36*
X2600Y1732D02*
Y1530D01*
X2802D01*
X2791Y1586D01*
X2737Y1667D01*
X2656Y1721D01*
X2600Y1732D01*
D02*
G37*
G36*
X3090Y2113D02*
X2912D01*
Y1974D01*
X3090D01*
Y2113D01*
D02*
G37*
G36*
X2802Y1450D02*
X2600D01*
Y1248D01*
X2656Y1259D01*
X2737Y1313D01*
X2791Y1394D01*
X2802Y1450D01*
D02*
G37*
G36*
X4813Y1180D02*
X4674D01*
Y1002D01*
X4813D01*
Y1180D01*
D02*
G37*
G36*
X5032D02*
X4893D01*
Y1002D01*
X5032D01*
Y1180D01*
D02*
G37*
G36*
X3813Y1160D02*
X3674D01*
Y982D01*
X3813D01*
Y1160D01*
D02*
G37*
G36*
X4032D02*
X3893D01*
Y982D01*
X4032D01*
Y1160D01*
D02*
G37*
G36*
Y1418D02*
X3893D01*
Y1240D01*
X4032D01*
Y1418D01*
D02*
G37*
G36*
X2520Y1450D02*
X2318D01*
X2329Y1394D01*
X2383Y1313D01*
X2464Y1259D01*
X2520Y1248D01*
Y1450D01*
D02*
G37*
G36*
X-6013Y1290D02*
X-6200D01*
Y1103D01*
X-6150Y1113D01*
X-6074Y1164D01*
X-6023Y1240D01*
X-6013Y1290D01*
D02*
G37*
G36*
X3813Y1418D02*
X3674D01*
Y1240D01*
X3813D01*
Y1418D01*
D02*
G37*
%LPD*%
G36*
X1540Y-3604D02*
X1588D01*
Y-3766D01*
X1563Y-3783D01*
X1527Y-3837D01*
X1512Y-3839D01*
X1497Y-3837D01*
X1494Y-3836D01*
X1446Y-3764D01*
X1370Y-3713D01*
X1320Y-3703D01*
Y-3930D01*
X1240D01*
Y-3703D01*
X1201Y-3711D01*
X1186Y-3684D01*
X1299Y-3570D01*
X1341D01*
Y-3604D01*
X1460D01*
Y-3408D01*
X1540D01*
Y-3604D01*
D02*
G37*
D10*
X3135Y295D02*
G03*
X3842Y2I707J707D01*
G01*
X1477Y2367D02*
G03*
X1770Y1660I1000J0D01*
G01*
X1758Y5215D02*
G03*
X1376Y5373I-382J-382D01*
G01*
X-970Y5350D02*
G03*
X-1296Y5024I0J-326D01*
G01*
X-277Y5050D02*
G03*
X-577Y5350I-300J0D01*
G01*
X203Y5050D02*
G03*
X780Y5289I0J816D01*
G01*
X1770Y1660D02*
X3135Y295D01*
X3842Y2D02*
X4868D01*
X1477Y2367D02*
Y4110D01*
X1758Y5215D02*
X1823Y5150D01*
X2177Y4584D02*
Y5150D01*
X-1296Y4946D02*
Y5024D01*
X-970Y5350D02*
X-577D01*
X1120Y4113D02*
Y4547D01*
X780Y5289D02*
X864Y5373D01*
X77Y5050D02*
X203D01*
D11*
X2853Y3270D02*
G03*
X2870Y3277I0J24D01*
G01*
X2233Y4133D02*
G03*
X2832Y3885I600J600D01*
G01*
X2676Y4183D02*
G03*
X2921Y4082I245J245D01*
G01*
X-340Y4556D02*
G03*
X-350Y4580I-34J0D01*
G01*
X3358Y1218D02*
Y2598D01*
X3350Y1210D02*
X3358Y1218D01*
X2870Y3277D02*
X3085D01*
X2230Y3270D02*
X2853D01*
X-2550Y5260D02*
X-2530Y5240D01*
Y4865D02*
Y5240D01*
X-3140Y5270D02*
X-2924Y5054D01*
Y4865D02*
Y5054D01*
X3041Y4610D02*
Y5239D01*
X2700Y5173D02*
X2881Y4992D01*
Y4519D02*
Y4992D01*
Y4519D02*
X3122Y4278D01*
X3299D01*
X3041Y4610D02*
X3176Y4475D01*
X3299D01*
X-6197Y5760D02*
X-5977Y5980D01*
X-6197Y5580D02*
Y5760D01*
Y5283D02*
Y5580D01*
X-5813Y5610D02*
X-5470D01*
X-5843Y5580D02*
X-5813Y5610D01*
X2183Y4380D02*
X2517D01*
X2183Y4183D02*
X2233Y4133D01*
X2832Y3885D02*
X3299D01*
X2517Y4183D02*
X2676D01*
X2921Y4082D02*
X3299D01*
X-4302Y5808D02*
X-4030Y6080D01*
X-1631Y3020D02*
X-1211Y2600D01*
X-1829Y3020D02*
X-1631D01*
X-1855Y2995D02*
X-1829Y3020D01*
X-2235Y2995D02*
X-1855D01*
X-2235Y3192D02*
X-1100D01*
X-2235Y3388D02*
X-1832D01*
X-1591Y3630D01*
X80Y-2946D02*
Y-2210D01*
X0Y-3026D02*
X80Y-2946D01*
X-3123Y-590D02*
X-2830D01*
X-3137Y-576D02*
X-3123Y-590D01*
X-3537Y-4050D02*
Y-3540D01*
X-3107Y-2350D02*
Y-1890D01*
X-3327Y-2570D02*
X-3107Y-2350D01*
X-3573Y-2570D02*
X-3327D01*
X-350Y-5510D02*
X-256Y-5416D01*
X-6330Y-1446D02*
Y220D01*
X-5514Y-1002D02*
Y-600D01*
X-5687Y-2027D02*
X-5237D01*
X-5700Y-2040D02*
X-5687Y-2027D01*
X-5770Y-1970D02*
X-5700Y-2040D01*
X-4880Y970D02*
X-4706Y1144D01*
X-4696D01*
X-4910Y1340D02*
X-4893Y1357D01*
Y1715D01*
X-4670Y1170D02*
Y1689D01*
X-4696Y1715D02*
X-4670Y1689D01*
X-4696Y1144D02*
X-4670Y1170D01*
X-5320Y1269D02*
X-5090Y1500D01*
X-5320Y1250D02*
Y1269D01*
X-5090Y1500D02*
Y1715D01*
X-4500Y950D02*
Y1714D01*
X-5577Y840D02*
Y1818D01*
X-5766Y784D02*
Y2001D01*
X-5577Y1818D02*
X-5385Y2010D01*
X-1276Y2440D02*
X-1204Y2367D01*
X-1463Y2440D02*
X-1276D01*
X5201Y5393D02*
X5760D01*
X5700Y4770D02*
Y5333D01*
X-5470Y5610D02*
Y5827D01*
X-5623Y5980D02*
X-5470Y5827D01*
X-5090Y5640D02*
X-4696Y5246D01*
Y4865D02*
Y5246D01*
X-5470Y5610D02*
X-5410D01*
X-4893Y5092D01*
X-5830Y2550D02*
X-5779Y2601D01*
X-5385D01*
X-6277Y2200D02*
Y2533D01*
X-3995Y1195D02*
X-3870Y1070D01*
X-3995Y1195D02*
Y1311D01*
X-4105Y1422D02*
X-3995Y1311D01*
X-4105Y1422D02*
Y1715D01*
X-4302Y1272D02*
Y1715D01*
X-2235Y2010D02*
X90D01*
X6136Y4278D02*
X6250Y4392D01*
X5287Y4278D02*
X6136D01*
X-453Y2207D02*
X-380Y2280D01*
X-2235Y2207D02*
X-453D01*
X-1010Y-3340D02*
X-863Y-3487D01*
X-346D01*
X-315Y-3518D01*
X6033Y5393D02*
X6240Y5600D01*
X5760Y5393D02*
X6033D01*
X4982Y5174D02*
X5201Y5393D01*
X-3365Y-860D02*
X-2540D01*
X-5710Y-4413D02*
Y-4050D01*
X-3520Y1710D02*
X-3515Y1715D01*
X-3520Y1410D02*
Y1710D01*
X-3600Y1330D02*
X-3520Y1410D01*
X-5560Y2207D02*
X-5385D01*
X-5766Y2001D02*
X-5560Y2207D01*
X-6330Y220D02*
X-5766Y784D01*
X-3649Y-576D02*
X-3365Y-860D01*
X-4636Y-3902D02*
X-4404Y-3670D01*
X-4320D01*
X-2393Y-6163D02*
Y-5750D01*
X-2460Y-6230D02*
X-2393Y-6163D01*
X-2104Y-5750D02*
X-1960Y-5894D01*
X-2393Y-5750D02*
X-2104D01*
X-2310Y-5190D02*
X-1960Y-5540D01*
X-2393Y-5190D02*
X-2310D01*
X-4499Y4865D02*
Y6190D01*
X-1960Y-5540D02*
X-968D01*
X-512Y-5084D01*
Y-5017D01*
X4588Y3186D02*
X4785D01*
X4982Y4869D02*
X5287D01*
X-770Y-2760D02*
X-405Y-3125D01*
X-315D01*
X315D02*
X415D01*
X780Y-2760D01*
X850Y-3480D02*
X1218Y-3112D01*
X1791Y-4175D02*
X1945Y-4021D01*
X1179Y-4175D02*
X1791D01*
X1713Y-3112D02*
X1945Y-3345D01*
Y-4021D02*
Y-3345D01*
X1035Y-4031D02*
X1179Y-4175D01*
X315Y-3322D02*
X648D01*
X-648D02*
X-315D01*
X-1634Y-2336D02*
X-648Y-3322D01*
X-1634Y-2336D02*
Y0D01*
X648Y-3322D02*
X1634Y-2336D01*
Y0D01*
X-853Y-3715D02*
X-315D01*
X-1660D02*
X-1207D01*
X-2186Y-4070D02*
X-1660D01*
X-2186D02*
Y-3737D01*
X-2383Y-3540D02*
X-2186Y-3737D01*
X-2934Y-4070D02*
Y-3737D01*
X-2737Y-3540D01*
X-3183D02*
X-2737D01*
X-3891Y-4050D02*
Y-3686D01*
X-3990Y-3587D02*
X-3891Y-3686D01*
X-5148Y-4292D02*
Y-3902D01*
Y-4292D02*
X-5050Y-4390D01*
X-4231D01*
X-3891Y-4050D01*
X-4243Y-3233D02*
X-3990D01*
X-4430Y-3420D02*
X-4243Y-3233D01*
X-4700Y-3420D02*
X-4430D01*
X-4892Y-3612D02*
X-4700Y-3420D01*
X-4892Y-3902D02*
Y-3612D01*
X-6060Y-3420D02*
X-4700D01*
X-6060Y-3066D02*
Y-2647D01*
Y-2293D02*
X-4980D01*
X-4892Y-2918D02*
Y-2295D01*
X-4937Y-2250D02*
X-4892Y-2295D01*
X-4583Y-2865D02*
Y-2250D01*
Y-1750D01*
X-5514D02*
X-4937D01*
X-6026D02*
Y-1456D01*
X-5849Y-1279D01*
X-6065Y-190D02*
Y-138D01*
X-5577Y350D01*
Y840D01*
X-6330Y-1446D02*
X-6026Y-1750D01*
X-4288Y-2570D02*
X-3927D01*
X-4636Y-2918D02*
X-4583Y-2865D01*
X-4288Y-2570D01*
X-3137Y-1860D02*
Y-1324D01*
X-3649Y-1703D02*
Y-1324D01*
Y-1703D02*
X-3491Y-1860D01*
X-4593Y-1406D02*
Y-1279D01*
X-4937Y-1750D02*
X-4593Y-1406D01*
X-4957Y-915D02*
Y-760D01*
Y-915D02*
X-4593Y-1279D01*
X-5240D02*
Y-563D01*
X-4947Y-270D01*
X-5849Y-1279D02*
X-5240D01*
X-4947D01*
X-4593Y-270D02*
Y-137D01*
X-4740Y10D02*
X-4593Y-137D01*
X-5275Y10D02*
X-4740D01*
X-5475Y-190D02*
X-5275Y10D01*
X-6026Y-1002D02*
Y-604D01*
X-5148Y-2918D02*
Y-2692D01*
X-5298Y-2542D02*
X-5148Y-2692D01*
X-5642Y-2542D02*
X-5298D01*
X-5690Y-2590D02*
X-5642Y-2542D01*
X-5770Y-1970D02*
Y-1750D01*
X-1591Y3630D02*
X-1420D01*
X-2235Y2995D02*
Y3010D01*
Y2798D02*
X-1748D01*
X-2235Y2601D02*
X-1978D01*
X-1817Y2440D01*
X-663Y2548D02*
X-424Y2787D01*
Y2845D01*
X57D01*
X-876Y3415D02*
Y3584D01*
X-730Y3730D01*
X-1981Y3979D02*
X-1890Y4070D01*
X-2235Y3979D02*
X-1981D01*
X-2235Y4570D02*
Y5342D01*
X-315Y-3518D02*
X315D01*
X3130Y2712D02*
X3604Y3186D01*
X3130Y2507D02*
Y2712D01*
X3085Y3277D02*
X3299Y3491D01*
X5598Y3180D02*
X6250D01*
X5287Y3491D02*
X5598Y3180D01*
X5287Y3688D02*
X6146D01*
X6250Y3584D01*
X5287Y3885D02*
X6147D01*
X6250Y3988D01*
X5287Y4475D02*
X5929D01*
X6250Y4796D01*
X-1100Y3192D02*
X-876Y3415D01*
X-730Y3730D02*
X63D01*
X3299Y4672D02*
Y4869D01*
Y4672D02*
X3801D01*
X3860Y4613D01*
X4293Y4180D01*
X-3908Y4865D02*
Y5492D01*
X-3600Y5800D01*
X-2683Y-4330D02*
X-2570D01*
X-2934Y-4581D02*
X-2683Y-4330D01*
X-2020Y-4980D02*
Y-4747D01*
X-2186Y-4581D02*
X-2020Y-4747D01*
X-5646Y-3660D02*
X-5404Y-3902D01*
X-5780Y-3660D02*
X-5646D01*
X-256Y-5416D02*
Y-5017D01*
X0Y-5390D02*
Y-5017D01*
Y-5390D02*
X120Y-5510D01*
X1945Y-3345D02*
Y-2525D01*
X-6108Y2798D02*
X-5385D01*
X-6250Y2940D02*
X-6108Y2798D01*
X2870Y2413D02*
Y2923D01*
Y2413D02*
X3130Y2153D01*
X-5223Y350D02*
Y590D01*
Y840D01*
Y590D02*
X-4600D01*
X-4370Y360D01*
X-5623Y5980D02*
X-5287D01*
X-5977D02*
X-5729Y6228D01*
X-5143D01*
X-4915Y6000D01*
X-4913D01*
X1890Y4380D02*
X2183D01*
X1820Y4450D02*
X1890Y4380D01*
X6250Y1830D02*
Y3180D01*
X-1211Y2600D02*
X-1210D01*
X-1130Y2520D01*
X-691D01*
X-5443Y5240D02*
X-5393D01*
X-5090Y4937D01*
X-4302Y4865D02*
Y5808D01*
X-6210Y5270D02*
X-6197Y5283D01*
X-4893Y4865D02*
Y5092D01*
X-5963Y2995D02*
X-5385D01*
X-6200Y3232D02*
X-5963Y2995D01*
X-6270Y3232D02*
X-6200D01*
X-5629Y3388D02*
X-5385D01*
X-5786Y3232D02*
X-5629Y3388D01*
X-5558Y3782D02*
X-5385D01*
X-5690Y3914D02*
X-5558Y3782D01*
X-5690Y3914D02*
Y4680D01*
X-5768Y4758D02*
X-5690Y4680D01*
X-5930Y4758D02*
X-5768D01*
X4982Y3186D02*
X5366D01*
X5677Y2875D01*
X5750D01*
Y1867D02*
Y2285D01*
X4293Y4180D02*
X4726Y3747D01*
X4293Y4180D02*
X4982Y4869D01*
X4588Y3186D02*
Y3609D01*
X4726Y3747D01*
X3801Y3041D02*
Y3186D01*
X3358Y2598D02*
X3801Y3041D01*
X4195Y3015D02*
Y3186D01*
Y3015D02*
X4815Y2395D01*
X4913D02*
X5065D01*
X5320Y2140D01*
X3998Y3012D02*
Y3186D01*
X3518Y2532D02*
X3998Y3012D01*
X3518Y2266D02*
Y2532D01*
X5320Y1333D02*
Y2140D01*
X5207Y1220D02*
X5320Y1333D01*
X4207Y1200D02*
Y1577D01*
X3518Y2266D02*
X4207Y1577D01*
X6090Y1670D02*
X6250Y1830D01*
X-5926Y2197D02*
X-5923Y2200D01*
X-5926Y1944D02*
Y2197D01*
X-6030Y1840D02*
X-5926Y1944D01*
X1657Y-3877D02*
X1700Y-3920D01*
Y-3446D01*
X-2530Y1715D02*
X-2485D01*
X-2000Y1230D01*
X-2520Y-880D02*
Y-408D01*
X-2884Y-44D02*
X-2520Y-408D01*
X-3600Y840D02*
Y1330D01*
X-3020Y1050D02*
X-2760D01*
X-3140Y930D02*
X-3020Y1050D01*
X-3140Y704D02*
Y930D01*
X-3396Y-44D02*
X-2925Y427D01*
X-2464D01*
X-1125Y1765D01*
X191D01*
X-2760Y1050D02*
X-2570Y1240D01*
X-3318Y1252D02*
Y1715D01*
X-2727Y1397D02*
Y1715D01*
Y1397D02*
X-2570Y1240D01*
X-2924Y1326D02*
Y1715D01*
X-2970Y1280D02*
X-2924Y1326D01*
X-2235Y4176D02*
X-1894D01*
X-2235Y4373D02*
X-1903D01*
X-1890Y4070D02*
Y4860D01*
X-480Y210D02*
X70Y760D01*
X160Y-380D02*
X780Y240D01*
X-3970Y-1003D02*
X-3649Y-1324D01*
X-3970Y-1003D02*
Y470D01*
X-3600Y840D01*
X-6267Y4167D02*
Y4647D01*
X-5933Y4167D02*
Y4480D01*
X-6267Y3510D02*
Y3833D01*
X-5840Y3508D02*
Y3740D01*
X-5933Y3833D02*
X-5840Y3740D01*
X-2235Y3782D02*
X-2028D01*
X-2026Y3784D01*
X-2235Y3585D02*
X-2028D01*
X-2026Y3584D01*
X-1740Y3990D02*
X-1296Y4434D01*
X-1049Y4130D02*
X-744Y4434D01*
X-2026Y3584D02*
X-1863D01*
X-1657Y3790D01*
X-1599D01*
X-2026Y3784D02*
X-1946D01*
X-1740Y3990D01*
X-1740D01*
X-1599Y3790D02*
X-1259Y4130D01*
X-1049D01*
X-744Y4690D02*
Y4946D01*
X-658Y4603D02*
X-373D01*
X-744Y4690D02*
X-658Y4603D01*
X-373D02*
X-350Y4580D01*
X-350Y4580D01*
X-560Y5130D02*
X-480Y5050D01*
Y4988D02*
Y5050D01*
X-350Y5540D02*
X-348D01*
X-108Y5299D01*
X1035Y-4031D02*
Y-3676D01*
X1303Y-3408D01*
X1500Y-3112D02*
Y-2840D01*
X1600Y-2740D01*
X1218Y-3112D02*
X1303D01*
X191Y1765D02*
X620Y2194D01*
Y4303D01*
X864Y4547D01*
X500Y4580D02*
X685Y4765D01*
X450Y4580D02*
X500D01*
X1376Y4547D02*
Y4664D01*
X1275Y4765D02*
X1376Y4664D01*
X685Y4765D02*
X1275D01*
D12*
X-350Y4580D02*
D03*
D13*
X4913Y2395D02*
D03*
X4047D02*
D03*
Y1765D02*
D03*
X4913D02*
D03*
D14*
X-5404Y-3902D02*
D03*
X-5148D02*
D03*
X-4892D02*
D03*
X-4636D02*
D03*
X-5404Y-2918D02*
D03*
X-5148D02*
D03*
X-4892D02*
D03*
X-4636D02*
D03*
D15*
X5632Y2D02*
D03*
Y-762D02*
D03*
X4868D02*
D03*
Y2D02*
D03*
D16*
X-2884Y-44D02*
D03*
X-3396D02*
D03*
Y704D02*
D03*
X-3140D02*
D03*
X-2884D02*
D03*
X-3649Y-576D02*
D03*
X-3137D02*
D03*
Y-1324D02*
D03*
X-3393D02*
D03*
X-3649D02*
D03*
X-6026Y-1002D02*
D03*
X-5514D02*
D03*
Y-1750D02*
D03*
X-5770D02*
D03*
X-6026D02*
D03*
D17*
X-5385Y4570D02*
D03*
Y4373D02*
D03*
Y4176D02*
D03*
Y3979D02*
D03*
Y3782D02*
D03*
Y3585D02*
D03*
Y3388D02*
D03*
Y3192D02*
D03*
Y2995D02*
D03*
Y2798D02*
D03*
Y2601D02*
D03*
Y2404D02*
D03*
Y2207D02*
D03*
Y2010D02*
D03*
X-2235D02*
D03*
Y2207D02*
D03*
Y2404D02*
D03*
Y2601D02*
D03*
Y2798D02*
D03*
Y2995D02*
D03*
Y3192D02*
D03*
Y3388D02*
D03*
Y3979D02*
D03*
Y4176D02*
D03*
Y4373D02*
D03*
Y4570D02*
D03*
Y3782D02*
D03*
Y3585D02*
D03*
D18*
X-5090Y1715D02*
D03*
X-4893D02*
D03*
X-4696D02*
D03*
X-4499D02*
D03*
X-4302D02*
D03*
X-4105D02*
D03*
X-3908D02*
D03*
X-3712D02*
D03*
X-3515D02*
D03*
X-3318D02*
D03*
X-3121D02*
D03*
X-2924D02*
D03*
X-2727D02*
D03*
X-2530D02*
D03*
Y4865D02*
D03*
X-2727D02*
D03*
X-2924D02*
D03*
X-3121D02*
D03*
X-3318D02*
D03*
X-3515D02*
D03*
X-3712D02*
D03*
X-3908D02*
D03*
X-4105D02*
D03*
X-4302D02*
D03*
X-4499D02*
D03*
X-4696D02*
D03*
X-4893D02*
D03*
X-5090D02*
D03*
D19*
X-3810Y3290D02*
D03*
D20*
X3299Y3885D02*
D03*
Y4082D02*
D03*
Y3491D02*
D03*
Y3688D02*
D03*
Y4278D02*
D03*
Y4475D02*
D03*
Y4672D02*
D03*
Y4869D02*
D03*
X5287D02*
D03*
Y4672D02*
D03*
Y4475D02*
D03*
Y4278D02*
D03*
Y4082D02*
D03*
Y3885D02*
D03*
Y3688D02*
D03*
Y3491D02*
D03*
D21*
X4293Y4180D02*
D03*
D22*
X4982Y3186D02*
D03*
X4785D02*
D03*
X4588D02*
D03*
X4392D02*
D03*
X4195D02*
D03*
X3998D02*
D03*
X3801D02*
D03*
X3604D02*
D03*
Y5174D02*
D03*
X3801D02*
D03*
X3998D02*
D03*
X4195D02*
D03*
X4392D02*
D03*
X4588D02*
D03*
X4785D02*
D03*
X4982D02*
D03*
D23*
X0Y-3814D02*
D03*
Y-3026D02*
D03*
D24*
X-315Y-3715D02*
D03*
Y-3518D02*
D03*
Y-3322D02*
D03*
Y-3125D02*
D03*
X315D02*
D03*
Y-3322D02*
D03*
Y-3518D02*
D03*
Y-3715D02*
D03*
D25*
X1303Y-3112D02*
D03*
X1500D02*
D03*
X1697D02*
D03*
Y-3408D02*
D03*
X1500D02*
D03*
D26*
X1303D02*
D03*
D27*
X1376Y5373D02*
D03*
X1120D02*
D03*
X864D02*
D03*
Y4547D02*
D03*
X1120D02*
D03*
X1376D02*
D03*
D28*
X-512Y-5017D02*
D03*
X-256D02*
D03*
X512D02*
D03*
X256D02*
D03*
X0D02*
D03*
D29*
X472Y-6070D02*
D03*
X-472D02*
D03*
D30*
X1260Y-5086D02*
D03*
X-1260D02*
D03*
D31*
X-424Y3415D02*
D03*
Y2845D02*
D03*
X-876D02*
D03*
Y3415D02*
D03*
D32*
X-744Y4434D02*
D03*
Y4690D02*
D03*
Y4946D02*
D03*
X-1296Y4434D02*
D03*
Y4690D02*
D03*
Y4946D02*
D03*
D33*
X2517Y4577D02*
D03*
Y4380D02*
D03*
Y4183D02*
D03*
X2183D02*
D03*
Y4380D02*
D03*
Y4577D02*
D03*
D34*
X-5475Y-190D02*
D03*
X-6065D02*
D03*
D35*
X-5933Y3833D02*
D03*
X-6267D02*
D03*
X-5933Y4167D02*
D03*
X-6267D02*
D03*
D36*
X-5923Y2200D02*
D03*
X-6277D02*
D03*
X2177Y5150D02*
D03*
X1823D02*
D03*
X-2753Y-2350D02*
D03*
X-3107D02*
D03*
X-3573Y-2570D02*
D03*
X-3927D02*
D03*
X-3491Y-1860D02*
D03*
X-3137D02*
D03*
X-5223Y840D02*
D03*
X-5577D02*
D03*
X-4603Y-760D02*
D03*
X-4957D02*
D03*
X-4593Y-270D02*
D03*
X-4947D02*
D03*
X-4937Y-1750D02*
D03*
X-4583D02*
D03*
X-4947Y-1279D02*
D03*
X-4593D02*
D03*
X-4583Y-2250D02*
D03*
X-4937D02*
D03*
X-3891Y-4050D02*
D03*
X-3537D02*
D03*
X-2737Y-3540D02*
D03*
X-2383D02*
D03*
X-1873Y5350D02*
D03*
X-2227D02*
D03*
X-5223Y350D02*
D03*
X-5577D02*
D03*
X-3537Y-3540D02*
D03*
X-3183D02*
D03*
X-1207Y-3715D02*
D03*
X-853D02*
D03*
X-6197Y5580D02*
D03*
X-5843D02*
D03*
X-5977Y5980D02*
D03*
X-5623D02*
D03*
X-2747Y-5750D02*
D03*
X-2393D02*
D03*
X-2747Y-5190D02*
D03*
X-2393D02*
D03*
X63Y2850D02*
D03*
X417D02*
D03*
X-1463Y2440D02*
D03*
X-1817D02*
D03*
X417Y3730D02*
D03*
X63D02*
D03*
X-5797Y5240D02*
D03*
X-5443D02*
D03*
X-4913Y6000D02*
D03*
X-5267D02*
D03*
X4207Y1200D02*
D03*
X3853D02*
D03*
X5603Y1120D02*
D03*
X5957D02*
D03*
X4853Y1220D02*
D03*
X5207D02*
D03*
X77Y5050D02*
D03*
X-277D02*
D03*
X1123Y4110D02*
D03*
X1477D02*
D03*
D37*
X-5930Y4482D02*
D03*
Y4758D02*
D03*
X-6270Y3508D02*
D03*
Y3232D02*
D03*
X-5840Y3508D02*
D03*
Y3232D02*
D03*
D38*
X-2934Y-4581D02*
D03*
Y-4070D02*
D03*
X-2186D02*
D03*
Y-4326D02*
D03*
Y-4581D02*
D03*
D39*
X-6060Y-2647D02*
D03*
Y-2293D02*
D03*
X-1660Y-4070D02*
D03*
Y-3715D02*
D03*
X-3990Y-3233D02*
D03*
Y-3587D02*
D03*
X3130Y2153D02*
D03*
Y2507D02*
D03*
X5750Y1867D02*
D03*
Y1513D02*
D03*
X-1960Y-5540D02*
D03*
Y-5894D02*
D03*
X-6060Y-3066D02*
D03*
Y-3420D02*
D03*
X-5710Y-4767D02*
D03*
Y-4413D02*
D03*
X5760Y5747D02*
D03*
Y5393D02*
D03*
X2700Y5527D02*
D03*
Y5173D02*
D03*
X2870Y2923D02*
D03*
Y3277D02*
D03*
D40*
X5750Y2285D02*
D03*
Y2875D02*
D03*
D41*
X-2870Y5212D02*
Y5510D01*
Y5212D02*
X-2727Y5069D01*
Y4865D02*
Y5069D01*
X3604Y5174D02*
Y5636D01*
X3998Y5174D02*
Y5842D01*
X4195Y5174D02*
Y5849D01*
X4392Y5174D02*
Y5851D01*
X-4105Y4865D02*
Y5655D01*
X4588Y5174D02*
Y5852D01*
X3470Y5770D02*
X3604Y5636D01*
X3930Y5910D02*
X3998Y5842D01*
X3994Y6050D02*
X4195Y5849D01*
X4052Y6190D02*
X4392Y5851D01*
X-4105Y5655D02*
X-3570Y6190D01*
X4110Y6330D02*
X4588Y5852D01*
X-4030Y6080D02*
X-3780Y6330D01*
X4110D01*
X-3570Y6190D02*
X4052D01*
X-3350Y6050D02*
X3994D01*
X-3140Y5910D02*
X3930D01*
X-2950Y5770D02*
X3470D01*
X-3600Y5800D02*
X-3350Y6050D01*
X-3170Y5550D02*
X-2950Y5770D01*
X-3270Y5780D02*
X-3140Y5910D01*
X-3712Y4865D02*
Y5338D01*
X-3270Y5780D01*
X-3515Y4865D02*
Y5337D01*
X-3302Y5550D01*
X-3170D01*
X4392Y3049D02*
Y3186D01*
Y3049D02*
X4502Y2938D01*
X5040D01*
X5042Y2940D01*
X5333D01*
X5957Y1120D02*
Y1306D01*
X5750Y1513D02*
X5957Y1306D01*
X5333Y2940D02*
X5470Y2803D01*
Y1793D02*
X5750Y1513D01*
X5470Y1793D02*
Y2803D01*
X1500Y-3710D02*
Y-3408D01*
X1280Y-3930D02*
X1500Y-3710D01*
X3084Y-4823D02*
X3517D01*
Y-5257D02*
X3950D01*
X4383D02*
X4816D01*
X4383Y-4823D02*
X4816D01*
D42*
X-512Y-5017D02*
Y-4392D01*
D43*
X1634Y0D02*
D03*
X-1634D02*
D03*
D44*
X1250Y-6070D02*
D03*
X-1250D02*
D03*
D45*
X3084Y-4390D02*
D03*
Y-4823D02*
D03*
Y-5257D02*
D03*
Y-5690D02*
D03*
X3517Y-4390D02*
D03*
Y-4823D02*
D03*
Y-5257D02*
D03*
Y-5690D02*
D03*
X3950Y-4390D02*
D03*
Y-4823D02*
D03*
Y-5257D02*
D03*
Y-5690D02*
D03*
X4383Y-4390D02*
D03*
Y-4823D02*
D03*
Y-5257D02*
D03*
Y-5690D02*
D03*
X4816Y-4390D02*
D03*
Y-4823D02*
D03*
Y-5257D02*
D03*
Y-5690D02*
D03*
X-4893Y4373D02*
D03*
X-4460D02*
D03*
X-4027D02*
D03*
X-3593D02*
D03*
X-3160D02*
D03*
X-2727D02*
D03*
X-4893Y3940D02*
D03*
X-4460D02*
D03*
X-4027D02*
D03*
X-3593D02*
D03*
X-3160D02*
D03*
X-2727D02*
D03*
X-4893Y3507D02*
D03*
X-4460D02*
D03*
X-4027D02*
D03*
X-3593D02*
D03*
X-3160D02*
D03*
X-2727D02*
D03*
X-4893Y3073D02*
D03*
X-4460D02*
D03*
X-4027D02*
D03*
X-3593D02*
D03*
X-3160D02*
D03*
X-2727D02*
D03*
X-4893Y2640D02*
D03*
X-4460D02*
D03*
X-4027D02*
D03*
X-3593D02*
D03*
X-3160D02*
D03*
X-2727D02*
D03*
X-4893Y2207D02*
D03*
X-4460D02*
D03*
X-4027D02*
D03*
X-3593D02*
D03*
X-3160D02*
D03*
X-2727D02*
D03*
X3860Y4613D02*
D03*
X4293D02*
D03*
X4726D02*
D03*
X3860Y4180D02*
D03*
X4293D02*
D03*
X4726D02*
D03*
X3860Y3747D02*
D03*
X4293D02*
D03*
X4726D02*
D03*
X4630Y-3340D02*
D03*
X-60Y5520D02*
D03*
X-6040Y-590D02*
D03*
X2620Y4850D02*
D03*
X1800Y4050D02*
D03*
X-6060Y-4410D02*
D03*
Y-3980D02*
D03*
X-1730Y2780D02*
D03*
X80Y-2210D02*
D03*
X-2830Y-590D02*
D03*
X-3455Y-6100D02*
D03*
X-350Y-5510D02*
D03*
X-5514Y-600D02*
D03*
X-5237Y-2027D02*
D03*
X-4910Y1340D02*
D03*
X-4880Y970D02*
D03*
X-5320Y1250D02*
D03*
X50Y4580D02*
D03*
X5700Y4770D02*
D03*
X2230Y-3470D02*
D03*
X-5830Y2550D02*
D03*
X-5090Y5640D02*
D03*
X-4240Y1210D02*
D03*
X-3870Y1070D02*
D03*
X450Y4580D02*
D03*
X90Y2010D02*
D03*
X-380Y2280D02*
D03*
X-4030Y6080D02*
D03*
X-1010Y-3340D02*
D03*
X-6240Y1330D02*
D03*
X-6210Y5270D02*
D03*
X5390Y6080D02*
D03*
X-6250Y2560D02*
D03*
X-6030Y1840D02*
D03*
X-2520Y-880D02*
D03*
X-4210Y-330D02*
D03*
X-2460Y-6230D02*
D03*
X-1560Y5520D02*
D03*
X-5470Y5610D02*
D03*
X6250Y4796D02*
D03*
Y4392D02*
D03*
Y3988D02*
D03*
Y3584D02*
D03*
Y3180D02*
D03*
X1950Y-2520D02*
D03*
X850Y-3480D02*
D03*
X1280Y-3930D02*
D03*
X1700Y-3920D02*
D03*
X780Y-2760D02*
D03*
X-770D02*
D03*
X-5780Y-3660D02*
D03*
X-5690Y-2590D02*
D03*
X-4500Y950D02*
D03*
X-4320Y-3670D02*
D03*
X-3320Y1250D02*
D03*
X-1420Y3630D02*
D03*
X-1890Y4860D02*
D03*
X6240Y5600D02*
D03*
X-340Y4150D02*
D03*
X-1080Y3890D02*
D03*
X-3600Y5800D02*
D03*
X-4499Y6190D02*
D03*
X-510Y-4390D02*
D03*
X1980Y-5790D02*
D03*
Y-5290D02*
D03*
X-2570Y-4330D02*
D03*
X-2020Y-4980D02*
D03*
X-4190Y690D02*
D03*
X-5740Y-4020D02*
D03*
X120Y-5510D02*
D03*
X1600Y-2740D02*
D03*
X-6250Y2940D02*
D03*
X-4370Y360D02*
D03*
X-1960Y-6230D02*
D03*
X-2870Y5510D02*
D03*
X-2550Y5260D02*
D03*
X-3270Y5780D02*
D03*
X-3140Y5270D02*
D03*
X6000Y-4290D02*
D03*
X6090Y1670D02*
D03*
X-2000Y1230D02*
D03*
X-2550Y1240D02*
D03*
X5990Y-4790D02*
D03*
X-350Y4580D02*
D03*
D46*
X-4640Y-5040D02*
D03*
D47*
X4730Y-1434D02*
D03*
D48*
X5870Y-1960D02*
D03*
X4750D02*
D03*
D49*
X3350Y1210D02*
D03*
X2280Y5530D02*
D03*
X-6270Y4650D02*
D03*
X3680Y-3050D02*
D03*
X-2970Y1280D02*
D03*
X5990Y-5290D02*
D03*
D50*
X2490Y-400D02*
D03*
X3340Y-340D02*
D03*
X3490Y580D02*
D03*
X1930Y800D02*
D03*
X2520Y170D02*
D03*
X3670Y-590D02*
D03*
X4160Y510D02*
D03*
X2560Y1490D02*
D03*
X1400Y1220D02*
D03*
X2120Y2800D02*
D03*
X940Y2790D02*
D03*
X890Y3680D02*
D03*
X2140Y3650D02*
D03*
X2230Y3270D02*
D03*
X3030Y5250D02*
D03*
X1820Y4450D02*
D03*
X630Y-2040D02*
D03*
X-480Y210D02*
D03*
X70Y780D02*
D03*
X780Y240D02*
D03*
X160Y-380D02*
D03*
X880Y3270D02*
D03*
M02*
