%FSLAX24Y24*%
%MOIN*%
G70*
G01*
G75*
G04 Layer_Physical_Order=2*
G04 Layer_Color=36540*
%ADD10C,0.0177*%
%ADD11C,0.0100*%
%ADD12C,0.0100*%
%ADD13R,0.0551X0.0453*%
%ADD14O,0.0177X0.0532*%
%ADD15R,0.0343X0.0343*%
%ADD16R,0.0157X0.0335*%
%ADD17O,0.0315X0.0079*%
%ADD18O,0.0079X0.0315*%
%ADD19R,0.2598X0.2598*%
%ADD20O,0.0295X0.0079*%
%ADD21R,0.1417X0.1417*%
%ADD22O,0.0079X0.0295*%
%ADD23O,0.0098X0.0276*%
%ADD24O,0.0276X0.0098*%
%ADD25R,0.0118X0.0193*%
%ADD26R,0.0118X0.0205*%
%ADD27R,0.0138X0.0217*%
%ADD28R,0.0157X0.0532*%
%ADD29R,0.0748X0.0630*%
%ADD30R,0.0630X0.0551*%
%ADD31R,0.0335X0.0374*%
%ADD32R,0.0335X0.0118*%
%ADD33R,0.0217X0.0098*%
%ADD34R,0.0197X0.0354*%
%ADD35R,0.0177X0.0177*%
%ADD36R,0.0157X0.0236*%
%ADD37R,0.0138X0.0157*%
%ADD38R,0.0335X0.0157*%
%ADD39R,0.0236X0.0157*%
%ADD40R,0.0354X0.0197*%
%ADD41C,0.0080*%
%ADD42C,0.0200*%
%ADD43C,0.1260*%
%ADD44C,0.0630*%
%ADD45C,0.0260*%
%ADD46C,0.0300*%
%ADD47C,0.0340*%
%ADD48C,0.0500*%
%ADD49C,0.0240*%
%ADD50C,0.0290*%
G36*
X5673Y6372D02*
X5840Y6322D01*
X5994Y6239D01*
X6129Y6129D01*
X6239Y5994D01*
X6322Y5840D01*
X6326Y5827D01*
X6286Y5785D01*
X6240Y5794D01*
X6166Y5779D01*
X6103Y5737D01*
X6061Y5674D01*
X6046Y5600D01*
X6061Y5526D01*
X6103Y5463D01*
X6166Y5421D01*
X6240Y5406D01*
X6314Y5421D01*
X6338Y5437D01*
X6388Y5410D01*
Y4993D01*
X6338Y4966D01*
X6324Y4975D01*
X6250Y4990D01*
X6176Y4975D01*
X6113Y4933D01*
X6071Y4870D01*
X6056Y4796D01*
X6071Y4722D01*
X6113Y4659D01*
X6170Y4621D01*
X6173Y4594D01*
X6170Y4567D01*
X6113Y4529D01*
X6071Y4466D01*
X6056Y4392D01*
X6071Y4318D01*
X6113Y4255D01*
X6170Y4217D01*
X6173Y4190D01*
X6170Y4163D01*
X6113Y4125D01*
X6071Y4062D01*
X6056Y3988D01*
X6071Y3914D01*
X6113Y3851D01*
X6170Y3813D01*
X6173Y3786D01*
X6170Y3759D01*
X6113Y3721D01*
X6071Y3658D01*
X6056Y3584D01*
X6071Y3510D01*
X6113Y3447D01*
X6170Y3409D01*
X6173Y3382D01*
X6170Y3355D01*
X6113Y3317D01*
X6071Y3254D01*
X6056Y3180D01*
X6071Y3106D01*
X6113Y3043D01*
X6176Y3001D01*
X6250Y2986D01*
X6324Y3001D01*
X6338Y3010D01*
X6388Y2983D01*
Y-5500D01*
X6389Y-5505D01*
X6372Y-5673D01*
X6322Y-5840D01*
X6239Y-5994D01*
X6129Y-6129D01*
X5994Y-6239D01*
X5840Y-6322D01*
X5673Y-6372D01*
X5505Y-6389D01*
X5500Y-6388D01*
X1529D01*
X1513Y-6341D01*
X1517Y-6337D01*
X1578Y-6259D01*
X1615Y-6168D01*
X1628Y-6070D01*
X1615Y-5972D01*
X1578Y-5881D01*
X1517Y-5803D01*
X1439Y-5742D01*
X1348Y-5705D01*
X1250Y-5692D01*
X1152Y-5705D01*
X1061Y-5742D01*
X983Y-5803D01*
X922Y-5881D01*
X885Y-5972D01*
X872Y-6070D01*
X885Y-6168D01*
X922Y-6259D01*
X983Y-6337D01*
X987Y-6341D01*
X971Y-6388D01*
X-971D01*
X-987Y-6341D01*
X-983Y-6337D01*
X-922Y-6259D01*
X-885Y-6168D01*
X-872Y-6070D01*
X-885Y-5972D01*
X-922Y-5881D01*
X-983Y-5803D01*
X-1061Y-5742D01*
X-1152Y-5705D01*
X-1250Y-5692D01*
X-1348Y-5705D01*
X-1439Y-5742D01*
X-1517Y-5803D01*
X-1578Y-5881D01*
X-1615Y-5972D01*
X-1628Y-6070D01*
X-1615Y-6168D01*
X-1578Y-6259D01*
X-1517Y-6337D01*
X-1513Y-6341D01*
X-1529Y-6388D01*
X-1736D01*
X-1759Y-6344D01*
X-1743Y-6320D01*
X-1733Y-6270D01*
X-2187D01*
X-2177Y-6320D01*
X-2161Y-6344D01*
X-2184Y-6388D01*
X-2277D01*
X-2304Y-6338D01*
X-2281Y-6304D01*
X-2266Y-6230D01*
X-2281Y-6156D01*
X-2323Y-6093D01*
X-2386Y-6051D01*
X-2460Y-6036D01*
X-2534Y-6051D01*
X-2597Y-6093D01*
X-2639Y-6156D01*
X-2654Y-6230D01*
X-2639Y-6304D01*
X-2616Y-6338D01*
X-2643Y-6388D01*
X-5500D01*
X-5505Y-6389D01*
X-5673Y-6372D01*
X-5840Y-6322D01*
X-5994Y-6239D01*
X-6129Y-6129D01*
X-6239Y-5994D01*
X-6322Y-5840D01*
X-6372Y-5673D01*
X-6389Y-5505D01*
X-6388Y-5500D01*
Y1099D01*
X-6344Y1123D01*
X-6330Y1113D01*
X-6280Y1103D01*
Y1330D01*
Y1557D01*
X-6330Y1547D01*
X-6344Y1537D01*
X-6388Y1561D01*
Y2363D01*
X-6338Y2390D01*
X-6324Y2381D01*
X-6250Y2366D01*
X-6176Y2381D01*
X-6113Y2423D01*
X-6071Y2486D01*
X-6066Y2509D01*
X-6016D01*
X-6009Y2476D01*
X-5967Y2413D01*
X-5904Y2371D01*
X-5830Y2356D01*
X-5756Y2371D01*
X-5693Y2413D01*
X-5651Y2476D01*
X-5648Y2493D01*
X-5600Y2508D01*
X-5432Y2340D01*
Y1404D01*
X-5457Y1387D01*
X-5499Y1324D01*
X-5514Y1250D01*
X-5499Y1176D01*
X-5457Y1113D01*
X-5394Y1071D01*
X-5320Y1056D01*
X-5246Y1071D01*
X-5183Y1113D01*
X-5141Y1176D01*
X-5129Y1236D01*
X-5082Y1251D01*
X-5079Y1251D01*
X-5047Y1203D01*
X-5005Y1175D01*
X-5001Y1118D01*
X-5002Y1117D01*
X-5017Y1107D01*
X-5059Y1044D01*
X-5074Y970D01*
X-5059Y896D01*
X-5017Y833D01*
X-4954Y791D01*
X-4880Y776D01*
X-4806Y791D01*
X-4743Y833D01*
X-4724Y861D01*
X-4720Y862D01*
X-4667Y857D01*
X-4637Y813D01*
X-4574Y771D01*
X-4500Y756D01*
X-4426Y771D01*
X-4415Y778D01*
X-4372Y747D01*
X-4384Y690D01*
X-4374Y641D01*
X-4372Y614D01*
X-4410Y587D01*
X-4460Y577D01*
X-4536Y526D01*
X-4587Y450D01*
X-4597Y400D01*
X-4143D01*
X-4153Y450D01*
X-4160Y460D01*
X-4141Y506D01*
X-4116Y511D01*
X-4053Y553D01*
X-4011Y616D01*
X-3996Y690D01*
X-4011Y764D01*
X-4053Y827D01*
X-4116Y869D01*
X-4190Y884D01*
X-4264Y869D01*
X-4275Y862D01*
X-4318Y893D01*
X-4306Y950D01*
X-4312Y980D01*
X-4270Y1022D01*
X-4240Y1016D01*
X-4166Y1031D01*
X-4111Y1067D01*
X-4076Y1058D01*
X-4059Y1048D01*
X-4049Y996D01*
X-4007Y933D01*
X-3944Y891D01*
X-3870Y876D01*
X-3796Y891D01*
X-3733Y933D01*
X-3691Y996D01*
X-3676Y1070D01*
X-3691Y1144D01*
X-3733Y1207D01*
X-3796Y1249D01*
X-3870Y1264D01*
X-3944Y1249D01*
X-3999Y1213D01*
X-4034Y1222D01*
X-4051Y1232D01*
X-4061Y1284D01*
X-4103Y1347D01*
X-4166Y1389D01*
X-4240Y1404D01*
X-4314Y1389D01*
X-4377Y1347D01*
X-4419Y1284D01*
X-4434Y1210D01*
X-4428Y1180D01*
X-4470Y1138D01*
X-4500Y1144D01*
X-4574Y1129D01*
X-4637Y1087D01*
X-4656Y1059D01*
X-4660Y1058D01*
X-4713Y1063D01*
X-4743Y1107D01*
X-4785Y1135D01*
X-4789Y1192D01*
X-4788Y1193D01*
X-4773Y1203D01*
X-4731Y1266D01*
X-4716Y1340D01*
X-4731Y1414D01*
X-4773Y1477D01*
X-4836Y1519D01*
X-4910Y1534D01*
X-4984Y1519D01*
X-5047Y1477D01*
X-5089Y1414D01*
X-5101Y1354D01*
X-5148Y1339D01*
X-5151Y1339D01*
X-5183Y1387D01*
X-5208Y1404D01*
Y2386D01*
X-5208Y2386D01*
X-5216Y2429D01*
X-5241Y2466D01*
X-5241Y2466D01*
X-5794Y3019D01*
X-5831Y3044D01*
X-5874Y3052D01*
X-5874Y3052D01*
X-6096D01*
X-6113Y3077D01*
X-6176Y3119D01*
X-6250Y3134D01*
X-6324Y3119D01*
X-6338Y3110D01*
X-6388Y3137D01*
Y4455D01*
X-6347Y4481D01*
X-6338Y4480D01*
X-6270Y4466D01*
X-6200Y4480D01*
X-6140Y4520D01*
X-6100Y4580D01*
X-6086Y4650D01*
X-6100Y4720D01*
X-6140Y4780D01*
X-6200Y4820D01*
X-6270Y4834D01*
X-6338Y4820D01*
X-6347Y4819D01*
X-6388Y4845D01*
Y5052D01*
X-6338Y5079D01*
X-6300Y5053D01*
X-6250Y5043D01*
Y5270D01*
Y5497D01*
X-6300Y5487D01*
X-6338Y5461D01*
X-6388Y5488D01*
Y5500D01*
X-6389Y5505D01*
X-6372Y5673D01*
X-6322Y5840D01*
X-6239Y5994D01*
X-6129Y6129D01*
X-5994Y6239D01*
X-5840Y6322D01*
X-5673Y6372D01*
X-5505Y6389D01*
X-5500Y6388D01*
X-4635D01*
X-4620Y6338D01*
X-4636Y6327D01*
X-4678Y6264D01*
X-4693Y6190D01*
X-4678Y6116D01*
X-4636Y6053D01*
X-4573Y6011D01*
X-4499Y5996D01*
X-4425Y6011D01*
X-4362Y6053D01*
X-4320Y6116D01*
X-4305Y6190D01*
X-4320Y6264D01*
X-4362Y6327D01*
X-4378Y6338D01*
X-4363Y6388D01*
X5500D01*
X5505Y6389D01*
X5673Y6372D01*
D02*
G37*
%LPC*%
G36*
X-2830Y-396D02*
X-2904Y-411D01*
X-2967Y-453D01*
X-3009Y-516D01*
X-3024Y-590D01*
X-3009Y-664D01*
X-2967Y-727D01*
X-2904Y-769D01*
X-2830Y-784D01*
X-2756Y-769D01*
X-2717Y-743D01*
X-2681Y-779D01*
X-2699Y-806D01*
X-2714Y-880D01*
X-2699Y-954D01*
X-2657Y-1017D01*
X-2594Y-1059D01*
X-2520Y-1074D01*
X-2446Y-1059D01*
X-2383Y-1017D01*
X-2341Y-954D01*
X-2326Y-880D01*
X-2341Y-806D01*
X-2383Y-743D01*
X-2446Y-701D01*
X-2520Y-686D01*
X-2594Y-701D01*
X-2633Y-727D01*
X-2669Y-691D01*
X-2651Y-664D01*
X-2636Y-590D01*
X-2651Y-516D01*
X-2693Y-453D01*
X-2756Y-411D01*
X-2830Y-396D01*
D02*
G37*
G36*
X3380Y-98D02*
Y-340D01*
Y-587D01*
X3427Y-624D01*
X3439Y-686D01*
X3493Y-767D01*
X3574Y-821D01*
X3630Y-832D01*
Y-590D01*
Y-343D01*
X3583Y-306D01*
X3571Y-244D01*
X3517Y-163D01*
X3436Y-109D01*
X3380Y-98D01*
D02*
G37*
G36*
X5910Y-1612D02*
Y-1920D01*
X6218D01*
X6211Y-1869D01*
X6176Y-1783D01*
X6120Y-1710D01*
X6047Y-1654D01*
X5961Y-1619D01*
X5910Y-1612D01*
D02*
G37*
G36*
X5830D02*
X5779Y-1619D01*
X5693Y-1654D01*
X5620Y-1710D01*
X5564Y-1783D01*
X5529Y-1869D01*
X5522Y-1920D01*
X5830D01*
Y-1612D01*
D02*
G37*
G36*
X-5197Y-1801D02*
Y-1987D01*
X-5011D01*
X-5021Y-1938D01*
X-5071Y-1861D01*
X-5148Y-1811D01*
X-5197Y-1801D01*
D02*
G37*
G36*
X-1634Y693D02*
X-1769Y680D01*
X-1899Y640D01*
X-2019Y576D01*
X-2124Y490D01*
X-2210Y385D01*
X-2274Y265D01*
X-2314Y135D01*
X-2327Y0D01*
X-2314Y-135D01*
X-2274Y-265D01*
X-2210Y-385D01*
X-2124Y-490D01*
X-2019Y-576D01*
X-1899Y-640D01*
X-1769Y-680D01*
X-1634Y-693D01*
X-1499Y-680D01*
X-1369Y-640D01*
X-1249Y-576D01*
X-1144Y-490D01*
X-1057Y-385D01*
X-993Y-265D01*
X-954Y-135D01*
X-941Y0D01*
X-954Y135D01*
X-993Y265D01*
X-1057Y385D01*
X-1144Y490D01*
X-1249Y576D01*
X-1369Y640D01*
X-1499Y680D01*
X-1634Y693D01*
D02*
G37*
G36*
X160Y-171D02*
X80Y-187D01*
X12Y-232D01*
X-33Y-300D01*
X-49Y-380D01*
X-33Y-460D01*
X12Y-528D01*
X80Y-573D01*
X160Y-589D01*
X240Y-573D01*
X308Y-528D01*
X353Y-460D01*
X369Y-380D01*
X353Y-300D01*
X308Y-232D01*
X240Y-187D01*
X160Y-171D01*
D02*
G37*
G36*
X-6040Y-396D02*
X-6114Y-411D01*
X-6177Y-453D01*
X-6219Y-516D01*
X-6234Y-590D01*
X-6219Y-664D01*
X-6177Y-727D01*
X-6114Y-769D01*
X-6040Y-784D01*
X-5966Y-769D01*
X-5903Y-727D01*
X-5861Y-664D01*
X-5846Y-590D01*
X-5861Y-516D01*
X-5903Y-453D01*
X-5966Y-411D01*
X-6040Y-396D01*
D02*
G37*
G36*
X3912Y-630D02*
X3710D01*
Y-832D01*
X3766Y-821D01*
X3847Y-767D01*
X3901Y-686D01*
X3912Y-630D01*
D02*
G37*
G36*
X-5514Y-406D02*
X-5588Y-421D01*
X-5651Y-463D01*
X-5693Y-526D01*
X-5708Y-600D01*
X-5693Y-674D01*
X-5651Y-737D01*
X-5588Y-779D01*
X-5514Y-794D01*
X-5440Y-779D01*
X-5377Y-737D01*
X-5335Y-674D01*
X-5320Y-600D01*
X-5335Y-526D01*
X-5377Y-463D01*
X-5440Y-421D01*
X-5514Y-406D01*
D02*
G37*
G36*
X872Y-2080D02*
X670D01*
Y-2282D01*
X726Y-2271D01*
X807Y-2217D01*
X861Y-2136D01*
X872Y-2080D01*
D02*
G37*
G36*
X4730Y-1200D02*
X4640Y-1217D01*
X4564Y-1268D01*
X4513Y-1344D01*
X4495Y-1434D01*
X4513Y-1524D01*
X4564Y-1600D01*
X4608Y-1629D01*
X4602Y-1686D01*
X4594Y-1689D01*
X4529Y-1739D01*
X4479Y-1804D01*
X4448Y-1879D01*
X4437Y-1960D01*
X4448Y-2041D01*
X4479Y-2116D01*
X4529Y-2181D01*
X4594Y-2231D01*
X4669Y-2262D01*
X4750Y-2273D01*
X4831Y-2262D01*
X4906Y-2231D01*
X4971Y-2181D01*
X5021Y-2116D01*
X5052Y-2041D01*
X5063Y-1960D01*
X5052Y-1879D01*
X5021Y-1804D01*
X4971Y-1739D01*
X4906Y-1689D01*
X4873Y-1675D01*
X4867Y-1619D01*
X4896Y-1600D01*
X4947Y-1524D01*
X4965Y-1434D01*
X4947Y-1344D01*
X4896Y-1268D01*
X4820Y-1217D01*
X4730Y-1200D01*
D02*
G37*
G36*
X590Y-2080D02*
X388D01*
X399Y-2136D01*
X453Y-2217D01*
X534Y-2271D01*
X590Y-2282D01*
Y-2080D01*
D02*
G37*
G36*
X5830Y-2000D02*
X5522D01*
X5529Y-2051D01*
X5564Y-2137D01*
X5620Y-2210D01*
X5693Y-2266D01*
X5779Y-2301D01*
X5830Y-2308D01*
Y-2000D01*
D02*
G37*
G36*
X6218D02*
X5910D01*
Y-2308D01*
X5961Y-2301D01*
X6047Y-2266D01*
X6120Y-2210D01*
X6176Y-2137D01*
X6211Y-2051D01*
X6218Y-2000D01*
D02*
G37*
G36*
X670Y-1798D02*
Y-2000D01*
X872D01*
X861Y-1944D01*
X807Y-1863D01*
X726Y-1809D01*
X670Y-1798D01*
D02*
G37*
G36*
X-5277Y-1801D02*
X-5327Y-1811D01*
X-5403Y-1861D01*
X-5454Y-1938D01*
X-5464Y-1987D01*
X-5277D01*
Y-1801D01*
D02*
G37*
G36*
X590Y-1798D02*
X534Y-1809D01*
X453Y-1863D01*
X399Y-1944D01*
X388Y-2000D01*
X590D01*
Y-1798D01*
D02*
G37*
G36*
X-5277Y-2067D02*
X-5464D01*
X-5454Y-2117D01*
X-5403Y-2193D01*
X-5327Y-2244D01*
X-5277Y-2254D01*
Y-2067D01*
D02*
G37*
G36*
X-5011D02*
X-5197D01*
Y-2254D01*
X-5148Y-2244D01*
X-5071Y-2193D01*
X-5021Y-2117D01*
X-5011Y-2067D01*
D02*
G37*
G36*
X4120Y752D02*
X4064Y741D01*
X3983Y687D01*
X3929Y606D01*
X3918Y550D01*
X4120D01*
Y752D01*
D02*
G37*
G36*
X4200D02*
Y550D01*
X4402D01*
X4391Y606D01*
X4337Y687D01*
X4256Y741D01*
X4200Y752D01*
D02*
G37*
G36*
X3732Y540D02*
X3530D01*
Y338D01*
X3586Y349D01*
X3667Y403D01*
X3721Y484D01*
X3732Y540D01*
D02*
G37*
G36*
X4402Y470D02*
X4200D01*
Y268D01*
X4256Y279D01*
X4337Y333D01*
X4391Y414D01*
X4402Y470D01*
D02*
G37*
G36*
X3450Y540D02*
X3248D01*
X3259Y484D01*
X3313Y403D01*
X3394Y349D01*
X3450Y338D01*
Y540D01*
D02*
G37*
G36*
X2172Y760D02*
X1688D01*
X1693Y738D01*
X1652Y691D01*
X1634Y693D01*
X1499Y680D01*
X1369Y640D01*
X1249Y576D01*
X1144Y490D01*
X1057Y385D01*
X1024Y322D01*
X997Y321D01*
X969Y326D01*
X928Y388D01*
X860Y433D01*
X780Y449D01*
X700Y433D01*
X632Y388D01*
X587Y320D01*
X571Y240D01*
X587Y160D01*
X632Y92D01*
X700Y47D01*
X780Y31D01*
X860Y47D01*
X897Y72D01*
X945Y43D01*
X941Y0D01*
X954Y-135D01*
X993Y-265D01*
X1057Y-385D01*
X1144Y-490D01*
X1249Y-576D01*
X1369Y-640D01*
X1499Y-680D01*
X1634Y-693D01*
X1769Y-680D01*
X1899Y-640D01*
X2019Y-576D01*
X2124Y-490D01*
X2210Y-385D01*
X2246Y-318D01*
X2294Y-335D01*
X2281Y-400D01*
X2297Y-480D01*
X2342Y-548D01*
X2410Y-593D01*
X2490Y-609D01*
X2570Y-593D01*
X2638Y-548D01*
X2683Y-480D01*
X2699Y-400D01*
X2683Y-320D01*
X2638Y-252D01*
X2570Y-207D01*
X2490Y-191D01*
X2410Y-207D01*
X2342Y-252D01*
X2319Y-288D01*
X2274Y-265D01*
X2314Y-135D01*
X2322Y-52D01*
X2375Y-28D01*
X2424Y-61D01*
X2480Y-72D01*
Y170D01*
Y412D01*
X2424Y401D01*
X2343Y347D01*
X2312Y300D01*
X2254Y303D01*
X2210Y385D01*
X2124Y490D01*
X2059Y543D01*
X2062Y593D01*
X2107Y623D01*
X2161Y704D01*
X2172Y760D01*
D02*
G37*
G36*
X1890Y1042D02*
X1834Y1031D01*
X1753Y977D01*
X1699Y896D01*
X1688Y840D01*
X1890D01*
Y1042D01*
D02*
G37*
G36*
X3530Y822D02*
Y620D01*
X3732D01*
X3721Y676D01*
X3667Y757D01*
X3586Y811D01*
X3530Y822D01*
D02*
G37*
G36*
X70Y989D02*
X-10Y973D01*
X-78Y928D01*
X-123Y860D01*
X-139Y780D01*
X-123Y700D01*
X-78Y632D01*
X-10Y587D01*
X70Y571D01*
X150Y587D01*
X218Y632D01*
X263Y700D01*
X279Y780D01*
X263Y860D01*
X218Y928D01*
X150Y973D01*
X70Y989D01*
D02*
G37*
G36*
X3450Y822D02*
X3394Y811D01*
X3313Y757D01*
X3259Y676D01*
X3248Y620D01*
X3450D01*
Y822D01*
D02*
G37*
G36*
X3300Y-98D02*
X3244Y-109D01*
X3163Y-163D01*
X3109Y-244D01*
X3098Y-300D01*
X3300D01*
Y-98D01*
D02*
G37*
G36*
X2762Y130D02*
X2560D01*
Y-72D01*
X2616Y-61D01*
X2697Y-7D01*
X2751Y74D01*
X2762Y130D01*
D02*
G37*
G36*
X-4210Y-136D02*
X-4284Y-151D01*
X-4347Y-193D01*
X-4389Y-256D01*
X-4404Y-330D01*
X-4389Y-404D01*
X-4347Y-467D01*
X-4284Y-509D01*
X-4210Y-524D01*
X-4136Y-509D01*
X-4073Y-467D01*
X-4031Y-404D01*
X-4016Y-330D01*
X-4031Y-256D01*
X-4073Y-193D01*
X-4136Y-151D01*
X-4210Y-136D01*
D02*
G37*
G36*
X3300Y-380D02*
X3098D01*
X3109Y-436D01*
X3163Y-517D01*
X3244Y-571D01*
X3300Y-582D01*
Y-380D01*
D02*
G37*
G36*
X3710Y-348D02*
Y-550D01*
X3912D01*
X3901Y-494D01*
X3847Y-413D01*
X3766Y-359D01*
X3710Y-348D01*
D02*
G37*
G36*
X2560Y412D02*
Y210D01*
X2762D01*
X2751Y266D01*
X2697Y347D01*
X2616Y401D01*
X2560Y412D01*
D02*
G37*
G36*
X4120Y470D02*
X3918D01*
X3929Y414D01*
X3983Y333D01*
X4064Y279D01*
X4120Y268D01*
Y470D01*
D02*
G37*
G36*
X-4143Y320D02*
X-4330D01*
Y133D01*
X-4280Y143D01*
X-4204Y194D01*
X-4153Y270D01*
X-4143Y320D01*
D02*
G37*
G36*
X-480Y419D02*
X-560Y403D01*
X-628Y358D01*
X-673Y290D01*
X-689Y210D01*
X-673Y130D01*
X-628Y62D01*
X-560Y17D01*
X-480Y1D01*
X-400Y17D01*
X-332Y62D01*
X-287Y130D01*
X-271Y210D01*
X-287Y290D01*
X-332Y358D01*
X-400Y403D01*
X-480Y419D01*
D02*
G37*
G36*
X-4410Y320D02*
X-4597D01*
X-4587Y270D01*
X-4536Y194D01*
X-4460Y143D01*
X-4410Y133D01*
Y320D01*
D02*
G37*
G36*
X-4680Y-4793D02*
X-4738Y-4805D01*
X-4820Y-4860D01*
X-4875Y-4942D01*
X-4887Y-5000D01*
X-4680D01*
Y-4793D01*
D02*
G37*
G36*
X-4600D02*
Y-5000D01*
X-4393D01*
X-4405Y-4942D01*
X-4460Y-4860D01*
X-4542Y-4805D01*
X-4600Y-4793D01*
D02*
G37*
G36*
X-2020Y-4786D02*
X-2094Y-4801D01*
X-2157Y-4843D01*
X-2199Y-4906D01*
X-2214Y-4980D01*
X-2199Y-5054D01*
X-2157Y-5117D01*
X-2094Y-5159D01*
X-2020Y-5174D01*
X-1946Y-5159D01*
X-1883Y-5117D01*
X-1841Y-5054D01*
X-1826Y-4980D01*
X-1841Y-4906D01*
X-1883Y-4843D01*
X-1946Y-4801D01*
X-2020Y-4786D01*
D02*
G37*
G36*
X-4680Y-5080D02*
X-4887D01*
X-4875Y-5138D01*
X-4820Y-5220D01*
X-4738Y-5275D01*
X-4680Y-5287D01*
Y-5080D01*
D02*
G37*
G36*
X-4393D02*
X-4600D01*
Y-5287D01*
X-4542Y-5275D01*
X-4460Y-5220D01*
X-4405Y-5138D01*
X-4393Y-5080D01*
D02*
G37*
G36*
X6000Y-4096D02*
X5926Y-4111D01*
X5863Y-4153D01*
X5821Y-4216D01*
X5806Y-4290D01*
X5821Y-4364D01*
X5863Y-4427D01*
X5926Y-4469D01*
X6000Y-4484D01*
X6074Y-4469D01*
X6137Y-4427D01*
X6179Y-4364D01*
X6194Y-4290D01*
X6179Y-4216D01*
X6137Y-4153D01*
X6074Y-4111D01*
X6000Y-4096D01*
D02*
G37*
G36*
X3044Y-4164D02*
X2994Y-4174D01*
X2918Y-4225D01*
X2867Y-4301D01*
X2857Y-4350D01*
X3044D01*
Y-4164D01*
D02*
G37*
G36*
X-2570Y-4136D02*
X-2644Y-4151D01*
X-2707Y-4193D01*
X-2749Y-4256D01*
X-2764Y-4330D01*
X-2749Y-4404D01*
X-2707Y-4467D01*
X-2644Y-4509D01*
X-2570Y-4524D01*
X-2496Y-4509D01*
X-2433Y-4467D01*
X-2391Y-4404D01*
X-2376Y-4330D01*
X-2391Y-4256D01*
X-2433Y-4193D01*
X-2496Y-4151D01*
X-2570Y-4136D01*
D02*
G37*
G36*
X5990Y-4596D02*
X5916Y-4611D01*
X5853Y-4653D01*
X5811Y-4716D01*
X5796Y-4790D01*
X5811Y-4864D01*
X5853Y-4927D01*
X5916Y-4969D01*
X5990Y-4984D01*
X6064Y-4969D01*
X6127Y-4927D01*
X6169Y-4864D01*
X6184Y-4790D01*
X6169Y-4716D01*
X6127Y-4653D01*
X6064Y-4611D01*
X5990Y-4596D01*
D02*
G37*
G36*
X-510Y-4196D02*
X-584Y-4211D01*
X-647Y-4253D01*
X-689Y-4316D01*
X-704Y-4390D01*
X-689Y-4464D01*
X-647Y-4527D01*
X-584Y-4569D01*
X-510Y-4584D01*
X-436Y-4569D01*
X-373Y-4527D01*
X-331Y-4464D01*
X-316Y-4390D01*
X-331Y-4316D01*
X-373Y-4253D01*
X-436Y-4211D01*
X-510Y-4196D01*
D02*
G37*
G36*
X1980Y-5596D02*
X1906Y-5611D01*
X1843Y-5653D01*
X1801Y-5716D01*
X1786Y-5790D01*
X1801Y-5864D01*
X1843Y-5927D01*
X1906Y-5969D01*
X1980Y-5984D01*
X2054Y-5969D01*
X2117Y-5927D01*
X2159Y-5864D01*
X2174Y-5790D01*
X2159Y-5716D01*
X2117Y-5653D01*
X2054Y-5611D01*
X1980Y-5596D01*
D02*
G37*
G36*
X3044Y-5730D02*
X2857D01*
X2867Y-5779D01*
X2918Y-5855D01*
X2994Y-5906D01*
X3044Y-5916D01*
Y-5730D01*
D02*
G37*
G36*
X-1920Y-6003D02*
Y-6190D01*
X-1733D01*
X-1743Y-6140D01*
X-1794Y-6064D01*
X-1870Y-6013D01*
X-1920Y-6003D01*
D02*
G37*
G36*
X-3455Y-5906D02*
X-3529Y-5921D01*
X-3592Y-5963D01*
X-3634Y-6026D01*
X-3649Y-6100D01*
X-3634Y-6174D01*
X-3592Y-6237D01*
X-3529Y-6279D01*
X-3455Y-6294D01*
X-3381Y-6279D01*
X-3318Y-6237D01*
X-3276Y-6174D01*
X-3262Y-6100D01*
X-3276Y-6026D01*
X-3318Y-5963D01*
X-3381Y-5921D01*
X-3455Y-5906D01*
D02*
G37*
G36*
X-2000Y-6003D02*
X-2050Y-6013D01*
X-2126Y-6064D01*
X-2177Y-6140D01*
X-2187Y-6190D01*
X-2000D01*
Y-6003D01*
D02*
G37*
G36*
X1980Y-5096D02*
X1906Y-5111D01*
X1843Y-5153D01*
X1801Y-5216D01*
X1786Y-5290D01*
X1801Y-5364D01*
X1843Y-5427D01*
X1906Y-5469D01*
X1980Y-5484D01*
X2054Y-5469D01*
X2117Y-5427D01*
X2159Y-5364D01*
X2174Y-5290D01*
X2159Y-5216D01*
X2117Y-5153D01*
X2054Y-5111D01*
X1980Y-5096D01*
D02*
G37*
G36*
X5990Y-5106D02*
X5920Y-5120D01*
X5860Y-5160D01*
X5820Y-5220D01*
X5806Y-5290D01*
X5820Y-5360D01*
X5860Y-5420D01*
X5920Y-5460D01*
X5990Y-5474D01*
X6060Y-5460D01*
X6120Y-5420D01*
X6160Y-5360D01*
X6174Y-5290D01*
X6160Y-5220D01*
X6120Y-5160D01*
X6060Y-5120D01*
X5990Y-5106D01*
D02*
G37*
G36*
X120Y-5316D02*
X46Y-5331D01*
X-17Y-5373D01*
X-59Y-5436D01*
X-74Y-5510D01*
X-59Y-5584D01*
X-17Y-5647D01*
X46Y-5689D01*
X120Y-5704D01*
X194Y-5689D01*
X257Y-5647D01*
X299Y-5584D01*
X314Y-5510D01*
X299Y-5436D01*
X257Y-5373D01*
X194Y-5331D01*
X120Y-5316D01*
D02*
G37*
G36*
X5043Y-5730D02*
X4856D01*
Y-5916D01*
X4906Y-5906D01*
X4982Y-5855D01*
X5033Y-5779D01*
X5043Y-5730D01*
D02*
G37*
G36*
X-350Y-5316D02*
X-424Y-5331D01*
X-487Y-5373D01*
X-529Y-5436D01*
X-544Y-5510D01*
X-529Y-5584D01*
X-487Y-5647D01*
X-424Y-5689D01*
X-350Y-5704D01*
X-276Y-5689D01*
X-213Y-5647D01*
X-171Y-5584D01*
X-156Y-5510D01*
X-171Y-5436D01*
X-213Y-5373D01*
X-276Y-5331D01*
X-350Y-5316D01*
D02*
G37*
G36*
X3640Y-2834D02*
X3594Y-2843D01*
X3521Y-2891D01*
X3473Y-2964D01*
X3464Y-3010D01*
X3640D01*
Y-2834D01*
D02*
G37*
G36*
X3720D02*
Y-3010D01*
X3896D01*
X3887Y-2964D01*
X3839Y-2891D01*
X3766Y-2843D01*
X3720Y-2834D01*
D02*
G37*
G36*
X3896Y-3090D02*
X3720D01*
Y-3266D01*
X3766Y-3257D01*
X3839Y-3209D01*
X3887Y-3136D01*
X3896Y-3090D01*
D02*
G37*
G36*
X4630Y-3146D02*
X4556Y-3161D01*
X4493Y-3203D01*
X4451Y-3266D01*
X4436Y-3340D01*
X4451Y-3414D01*
X4493Y-3477D01*
X4556Y-3519D01*
X4630Y-3534D01*
X4704Y-3519D01*
X4767Y-3477D01*
X4809Y-3414D01*
X4824Y-3340D01*
X4809Y-3266D01*
X4767Y-3203D01*
X4704Y-3161D01*
X4630Y-3146D01*
D02*
G37*
G36*
X3640Y-3090D02*
X3464D01*
X3473Y-3136D01*
X3521Y-3209D01*
X3594Y-3257D01*
X3640Y-3266D01*
Y-3090D01*
D02*
G37*
G36*
X1950Y-2326D02*
X1876Y-2341D01*
X1813Y-2383D01*
X1771Y-2446D01*
X1756Y-2520D01*
X1764Y-2561D01*
X1719Y-2591D01*
X1674Y-2561D01*
X1600Y-2546D01*
X1526Y-2561D01*
X1463Y-2603D01*
X1421Y-2666D01*
X1406Y-2740D01*
X1421Y-2814D01*
X1463Y-2877D01*
X1526Y-2919D01*
X1600Y-2934D01*
X1674Y-2919D01*
X1737Y-2877D01*
X1779Y-2814D01*
X1794Y-2740D01*
X1786Y-2699D01*
X1831Y-2669D01*
X1876Y-2699D01*
X1950Y-2714D01*
X2024Y-2699D01*
X2087Y-2657D01*
X2129Y-2594D01*
X2144Y-2520D01*
X2129Y-2446D01*
X2087Y-2383D01*
X2024Y-2341D01*
X1950Y-2326D01*
D02*
G37*
G36*
X80Y-2016D02*
X6Y-2031D01*
X-57Y-2073D01*
X-99Y-2136D01*
X-114Y-2210D01*
X-99Y-2284D01*
X-57Y-2347D01*
X6Y-2389D01*
X80Y-2404D01*
X154Y-2389D01*
X217Y-2347D01*
X259Y-2284D01*
X274Y-2210D01*
X259Y-2136D01*
X217Y-2073D01*
X154Y-2031D01*
X80Y-2016D01*
D02*
G37*
G36*
X-5690Y-2396D02*
X-5764Y-2411D01*
X-5827Y-2453D01*
X-5869Y-2516D01*
X-5884Y-2590D01*
X-5869Y-2664D01*
X-5827Y-2727D01*
X-5764Y-2769D01*
X-5690Y-2784D01*
X-5616Y-2769D01*
X-5553Y-2727D01*
X-5511Y-2664D01*
X-5496Y-2590D01*
X-5511Y-2516D01*
X-5553Y-2453D01*
X-5616Y-2411D01*
X-5690Y-2396D01*
D02*
G37*
G36*
X-770Y-2566D02*
X-844Y-2581D01*
X-907Y-2623D01*
X-949Y-2686D01*
X-964Y-2760D01*
X-949Y-2834D01*
X-907Y-2897D01*
X-844Y-2939D01*
X-770Y-2954D01*
X-696Y-2939D01*
X-633Y-2897D01*
X-591Y-2834D01*
X-576Y-2760D01*
X-591Y-2686D01*
X-633Y-2623D01*
X-696Y-2581D01*
X-770Y-2566D01*
D02*
G37*
G36*
X780D02*
X706Y-2581D01*
X643Y-2623D01*
X601Y-2686D01*
X586Y-2760D01*
X601Y-2834D01*
X643Y-2897D01*
X706Y-2939D01*
X780Y-2954D01*
X854Y-2939D01*
X917Y-2897D01*
X959Y-2834D01*
X974Y-2760D01*
X959Y-2686D01*
X917Y-2623D01*
X854Y-2581D01*
X780Y-2566D01*
D02*
G37*
G36*
X1320Y-3703D02*
Y-3930D01*
Y-4157D01*
X1370Y-4147D01*
X1446Y-4096D01*
X1487Y-4034D01*
X1533Y-4028D01*
X1545Y-4030D01*
X1563Y-4057D01*
X1626Y-4099D01*
X1700Y-4114D01*
X1774Y-4099D01*
X1837Y-4057D01*
X1879Y-3994D01*
X1894Y-3920D01*
X1879Y-3846D01*
X1837Y-3783D01*
X1774Y-3741D01*
X1700Y-3726D01*
X1626Y-3741D01*
X1563Y-3783D01*
X1539Y-3818D01*
X1481Y-3816D01*
X1446Y-3764D01*
X1370Y-3713D01*
X1320Y-3703D01*
D02*
G37*
G36*
X1240D02*
X1190Y-3713D01*
X1114Y-3764D01*
X1063Y-3840D01*
X1053Y-3890D01*
X1240D01*
Y-3703D01*
D02*
G37*
G36*
Y-3970D02*
X1053D01*
X1063Y-4020D01*
X1114Y-4096D01*
X1190Y-4147D01*
X1240Y-4157D01*
Y-3970D01*
D02*
G37*
G36*
X4856Y-4164D02*
Y-4350D01*
X5043D01*
X5033Y-4301D01*
X4982Y-4225D01*
X4906Y-4174D01*
X4856Y-4164D01*
D02*
G37*
G36*
X4776D02*
X4726Y-4174D01*
X4650Y-4225D01*
X4625Y-4263D01*
X4575D01*
X4549Y-4225D01*
X4473Y-4174D01*
X4423Y-4164D01*
Y-4390D01*
X4343D01*
Y-4164D01*
X4293Y-4174D01*
X4217Y-4225D01*
X4192Y-4263D01*
X4142D01*
X4116Y-4225D01*
X4040Y-4174D01*
X3990Y-4164D01*
Y-4390D01*
X3910D01*
Y-4164D01*
X3860Y-4174D01*
X3784Y-4225D01*
X3758Y-4263D01*
X3708D01*
X3683Y-4225D01*
X3607Y-4174D01*
X3557Y-4164D01*
Y-4390D01*
X3477D01*
Y-4164D01*
X3427Y-4174D01*
X3351Y-4225D01*
X3325Y-4263D01*
X3275D01*
X3250Y-4225D01*
X3174Y-4174D01*
X3124Y-4164D01*
Y-4390D01*
X3084D01*
Y-4430D01*
X2857D01*
X2867Y-4480D01*
X2918Y-4556D01*
X2957Y-4582D01*
Y-4632D01*
X2918Y-4658D01*
X2867Y-4734D01*
X2857Y-4783D01*
X3084D01*
Y-4863D01*
X2857D01*
X2867Y-4913D01*
X2918Y-4989D01*
X2957Y-5015D01*
Y-5065D01*
X2918Y-5091D01*
X2867Y-5167D01*
X2857Y-5217D01*
X3084D01*
Y-5297D01*
X2857D01*
X2867Y-5346D01*
X2918Y-5422D01*
X2957Y-5448D01*
Y-5498D01*
X2918Y-5524D01*
X2867Y-5600D01*
X2857Y-5650D01*
X3084D01*
Y-5690D01*
X3124D01*
Y-5916D01*
X3174Y-5906D01*
X3250Y-5855D01*
X3275Y-5817D01*
X3325D01*
X3351Y-5855D01*
X3427Y-5906D01*
X3477Y-5916D01*
Y-5690D01*
X3557D01*
Y-5916D01*
X3607Y-5906D01*
X3683Y-5855D01*
X3708Y-5817D01*
X3758D01*
X3784Y-5855D01*
X3860Y-5906D01*
X3910Y-5916D01*
Y-5690D01*
X3990D01*
Y-5916D01*
X4040Y-5906D01*
X4116Y-5855D01*
X4142Y-5817D01*
X4192D01*
X4217Y-5855D01*
X4293Y-5906D01*
X4343Y-5916D01*
Y-5690D01*
X4423D01*
Y-5916D01*
X4473Y-5906D01*
X4549Y-5855D01*
X4575Y-5817D01*
X4625D01*
X4650Y-5855D01*
X4726Y-5906D01*
X4776Y-5916D01*
Y-5690D01*
X4816D01*
Y-5650D01*
X5043D01*
X5033Y-5600D01*
X4982Y-5524D01*
X4943Y-5498D01*
Y-5448D01*
X4982Y-5422D01*
X5033Y-5346D01*
X5043Y-5297D01*
X4816D01*
Y-5217D01*
X5043D01*
X5033Y-5167D01*
X4982Y-5091D01*
X4943Y-5065D01*
Y-5015D01*
X4982Y-4989D01*
X5033Y-4913D01*
X5043Y-4863D01*
X4816D01*
Y-4783D01*
X5043D01*
X5033Y-4734D01*
X4982Y-4658D01*
X4943Y-4632D01*
Y-4582D01*
X4982Y-4556D01*
X5033Y-4480D01*
X5043Y-4430D01*
X4816D01*
Y-4390D01*
X4776D01*
Y-4164D01*
D02*
G37*
G36*
X2230Y-3276D02*
X2156Y-3291D01*
X2093Y-3333D01*
X2051Y-3396D01*
X2036Y-3470D01*
X2051Y-3544D01*
X2093Y-3607D01*
X2156Y-3649D01*
X2230Y-3664D01*
X2304Y-3649D01*
X2367Y-3607D01*
X2409Y-3544D01*
X2424Y-3470D01*
X2409Y-3396D01*
X2367Y-3333D01*
X2304Y-3291D01*
X2230Y-3276D01*
D02*
G37*
G36*
X-1010Y-3146D02*
X-1084Y-3161D01*
X-1147Y-3203D01*
X-1189Y-3266D01*
X-1204Y-3340D01*
X-1189Y-3414D01*
X-1147Y-3477D01*
X-1084Y-3519D01*
X-1010Y-3534D01*
X-936Y-3519D01*
X-873Y-3477D01*
X-831Y-3414D01*
X-816Y-3340D01*
X-831Y-3266D01*
X-873Y-3203D01*
X-936Y-3161D01*
X-1010Y-3146D01*
D02*
G37*
G36*
X850Y-3286D02*
X776Y-3301D01*
X713Y-3343D01*
X671Y-3406D01*
X656Y-3480D01*
X671Y-3554D01*
X713Y-3617D01*
X776Y-3659D01*
X850Y-3674D01*
X924Y-3659D01*
X987Y-3617D01*
X1029Y-3554D01*
X1044Y-3480D01*
X1029Y-3406D01*
X987Y-3343D01*
X924Y-3301D01*
X850Y-3286D01*
D02*
G37*
G36*
X-4320Y-3476D02*
X-4394Y-3491D01*
X-4457Y-3533D01*
X-4499Y-3596D01*
X-4514Y-3670D01*
X-4499Y-3744D01*
X-4457Y-3807D01*
X-4394Y-3849D01*
X-4320Y-3864D01*
X-4246Y-3849D01*
X-4183Y-3807D01*
X-4141Y-3744D01*
X-4126Y-3670D01*
X-4141Y-3596D01*
X-4183Y-3533D01*
X-4246Y-3491D01*
X-4320Y-3476D01*
D02*
G37*
G36*
X-5780Y-3466D02*
X-5854Y-3481D01*
X-5917Y-3523D01*
X-5959Y-3586D01*
X-5974Y-3660D01*
X-5959Y-3734D01*
X-5929Y-3779D01*
X-5965Y-3815D01*
X-5986Y-3801D01*
X-6060Y-3786D01*
X-6134Y-3801D01*
X-6197Y-3843D01*
X-6239Y-3906D01*
X-6254Y-3980D01*
X-6239Y-4054D01*
X-6197Y-4117D01*
X-6134Y-4159D01*
X-6088Y-4168D01*
Y-4168D01*
X-6084Y-4195D01*
X-6088Y-4222D01*
X-6088D01*
X-6088Y-4222D01*
X-6134Y-4231D01*
X-6197Y-4273D01*
X-6239Y-4336D01*
X-6254Y-4410D01*
X-6239Y-4484D01*
X-6197Y-4547D01*
X-6134Y-4589D01*
X-6060Y-4604D01*
X-5986Y-4589D01*
X-5923Y-4547D01*
X-5881Y-4484D01*
X-5866Y-4410D01*
X-5881Y-4336D01*
X-5923Y-4273D01*
X-5986Y-4231D01*
X-6032Y-4222D01*
Y-4222D01*
X-6036Y-4195D01*
X-6032Y-4168D01*
X-6032D01*
X-6032Y-4168D01*
X-5986Y-4159D01*
X-5951Y-4136D01*
X-5886Y-4144D01*
X-5877Y-4157D01*
X-5814Y-4199D01*
X-5740Y-4214D01*
X-5666Y-4199D01*
X-5603Y-4157D01*
X-5561Y-4094D01*
X-5546Y-4020D01*
X-5561Y-3946D01*
X-5603Y-3883D01*
X-5642Y-3857D01*
X-5645Y-3798D01*
X-5643Y-3797D01*
X-5601Y-3734D01*
X-5586Y-3660D01*
X-5601Y-3586D01*
X-5643Y-3523D01*
X-5706Y-3481D01*
X-5780Y-3466D01*
D02*
G37*
G36*
X1970Y1042D02*
Y840D01*
X2172D01*
X2161Y896D01*
X2107Y977D01*
X2026Y1031D01*
X1970Y1042D01*
D02*
G37*
G36*
X10Y4807D02*
X-40Y4797D01*
X-116Y4746D01*
X-125Y4732D01*
X-175D01*
X-184Y4746D01*
X-260Y4797D01*
X-310Y4807D01*
Y4580D01*
X-350D01*
Y4540D01*
X-577D01*
X-567Y4490D01*
X-516Y4414D01*
X-482Y4392D01*
Y4332D01*
X-506Y4316D01*
X-557Y4240D01*
X-567Y4190D01*
X-113D01*
X-123Y4240D01*
X-174Y4316D01*
X-208Y4338D01*
Y4398D01*
X-184Y4414D01*
X-175Y4428D01*
X-125D01*
X-116Y4414D01*
X-40Y4363D01*
X10Y4353D01*
Y4580D01*
Y4807D01*
D02*
G37*
G36*
X4686Y4840D02*
X4636Y4830D01*
X4560Y4779D01*
X4535Y4740D01*
X4485D01*
X4459Y4779D01*
X4383Y4830D01*
X4333Y4840D01*
Y4613D01*
X4253D01*
Y4840D01*
X4203Y4830D01*
X4127Y4779D01*
X4102Y4740D01*
X4052D01*
X4026Y4779D01*
X3950Y4830D01*
X3900Y4840D01*
Y4613D01*
X3860D01*
Y4573D01*
X3633D01*
X3643Y4523D01*
X3694Y4447D01*
X3733Y4422D01*
Y4372D01*
X3694Y4346D01*
X3643Y4270D01*
X3633Y4220D01*
X3860D01*
Y4140D01*
X3633D01*
X3643Y4090D01*
X3694Y4014D01*
X3733Y3988D01*
Y3938D01*
X3694Y3913D01*
X3643Y3837D01*
X3633Y3787D01*
X3860D01*
Y3747D01*
X3900D01*
Y3520D01*
X3950Y3530D01*
X4026Y3581D01*
X4052Y3620D01*
X4102D01*
X4127Y3581D01*
X4203Y3530D01*
X4253Y3520D01*
Y3747D01*
X4333D01*
Y3520D01*
X4383Y3530D01*
X4459Y3581D01*
X4485Y3620D01*
X4535D01*
X4560Y3581D01*
X4636Y3530D01*
X4686Y3520D01*
Y3747D01*
X4726D01*
Y3787D01*
X4953D01*
X4943Y3837D01*
X4892Y3913D01*
X4853Y3938D01*
Y3988D01*
X4892Y4014D01*
X4943Y4090D01*
X4953Y4140D01*
X4726D01*
Y4220D01*
X4953D01*
X4943Y4270D01*
X4892Y4346D01*
X4853Y4372D01*
Y4422D01*
X4892Y4447D01*
X4943Y4523D01*
X4953Y4573D01*
X4726D01*
Y4613D01*
X4686D01*
Y4840D01*
D02*
G37*
G36*
X-1890Y5054D02*
X-1964Y5039D01*
X-2027Y4997D01*
X-2069Y4934D01*
X-2084Y4860D01*
X-2069Y4786D01*
X-2027Y4723D01*
X-1964Y4681D01*
X-1890Y4666D01*
X-1816Y4681D01*
X-1753Y4723D01*
X-1711Y4786D01*
X-1696Y4860D01*
X-1711Y4934D01*
X-1753Y4997D01*
X-1816Y5039D01*
X-1890Y5054D01*
D02*
G37*
G36*
X3820Y4840D02*
X3770Y4830D01*
X3694Y4779D01*
X3643Y4703D01*
X3633Y4653D01*
X3820D01*
Y4840D01*
D02*
G37*
G36*
X4766D02*
Y4653D01*
X4953D01*
X4943Y4703D01*
X4892Y4779D01*
X4816Y4830D01*
X4766Y4840D01*
D02*
G37*
G36*
X-5983Y5230D02*
X-6170D01*
Y5043D01*
X-6120Y5053D01*
X-6044Y5104D01*
X-5993Y5180D01*
X-5983Y5230D01*
D02*
G37*
G36*
X-1600Y5480D02*
X-1787D01*
X-1777Y5430D01*
X-1726Y5354D01*
X-1650Y5303D01*
X-1600Y5293D01*
Y5480D01*
D02*
G37*
G36*
X3030Y5459D02*
X2950Y5443D01*
X2882Y5398D01*
X2837Y5330D01*
X2821Y5250D01*
X2837Y5170D01*
X2882Y5102D01*
X2950Y5057D01*
X3030Y5041D01*
X3110Y5057D01*
X3178Y5102D01*
X3223Y5170D01*
X3239Y5250D01*
X3223Y5330D01*
X3178Y5398D01*
X3110Y5443D01*
X3030Y5459D01*
D02*
G37*
G36*
X2580Y5077D02*
X2530Y5067D01*
X2454Y5016D01*
X2403Y4940D01*
X2393Y4890D01*
X2580D01*
Y5077D01*
D02*
G37*
G36*
X2660D02*
Y4890D01*
X2847D01*
X2837Y4940D01*
X2786Y5016D01*
X2710Y5067D01*
X2660Y5077D01*
D02*
G37*
G36*
X1780Y4692D02*
X1724Y4681D01*
X1643Y4627D01*
X1589Y4546D01*
X1578Y4490D01*
X1780D01*
Y4692D01*
D02*
G37*
G36*
X1860D02*
Y4490D01*
X2062D01*
X2051Y4546D01*
X1997Y4627D01*
X1916Y4681D01*
X1860Y4692D01*
D02*
G37*
G36*
X-2687Y4599D02*
Y4413D01*
X-2501D01*
X-2511Y4462D01*
X-2562Y4539D01*
X-2638Y4589D01*
X-2687Y4599D01*
D02*
G37*
G36*
X90Y4807D02*
Y4580D01*
Y4353D01*
X140Y4363D01*
X216Y4414D01*
X244Y4456D01*
X304D01*
X313Y4443D01*
X376Y4401D01*
X450Y4386D01*
X524Y4401D01*
X587Y4443D01*
X629Y4506D01*
X644Y4580D01*
X629Y4654D01*
X587Y4717D01*
X524Y4759D01*
X450Y4774D01*
X376Y4759D01*
X313Y4717D01*
X304Y4704D01*
X244D01*
X216Y4746D01*
X140Y4797D01*
X90Y4807D01*
D02*
G37*
G36*
X-4933Y4599D02*
X-4982Y4589D01*
X-5059Y4539D01*
X-5109Y4462D01*
X-5119Y4413D01*
X-4933D01*
Y4599D01*
D02*
G37*
G36*
X2580Y4810D02*
X2393D01*
X2403Y4760D01*
X2454Y4684D01*
X2530Y4633D01*
X2580Y4623D01*
Y4810D01*
D02*
G37*
G36*
X2847D02*
X2660D01*
Y4623D01*
X2710Y4633D01*
X2786Y4684D01*
X2837Y4760D01*
X2847Y4810D01*
D02*
G37*
G36*
X-390Y4807D02*
X-440Y4797D01*
X-516Y4746D01*
X-567Y4670D01*
X-577Y4620D01*
X-390D01*
Y4807D01*
D02*
G37*
G36*
X-2767Y4599D02*
X-2817Y4589D01*
X-2893Y4539D01*
X-2916Y4505D01*
X-2972D01*
X-2995Y4539D01*
X-3071Y4589D01*
X-3120Y4599D01*
Y4373D01*
X-3200D01*
Y4599D01*
X-3250Y4589D01*
X-3326Y4539D01*
X-3349Y4505D01*
X-3405D01*
X-3428Y4539D01*
X-3504Y4589D01*
X-3553Y4599D01*
Y4373D01*
X-3633D01*
Y4599D01*
X-3683Y4589D01*
X-3759Y4539D01*
X-3782Y4505D01*
X-3838D01*
X-3861Y4539D01*
X-3937Y4589D01*
X-3987Y4599D01*
Y4373D01*
X-4067D01*
Y4599D01*
X-4116Y4589D01*
X-4192Y4539D01*
X-4215Y4505D01*
X-4271D01*
X-4294Y4539D01*
X-4370Y4589D01*
X-4420Y4599D01*
Y4373D01*
X-4500D01*
Y4599D01*
X-4549Y4589D01*
X-4625Y4539D01*
X-4648Y4505D01*
X-4704D01*
X-4727Y4539D01*
X-4803Y4589D01*
X-4853Y4599D01*
Y4373D01*
X-4893D01*
Y4333D01*
X-5119D01*
X-5109Y4283D01*
X-5059Y4207D01*
X-5020Y4181D01*
Y4131D01*
X-5059Y4105D01*
X-5109Y4029D01*
X-5119Y3980D01*
X-4893D01*
Y3900D01*
X-5119D01*
X-5109Y3850D01*
X-5059Y3774D01*
X-5020Y3748D01*
Y3698D01*
X-5059Y3672D01*
X-5109Y3596D01*
X-5119Y3547D01*
X-4893D01*
Y3467D01*
X-5119D01*
X-5109Y3417D01*
X-5059Y3341D01*
X-5020Y3315D01*
Y3265D01*
X-5059Y3239D01*
X-5109Y3163D01*
X-5119Y3113D01*
X-4893D01*
Y3033D01*
X-5119D01*
X-5109Y2984D01*
X-5059Y2908D01*
X-5020Y2882D01*
Y2832D01*
X-5059Y2806D01*
X-5109Y2730D01*
X-5119Y2680D01*
X-4893D01*
Y2600D01*
X-5119D01*
X-5109Y2551D01*
X-5059Y2475D01*
X-5025Y2452D01*
Y2396D01*
X-5059Y2373D01*
X-5109Y2297D01*
X-5119Y2247D01*
X-4893D01*
Y2207D01*
X-4853D01*
Y1981D01*
X-4803Y1991D01*
X-4727Y2042D01*
X-4704Y2075D01*
X-4648D01*
X-4625Y2042D01*
X-4549Y1991D01*
X-4500Y1981D01*
Y2207D01*
X-4420D01*
Y1981D01*
X-4370Y1991D01*
X-4294Y2042D01*
X-4271Y2075D01*
X-4215D01*
X-4192Y2042D01*
X-4116Y1991D01*
X-4067Y1981D01*
Y2207D01*
X-3987D01*
Y1981D01*
X-3937Y1991D01*
X-3861Y2042D01*
X-3838Y2075D01*
X-3782D01*
X-3759Y2042D01*
X-3683Y1991D01*
X-3633Y1981D01*
Y2207D01*
X-3553D01*
Y1981D01*
X-3504Y1991D01*
X-3428Y2042D01*
X-3405Y2075D01*
X-3349D01*
X-3326Y2042D01*
X-3250Y1991D01*
X-3200Y1981D01*
Y2207D01*
X-3120D01*
Y1981D01*
X-3071Y1991D01*
X-2995Y2042D01*
X-2972Y2075D01*
X-2916D01*
X-2893Y2042D01*
X-2817Y1991D01*
X-2767Y1981D01*
Y2207D01*
X-2727D01*
Y2247D01*
X-2501D01*
X-2511Y2297D01*
X-2562Y2373D01*
X-2595Y2396D01*
Y2452D01*
X-2562Y2475D01*
X-2511Y2551D01*
X-2501Y2600D01*
X-2727D01*
Y2680D01*
X-2501D01*
X-2511Y2730D01*
X-2562Y2806D01*
X-2600Y2832D01*
Y2882D01*
X-2562Y2908D01*
X-2511Y2984D01*
X-2501Y3033D01*
X-2727D01*
Y3113D01*
X-2501D01*
X-2511Y3163D01*
X-2562Y3239D01*
X-2600Y3265D01*
Y3315D01*
X-2562Y3341D01*
X-2511Y3417D01*
X-2501Y3467D01*
X-2727D01*
Y3547D01*
X-2501D01*
X-2511Y3596D01*
X-2562Y3672D01*
X-2600Y3698D01*
Y3748D01*
X-2562Y3774D01*
X-2511Y3850D01*
X-2501Y3900D01*
X-2727D01*
Y3980D01*
X-2501D01*
X-2511Y4029D01*
X-2562Y4105D01*
X-2600Y4131D01*
Y4181D01*
X-2562Y4207D01*
X-2511Y4283D01*
X-2501Y4333D01*
X-2727D01*
Y4373D01*
X-2767D01*
Y4599D01*
D02*
G37*
G36*
X5700Y4964D02*
X5626Y4949D01*
X5563Y4907D01*
X5521Y4844D01*
X5506Y4770D01*
X5521Y4696D01*
X5563Y4633D01*
X5626Y4591D01*
X5700Y4576D01*
X5774Y4591D01*
X5837Y4633D01*
X5879Y4696D01*
X5894Y4770D01*
X5879Y4844D01*
X5837Y4907D01*
X5774Y4949D01*
X5700Y4964D01*
D02*
G37*
G36*
X-3600Y5994D02*
X-3674Y5979D01*
X-3737Y5937D01*
X-3779Y5874D01*
X-3794Y5800D01*
X-3779Y5726D01*
X-3737Y5663D01*
X-3674Y5621D01*
X-3600Y5606D01*
X-3526Y5621D01*
X-3475Y5655D01*
X-3414Y5654D01*
X-3407Y5643D01*
X-3344Y5601D01*
X-3270Y5586D01*
X-3196Y5601D01*
X-3133Y5643D01*
X-3091Y5706D01*
X-3076Y5780D01*
X-3091Y5854D01*
X-3133Y5917D01*
X-3196Y5959D01*
X-3270Y5974D01*
X-3344Y5959D01*
X-3395Y5925D01*
X-3456Y5926D01*
X-3463Y5937D01*
X-3526Y5979D01*
X-3600Y5994D01*
D02*
G37*
G36*
X-5090Y5834D02*
X-5164Y5819D01*
X-5227Y5777D01*
X-5260Y5728D01*
X-5304Y5721D01*
X-5318Y5724D01*
X-5333Y5747D01*
X-5396Y5789D01*
X-5470Y5804D01*
X-5544Y5789D01*
X-5607Y5747D01*
X-5649Y5684D01*
X-5664Y5610D01*
X-5649Y5536D01*
X-5607Y5473D01*
X-5544Y5431D01*
X-5470Y5416D01*
X-5396Y5431D01*
X-5333Y5473D01*
X-5300Y5522D01*
X-5256Y5529D01*
X-5242Y5526D01*
X-5227Y5503D01*
X-5164Y5461D01*
X-5090Y5446D01*
X-5016Y5461D01*
X-4953Y5503D01*
X-4911Y5566D01*
X-4896Y5640D01*
X-4911Y5714D01*
X-4953Y5777D01*
X-5016Y5819D01*
X-5090Y5834D01*
D02*
G37*
G36*
X2320Y5746D02*
Y5570D01*
X2496D01*
X2487Y5616D01*
X2439Y5689D01*
X2366Y5737D01*
X2320Y5746D01*
D02*
G37*
G36*
X-20Y5747D02*
Y5560D01*
X167D01*
X157Y5610D01*
X106Y5686D01*
X30Y5737D01*
X-20Y5747D01*
D02*
G37*
G36*
X2240Y5746D02*
X2194Y5737D01*
X2121Y5689D01*
X2073Y5616D01*
X2064Y5570D01*
X2240D01*
Y5746D01*
D02*
G37*
G36*
X5350Y6307D02*
X5300Y6297D01*
X5224Y6246D01*
X5173Y6170D01*
X5163Y6120D01*
X5350D01*
Y6307D01*
D02*
G37*
G36*
X5430D02*
Y6120D01*
X5617D01*
X5607Y6170D01*
X5556Y6246D01*
X5480Y6297D01*
X5430Y6307D01*
D02*
G37*
G36*
X-4030Y6274D02*
X-4104Y6259D01*
X-4167Y6217D01*
X-4209Y6154D01*
X-4224Y6080D01*
X-4209Y6006D01*
X-4167Y5943D01*
X-4104Y5901D01*
X-4030Y5886D01*
X-3956Y5901D01*
X-3893Y5943D01*
X-3851Y6006D01*
X-3836Y6080D01*
X-3851Y6154D01*
X-3893Y6217D01*
X-3956Y6259D01*
X-4030Y6274D01*
D02*
G37*
G36*
X5350Y6040D02*
X5163D01*
X5173Y5990D01*
X5224Y5914D01*
X5300Y5863D01*
X5350Y5853D01*
Y6040D01*
D02*
G37*
G36*
X5617D02*
X5430D01*
Y5853D01*
X5480Y5863D01*
X5556Y5914D01*
X5607Y5990D01*
X5617Y6040D01*
D02*
G37*
G36*
X-6170Y5497D02*
Y5310D01*
X-5983D01*
X-5993Y5360D01*
X-6044Y5436D01*
X-6120Y5487D01*
X-6170Y5497D01*
D02*
G37*
G36*
X2240Y5490D02*
X2064D01*
X2073Y5444D01*
X2121Y5371D01*
X2194Y5323D01*
X2240Y5314D01*
Y5490D01*
D02*
G37*
G36*
X167Y5480D02*
X-20D01*
Y5293D01*
X30Y5303D01*
X106Y5354D01*
X157Y5430D01*
X167Y5480D01*
D02*
G37*
G36*
X-1333D02*
X-1520D01*
Y5293D01*
X-1470Y5303D01*
X-1394Y5354D01*
X-1343Y5430D01*
X-1333Y5480D01*
D02*
G37*
G36*
X-100D02*
X-287D01*
X-277Y5430D01*
X-226Y5354D01*
X-150Y5303D01*
X-100Y5293D01*
Y5480D01*
D02*
G37*
G36*
X-1520Y5747D02*
Y5560D01*
X-1333D01*
X-1343Y5610D01*
X-1394Y5686D01*
X-1470Y5737D01*
X-1520Y5747D01*
D02*
G37*
G36*
X-100D02*
X-150Y5737D01*
X-226Y5686D01*
X-277Y5610D01*
X-287Y5560D01*
X-100D01*
Y5747D01*
D02*
G37*
G36*
X-1600D02*
X-1650Y5737D01*
X-1726Y5686D01*
X-1777Y5610D01*
X-1787Y5560D01*
X-1600D01*
Y5747D01*
D02*
G37*
G36*
X2496Y5490D02*
X2320D01*
Y5314D01*
X2366Y5323D01*
X2439Y5371D01*
X2487Y5444D01*
X2496Y5490D01*
D02*
G37*
G36*
X-2870Y5704D02*
X-2944Y5689D01*
X-3007Y5647D01*
X-3049Y5584D01*
X-3064Y5510D01*
X-3062Y5499D01*
X-3104Y5457D01*
X-3140Y5464D01*
X-3214Y5449D01*
X-3277Y5407D01*
X-3319Y5344D01*
X-3334Y5270D01*
X-3319Y5196D01*
X-3277Y5133D01*
X-3214Y5091D01*
X-3140Y5076D01*
X-3066Y5091D01*
X-3003Y5133D01*
X-2961Y5196D01*
X-2946Y5270D01*
X-2948Y5281D01*
X-2906Y5323D01*
X-2870Y5316D01*
X-2796Y5331D01*
X-2778Y5343D01*
X-2733Y5313D01*
X-2744Y5260D01*
X-2729Y5186D01*
X-2687Y5123D01*
X-2624Y5081D01*
X-2550Y5066D01*
X-2476Y5081D01*
X-2413Y5123D01*
X-2371Y5186D01*
X-2356Y5260D01*
X-2371Y5334D01*
X-2413Y5397D01*
X-2476Y5439D01*
X-2550Y5454D01*
X-2624Y5439D01*
X-2642Y5427D01*
X-2687Y5457D01*
X-2676Y5510D01*
X-2691Y5584D01*
X-2733Y5647D01*
X-2796Y5689D01*
X-2870Y5704D01*
D02*
G37*
G36*
X2600Y1732D02*
Y1530D01*
X2802D01*
X2791Y1586D01*
X2737Y1667D01*
X2656Y1721D01*
X2600Y1732D01*
D02*
G37*
G36*
X-6030Y2034D02*
X-6104Y2019D01*
X-6167Y1977D01*
X-6209Y1914D01*
X-6224Y1840D01*
X-6209Y1766D01*
X-6167Y1703D01*
X-6104Y1661D01*
X-6030Y1646D01*
X-5956Y1661D01*
X-5893Y1703D01*
X-5851Y1766D01*
X-5836Y1840D01*
X-5851Y1914D01*
X-5893Y1977D01*
X-5956Y2019D01*
X-6030Y2034D01*
D02*
G37*
G36*
X2520Y1732D02*
X2464Y1721D01*
X2383Y1667D01*
X2329Y1586D01*
X2318Y1530D01*
X2520D01*
Y1732D01*
D02*
G37*
G36*
X-2970Y1464D02*
X-3040Y1450D01*
X-3100Y1410D01*
X-3119Y1381D01*
X-3179Y1381D01*
X-3183Y1387D01*
X-3246Y1429D01*
X-3320Y1444D01*
X-3394Y1429D01*
X-3457Y1387D01*
X-3499Y1324D01*
X-3514Y1250D01*
X-3499Y1176D01*
X-3457Y1113D01*
X-3394Y1071D01*
X-3320Y1056D01*
X-3246Y1071D01*
X-3183Y1113D01*
X-3159Y1149D01*
X-3100Y1150D01*
X-3099Y1150D01*
X-3040Y1110D01*
X-2970Y1096D01*
X-2900Y1110D01*
X-2840Y1150D01*
X-2800Y1210D01*
X-2796Y1231D01*
X-2796Y1231D01*
X-2793Y1249D01*
X-2792Y1249D01*
X-2789Y1248D01*
X-2786Y1248D01*
X-2780Y1247D01*
X-2740Y1223D01*
X-2731Y1177D01*
X-2729Y1166D01*
X-2687Y1103D01*
X-2624Y1061D01*
X-2550Y1046D01*
X-2476Y1061D01*
X-2413Y1103D01*
X-2371Y1166D01*
X-2356Y1240D01*
X-2371Y1314D01*
X-2413Y1377D01*
X-2476Y1419D01*
X-2550Y1434D01*
X-2624Y1419D01*
X-2687Y1377D01*
X-2729Y1314D01*
X-2734Y1289D01*
Y1289D01*
X-2738Y1271D01*
X-2738Y1271D01*
X-2742Y1272D01*
X-2744Y1272D01*
X-2750Y1273D01*
X-2790Y1297D01*
X-2799Y1343D01*
X-2800Y1350D01*
X-2840Y1410D01*
X-2900Y1450D01*
X-2970Y1464D01*
D02*
G37*
G36*
X6090Y1864D02*
X6016Y1849D01*
X5953Y1807D01*
X5911Y1744D01*
X5896Y1670D01*
X5911Y1596D01*
X5953Y1533D01*
X6016Y1491D01*
X6090Y1476D01*
X6164Y1491D01*
X6227Y1533D01*
X6269Y1596D01*
X6284Y1670D01*
X6269Y1744D01*
X6227Y1807D01*
X6164Y1849D01*
X6090Y1864D01*
D02*
G37*
G36*
X-380Y2474D02*
X-454Y2459D01*
X-517Y2417D01*
X-559Y2354D01*
X-574Y2280D01*
X-559Y2206D01*
X-517Y2143D01*
X-454Y2101D01*
X-380Y2086D01*
X-306Y2101D01*
X-243Y2143D01*
X-201Y2206D01*
X-186Y2280D01*
X-201Y2354D01*
X-243Y2417D01*
X-306Y2459D01*
X-380Y2474D01*
D02*
G37*
G36*
X900Y2750D02*
X698D01*
X709Y2694D01*
X763Y2613D01*
X844Y2559D01*
X900Y2548D01*
Y2750D01*
D02*
G37*
G36*
X-2501Y2167D02*
X-2687D01*
Y1981D01*
X-2638Y1991D01*
X-2562Y2042D01*
X-2511Y2118D01*
X-2501Y2167D01*
D02*
G37*
G36*
X90Y2204D02*
X16Y2189D01*
X-47Y2147D01*
X-89Y2085D01*
X-104Y2010D01*
X-89Y1936D01*
X-47Y1873D01*
X16Y1831D01*
X90Y1817D01*
X164Y1831D01*
X227Y1873D01*
X269Y1936D01*
X284Y2010D01*
X269Y2085D01*
X227Y2147D01*
X164Y2189D01*
X90Y2204D01*
D02*
G37*
G36*
X-4933Y2167D02*
X-5119D01*
X-5109Y2118D01*
X-5059Y2042D01*
X-4982Y1991D01*
X-4933Y1981D01*
Y2167D01*
D02*
G37*
G36*
X-2000Y1424D02*
X-2074Y1409D01*
X-2137Y1367D01*
X-2179Y1304D01*
X-2194Y1230D01*
X-2179Y1156D01*
X-2137Y1093D01*
X-2074Y1051D01*
X-2000Y1036D01*
X-1926Y1051D01*
X-1863Y1093D01*
X-1821Y1156D01*
X-1806Y1230D01*
X-1821Y1304D01*
X-1863Y1367D01*
X-1926Y1409D01*
X-2000Y1424D01*
D02*
G37*
G36*
X-6013Y1290D02*
X-6200D01*
Y1103D01*
X-6150Y1113D01*
X-6074Y1164D01*
X-6023Y1240D01*
X-6013Y1290D01*
D02*
G37*
G36*
X3350Y1394D02*
X3280Y1380D01*
X3220Y1340D01*
X3180Y1280D01*
X3166Y1210D01*
X3180Y1140D01*
X3220Y1080D01*
X3280Y1040D01*
X3350Y1026D01*
X3420Y1040D01*
X3480Y1080D01*
X3520Y1140D01*
X3534Y1210D01*
X3520Y1280D01*
X3480Y1340D01*
X3420Y1380D01*
X3350Y1394D01*
D02*
G37*
G36*
X1360Y1180D02*
X1158D01*
X1169Y1124D01*
X1223Y1043D01*
X1304Y989D01*
X1360Y978D01*
Y1180D01*
D02*
G37*
G36*
X1642D02*
X1440D01*
Y978D01*
X1496Y989D01*
X1577Y1043D01*
X1631Y1124D01*
X1642Y1180D01*
D02*
G37*
G36*
X1440Y1462D02*
Y1260D01*
X1642D01*
X1631Y1316D01*
X1577Y1397D01*
X1496Y1451D01*
X1440Y1462D01*
D02*
G37*
G36*
X-6200Y1557D02*
Y1370D01*
X-6013D01*
X-6023Y1420D01*
X-6074Y1496D01*
X-6150Y1547D01*
X-6200Y1557D01*
D02*
G37*
G36*
X1360Y1462D02*
X1304Y1451D01*
X1223Y1397D01*
X1169Y1316D01*
X1158Y1260D01*
X1360D01*
Y1462D01*
D02*
G37*
G36*
X2520Y1450D02*
X2318D01*
X2329Y1394D01*
X2383Y1313D01*
X2464Y1259D01*
X2520Y1248D01*
Y1450D01*
D02*
G37*
G36*
X2802D02*
X2600D01*
Y1248D01*
X2656Y1259D01*
X2737Y1313D01*
X2791Y1394D01*
X2802Y1450D01*
D02*
G37*
G36*
X-1120Y3850D02*
X-1307D01*
X-1305Y3842D01*
X-1346Y3809D01*
X-1420Y3824D01*
X-1494Y3809D01*
X-1557Y3767D01*
X-1599Y3704D01*
X-1614Y3630D01*
X-1599Y3556D01*
X-1557Y3493D01*
X-1494Y3451D01*
X-1420Y3436D01*
X-1346Y3451D01*
X-1283Y3493D01*
X-1241Y3556D01*
X-1226Y3630D01*
X-1231Y3654D01*
X-1186Y3684D01*
X-1170Y3673D01*
X-1120Y3663D01*
Y3850D01*
D02*
G37*
G36*
X1760Y4010D02*
X1573D01*
X1583Y3960D01*
X1634Y3884D01*
X1710Y3833D01*
X1760Y3823D01*
Y4010D01*
D02*
G37*
G36*
X930Y3922D02*
Y3720D01*
X1132D01*
X1121Y3776D01*
X1067Y3857D01*
X986Y3911D01*
X930Y3922D01*
D02*
G37*
G36*
X2180Y3892D02*
Y3690D01*
X2382D01*
X2371Y3746D01*
X2317Y3827D01*
X2236Y3881D01*
X2180Y3892D01*
D02*
G37*
G36*
X850Y3922D02*
X794Y3911D01*
X713Y3857D01*
X659Y3776D01*
X648Y3720D01*
X850D01*
Y3922D01*
D02*
G37*
G36*
X-1040Y4117D02*
Y3930D01*
X-853D01*
X-863Y3980D01*
X-914Y4056D01*
X-990Y4107D01*
X-1040Y4117D01*
D02*
G37*
G36*
X2062Y4410D02*
X1578D01*
X1589Y4354D01*
X1639Y4279D01*
X1644Y4260D01*
Y4223D01*
X1634Y4216D01*
X1583Y4140D01*
X1573Y4090D01*
X2027D01*
X2017Y4140D01*
X1966Y4216D01*
Y4253D01*
X1997Y4273D01*
X2051Y4354D01*
X2062Y4410D01*
D02*
G37*
G36*
X-1120Y4117D02*
X-1170Y4107D01*
X-1246Y4056D01*
X-1297Y3980D01*
X-1307Y3930D01*
X-1120D01*
Y4117D01*
D02*
G37*
G36*
X-380Y4110D02*
X-567D01*
X-557Y4060D01*
X-506Y3984D01*
X-430Y3933D01*
X-380Y3923D01*
Y4110D01*
D02*
G37*
G36*
X-113D02*
X-300D01*
Y3923D01*
X-250Y3933D01*
X-174Y3984D01*
X-123Y4060D01*
X-113Y4110D01*
D02*
G37*
G36*
X-1730Y2974D02*
X-1804Y2959D01*
X-1867Y2917D01*
X-1909Y2854D01*
X-1924Y2780D01*
X-1909Y2706D01*
X-1867Y2643D01*
X-1804Y2601D01*
X-1730Y2586D01*
X-1656Y2601D01*
X-1593Y2643D01*
X-1551Y2706D01*
X-1536Y2780D01*
X-1551Y2854D01*
X-1593Y2917D01*
X-1656Y2959D01*
X-1730Y2974D01*
D02*
G37*
G36*
X1132Y3640D02*
X648D01*
X659Y3584D01*
X713Y3503D01*
X749Y3479D01*
Y3429D01*
X732Y3418D01*
X687Y3350D01*
X671Y3270D01*
X687Y3190D01*
X732Y3122D01*
X800Y3077D01*
X835Y3070D01*
X842Y3035D01*
X840Y3018D01*
X763Y2967D01*
X709Y2886D01*
X698Y2830D01*
X1182D01*
X1171Y2886D01*
X1117Y2967D01*
X1036Y3021D01*
X977Y3033D01*
X975Y3038D01*
X971Y3085D01*
X1028Y3122D01*
X1073Y3190D01*
X1089Y3270D01*
X1073Y3350D01*
X1028Y3418D01*
X1028Y3478D01*
X1067Y3503D01*
X1121Y3584D01*
X1132Y3640D01*
D02*
G37*
G36*
X2362Y2760D02*
X2160D01*
Y2558D01*
X2216Y2569D01*
X2297Y2623D01*
X2351Y2704D01*
X2362Y2760D01*
D02*
G37*
G36*
X1182Y2750D02*
X980D01*
Y2548D01*
X1036Y2559D01*
X1117Y2613D01*
X1171Y2694D01*
X1182Y2750D01*
D02*
G37*
G36*
X2080Y2760D02*
X1878D01*
X1889Y2704D01*
X1943Y2623D01*
X2024Y2569D01*
X2080Y2558D01*
Y2760D01*
D02*
G37*
G36*
X-853Y3850D02*
X-1040D01*
Y3663D01*
X-990Y3673D01*
X-914Y3724D01*
X-863Y3800D01*
X-853Y3850D01*
D02*
G37*
G36*
X2027Y4010D02*
X1840D01*
Y3823D01*
X1890Y3833D01*
X1927Y3858D01*
D01*
X1930Y3861D01*
X1931Y3860D01*
X1933Y3858D01*
X1934Y3857D01*
X1962Y3828D01*
X1963Y3827D01*
X1959Y3820D01*
D01*
X1909Y3746D01*
X1898Y3690D01*
X2100D01*
Y3892D01*
X2044Y3881D01*
X2003Y3853D01*
X1999Y3850D01*
X1998Y3851D01*
X1996Y3853D01*
X1995Y3854D01*
X1967Y3883D01*
X1966Y3884D01*
X1970Y3891D01*
Y3891D01*
X2017Y3960D01*
X2027Y4010D01*
D02*
G37*
G36*
X4953Y3707D02*
X4766D01*
Y3520D01*
X4816Y3530D01*
X4892Y3581D01*
X4943Y3657D01*
X4953Y3707D01*
D02*
G37*
G36*
X2382Y3610D02*
X1898D01*
X1909Y3554D01*
X1963Y3473D01*
X2044Y3419D01*
X2059Y3383D01*
X2037Y3350D01*
X2021Y3270D01*
X2037Y3190D01*
X2082Y3122D01*
X2120Y3097D01*
Y3097D01*
X2105Y3047D01*
X2024Y3031D01*
X1943Y2977D01*
X1889Y2896D01*
X1878Y2840D01*
X2362D01*
X2351Y2896D01*
X2297Y2977D01*
X2243Y3013D01*
X2253Y3066D01*
X2310Y3077D01*
X2378Y3122D01*
X2423Y3190D01*
X2439Y3270D01*
X2423Y3350D01*
X2378Y3418D01*
X2348Y3438D01*
X2347Y3439D01*
X2338Y3505D01*
X2371Y3554D01*
X2382Y3610D01*
D02*
G37*
G36*
X3820Y3707D02*
X3633D01*
X3643Y3657D01*
X3694Y3581D01*
X3770Y3530D01*
X3820Y3520D01*
Y3707D01*
D02*
G37*
%LPD*%
D11*
X-6250Y2940D02*
X-5874D01*
X-6085Y-4410D02*
X-6060D01*
X-6110Y-4435D02*
X-6085Y-4410D01*
X-5320Y1250D02*
Y2386D01*
X-3160Y2207D02*
X-2727D01*
X-3593D02*
X-3160D01*
X-4027D02*
X-3593D01*
X-4460D02*
X-4027D01*
X-4893D02*
X-4460D01*
X-3160Y2640D02*
X-2727D01*
X-4027D02*
X-3593D01*
X-4460D02*
X-4027D01*
X-4893D02*
X-4460D01*
X-3160Y3073D02*
X-2727D01*
X-3593D02*
X-3160D01*
X-4027D02*
X-3593D01*
X-4460D02*
X-4027D01*
X-4893D02*
X-4460D01*
X-3160Y3507D02*
X-2727D01*
X-4027D02*
X-3593D01*
X-4893D02*
X-4460D01*
X-3160Y3940D02*
X-2727D01*
X-3593D02*
X-3160D01*
X-4460D02*
X-4027D01*
X-4893D02*
X-4460D01*
X-3160Y4373D02*
X-2727D01*
X-3593D02*
X-3160D01*
X-4027D02*
X-3593D01*
X-4460D02*
X-4027D01*
X-4893D02*
X-4460D01*
X-4893Y2207D02*
Y2640D01*
X-4460Y3940D02*
Y4373D01*
Y3073D02*
Y3507D01*
X-4027D02*
Y3940D01*
Y3073D02*
Y3507D01*
X-2727Y2207D02*
Y2640D01*
X-3160Y3507D02*
Y3940D01*
Y3073D02*
Y3507D01*
Y2640D02*
Y3073D01*
X-5874Y2940D02*
X-5320Y2386D01*
D45*
X3084Y-4390D02*
D03*
Y-4823D02*
D03*
Y-5257D02*
D03*
Y-5690D02*
D03*
X3517Y-4390D02*
D03*
Y-5690D02*
D03*
X3950Y-4390D02*
D03*
Y-5690D02*
D03*
X4383Y-4390D02*
D03*
Y-5690D02*
D03*
X4816Y-4390D02*
D03*
Y-4823D02*
D03*
Y-5257D02*
D03*
Y-5690D02*
D03*
X-4893Y4373D02*
D03*
X-4460D02*
D03*
X-4027D02*
D03*
X-3593D02*
D03*
X-3160D02*
D03*
X-2727D02*
D03*
X-4893Y3940D02*
D03*
X-4460D02*
D03*
X-4027D02*
D03*
X-3593D02*
D03*
X-3160D02*
D03*
X-2727D02*
D03*
X-4893Y3507D02*
D03*
X-4460D02*
D03*
X-4027D02*
D03*
X-3593D02*
D03*
X-3160D02*
D03*
X-2727D02*
D03*
X-4893Y3073D02*
D03*
X-4460D02*
D03*
X-4027D02*
D03*
X-3593D02*
D03*
X-3160D02*
D03*
X-2727D02*
D03*
X-4893Y2640D02*
D03*
X-4460D02*
D03*
X-4027D02*
D03*
X-3593D02*
D03*
X-3160D02*
D03*
X-2727D02*
D03*
X-4893Y2207D02*
D03*
X-4460D02*
D03*
X-4027D02*
D03*
X-3593D02*
D03*
X-3160D02*
D03*
X-2727D02*
D03*
X3860Y4613D02*
D03*
X4293D02*
D03*
X4726D02*
D03*
X3860Y4180D02*
D03*
X4726D02*
D03*
X3860Y3747D02*
D03*
X4293D02*
D03*
X4726D02*
D03*
X-60Y5520D02*
D03*
X2620Y4850D02*
D03*
X1800Y4050D02*
D03*
X-6060Y-4410D02*
D03*
X-5237Y-2027D02*
D03*
X-5320Y1250D02*
D03*
X50Y4580D02*
D03*
X-6240Y1330D02*
D03*
X-6210Y5270D02*
D03*
X5390Y6080D02*
D03*
X-1560Y5520D02*
D03*
X1280Y-3930D02*
D03*
X-340Y4150D02*
D03*
X-1080Y3890D02*
D03*
X-6250Y2940D02*
D03*
X-4370Y360D02*
D03*
X-1960Y-6230D02*
D03*
X-350Y4580D02*
D03*
D46*
X-4640Y-5040D02*
D03*
D48*
X5870Y-1960D02*
D03*
D49*
X2280Y5530D02*
D03*
X3680Y-3050D02*
D03*
D50*
X3340Y-340D02*
D03*
X3490Y580D02*
D03*
X1930Y800D02*
D03*
X2520Y170D02*
D03*
X3670Y-590D02*
D03*
X4160Y510D02*
D03*
X2560Y1490D02*
D03*
X1400Y1220D02*
D03*
X2120Y2800D02*
D03*
X940Y2790D02*
D03*
X890Y3680D02*
D03*
X2140Y3650D02*
D03*
X1820Y4450D02*
D03*
X630Y-2040D02*
D03*
M02*
