%FSLAX24Y24*%
%MOIN*%
G70*
G01*
G75*
G04 Layer_Color=16711935*
%ADD10C,0.0177*%
%ADD11C,0.0100*%
%ADD12C,0.0100*%
%ADD13R,0.0551X0.0453*%
%ADD14O,0.0177X0.0532*%
%ADD15R,0.0343X0.0343*%
%ADD16R,0.0157X0.0335*%
%ADD17O,0.0315X0.0079*%
%ADD18O,0.0079X0.0315*%
%ADD19R,0.2598X0.2598*%
%ADD20O,0.0295X0.0079*%
%ADD21R,0.1417X0.1417*%
%ADD22O,0.0079X0.0295*%
%ADD23O,0.0098X0.0276*%
%ADD24O,0.0276X0.0098*%
%ADD25R,0.0118X0.0193*%
%ADD26R,0.0118X0.0205*%
%ADD27R,0.0138X0.0217*%
%ADD28R,0.0157X0.0532*%
%ADD29R,0.0748X0.0630*%
%ADD30R,0.0630X0.0551*%
%ADD31R,0.0335X0.0374*%
%ADD32R,0.0335X0.0118*%
%ADD33R,0.0217X0.0098*%
%ADD34R,0.0197X0.0354*%
%ADD35R,0.0177X0.0177*%
%ADD36R,0.0157X0.0236*%
%ADD37R,0.0138X0.0157*%
%ADD38R,0.0335X0.0157*%
%ADD39R,0.0236X0.0157*%
%ADD40R,0.0354X0.0197*%
%ADD41C,0.0080*%
%ADD42C,0.0200*%
%ADD43C,0.1260*%
%ADD44C,0.0630*%
%ADD45C,0.0260*%
%ADD46C,0.0300*%
%ADD47C,0.0340*%
%ADD48C,0.0500*%
%ADD49C,0.0240*%
%ADD50C,0.0290*%
%ADD51R,0.2362X0.1890*%
%ADD52O,0.0315X0.0157*%
%ADD53R,0.0394X0.0217*%
%ADD54R,0.0512X0.0217*%
%ADD55R,0.0591X0.0236*%
%ADD56R,0.0354X0.0276*%
%ADD57R,0.0197X0.0315*%
%ADD58O,0.0098X0.0315*%
%ADD59O,0.0315X0.0098*%
%ADD60R,0.1299X0.1299*%
%ADD61R,0.0098X0.0138*%
%ADD62R,0.0187X0.0098*%
%ADD63C,0.0150*%
%ADD64C,0.0098*%
%ADD65C,0.0039*%
%ADD66C,0.0079*%
%ADD67C,0.0050*%
%ADD68C,0.0040*%
%ADD69R,0.0611X0.0513*%
%ADD70O,0.0237X0.0592*%
%ADD71R,0.0606X0.0606*%
%ADD72R,0.0217X0.0395*%
%ADD73O,0.0375X0.0139*%
%ADD74O,0.0139X0.0375*%
%ADD75R,0.2658X0.2658*%
%ADD76O,0.0355X0.0139*%
%ADD77R,0.1477X0.1477*%
%ADD78O,0.0139X0.0355*%
%ADD79O,0.0158X0.0336*%
%ADD80O,0.0336X0.0158*%
%ADD81R,0.0178X0.0253*%
%ADD82R,0.0178X0.0265*%
%ADD83R,0.0198X0.0277*%
%ADD84R,0.0236X0.0610*%
%ADD85R,0.0827X0.0709*%
%ADD86R,0.0709X0.0630*%
%ADD87R,0.0395X0.0434*%
%ADD88R,0.0395X0.0178*%
%ADD89R,0.0277X0.0158*%
%ADD90R,0.0257X0.0414*%
%ADD91R,0.0237X0.0237*%
%ADD92R,0.0217X0.0296*%
%ADD93R,0.0198X0.0217*%
%ADD94R,0.0395X0.0217*%
%ADD95R,0.0296X0.0217*%
%ADD96R,0.0414X0.0257*%
%ADD97C,0.1320*%
%ADD98C,0.0690*%
%ADD99C,0.0400*%
%ADD100R,0.2422X0.1950*%
%ADD101O,0.0375X0.0217*%
%ADD102R,0.0454X0.0277*%
%ADD103R,0.0572X0.0277*%
%ADD104R,0.0651X0.0296*%
%ADD105R,0.0414X0.0336*%
%ADD106R,0.0257X0.0375*%
%ADD107O,0.0158X0.0375*%
%ADD108O,0.0375X0.0158*%
%ADD109R,0.1359X0.1359*%
%ADD110R,0.0158X0.0198*%
%ADD111R,0.0247X0.0158*%
D90*
X-3015Y-5840D02*
D03*
X-2425D02*
D03*
X-405Y-1450D02*
D03*
X185D02*
D03*
X5145Y-1340D02*
D03*
X5735D02*
D03*
X-1115Y-2154D02*
D03*
X-525D02*
D03*
D92*
X-5923Y2200D02*
D03*
X-6277D02*
D03*
X-3433Y-330D02*
D03*
X-3787D02*
D03*
X1977Y-4790D02*
D03*
X1623D02*
D03*
X-2173Y860D02*
D03*
X-2527D02*
D03*
X-3787Y-790D02*
D03*
X-3433D02*
D03*
X-1033Y-1390D02*
D03*
X-1387D02*
D03*
X-1033Y-910D02*
D03*
X-1387D02*
D03*
X-5423Y-3270D02*
D03*
X-5777D02*
D03*
X-5563Y-2180D02*
D03*
X-5917D02*
D03*
X-2757Y-4980D02*
D03*
X-2403D02*
D03*
X2303Y-2530D02*
D03*
X2657D02*
D03*
X5337D02*
D03*
X4983D02*
D03*
X5087Y-920D02*
D03*
X4733D02*
D03*
X2293Y-1420D02*
D03*
X2647D02*
D03*
X-53Y-910D02*
D03*
X-407D02*
D03*
X-1253Y1230D02*
D03*
X-1607D02*
D03*
X-3167Y4840D02*
D03*
X-2813D02*
D03*
X-2963Y1590D02*
D03*
X-3317D02*
D03*
X-5967Y1010D02*
D03*
X-5613D02*
D03*
X-5223Y2820D02*
D03*
X-5577D02*
D03*
D95*
X-5920Y-1233D02*
D03*
Y-1587D02*
D03*
X-5540Y67D02*
D03*
Y-287D02*
D03*
X-6040Y67D02*
D03*
Y-287D02*
D03*
X-3060Y-3603D02*
D03*
Y-3957D02*
D03*
X-2570Y-3603D02*
D03*
Y-3957D02*
D03*
X-3480Y-3313D02*
D03*
Y-3667D02*
D03*
X-3940Y-3313D02*
D03*
Y-3667D02*
D03*
X6210Y-3497D02*
D03*
Y-3143D02*
D03*
X-2240Y4513D02*
D03*
Y4867D02*
D03*
X-2000Y5607D02*
D03*
Y5253D02*
D03*
X-1350Y2963D02*
D03*
Y3317D02*
D03*
X-1730Y2103D02*
D03*
Y2457D02*
D03*
X5360Y3163D02*
D03*
Y3517D02*
D03*
X5860Y3163D02*
D03*
Y3517D02*
D03*
X6200Y2423D02*
D03*
Y2777D02*
D03*
D97*
X1634Y0D02*
D03*
X-1634D02*
D03*
D98*
X1250Y-6070D02*
D03*
X-1250D02*
D03*
D99*
X5870Y-1960D02*
D03*
X4750D02*
D03*
D100*
X3950Y-5040D02*
D03*
D101*
X5505Y-5790D02*
D03*
Y-5290D02*
D03*
Y-4790D02*
D03*
Y-4290D02*
D03*
X2395D02*
D03*
Y-4790D02*
D03*
Y-5290D02*
D03*
Y-5790D02*
D03*
D102*
X4162Y-1434D02*
D03*
Y-686D02*
D03*
X3178D02*
D03*
Y-1060D02*
D03*
Y-1434D02*
D03*
D103*
X3198Y-2536D02*
D03*
Y-3284D02*
D03*
X4182D02*
D03*
Y-2910D02*
D03*
Y-2536D02*
D03*
D104*
X-2096Y-1406D02*
D03*
Y-2154D02*
D03*
X-2844Y-1780D02*
D03*
D105*
X5036Y-3566D02*
D03*
Y-3054D02*
D03*
X5784Y-3310D02*
D03*
X-3704Y174D02*
D03*
Y686D02*
D03*
X-2956Y430D02*
D03*
D106*
X4218Y5204D02*
D03*
X4573D02*
D03*
X4927D02*
D03*
X5282D02*
D03*
Y5676D02*
D03*
X4927D02*
D03*
X4573D02*
D03*
X4218D02*
D03*
D107*
X-5329Y-4056D02*
D03*
X-5132D02*
D03*
X-4935D02*
D03*
X-4738D02*
D03*
X-4542D02*
D03*
X-4345D02*
D03*
X-4148D02*
D03*
X-3951D02*
D03*
Y-6024D02*
D03*
X-4148D02*
D03*
X-4345D02*
D03*
X-4542D02*
D03*
X-4738D02*
D03*
X-4935D02*
D03*
X-5132D02*
D03*
X-5329D02*
D03*
D108*
X-3656Y-4351D02*
D03*
Y-4548D02*
D03*
Y-4745D02*
D03*
Y-4942D02*
D03*
Y-5138D02*
D03*
Y-5335D02*
D03*
Y-5532D02*
D03*
Y-5729D02*
D03*
X-5624D02*
D03*
Y-5532D02*
D03*
Y-5335D02*
D03*
Y-5138D02*
D03*
Y-4942D02*
D03*
Y-4745D02*
D03*
Y-4548D02*
D03*
Y-4351D02*
D03*
D109*
X-4640Y-5040D02*
D03*
D110*
X-5093Y6072D02*
D03*
X-5290D02*
D03*
X-5487D02*
D03*
Y5068D02*
D03*
X-5290D02*
D03*
X-5093D02*
D03*
D111*
X-5807Y5964D02*
D03*
Y5767D02*
D03*
Y5570D02*
D03*
Y5373D02*
D03*
Y5176D02*
D03*
X-4773D02*
D03*
Y5373D02*
D03*
Y5570D02*
D03*
Y5767D02*
D03*
Y5964D02*
D03*
M02*
