%FSLAX24Y24*%
%MOIN*%
G70*
G01*
G75*
G04 Layer_Color=65535*
%ADD10C,0.0177*%
%ADD11C,0.0100*%
%ADD12C,0.0100*%
%ADD13R,0.0551X0.0453*%
%ADD14O,0.0177X0.0532*%
%ADD15R,0.0343X0.0343*%
%ADD16R,0.0157X0.0335*%
%ADD17O,0.0315X0.0079*%
%ADD18O,0.0079X0.0315*%
%ADD19R,0.2598X0.2598*%
%ADD20O,0.0295X0.0079*%
%ADD21R,0.1417X0.1417*%
%ADD22O,0.0079X0.0295*%
%ADD23O,0.0098X0.0276*%
%ADD24O,0.0276X0.0098*%
%ADD25R,0.0118X0.0193*%
%ADD26R,0.0118X0.0205*%
%ADD27R,0.0138X0.0217*%
%ADD28R,0.0157X0.0532*%
%ADD29R,0.0748X0.0630*%
%ADD30R,0.0630X0.0551*%
%ADD31R,0.0335X0.0374*%
%ADD32R,0.0335X0.0118*%
%ADD33R,0.0217X0.0098*%
%ADD34R,0.0197X0.0354*%
%ADD35R,0.0177X0.0177*%
%ADD36R,0.0157X0.0236*%
%ADD37R,0.0138X0.0157*%
%ADD38R,0.0335X0.0157*%
%ADD39R,0.0236X0.0157*%
%ADD40R,0.0354X0.0197*%
%ADD41C,0.0080*%
%ADD42C,0.0200*%
%ADD43C,0.1260*%
%ADD44C,0.0630*%
%ADD45C,0.0260*%
%ADD46C,0.0300*%
%ADD47C,0.0340*%
%ADD48C,0.0500*%
%ADD49C,0.0240*%
%ADD50C,0.0290*%
%ADD51R,0.2362X0.1890*%
%ADD52O,0.0315X0.0157*%
%ADD53R,0.0394X0.0217*%
%ADD54R,0.0512X0.0217*%
%ADD55R,0.0591X0.0236*%
%ADD56R,0.0354X0.0276*%
%ADD57R,0.0197X0.0315*%
%ADD58O,0.0098X0.0315*%
%ADD59O,0.0315X0.0098*%
%ADD60R,0.1299X0.1299*%
%ADD61R,0.0098X0.0138*%
%ADD62R,0.0187X0.0098*%
%ADD63C,0.0150*%
%ADD64C,0.0098*%
%ADD65C,0.0039*%
%ADD66C,0.0079*%
%ADD67C,0.0050*%
%ADD68C,0.0040*%
G36*
X-5129Y-5363D02*
X-5211D01*
Y-5687D01*
X-5129D01*
Y-5902D01*
X-5532D01*
Y-5687D01*
X-5450D01*
Y-5493D01*
X-5653Y-5773D01*
X-5667D01*
X-5867Y-5493D01*
Y-5687D01*
X-5785D01*
Y-5902D01*
X-6188D01*
Y-5687D01*
X-6109D01*
Y-5363D01*
X-6188D01*
Y-5148D01*
X-5868D01*
X-5663Y-5431D01*
X-5653D01*
X-5448Y-5148D01*
X-5129D01*
Y-5363D01*
D02*
G37*
D11*
X5358Y2552D02*
G03*
X5358Y2552I-31J0D01*
G01*
X-2589Y606D02*
G03*
X-2589Y606I-39J0D01*
G01*
X1120Y-3430D02*
G03*
X1120Y-3430I-10J0D01*
G01*
X-845Y3730D02*
G03*
X-845Y3730I-22J0D01*
G01*
X2088Y4754D02*
G03*
X2088Y4754I-14J0D01*
G01*
X-6472Y4167D02*
G03*
X-6472Y4167I-22J0D01*
G01*
X-3866Y-1226D02*
G03*
X-3866Y-1226I-39J0D01*
G01*
X-6242Y-1652D02*
G03*
X-6242Y-1652I-39J0D01*
G01*
X-2245Y-4837D02*
G03*
X-2245Y-4837I-39J0D01*
G01*
X2550Y0D02*
G03*
X2550Y0I-2550J0D01*
G01*
X-2746Y173D02*
Y487D01*
X-3534Y173D02*
Y487D01*
X-3787Y-1107D02*
Y-793D01*
X-2999Y-1107D02*
Y-793D01*
X-6164Y-1533D02*
Y-1218D01*
X-5376Y-1533D02*
Y-1218D01*
X-2717Y-4719D02*
X-2403D01*
X-2717Y-3932D02*
X-2403D01*
D64*
X-4282Y-2918D02*
G03*
X-4282Y-2918I-49J0D01*
G01*
X-5680Y4894D02*
G03*
X-5680Y4894I-49J0D01*
G01*
X5661Y3176D02*
G03*
X5661Y3176I-49J0D01*
G01*
X719Y-3715D02*
G03*
X719Y-3715I-49J0D01*
G01*
X1711Y5393D02*
G03*
X1711Y5393I-49J0D01*
G01*
D65*
X-1418Y5030D02*
G03*
X-1418Y5030I-20J0D01*
G01*
X3742Y2050D02*
Y2110D01*
X4382Y1509D02*
X4578D01*
X4382Y2651D02*
X4578D01*
X5218Y2050D02*
Y2110D01*
X-237Y3091D02*
Y3169D01*
X-1063Y3091D02*
Y3169D01*
X-1276Y4277D02*
X-764D01*
X-1276Y5103D02*
X-764D01*
X-5849Y-357D02*
Y-13D01*
Y-180D02*
X-5681Y-13D01*
Y-357D02*
Y-13D01*
X-5849Y-190D02*
X-5681Y-357D01*
X-6051Y2131D02*
Y2269D01*
X-6149D02*
X-6080Y2200D01*
X-6149Y2131D02*
X-6080Y2200D01*
X-6149Y2131D02*
Y2269D01*
X1961Y5258D02*
X2039D01*
X1961Y5042D02*
X2039D01*
X-2969Y-2242D02*
X-2891D01*
X-2969Y-2458D02*
X-2891D01*
X-3789Y-2462D02*
X-3711D01*
X-3789Y-2678D02*
X-3711D01*
X-3354Y-1968D02*
X-3275D01*
X-3354Y-1752D02*
X-3275D01*
X-5439Y948D02*
X-5361D01*
X-5439Y732D02*
X-5361D01*
X-4819Y-652D02*
X-4741D01*
X-4819Y-868D02*
X-4741D01*
X-4809Y-162D02*
X-4731D01*
X-4809Y-378D02*
X-4731D01*
X-4799Y-1858D02*
X-4721D01*
X-4799Y-1642D02*
X-4721D01*
X-4809Y-1388D02*
X-4731D01*
X-4809Y-1171D02*
X-4731D01*
X-5952Y-2509D02*
Y-2431D01*
X-6168Y-2509D02*
Y-2431D01*
X-4799Y-2142D02*
X-4721D01*
X-4799Y-2358D02*
X-4721D01*
X-3754Y-4158D02*
X-3675D01*
X-3754Y-3942D02*
X-3675D01*
X-1552Y-3932D02*
Y-3853D01*
X-1768Y-3932D02*
Y-3853D01*
X-4098Y-3449D02*
Y-3371D01*
X-3882Y-3449D02*
Y-3371D01*
X-2599Y-3648D02*
X-2521D01*
X-2599Y-3432D02*
X-2521D01*
X-2089Y5458D02*
X-2011D01*
X-2089Y5242D02*
X-2011D01*
X3238Y2291D02*
Y2369D01*
X3022Y2291D02*
Y2369D01*
X5927Y2442D02*
Y2718D01*
X5583Y2442D02*
Y2718D01*
X5642Y1651D02*
Y1729D01*
X5858Y1651D02*
Y1729D01*
X-2068Y-5757D02*
Y-5678D01*
X-1852Y-5757D02*
Y-5678D01*
X-5439Y458D02*
X-5361D01*
X-5439Y242D02*
X-5361D01*
X-6168Y-3282D02*
Y-3203D01*
X-5952Y-3282D02*
Y-3203D01*
X-3399Y-3648D02*
X-3321D01*
X-3399Y-3432D02*
X-3321D01*
X-1069Y-3824D02*
X-991D01*
X-1069Y-3607D02*
X-991D01*
X-6059Y5472D02*
X-5981D01*
X-6059Y5688D02*
X-5981D01*
X-5839Y5872D02*
X-5761D01*
X-5839Y6088D02*
X-5761D01*
X-2609Y-5858D02*
X-2531D01*
X-2609Y-5642D02*
X-2531D01*
X-2609Y-5298D02*
X-2531D01*
X-2609Y-5082D02*
X-2531D01*
X-5602Y-4629D02*
Y-4551D01*
X-5818Y-4629D02*
Y-4551D01*
X201Y2742D02*
X279D01*
X201Y2958D02*
X279D01*
X-1679Y2548D02*
X-1601D01*
X-1679Y2332D02*
X-1601D01*
X201Y3838D02*
X279D01*
X201Y3622D02*
X279D01*
X-5659Y5132D02*
X-5581D01*
X-5659Y5348D02*
X-5581D01*
X-5129Y6108D02*
X-5051D01*
X-5129Y5892D02*
X-5051D01*
X5652Y5531D02*
Y5609D01*
X5868Y5531D02*
Y5609D01*
X2592Y5311D02*
Y5389D01*
X2808Y5311D02*
Y5389D01*
X2978Y3061D02*
Y3139D01*
X2762Y3061D02*
Y3139D01*
X3991Y1308D02*
X4069D01*
X3991Y1092D02*
X4069D01*
X5741Y1012D02*
X5819D01*
X5741Y1228D02*
X5819D01*
X4991Y1112D02*
X5069D01*
X4991Y1328D02*
X5069D01*
X-139Y5158D02*
X-61D01*
X-139Y4942D02*
X-61D01*
X1261Y4002D02*
X1339D01*
X1261Y4218D02*
X1339D01*
D66*
X-5611Y-3479D02*
Y-3341D01*
X-4429Y-3479D02*
Y-3341D01*
X-5473Y4766D02*
Y4953D01*
X-5286D01*
X-2334D02*
X-2147D01*
Y4766D02*
Y4953D01*
Y1627D02*
Y1814D01*
X-2334Y1627D02*
X-2147D01*
X-5473D02*
Y1814D01*
Y1627D02*
X-5286D01*
X5179Y5243D02*
X5356D01*
Y5066D02*
Y5243D01*
X3230D02*
X3407D01*
X3230Y5066D02*
Y5243D01*
Y3117D02*
Y3294D01*
Y3117D02*
X3407D01*
X5179D02*
X5356D01*
Y3294D01*
X335Y-3007D02*
Y-2820D01*
X207Y-3007D02*
X335D01*
X-335D02*
X-207D01*
X-335D02*
Y-2820D01*
Y-4020D02*
Y-3833D01*
X-207D01*
X207D02*
X335D01*
Y-4020D02*
Y-3833D01*
X1553Y4763D02*
Y5157D01*
X687Y4763D02*
Y5157D01*
X1553D01*
X687Y4763D02*
X1553D01*
D67*
X-1555Y-4663D02*
X-1545Y-4653D01*
X1555D01*
X-1555Y-6641D02*
Y-4663D01*
X1555Y-6641D02*
Y-4653D01*
X-1555Y-6641D02*
X1555D01*
X4820Y2900D02*
X4953Y2700D01*
Y2900D02*
X4820Y2700D01*
X5020D02*
X5087D01*
X5053D01*
Y2900D01*
X5020Y2867D01*
X-4400Y-3910D02*
Y-4077D01*
X-4367Y-4110D01*
X-4300D01*
X-4267Y-4077D01*
Y-3910D01*
X-4200Y-4110D02*
X-4133D01*
X-4167D01*
Y-3910D01*
X-4200Y-3943D01*
X-4033Y-4110D02*
X-3967D01*
X-4000D01*
Y-3910D01*
X-4033Y-3943D01*
X-240Y100D02*
Y-67D01*
X-207Y-100D01*
X-140D01*
X-107Y-67D01*
Y100D01*
X-40D02*
X93D01*
X27D01*
Y-100D01*
X160D02*
X227D01*
X193D01*
Y100D01*
X160Y67D01*
X5260Y-1450D02*
Y-1317D01*
X5327Y-1250D01*
X5393Y-1317D01*
Y-1450D01*
Y-1350D01*
X5260D01*
X5460Y-1450D02*
Y-1250D01*
X5593Y-1450D01*
Y-1250D01*
X5660D02*
X5793D01*
X5727D01*
Y-1450D01*
X5860D02*
X5926D01*
X5893D01*
Y-1250D01*
X5860Y-1283D01*
X-3840Y-270D02*
X-3673D01*
X-3640Y-237D01*
Y-170D01*
X-3673Y-137D01*
X-3840D01*
X-3640Y30D02*
X-3840D01*
X-3740Y-70D01*
Y63D01*
X-1650Y4710D02*
X-1817D01*
X-1850Y4677D01*
Y4610D01*
X-1817Y4577D01*
X-1650D01*
X-1683Y4510D02*
X-1650Y4477D01*
Y4410D01*
X-1683Y4377D01*
X-1717D01*
X-1750Y4410D01*
Y4443D01*
Y4410D01*
X-1783Y4377D01*
X-1817D01*
X-1850Y4410D01*
Y4477D01*
X-1817Y4510D01*
X3150Y5620D02*
Y5453D01*
X3183Y5420D01*
X3250D01*
X3283Y5453D01*
Y5620D01*
X3350Y5420D02*
X3417D01*
X3383D01*
Y5620D01*
X3350Y5587D01*
X-220Y-4190D02*
Y-4357D01*
X-187Y-4390D01*
X-120D01*
X-87Y-4357D01*
Y-4190D01*
X-20Y-4390D02*
X47D01*
X13D01*
Y-4190D01*
X-20Y-4223D01*
X280Y-4190D02*
X147D01*
Y-4290D01*
X213Y-4257D01*
X247D01*
X280Y-4290D01*
Y-4357D01*
X247Y-4390D01*
X180D01*
X147Y-4357D01*
X1960Y-3200D02*
X2127D01*
X2160Y-3167D01*
Y-3100D01*
X2127Y-3067D01*
X1960D01*
X2160Y-3000D02*
Y-2933D01*
Y-2967D01*
X1960D01*
X1993Y-3000D01*
X1960Y-2700D02*
X1993Y-2767D01*
X2060Y-2833D01*
X2127D01*
X2160Y-2800D01*
Y-2733D01*
X2127Y-2700D01*
X2093D01*
X2060Y-2733D01*
Y-2833D01*
X320Y4830D02*
X487D01*
X520Y4863D01*
Y4930D01*
X487Y4963D01*
X320D01*
X520Y5163D02*
Y5030D01*
X387Y5163D01*
X353D01*
X320Y5130D01*
Y5063D01*
X353Y5030D01*
X1423Y-4300D02*
X1357D01*
X1390D01*
Y-4467D01*
X1357Y-4500D01*
X1323D01*
X1290Y-4467D01*
X1490Y-4500D02*
X1557D01*
X1523D01*
Y-4300D01*
X1490Y-4333D01*
X-550Y3890D02*
X-417Y3690D01*
Y3890D02*
X-550Y3690D01*
X-217D02*
X-350D01*
X-217Y3823D01*
Y3857D01*
X-250Y3890D01*
X-317D01*
X-350Y3857D01*
X-1020Y5550D02*
Y5350D01*
X-920D01*
X-887Y5383D01*
Y5417D01*
X-920Y5450D01*
X-1020D01*
X-920D01*
X-887Y5483D01*
Y5517D01*
X-920Y5550D01*
X-1020D01*
X-687Y5350D02*
X-820D01*
X-687Y5483D01*
Y5517D01*
X-720Y5550D01*
X-787D01*
X-820Y5517D01*
X2910Y4370D02*
X2710D01*
Y4270D01*
X2743Y4237D01*
X2777D01*
X2810Y4270D01*
Y4370D01*
Y4270D01*
X2843Y4237D01*
X2877D01*
X2910Y4270D01*
Y4370D01*
X2710Y4170D02*
Y4103D01*
Y4137D01*
X2910D01*
X2877Y4170D01*
X-6200Y340D02*
Y140D01*
X-6100D01*
X-6067Y173D01*
Y307D01*
X-6100Y340D01*
X-6200D01*
X-5867Y140D02*
X-6000D01*
X-5867Y273D01*
Y307D01*
X-5900Y340D01*
X-5967D01*
X-6000Y307D01*
X-6400Y1720D02*
X-6200D01*
Y1820D01*
X-6233Y1853D01*
X-6367D01*
X-6400Y1820D01*
Y1720D01*
X-6200Y1920D02*
Y1987D01*
Y1953D01*
X-6400D01*
X-6367Y1920D01*
X1633Y5533D02*
X1600Y5500D01*
Y5433D01*
X1633Y5400D01*
X1767D01*
X1800Y5433D01*
Y5500D01*
X1767Y5533D01*
X1600Y5733D02*
Y5600D01*
X1700D01*
X1667Y5667D01*
Y5700D01*
X1700Y5733D01*
X1767D01*
X1800Y5700D01*
Y5633D01*
X1767Y5600D01*
X1600Y5933D02*
X1633Y5867D01*
X1700Y5800D01*
X1767D01*
X1800Y5833D01*
Y5900D01*
X1767Y5933D01*
X1733D01*
X1700Y5900D01*
Y5800D01*
X-2820Y-1520D02*
X-2653D01*
X-2620Y-1487D01*
Y-1420D01*
X-2653Y-1387D01*
X-2820D01*
X-2620Y-1320D02*
Y-1253D01*
Y-1287D01*
X-2820D01*
X-2787Y-1320D01*
X-2620Y-1053D02*
X-2820D01*
X-2720Y-1153D01*
Y-1020D01*
X-5130Y-570D02*
X-5297D01*
X-5330Y-603D01*
Y-670D01*
X-5297Y-703D01*
X-5130D01*
X-5330Y-770D02*
Y-837D01*
Y-803D01*
X-5130D01*
X-5163Y-770D01*
Y-937D02*
X-5130Y-970D01*
Y-1037D01*
X-5163Y-1070D01*
X-5197D01*
X-5230Y-1037D01*
Y-1003D01*
Y-1037D01*
X-5263Y-1070D01*
X-5297D01*
X-5330Y-1037D01*
Y-970D01*
X-5297Y-937D01*
X-1920Y-4720D02*
X-1753D01*
X-1720Y-4687D01*
Y-4620D01*
X-1753Y-4587D01*
X-1920D01*
X-1720Y-4520D02*
Y-4453D01*
Y-4487D01*
X-1920D01*
X-1887Y-4520D01*
X-1720Y-4220D02*
Y-4353D01*
X-1853Y-4220D01*
X-1887D01*
X-1920Y-4253D01*
Y-4320D01*
X-1887Y-4353D01*
X-2480Y-2430D02*
Y-2230D01*
X-2380D01*
X-2347Y-2263D01*
Y-2330D01*
X-2380Y-2363D01*
X-2480D01*
X-2413D02*
X-2347Y-2430D01*
X-2147D02*
X-2280D01*
X-2147Y-2297D01*
Y-2263D01*
X-2180Y-2230D01*
X-2247D01*
X-2280Y-2263D01*
X-2080Y-2430D02*
X-2013D01*
X-2047D01*
Y-2230D01*
X-2080Y-2263D01*
X-3970Y-2300D02*
Y-2100D01*
X-3870D01*
X-3837Y-2133D01*
Y-2200D01*
X-3870Y-2233D01*
X-3970D01*
X-3903D02*
X-3837Y-2300D01*
X-3637D02*
X-3770D01*
X-3637Y-2167D01*
Y-2133D01*
X-3670Y-2100D01*
X-3737D01*
X-3770Y-2133D01*
X-3570D02*
X-3537Y-2100D01*
X-3470D01*
X-3437Y-2133D01*
Y-2267D01*
X-3470Y-2300D01*
X-3537D01*
X-3570Y-2267D01*
Y-2133D01*
X-2910Y-1960D02*
Y-1760D01*
X-2810D01*
X-2777Y-1793D01*
Y-1860D01*
X-2810Y-1893D01*
X-2910D01*
X-2843D02*
X-2777Y-1960D01*
X-2710D02*
X-2643D01*
X-2677D01*
Y-1760D01*
X-2710Y-1793D01*
X-2543Y-1927D02*
X-2510Y-1960D01*
X-2443D01*
X-2410Y-1927D01*
Y-1793D01*
X-2443Y-1760D01*
X-2510D01*
X-2543Y-1793D01*
Y-1827D01*
X-2510Y-1860D01*
X-2410D01*
X-6280Y730D02*
Y930D01*
X-6180D01*
X-6147Y897D01*
Y830D01*
X-6180Y797D01*
X-6280D01*
X-6213D02*
X-6147Y730D01*
X-6080D02*
X-6013D01*
X-6047D01*
Y930D01*
X-6080Y897D01*
X-5913D02*
X-5880Y930D01*
X-5813D01*
X-5780Y897D01*
Y863D01*
X-5813Y830D01*
X-5780Y797D01*
Y763D01*
X-5813Y730D01*
X-5880D01*
X-5913Y763D01*
Y797D01*
X-5880Y830D01*
X-5913Y863D01*
Y897D01*
X-5880Y830D02*
X-5813D01*
X-4370Y-850D02*
Y-650D01*
X-4270D01*
X-4237Y-683D01*
Y-750D01*
X-4270Y-783D01*
X-4370D01*
X-4303D02*
X-4237Y-850D01*
X-4170D02*
X-4103D01*
X-4137D01*
Y-650D01*
X-4170Y-683D01*
X-4003Y-650D02*
X-3870D01*
Y-683D01*
X-4003Y-817D01*
Y-850D01*
X-5070Y-10D02*
Y190D01*
X-4970D01*
X-4937Y157D01*
Y90D01*
X-4970Y57D01*
X-5070D01*
X-5003D02*
X-4937Y-10D01*
X-4870D02*
X-4803D01*
X-4837D01*
Y190D01*
X-4870Y157D01*
X-4570Y190D02*
X-4637Y157D01*
X-4703Y90D01*
Y23D01*
X-4670Y-10D01*
X-4603D01*
X-4570Y23D01*
Y57D01*
X-4603Y90D01*
X-4703D01*
X-4380Y-1880D02*
Y-1680D01*
X-4280D01*
X-4247Y-1713D01*
Y-1780D01*
X-4280Y-1813D01*
X-4380D01*
X-4313D02*
X-4247Y-1880D01*
X-4180D02*
X-4113D01*
X-4147D01*
Y-1680D01*
X-4180Y-1713D01*
X-3880Y-1680D02*
X-4013D01*
Y-1780D01*
X-3947Y-1747D01*
X-3913D01*
X-3880Y-1780D01*
Y-1847D01*
X-3913Y-1880D01*
X-3980D01*
X-4013Y-1847D01*
X-4180Y-1480D02*
X-4380D01*
Y-1380D01*
X-4347Y-1347D01*
X-4280D01*
X-4247Y-1380D01*
Y-1480D01*
Y-1413D02*
X-4180Y-1347D01*
Y-1280D02*
Y-1213D01*
Y-1247D01*
X-4380D01*
X-4347Y-1280D01*
X-4180Y-1013D02*
X-4380D01*
X-4280Y-1113D01*
Y-980D01*
X-5820Y-2380D02*
Y-2180D01*
X-5720D01*
X-5687Y-2213D01*
Y-2280D01*
X-5720Y-2313D01*
X-5820D01*
X-5753D02*
X-5687Y-2380D01*
X-5620D02*
X-5553D01*
X-5587D01*
Y-2180D01*
X-5620Y-2213D01*
X-5453D02*
X-5420Y-2180D01*
X-5353D01*
X-5320Y-2213D01*
Y-2247D01*
X-5353Y-2280D01*
X-5387D01*
X-5353D01*
X-5320Y-2313D01*
Y-2347D01*
X-5353Y-2380D01*
X-5420D01*
X-5453Y-2347D01*
X-4350Y-2100D02*
X-4150D01*
Y-2200D01*
X-4183Y-2233D01*
X-4250D01*
X-4283Y-2200D01*
Y-2100D01*
Y-2167D02*
X-4350Y-2233D01*
Y-2300D02*
Y-2367D01*
Y-2333D01*
X-4150D01*
X-4183Y-2300D01*
X-4350Y-2600D02*
Y-2467D01*
X-4217Y-2600D01*
X-4183D01*
X-4150Y-2567D01*
Y-2500D01*
X-4183Y-2467D01*
X-4014Y-4520D02*
Y-4320D01*
X-3914D01*
X-3881Y-4353D01*
Y-4420D01*
X-3914Y-4453D01*
X-4014D01*
X-3948D02*
X-3881Y-4520D01*
X-3814D02*
X-3748D01*
X-3781D01*
Y-4320D01*
X-3814Y-4353D01*
X-3648Y-4520D02*
X-3581D01*
X-3614D01*
Y-4320D01*
X-3648Y-4353D01*
X-2010Y-3490D02*
Y-3290D01*
X-1910D01*
X-1877Y-3323D01*
Y-3390D01*
X-1910Y-3423D01*
X-2010D01*
X-1943D02*
X-1877Y-3490D01*
X-1810D02*
X-1743D01*
X-1777D01*
Y-3290D01*
X-1810Y-3323D01*
X-1643D02*
X-1610Y-3290D01*
X-1543D01*
X-1510Y-3323D01*
Y-3457D01*
X-1543Y-3490D01*
X-1610D01*
X-1643Y-3457D01*
Y-3323D01*
X-4100Y-3030D02*
Y-2830D01*
X-4000D01*
X-3967Y-2863D01*
Y-2930D01*
X-4000Y-2963D01*
X-4100D01*
X-4033D02*
X-3967Y-3030D01*
X-3900Y-2997D02*
X-3867Y-3030D01*
X-3800D01*
X-3767Y-2997D01*
Y-2863D01*
X-3800Y-2830D01*
X-3867D01*
X-3900Y-2863D01*
Y-2897D01*
X-3867Y-2930D01*
X-3767D01*
X-2860Y-3280D02*
Y-3080D01*
X-2760D01*
X-2727Y-3113D01*
Y-3180D01*
X-2760Y-3213D01*
X-2860D01*
X-2793D02*
X-2727Y-3280D01*
X-2660Y-3113D02*
X-2627Y-3080D01*
X-2560D01*
X-2527Y-3113D01*
Y-3147D01*
X-2560Y-3180D01*
X-2527Y-3213D01*
Y-3247D01*
X-2560Y-3280D01*
X-2627D01*
X-2660Y-3247D01*
Y-3213D01*
X-2627Y-3180D01*
X-2660Y-3147D01*
Y-3113D01*
X-2627Y-3180D02*
X-2560D01*
X-2340Y5610D02*
Y5810D01*
X-2240D01*
X-2207Y5777D01*
Y5710D01*
X-2240Y5677D01*
X-2340D01*
X-2273D02*
X-2207Y5610D01*
X-2007D02*
X-2140D01*
X-2007Y5743D01*
Y5777D01*
X-2040Y5810D01*
X-2107D01*
X-2140Y5777D01*
X2980Y1720D02*
Y1920D01*
X3080D01*
X3113Y1887D01*
Y1820D01*
X3080Y1787D01*
X2980D01*
X3047D02*
X3113Y1720D01*
X3180D02*
X3247D01*
X3213D01*
Y1920D01*
X3180Y1887D01*
X6260Y2750D02*
X6060D01*
Y2617D01*
Y2417D02*
Y2550D01*
X6193Y2417D01*
X6227D01*
X6260Y2450D01*
Y2517D01*
X6227Y2550D01*
X5320Y1560D02*
X5520D01*
Y1693D01*
Y1760D02*
Y1827D01*
Y1793D01*
X5320D01*
X5353Y1760D01*
X-1930Y-5207D02*
Y-5340D01*
X-1830D01*
Y-5273D01*
Y-5340D01*
X-1730D01*
X-1930Y-5140D02*
X-1730D01*
Y-5040D01*
X-1763Y-5007D01*
X-1797D01*
X-1830Y-5040D01*
Y-5140D01*
Y-5040D01*
X-1863Y-5007D01*
X-1897D01*
X-1930Y-5040D01*
Y-5140D01*
X-1730Y-4940D02*
Y-4873D01*
Y-4907D01*
X-1930D01*
X-1897Y-4940D01*
X-4907Y437D02*
X-4940Y470D01*
X-5007D01*
X-5040Y437D01*
Y303D01*
X-5007Y270D01*
X-4940D01*
X-4907Y303D01*
X-4707Y470D02*
X-4840D01*
Y370D01*
X-4773Y403D01*
X-4740D01*
X-4707Y370D01*
Y303D01*
X-4740Y270D01*
X-4807D01*
X-4840Y303D01*
X-4640Y270D02*
X-4573D01*
X-4607D01*
Y470D01*
X-4640Y437D01*
X-5827Y-3197D02*
X-5860Y-3230D01*
Y-3297D01*
X-5827Y-3330D01*
X-5693D01*
X-5660Y-3297D01*
Y-3230D01*
X-5693Y-3197D01*
X-5660Y-3030D02*
X-5860D01*
X-5760Y-3130D01*
Y-2997D01*
X-5860Y-2930D02*
Y-2797D01*
X-5827D01*
X-5693Y-2930D01*
X-5660D01*
X-3527Y-3113D02*
X-3560Y-3080D01*
X-3627D01*
X-3660Y-3113D01*
Y-3247D01*
X-3627Y-3280D01*
X-3560D01*
X-3527Y-3247D01*
X-3360Y-3280D02*
Y-3080D01*
X-3460Y-3180D01*
X-3327D01*
X-3160Y-3280D02*
Y-3080D01*
X-3260Y-3180D01*
X-3127D01*
X-1197Y-4053D02*
X-1230Y-4020D01*
X-1297D01*
X-1330Y-4053D01*
Y-4187D01*
X-1297Y-4220D01*
X-1230D01*
X-1197Y-4187D01*
X-1030Y-4220D02*
Y-4020D01*
X-1130Y-4120D01*
X-997D01*
X-930Y-4053D02*
X-897Y-4020D01*
X-830D01*
X-797Y-4053D01*
Y-4087D01*
X-830Y-4120D01*
X-863D01*
X-830D01*
X-797Y-4153D01*
Y-4187D01*
X-830Y-4220D01*
X-897D01*
X-930Y-4187D01*
X-5497Y5657D02*
X-5530Y5690D01*
X-5597D01*
X-5630Y5657D01*
Y5523D01*
X-5597Y5490D01*
X-5530D01*
X-5497Y5523D01*
X-5430Y5657D02*
X-5397Y5690D01*
X-5330D01*
X-5297Y5657D01*
Y5623D01*
X-5330Y5590D01*
X-5363D01*
X-5330D01*
X-5297Y5557D01*
Y5523D01*
X-5330Y5490D01*
X-5397D01*
X-5430Y5523D01*
X-5230Y5657D02*
X-5197Y5690D01*
X-5130D01*
X-5097Y5657D01*
Y5623D01*
X-5130Y5590D01*
X-5097Y5557D01*
Y5523D01*
X-5130Y5490D01*
X-5197D01*
X-5230Y5523D01*
Y5557D01*
X-5197Y5590D01*
X-5230Y5623D01*
Y5657D01*
X-5197Y5590D02*
X-5130D01*
X-5820Y6295D02*
X-5845Y6320D01*
X-5895D01*
X-5920Y6295D01*
Y6195D01*
X-5895Y6170D01*
X-5845D01*
X-5820Y6195D01*
X-5770Y6295D02*
X-5745Y6320D01*
X-5695D01*
X-5670Y6295D01*
Y6270D01*
X-5695Y6245D01*
X-5720D01*
X-5695D01*
X-5670Y6220D01*
Y6195D01*
X-5695Y6170D01*
X-5745D01*
X-5770Y6195D01*
X-5620Y6320D02*
X-5520D01*
Y6295D01*
X-5620Y6195D01*
Y6170D01*
X-3117Y-5987D02*
X-3150Y-6020D01*
Y-6087D01*
X-3117Y-6120D01*
X-2983D01*
X-2950Y-6087D01*
Y-6020D01*
X-2983Y-5987D01*
X-3117Y-5920D02*
X-3150Y-5887D01*
Y-5820D01*
X-3117Y-5787D01*
X-3083D01*
X-3050Y-5820D01*
Y-5853D01*
Y-5820D01*
X-3017Y-5787D01*
X-2983D01*
X-2950Y-5820D01*
Y-5887D01*
X-2983Y-5920D01*
X-3150Y-5587D02*
X-3117Y-5653D01*
X-3050Y-5720D01*
X-2983D01*
X-2950Y-5687D01*
Y-5620D01*
X-2983Y-5587D01*
X-3017D01*
X-3050Y-5620D01*
Y-5720D01*
X-3127Y-5307D02*
X-3160Y-5340D01*
Y-5407D01*
X-3127Y-5440D01*
X-2993D01*
X-2960Y-5407D01*
Y-5340D01*
X-2993Y-5307D01*
X-3127Y-5240D02*
X-3160Y-5207D01*
Y-5140D01*
X-3127Y-5107D01*
X-3093D01*
X-3060Y-5140D01*
Y-5173D01*
Y-5140D01*
X-3027Y-5107D01*
X-2993D01*
X-2960Y-5140D01*
Y-5207D01*
X-2993Y-5240D01*
X-3160Y-4907D02*
Y-5040D01*
X-3060D01*
X-3093Y-4973D01*
Y-4940D01*
X-3060Y-4907D01*
X-2993D01*
X-2960Y-4940D01*
Y-5007D01*
X-2993Y-5040D01*
X-5407Y-4727D02*
X-5440Y-4760D01*
Y-4827D01*
X-5407Y-4860D01*
X-5273D01*
X-5240Y-4827D01*
Y-4760D01*
X-5273Y-4727D01*
X-5407Y-4660D02*
X-5440Y-4627D01*
Y-4560D01*
X-5407Y-4527D01*
X-5373D01*
X-5340Y-4560D01*
Y-4593D01*
Y-4560D01*
X-5307Y-4527D01*
X-5273D01*
X-5240Y-4560D01*
Y-4627D01*
X-5273Y-4660D01*
X-5407Y-4460D02*
X-5440Y-4427D01*
Y-4360D01*
X-5407Y-4327D01*
X-5373D01*
X-5340Y-4360D01*
Y-4393D01*
Y-4360D01*
X-5307Y-4327D01*
X-5273D01*
X-5240Y-4360D01*
Y-4427D01*
X-5273Y-4460D01*
X53Y3277D02*
X20Y3310D01*
X-47D01*
X-80Y3277D01*
Y3143D01*
X-47Y3110D01*
X20D01*
X53Y3143D01*
X253Y3110D02*
X120D01*
X253Y3243D01*
Y3277D01*
X220Y3310D01*
X153D01*
X120Y3277D01*
X453Y3110D02*
X320D01*
X453Y3243D01*
Y3277D01*
X420Y3310D01*
X353D01*
X320Y3277D01*
X-1497Y2873D02*
X-1530Y2840D01*
Y2773D01*
X-1497Y2740D01*
X-1363D01*
X-1330Y2773D01*
Y2840D01*
X-1363Y2873D01*
X-1330Y3073D02*
Y2940D01*
X-1463Y3073D01*
X-1497D01*
X-1530Y3040D01*
Y2973D01*
X-1497Y2940D01*
X-1330Y3140D02*
Y3207D01*
Y3173D01*
X-1530D01*
X-1497Y3140D01*
X73Y4157D02*
X40Y4190D01*
X-27D01*
X-60Y4157D01*
Y4023D01*
X-27Y3990D01*
X40D01*
X73Y4023D01*
X273Y3990D02*
X140D01*
X273Y4123D01*
Y4157D01*
X240Y4190D01*
X173D01*
X140Y4157D01*
X340D02*
X373Y4190D01*
X440D01*
X473Y4157D01*
Y4023D01*
X440Y3990D01*
X373D01*
X340Y4023D01*
Y4157D01*
X-5097Y5357D02*
X-5130Y5390D01*
X-5197D01*
X-5230Y5357D01*
Y5223D01*
X-5197Y5190D01*
X-5130D01*
X-5097Y5223D01*
X-5030Y5190D02*
X-4963D01*
X-4997D01*
Y5390D01*
X-5030Y5357D01*
X-4863Y5390D02*
X-4730D01*
Y5357D01*
X-4863Y5223D01*
Y5190D01*
X-5237Y6387D02*
X-5270Y6420D01*
X-5337D01*
X-5370Y6387D01*
Y6253D01*
X-5337Y6220D01*
X-5270D01*
X-5237Y6253D01*
X-5170Y6220D02*
X-5103D01*
X-5137D01*
Y6420D01*
X-5170Y6387D01*
X-4870Y6420D02*
X-4937Y6387D01*
X-5003Y6320D01*
Y6253D01*
X-4970Y6220D01*
X-4903D01*
X-4870Y6253D01*
Y6287D01*
X-4903Y6320D01*
X-5003D01*
X5853Y6093D02*
X5820Y6126D01*
X5753D01*
X5720Y6093D01*
Y5959D01*
X5753Y5926D01*
X5820D01*
X5853Y5959D01*
X5920D02*
X5953Y5926D01*
X6020D01*
X6053Y5959D01*
Y6093D01*
X6020Y6126D01*
X5953D01*
X5920Y6093D01*
Y6059D01*
X5953Y6026D01*
X6053D01*
X2653Y5907D02*
X2620Y5940D01*
X2553D01*
X2520Y5907D01*
Y5773D01*
X2553Y5740D01*
X2620D01*
X2653Y5773D01*
X2720Y5907D02*
X2753Y5940D01*
X2820D01*
X2853Y5907D01*
Y5873D01*
X2820Y5840D01*
X2853Y5807D01*
Y5773D01*
X2820Y5740D01*
X2753D01*
X2720Y5773D01*
Y5807D01*
X2753Y5840D01*
X2720Y5873D01*
Y5907D01*
X2753Y5840D02*
X2820D01*
X2833Y3647D02*
X2800Y3680D01*
X2733D01*
X2700Y3647D01*
Y3513D01*
X2733Y3480D01*
X2800D01*
X2833Y3513D01*
X3000Y3480D02*
Y3680D01*
X2900Y3580D01*
X3033D01*
X4003Y897D02*
X3970Y930D01*
X3903D01*
X3870Y897D01*
Y763D01*
X3903Y730D01*
X3970D01*
X4003Y763D01*
X4070Y897D02*
X4103Y930D01*
X4170D01*
X4203Y897D01*
Y863D01*
X4170Y830D01*
X4137D01*
X4170D01*
X4203Y797D01*
Y763D01*
X4170Y730D01*
X4103D01*
X4070Y763D01*
X5753Y817D02*
X5720Y850D01*
X5653D01*
X5620Y817D01*
Y683D01*
X5653Y650D01*
X5720D01*
X5753Y683D01*
X5953Y650D02*
X5820D01*
X5953Y783D01*
Y817D01*
X5920Y850D01*
X5853D01*
X5820Y817D01*
X5053Y887D02*
X5020Y920D01*
X4953D01*
X4920Y887D01*
Y753D01*
X4953Y720D01*
X5020D01*
X5053Y753D01*
X5120Y720D02*
X5187D01*
X5153D01*
Y920D01*
X5120Y887D01*
X203Y5477D02*
X170Y5510D01*
X103D01*
X70Y5477D01*
Y5343D01*
X103Y5310D01*
X170D01*
X203Y5343D01*
X403Y5510D02*
X270D01*
Y5410D01*
X337Y5443D01*
X370D01*
X403Y5410D01*
Y5343D01*
X370Y5310D01*
X303D01*
X270Y5343D01*
X470Y5510D02*
X603D01*
Y5477D01*
X470Y5343D01*
Y5310D01*
X713Y3783D02*
X680Y3750D01*
Y3683D01*
X713Y3650D01*
X847D01*
X880Y3683D01*
Y3750D01*
X847Y3783D01*
X680Y3983D02*
Y3850D01*
X780D01*
X747Y3917D01*
Y3950D01*
X780Y3983D01*
X847D01*
X880Y3950D01*
Y3883D01*
X847Y3850D01*
X713Y4050D02*
X680Y4083D01*
Y4150D01*
X713Y4183D01*
X747D01*
X780Y4150D01*
X813Y4183D01*
X847D01*
X880Y4150D01*
Y4083D01*
X847Y4050D01*
X813D01*
X780Y4083D01*
X747Y4050D01*
X713D01*
X780Y4083D02*
Y4150D01*
D68*
X-5820Y3480D02*
X-6020D01*
Y3380D01*
X-5987Y3347D01*
X-5853D01*
X-5820Y3380D01*
Y3480D01*
X-5853Y3280D02*
X-5820Y3247D01*
Y3180D01*
X-5853Y3147D01*
X-5887D01*
X-5920Y3180D01*
Y3213D01*
Y3180D01*
X-5953Y3147D01*
X-5987D01*
X-6020Y3180D01*
Y3247D01*
X-5987Y3280D01*
X-6388Y4897D02*
Y5096D01*
X-6288D01*
X-6255Y5063D01*
Y4997D01*
X-6288Y4963D01*
X-6388D01*
X-6321D02*
X-6255Y4897D01*
X-6055D02*
X-6188D01*
X-6055Y5030D01*
Y5063D01*
X-6088Y5096D01*
X-6155D01*
X-6188Y5063D01*
X-5855Y4897D02*
X-5988D01*
X-5855Y5030D01*
Y5063D01*
X-5888Y5096D01*
X-5955D01*
X-5988Y5063D01*
X-6160Y2480D02*
X-6360D01*
Y2580D01*
X-6327Y2613D01*
X-6260D01*
X-6227Y2580D01*
Y2480D01*
Y2547D02*
X-6160Y2613D01*
Y2813D02*
Y2680D01*
X-6293Y2813D01*
X-6327D01*
X-6360Y2780D01*
Y2713D01*
X-6327Y2680D01*
X-6160Y2980D02*
X-6360D01*
X-6260Y2880D01*
Y3013D01*
X-5740Y2480D02*
X-5940D01*
Y2580D01*
X-5907Y2613D01*
X-5840D01*
X-5807Y2580D01*
Y2480D01*
Y2547D02*
X-5740Y2613D01*
Y2813D02*
Y2680D01*
X-5873Y2813D01*
X-5907D01*
X-5940Y2780D01*
Y2713D01*
X-5907Y2680D01*
Y2880D02*
X-5940Y2913D01*
Y2980D01*
X-5907Y3013D01*
X-5873D01*
X-5840Y2980D01*
Y2947D01*
Y2980D01*
X-5807Y3013D01*
X-5773D01*
X-5740Y2980D01*
Y2913D01*
X-5773Y2880D01*
X-4160Y-5720D02*
X-4227D01*
X-4260Y-5753D01*
Y-5887D01*
X-4227Y-5920D01*
X-4160D01*
X-4127Y-5887D01*
Y-5753D01*
X-4160Y-5720D01*
X-4060Y-5987D02*
Y-5787D01*
X-3960D01*
X-3927Y-5820D01*
Y-5887D01*
X-3960Y-5920D01*
X-4060D01*
X-3827D02*
X-3760D01*
X-3727Y-5887D01*
Y-5820D01*
X-3760Y-5787D01*
X-3827D01*
X-3860Y-5820D01*
Y-5887D01*
X-3827Y-5920D01*
X-3560D02*
Y-5720D01*
X-3660Y-5820D01*
X-3527D01*
X-4950Y-5370D02*
Y-5570D01*
Y-5470D01*
X-4817D01*
Y-5370D01*
Y-5570D01*
X-4750Y-5437D02*
Y-5537D01*
X-4717Y-5570D01*
X-4617D01*
Y-5437D01*
X-4517D02*
X-4450D01*
X-4417Y-5470D01*
Y-5570D01*
X-4517D01*
X-4550Y-5537D01*
X-4517Y-5503D01*
X-4417D01*
X-4350Y-5570D02*
Y-5437D01*
X-4250D01*
X-4217Y-5470D01*
Y-5570D01*
X-4084Y-5637D02*
X-4050D01*
X-4017Y-5603D01*
Y-5437D01*
X-4117D01*
X-4150Y-5470D01*
Y-5537D01*
X-4117Y-5570D01*
X-4017D01*
X-3917Y-5603D02*
X-3884Y-5570D01*
Y-5537D01*
X-3917D01*
Y-5570D01*
X-3884D01*
X-3917Y-5603D01*
X-3950Y-5637D01*
X-4960Y-5720D02*
Y-5920D01*
Y-5853D01*
X-4827Y-5720D01*
X-4927Y-5820D01*
X-4827Y-5920D01*
X-4760Y-5787D02*
Y-5887D01*
X-4727Y-5920D01*
X-4627D01*
Y-5787D01*
X-4527Y-5920D02*
X-4460D01*
X-4427Y-5887D01*
Y-5820D01*
X-4460Y-5787D01*
X-4527D01*
X-4560Y-5820D01*
Y-5887D01*
X-4527Y-5920D01*
X-5737Y-6220D02*
X-5870D01*
X-5737Y-6087D01*
Y-6053D01*
X-5770Y-6020D01*
X-5837D01*
X-5870Y-6053D01*
X-5670D02*
X-5637Y-6020D01*
X-5570D01*
X-5537Y-6053D01*
Y-6187D01*
X-5570Y-6220D01*
X-5637D01*
X-5670Y-6187D01*
Y-6053D01*
X-5470Y-6220D02*
X-5403D01*
X-5437D01*
Y-6020D01*
X-5470Y-6053D01*
X-5204Y-6220D02*
Y-6020D01*
X-5304Y-6120D01*
X-5170D01*
M02*
