%FSLAX24Y24*%
%MOIN*%
G70*
G01*
G75*
G04 Layer_Physical_Order=4*
G04 Layer_Color=16711680*
%ADD10C,0.0177*%
%ADD11C,0.0100*%
%ADD12O,0.0295X0.0079*%
%ADD13R,0.0157X0.0236*%
%ADD14R,0.0217X0.0098*%
%ADD15O,0.0315X0.0079*%
%ADD16R,0.0236X0.0157*%
%ADD17R,0.0354X0.0197*%
%ADD18R,0.0157X0.0335*%
%ADD19O,0.0177X0.0532*%
%ADD20R,0.0118X0.0209*%
%ADD21R,0.0118X0.0193*%
%ADD22O,0.0098X0.0276*%
%ADD23O,0.0276X0.0098*%
%ADD24R,0.0335X0.0157*%
%ADD25R,0.0157X0.0532*%
%ADD26R,0.0748X0.0630*%
%ADD27R,0.0630X0.0551*%
%ADD28O,0.0079X0.0315*%
%ADD29R,0.2598X0.2598*%
%ADD30R,0.0138X0.0394*%
%ADD31R,0.0343X0.0343*%
%ADD32R,0.1417X0.1417*%
%ADD33O,0.0079X0.0295*%
%ADD34R,0.0335X0.0374*%
%ADD35R,0.0551X0.0453*%
%ADD36R,0.0197X0.0354*%
%ADD37R,0.0591X0.1339*%
%ADD38R,0.0394X0.1378*%
%ADD39R,0.0138X0.0157*%
%ADD40R,0.0177X0.0177*%
%ADD41C,0.0200*%
%ADD42C,0.0080*%
%ADD43C,0.1260*%
%ADD44C,0.0630*%
%ADD45C,0.0260*%
%ADD46C,0.0290*%
%ADD47C,0.0240*%
%ADD48C,0.0300*%
%ADD49C,0.0340*%
%ADD50R,0.0098X0.0138*%
%ADD51R,0.0187X0.0098*%
%ADD52R,0.0591X0.0236*%
%ADD53O,0.0098X0.0315*%
%ADD54O,0.0315X0.0098*%
%ADD55R,0.1299X0.1299*%
%ADD56R,0.0197X0.0315*%
%ADD57R,0.0394X0.0217*%
%ADD58R,0.0512X0.0217*%
%ADD59R,0.0354X0.0276*%
%ADD60R,0.2362X0.1890*%
%ADD61O,0.0315X0.0157*%
G36*
X-1499Y1681D02*
X-1463Y1656D01*
X-1420Y1648D01*
X-1420Y1648D01*
X2324D01*
X4211Y-239D01*
X4247Y-264D01*
X4290Y-272D01*
X4290Y-272D01*
X5034D01*
X5927Y-1166D01*
Y-2134D01*
X5562Y-2499D01*
X5516Y-2480D01*
Y-2312D01*
X5377D01*
Y-2530D01*
X5297D01*
Y-2312D01*
X5158D01*
Y-2320D01*
X5122Y-2352D01*
X4844D01*
Y-2373D01*
X4498D01*
Y-2368D01*
X3866D01*
Y-2373D01*
X3814D01*
X3752Y-2385D01*
X3699Y-2421D01*
X3560Y-2559D01*
X3514Y-2540D01*
Y-2368D01*
X2882D01*
Y-2373D01*
X2510D01*
X2441Y-2304D01*
X2460Y-2258D01*
X2632D01*
X2668Y-2290D01*
Y-2298D01*
X2807D01*
Y-2080D01*
X2887D01*
Y-2298D01*
X3026D01*
Y-2298D01*
X3034Y-2258D01*
X3298D01*
X3312Y-2258D01*
X3348Y-2290D01*
Y-2298D01*
X3487D01*
Y-2080D01*
Y-1862D01*
X3386D01*
X3348Y-1862D01*
X3336Y-1817D01*
Y-1532D01*
X3435D01*
Y-1198D01*
X3475D01*
Y-1030D01*
X3178D01*
Y-950D01*
X3475D01*
Y-782D01*
X3435D01*
Y-448D01*
X2921D01*
Y-453D01*
X2884D01*
X2822Y-465D01*
X2769Y-501D01*
X2554Y-715D01*
X2519Y-768D01*
X2507Y-830D01*
Y-1296D01*
X1973Y-1830D01*
X1970Y-1829D01*
X1880Y-1847D01*
X1804Y-1898D01*
X1753Y-1974D01*
X1735Y-2064D01*
X1753Y-2153D01*
X1804Y-2230D01*
X1880Y-2280D01*
X1902Y-2285D01*
Y-2336D01*
X1876Y-2341D01*
X1813Y-2383D01*
X246D01*
X226Y-2333D01*
X259Y-2284D01*
X274Y-2210D01*
X259Y-2136D01*
X217Y-2073D01*
X192Y-2056D01*
Y-1935D01*
X192Y-1935D01*
X184Y-1892D01*
X159Y-1856D01*
X159Y-1856D01*
X77Y-1773D01*
X96Y-1727D01*
X145D01*
Y-1450D01*
Y-1173D01*
X139D01*
X126Y-1128D01*
X126Y-1123D01*
Y-950D01*
X-53D01*
Y-910D01*
X-93D01*
Y-692D01*
X-232D01*
Y-700D01*
X-232Y-700D01*
X-268Y-732D01*
X-282Y-732D01*
X-546D01*
Y-927D01*
X-656Y-1038D01*
X-854D01*
Y-950D01*
X-1033D01*
Y-910D01*
X-1073D01*
Y-692D01*
X-1212D01*
Y-700D01*
X-1248Y-732D01*
X-1474D01*
X-1478Y-728D01*
X-1500Y-682D01*
X-1499Y-680D01*
X-1499Y-680D01*
X-1481Y-675D01*
X-1369Y-640D01*
X-1249Y-576D01*
X-1144Y-490D01*
X-1057Y-385D01*
X-993Y-265D01*
X-954Y-135D01*
X-941Y0D01*
X-954Y135D01*
X-993Y265D01*
X-1057Y385D01*
X-1144Y490D01*
X-1249Y576D01*
X-1369Y640D01*
X-1499Y680D01*
X-1634Y693D01*
X-1769Y680D01*
X-1899Y640D01*
X-2019Y576D01*
X-2124Y490D01*
X-2210Y385D01*
X-2274Y265D01*
X-2314Y135D01*
X-2327Y0D01*
X-2314Y-135D01*
X-2274Y-265D01*
X-2210Y-385D01*
X-2124Y-490D01*
X-2019Y-576D01*
X-1899Y-640D01*
X-1769Y-680D01*
X-1634Y-693D01*
X-1564Y-686D01*
X-1561Y-689D01*
X-1561D01*
X-1552Y-697D01*
X-1526Y-722D01*
X-1526Y-723D01*
X-1526Y-731D01*
Y-731D01*
X-1526Y-731D01*
X-1526Y-733D01*
X-1526Y-733D01*
Y-733D01*
Y-733D01*
Y-735D01*
X-1526Y-752D01*
X-1526Y-777D01*
X-1526Y-777D01*
X-1526Y-778D01*
Y-1088D01*
X-1515D01*
Y-1150D01*
Y-1212D01*
X-1526D01*
Y-1294D01*
X-1741D01*
Y-1228D01*
X-2115D01*
X-2360Y-983D01*
X-2341Y-954D01*
X-2326Y-880D01*
X-2341Y-806D01*
X-2383Y-743D01*
X-2446Y-701D01*
X-2520Y-686D01*
X-2594Y-701D01*
X-2645Y-675D01*
X-2651Y-664D01*
X-2636Y-590D01*
X-2651Y-516D01*
X-2693Y-453D01*
X-2756Y-411D01*
X-2830Y-396D01*
X-2904Y-411D01*
X-2967Y-453D01*
X-2984Y-478D01*
X-3168D01*
X-3176Y-472D01*
X-3219Y-464D01*
X-3254Y-435D01*
Y-370D01*
X-3433D01*
Y-330D01*
X-3473D01*
Y-112D01*
X-3595D01*
X-3618Y-65D01*
X-3599Y-24D01*
X-3467D01*
Y294D01*
X-3338Y423D01*
X-3313Y460D01*
X-3305Y503D01*
X-3305Y503D01*
Y977D01*
X-3305Y977D01*
X-3311Y1007D01*
X-3298Y1042D01*
X-3282Y1064D01*
X-3246Y1071D01*
X-3183Y1113D01*
X-3141Y1176D01*
X-3135Y1204D01*
X-3085D01*
X-3079Y1176D01*
X-3037Y1113D01*
X-2974Y1071D01*
X-2900Y1056D01*
X-2826Y1071D01*
X-2763Y1113D01*
X-2721Y1176D01*
X-2706Y1250D01*
X-2721Y1324D01*
X-2763Y1387D01*
X-2784Y1401D01*
Y1550D01*
X-2963D01*
Y1630D01*
X-2784D01*
Y1728D01*
X-1546D01*
X-1499Y1681D01*
D02*
G37*
G36*
X5883Y5775D02*
Y4928D01*
X5853Y4915D01*
X5833Y4910D01*
X5774Y4949D01*
X5700Y4964D01*
X5683Y4960D01*
X5440Y5204D01*
Y5421D01*
X5440D01*
Y5459D01*
X5440D01*
Y5855D01*
X5480Y5863D01*
X5556Y5914D01*
X5603Y5984D01*
X5633Y5998D01*
X5653Y6004D01*
X5883Y5775D01*
D02*
G37*
G36*
X6388Y-5518D02*
X6372Y-5673D01*
X6322Y-5840D01*
X6239Y-5994D01*
X6129Y-6129D01*
X5994Y-6239D01*
X5840Y-6322D01*
X5673Y-6372D01*
X5505Y-6389D01*
X5500Y-6388D01*
X5231D01*
X5212Y-6342D01*
X5622Y-5931D01*
X5684D01*
X5738Y-5921D01*
X5766Y-5902D01*
X5797D01*
X5797Y-5902D01*
X5840Y-5894D01*
X5876Y-5869D01*
X6278Y-5468D01*
X6356D01*
X6388Y-5518D01*
D02*
G37*
G36*
X-5086Y915D02*
X-5084Y913D01*
X-5092Y870D01*
X-5092Y870D01*
Y-1795D01*
X-5136Y-1818D01*
X-5148Y-1811D01*
X-5197Y-1801D01*
Y-2027D01*
X-5277D01*
Y-1801D01*
X-5327Y-1811D01*
X-5403Y-1861D01*
X-5454Y-1938D01*
X-5459Y-1962D01*
X-5523D01*
Y-2180D01*
X-5603D01*
Y-1962D01*
X-5742D01*
Y-1962D01*
X-5792Y-1965D01*
X-5805Y-1959D01*
Y-1726D01*
X-5742D01*
Y-1462D01*
X-5742Y-1448D01*
X-5710Y-1412D01*
X-5702D01*
Y-1273D01*
X-6138D01*
Y-1412D01*
X-6130D01*
X-6130Y-1412D01*
X-6098Y-1448D01*
X-6098Y-1462D01*
Y-1726D01*
X-6029D01*
Y-2002D01*
X-6056D01*
Y-2358D01*
X-6056Y-2358D01*
X-6056D01*
Y-2358D01*
X-6056D01*
X-6056Y-2358D01*
X-6024Y-2394D01*
X-6023Y-2394D01*
X-6021Y-2406D01*
X-5996Y-2442D01*
X-5878Y-2561D01*
X-5884Y-2590D01*
X-5869Y-2664D01*
X-5827Y-2727D01*
X-5764Y-2769D01*
X-5690Y-2784D01*
X-5616Y-2769D01*
X-5553Y-2727D01*
X-5511Y-2664D01*
X-5496Y-2590D01*
X-5511Y-2516D01*
X-5553Y-2453D01*
X-5560Y-2448D01*
X-5545Y-2398D01*
X-5384D01*
Y-2259D01*
X-5340Y-2235D01*
X-5327Y-2244D01*
X-5265Y-2256D01*
X-5244Y-2287D01*
X-5244Y-2287D01*
Y-3052D01*
X-5383D01*
Y-3270D01*
X-5463D01*
Y-3052D01*
X-5602D01*
Y-3060D01*
X-5638Y-3092D01*
X-5916D01*
Y-3448D01*
X-5892D01*
Y-3506D01*
X-5917Y-3523D01*
X-5959Y-3586D01*
X-5974Y-3660D01*
X-5959Y-3734D01*
X-5929Y-3779D01*
X-5965Y-3815D01*
X-5986Y-3801D01*
X-6060Y-3786D01*
X-6134Y-3801D01*
X-6178Y-3830D01*
X-6228Y-3806D01*
Y-741D01*
X-6178Y-726D01*
X-6177Y-727D01*
X-6114Y-769D01*
X-6040Y-784D01*
X-5966Y-769D01*
X-5903Y-727D01*
X-5861Y-664D01*
X-5846Y-590D01*
X-5861Y-516D01*
X-5888Y-476D01*
X-5862Y-426D01*
X-5862D01*
X-5819Y-409D01*
X-5718D01*
Y-426D01*
X-5679D01*
X-5660Y-476D01*
X-5693Y-526D01*
X-5708Y-600D01*
X-5693Y-674D01*
X-5651Y-737D01*
X-5588Y-779D01*
X-5514Y-794D01*
X-5440Y-779D01*
X-5377Y-737D01*
X-5335Y-674D01*
X-5320Y-600D01*
X-5335Y-526D01*
X-5368Y-476D01*
X-5362Y-426D01*
X-5362D01*
X-5362Y-426D01*
Y-162D01*
X-5362Y-148D01*
X-5330Y-112D01*
X-5322D01*
Y27D01*
X-5758D01*
Y-112D01*
X-5758D01*
X-5738Y-157D01*
X-5743Y-171D01*
X-5758Y-185D01*
X-5827D01*
X-5835Y-177D01*
X-5842Y-157D01*
X-5822Y-112D01*
X-5822D01*
Y27D01*
X-6040D01*
Y107D01*
X-5822D01*
Y246D01*
X-5990D01*
X-6009Y292D01*
X-5631Y670D01*
X-5449D01*
X-5449Y670D01*
X-5406Y678D01*
X-5369Y703D01*
X-5155Y917D01*
X-5086Y915D01*
D02*
G37*
G36*
X-714Y-1288D02*
X-689Y-1325D01*
X-564Y-1450D01*
Y-1687D01*
X-327D01*
X-32Y-1982D01*
Y-2056D01*
X-57Y-2073D01*
X-99Y-2136D01*
X-114Y-2210D01*
X-99Y-2284D01*
X-66Y-2333D01*
X-86Y-2383D01*
X-326D01*
Y-2194D01*
X-723D01*
Y-2431D01*
X-665D01*
X-646Y-2477D01*
X-741Y-2572D01*
X-770Y-2566D01*
X-844Y-2581D01*
X-907Y-2623D01*
X-949Y-2686D01*
X-964Y-2760D01*
X-949Y-2834D01*
X-907Y-2897D01*
X-844Y-2939D01*
X-770Y-2954D01*
X-696Y-2939D01*
X-633Y-2897D01*
X-591Y-2834D01*
X-576Y-2760D01*
X-582Y-2731D01*
X-459Y-2607D01*
X593D01*
X620Y-2657D01*
X601Y-2686D01*
X586Y-2760D01*
X601Y-2834D01*
X643Y-2897D01*
X706Y-2939D01*
X738Y-2945D01*
Y-3326D01*
X713Y-3343D01*
X671Y-3406D01*
X656Y-3480D01*
X671Y-3554D01*
X713Y-3617D01*
X776Y-3659D01*
X808Y-3665D01*
X825Y-3720D01*
X317Y-4227D01*
X-412D01*
X-436Y-4211D01*
X-510Y-4196D01*
X-584Y-4211D01*
X-647Y-4253D01*
X-689Y-4316D01*
X-704Y-4390D01*
X-689Y-4464D01*
X-647Y-4527D01*
X-584Y-4569D01*
X-510Y-4584D01*
X-436Y-4569D01*
X-412Y-4553D01*
X385D01*
X447Y-4541D01*
X500Y-4505D01*
X1013Y-3993D01*
X1061Y-4007D01*
X1063Y-4020D01*
X1114Y-4096D01*
X1190Y-4147D01*
X1240Y-4157D01*
Y-3930D01*
X1320D01*
Y-4157D01*
X1370Y-4147D01*
X1446Y-4096D01*
X1487Y-4034D01*
X1533Y-4028D01*
X1545Y-4030D01*
X1563Y-4057D01*
X1626Y-4099D01*
X1700Y-4114D01*
X1774Y-4099D01*
X1837Y-4057D01*
X1879Y-3994D01*
X1894Y-3920D01*
X1879Y-3846D01*
X1837Y-3783D01*
X1774Y-3741D01*
X1700Y-3726D01*
X1626Y-3741D01*
X1563Y-3783D01*
X1539Y-3818D01*
X1481Y-3816D01*
X1446Y-3764D01*
X1370Y-3713D01*
X1357Y-3711D01*
X1343Y-3663D01*
X1843Y-3163D01*
X2256D01*
X2310Y-3152D01*
X2338Y-3170D01*
X2354Y-3187D01*
X2354Y-3190D01*
X2786D01*
X2777Y-3144D01*
X2729Y-3071D01*
X2656Y-3023D01*
X2629Y-3017D01*
X2634Y-2967D01*
X3546D01*
X3608Y-2955D01*
X3661Y-2920D01*
X3780Y-2801D01*
X3826Y-2820D01*
Y-2870D01*
X4182D01*
Y-2950D01*
X3826D01*
Y-3118D01*
X3831D01*
X3866Y-3154D01*
Y-3424D01*
X3866Y-3452D01*
X3825Y-3474D01*
X3825Y-3474D01*
X3555D01*
X3514Y-3452D01*
X3514Y-3424D01*
Y-3116D01*
X2882D01*
Y-3424D01*
X2882Y-3452D01*
X2841Y-3474D01*
X2841Y-3474D01*
X2691D01*
X2676Y-3424D01*
X2729Y-3389D01*
X2777Y-3316D01*
X2786Y-3270D01*
X2342D01*
X2307Y-3293D01*
X2304Y-3291D01*
X2230Y-3276D01*
X2156Y-3291D01*
X2093Y-3333D01*
X2051Y-3396D01*
X2036Y-3470D01*
X2051Y-3544D01*
X2093Y-3607D01*
X2156Y-3649D01*
X2230Y-3664D01*
X2259Y-3658D01*
X2267Y-3665D01*
X2267Y-3665D01*
X2303Y-3690D01*
X2346Y-3698D01*
X2346Y-3698D01*
X4799D01*
Y-3764D01*
X5273D01*
Y-3368D01*
X4799D01*
Y-3474D01*
X4539D01*
X4498Y-3452D01*
X4498Y-3424D01*
Y-3238D01*
X4527Y-3232D01*
X4563Y-3208D01*
X4753Y-3018D01*
X4799Y-3037D01*
Y-3252D01*
X5273D01*
Y-3166D01*
X5547D01*
Y-3508D01*
X6021D01*
X6032Y-3553D01*
Y-3636D01*
X6185D01*
Y-4135D01*
X6147Y-4149D01*
X6135Y-4152D01*
X6074Y-4111D01*
X6000Y-4096D01*
X5926Y-4111D01*
X5863Y-4153D01*
X5840Y-4188D01*
X5781D01*
X5738Y-4159D01*
X5684Y-4149D01*
X5526D01*
X5472Y-4159D01*
X5426Y-4190D01*
X5396Y-4236D01*
X5385Y-4290D01*
X5396Y-4344D01*
X5426Y-4390D01*
X5472Y-4421D01*
X5526Y-4431D01*
X5684D01*
X5738Y-4421D01*
X5781Y-4392D01*
X5840D01*
X5863Y-4427D01*
X5926Y-4469D01*
X6000Y-4484D01*
X6074Y-4469D01*
X6135Y-4428D01*
X6147Y-4431D01*
X6185Y-4445D01*
Y-4635D01*
X6147Y-4649D01*
X6135Y-4652D01*
X6074Y-4611D01*
X6000Y-4596D01*
X5926Y-4611D01*
X5863Y-4653D01*
X5840Y-4688D01*
X5781D01*
X5738Y-4659D01*
X5684Y-4649D01*
X5526D01*
X5472Y-4659D01*
X5426Y-4690D01*
X5396Y-4736D01*
X5385Y-4790D01*
X5396Y-4844D01*
X5426Y-4890D01*
X5472Y-4921D01*
X5526Y-4931D01*
X5684D01*
X5738Y-4921D01*
X5781Y-4892D01*
X5840D01*
X5863Y-4927D01*
X5926Y-4969D01*
X6000Y-4984D01*
X6074Y-4969D01*
X6135Y-4928D01*
X6147Y-4931D01*
X6185Y-4945D01*
Y-5112D01*
X6158D01*
Y-5266D01*
X6128Y-5291D01*
X6082Y-5271D01*
Y-5112D01*
X5804D01*
Y-5152D01*
X5754Y-5170D01*
X5738Y-5159D01*
X5684Y-5149D01*
X5526D01*
X5472Y-5159D01*
X5426Y-5190D01*
X5396Y-5236D01*
X5385Y-5290D01*
X5396Y-5344D01*
X5426Y-5390D01*
X5472Y-5421D01*
X5526Y-5431D01*
X5684D01*
X5738Y-5421D01*
X5754Y-5410D01*
X5804Y-5428D01*
Y-5468D01*
X5895D01*
X5914Y-5514D01*
X5757Y-5672D01*
X5738Y-5659D01*
X5684Y-5649D01*
X5526D01*
X5472Y-5659D01*
X5426Y-5690D01*
X5396Y-5736D01*
X5385Y-5790D01*
X5389Y-5810D01*
X5381Y-5816D01*
X5331Y-5793D01*
Y-5080D01*
X4090D01*
Y-6085D01*
X5086D01*
X5105Y-6131D01*
X5009Y-6228D01*
X2286D01*
X2088Y-6029D01*
X2104Y-5975D01*
X2134Y-5969D01*
X2197Y-5927D01*
X2220Y-5892D01*
X2319D01*
X2362Y-5921D01*
X2416Y-5931D01*
X2574D01*
X2628Y-5921D01*
X2674Y-5890D01*
X2704Y-5844D01*
X2715Y-5790D01*
X2704Y-5736D01*
X2674Y-5690D01*
X2628Y-5659D01*
X2574Y-5649D01*
X2416D01*
X2362Y-5659D01*
X2319Y-5688D01*
X2220D01*
X2197Y-5653D01*
X2134Y-5611D01*
X2060Y-5596D01*
X1986Y-5611D01*
X1923Y-5653D01*
X1881Y-5716D01*
X1877Y-5736D01*
X1829Y-5752D01*
X1795Y-5724D01*
Y-4968D01*
X1822D01*
Y-4612D01*
X1544D01*
Y-4968D01*
X1571D01*
Y-5783D01*
X1571Y-5783D01*
X1573Y-5792D01*
X1526Y-5813D01*
X1517Y-5803D01*
X1439Y-5742D01*
X1348Y-5705D01*
X1250Y-5692D01*
X1152Y-5705D01*
X1061Y-5742D01*
X983Y-5803D01*
X922Y-5881D01*
X885Y-5972D01*
X872Y-6070D01*
X885Y-6168D01*
X922Y-6259D01*
X983Y-6337D01*
X987Y-6341D01*
X971Y-6388D01*
X-971D01*
X-987Y-6341D01*
X-983Y-6337D01*
X-922Y-6259D01*
X-885Y-6168D01*
X-872Y-6070D01*
X-885Y-5972D01*
X-922Y-5881D01*
X-983Y-5803D01*
X-1061Y-5742D01*
X-1152Y-5705D01*
X-1231Y-5694D01*
X-1228Y-5644D01*
X-489D01*
X-487Y-5647D01*
X-424Y-5689D01*
X-350Y-5704D01*
X-276Y-5689D01*
X-213Y-5647D01*
X-175Y-5589D01*
X-155Y-5579D01*
X-124Y-5570D01*
X-104Y-5589D01*
X-104Y-5589D01*
X-68Y-5614D01*
X-35Y-5620D01*
X-17Y-5647D01*
X46Y-5689D01*
X120Y-5704D01*
X194Y-5689D01*
X257Y-5647D01*
X299Y-5584D01*
X314Y-5510D01*
X299Y-5436D01*
X257Y-5373D01*
X194Y-5331D01*
X120Y-5316D01*
X46Y-5331D01*
X22Y-5347D01*
X-27Y-5337D01*
X-31Y-5331D01*
X-31Y-5331D01*
X-171Y-5191D01*
X-208Y-5166D01*
X-251Y-5158D01*
X-251Y-5158D01*
X-1861D01*
X-1877Y-5108D01*
X-1841Y-5054D01*
X-1826Y-4980D01*
X-1841Y-4906D01*
X-1883Y-4843D01*
X-1908Y-4826D01*
Y-2332D01*
X-1741D01*
Y-2266D01*
X-1274D01*
Y-2391D01*
X-957D01*
Y-1917D01*
X-1274D01*
Y-2042D01*
X-1741D01*
Y-1976D01*
X-2115D01*
X-2163Y-1929D01*
X-2199Y-1904D01*
X-2242Y-1896D01*
X-2242Y-1896D01*
X-2449D01*
Y-1820D01*
X-2844D01*
Y-1740D01*
X-2449D01*
Y-1584D01*
X-1741D01*
Y-1518D01*
X-1526D01*
Y-1568D01*
X-1248D01*
X-1212Y-1600D01*
Y-1608D01*
X-1073D01*
Y-1390D01*
X-1033D01*
Y-1350D01*
X-854D01*
Y-1262D01*
X-719D01*
X-714Y-1288D01*
D02*
G37*
G36*
X4060Y5041D02*
Y4986D01*
X4377D01*
Y4986D01*
X4414D01*
Y4986D01*
X4731D01*
Y4986D01*
X4769D01*
Y4986D01*
X5086D01*
Y4986D01*
X5123D01*
Y4986D01*
X5340D01*
X5515Y4812D01*
X5506Y4770D01*
X5521Y4696D01*
X5563Y4633D01*
X5626Y4591D01*
X5700Y4576D01*
X5774Y4591D01*
X5837Y4633D01*
X5888Y4620D01*
X5891Y4604D01*
X5916Y4568D01*
X6062Y4421D01*
X6056Y4392D01*
X6071Y4318D01*
X6113Y4255D01*
X6170Y4217D01*
X6173Y4190D01*
X6170Y4163D01*
X6113Y4125D01*
X6096Y4100D01*
X5831D01*
X5788Y4092D01*
X5752Y4067D01*
X5752Y4067D01*
X5340Y3656D01*
X5182D01*
Y3392D01*
X5182Y3378D01*
X5150Y3342D01*
X5142D01*
Y3203D01*
X5578D01*
Y3342D01*
X5570D01*
X5570Y3342D01*
X5538Y3378D01*
X5538Y3392D01*
Y3537D01*
X5632Y3630D01*
X5682Y3610D01*
Y3378D01*
X5650Y3342D01*
X5642D01*
Y3203D01*
X5860D01*
Y3163D01*
X5900D01*
Y2984D01*
X6078D01*
Y2984D01*
X6128Y2989D01*
X6138Y2983D01*
Y2916D01*
X6022D01*
Y2638D01*
X5990Y2602D01*
X5982D01*
Y2463D01*
X6200D01*
Y2423D01*
X6240D01*
Y2244D01*
X6388D01*
Y-2964D01*
X6250D01*
Y-3143D01*
X6170D01*
Y-2964D01*
X5992D01*
Y-3112D01*
X5792D01*
X5773Y-3066D01*
X5981Y-2858D01*
X6010Y-2864D01*
X6084Y-2849D01*
X6147Y-2807D01*
X6189Y-2744D01*
X6204Y-2670D01*
X6189Y-2596D01*
X6147Y-2533D01*
X6084Y-2491D01*
X6010Y-2476D01*
X5963Y-2486D01*
X5939Y-2439D01*
X6119Y-2259D01*
X6143Y-2223D01*
X6152Y-2180D01*
X6152Y-2180D01*
Y-1120D01*
X6143Y-1077D01*
X6119Y-1040D01*
X6119Y-1040D01*
X5159Y-81D01*
X5123Y-56D01*
X5080Y-48D01*
X5080Y-48D01*
X4336D01*
X2449Y1839D01*
X2436Y1848D01*
X2451Y1898D01*
X2550D01*
X2550Y1898D01*
X2593Y1907D01*
X2630Y1931D01*
X2939Y2241D01*
X2939Y2241D01*
X2964Y2277D01*
X2972Y2320D01*
X2972Y2320D01*
Y4024D01*
X3583Y4634D01*
X3627Y4607D01*
X3643Y4523D01*
X3694Y4447D01*
X3733Y4422D01*
Y4372D01*
X3694Y4346D01*
X3643Y4270D01*
X3633Y4220D01*
X3860D01*
Y4140D01*
X3633D01*
X3643Y4090D01*
X3694Y4014D01*
X3733Y3988D01*
Y3938D01*
X3694Y3913D01*
X3643Y3837D01*
X3633Y3787D01*
X3860D01*
Y3747D01*
X3900D01*
Y3520D01*
X3950Y3530D01*
X4026Y3581D01*
X4052Y3620D01*
X4102D01*
X4127Y3581D01*
X4203Y3530D01*
X4253Y3520D01*
Y3747D01*
X4333D01*
Y3520D01*
X4383Y3530D01*
X4459Y3581D01*
X4485Y3620D01*
X4535D01*
X4560Y3581D01*
X4636Y3530D01*
X4686Y3520D01*
Y3747D01*
X4726D01*
Y3787D01*
X4953D01*
X4943Y3837D01*
X4892Y3913D01*
X4853Y3938D01*
Y3988D01*
X4892Y4014D01*
X4943Y4090D01*
X4953Y4140D01*
X4726D01*
Y4220D01*
X4953D01*
X4943Y4270D01*
X4892Y4346D01*
X4853Y4372D01*
Y4422D01*
X4892Y4447D01*
X4943Y4523D01*
X4953Y4573D01*
X4726D01*
Y4613D01*
X4686D01*
Y4840D01*
X4636Y4830D01*
X4560Y4779D01*
X4535Y4740D01*
X4485D01*
X4459Y4779D01*
X4383Y4830D01*
X4333Y4840D01*
Y4613D01*
X4253D01*
Y4840D01*
X4203Y4830D01*
X4127Y4779D01*
X4102Y4740D01*
X4052D01*
X4026Y4779D01*
X3950Y4830D01*
X3866Y4846D01*
X3839Y4891D01*
X4010Y5061D01*
X4060Y5041D01*
D02*
G37*
G36*
X1431Y-2651D02*
X1421Y-2666D01*
X1406Y-2740D01*
X1421Y-2814D01*
X1463Y-2877D01*
X1526Y-2919D01*
X1550Y-2924D01*
X1566Y-2978D01*
X1090Y-3455D01*
X1035Y-3438D01*
X1029Y-3406D01*
X987Y-3343D01*
X962Y-3326D01*
Y-2830D01*
X962Y-2830D01*
X961Y-2824D01*
X974Y-2760D01*
X959Y-2686D01*
X940Y-2657D01*
X967Y-2607D01*
X1407D01*
X1431Y-2651D01*
D02*
G37*
G36*
X-3277Y5133D02*
X-3240Y5108D01*
X-3255Y5058D01*
X-3346D01*
Y4880D01*
X-3167D01*
Y4800D01*
X-3346D01*
Y4622D01*
X-3291D01*
X-3276Y4572D01*
X-3326Y4539D01*
X-3352Y4500D01*
X-3402D01*
X-3428Y4539D01*
X-3504Y4589D01*
X-3553Y4599D01*
Y4373D01*
X-3633D01*
Y4599D01*
X-3683Y4589D01*
X-3759Y4539D01*
X-3785Y4500D01*
X-3835D01*
X-3861Y4539D01*
X-3937Y4589D01*
X-3987Y4599D01*
Y4373D01*
X-4067D01*
Y4599D01*
X-4116Y4589D01*
X-4192Y4539D01*
X-4218Y4500D01*
X-4268D01*
X-4294Y4539D01*
X-4318Y4555D01*
X-4323Y4604D01*
X-3739Y5188D01*
X-3314D01*
X-3277Y5133D01*
D02*
G37*
G36*
X-4667Y857D02*
X-4637Y813D01*
X-4574Y771D01*
X-4500Y756D01*
X-4426Y771D01*
X-4415Y778D01*
X-4372Y747D01*
X-4384Y690D01*
X-4374Y641D01*
X-4372Y614D01*
X-4410Y587D01*
X-4460Y577D01*
X-4536Y526D01*
X-4587Y450D01*
X-4597Y400D01*
X-4143D01*
X-4153Y450D01*
X-4160Y460D01*
X-4141Y506D01*
X-4116Y511D01*
X-4053Y553D01*
X-4039Y574D01*
X-3941D01*
Y488D01*
X-3655D01*
X-3636Y442D01*
X-3706Y372D01*
X-3941D01*
Y137D01*
X-3950Y91D01*
Y-167D01*
X-4112D01*
X-4136Y-151D01*
X-4210Y-136D01*
X-4284Y-151D01*
X-4347Y-193D01*
X-4389Y-256D01*
X-4404Y-330D01*
X-4389Y-404D01*
X-4347Y-467D01*
X-4284Y-509D01*
X-4210Y-524D01*
X-4136Y-509D01*
X-4112Y-493D01*
X-3926D01*
Y-508D01*
X-3696D01*
X-3650Y-558D01*
X-3651Y-572D01*
X-3652Y-572D01*
X-3652Y-572D01*
X-3747D01*
Y-790D01*
Y-1008D01*
X-3608D01*
Y-1000D01*
X-3608Y-1000D01*
X-3572Y-968D01*
X-3558Y-968D01*
X-3294D01*
Y-810D01*
X-3186Y-702D01*
X-2984D01*
X-2967Y-727D01*
X-2904Y-769D01*
X-2892Y-771D01*
Y-1036D01*
X-3329Y-1473D01*
X-3353Y-1509D01*
X-3361Y-1552D01*
X-3361Y-1552D01*
Y-1944D01*
X-3361Y-1944D01*
X-3353Y-1987D01*
X-3329Y-2023D01*
X-3264Y-2087D01*
X-3264Y-2087D01*
X-3228Y-2112D01*
X-3185Y-2120D01*
X-3185Y-2120D01*
X-2451D01*
Y-2332D01*
X-2132D01*
Y-4826D01*
X-2157Y-4843D01*
X-2174Y-4868D01*
X-2264D01*
Y-4802D01*
X-2542D01*
X-2578Y-4770D01*
Y-4762D01*
X-2717D01*
Y-4980D01*
X-2757D01*
Y-5020D01*
X-2936D01*
Y-5158D01*
X-3050D01*
X-3093Y-5166D01*
X-3129Y-5191D01*
X-3129Y-5191D01*
X-3162Y-5223D01*
X-3413D01*
X-3431Y-5200D01*
X-3443Y-5173D01*
X-3436Y-5138D01*
X-3445Y-5096D01*
X-3459Y-5074D01*
X-3465Y-5040D01*
X-3459Y-5006D01*
X-3445Y-4984D01*
X-3436Y-4942D01*
X-3445Y-4899D01*
X-3469Y-4863D01*
Y-4823D01*
X-3445Y-4787D01*
X-3436Y-4745D01*
X-3445Y-4702D01*
X-3459Y-4680D01*
X-3465Y-4646D01*
X-3459Y-4612D01*
X-3445Y-4590D01*
X-3436Y-4548D01*
X-3445Y-4505D01*
X-3459Y-4483D01*
X-3465Y-4449D01*
X-3459Y-4415D01*
X-3445Y-4394D01*
X-3436Y-4351D01*
X-3445Y-4308D01*
X-3469Y-4272D01*
X-3505Y-4248D01*
X-3547Y-4240D01*
X-3764D01*
X-3807Y-4248D01*
X-3823Y-4259D01*
X-3859Y-4223D01*
X-3848Y-4207D01*
X-3840Y-4164D01*
Y-3947D01*
X-3848Y-3905D01*
X-3872Y-3869D01*
X-3891Y-3856D01*
X-3876Y-3806D01*
X-3762D01*
Y-3782D01*
X-3658D01*
Y-3806D01*
X-3318D01*
X-3306Y-3806D01*
X-3302D01*
X-3277Y-3790D01*
X-3238Y-3823D01*
X-3238Y-3832D01*
Y-4096D01*
X-2882D01*
Y-4069D01*
X-2748D01*
Y-4096D01*
X-2682D01*
Y-4176D01*
X-2707Y-4193D01*
X-2749Y-4256D01*
X-2764Y-4330D01*
X-2749Y-4404D01*
X-2707Y-4467D01*
X-2644Y-4509D01*
X-2570Y-4524D01*
X-2496Y-4509D01*
X-2433Y-4467D01*
X-2391Y-4404D01*
X-2376Y-4330D01*
X-2391Y-4256D01*
X-2433Y-4193D01*
X-2458Y-4176D01*
Y-4096D01*
X-2392D01*
Y-3832D01*
X-2392Y-3818D01*
X-2360Y-3782D01*
X-2352D01*
Y-3643D01*
X-2788D01*
Y-3782D01*
X-2788D01*
X-2785Y-3832D01*
X-2791Y-3844D01*
X-2793Y-3845D01*
X-2837D01*
X-2839Y-3844D01*
X-2845Y-3832D01*
X-2842Y-3782D01*
X-2842D01*
Y-3643D01*
X-3060D01*
Y-3603D01*
X-3100D01*
Y-3424D01*
X-3262D01*
Y-3353D01*
X-3480D01*
Y-3313D01*
X-3520D01*
Y-3134D01*
X-3672D01*
X-3698Y-3134D01*
X-3710D01*
X-3722D01*
X-3748Y-3134D01*
X-3900D01*
Y-3313D01*
X-3940D01*
Y-3353D01*
X-4158D01*
Y-3490D01*
X-4194Y-3526D01*
X-4246Y-3491D01*
X-4320Y-3476D01*
X-4394Y-3491D01*
X-4457Y-3533D01*
X-4499Y-3596D01*
X-4514Y-3670D01*
X-4499Y-3744D01*
X-4457Y-3807D01*
X-4475Y-3855D01*
X-4479Y-3858D01*
X-4499Y-3845D01*
X-4542Y-3836D01*
X-4584Y-3845D01*
X-4589Y-3848D01*
X-4631Y-3840D01*
X-4680Y-3807D01*
X-4698Y-3803D01*
Y-4056D01*
X-4778D01*
Y-3803D01*
X-4797Y-3807D01*
X-4846Y-3840D01*
X-4887Y-3848D01*
X-4893Y-3845D01*
X-4935Y-3836D01*
X-4970Y-3843D01*
X-4996Y-3831D01*
X-5020Y-3813D01*
Y-2334D01*
X-4901Y-2215D01*
X-4901Y-2215D01*
X-4876Y-2178D01*
X-4868Y-2135D01*
X-4868Y-2135D01*
Y779D01*
X-4806Y791D01*
X-4743Y833D01*
X-4724Y861D01*
X-4720Y862D01*
X-4667Y857D01*
D02*
G37*
G36*
X-5500Y6388D02*
X-4635D01*
X-4620Y6338D01*
X-4636Y6327D01*
X-4678Y6264D01*
X-4693Y6190D01*
X-4679Y6123D01*
X-4695Y6085D01*
X-4701Y6073D01*
X-4758D01*
X-4773Y6076D01*
X-4928D01*
X-4928Y6076D01*
X-4944Y6089D01*
Y6241D01*
X-5053D01*
Y6072D01*
X-5133D01*
Y6241D01*
X-5242D01*
Y6201D01*
X-5596D01*
Y6156D01*
X-5613Y6113D01*
X-5767D01*
Y5964D01*
X-5807D01*
Y5924D01*
X-6000D01*
Y5815D01*
Y5807D01*
X-5807D01*
Y5727D01*
X-6000D01*
Y5618D01*
X-5960D01*
Y5461D01*
Y5400D01*
X-6010Y5385D01*
X-6044Y5436D01*
X-6120Y5487D01*
X-6170Y5497D01*
Y5270D01*
Y5043D01*
X-6120Y5053D01*
X-6044Y5104D01*
X-6010Y5155D01*
X-5960Y5140D01*
Y5067D01*
X-5903D01*
X-5901Y5059D01*
X-5879Y5026D01*
X-5388Y4535D01*
X-5355Y4513D01*
X-5316Y4505D01*
X-5132D01*
X-5131Y4503D01*
X-5111Y4455D01*
X-5119Y4413D01*
X-4893D01*
Y4333D01*
X-5119D01*
X-5109Y4283D01*
X-5059Y4207D01*
X-5020Y4181D01*
Y4131D01*
X-5059Y4105D01*
X-5109Y4029D01*
X-5119Y3980D01*
X-4893D01*
Y3900D01*
X-5119D01*
X-5109Y3850D01*
X-5059Y3774D01*
X-5020Y3748D01*
Y3698D01*
X-5059Y3672D01*
X-5109Y3596D01*
X-5119Y3547D01*
X-4893D01*
Y3467D01*
X-5119D01*
X-5109Y3417D01*
X-5059Y3341D01*
X-5020Y3315D01*
Y3265D01*
X-5059Y3239D01*
X-5109Y3163D01*
X-5127Y3073D01*
X-5156Y3038D01*
X-5183D01*
Y2820D01*
Y2602D01*
X-5120D01*
X-5109Y2551D01*
X-5059Y2475D01*
X-5020Y2449D01*
Y2399D01*
X-5059Y2373D01*
X-5109Y2297D01*
X-5119Y2247D01*
X-4893D01*
Y2167D01*
X-5119D01*
X-5109Y2118D01*
X-5059Y2042D01*
X-5000Y2002D01*
X-5015Y1952D01*
X-5847D01*
X-5864Y1972D01*
X-5848Y2013D01*
X-5838Y2022D01*
X-5784D01*
Y2365D01*
X-5756Y2371D01*
X-5693Y2413D01*
X-5651Y2476D01*
X-5636Y2550D01*
X-5645Y2592D01*
X-5607Y2642D01*
X-5452D01*
X-5438Y2642D01*
X-5402Y2610D01*
Y2602D01*
X-5263D01*
Y2820D01*
Y3038D01*
X-5402D01*
Y3030D01*
X-5402Y3030D01*
X-5438Y2998D01*
X-5452Y2998D01*
X-5716D01*
Y2912D01*
X-5993D01*
X-6065Y2984D01*
X-6071Y3014D01*
X-6113Y3077D01*
X-6176Y3119D01*
X-6250Y3134D01*
X-6324Y3119D01*
X-6338Y3110D01*
X-6388Y3137D01*
Y4455D01*
X-6347Y4481D01*
X-6338Y4480D01*
X-6270Y4466D01*
X-6200Y4480D01*
X-6140Y4520D01*
X-6100Y4580D01*
X-6086Y4650D01*
X-6100Y4720D01*
X-6140Y4780D01*
X-6200Y4820D01*
X-6270Y4834D01*
X-6338Y4820D01*
X-6347Y4819D01*
X-6388Y4845D01*
Y5052D01*
X-6338Y5079D01*
X-6300Y5053D01*
X-6250Y5043D01*
Y5270D01*
Y5497D01*
X-6300Y5487D01*
X-6338Y5461D01*
X-6388Y5488D01*
Y5500D01*
X-6389Y5505D01*
X-6372Y5673D01*
X-6322Y5840D01*
X-6239Y5994D01*
X-6129Y6129D01*
X-5994Y6239D01*
X-5840Y6322D01*
X-5673Y6372D01*
X-5505Y6389D01*
X-5500Y6388D01*
D02*
G37*
G36*
X-6144Y-4824D02*
X-6144Y-4824D01*
X-6108Y-4848D01*
X-6065Y-4857D01*
X-6065Y-4857D01*
X-5867D01*
X-5849Y-4880D01*
X-5837Y-4907D01*
X-5844Y-4942D01*
X-5835Y-4984D01*
X-5821Y-5006D01*
X-5815Y-5040D01*
X-5821Y-5074D01*
X-5835Y-5096D01*
X-5844Y-5138D01*
X-5835Y-5181D01*
X-5821Y-5203D01*
X-5815Y-5237D01*
X-5821Y-5271D01*
X-5835Y-5293D01*
X-5844Y-5335D01*
X-5835Y-5378D01*
X-5832Y-5383D01*
X-5840Y-5425D01*
X-5873Y-5474D01*
X-5877Y-5492D01*
X-5624D01*
Y-5572D01*
X-5877D01*
X-5873Y-5590D01*
X-5840Y-5640D01*
X-5832Y-5681D01*
X-5835Y-5686D01*
X-5844Y-5729D01*
X-5835Y-5772D01*
X-5811Y-5808D01*
X-5775Y-5832D01*
X-5733Y-5840D01*
X-5516D01*
X-5513Y-5840D01*
X-5475Y-5883D01*
X-5481Y-5916D01*
Y-5984D01*
X-5329D01*
Y-6024D01*
X-5289D01*
Y-6277D01*
X-5271Y-6273D01*
X-5221Y-6240D01*
X-5180Y-6232D01*
X-5175Y-6235D01*
X-5132Y-6244D01*
X-5090Y-6235D01*
X-5068Y-6221D01*
X-5034Y-6215D01*
X-5000Y-6221D01*
X-4978Y-6235D01*
X-4935Y-6244D01*
X-4893Y-6235D01*
X-4857Y-6211D01*
X-4817D01*
X-4781Y-6235D01*
X-4738Y-6244D01*
X-4696Y-6235D01*
X-4691Y-6232D01*
X-4649Y-6240D01*
X-4600Y-6273D01*
X-4582Y-6277D01*
Y-6024D01*
X-4502D01*
Y-6277D01*
X-4483Y-6273D01*
X-4447Y-6249D01*
X-4424Y-6284D01*
X-4366Y-6342D01*
X-4386Y-6388D01*
X-5500D01*
X-5505Y-6389D01*
X-5673Y-6372D01*
X-5840Y-6322D01*
X-5994Y-6239D01*
X-6129Y-6129D01*
X-6239Y-5994D01*
X-6322Y-5840D01*
X-6372Y-5673D01*
X-6389Y-5505D01*
X-6388Y-5500D01*
Y-4651D01*
X-6338Y-4630D01*
X-6144Y-4824D01*
D02*
G37*
G36*
X-1269Y-5694D02*
X-1348Y-5705D01*
X-1439Y-5742D01*
X-1517Y-5803D01*
X-1578Y-5881D01*
X-1615Y-5972D01*
X-1628Y-6070D01*
X-1615Y-6168D01*
X-1578Y-6259D01*
X-1517Y-6337D01*
X-1513Y-6341D01*
X-1529Y-6388D01*
X-1736D01*
X-1759Y-6344D01*
X-1743Y-6320D01*
X-1733Y-6270D01*
X-2187D01*
X-2177Y-6320D01*
X-2161Y-6344D01*
X-2184Y-6388D01*
X-2277D01*
X-2304Y-6338D01*
X-2281Y-6304D01*
X-2266Y-6230D01*
X-2279Y-6167D01*
X-2251Y-6117D01*
X-2226D01*
Y-5880D01*
X-2425D01*
Y-5800D01*
X-2226D01*
Y-5644D01*
X-1272D01*
X-1269Y-5694D01*
D02*
G37*
G36*
X5023Y6342D02*
X4575Y5894D01*
X4414D01*
Y5894D01*
X4377D01*
Y5894D01*
X4060D01*
Y5676D01*
X3056Y4672D01*
X3010Y4697D01*
X3017Y4730D01*
X2830D01*
Y4543D01*
X2863Y4550D01*
X2888Y4504D01*
X2611Y4227D01*
X2586Y4191D01*
X2578Y4148D01*
X2578Y4148D01*
Y2736D01*
X2234Y2392D01*
X-226D01*
X-243Y2417D01*
X-306Y2459D01*
X-380Y2474D01*
X-454Y2459D01*
X-517Y2417D01*
X-559Y2354D01*
X-574Y2280D01*
X-559Y2206D01*
X-517Y2143D01*
X-454Y2101D01*
X-380Y2086D01*
X-306Y2101D01*
X-243Y2143D01*
X-226Y2168D01*
X-93D01*
X-67Y2118D01*
X-89Y2085D01*
X-104Y2010D01*
X-89Y1936D01*
X-80Y1922D01*
X-106Y1872D01*
X-1374D01*
X-1391Y1889D01*
X-1411Y1919D01*
X-1447Y1944D01*
X-1490Y1952D01*
X-1512D01*
Y2063D01*
X-1948D01*
Y1952D01*
X-2605D01*
X-2620Y2002D01*
X-2562Y2042D01*
X-2511Y2118D01*
X-2501Y2167D01*
X-2727D01*
Y2247D01*
X-2501D01*
X-2511Y2297D01*
X-2562Y2373D01*
X-2600Y2399D01*
Y2449D01*
X-2562Y2475D01*
X-2511Y2551D01*
X-2501Y2600D01*
X-2727D01*
Y2680D01*
X-2501D01*
X-2511Y2730D01*
X-2562Y2806D01*
X-2600Y2832D01*
Y2882D01*
X-2562Y2908D01*
X-2511Y2984D01*
X-2501Y3033D01*
X-2727D01*
Y3113D01*
X-2501D01*
X-2511Y3163D01*
X-2562Y3239D01*
X-2600Y3265D01*
Y3315D01*
X-2562Y3341D01*
X-2511Y3417D01*
X-2501Y3467D01*
X-2727D01*
Y3547D01*
X-2501D01*
X-2511Y3596D01*
X-2562Y3672D01*
X-2600Y3698D01*
Y3748D01*
X-2562Y3774D01*
X-2511Y3850D01*
X-2501Y3900D01*
X-2727D01*
Y3980D01*
X-2501D01*
X-2511Y4029D01*
X-2562Y4105D01*
X-2600Y4131D01*
Y4181D01*
X-2562Y4207D01*
X-2511Y4283D01*
X-2503Y4322D01*
X-2458Y4334D01*
X-2450Y4334D01*
X-2280D01*
Y4513D01*
X-2240D01*
Y4553D01*
X-2022D01*
Y4659D01*
X-1972Y4686D01*
X-1964Y4681D01*
X-1890Y4666D01*
X-1816Y4681D01*
X-1753Y4723D01*
X-1711Y4786D01*
X-1696Y4860D01*
X-1701Y4884D01*
X-1690Y4898D01*
X-1657Y4921D01*
X-1620Y4913D01*
Y5140D01*
Y5367D01*
X-1670Y5357D01*
X-1746Y5306D01*
X-1772Y5267D01*
X-1822Y5282D01*
Y5378D01*
X-1822Y5392D01*
X-1790Y5428D01*
X-1782D01*
Y5567D01*
X-2218D01*
Y5428D01*
X-2210D01*
X-2178Y5392D01*
X-2178Y5378D01*
Y5114D01*
X-2112D01*
Y5006D01*
X-2406D01*
X-2438Y5048D01*
X-2421Y5074D01*
X-2396Y5110D01*
X-2388Y5153D01*
Y5356D01*
X-2363Y5373D01*
X-2321Y5436D01*
X-2306Y5510D01*
X-2321Y5584D01*
X-2363Y5647D01*
X-2426Y5689D01*
X-2500Y5704D01*
X-2574Y5689D01*
X-2637Y5647D01*
X-2644Y5637D01*
X-2683D01*
X-2746Y5679D01*
X-2820Y5694D01*
X-2894Y5679D01*
X-2957Y5637D01*
X-2980Y5602D01*
X-3111D01*
X-3127Y5652D01*
X-3091Y5706D01*
X-3076Y5780D01*
X-3091Y5854D01*
X-3133Y5917D01*
X-3196Y5959D01*
X-3270Y5974D01*
X-3344Y5959D01*
X-3395Y5925D01*
X-3456Y5926D01*
X-3463Y5937D01*
X-3526Y5979D01*
X-3600Y5994D01*
X-3674Y5979D01*
X-3737Y5937D01*
X-3743Y5928D01*
X-3839D01*
X-3843Y5928D01*
X-3873Y5973D01*
X-3851Y6006D01*
X-3836Y6080D01*
X-3851Y6154D01*
X-3893Y6217D01*
X-3956Y6259D01*
X-4030Y6274D01*
X-4104Y6259D01*
X-4167Y6217D01*
X-4209Y6154D01*
X-4224Y6080D01*
X-4209Y6006D01*
X-4204Y5999D01*
X-4574Y5630D01*
X-4620Y5649D01*
Y5658D01*
Y5855D01*
Y5989D01*
X-4581Y6010D01*
X-4570Y6010D01*
X-4499Y5996D01*
X-4425Y6011D01*
X-4362Y6053D01*
X-4320Y6116D01*
X-4305Y6190D01*
X-4320Y6264D01*
X-4362Y6327D01*
X-4378Y6338D01*
X-4363Y6388D01*
X5003D01*
X5023Y6342D01*
D02*
G37*
%LPC*%
G36*
X384Y-1173D02*
X225D01*
Y-1410D01*
X384D01*
Y-1173D01*
D02*
G37*
G36*
X-854Y-1430D02*
X-993D01*
Y-1608D01*
X-854D01*
Y-1430D01*
D02*
G37*
G36*
X670Y-1798D02*
Y-2000D01*
X872D01*
X861Y-1944D01*
X807Y-1863D01*
X726Y-1809D01*
X670Y-1798D01*
D02*
G37*
G36*
X590D02*
X534Y-1809D01*
X453Y-1863D01*
X399Y-1944D01*
X388Y-2000D01*
X590D01*
Y-1798D01*
D02*
G37*
G36*
X5275Y-1643D02*
X5117D01*
Y-1880D01*
X5275D01*
Y-1643D01*
D02*
G37*
G36*
X384Y-1490D02*
X225D01*
Y-1727D01*
X384D01*
Y-1490D01*
D02*
G37*
G36*
X5514Y-1643D02*
X5355D01*
Y-1880D01*
X5514D01*
Y-1643D01*
D02*
G37*
G36*
X-5960Y-1054D02*
X-6138D01*
Y-1193D01*
X-5960D01*
Y-1054D01*
D02*
G37*
G36*
X-3393Y-112D02*
Y-290D01*
X-3254D01*
Y-112D01*
X-3393D01*
D02*
G37*
G36*
X126Y-692D02*
X-13D01*
Y-870D01*
X126D01*
Y-692D01*
D02*
G37*
G36*
X1634Y693D02*
X1499Y680D01*
X1369Y640D01*
X1249Y576D01*
X1144Y490D01*
X1057Y385D01*
X993Y265D01*
X954Y135D01*
X941Y0D01*
X954Y-135D01*
X993Y-265D01*
X1057Y-385D01*
X1144Y-490D01*
X1249Y-576D01*
X1369Y-640D01*
X1499Y-680D01*
X1634Y-693D01*
X1769Y-680D01*
X1899Y-640D01*
X2019Y-576D01*
X2124Y-490D01*
X2210Y-385D01*
X2274Y-265D01*
X2314Y-135D01*
X2327Y0D01*
X2314Y135D01*
X2274Y265D01*
X2210Y385D01*
X2124Y490D01*
X2019Y576D01*
X1899Y640D01*
X1769Y680D01*
X1634Y693D01*
D02*
G37*
G36*
X-3827Y-572D02*
X-3966D01*
Y-750D01*
X-3827D01*
Y-572D01*
D02*
G37*
G36*
X4419Y-448D02*
X3905D01*
Y-784D01*
X4419D01*
Y-448D01*
D02*
G37*
G36*
X-854Y-692D02*
X-993D01*
Y-870D01*
X-854D01*
Y-692D01*
D02*
G37*
G36*
X5047Y-702D02*
X4908D01*
Y-710D01*
X4872Y-742D01*
X4858Y-742D01*
X4594D01*
Y-1098D01*
X4618D01*
Y-1168D01*
X4569Y-1201D01*
X4419D01*
Y-1196D01*
X3905D01*
Y-1532D01*
X4419D01*
Y-1527D01*
X4558D01*
X4564Y-1536D01*
X4613Y-1568D01*
Y-1683D01*
X4566D01*
Y-2157D01*
X4883D01*
Y-1683D01*
X4837D01*
Y-1575D01*
X4896Y-1536D01*
X4947Y-1460D01*
X4965Y-1370D01*
X4947Y-1280D01*
X4896Y-1204D01*
X4864Y-1183D01*
X4868Y-1133D01*
X4908Y-1138D01*
Y-1138D01*
X5047D01*
Y-920D01*
Y-702D01*
D02*
G37*
G36*
X-5702Y-1054D02*
X-5880D01*
Y-1193D01*
X-5702D01*
Y-1054D01*
D02*
G37*
G36*
X5266Y-960D02*
X5127D01*
Y-1138D01*
X5266D01*
Y-960D01*
D02*
G37*
G36*
Y-702D02*
X5127D01*
Y-880D01*
X5266D01*
Y-702D01*
D02*
G37*
G36*
X-3827Y-830D02*
X-3966D01*
Y-1008D01*
X-3827D01*
Y-830D01*
D02*
G37*
G36*
X3567Y-1862D02*
Y-2040D01*
X3706D01*
Y-1862D01*
X3567D01*
D02*
G37*
G36*
X2455Y-4330D02*
X2242D01*
X2248Y-4360D01*
X2287Y-4419D01*
X2346Y-4458D01*
X2416Y-4472D01*
X2455D01*
Y-4330D01*
D02*
G37*
G36*
X2176Y-4612D02*
X1898D01*
Y-4968D01*
X2176D01*
Y-4902D01*
X2334D01*
X2362Y-4921D01*
X2416Y-4931D01*
X2574D01*
X2628Y-4921D01*
X2674Y-4890D01*
X2704Y-4844D01*
X2715Y-4790D01*
X2704Y-4736D01*
X2674Y-4690D01*
X2628Y-4659D01*
X2574Y-4649D01*
X2416D01*
X2362Y-4659D01*
X2334Y-4678D01*
X2176D01*
Y-4612D01*
D02*
G37*
G36*
X-2797Y-4762D02*
X-2936D01*
Y-4940D01*
X-2797D01*
Y-4762D01*
D02*
G37*
G36*
X-2842Y-3424D02*
X-3020D01*
Y-3563D01*
X-2842D01*
Y-3424D01*
D02*
G37*
G36*
X4010Y-3995D02*
X2769D01*
Y-4171D01*
X2719Y-4186D01*
X2702Y-4161D01*
X2643Y-4122D01*
X2574Y-4108D01*
X2535D01*
Y-4290D01*
Y-4472D01*
X2574D01*
X2643Y-4458D01*
X2702Y-4419D01*
X2719Y-4394D01*
X2769Y-4409D01*
Y-5000D01*
X4010D01*
Y-3995D01*
D02*
G37*
G36*
X2455Y-4108D02*
X2416D01*
X2346Y-4122D01*
X2287Y-4161D01*
X2248Y-4220D01*
X2242Y-4250D01*
X2455D01*
Y-4108D01*
D02*
G37*
G36*
X-1920Y-6003D02*
Y-6190D01*
X-1733D01*
X-1743Y-6140D01*
X-1794Y-6064D01*
X-1870Y-6013D01*
X-1920Y-6003D01*
D02*
G37*
G36*
X-2000D02*
X-2050Y-6013D01*
X-2126Y-6064D01*
X-2177Y-6140D01*
X-2187Y-6190D01*
X-2000D01*
Y-6003D01*
D02*
G37*
G36*
X-5369Y-6064D02*
X-5481D01*
Y-6133D01*
X-5470Y-6191D01*
X-5437Y-6240D01*
X-5387Y-6273D01*
X-5369Y-6277D01*
Y-6064D01*
D02*
G37*
G36*
X5331Y-3995D02*
X4090D01*
Y-5000D01*
X5331D01*
Y-3995D01*
D02*
G37*
G36*
X2050Y-5096D02*
X1976Y-5111D01*
X1913Y-5153D01*
X1871Y-5216D01*
X1856Y-5290D01*
X1871Y-5364D01*
X1913Y-5427D01*
X1976Y-5469D01*
X2050Y-5484D01*
X2124Y-5469D01*
X2187Y-5427D01*
X2210Y-5392D01*
X2319D01*
X2362Y-5421D01*
X2416Y-5431D01*
X2574D01*
X2628Y-5421D01*
X2674Y-5390D01*
X2704Y-5344D01*
X2715Y-5290D01*
X2704Y-5236D01*
X2674Y-5190D01*
X2628Y-5159D01*
X2574Y-5149D01*
X2416D01*
X2362Y-5159D01*
X2319Y-5188D01*
X2210D01*
X2187Y-5153D01*
X2124Y-5111D01*
X2050Y-5096D01*
D02*
G37*
G36*
X4010Y-5080D02*
X2769D01*
Y-6085D01*
X4010D01*
Y-5080D01*
D02*
G37*
G36*
X5275Y-1960D02*
X5117D01*
Y-2197D01*
X5275D01*
Y-1960D01*
D02*
G37*
G36*
X872Y-2080D02*
X670D01*
Y-2282D01*
X726Y-2271D01*
X807Y-2217D01*
X861Y-2136D01*
X872Y-2080D01*
D02*
G37*
G36*
X590D02*
X388D01*
X399Y-2136D01*
X453Y-2217D01*
X534Y-2271D01*
X590Y-2282D01*
Y-2080D01*
D02*
G37*
G36*
X-326Y-1877D02*
X-485D01*
Y-2114D01*
X-326D01*
Y-1877D01*
D02*
G37*
G36*
X-565D02*
X-723D01*
Y-2114D01*
X-565D01*
Y-1877D01*
D02*
G37*
G36*
X5514Y-1960D02*
X5355D01*
Y-2197D01*
X5514D01*
Y-1960D01*
D02*
G37*
G36*
X-1010Y-3146D02*
X-1084Y-3161D01*
X-1147Y-3203D01*
X-1189Y-3266D01*
X-1204Y-3340D01*
X-1189Y-3414D01*
X-1147Y-3477D01*
X-1084Y-3519D01*
X-1010Y-3534D01*
X-936Y-3519D01*
X-873Y-3477D01*
X-831Y-3414D01*
X-816Y-3340D01*
X-831Y-3266D01*
X-873Y-3203D01*
X-936Y-3161D01*
X-1010Y-3146D01*
D02*
G37*
G36*
X-2352Y-3424D02*
X-2530D01*
Y-3563D01*
X-2352D01*
Y-3424D01*
D02*
G37*
G36*
X-2610D02*
X-2788D01*
Y-3563D01*
X-2610D01*
Y-3424D01*
D02*
G37*
G36*
X3706Y-2120D02*
X3567D01*
Y-2298D01*
X3706D01*
Y-2120D01*
D02*
G37*
G36*
X-3440Y-3134D02*
Y-3273D01*
X-3262D01*
Y-3134D01*
X-3440D01*
D02*
G37*
G36*
X-3980D02*
X-4158D01*
Y-3273D01*
X-3980D01*
Y-3134D01*
D02*
G37*
G36*
X10Y4807D02*
X-40Y4797D01*
X-116Y4746D01*
X-125Y4732D01*
X-175D01*
X-184Y4746D01*
X-260Y4797D01*
X-310Y4807D01*
Y4580D01*
X-350D01*
Y4540D01*
X-577D01*
X-567Y4490D01*
X-516Y4414D01*
X-482Y4392D01*
Y4332D01*
X-506Y4316D01*
X-557Y4240D01*
X-567Y4190D01*
X-113D01*
X-123Y4240D01*
X-174Y4316D01*
X-208Y4338D01*
Y4398D01*
X-184Y4414D01*
X-175Y4428D01*
X-125D01*
X-116Y4414D01*
X-40Y4363D01*
X10Y4353D01*
Y4580D01*
Y4807D01*
D02*
G37*
G36*
X4766Y4840D02*
Y4653D01*
X4953D01*
X4943Y4703D01*
X4892Y4779D01*
X4816Y4830D01*
X4766Y4840D01*
D02*
G37*
G36*
X-390Y4807D02*
X-440Y4797D01*
X-516Y4746D01*
X-567Y4670D01*
X-577Y4620D01*
X-390D01*
Y4807D01*
D02*
G37*
G36*
X-1353Y5100D02*
X-1540D01*
Y4913D01*
X-1490Y4923D01*
X-1414Y4974D01*
X-1363Y5050D01*
X-1353Y5100D01*
D02*
G37*
G36*
X2830Y4997D02*
Y4810D01*
X3017D01*
X3007Y4860D01*
X2956Y4936D01*
X2880Y4987D01*
X2830Y4997D01*
D02*
G37*
G36*
X2750D02*
X2700Y4987D01*
X2624Y4936D01*
X2573Y4860D01*
X2563Y4810D01*
X2750D01*
Y4997D01*
D02*
G37*
G36*
X90Y4807D02*
Y4580D01*
Y4353D01*
X140Y4363D01*
X216Y4414D01*
X244Y4456D01*
X304D01*
X313Y4443D01*
X376Y4401D01*
X450Y4386D01*
X524Y4401D01*
X587Y4443D01*
X629Y4506D01*
X644Y4580D01*
X629Y4654D01*
X587Y4717D01*
X524Y4759D01*
X450Y4774D01*
X376Y4759D01*
X313Y4717D01*
X304Y4704D01*
X244D01*
X216Y4746D01*
X140Y4797D01*
X90Y4807D01*
D02*
G37*
G36*
X-2022Y4473D02*
X-2200D01*
Y4334D01*
X-2022D01*
Y4473D01*
D02*
G37*
G36*
X2062Y4410D02*
X1578D01*
X1589Y4354D01*
X1639Y4279D01*
X1644Y4260D01*
Y4223D01*
X1634Y4216D01*
X1583Y4140D01*
X1573Y4090D01*
X2027D01*
X2017Y4140D01*
X1966Y4216D01*
Y4253D01*
X1997Y4273D01*
X2051Y4354D01*
X2062Y4410D01*
D02*
G37*
G36*
X2750Y4730D02*
X2563D01*
X2573Y4680D01*
X2624Y4604D01*
X2700Y4553D01*
X2750Y4543D01*
Y4730D01*
D02*
G37*
G36*
X1860Y4692D02*
Y4490D01*
X2062D01*
X2051Y4546D01*
X1997Y4627D01*
X1916Y4681D01*
X1860Y4692D01*
D02*
G37*
G36*
X1780D02*
X1724Y4681D01*
X1643Y4627D01*
X1589Y4546D01*
X1578Y4490D01*
X1780D01*
Y4692D01*
D02*
G37*
G36*
X2320Y5746D02*
Y5570D01*
X2496D01*
X2487Y5616D01*
X2439Y5689D01*
X2366Y5737D01*
X2320Y5746D01*
D02*
G37*
G36*
X2240D02*
X2194Y5737D01*
X2121Y5689D01*
X2073Y5616D01*
X2064Y5570D01*
X2240D01*
Y5746D01*
D02*
G37*
G36*
X-150Y5677D02*
Y5490D01*
X37D01*
X27Y5540D01*
X-24Y5616D01*
X-100Y5667D01*
X-150Y5677D01*
D02*
G37*
G36*
X-5847Y6113D02*
X-6000D01*
Y6004D01*
X-5847D01*
Y6113D01*
D02*
G37*
G36*
X-1782Y5786D02*
X-1960D01*
Y5647D01*
X-1782D01*
Y5786D01*
D02*
G37*
G36*
X-2040D02*
X-2218D01*
Y5647D01*
X-2040D01*
Y5786D01*
D02*
G37*
G36*
X37Y5410D02*
X-150D01*
Y5223D01*
X-100Y5233D01*
X-24Y5284D01*
X27Y5360D01*
X37Y5410D01*
D02*
G37*
G36*
X-230D02*
X-417D01*
X-407Y5360D01*
X-356Y5284D01*
X-280Y5233D01*
X-230Y5223D01*
Y5410D01*
D02*
G37*
G36*
X-1540Y5367D02*
Y5180D01*
X-1353D01*
X-1363Y5230D01*
X-1414Y5306D01*
X-1490Y5357D01*
X-1540Y5367D01*
D02*
G37*
G36*
X-230Y5677D02*
X-280Y5667D01*
X-356Y5616D01*
X-407Y5540D01*
X-417Y5490D01*
X-230D01*
Y5677D01*
D02*
G37*
G36*
X2496Y5490D02*
X2320D01*
Y5314D01*
X2366Y5323D01*
X2439Y5371D01*
X2487Y5444D01*
X2496Y5490D01*
D02*
G37*
G36*
X2240D02*
X2064D01*
X2073Y5444D01*
X2121Y5371D01*
X2194Y5323D01*
X2240Y5314D01*
Y5490D01*
D02*
G37*
G36*
X-1040Y4117D02*
Y3930D01*
X-853D01*
X-863Y3980D01*
X-914Y4056D01*
X-990Y4107D01*
X-1040Y4117D01*
D02*
G37*
G36*
X6090Y1864D02*
X6016Y1849D01*
X5953Y1807D01*
X5911Y1744D01*
X5896Y1670D01*
X5911Y1596D01*
X5953Y1533D01*
X6016Y1491D01*
X6090Y1476D01*
X6164Y1491D01*
X6227Y1533D01*
X6269Y1596D01*
X6284Y1670D01*
X6269Y1744D01*
X6227Y1807D01*
X6164Y1849D01*
X6090Y1864D01*
D02*
G37*
G36*
X-1853Y1558D02*
X-1992D01*
Y1550D01*
X-1992Y1550D01*
X-2028Y1518D01*
X-2042Y1518D01*
X-2306D01*
Y1452D01*
X-2440D01*
X-2440Y1452D01*
X-2483Y1444D01*
X-2519Y1419D01*
X-2519Y1419D01*
X-2609Y1330D01*
X-2633Y1293D01*
X-2636Y1278D01*
X-2639Y1274D01*
X-2654Y1200D01*
X-2639Y1128D01*
Y1038D01*
X-2666D01*
Y682D01*
X-2575D01*
X-2556Y636D01*
X-2649Y542D01*
X-2719D01*
Y628D01*
X-3193D01*
Y232D01*
X-2719D01*
Y318D01*
X-2603D01*
X-2603Y318D01*
X-2560Y326D01*
X-2524Y351D01*
X-2192Y682D01*
X-2034D01*
Y1038D01*
X-2273Y1038D01*
X-2274D01*
X-2274D01*
X-2278Y1038D01*
X-2280D01*
X-2280Y1039D01*
X-2281Y1040D01*
X-2281Y1041D01*
X-2288Y1054D01*
X-2288Y1055D01*
X-2288Y1055D01*
X-2306Y1088D01*
X-2281Y1126D01*
X-2274Y1162D01*
X-2042D01*
X-2028Y1162D01*
X-1992Y1130D01*
Y1122D01*
X-1853D01*
Y1340D01*
Y1558D01*
D02*
G37*
G36*
X-1634D02*
X-1773D01*
Y1380D01*
X-1634D01*
Y1558D01*
D02*
G37*
G36*
X-1132Y2923D02*
X-1310D01*
Y2784D01*
X-1132D01*
Y2923D01*
D02*
G37*
G36*
X6160Y2383D02*
X5982D01*
Y2244D01*
X6160D01*
Y2383D01*
D02*
G37*
G36*
X3530Y2024D02*
X3460Y2010D01*
X3400Y1970D01*
X3360Y1910D01*
X3346Y1840D01*
X3360Y1770D01*
X3400Y1710D01*
X3460Y1670D01*
X3530Y1656D01*
X3600Y1670D01*
X3660Y1710D01*
X3700Y1770D01*
X3714Y1840D01*
X3700Y1910D01*
X3660Y1970D01*
X3600Y2010D01*
X3530Y2024D01*
D02*
G37*
G36*
X-4410Y320D02*
X-4597D01*
X-4587Y270D01*
X-4536Y194D01*
X-4460Y143D01*
X-4410Y133D01*
Y320D01*
D02*
G37*
G36*
X-5322Y246D02*
X-5500D01*
Y107D01*
X-5322D01*
Y246D01*
D02*
G37*
G36*
X-5580D02*
X-5758D01*
Y107D01*
X-5580D01*
Y246D01*
D02*
G37*
G36*
X3320Y1634D02*
X3246Y1619D01*
X3183Y1577D01*
X3141Y1514D01*
X3126Y1440D01*
X3141Y1366D01*
X3183Y1303D01*
X3246Y1261D01*
X3320Y1246D01*
X3394Y1261D01*
X3457Y1303D01*
X3499Y1366D01*
X3514Y1440D01*
X3499Y1514D01*
X3457Y1577D01*
X3394Y1619D01*
X3320Y1634D01*
D02*
G37*
G36*
X-1634Y1300D02*
X-1773D01*
Y1122D01*
X-1634D01*
Y1300D01*
D02*
G37*
G36*
X-4143Y320D02*
X-4330D01*
Y133D01*
X-4280Y143D01*
X-4204Y194D01*
X-4153Y270D01*
X-4143Y320D01*
D02*
G37*
G36*
X2027Y4010D02*
X1840D01*
Y3823D01*
X1890Y3833D01*
X1966Y3884D01*
X2017Y3960D01*
X2027Y4010D01*
D02*
G37*
G36*
X1760D02*
X1573D01*
X1583Y3960D01*
X1634Y3884D01*
X1710Y3833D01*
X1760Y3823D01*
Y4010D01*
D02*
G37*
G36*
X-1120Y3850D02*
X-1307D01*
X-1305Y3842D01*
X-1346Y3809D01*
X-1420Y3824D01*
X-1494Y3809D01*
X-1557Y3767D01*
X-1599Y3704D01*
X-1614Y3630D01*
X-1599Y3556D01*
X-1557Y3493D01*
X-1557Y3493D01*
X-1556Y3492D01*
X-1528Y3456D01*
X-1528D01*
Y3192D01*
X-1528Y3178D01*
X-1560Y3142D01*
X-1568D01*
Y2960D01*
X-1618Y2934D01*
X-1656Y2959D01*
X-1730Y2974D01*
X-1804Y2959D01*
X-1867Y2917D01*
X-1909Y2854D01*
X-1924Y2780D01*
X-1909Y2706D01*
X-1869Y2646D01*
X-1872Y2630D01*
X-1886Y2596D01*
X-1908D01*
Y2332D01*
X-1908Y2318D01*
X-1940Y2282D01*
X-1948D01*
Y2143D01*
X-1512D01*
Y2282D01*
X-1520D01*
X-1552Y2318D01*
X-1552Y2332D01*
Y2596D01*
X-1574D01*
X-1588Y2630D01*
X-1591Y2646D01*
X-1551Y2706D01*
X-1536Y2780D01*
X-1533Y2784D01*
X-1390D01*
Y2963D01*
X-1350D01*
Y3003D01*
X-1132D01*
Y3142D01*
X-1140D01*
X-1140Y3142D01*
X-1172Y3178D01*
X-1172Y3192D01*
Y3456D01*
X-1238D01*
Y3560D01*
X-1238Y3560D01*
X-1239Y3566D01*
X-1226Y3630D01*
X-1231Y3654D01*
X-1186Y3684D01*
X-1170Y3673D01*
X-1120Y3663D01*
Y3850D01*
D02*
G37*
G36*
Y4117D02*
X-1170Y4107D01*
X-1246Y4056D01*
X-1297Y3980D01*
X-1307Y3930D01*
X-1120D01*
Y4117D01*
D02*
G37*
G36*
X-113Y4110D02*
X-300D01*
Y3923D01*
X-250Y3933D01*
X-174Y3984D01*
X-123Y4060D01*
X-113Y4110D01*
D02*
G37*
G36*
X-380D02*
X-567D01*
X-557Y4060D01*
X-506Y3984D01*
X-430Y3933D01*
X-380Y3923D01*
Y4110D01*
D02*
G37*
G36*
X5820Y3123D02*
X5642D01*
Y2984D01*
X5820D01*
Y3123D01*
D02*
G37*
G36*
X5578D02*
X5400D01*
Y2984D01*
X5578D01*
Y3123D01*
D02*
G37*
G36*
X5320D02*
X5142D01*
Y2984D01*
X5320D01*
Y3123D01*
D02*
G37*
G36*
X-853Y3850D02*
X-1040D01*
Y3663D01*
X-990Y3673D01*
X-914Y3724D01*
X-863Y3800D01*
X-853Y3850D01*
D02*
G37*
G36*
X4953Y3707D02*
X4766D01*
Y3520D01*
X4816Y3530D01*
X4892Y3581D01*
X4943Y3657D01*
X4953Y3707D01*
D02*
G37*
G36*
X3820D02*
X3633D01*
X3643Y3657D01*
X3694Y3581D01*
X3770Y3530D01*
X3820Y3520D01*
Y3707D01*
D02*
G37*
%LPD*%
D11*
X-6039Y2800D02*
X-5577D01*
X-6040Y-590D02*
Y-307D01*
X-6030Y-297D01*
X5461Y-2758D02*
X6040Y-2180D01*
X-6275Y1739D02*
X-6116Y1580D01*
X-4672Y5373D02*
X-4030Y6015D01*
X-4773Y5373D02*
X-4672D01*
X5016Y-3586D02*
X5036Y-3566D01*
X2346Y-3586D02*
X5016D01*
X6023Y-3310D02*
X6210Y-3497D01*
X5784Y-3310D02*
X6023D01*
X5626Y-3054D02*
X6010Y-2670D01*
X5036Y-3054D02*
X5626D01*
X-6060Y-4410D02*
X-5922Y-4548D01*
X-5624D01*
X-2479Y1200D02*
X-2460D01*
X-2530Y1250D02*
X-2479Y1200D01*
X-2530Y1250D02*
X-2440Y1340D01*
X-1730Y2457D02*
Y2780D01*
X-405Y-1450D02*
X80Y-1935D01*
Y-2210D02*
Y-1935D01*
X-3205Y-590D02*
X-2830D01*
X-3219Y-576D02*
X-3205Y-590D01*
X-3656Y-5729D02*
X-3370Y-6015D01*
X-3455Y-6100D02*
X-3370Y-6015D01*
X-4209Y-6340D02*
X-2570D01*
X-110Y-5425D02*
X-25Y-5510D01*
X-110Y-5425D02*
Y-5411D01*
X-372Y-5532D02*
X-350Y-5510D01*
X-4980Y870D02*
X-4880Y970D01*
X-4980Y-2135D02*
Y870D01*
X-4910Y1321D02*
Y1340D01*
X-5449Y782D02*
X-4910Y1321D01*
X-5678Y782D02*
X-5449D01*
X-4020Y1580D02*
X-3417Y977D01*
X-6116Y1580D02*
X-4020D01*
X-5560Y1010D02*
X-5320Y1250D01*
X-6030Y1840D02*
X-1490D01*
X-2520Y-982D02*
Y-880D01*
Y-982D02*
X-2096Y-1406D01*
X5282Y5204D02*
X5700Y4785D01*
X5254Y5944D02*
X5390Y6080D01*
X5138Y5944D02*
X5254D01*
X4927Y5733D02*
X5138Y5944D01*
X4927Y5676D02*
Y5733D01*
X-5470Y5880D02*
Y6055D01*
Y5610D02*
Y5880D01*
X-5457Y5893D01*
X-4998D01*
X-4928Y5964D01*
X-4773D01*
X-4030Y6015D02*
Y6080D01*
X-6250Y2560D02*
X-5923Y2233D01*
Y2200D02*
Y2233D01*
X-6275Y1739D02*
Y2198D01*
X-6340Y120D02*
X-5678Y782D01*
X-1490Y1830D02*
X-1420Y1760D01*
X2370D01*
X2550Y2010D02*
X2860Y2320D01*
X90Y2010D02*
X2550D01*
X-1490Y1830D02*
Y1840D01*
X2370Y1760D02*
X4290Y-160D01*
X5080D01*
X5995Y4647D02*
X6250Y4392D01*
X5995Y4647D02*
Y5821D01*
X5491Y6325D02*
X5995Y5821D01*
X5164Y6325D02*
X5491D01*
X4573Y5733D02*
X5164Y6325D01*
X4573Y5676D02*
Y5733D01*
X2690Y4148D02*
X4218Y5676D01*
X2690Y2690D02*
Y4148D01*
X4215Y5200D02*
X4218Y5204D01*
X3990Y5200D02*
X4215D01*
X2860Y4070D02*
X3990Y5200D01*
X2860Y2320D02*
Y4070D01*
X2280Y2280D02*
X2690Y2690D01*
X-380Y2280D02*
X2280D01*
X-2000Y4970D02*
X-1890Y4860D01*
X-2000Y4970D02*
Y5253D01*
X-2233Y4860D02*
X-1890D01*
X-1420Y3630D02*
X-1350Y3560D01*
Y3317D02*
Y3560D01*
X-3320Y1250D02*
Y1587D01*
X-6240Y1283D02*
Y1330D01*
Y1283D02*
X-5967Y1010D01*
X-5613D02*
X-5560D01*
X-610Y-1245D02*
X-405Y-1450D01*
X-610Y-1245D02*
Y-1150D01*
X-1403D02*
Y-926D01*
Y-1406D02*
Y-1150D01*
X-610D02*
X-407Y-947D01*
X-1403Y-1150D02*
X-610D01*
X-1387Y-910D02*
X-1385D01*
X-3433Y-790D02*
X-3219Y-576D01*
X-2096Y-1406D02*
X-1403D01*
X-5917Y-2180D02*
Y-1590D01*
X-6030Y-297D02*
X-5550D01*
X-2096Y-2154D02*
X-1111D01*
X-5780Y-3660D02*
Y-3273D01*
X-5917Y-2363D02*
Y-2180D01*
Y-2363D02*
X-5690Y-2590D01*
X-4320Y-3670D02*
X-3483D01*
X-2403Y-4980D02*
X-2020D01*
X-3060Y-3957D02*
X-2570D01*
Y-4330D02*
Y-3957D01*
X5080Y-160D02*
X6040Y-1120D01*
Y-2180D02*
Y-1120D01*
X-3417Y503D02*
Y977D01*
X-3704Y215D02*
X-3417Y503D01*
X-3704Y174D02*
Y215D01*
X-2020Y-4980D02*
Y-2230D01*
X-2780Y-1083D02*
Y-606D01*
X-3249Y-1552D02*
X-2780Y-1083D01*
X-3249Y-1944D02*
Y-1552D01*
Y-1944D02*
X-3185Y-2008D01*
X-2242D01*
X-2096Y-2154D01*
X-3015Y-6305D02*
Y-5840D01*
X-2570Y-6340D02*
X-2460Y-6230D01*
X780Y-2760D02*
X850Y-2830D01*
Y-3480D02*
Y-2830D01*
X6250Y2827D02*
Y3180D01*
X6200Y2777D02*
X6250Y2827D01*
X5860Y3517D02*
X6183D01*
X6250Y3584D01*
X5831Y3988D02*
X6250D01*
X5360Y3517D02*
X5831Y3988D01*
X4730Y-1370D02*
Y-923D01*
X4725Y-1920D02*
Y-1375D01*
X-2956Y430D02*
X-2603D01*
X-5132Y-4056D02*
Y-2287D01*
X-4980Y-2135D01*
X-4186Y686D02*
X-3704D01*
X-4190Y690D02*
X-4186Y686D01*
X-5704Y-4056D02*
X-5329D01*
X-2527Y860D02*
Y1247D01*
X-2603Y430D02*
X-2173Y860D01*
X-2440Y1340D02*
X-2167D01*
X-3656Y-5532D02*
X-372D01*
X-25Y-5510D02*
X120D01*
X-3656Y-5335D02*
X-3115D01*
X-3951Y-6024D02*
Y-5729D01*
X-4345Y-6205D02*
Y-6024D01*
Y-6205D02*
X-4209Y-6340D01*
X1925Y-2495D02*
X1950Y-2520D01*
X-505Y-2495D02*
X1925D01*
X-770Y-2760D02*
X-505Y-2495D01*
X-2350Y-5840D02*
X-1960Y-6230D01*
X-4542Y-6024D02*
Y-5138D01*
X-3951Y-5729D01*
X-5624Y-5532D02*
X-5132D01*
X-5329Y-6024D02*
Y-5729D01*
X-5132Y-5532D01*
X-4640Y-5040D01*
X-4738Y-4942D02*
Y-4056D01*
X-5577Y2800D02*
Y2820D01*
X-6179Y2940D02*
X-6039Y2800D01*
X-6250Y2940D02*
X-6179D01*
X-3177Y4389D02*
X-3160Y4373D01*
Y4833D01*
X-2500Y5153D02*
Y5510D01*
X-2813Y4840D02*
X-2500Y5153D01*
X4182Y-3284D02*
X4338Y-3128D01*
X4484D01*
X4854Y-2758D01*
X5461D01*
X6297Y-5290D02*
Y-3584D01*
X6210Y-3497D02*
X6297Y-3584D01*
X5605Y-5290D02*
X5943D01*
X5055Y-6340D02*
X5605Y-5790D01*
X2240Y-6340D02*
X5055D01*
X1683Y-5783D02*
X2240Y-6340D01*
X1683Y-5783D02*
Y-4790D01*
X2037D02*
X2495D01*
X2230Y-3470D02*
X2346Y-3586D01*
X-251Y-5270D02*
X-110Y-5411D01*
X-3115Y-5335D02*
X-3050Y-5270D01*
X-251D01*
X-6065Y-4745D02*
X-5624D01*
X-6300Y-4509D02*
X-6065Y-4745D01*
X-6300Y-4509D02*
Y-4500D01*
X-6340Y-4460D02*
X-6300Y-4500D01*
X-6340Y-4460D02*
Y120D01*
X-5748Y-4351D02*
X-5624D01*
X-6060Y-4039D02*
X-5748Y-4351D01*
X-6060Y-4039D02*
Y-3980D01*
X5797Y-5790D02*
X6297Y-5290D01*
X5605Y-5790D02*
X5797D01*
D13*
X-3167Y4840D02*
D03*
X-2813D02*
D03*
X-2963Y1590D02*
D03*
X-3317D02*
D03*
X-5967Y1010D02*
D03*
X-5613D02*
D03*
X-53Y-910D02*
D03*
X-407D02*
D03*
X-3787Y-790D02*
D03*
X-3433D02*
D03*
X-1033Y-1390D02*
D03*
X-1387D02*
D03*
X-1033Y-910D02*
D03*
X-1387D02*
D03*
X-5423Y-3270D02*
D03*
X-5777D02*
D03*
X-5563Y-2180D02*
D03*
X-5917D02*
D03*
X-2757Y-4980D02*
D03*
X-2403D02*
D03*
X-5923Y2200D02*
D03*
X-6277D02*
D03*
X3527Y-2080D02*
D03*
X3173D02*
D03*
X5087Y-920D02*
D03*
X4733D02*
D03*
X2847Y-2080D02*
D03*
X2493D02*
D03*
X5337Y-2530D02*
D03*
X4983D02*
D03*
X-2173Y860D02*
D03*
X-2527D02*
D03*
X-3433Y-330D02*
D03*
X-3787D02*
D03*
X-1813Y1340D02*
D03*
X-2167D02*
D03*
X-5223Y2820D02*
D03*
X-5577D02*
D03*
X5943Y-5290D02*
D03*
X6297D02*
D03*
X2037Y-4790D02*
D03*
X1683D02*
D03*
D16*
X6210Y-3497D02*
D03*
Y-3143D02*
D03*
X-2000Y5607D02*
D03*
Y5253D02*
D03*
X-2240Y4513D02*
D03*
Y4867D02*
D03*
X-1350Y2963D02*
D03*
Y3317D02*
D03*
X-1730Y2103D02*
D03*
Y2457D02*
D03*
X-5540Y67D02*
D03*
Y-287D02*
D03*
X-6040Y67D02*
D03*
Y-287D02*
D03*
X-3480Y-3313D02*
D03*
Y-3667D02*
D03*
X-3940Y-3313D02*
D03*
Y-3667D02*
D03*
X-3060Y-3603D02*
D03*
Y-3957D02*
D03*
X-2570Y-3603D02*
D03*
Y-3957D02*
D03*
X6200Y2423D02*
D03*
Y2777D02*
D03*
X5360Y3163D02*
D03*
Y3517D02*
D03*
X5860Y3163D02*
D03*
Y3517D02*
D03*
X-5920Y-1233D02*
D03*
Y-1587D02*
D03*
D36*
X-405Y-1450D02*
D03*
X185D02*
D03*
X-1115Y-2154D02*
D03*
X-525D02*
D03*
X-3015Y-5840D02*
D03*
X-2425D02*
D03*
X4725Y-1920D02*
D03*
X5315D02*
D03*
D41*
X385Y-4390D02*
X1775Y-3000D01*
X-510Y-4390D02*
X385D01*
X-4210Y-330D02*
X-3787D01*
X4162Y-1364D02*
X4724D01*
X2442Y-2536D02*
X3198D01*
X2884Y-616D02*
X3178D01*
X2670Y-830D02*
X2884Y-616D01*
X2670Y-1364D02*
Y-830D01*
X1986Y-2080D02*
X2493D01*
X1970Y-2064D02*
X1986Y-2080D01*
X2442Y-2536D01*
X1970Y-2064D02*
X2670Y-1364D01*
X4182Y-2536D02*
X4977D01*
X3173Y-2080D02*
Y-1369D01*
X2670Y-1364D02*
X3178D01*
X-3787Y-330D02*
Y91D01*
X-3704Y174D01*
X1775Y-3000D02*
X2256D01*
X2452Y-2804D01*
X3546D01*
X3814Y-2536D01*
X4182D01*
D42*
X-3839Y5826D02*
X-3626D01*
X-4638Y5027D02*
X-3839Y5826D01*
X-3897Y5570D02*
X-3505D01*
X-4580Y4887D02*
X-3897Y5570D01*
X-3839Y5430D02*
X-3305D01*
X-4522Y4747D02*
X-3839Y5430D01*
X-3781Y5290D02*
X-3160D01*
X-4464Y4607D02*
X-3781Y5290D01*
X-5093Y5027D02*
Y5068D01*
X-3626Y5826D02*
X-3600Y5800D01*
X-5093Y5027D02*
X-4638D01*
X-5290Y5068D02*
X-5280Y5058D01*
X-5290Y4990D02*
Y5068D01*
Y4990D02*
X-5187Y4887D01*
X-4580D01*
X-3295Y5780D02*
X-3270D01*
X-3505Y5570D02*
X-3295Y5780D01*
X-5258Y4747D02*
X-4522D01*
X-5807Y5098D02*
Y5176D01*
Y5098D02*
X-5316Y4607D01*
X-4464D01*
X-3305Y5430D02*
X-3235Y5500D01*
X-2820D01*
X-3160Y5290D02*
X-3140Y5270D01*
X5605Y-4290D02*
X6000D01*
X5605Y-4790D02*
X6000D01*
X2050Y-5290D02*
X2495D01*
X2060Y-5790D02*
X2495D01*
X-5487Y4976D02*
Y5068D01*
Y4976D02*
X-5258Y4747D01*
D43*
X1634Y0D02*
D03*
X-1634D02*
D03*
D44*
X1250Y-6070D02*
D03*
X-1250D02*
D03*
D45*
X-190Y5450D02*
D03*
X-6040Y-590D02*
D03*
X2790Y4770D02*
D03*
X1800Y4050D02*
D03*
X-6060Y-4410D02*
D03*
Y-3980D02*
D03*
X-2460Y1200D02*
D03*
X-1730Y2780D02*
D03*
X80Y-2210D02*
D03*
X-2830Y-590D02*
D03*
X-3455Y-6100D02*
D03*
X-350Y-5510D02*
D03*
X-5514Y-600D02*
D03*
X-5237Y-2027D02*
D03*
X-4910Y1340D02*
D03*
X-4880Y970D02*
D03*
X-5320Y1250D02*
D03*
X50Y4580D02*
D03*
X-350D02*
D03*
X5700Y4770D02*
D03*
X2230Y-3470D02*
D03*
X-5830Y2550D02*
D03*
X-5090Y5640D02*
D03*
X-4240Y1210D02*
D03*
X-3870Y1070D02*
D03*
X450Y4580D02*
D03*
X-2900Y1250D02*
D03*
X90Y2010D02*
D03*
X-380Y2280D02*
D03*
X-4030Y6080D02*
D03*
X-1010Y-3340D02*
D03*
X-6240Y1330D02*
D03*
X-6210Y5270D02*
D03*
X5390Y6080D02*
D03*
X-6250Y2560D02*
D03*
X-6030Y1840D02*
D03*
X-2520Y-880D02*
D03*
X-4210Y-330D02*
D03*
X-2460Y-6230D02*
D03*
X-1580Y5140D02*
D03*
X-5470Y5610D02*
D03*
X6250Y4796D02*
D03*
Y4392D02*
D03*
Y3988D02*
D03*
Y3584D02*
D03*
Y3180D02*
D03*
X1950Y-2520D02*
D03*
X850Y-3480D02*
D03*
X1280Y-3930D02*
D03*
X1700Y-3920D02*
D03*
X780Y-2760D02*
D03*
X-770D02*
D03*
X-4893Y4373D02*
D03*
X-4460D02*
D03*
X-4027D02*
D03*
X-3593D02*
D03*
X-3160D02*
D03*
X-2727D02*
D03*
X-4893Y3940D02*
D03*
X-4460D02*
D03*
X-4027D02*
D03*
X-3593D02*
D03*
X-3160D02*
D03*
X-2727D02*
D03*
X-4893Y3507D02*
D03*
X-4460D02*
D03*
X-4027D02*
D03*
X-3593D02*
D03*
X-3160D02*
D03*
X-2727D02*
D03*
X-4893Y3073D02*
D03*
X-4460D02*
D03*
X-4027D02*
D03*
X-3593D02*
D03*
X-3160D02*
D03*
X-2727D02*
D03*
X-4893Y2640D02*
D03*
X-4460D02*
D03*
X-4027D02*
D03*
X-3593D02*
D03*
X-3160D02*
D03*
X-2727D02*
D03*
X-4893Y2207D02*
D03*
X-4460D02*
D03*
X-4027D02*
D03*
X-3593D02*
D03*
X-3160D02*
D03*
X-2727D02*
D03*
X3860Y4613D02*
D03*
X4293D02*
D03*
X4726D02*
D03*
X3860Y4180D02*
D03*
X4293D02*
D03*
X4726D02*
D03*
X3860Y3747D02*
D03*
X4293D02*
D03*
X4726D02*
D03*
X-5780Y-3660D02*
D03*
X-5690Y-2590D02*
D03*
X-4500Y950D02*
D03*
X-4320Y-3670D02*
D03*
X-3320Y1250D02*
D03*
X-1420Y3630D02*
D03*
X-1890Y4860D02*
D03*
X6240Y5600D02*
D03*
X-340Y4150D02*
D03*
X-1080Y3890D02*
D03*
X-3600Y5800D02*
D03*
X-4499Y6190D02*
D03*
X-510Y-4390D02*
D03*
X2060Y-5790D02*
D03*
X2050Y-5290D02*
D03*
X-2570Y-4330D02*
D03*
X-2020Y-4980D02*
D03*
X-4190Y690D02*
D03*
X-5740Y-4020D02*
D03*
X120Y-5510D02*
D03*
X1600Y-2740D02*
D03*
X3320Y1440D02*
D03*
X-6250Y2940D02*
D03*
X-4370Y360D02*
D03*
X-1960Y-6230D02*
D03*
X-2820Y5500D02*
D03*
X-2500Y5510D02*
D03*
X-3270Y5780D02*
D03*
X-3140Y5270D02*
D03*
X6010Y-2670D02*
D03*
X3184Y-4390D02*
D03*
Y-4823D02*
D03*
Y-5257D02*
D03*
Y-5690D02*
D03*
X3617Y-4390D02*
D03*
Y-4823D02*
D03*
Y-5257D02*
D03*
Y-5690D02*
D03*
X4050Y-4390D02*
D03*
Y-4823D02*
D03*
Y-5257D02*
D03*
Y-5690D02*
D03*
X4483Y-4390D02*
D03*
Y-4823D02*
D03*
Y-5257D02*
D03*
Y-5690D02*
D03*
X4916Y-4390D02*
D03*
Y-4823D02*
D03*
Y-5257D02*
D03*
Y-5690D02*
D03*
X6000Y-4790D02*
D03*
Y-4290D02*
D03*
X6090Y1670D02*
D03*
D46*
X1820Y4450D02*
D03*
X630Y-2040D02*
D03*
D47*
X2280Y5530D02*
D03*
X-6270Y4650D02*
D03*
X3530Y1840D02*
D03*
X2570Y-3230D02*
D03*
D48*
X-4640Y-5040D02*
D03*
D49*
X4730Y-1370D02*
D03*
X1970Y-2064D02*
D03*
D50*
X-5093Y6072D02*
D03*
X-5290D02*
D03*
X-5487D02*
D03*
Y5068D02*
D03*
X-5290D02*
D03*
X-5093D02*
D03*
D51*
X-5807Y5964D02*
D03*
Y5767D02*
D03*
Y5570D02*
D03*
Y5373D02*
D03*
Y5176D02*
D03*
X-4773D02*
D03*
Y5373D02*
D03*
Y5570D02*
D03*
Y5767D02*
D03*
Y5964D02*
D03*
D52*
X-2096Y-1406D02*
D03*
Y-2154D02*
D03*
X-2844Y-1780D02*
D03*
D53*
X-5329Y-4056D02*
D03*
X-5132D02*
D03*
X-4935D02*
D03*
X-4738D02*
D03*
X-4542D02*
D03*
X-4345D02*
D03*
X-4148D02*
D03*
X-3951D02*
D03*
Y-6024D02*
D03*
X-4148D02*
D03*
X-4345D02*
D03*
X-4542D02*
D03*
X-4738D02*
D03*
X-4935D02*
D03*
X-5132D02*
D03*
X-5329D02*
D03*
D54*
X-3656Y-4351D02*
D03*
Y-4548D02*
D03*
Y-4745D02*
D03*
Y-4942D02*
D03*
Y-5138D02*
D03*
Y-5335D02*
D03*
Y-5532D02*
D03*
Y-5729D02*
D03*
X-5624D02*
D03*
Y-5532D02*
D03*
Y-5335D02*
D03*
Y-5138D02*
D03*
Y-4942D02*
D03*
Y-4745D02*
D03*
Y-4548D02*
D03*
Y-4351D02*
D03*
D55*
X-4640Y-5040D02*
D03*
D56*
X4218Y5204D02*
D03*
X4573D02*
D03*
X4927D02*
D03*
X5282D02*
D03*
Y5676D02*
D03*
X4927D02*
D03*
X4573D02*
D03*
X4218D02*
D03*
D57*
X4162Y-1364D02*
D03*
Y-616D02*
D03*
X3178D02*
D03*
Y-990D02*
D03*
Y-1364D02*
D03*
D58*
X3198Y-2536D02*
D03*
Y-3284D02*
D03*
X4182D02*
D03*
Y-2910D02*
D03*
Y-2536D02*
D03*
D59*
X-3704Y174D02*
D03*
Y686D02*
D03*
X-2956Y430D02*
D03*
X5036Y-3566D02*
D03*
Y-3054D02*
D03*
X5784Y-3310D02*
D03*
D60*
X4050Y-5040D02*
D03*
D61*
X5605Y-5790D02*
D03*
Y-5290D02*
D03*
Y-4790D02*
D03*
Y-4290D02*
D03*
X2495D02*
D03*
Y-4790D02*
D03*
Y-5290D02*
D03*
Y-5790D02*
D03*
M02*
