%FSLAX24Y24*%
%MOIN*%
G70*
G01*
G75*
G04 Layer_Color=8421504*
%ADD10C,0.0177*%
%ADD11C,0.0100*%
%ADD12O,0.0295X0.0079*%
%ADD13R,0.0157X0.0236*%
%ADD14R,0.0217X0.0098*%
%ADD15O,0.0315X0.0079*%
%ADD16R,0.0236X0.0157*%
%ADD17R,0.0354X0.0197*%
%ADD18R,0.0157X0.0335*%
%ADD19O,0.0177X0.0532*%
%ADD20R,0.0118X0.0209*%
%ADD21R,0.0118X0.0193*%
%ADD22O,0.0098X0.0276*%
%ADD23O,0.0276X0.0098*%
%ADD24R,0.0335X0.0157*%
%ADD25R,0.0157X0.0532*%
%ADD26R,0.0748X0.0630*%
%ADD27R,0.0630X0.0551*%
%ADD28O,0.0079X0.0315*%
%ADD29R,0.2598X0.2598*%
%ADD30R,0.0138X0.0394*%
%ADD31R,0.0343X0.0343*%
%ADD32R,0.1417X0.1417*%
%ADD33O,0.0079X0.0295*%
%ADD34R,0.0335X0.0374*%
%ADD35R,0.0551X0.0453*%
%ADD36R,0.0197X0.0354*%
%ADD37R,0.0591X0.1339*%
%ADD38R,0.0394X0.1378*%
%ADD39R,0.0138X0.0157*%
%ADD40R,0.0177X0.0177*%
%ADD41C,0.0200*%
%ADD42C,0.0080*%
%ADD43C,0.1260*%
%ADD44C,0.0630*%
%ADD45C,0.0260*%
%ADD46C,0.0290*%
%ADD47C,0.0240*%
%ADD48C,0.0300*%
%ADD49C,0.0340*%
%ADD50R,0.0098X0.0138*%
%ADD51R,0.0187X0.0098*%
%ADD52R,0.0591X0.0236*%
%ADD53O,0.0098X0.0315*%
%ADD54O,0.0315X0.0098*%
%ADD55R,0.1299X0.1299*%
%ADD56R,0.0197X0.0315*%
%ADD57R,0.0394X0.0217*%
%ADD58R,0.0512X0.0217*%
%ADD59R,0.0354X0.0276*%
%ADD60R,0.2362X0.1890*%
%ADD61O,0.0315X0.0157*%
%ADD62C,0.0098*%
%ADD63C,0.0039*%
%ADD64C,0.0079*%
%ADD65C,0.0047*%
%ADD66C,0.0050*%
%ADD67C,0.0040*%
%ADD68R,0.0148X0.0177*%
D12*
X3299Y3885D02*
D03*
Y4082D02*
D03*
Y3491D02*
D03*
Y3688D02*
D03*
Y4278D02*
D03*
Y4475D02*
D03*
Y4672D02*
D03*
Y4869D02*
D03*
X5287D02*
D03*
Y4672D02*
D03*
Y4475D02*
D03*
Y4278D02*
D03*
Y4082D02*
D03*
Y3885D02*
D03*
Y3688D02*
D03*
Y3491D02*
D03*
D13*
X2357Y5170D02*
D03*
X2003D02*
D03*
X1123Y4110D02*
D03*
X1477D02*
D03*
X77Y5050D02*
D03*
X-277D02*
D03*
X-5977Y5980D02*
D03*
X-5623D02*
D03*
X-6197Y5580D02*
D03*
X-5843D02*
D03*
X-5923Y2200D02*
D03*
X-6277D02*
D03*
X-2747Y-5750D02*
D03*
X-2393D02*
D03*
X-2747Y-5190D02*
D03*
X-2393D02*
D03*
X5603Y1120D02*
D03*
X5957D02*
D03*
X-3491Y-1860D02*
D03*
X-3137D02*
D03*
X-2753Y-2350D02*
D03*
X-3107D02*
D03*
X-4603Y-760D02*
D03*
X-4957D02*
D03*
X-4947Y-1279D02*
D03*
X-4593D02*
D03*
X-4937Y-1750D02*
D03*
X-4583D02*
D03*
X-3573Y-2570D02*
D03*
X-3927D02*
D03*
X-4583Y-2250D02*
D03*
X-4937D02*
D03*
X-3891Y-4050D02*
D03*
X-3537D02*
D03*
X-2737Y-3540D02*
D03*
X-2383D02*
D03*
X-1207Y-3715D02*
D03*
X-853D02*
D03*
X-3537Y-3540D02*
D03*
X-3183D02*
D03*
X63Y2850D02*
D03*
X417D02*
D03*
Y3730D02*
D03*
X63D02*
D03*
X-4593Y-270D02*
D03*
X-4947D02*
D03*
X-5223Y840D02*
D03*
X-5577D02*
D03*
X-5223Y350D02*
D03*
X-5577D02*
D03*
X-5797Y5240D02*
D03*
X-5443D02*
D03*
X-4913Y6000D02*
D03*
X-5267D02*
D03*
X-1873Y5350D02*
D03*
X-2227D02*
D03*
X-1463Y2440D02*
D03*
X-1817D02*
D03*
X4853Y1220D02*
D03*
X5207D02*
D03*
X4207Y1200D02*
D03*
X3853D02*
D03*
D14*
X2517Y4577D02*
D03*
Y4380D02*
D03*
Y4183D02*
D03*
X2183D02*
D03*
Y4380D02*
D03*
Y4577D02*
D03*
D15*
X-2235Y3585D02*
D03*
Y3782D02*
D03*
X-5385Y4570D02*
D03*
Y4373D02*
D03*
Y4176D02*
D03*
Y3979D02*
D03*
Y3782D02*
D03*
Y3585D02*
D03*
Y3388D02*
D03*
Y3192D02*
D03*
Y2995D02*
D03*
Y2798D02*
D03*
Y2601D02*
D03*
Y2404D02*
D03*
Y2207D02*
D03*
Y2010D02*
D03*
X-2235D02*
D03*
Y2207D02*
D03*
Y2404D02*
D03*
Y2601D02*
D03*
Y2798D02*
D03*
Y2995D02*
D03*
Y3192D02*
D03*
Y3388D02*
D03*
Y3979D02*
D03*
Y4176D02*
D03*
Y4373D02*
D03*
Y4570D02*
D03*
D16*
X2850Y5467D02*
D03*
Y5113D02*
D03*
X-5710Y-4767D02*
D03*
Y-4413D02*
D03*
X-6060Y-2647D02*
D03*
Y-2293D02*
D03*
Y-3066D02*
D03*
Y-3420D02*
D03*
X-3990Y-3233D02*
D03*
Y-3587D02*
D03*
X-1660Y-4070D02*
D03*
Y-3715D02*
D03*
X5760Y5747D02*
D03*
Y5393D02*
D03*
X3130Y2153D02*
D03*
Y2507D02*
D03*
X2870Y2923D02*
D03*
Y3277D02*
D03*
X5750Y1867D02*
D03*
Y1513D02*
D03*
X-1960Y-5540D02*
D03*
Y-5894D02*
D03*
D17*
X5750Y2285D02*
D03*
Y2875D02*
D03*
D18*
X-3649Y-576D02*
D03*
X-3137D02*
D03*
Y-1324D02*
D03*
X-3393D02*
D03*
X-3649D02*
D03*
X-6026Y-1002D02*
D03*
X-5514D02*
D03*
Y-1750D02*
D03*
X-5770D02*
D03*
X-6026D02*
D03*
X-2874Y6D02*
D03*
X-3386D02*
D03*
Y754D02*
D03*
X-3130D02*
D03*
X-2874D02*
D03*
X1376Y4576D02*
D03*
X864D02*
D03*
Y5324D02*
D03*
X1120D02*
D03*
X1376D02*
D03*
X1120Y4576D02*
D03*
D19*
X-5404Y-3902D02*
D03*
X-5148D02*
D03*
X-4892D02*
D03*
X-4636D02*
D03*
X-5404Y-2918D02*
D03*
X-5148D02*
D03*
X-4892D02*
D03*
X-4636D02*
D03*
D20*
X1303Y-3400D02*
D03*
D21*
X1500Y-3408D02*
D03*
X1697D02*
D03*
Y-3112D02*
D03*
X1500D02*
D03*
X1303D02*
D03*
D22*
X0Y-3814D02*
D03*
Y-3026D02*
D03*
D23*
X-315Y-3715D02*
D03*
Y-3518D02*
D03*
Y-3322D02*
D03*
Y-3125D02*
D03*
X315D02*
D03*
Y-3322D02*
D03*
Y-3518D02*
D03*
Y-3715D02*
D03*
D24*
X-2934Y-4581D02*
D03*
Y-4070D02*
D03*
X-2186D02*
D03*
Y-4326D02*
D03*
Y-4581D02*
D03*
D25*
X-512Y-5017D02*
D03*
X-256D02*
D03*
X512D02*
D03*
X256D02*
D03*
X0D02*
D03*
D26*
X472Y-6070D02*
D03*
X-472D02*
D03*
D27*
X1260Y-5086D02*
D03*
X-1260D02*
D03*
D28*
X-5090Y1715D02*
D03*
X-4893D02*
D03*
X-4696D02*
D03*
X-4499D02*
D03*
X-4302D02*
D03*
X-4105D02*
D03*
X-3908D02*
D03*
X-3712D02*
D03*
X-3515D02*
D03*
X-3318D02*
D03*
X-3121D02*
D03*
X-2924D02*
D03*
X-2727D02*
D03*
X-2530D02*
D03*
Y4865D02*
D03*
X-2727D02*
D03*
X-2924D02*
D03*
X-3121D02*
D03*
X-3318D02*
D03*
X-3515D02*
D03*
X-3712D02*
D03*
X-3908D02*
D03*
X-4105D02*
D03*
X-4302D02*
D03*
X-4499D02*
D03*
X-4696D02*
D03*
X-4893D02*
D03*
X-5090D02*
D03*
D29*
X-3810Y3290D02*
D03*
D30*
X-764Y4336D02*
D03*
X-1020D02*
D03*
X-1276D02*
D03*
X-1276Y5044D02*
D03*
X-1020D02*
D03*
X-764D02*
D03*
D31*
X2122Y3542D02*
D03*
Y2778D02*
D03*
X1358D02*
D03*
Y3542D02*
D03*
D32*
X4293Y4180D02*
D03*
D33*
X4982Y3186D02*
D03*
X4785D02*
D03*
X4588D02*
D03*
X4392D02*
D03*
X4195D02*
D03*
X3998D02*
D03*
X3801D02*
D03*
X3604D02*
D03*
Y5174D02*
D03*
X3801D02*
D03*
X3998D02*
D03*
X4195D02*
D03*
X4392D02*
D03*
X4588D02*
D03*
X4785D02*
D03*
X4982D02*
D03*
D34*
X-424Y3415D02*
D03*
Y2845D02*
D03*
X-876D02*
D03*
Y3415D02*
D03*
D35*
X4913Y2395D02*
D03*
X4047D02*
D03*
Y1765D02*
D03*
X4913D02*
D03*
D36*
X-5475Y-190D02*
D03*
X-6065D02*
D03*
D37*
X5349Y-2345D02*
D03*
X2711D02*
D03*
D38*
X4424Y-160D02*
D03*
X3636D02*
D03*
D39*
X-6270Y3508D02*
D03*
Y3232D02*
D03*
X-5840Y3508D02*
D03*
Y3232D02*
D03*
X-5930Y4482D02*
D03*
Y4758D02*
D03*
D40*
X-6267Y4167D02*
D03*
X-5933D02*
D03*
X-6267Y3833D02*
D03*
X-5933D02*
D03*
M02*
