%FSLAX24Y24*%
%MOIN*%
G70*
G01*
G75*
G04 Layer_Physical_Order=1*
G04 Layer_Color=255*
%ADD10C,0.0177*%
%ADD11C,0.0100*%
%ADD12O,0.0295X0.0079*%
%ADD13R,0.0157X0.0236*%
%ADD14R,0.0217X0.0098*%
%ADD15O,0.0315X0.0079*%
%ADD16R,0.0236X0.0157*%
%ADD17R,0.0354X0.0197*%
%ADD18R,0.0157X0.0335*%
%ADD19O,0.0177X0.0532*%
%ADD20R,0.0118X0.0209*%
%ADD21R,0.0118X0.0193*%
%ADD22O,0.0098X0.0276*%
%ADD23O,0.0276X0.0098*%
%ADD24R,0.0335X0.0157*%
%ADD25R,0.0157X0.0532*%
%ADD26R,0.0748X0.0630*%
%ADD27R,0.0630X0.0551*%
%ADD28O,0.0079X0.0315*%
%ADD29R,0.2598X0.2598*%
%ADD30R,0.0138X0.0394*%
%ADD31R,0.0343X0.0343*%
%ADD32R,0.1417X0.1417*%
%ADD33O,0.0079X0.0295*%
%ADD34R,0.0335X0.0374*%
%ADD35R,0.0551X0.0453*%
%ADD36R,0.0197X0.0354*%
%ADD37R,0.0591X0.1339*%
%ADD38R,0.0394X0.1378*%
%ADD39R,0.0138X0.0157*%
%ADD40R,0.0177X0.0177*%
%ADD41C,0.0200*%
%ADD42C,0.0080*%
%ADD43C,0.1260*%
%ADD44C,0.0630*%
%ADD45C,0.0260*%
%ADD46C,0.0290*%
%ADD47C,0.0240*%
%ADD48C,0.0300*%
%ADD49C,0.0340*%
G36*
X6071Y3510D02*
X6113Y3447D01*
X6170Y3409D01*
X6173Y3382D01*
X6170Y3355D01*
X6113Y3317D01*
X6096Y3292D01*
X5645D01*
X5487Y3450D01*
X5489Y3452D01*
X5497Y3491D01*
X5490Y3526D01*
X5490Y3532D01*
X5518Y3576D01*
X6058D01*
X6071Y3510D01*
D02*
G37*
G36*
X5368Y2761D02*
Y2316D01*
X5322Y2297D01*
X5249Y2370D01*
Y2681D01*
X4687D01*
X4579Y2790D01*
X4598Y2836D01*
X5040D01*
X5048Y2838D01*
X5291D01*
X5368Y2761D01*
D02*
G37*
G36*
X6388Y5410D02*
Y4993D01*
X6338Y4966D01*
X6324Y4975D01*
X6250Y4990D01*
X6176Y4975D01*
X6113Y4933D01*
X6071Y4870D01*
X6056Y4796D01*
X6062Y4767D01*
X5904Y4609D01*
X5883Y4611D01*
X5858Y4665D01*
X5879Y4696D01*
X5894Y4770D01*
X5879Y4844D01*
X5837Y4907D01*
X5812Y4924D01*
Y5254D01*
X5938D01*
Y5281D01*
X6033D01*
X6033Y5281D01*
X6076Y5289D01*
X6112Y5314D01*
X6211Y5412D01*
X6240Y5406D01*
X6314Y5421D01*
X6338Y5437D01*
X6388Y5410D01*
D02*
G37*
G36*
X-6170Y5043D02*
X-6120Y5053D01*
X-6044Y5104D01*
X-6026Y5132D01*
X-5976Y5116D01*
Y5022D01*
X-5837D01*
Y5240D01*
X-5757D01*
Y5022D01*
X-5618D01*
Y5030D01*
X-5582Y5062D01*
X-5373D01*
X-5191Y4879D01*
Y4747D01*
X-5190Y4744D01*
X-5193Y4739D01*
X-5234Y4705D01*
X-5267Y4712D01*
X-5345D01*
Y4570D01*
X-5425D01*
Y4712D01*
X-5503D01*
X-5557Y4701D01*
X-5584Y4712D01*
X-5586Y4723D01*
X-5611Y4759D01*
X-5611Y4759D01*
X-5688Y4837D01*
X-5725Y4861D01*
X-5763Y4869D01*
X-5801Y4897D01*
X-5801Y4897D01*
X-5801D01*
X-5849Y4897D01*
X-6059D01*
Y4748D01*
X-6109Y4733D01*
X-6140Y4780D01*
X-6200Y4820D01*
X-6270Y4834D01*
X-6338Y4820D01*
X-6347Y4819D01*
X-6388Y4845D01*
Y5052D01*
X-6338Y5079D01*
X-6300Y5053D01*
X-6250Y5043D01*
Y5270D01*
X-6170D01*
Y5043D01*
D02*
G37*
G36*
X-4004Y-3732D02*
Y-3872D01*
X-4030D01*
Y-4030D01*
X-4278Y-4278D01*
X-4616D01*
X-4621Y-4228D01*
X-4578Y-4219D01*
X-4529Y-4186D01*
X-4496Y-4137D01*
X-4485Y-4079D01*
Y-3909D01*
X-4412Y-3837D01*
X-4394Y-3849D01*
X-4320Y-3864D01*
X-4246Y-3849D01*
X-4183Y-3807D01*
X-4141Y-3744D01*
X-4137Y-3726D01*
X-4010D01*
X-4004Y-3732D01*
D02*
G37*
G36*
X-5452Y172D02*
X-5438Y172D01*
X-5402Y140D01*
Y132D01*
X-5380D01*
X-5368Y111D01*
X-5361Y82D01*
X-5396Y47D01*
X-5633D01*
Y-427D01*
X-5633Y-427D01*
X-5655Y-468D01*
X-5693Y-526D01*
X-5708Y-600D01*
X-5693Y-674D01*
X-5658Y-727D01*
X-5653Y-775D01*
X-5653Y-775D01*
X-5653Y-775D01*
Y-1167D01*
X-5849D01*
X-5887Y-1136D01*
Y-821D01*
X-5887Y-775D01*
Y-775D01*
D01*
X-5887Y-775D01*
X-5901Y-727D01*
X-5901Y-725D01*
X-5861Y-664D01*
X-5846Y-590D01*
X-5861Y-516D01*
X-5890Y-472D01*
X-5907Y-427D01*
Y-427D01*
X-5907Y-427D01*
X-5907Y-427D01*
Y-138D01*
X-5597Y172D01*
X-5452D01*
D02*
G37*
G36*
X6113Y3043D02*
X6138Y3026D01*
Y1901D01*
X6093Y1863D01*
X6090Y1864D01*
X6016Y1849D01*
X5978Y1824D01*
X5928Y1850D01*
Y2006D01*
X5862D01*
Y2126D01*
X5987D01*
Y2443D01*
X5572D01*
Y2717D01*
X5987D01*
Y3034D01*
X6023Y3068D01*
X6096D01*
X6113Y3043D01*
D02*
G37*
G36*
X-6176Y1995D02*
X-6170Y1972D01*
X-6209Y1914D01*
X-6224Y1840D01*
X-6209Y1766D01*
X-6167Y1703D01*
X-6104Y1661D01*
X-6030Y1646D01*
X-5956Y1661D01*
X-5928Y1680D01*
X-5878Y1653D01*
Y831D01*
X-6342Y367D01*
X-6388Y386D01*
Y1099D01*
X-6344Y1123D01*
X-6330Y1113D01*
X-6280Y1103D01*
Y1330D01*
Y1557D01*
X-6330Y1547D01*
X-6344Y1537D01*
X-6388Y1561D01*
Y2022D01*
X-6190D01*
X-6176Y1995D01*
D02*
G37*
G36*
X5673Y6372D02*
X5840Y6322D01*
X5994Y6239D01*
X6129Y6129D01*
X6239Y5994D01*
X6322Y5840D01*
X6326Y5827D01*
X6286Y5785D01*
X6240Y5794D01*
X6166Y5779D01*
X6103Y5737D01*
X6061Y5674D01*
X6046Y5600D01*
X6052Y5571D01*
X6023Y5541D01*
X5978Y5550D01*
X5978Y5568D01*
X5978D01*
Y5707D01*
X5542D01*
Y5568D01*
X5542D01*
X5545Y5518D01*
X5539Y5506D01*
X5537Y5505D01*
X5201D01*
X5201Y5505D01*
X5158Y5496D01*
X5121Y5472D01*
X5024Y5374D01*
X5021Y5376D01*
X4982Y5384D01*
X4943Y5376D01*
X4910Y5354D01*
X4857D01*
X4824Y5376D01*
X4785Y5384D01*
X4746Y5376D01*
X4740Y5372D01*
X4690Y5399D01*
Y5852D01*
X4683Y5891D01*
X4660Y5924D01*
X4243Y6342D01*
X4262Y6388D01*
X5500D01*
X5505Y6389D01*
X5673Y6372D01*
D02*
G37*
G36*
X-5500Y6388D02*
X-4635D01*
X-4620Y6338D01*
X-4636Y6327D01*
X-4678Y6264D01*
X-4686Y6223D01*
X-4734Y6218D01*
X-4734Y6218D01*
X-4734Y6218D01*
X-4873D01*
Y6000D01*
X-4953D01*
Y6218D01*
X-5092D01*
Y6210D01*
X-5128Y6178D01*
X-5406D01*
Y6092D01*
X-5484D01*
Y6158D01*
X-5762D01*
X-5798Y6190D01*
Y6198D01*
X-5965D01*
X-5978Y6248D01*
X-5840Y6322D01*
X-5673Y6372D01*
X-5505Y6389D01*
X-5500Y6388D01*
D02*
G37*
G36*
X3502Y5594D02*
Y5174D01*
X3503Y5171D01*
Y5066D01*
X3508Y5039D01*
X3504Y5029D01*
X3462Y5000D01*
X3441Y5004D01*
X3407Y5011D01*
X3339D01*
Y4869D01*
X3259D01*
Y5011D01*
X3191D01*
X3136Y5000D01*
X3126Y4993D01*
X3121Y5001D01*
X3121Y5001D01*
X3028Y5093D01*
Y5238D01*
X3028Y5252D01*
X3060Y5288D01*
X3068D01*
Y5427D01*
X2632D01*
Y5288D01*
X2640D01*
X2640Y5288D01*
X2672Y5252D01*
X2672Y5238D01*
Y4974D01*
X2672Y4974D01*
X2672D01*
X2635Y4943D01*
X2624Y4936D01*
X2573Y4860D01*
X2563Y4810D01*
X2790D01*
Y4730D01*
X2563D01*
X2564Y4725D01*
X2533Y4686D01*
X2334D01*
Y4749D01*
X2333Y4754D01*
X2348Y4864D01*
X2392Y4972D01*
X2408Y4992D01*
X2496D01*
Y5110D01*
X2497Y5112D01*
X2509Y5170D01*
X2497Y5228D01*
X2496Y5230D01*
Y5348D01*
X2483D01*
X2456Y5398D01*
X2487Y5444D01*
X2496Y5490D01*
X2064D01*
X2073Y5444D01*
X2104Y5398D01*
X2077Y5348D01*
X1864D01*
Y5321D01*
X1748D01*
X1744Y5321D01*
X1651Y5333D01*
X1560Y5371D01*
X1515Y5405D01*
Y5551D01*
X1299D01*
Y5591D01*
X1160D01*
Y5324D01*
Y5057D01*
X1299D01*
Y5097D01*
X1438D01*
X1488Y5070D01*
X1616Y5031D01*
X1748Y5018D01*
Y5019D01*
X1864D01*
Y4992D01*
X2032D01*
X2062Y4952D01*
X2045Y4895D01*
X2031Y4749D01*
X2031D01*
Y4686D01*
X2014D01*
Y4675D01*
X1964Y4648D01*
X1916Y4681D01*
X1860Y4692D01*
Y4450D01*
X1820D01*
Y4410D01*
X1578D01*
X1589Y4354D01*
X1600Y4338D01*
X1573Y4288D01*
X1338D01*
Y4170D01*
X1337Y4168D01*
X1326Y4110D01*
Y3829D01*
X1327Y3822D01*
X1317Y3773D01*
X1127D01*
Y3311D01*
X1589D01*
Y3631D01*
X1611Y3684D01*
X1630Y3829D01*
X1633Y3831D01*
X1679Y3855D01*
X1710Y3833D01*
X1760Y3823D01*
Y4050D01*
X1840D01*
Y3823D01*
X1890Y3833D01*
X1966Y3884D01*
X2017Y3960D01*
X2035Y4050D01*
X2054Y4074D01*
X2111D01*
X2152Y4052D01*
X2152D01*
X2298Y3932D01*
X2464Y3843D01*
X2645Y3789D01*
X2832Y3770D01*
Y3773D01*
X3024D01*
X3052Y3728D01*
X3299D01*
Y3648D01*
X3057D01*
X3059Y3634D01*
X3090Y3587D01*
X3097Y3530D01*
X3089Y3491D01*
X3097Y3452D01*
X3099Y3450D01*
X3088Y3439D01*
X3048Y3416D01*
Y3416D01*
X3048Y3416D01*
X2692D01*
Y3258D01*
X2563Y3128D01*
X2538Y3092D01*
X2530Y3049D01*
X2530Y3049D01*
Y2118D01*
X2530Y2118D01*
X2538Y2075D01*
X2563Y2039D01*
X3132Y1469D01*
X3126Y1440D01*
X3141Y1366D01*
X3183Y1303D01*
X3246Y1261D01*
X3320Y1246D01*
X3394Y1261D01*
X3457Y1303D01*
X3499Y1366D01*
X3514Y1440D01*
X3499Y1514D01*
X3457Y1577D01*
X3394Y1619D01*
X3320Y1634D01*
X3291Y1628D01*
X2991Y1928D01*
X3010Y1974D01*
X3090D01*
Y2153D01*
X3170D01*
Y1974D01*
X3253D01*
X3254Y1969D01*
X3279Y1933D01*
X3351Y1861D01*
X3346Y1840D01*
X3360Y1770D01*
X3400Y1710D01*
X3460Y1670D01*
X3530Y1656D01*
X3600Y1670D01*
X3660Y1710D01*
X3661Y1713D01*
X3711Y1697D01*
Y1479D01*
X4095D01*
Y1423D01*
X4094Y1421D01*
X4082Y1415D01*
X4032Y1418D01*
Y1418D01*
X3893D01*
Y1200D01*
Y982D01*
X4032D01*
Y990D01*
X4032Y990D01*
X4068Y1022D01*
X4082Y1022D01*
X4346D01*
Y1378D01*
X4319D01*
Y1479D01*
X4383D01*
Y2044D01*
X4423Y2069D01*
X4423Y2069D01*
X4423D01*
X4423Y2069D01*
Y2355D01*
X4047D01*
Y2435D01*
X4423D01*
Y2564D01*
X4469Y2583D01*
X4577Y2474D01*
Y2116D01*
X4537Y2091D01*
X4537Y2091D01*
X4537D01*
X4537Y2091D01*
Y1805D01*
X4913D01*
Y1725D01*
X4537D01*
Y1439D01*
X4624D01*
X4674Y1438D01*
X4674Y1389D01*
Y1260D01*
X4853D01*
Y1220D01*
X4893D01*
Y1002D01*
X5032D01*
Y1010D01*
X5032Y1010D01*
X5068Y1042D01*
X5082Y1042D01*
X5346D01*
Y1191D01*
X5378Y1216D01*
X5424Y1196D01*
Y1160D01*
X5603D01*
Y1120D01*
X5643D01*
Y902D01*
X5782D01*
Y910D01*
X5818Y942D01*
X6096D01*
Y1298D01*
X6059D01*
Y1306D01*
X6051Y1345D01*
X6029Y1378D01*
X5958Y1449D01*
X5961Y1468D01*
X6015Y1492D01*
X6016Y1491D01*
X6090Y1476D01*
X6164Y1491D01*
X6227Y1533D01*
X6269Y1596D01*
X6284Y1670D01*
X6278Y1699D01*
X6329Y1751D01*
X6329Y1751D01*
X6338Y1763D01*
X6388Y1748D01*
Y-5500D01*
X6389Y-5505D01*
X6372Y-5673D01*
X6322Y-5840D01*
X6239Y-5994D01*
X6129Y-6129D01*
X5994Y-6239D01*
X5840Y-6322D01*
X5673Y-6372D01*
X5505Y-6389D01*
X5500Y-6388D01*
X1529D01*
X1513Y-6341D01*
X1517Y-6337D01*
X1578Y-6259D01*
X1615Y-6168D01*
X1628Y-6070D01*
X1615Y-5972D01*
X1578Y-5881D01*
X1517Y-5803D01*
X1439Y-5742D01*
X1348Y-5705D01*
X1250Y-5692D01*
X1152Y-5705D01*
X1061Y-5742D01*
X983Y-5803D01*
X956Y-5837D01*
X906Y-5820D01*
Y-5695D01*
X275D01*
X261Y-5656D01*
X258Y-5645D01*
X299Y-5584D01*
X314Y-5510D01*
X299Y-5436D01*
X287Y-5418D01*
X318Y-5374D01*
X333Y-5378D01*
Y-5383D01*
X472D01*
Y-5017D01*
Y-4651D01*
X333D01*
Y-4691D01*
X-349D01*
Y-4491D01*
X-331Y-4464D01*
X-316Y-4390D01*
X-331Y-4316D01*
X-373Y-4253D01*
X-436Y-4211D01*
X-510Y-4196D01*
X-584Y-4211D01*
X-647Y-4253D01*
X-689Y-4316D01*
X-704Y-4390D01*
X-689Y-4464D01*
X-675Y-4485D01*
Y-5017D01*
X-663Y-5076D01*
X-839Y-5252D01*
X-885Y-5233D01*
Y-4750D01*
X-1635D01*
Y-5421D01*
X-1682Y-5428D01*
X-1782D01*
Y-5401D01*
X-1940D01*
X-2179Y-5162D01*
X-2147Y-5124D01*
X-2094Y-5159D01*
X-2020Y-5174D01*
X-1946Y-5159D01*
X-1883Y-5117D01*
X-1841Y-5054D01*
X-1826Y-4980D01*
X-1841Y-4906D01*
X-1883Y-4843D01*
X-1908Y-4826D01*
Y-4747D01*
X-1908Y-4747D01*
X-1916Y-4704D01*
X-1941Y-4668D01*
X-1941Y-4668D01*
X-1959Y-4650D01*
Y-4504D01*
X-1919D01*
Y-4366D01*
X-2186D01*
Y-4286D01*
X-1919D01*
Y-4182D01*
X-1838D01*
Y-4208D01*
X-1482D01*
Y-3931D01*
X-1838D01*
Y-3957D01*
X-1959D01*
Y-3931D01*
X-2074D01*
Y-3737D01*
X-2082Y-3694D01*
X-2107Y-3658D01*
X-2107Y-3658D01*
X-2244Y-3520D01*
Y-3362D01*
X-2522D01*
Y-3718D01*
X-2363D01*
X-2298Y-3783D01*
Y-3931D01*
X-2413D01*
Y-4118D01*
X-2453Y-4147D01*
X-2503Y-4150D01*
X-2570Y-4136D01*
X-2644Y-4151D01*
X-2663Y-4163D01*
X-2707Y-4140D01*
Y-3931D01*
X-2822D01*
Y-3783D01*
X-2757Y-3718D01*
X-2598D01*
Y-3362D01*
X-2876D01*
Y-3428D01*
X-3044D01*
Y-3362D01*
X-3322D01*
Y-3718D01*
X-3093D01*
X-3046Y-3737D01*
X-3046Y-3737D01*
Y-3737D01*
X-3046Y-3767D01*
Y-3931D01*
X-3161D01*
Y-4208D01*
X-2789D01*
X-2776Y-4228D01*
X-2770Y-4258D01*
X-2954Y-4443D01*
X-3161D01*
Y-4720D01*
X-2707D01*
Y-4527D01*
X-2664Y-4496D01*
X-2644Y-4509D01*
X-2570Y-4524D01*
X-2501Y-4510D01*
X-2463Y-4505D01*
X-2413Y-4533D01*
Y-4720D01*
X-2206D01*
X-2144Y-4782D01*
X-2148Y-4837D01*
X-2157Y-4843D01*
X-2199Y-4906D01*
X-2214Y-4980D01*
X-2210Y-4997D01*
X-2258Y-5012D01*
X-2518D01*
X-2532Y-5012D01*
X-2568Y-4980D01*
Y-4972D01*
X-2707D01*
Y-5190D01*
Y-5408D01*
X-2568D01*
Y-5400D01*
X-2568Y-5400D01*
X-2532Y-5368D01*
X-2518Y-5368D01*
X-2290D01*
X-2138Y-5520D01*
Y-5638D01*
X-2254D01*
Y-5572D01*
X-2518D01*
X-2532Y-5572D01*
X-2568Y-5540D01*
Y-5532D01*
X-2707D01*
Y-5750D01*
Y-5968D01*
X-2568D01*
Y-5968D01*
X-2518Y-5965D01*
X-2506Y-5971D01*
X-2505Y-5973D01*
Y-6045D01*
X-2534Y-6051D01*
X-2597Y-6093D01*
X-2639Y-6156D01*
X-2654Y-6230D01*
X-2639Y-6304D01*
X-2616Y-6338D01*
X-2643Y-6388D01*
X-5500D01*
X-5505Y-6389D01*
X-5673Y-6372D01*
X-5840Y-6322D01*
X-5994Y-6239D01*
X-6129Y-6129D01*
X-6239Y-5994D01*
X-6322Y-5840D01*
X-6372Y-5673D01*
X-6389Y-5505D01*
X-6388Y-5500D01*
Y-1612D01*
X-6342Y-1593D01*
X-6165Y-1770D01*
Y-1977D01*
X-5949D01*
Y-2017D01*
X-5810D01*
Y-1750D01*
X-5730D01*
Y-2017D01*
X-5591D01*
Y-1977D01*
X-5501D01*
X-5493Y-1987D01*
X-5237D01*
Y-2067D01*
X-5464D01*
X-5454Y-2117D01*
X-5441Y-2137D01*
X-5465Y-2181D01*
X-5882D01*
Y-2154D01*
X-6238D01*
Y-2432D01*
X-5882D01*
X-5882Y-2432D01*
Y-2432D01*
X-5873Y-2432D01*
X-5853Y-2465D01*
X-5851Y-2484D01*
X-5882Y-2508D01*
X-6238D01*
Y-2786D01*
X-6172D01*
Y-2927D01*
X-6238D01*
Y-3204D01*
X-5882D01*
Y-2927D01*
X-5948D01*
Y-2786D01*
X-5882D01*
Y-2735D01*
X-5832Y-2720D01*
X-5827Y-2727D01*
X-5764Y-2769D01*
X-5690Y-2784D01*
X-5646Y-2775D01*
X-5596Y-2811D01*
Y-2878D01*
X-5404D01*
Y-2958D01*
X-5596D01*
Y-3095D01*
X-5581Y-3169D01*
X-5540Y-3231D01*
X-5500Y-3258D01*
X-5515Y-3308D01*
X-5882D01*
Y-3281D01*
X-6238D01*
Y-3559D01*
X-5996D01*
X-5964Y-3609D01*
X-5974Y-3660D01*
X-5959Y-3734D01*
X-5929Y-3779D01*
X-5965Y-3815D01*
X-5986Y-3801D01*
X-6060Y-3786D01*
X-6134Y-3801D01*
X-6197Y-3843D01*
X-6239Y-3906D01*
X-6254Y-3980D01*
X-6239Y-4054D01*
X-6197Y-4117D01*
X-6134Y-4159D01*
X-6081Y-4170D01*
Y-4220D01*
X-6134Y-4231D01*
X-6197Y-4273D01*
X-6239Y-4336D01*
X-6254Y-4410D01*
X-6239Y-4484D01*
X-6197Y-4547D01*
X-6134Y-4589D01*
X-6060Y-4604D01*
X-5986Y-4589D01*
X-5975Y-4582D01*
X-5928Y-4611D01*
Y-4727D01*
X-5492D01*
Y-4588D01*
X-5500D01*
X-5500Y-4588D01*
X-5532Y-4552D01*
X-5532Y-4538D01*
Y-4274D01*
X-5598D01*
Y-4182D01*
X-5580Y-4168D01*
X-5516Y-4179D01*
X-5511Y-4186D01*
X-5462Y-4219D01*
X-5404Y-4231D01*
X-5346Y-4219D01*
X-5310Y-4195D01*
X-5266Y-4212D01*
X-5260Y-4218D01*
Y-4292D01*
X-5260Y-4292D01*
X-5252Y-4335D01*
X-5227Y-4371D01*
X-5129Y-4469D01*
X-5129Y-4469D01*
X-5093Y-4494D01*
X-5050Y-4502D01*
X-4232D01*
X-4231Y-4502D01*
X-4189Y-4494D01*
X-4152Y-4469D01*
X-3911Y-4228D01*
X-3753D01*
Y-3872D01*
X-3779D01*
Y-3686D01*
X-3779Y-3686D01*
X-3788Y-3643D01*
X-3812Y-3607D01*
Y-3448D01*
X-4168D01*
Y-3483D01*
X-4218Y-3510D01*
X-4246Y-3491D01*
X-4267Y-3487D01*
X-4284Y-3432D01*
X-4218Y-3367D01*
X-4168Y-3372D01*
Y-3372D01*
X-3812D01*
Y-3094D01*
X-4168D01*
Y-3121D01*
X-4243D01*
X-4286Y-3129D01*
X-4322Y-3154D01*
X-4322Y-3154D01*
X-4476Y-3308D01*
X-4700D01*
X-4700Y-3308D01*
X-4700Y-3308D01*
X-5293D01*
X-5308Y-3258D01*
X-5268Y-3231D01*
X-5251Y-3205D01*
X-5206Y-3235D01*
X-5148Y-3247D01*
X-5090Y-3235D01*
X-5054Y-3211D01*
X-5020Y-3205D01*
X-4986Y-3211D01*
X-4950Y-3235D01*
X-4892Y-3247D01*
X-4834Y-3235D01*
X-4785Y-3202D01*
X-4743D01*
X-4694Y-3235D01*
X-4636Y-3247D01*
X-4578Y-3235D01*
X-4529Y-3202D01*
X-4496Y-3153D01*
X-4485Y-3095D01*
Y-2925D01*
X-4242Y-2682D01*
X-4066D01*
Y-2748D01*
X-3788D01*
Y-2392D01*
X-4066D01*
Y-2458D01*
X-4288D01*
X-4288Y-2458D01*
X-4331Y-2466D01*
X-4368Y-2491D01*
X-4368Y-2491D01*
X-4424Y-2548D01*
X-4471Y-2528D01*
Y-2428D01*
X-4444D01*
Y-2072D01*
X-4471D01*
Y-1928D01*
X-4444D01*
Y-1572D01*
X-4535D01*
X-4554Y-1526D01*
X-4514Y-1485D01*
X-4514Y-1485D01*
X-4495Y-1457D01*
X-4454D01*
Y-1101D01*
X-4612D01*
X-4689Y-1024D01*
X-4670Y-978D01*
X-4643D01*
Y-760D01*
Y-542D01*
X-4782D01*
Y-550D01*
X-4818Y-582D01*
X-5030D01*
X-5050Y-532D01*
X-4967Y-448D01*
X-4808D01*
Y-167D01*
X-4760Y-146D01*
X-4732Y-169D01*
Y-448D01*
X-4454D01*
Y-92D01*
X-4491D01*
X-4514Y-58D01*
X-4514Y-58D01*
X-4661Y89D01*
X-4697Y114D01*
X-4740Y122D01*
X-4740Y122D01*
X-4998D01*
X-5044Y132D01*
X-5044Y172D01*
Y310D01*
X-5223D01*
Y350D01*
X-5263D01*
Y568D01*
X-5402D01*
Y568D01*
X-5452Y565D01*
X-5464Y571D01*
X-5465Y573D01*
Y619D01*
X-5452Y625D01*
X-5402Y622D01*
Y622D01*
X-5263D01*
Y840D01*
X-5183D01*
Y622D01*
X-5044D01*
Y791D01*
X-4994Y818D01*
X-4954Y791D01*
X-4880Y776D01*
X-4806Y791D01*
X-4743Y833D01*
X-4724Y861D01*
X-4720Y862D01*
X-4667Y857D01*
X-4637Y813D01*
X-4574Y771D01*
X-4500Y756D01*
X-4426Y771D01*
X-4415Y778D01*
X-4372Y747D01*
X-4384Y690D01*
X-4374Y641D01*
X-4372Y614D01*
X-4410Y587D01*
X-4460Y577D01*
X-4536Y526D01*
X-4587Y450D01*
X-4597Y400D01*
X-4143D01*
X-4153Y450D01*
X-4160Y460D01*
X-4141Y506D01*
X-4116Y511D01*
X-4053Y553D01*
X-4011Y616D01*
X-3996Y690D01*
X-4011Y764D01*
X-4053Y827D01*
X-4116Y869D01*
X-4190Y884D01*
X-4264Y869D01*
X-4275Y862D01*
X-4318Y893D01*
X-4306Y950D01*
X-4312Y980D01*
X-4270Y1022D01*
X-4240Y1016D01*
X-4166Y1031D01*
X-4111Y1067D01*
X-4076Y1058D01*
X-4059Y1048D01*
X-4049Y996D01*
X-4007Y933D01*
X-3944Y891D01*
X-3870Y876D01*
X-3796Y891D01*
X-3762Y914D01*
X-3712Y887D01*
Y446D01*
X-3989Y169D01*
X-4014Y133D01*
X-4022Y90D01*
X-4022Y90D01*
Y-179D01*
X-4072Y-194D01*
X-4073Y-193D01*
X-4136Y-151D01*
X-4210Y-136D01*
X-4284Y-151D01*
X-4347Y-193D01*
X-4389Y-256D01*
X-4404Y-330D01*
X-4389Y-404D01*
X-4347Y-467D01*
X-4284Y-509D01*
X-4210Y-524D01*
X-4136Y-509D01*
X-4073Y-467D01*
X-4072Y-466D01*
X-4022Y-481D01*
Y-1150D01*
X-4022Y-1150D01*
X-4014Y-1193D01*
X-3989Y-1229D01*
X-3815Y-1403D01*
X-3815Y-1403D01*
X-3788Y-1422D01*
Y-1551D01*
X-3761D01*
Y-1703D01*
X-3761Y-1703D01*
X-3753Y-1745D01*
X-3728Y-1782D01*
X-3630Y-1880D01*
Y-2038D01*
X-3353D01*
Y-1682D01*
X-3511D01*
X-3537Y-1656D01*
Y-1591D01*
X-3433D01*
Y-1324D01*
Y-1057D01*
X-3572D01*
Y-1061D01*
X-3607Y-1097D01*
X-3788D01*
X-3798Y-1051D01*
Y-849D01*
X-3788Y-803D01*
X-3748Y-803D01*
X-3580D01*
X-3444Y-939D01*
X-3444Y-939D01*
X-3408Y-964D01*
X-3365Y-972D01*
X-2687D01*
X-2657Y-1017D01*
X-2594Y-1059D01*
X-2520Y-1074D01*
X-2446Y-1059D01*
X-2383Y-1017D01*
X-2341Y-954D01*
X-2326Y-880D01*
X-2341Y-806D01*
X-2383Y-743D01*
X-2446Y-701D01*
X-2520Y-686D01*
X-2594Y-701D01*
X-2633Y-727D01*
X-2669Y-691D01*
X-2651Y-664D01*
X-2636Y-590D01*
X-2651Y-516D01*
X-2693Y-453D01*
X-2756Y-411D01*
X-2830Y-396D01*
X-2904Y-411D01*
X-2948Y-441D01*
X-2998Y-417D01*
Y-349D01*
X-3276D01*
Y-730D01*
X-3326Y-740D01*
X-3510Y-556D01*
Y-349D01*
X-3525D01*
X-3532Y-299D01*
X-3455Y-221D01*
X-3247D01*
Y233D01*
X-3525D01*
Y26D01*
X-3728Y-178D01*
X-3748Y-207D01*
X-3777Y-206D01*
X-3798Y-199D01*
Y44D01*
X-3521Y321D01*
X-3521Y321D01*
X-3496Y357D01*
X-3488Y400D01*
Y487D01*
X-3426D01*
Y754D01*
X-3346D01*
Y487D01*
X-3207D01*
Y527D01*
X-2735D01*
Y981D01*
X-2875D01*
X-2894Y1028D01*
X-2856Y1065D01*
X-2826Y1071D01*
X-2763Y1113D01*
X-2721Y1176D01*
X-2706Y1250D01*
X-2712Y1279D01*
X-2663Y1329D01*
X-2624Y1297D01*
X-2639Y1274D01*
X-2654Y1200D01*
X-2639Y1126D01*
X-2597Y1063D01*
X-2534Y1021D01*
X-2460Y1006D01*
X-2386Y1021D01*
X-2323Y1063D01*
X-2281Y1126D01*
X-2266Y1200D01*
X-2281Y1274D01*
X-2323Y1337D01*
X-2348Y1354D01*
Y1645D01*
X-2356Y1688D01*
X-2381Y1724D01*
X-2381Y1724D01*
X-2429Y1772D01*
Y1833D01*
X-2431Y1841D01*
X-2411Y1891D01*
X-2361Y1911D01*
X-2353Y1909D01*
X-2282D01*
X-2278Y1907D01*
X-2235Y1898D01*
X-1204D01*
X-1189Y1848D01*
X-1194Y1845D01*
X-1194Y1845D01*
X-2805Y233D01*
X-3013D01*
Y-221D01*
X-2735D01*
Y-14D01*
X-1068Y1653D01*
X191D01*
X191Y1653D01*
X234Y1662D01*
X271Y1686D01*
X943Y2359D01*
X968Y2395D01*
X976Y2438D01*
X976Y2438D01*
Y3885D01*
X984Y3932D01*
X1262D01*
Y4050D01*
X1263Y4052D01*
X1274Y4110D01*
Y4349D01*
X1515D01*
Y4803D01*
X1487D01*
X1480Y4839D01*
X1455Y4875D01*
X1455Y4875D01*
X1398Y4933D01*
X1361Y4957D01*
X1319Y4965D01*
X1319Y4965D01*
X740D01*
X697Y4957D01*
X660Y4933D01*
X660Y4933D01*
X493Y4765D01*
X450Y4774D01*
X376Y4759D01*
X313Y4717D01*
X304Y4704D01*
X244D01*
X216Y4746D01*
X140Y4797D01*
X90Y4807D01*
Y4580D01*
Y4353D01*
X140Y4363D01*
X216Y4414D01*
X244Y4456D01*
X304D01*
X313Y4443D01*
X376Y4401D01*
X450Y4386D01*
X524Y4401D01*
X587Y4443D01*
X629Y4506D01*
X644Y4580D01*
X641Y4596D01*
X679Y4634D01*
X725Y4615D01*
Y4349D01*
X752D01*
Y2485D01*
X320Y2053D01*
X272Y2067D01*
X269Y2085D01*
X227Y2147D01*
X164Y2189D01*
X90Y2204D01*
X16Y2189D01*
X-47Y2147D01*
X-64Y2123D01*
X-197D01*
X-223Y2173D01*
X-201Y2206D01*
X-186Y2280D01*
X-201Y2354D01*
X-243Y2417D01*
X-306Y2459D01*
X-380Y2474D01*
X-454Y2459D01*
X-517Y2417D01*
X-559Y2354D01*
X-566Y2319D01*
X-1284D01*
Y2450D01*
X-1238Y2469D01*
X-1209Y2441D01*
X-1173Y2416D01*
X-1130Y2408D01*
X-1130Y2408D01*
X-691D01*
X-648Y2416D01*
X-612Y2441D01*
X-601Y2457D01*
X-584Y2468D01*
X-455Y2598D01*
X-196D01*
Y2732D01*
X-76D01*
Y2672D01*
X188D01*
X202Y2672D01*
X238Y2640D01*
Y2632D01*
X377D01*
Y2850D01*
Y3068D01*
X238D01*
Y3060D01*
X238Y3060D01*
X202Y3028D01*
X188Y3028D01*
X-76D01*
Y2957D01*
X-196D01*
Y3092D01*
X-954D01*
X-976Y3140D01*
X-953Y3168D01*
X-196D01*
Y3618D01*
X-76D01*
Y3552D01*
X188D01*
X202Y3552D01*
X238Y3520D01*
Y3512D01*
X377D01*
Y3730D01*
Y3948D01*
X238D01*
Y3940D01*
X238Y3940D01*
X202Y3908D01*
X188Y3908D01*
X-76D01*
Y3842D01*
X-730D01*
X-730Y3842D01*
X-773Y3834D01*
X-809Y3809D01*
X-809Y3809D01*
X-811Y3808D01*
X-857Y3832D01*
X-853Y3850D01*
X-1080D01*
Y3930D01*
X-853D01*
X-863Y3980D01*
X-873Y3995D01*
X-850Y4039D01*
X-804D01*
Y4336D01*
Y4633D01*
X-980D01*
Y4336D01*
X-1060D01*
Y4633D01*
X-1177D01*
X-1197Y4662D01*
X-1233Y4686D01*
X-1276Y4695D01*
X-1319Y4686D01*
X-1355Y4662D01*
X-1355Y4662D01*
X-1529Y4488D01*
X-1548Y4485D01*
X-1557Y4486D01*
X-1598Y4514D01*
Y4564D01*
X-1374Y4787D01*
X-1189D01*
Y4747D01*
X-1060D01*
Y5044D01*
Y5341D01*
X-1189D01*
Y5301D01*
X-1405D01*
X-1405Y5301D01*
X-1444Y5326D01*
X-1490Y5357D01*
X-1540Y5367D01*
Y5140D01*
X-1620D01*
Y5367D01*
X-1644Y5362D01*
X-1694Y5396D01*
Y5568D01*
X-1833D01*
Y5350D01*
X-1913D01*
Y5568D01*
X-2052D01*
Y5560D01*
X-2088Y5528D01*
X-2310D01*
X-2321Y5584D01*
X-2344Y5618D01*
X-2317Y5668D01*
X-368D01*
X-353Y5618D01*
X-356Y5616D01*
X-407Y5540D01*
X-417Y5490D01*
X37D01*
X27Y5540D01*
X-24Y5616D01*
X-27Y5618D01*
X-12Y5668D01*
X2055D01*
X2078Y5624D01*
X2073Y5616D01*
X2064Y5570D01*
X2496D01*
X2487Y5616D01*
X2482Y5624D01*
X2505Y5668D01*
X2591D01*
X2632Y5646D01*
X2632Y5618D01*
Y5507D01*
X3068D01*
Y5618D01*
X3068Y5646D01*
X3109Y5668D01*
D01*
X3428D01*
X3502Y5594D01*
D02*
G37*
G36*
X-1329Y-5702D02*
X-1348Y-5705D01*
X-1439Y-5742D01*
X-1517Y-5803D01*
X-1578Y-5881D01*
X-1615Y-5972D01*
X-1628Y-6070D01*
X-1615Y-6168D01*
X-1578Y-6259D01*
X-1517Y-6337D01*
X-1513Y-6341D01*
X-1529Y-6388D01*
X-1736D01*
X-1759Y-6344D01*
X-1743Y-6320D01*
X-1733Y-6270D01*
X-1960D01*
Y-6190D01*
X-1733D01*
X-1743Y-6140D01*
X-1782Y-6083D01*
X-1782Y-6033D01*
X-1782Y-6033D01*
X-1782Y-6033D01*
Y-5756D01*
X-1936D01*
X-1961Y-5725D01*
X-1941Y-5679D01*
X-1782D01*
Y-5652D01*
X-1332D01*
X-1329Y-5702D01*
D02*
G37*
%LPC*%
G36*
X4876Y-4164D02*
X4826Y-4174D01*
X4750Y-4225D01*
X4725Y-4263D01*
X4675D01*
X4649Y-4225D01*
X4573Y-4174D01*
X4523Y-4164D01*
Y-4390D01*
X4443D01*
Y-4164D01*
X4393Y-4174D01*
X4317Y-4225D01*
X4292Y-4263D01*
X4242D01*
X4216Y-4225D01*
X4140Y-4174D01*
X4090Y-4164D01*
Y-4390D01*
X4010D01*
Y-4164D01*
X3960Y-4174D01*
X3884Y-4225D01*
X3858Y-4263D01*
X3808D01*
X3783Y-4225D01*
X3707Y-4174D01*
X3657Y-4164D01*
Y-4390D01*
X3577D01*
Y-4164D01*
X3527Y-4174D01*
X3451Y-4225D01*
X3425Y-4263D01*
X3375D01*
X3350Y-4225D01*
X3274Y-4174D01*
X3224Y-4164D01*
Y-4390D01*
X3184D01*
Y-4430D01*
X2957D01*
X2967Y-4480D01*
X3018Y-4556D01*
X3057Y-4582D01*
Y-4632D01*
X3018Y-4658D01*
X2967Y-4734D01*
X2957Y-4783D01*
X3184D01*
Y-4863D01*
X2957D01*
X2967Y-4913D01*
X3018Y-4989D01*
X3057Y-5015D01*
Y-5065D01*
X3018Y-5091D01*
X2967Y-5167D01*
X2957Y-5217D01*
X3184D01*
Y-5297D01*
X2957D01*
X2967Y-5346D01*
X3018Y-5422D01*
X3057Y-5448D01*
Y-5498D01*
X3018Y-5524D01*
X2967Y-5600D01*
X2957Y-5650D01*
X3184D01*
Y-5690D01*
X3224D01*
Y-5916D01*
X3274Y-5906D01*
X3350Y-5855D01*
X3375Y-5817D01*
X3425D01*
X3451Y-5855D01*
X3527Y-5906D01*
X3577Y-5916D01*
Y-5690D01*
X3657D01*
Y-5916D01*
X3707Y-5906D01*
X3783Y-5855D01*
X3808Y-5817D01*
X3858D01*
X3884Y-5855D01*
X3960Y-5906D01*
X4010Y-5916D01*
Y-5690D01*
X4090D01*
Y-5916D01*
X4140Y-5906D01*
X4216Y-5855D01*
X4242Y-5817D01*
X4292D01*
X4317Y-5855D01*
X4393Y-5906D01*
X4443Y-5916D01*
Y-5690D01*
X4523D01*
Y-5916D01*
X4573Y-5906D01*
X4649Y-5855D01*
X4675Y-5817D01*
X4725D01*
X4750Y-5855D01*
X4826Y-5906D01*
X4876Y-5916D01*
Y-5690D01*
X4916D01*
Y-5650D01*
X5143D01*
X5133Y-5600D01*
X5082Y-5524D01*
X5043Y-5498D01*
Y-5448D01*
X5082Y-5422D01*
X5133Y-5346D01*
X5143Y-5297D01*
X4916D01*
Y-5217D01*
X5143D01*
X5133Y-5167D01*
X5082Y-5091D01*
X5043Y-5065D01*
Y-5015D01*
X5082Y-4989D01*
X5133Y-4913D01*
X5143Y-4863D01*
X4916D01*
Y-4783D01*
X5143D01*
X5133Y-4734D01*
X5082Y-4658D01*
X5043Y-4632D01*
Y-4582D01*
X5082Y-4556D01*
X5133Y-4480D01*
X5143Y-4430D01*
X4916D01*
Y-4390D01*
X4876D01*
Y-4164D01*
D02*
G37*
G36*
X548Y-3755D02*
X355D01*
Y-3867D01*
X404D01*
X462Y-3856D01*
X511Y-3823D01*
X544Y-3774D01*
X548Y-3755D01*
D02*
G37*
G36*
X-3398Y-3362D02*
X-3676D01*
Y-3718D01*
X-3649D01*
Y-3872D01*
X-3676D01*
Y-4228D01*
X-3398D01*
Y-3872D01*
X-3425D01*
Y-3718D01*
X-3398D01*
Y-3362D01*
D02*
G37*
G36*
X6000Y-4096D02*
X5926Y-4111D01*
X5863Y-4153D01*
X5821Y-4216D01*
X5806Y-4290D01*
X5821Y-4364D01*
X5863Y-4427D01*
X5926Y-4469D01*
X6000Y-4484D01*
X6074Y-4469D01*
X6137Y-4427D01*
X6179Y-4364D01*
X6194Y-4290D01*
X6179Y-4216D01*
X6137Y-4153D01*
X6074Y-4111D01*
X6000Y-4096D01*
D02*
G37*
G36*
X-5492Y-4807D02*
X-5670D01*
Y-4946D01*
X-5492D01*
Y-4807D01*
D02*
G37*
G36*
X4956Y-4164D02*
Y-4350D01*
X5143D01*
X5133Y-4301D01*
X5082Y-4225D01*
X5006Y-4174D01*
X4956Y-4164D01*
D02*
G37*
G36*
X3144D02*
X3094Y-4174D01*
X3018Y-4225D01*
X2967Y-4301D01*
X2957Y-4350D01*
X3144D01*
Y-4164D01*
D02*
G37*
G36*
X-3214Y-1057D02*
X-3353D01*
Y-1324D01*
Y-1591D01*
X-3249D01*
Y-1682D01*
X-3276D01*
Y-2038D01*
X-3219D01*
Y-2172D01*
X-3246D01*
Y-2330D01*
X-3374Y-2458D01*
X-3434D01*
Y-2392D01*
X-3712D01*
Y-2748D01*
X-3434D01*
Y-2682D01*
X-3327D01*
X-3327Y-2682D01*
X-3284Y-2674D01*
X-3248Y-2649D01*
X-3127Y-2528D01*
X-2982D01*
X-2968Y-2528D01*
X-2932Y-2560D01*
Y-2568D01*
X-2793D01*
Y-2350D01*
Y-2132D01*
X-2932D01*
Y-2132D01*
X-2982Y-2135D01*
X-2994Y-2129D01*
X-2995Y-2127D01*
Y-1890D01*
X-2998Y-1873D01*
Y-1682D01*
X-3025D01*
Y-1551D01*
X-2998D01*
Y-1097D01*
X-3214D01*
Y-1057D01*
D02*
G37*
G36*
X-2574Y-2390D02*
X-2713D01*
Y-2568D01*
X-2574D01*
Y-2390D01*
D02*
G37*
G36*
X590Y-2080D02*
X388D01*
X399Y-2136D01*
X453Y-2217D01*
X534Y-2271D01*
X590Y-2282D01*
Y-2080D01*
D02*
G37*
G36*
X-2574Y-2132D02*
X-2713D01*
Y-2310D01*
X-2574D01*
Y-2132D01*
D02*
G37*
G36*
X5704Y-1616D02*
X4994D01*
Y-3074D01*
X5704D01*
Y-1616D01*
D02*
G37*
G36*
X2786Y-3270D02*
X2610D01*
Y-3446D01*
X2656Y-3437D01*
X2729Y-3389D01*
X2777Y-3316D01*
X2786Y-3270D01*
D02*
G37*
G36*
X1634Y693D02*
X1499Y680D01*
X1369Y640D01*
X1249Y576D01*
X1144Y490D01*
X1057Y385D01*
X993Y265D01*
X954Y135D01*
X941Y0D01*
X954Y-135D01*
X993Y-265D01*
X1057Y-385D01*
X1144Y-490D01*
X1249Y-576D01*
X1369Y-640D01*
X1499Y-680D01*
X1522Y-682D01*
Y-2290D01*
X1018Y-2793D01*
X972Y-2769D01*
X974Y-2760D01*
X959Y-2686D01*
X917Y-2623D01*
X854Y-2581D01*
X780Y-2566D01*
X706Y-2581D01*
X643Y-2623D01*
X601Y-2686D01*
X586Y-2760D01*
X592Y-2789D01*
X369Y-3013D01*
X315D01*
X311Y-3013D01*
X226D01*
X226Y-3013D01*
X219Y-3009D01*
X187Y-2970D01*
X192Y-2946D01*
X192Y-2946D01*
Y-2364D01*
X217Y-2347D01*
X259Y-2284D01*
X274Y-2210D01*
X259Y-2136D01*
X217Y-2073D01*
X154Y-2031D01*
X80Y-2016D01*
X6Y-2031D01*
X-57Y-2073D01*
X-99Y-2136D01*
X-114Y-2210D01*
X-99Y-2284D01*
X-57Y-2347D01*
X-32Y-2364D01*
Y-2833D01*
X-43Y-2835D01*
X-79Y-2859D01*
X-103Y-2895D01*
X-111Y-2938D01*
Y-3015D01*
X-121Y-3023D01*
X-135Y-3031D01*
X-158Y-3036D01*
X-161Y-3037D01*
X-184Y-3022D01*
X-226Y-3013D01*
X-311D01*
X-315Y-3013D01*
X-359D01*
X-582Y-2789D01*
X-576Y-2760D01*
X-591Y-2686D01*
X-633Y-2623D01*
X-696Y-2581D01*
X-770Y-2566D01*
X-844Y-2581D01*
X-907Y-2623D01*
X-949Y-2686D01*
X-964Y-2760D01*
X-960Y-2781D01*
X-1006Y-2806D01*
X-1522Y-2290D01*
Y-682D01*
X-1499Y-680D01*
X-1369Y-640D01*
X-1249Y-576D01*
X-1144Y-490D01*
X-1057Y-385D01*
X-993Y-265D01*
X-954Y-135D01*
X-941Y0D01*
X-954Y135D01*
X-993Y265D01*
X-1057Y385D01*
X-1144Y490D01*
X-1249Y576D01*
X-1369Y640D01*
X-1499Y680D01*
X-1634Y693D01*
X-1769Y680D01*
X-1899Y640D01*
X-2019Y576D01*
X-2124Y490D01*
X-2210Y385D01*
X-2274Y265D01*
X-2314Y135D01*
X-2327Y0D01*
X-2314Y-135D01*
X-2274Y-265D01*
X-2210Y-385D01*
X-2124Y-490D01*
X-2019Y-576D01*
X-1899Y-640D01*
X-1769Y-680D01*
X-1746Y-682D01*
Y-2336D01*
X-1746Y-2336D01*
X-1737Y-2379D01*
X-1713Y-2415D01*
X-1029Y-3099D01*
X-1046Y-3153D01*
X-1084Y-3161D01*
X-1147Y-3203D01*
X-1189Y-3266D01*
X-1204Y-3340D01*
X-1189Y-3414D01*
X-1147Y-3477D01*
X-1132Y-3487D01*
X-1147Y-3537D01*
X-1346D01*
Y-3603D01*
X-1482D01*
Y-3577D01*
X-1838D01*
Y-3854D01*
X-1482D01*
Y-3827D01*
X-1346D01*
Y-3893D01*
X-1068D01*
Y-3606D01*
X-1020Y-3568D01*
X-994Y-3575D01*
X-992Y-3581D01*
Y-3893D01*
X-714D01*
Y-3827D01*
X-315D01*
X-311Y-3827D01*
X-226D01*
X-202Y-3822D01*
X-152Y-3853D01*
Y-3902D01*
X-141Y-3961D01*
X-108Y-4010D01*
X-58Y-4043D01*
X-40Y-4046D01*
Y-3814D01*
X40D01*
Y-4046D01*
X58Y-4043D01*
X108Y-4010D01*
X141Y-3961D01*
X152Y-3902D01*
Y-3901D01*
X202Y-3863D01*
X226Y-3867D01*
X275D01*
Y-3715D01*
X315D01*
Y-3675D01*
X548D01*
X544Y-3657D01*
X511Y-3608D01*
X503Y-3566D01*
X506Y-3561D01*
X515Y-3518D01*
X508Y-3484D01*
X520Y-3457D01*
X538Y-3434D01*
X615D01*
X656Y-3480D01*
X671Y-3554D01*
X713Y-3617D01*
X776Y-3659D01*
X850Y-3674D01*
X924Y-3659D01*
X987Y-3617D01*
X1029Y-3554D01*
X1044Y-3480D01*
X1038Y-3451D01*
X1138Y-3351D01*
X1184Y-3370D01*
Y-3521D01*
X956Y-3749D01*
X931Y-3786D01*
X923Y-3829D01*
X923Y-3829D01*
Y-4031D01*
X923Y-4031D01*
X931Y-4074D01*
X956Y-4111D01*
X1099Y-4254D01*
X1099Y-4254D01*
X1136Y-4279D01*
X1179Y-4287D01*
X1179Y-4287D01*
X1791D01*
X1791Y-4287D01*
X1834Y-4279D01*
X1871Y-4254D01*
X2024Y-4101D01*
X2024Y-4101D01*
X2049Y-4064D01*
X2057Y-4021D01*
Y-3636D01*
X2107Y-3616D01*
X2156Y-3649D01*
X2230Y-3664D01*
X2304Y-3649D01*
X2367Y-3607D01*
X2409Y-3544D01*
X2424Y-3470D01*
X2421Y-3455D01*
X2466Y-3425D01*
X2484Y-3437D01*
X2530Y-3446D01*
Y-3270D01*
X2342D01*
X2307Y-3293D01*
X2304Y-3291D01*
X2230Y-3276D01*
X2156Y-3291D01*
X2107Y-3324D01*
X2062Y-3305D01*
X2057Y-3301D01*
Y-2677D01*
X2087Y-2657D01*
X2129Y-2594D01*
X2144Y-2520D01*
X2129Y-2446D01*
X2087Y-2383D01*
X2024Y-2341D01*
X2030Y-2291D01*
X2031Y-2287D01*
X2093Y-2275D01*
X2146Y-2240D01*
X2181Y-2187D01*
X2194Y-2124D01*
X2193Y-2121D01*
X2205Y-2064D01*
X2187Y-1974D01*
X2136Y-1898D01*
X2166Y-1861D01*
X2310Y-1717D01*
X2356Y-1737D01*
Y-3074D01*
X2356D01*
X2380Y-3118D01*
X2363Y-3144D01*
X2354Y-3190D01*
X2786D01*
X2777Y-3144D01*
X2760Y-3118D01*
X2784Y-3074D01*
X3066D01*
Y-1616D01*
X2477D01*
X2457Y-1570D01*
X3333Y-694D01*
X3379Y-713D01*
Y-909D01*
X3893D01*
Y589D01*
X3379D01*
Y-186D01*
X1855Y-1711D01*
X1819Y-1764D01*
X1807Y-1826D01*
Y-1861D01*
X1796Y-1869D01*
X1746Y-1845D01*
Y-682D01*
X1769Y-680D01*
X1899Y-640D01*
X2019Y-576D01*
X2124Y-490D01*
X2210Y-385D01*
X2274Y-265D01*
X2314Y-135D01*
X2327Y0D01*
X2314Y135D01*
X2274Y265D01*
X2210Y385D01*
X2124Y490D01*
X2019Y576D01*
X1899Y640D01*
X1769Y680D01*
X1634Y693D01*
D02*
G37*
G36*
X6010Y-2476D02*
X5936Y-2491D01*
X5873Y-2533D01*
X5831Y-2596D01*
X5816Y-2670D01*
X5831Y-2744D01*
X5873Y-2807D01*
X5936Y-2849D01*
X6010Y-2864D01*
X6084Y-2849D01*
X6147Y-2807D01*
X6189Y-2744D01*
X6204Y-2670D01*
X6189Y-2596D01*
X6147Y-2533D01*
X6084Y-2491D01*
X6010Y-2476D01*
D02*
G37*
G36*
X-3455Y-5906D02*
X-3529Y-5921D01*
X-3592Y-5963D01*
X-3634Y-6026D01*
X-3649Y-6100D01*
X-3634Y-6174D01*
X-3592Y-6237D01*
X-3529Y-6279D01*
X-3455Y-6294D01*
X-3381Y-6279D01*
X-3318Y-6237D01*
X-3276Y-6174D01*
X-3262Y-6100D01*
X-3276Y-6026D01*
X-3318Y-5963D01*
X-3381Y-5921D01*
X-3455Y-5906D01*
D02*
G37*
G36*
X691Y-5057D02*
X552D01*
Y-5383D01*
X691D01*
Y-5057D01*
D02*
G37*
G36*
X-2787Y-5230D02*
X-2926D01*
Y-5408D01*
X-2787D01*
Y-5230D01*
D02*
G37*
G36*
X3144Y-5730D02*
X2957D01*
X2967Y-5779D01*
X3018Y-5855D01*
X3094Y-5906D01*
X3144Y-5916D01*
Y-5730D01*
D02*
G37*
G36*
X-4680Y-5080D02*
X-4887D01*
X-4875Y-5138D01*
X-4820Y-5220D01*
X-4738Y-5275D01*
X-4680Y-5287D01*
Y-5080D01*
D02*
G37*
G36*
X-2787Y-5532D02*
X-2926D01*
Y-5710D01*
X-2787D01*
Y-5532D01*
D02*
G37*
G36*
X5143Y-5730D02*
X4956D01*
Y-5916D01*
X5006Y-5906D01*
X5082Y-5855D01*
X5133Y-5779D01*
X5143Y-5730D01*
D02*
G37*
G36*
X1635Y-4750D02*
X885D01*
Y-5421D01*
X1635D01*
Y-4750D01*
D02*
G37*
G36*
X2050Y-5096D02*
X1976Y-5111D01*
X1913Y-5153D01*
X1871Y-5216D01*
X1856Y-5290D01*
X1871Y-5364D01*
X1913Y-5427D01*
X1976Y-5469D01*
X2050Y-5484D01*
X2124Y-5469D01*
X2187Y-5427D01*
X2229Y-5364D01*
X2244Y-5290D01*
X2229Y-5216D01*
X2187Y-5153D01*
X2124Y-5111D01*
X2050Y-5096D01*
D02*
G37*
G36*
X-4393Y-5080D02*
X-4600D01*
Y-5287D01*
X-4542Y-5275D01*
X-4460Y-5220D01*
X-4405Y-5138D01*
X-4393Y-5080D01*
D02*
G37*
G36*
X6000Y-4596D02*
X5926Y-4611D01*
X5863Y-4653D01*
X5821Y-4716D01*
X5806Y-4790D01*
X5821Y-4864D01*
X5863Y-4927D01*
X5926Y-4969D01*
X6000Y-4984D01*
X6074Y-4969D01*
X6137Y-4927D01*
X6179Y-4864D01*
X6194Y-4790D01*
X6179Y-4716D01*
X6137Y-4653D01*
X6074Y-4611D01*
X6000Y-4596D01*
D02*
G37*
G36*
X2060Y-5596D02*
X1986Y-5611D01*
X1923Y-5653D01*
X1881Y-5716D01*
X1866Y-5790D01*
X1881Y-5864D01*
X1923Y-5927D01*
X1986Y-5969D01*
X2060Y-5984D01*
X2134Y-5969D01*
X2197Y-5927D01*
X2239Y-5864D01*
X2254Y-5790D01*
X2239Y-5716D01*
X2197Y-5653D01*
X2134Y-5611D01*
X2060Y-5596D01*
D02*
G37*
G36*
X-5750Y-4807D02*
X-5928D01*
Y-4946D01*
X-5750D01*
Y-4807D01*
D02*
G37*
G36*
X691Y-4651D02*
X552D01*
Y-4977D01*
X691D01*
Y-4651D01*
D02*
G37*
G36*
X-4680Y-4793D02*
X-4738Y-4805D01*
X-4820Y-4860D01*
X-4875Y-4942D01*
X-4887Y-5000D01*
X-4680D01*
Y-4793D01*
D02*
G37*
G36*
X-2787Y-4972D02*
X-2926D01*
Y-5150D01*
X-2787D01*
Y-4972D01*
D02*
G37*
G36*
Y-5790D02*
X-2926D01*
Y-5968D01*
X-2787D01*
Y-5790D01*
D02*
G37*
G36*
X-4600Y-4793D02*
Y-5000D01*
X-4393D01*
X-4405Y-4942D01*
X-4460Y-4860D01*
X-4542Y-4805D01*
X-4600Y-4793D01*
D02*
G37*
G36*
X2353Y3773D02*
X1891D01*
Y3311D01*
X2353D01*
Y3773D01*
D02*
G37*
G36*
X596Y3068D02*
X457D01*
Y2890D01*
X596D01*
Y3068D01*
D02*
G37*
G36*
Y3948D02*
X457D01*
Y3770D01*
X596D01*
Y3948D01*
D02*
G37*
G36*
Y3690D02*
X457D01*
Y3512D01*
X596D01*
Y3690D01*
D02*
G37*
G36*
X1589Y3009D02*
X1127D01*
Y2547D01*
X1589D01*
Y3009D01*
D02*
G37*
G36*
X-6200Y1557D02*
Y1370D01*
X-6013D01*
X-6023Y1420D01*
X-6074Y1496D01*
X-6150Y1547D01*
X-6200Y1557D01*
D02*
G37*
G36*
X596Y2810D02*
X457D01*
Y2632D01*
X596D01*
Y2810D01*
D02*
G37*
G36*
X2353Y3009D02*
X1891D01*
Y2547D01*
X2353D01*
Y3009D01*
D02*
G37*
G36*
X-113Y4110D02*
X-300D01*
Y3923D01*
X-250Y3933D01*
X-174Y3984D01*
X-123Y4060D01*
X-113Y4110D01*
D02*
G37*
G36*
X5350Y6040D02*
X5163D01*
X5173Y5990D01*
X5224Y5914D01*
X5300Y5863D01*
X5350Y5853D01*
Y6040D01*
D02*
G37*
G36*
X5978Y5926D02*
X5800D01*
Y5787D01*
X5978D01*
Y5926D01*
D02*
G37*
G36*
X5430Y6307D02*
Y6120D01*
X5617D01*
X5607Y6170D01*
X5556Y6246D01*
X5480Y6297D01*
X5430Y6307D01*
D02*
G37*
G36*
X5350D02*
X5300Y6297D01*
X5224Y6246D01*
X5173Y6170D01*
X5163Y6120D01*
X5350D01*
Y6307D01*
D02*
G37*
G36*
X10Y4807D02*
X-40Y4797D01*
X-116Y4746D01*
X-125Y4732D01*
X-175D01*
X-184Y4746D01*
X-260Y4797D01*
X-310Y4807D01*
Y4580D01*
X-390D01*
Y4807D01*
X-440Y4797D01*
X-516Y4746D01*
X-566Y4670D01*
X-595Y4633D01*
X-724D01*
Y4336D01*
Y4039D01*
X-595D01*
X-595Y4039D01*
X-545Y4043D01*
X-506Y3984D01*
X-430Y3933D01*
X-380Y3923D01*
Y4150D01*
X-340D01*
Y4190D01*
X-113D01*
X-123Y4240D01*
X-174Y4316D01*
X-208Y4338D01*
Y4398D01*
X-184Y4414D01*
X-175Y4428D01*
X-125D01*
X-116Y4414D01*
X-40Y4363D01*
X10Y4353D01*
Y4580D01*
Y4807D01*
D02*
G37*
G36*
X1780Y4692D02*
X1724Y4681D01*
X1643Y4627D01*
X1589Y4546D01*
X1578Y4490D01*
X1780D01*
Y4692D01*
D02*
G37*
G36*
X5617Y6040D02*
X5430D01*
Y5853D01*
X5480Y5863D01*
X5498Y5875D01*
X5542Y5852D01*
Y5787D01*
X5720D01*
Y5926D01*
X5617D01*
X5593Y5970D01*
X5607Y5990D01*
X5617Y6040D01*
D02*
G37*
G36*
X1080Y5591D02*
X941D01*
Y5551D01*
X725D01*
Y5403D01*
X639Y5332D01*
X503Y5260D01*
X356Y5215D01*
X243Y5204D01*
X216Y5228D01*
Y5228D01*
X-18D01*
X-33Y5278D01*
X-24Y5284D01*
X27Y5360D01*
X37Y5410D01*
X-417D01*
X-407Y5360D01*
X-356Y5284D01*
X-347Y5278D01*
X-362Y5228D01*
X-416D01*
Y5196D01*
X-635D01*
Y5301D01*
X-851D01*
Y5341D01*
X-980D01*
Y5044D01*
Y4747D01*
X-851D01*
Y4787D01*
X-635D01*
Y4893D01*
X-416D01*
Y4872D01*
X-138D01*
Y4990D01*
X-137Y4992D01*
X-126Y5050D01*
X-137Y5108D01*
X-138Y5110D01*
Y5192D01*
X-108Y5209D01*
X-62Y5179D01*
Y5110D01*
X-63Y5108D01*
X-74Y5050D01*
X-63Y4992D01*
X-62Y4990D01*
Y4872D01*
X216D01*
Y4899D01*
X373Y4912D01*
X539Y4951D01*
X696Y5017D01*
X827Y5097D01*
X941D01*
Y5057D01*
X1080D01*
Y5324D01*
Y5591D01*
D02*
G37*
G36*
X3813Y1418D02*
X3674D01*
Y1240D01*
X3813D01*
Y1418D01*
D02*
G37*
G36*
X4384Y-200D02*
X4127D01*
Y-949D01*
X4384D01*
Y-200D01*
D02*
G37*
G36*
X-4424Y-800D02*
X-4563D01*
Y-978D01*
X-4424D01*
Y-800D01*
D02*
G37*
G36*
Y-542D02*
X-4563D01*
Y-720D01*
X-4424D01*
Y-542D01*
D02*
G37*
G36*
X4721Y-200D02*
X4464D01*
Y-949D01*
X4721D01*
Y-200D01*
D02*
G37*
G36*
X590Y-1798D02*
X534Y-1809D01*
X453Y-1863D01*
X399Y-1944D01*
X388Y-2000D01*
X590D01*
Y-1798D01*
D02*
G37*
G36*
X872Y-2080D02*
X670D01*
Y-2282D01*
X726Y-2271D01*
X807Y-2217D01*
X861Y-2136D01*
X872Y-2080D01*
D02*
G37*
G36*
X4730Y-1135D02*
X4640Y-1153D01*
X4564Y-1204D01*
X4513Y-1280D01*
X4495Y-1370D01*
X4513Y-1460D01*
X4564Y-1536D01*
X4640Y-1587D01*
X4730Y-1605D01*
X4820Y-1587D01*
X4896Y-1536D01*
X4947Y-1460D01*
X4965Y-1370D01*
X4947Y-1280D01*
X4896Y-1204D01*
X4820Y-1153D01*
X4730Y-1135D01*
D02*
G37*
G36*
X670Y-1798D02*
Y-2000D01*
X872D01*
X861Y-1944D01*
X807Y-1863D01*
X726Y-1809D01*
X670Y-1798D01*
D02*
G37*
G36*
X4384Y629D02*
X4127D01*
Y-120D01*
X4384D01*
Y629D01*
D02*
G37*
G36*
X3813Y1160D02*
X3674D01*
Y982D01*
X3813D01*
Y1160D01*
D02*
G37*
G36*
X5563Y1080D02*
X5424D01*
Y902D01*
X5563D01*
Y1080D01*
D02*
G37*
G36*
X-6013Y1290D02*
X-6200D01*
Y1103D01*
X-6150Y1113D01*
X-6074Y1164D01*
X-6023Y1240D01*
X-6013Y1290D01*
D02*
G37*
G36*
X4813Y1180D02*
X4674D01*
Y1002D01*
X4813D01*
Y1180D01*
D02*
G37*
G36*
X-4410Y320D02*
X-4597D01*
X-4587Y270D01*
X-4536Y194D01*
X-4460Y143D01*
X-4410Y133D01*
Y320D01*
D02*
G37*
G36*
X4721Y629D02*
X4464D01*
Y-120D01*
X4721D01*
Y629D01*
D02*
G37*
G36*
X-5044Y568D02*
X-5183D01*
Y390D01*
X-5044D01*
Y568D01*
D02*
G37*
G36*
X-4143Y320D02*
X-4330D01*
Y133D01*
X-4280Y143D01*
X-4204Y194D01*
X-4153Y270D01*
X-4143Y320D01*
D02*
G37*
%LPD*%
D10*
X2357Y5170D02*
G03*
X2183Y4749I421J-421D01*
G01*
X1376Y5324D02*
G03*
X1748Y5170I372J372D01*
G01*
X1358Y3542D02*
G03*
X1477Y3829I-287J287D01*
G01*
X203Y5050D02*
G03*
X864Y5324I0J936D01*
G01*
X-291Y5044D02*
G03*
X-277Y5050I0J19D01*
G01*
X2183Y4579D02*
Y4749D01*
X1748Y5170D02*
X2003D01*
X1123Y4110D02*
Y4573D01*
X1477Y3829D02*
Y4110D01*
X77Y5050D02*
X203D01*
X-764Y5044D02*
X-291D01*
D11*
X2233Y4133D02*
G03*
X2832Y3885I600J600D01*
G01*
X2676Y4183D02*
G03*
X2921Y4082I245J245D01*
G01*
X-340Y4556D02*
G03*
X-350Y4580I-34J0D01*
G01*
X-6197Y5760D02*
X-5977Y5980D01*
X-6197Y5580D02*
Y5760D01*
Y5283D02*
Y5580D01*
X-5813Y5610D02*
X-5470D01*
X-5843Y5580D02*
X-5813Y5610D01*
X2850Y5113D02*
X3041Y4922D01*
Y4389D02*
Y4922D01*
Y4389D02*
X3152Y4278D01*
X3299D01*
X2183Y4380D02*
X2517D01*
X2183Y4183D02*
X2233Y4133D01*
X2832Y3885D02*
X3299D01*
X2517Y4183D02*
X2676D01*
X2921Y4082D02*
X3299D01*
X-4302Y5808D02*
X-4030Y6080D01*
X-1020Y4336D02*
X-764D01*
X-2460Y1200D02*
Y1645D01*
X-2530Y1715D02*
X-2460Y1645D01*
X-1631Y3020D02*
X-1211Y2600D01*
X-1829Y3020D02*
X-1631D01*
X-1855Y2995D02*
X-1829Y3020D01*
X-2235Y2995D02*
X-1855D01*
X-2235Y3192D02*
X-1100D01*
X-2235Y3388D02*
X-1832D01*
X-1591Y3630D01*
X-2235Y3585D02*
X-1862D01*
X-1510Y3937D01*
X80Y-2946D02*
Y-2210D01*
X0Y-3026D02*
X80Y-2946D01*
X-3123Y-590D02*
X-2830D01*
X-3137Y-576D02*
X-3123Y-590D01*
X-3537Y-4050D02*
Y-3540D01*
X-3107Y-2350D02*
Y-1890D01*
X-3327Y-2570D02*
X-3107Y-2350D01*
X-3573Y-2570D02*
X-3327D01*
X-350Y-5510D02*
X-256Y-5416D01*
X-6330Y-1446D02*
Y220D01*
X-5514Y-1002D02*
Y-600D01*
X-5687Y-2027D02*
X-5237D01*
X-5700Y-2040D02*
X-5687Y-2027D01*
X-5770Y-1970D02*
X-5700Y-2040D01*
X-4880Y970D02*
X-4706Y1144D01*
X-4696D01*
X-4910Y1340D02*
X-4893Y1357D01*
Y1715D01*
X-4670Y1170D02*
Y1689D01*
X-4696Y1715D02*
X-4670Y1689D01*
X-4696Y1144D02*
X-4670Y1170D01*
X-5320Y1269D02*
X-5090Y1500D01*
X-5320Y1250D02*
Y1269D01*
X-5090Y1500D02*
Y1715D01*
X-4500Y950D02*
Y1714D01*
X-5577Y840D02*
Y1818D01*
X-5766Y784D02*
Y2001D01*
X-5577Y1818D02*
X-5385Y2010D01*
X-1276Y2440D02*
X-1204Y2367D01*
X-1463Y2440D02*
X-1276D01*
X450Y4580D02*
X466D01*
X740Y4853D01*
X1319D01*
X1376Y4796D01*
X-1510Y3937D02*
Y4380D01*
X-1478D02*
X-1276Y4583D01*
X-1510Y4380D02*
X-1478D01*
X-1276Y4336D02*
Y4583D01*
X-2235Y3782D02*
X-1948D01*
X-1710Y4020D01*
Y4610D01*
X-1276Y5044D01*
X5201Y5393D02*
X5760D01*
X5700Y4770D02*
Y5333D01*
X-5470Y5610D02*
Y5827D01*
X-5623Y5980D02*
X-5470Y5827D01*
X-5090Y5640D02*
X-4696Y5246D01*
Y4865D02*
Y5246D01*
X-5470Y5610D02*
X-5410D01*
X-4893Y5092D01*
X-5830Y2550D02*
X-5779Y2601D01*
X-5385D01*
X-6277Y2200D02*
Y2533D01*
X-3995Y1195D02*
X-3870Y1070D01*
X-3995Y1195D02*
Y1311D01*
X-4105Y1422D02*
X-3995Y1311D01*
X-4105Y1422D02*
Y1715D01*
X-4302Y1272D02*
Y1715D01*
X864Y2438D02*
Y4576D01*
X191Y1765D02*
X864Y2438D01*
X-1115Y1765D02*
X191D01*
X-2874Y6D02*
X-1115Y1765D01*
X1376Y4576D02*
Y4796D01*
X-2900Y1250D02*
X-2727Y1423D01*
X-3130Y950D02*
X-2900Y1180D01*
X-2727Y1423D02*
Y1715D01*
X-3130Y754D02*
Y950D01*
X-2235Y2010D02*
X90D01*
X6136Y4278D02*
X6250Y4392D01*
X5287Y4278D02*
X6136D01*
X-453Y2207D02*
X-380Y2280D01*
X-2235Y2207D02*
X-453D01*
X-1010Y-3340D02*
X-863Y-3487D01*
X-346D01*
X-315Y-3518D01*
X6033Y5393D02*
X6240Y5600D01*
X5760Y5393D02*
X6033D01*
X4982Y5174D02*
X5201Y5393D01*
X2816Y5079D02*
X2850Y5113D01*
X-3365Y-860D02*
X-2540D01*
X-5710Y-4413D02*
Y-4050D01*
X-3520Y1710D02*
X-3515Y1715D01*
X-3520Y1410D02*
Y1710D01*
X-3600Y1330D02*
X-3520Y1410D01*
X-3600Y400D02*
Y1330D01*
X-3910Y90D02*
X-3600Y400D01*
X-3910Y-1150D02*
Y90D01*
X-5560Y2207D02*
X-5385D01*
X-5766Y2001D02*
X-5560Y2207D01*
X-6330Y220D02*
X-5766Y784D01*
X-3649Y-576D02*
X-3365Y-860D01*
X-3649Y-257D02*
X-3386Y6D01*
X-3649Y-576D02*
Y-257D01*
X-4636Y-3902D02*
X-4404Y-3670D01*
X-4320D01*
X-2393Y-6163D02*
Y-5750D01*
X-2460Y-6230D02*
X-2393Y-6163D01*
X-2104Y-5750D02*
X-1960Y-5894D01*
X-2393Y-5750D02*
X-2104D01*
X-2310Y-5190D02*
X-1960Y-5540D01*
X-2393Y-5190D02*
X-2310D01*
X-4499Y4865D02*
Y6190D01*
X-1960Y-5540D02*
X-968D01*
X-512Y-5084D01*
Y-5017D01*
X4588Y3186D02*
X4785D01*
X4982Y4869D02*
X5287D01*
X-770Y-2760D02*
X-405Y-3125D01*
X-315D01*
X315D02*
X415D01*
X780Y-2760D01*
X850Y-3480D02*
X1218Y-3112D01*
X1303D01*
X1697D02*
X1713D01*
X1791Y-4175D02*
X1945Y-4021D01*
X1179Y-4175D02*
X1791D01*
X1713Y-3112D02*
X1945Y-3345D01*
Y-4021D02*
Y-3345D01*
X1035Y-4031D02*
X1179Y-4175D01*
X1035Y-4031D02*
Y-3829D01*
X1303Y-3560D01*
Y-3400D01*
X1280Y-3930D02*
X1500Y-3710D01*
Y-3408D01*
X1697Y-3917D02*
Y-3408D01*
X315Y-3322D02*
X648D01*
X-648D02*
X-315D01*
X-1634Y-2336D02*
X-648Y-3322D01*
X-1634Y-2336D02*
Y0D01*
X648Y-3322D02*
X1634Y-2336D01*
Y0D01*
X-853Y-3715D02*
X-315D01*
X-1660D02*
X-1207D01*
X-2186Y-4070D02*
X-1660D01*
X-2186D02*
Y-3737D01*
X-2383Y-3540D02*
X-2186Y-3737D01*
X-2934Y-4070D02*
Y-3737D01*
X-2737Y-3540D01*
X-3183D02*
X-2737D01*
X-3891Y-4050D02*
Y-3686D01*
X-3990Y-3587D02*
X-3891Y-3686D01*
X-5148Y-4292D02*
Y-3902D01*
Y-4292D02*
X-5050Y-4390D01*
X-4231D01*
X-3891Y-4050D01*
X-4243Y-3233D02*
X-3990D01*
X-4430Y-3420D02*
X-4243Y-3233D01*
X-4700Y-3420D02*
X-4430D01*
X-4892Y-3612D02*
X-4700Y-3420D01*
X-4892Y-3902D02*
Y-3612D01*
X-6060Y-3420D02*
X-4700D01*
X-6060Y-3066D02*
Y-2647D01*
Y-2293D02*
X-4980D01*
X-4892Y-2918D02*
Y-2295D01*
X-4937Y-2250D02*
X-4892Y-2295D01*
X-4583Y-2865D02*
Y-2250D01*
Y-1750D01*
X-5514D02*
X-4937D01*
X-6026D02*
Y-1456D01*
X-5849Y-1279D01*
X-6065Y-190D02*
Y-138D01*
X-5577Y350D01*
Y840D01*
X-6330Y-1446D02*
X-6026Y-1750D01*
X-4288Y-2570D02*
X-3927D01*
X-4636Y-2918D02*
X-4583Y-2865D01*
X-4288Y-2570D01*
X-3137Y-1860D02*
Y-1324D01*
X-3649Y-1703D02*
Y-1324D01*
Y-1703D02*
X-3491Y-1860D01*
X-4593Y-1406D02*
Y-1279D01*
X-4937Y-1750D02*
X-4593Y-1406D01*
X-4957Y-915D02*
Y-760D01*
Y-915D02*
X-4593Y-1279D01*
X-5240D02*
Y-563D01*
X-4947Y-270D01*
X-5849Y-1279D02*
X-5240D01*
X-4947D01*
X-4593Y-270D02*
Y-137D01*
X-4740Y10D02*
X-4593Y-137D01*
X-5275Y10D02*
X-4740D01*
X-5475Y-190D02*
X-5275Y10D01*
X-3736Y-1324D02*
X-3649D01*
X-3910Y-1150D02*
X-3736Y-1324D01*
X-6026Y-1002D02*
Y-604D01*
X-5148Y-2918D02*
Y-2692D01*
X-5298Y-2542D02*
X-5148Y-2692D01*
X-5642Y-2542D02*
X-5298D01*
X-5690Y-2590D02*
X-5642Y-2542D01*
X-5770Y-1970D02*
Y-1750D01*
X-1591Y3630D02*
X-1420D01*
X-2235Y2995D02*
Y3010D01*
Y2798D02*
X-1748D01*
X-2235Y2601D02*
X-1978D01*
X-1817Y2440D01*
X-663Y2548D02*
X-424Y2787D01*
Y2845D01*
X57D01*
X-876Y3415D02*
Y3584D01*
X-730Y3730D01*
X-1981Y3979D02*
X-1890Y4070D01*
X-2235Y3979D02*
X-1981D01*
X-1890Y4070D02*
Y4860D01*
X-2235Y3979D02*
Y4176D01*
Y4373D01*
Y4570D02*
Y5342D01*
X-3318Y1252D02*
Y1715D01*
X-315Y-3518D02*
X315D01*
X-2530Y4865D02*
Y5310D01*
X3130Y2712D02*
X3604Y3186D01*
X3130Y2507D02*
Y2712D01*
X2870Y3277D02*
X3085D01*
X3299Y3491D01*
X5598Y3180D02*
X6250D01*
X5287Y3491D02*
X5598Y3180D01*
X5287Y3688D02*
X6146D01*
X6250Y3584D01*
X5287Y3885D02*
X6147D01*
X6250Y3988D01*
X5287Y4475D02*
X5929D01*
X6250Y4796D01*
X-1100Y3192D02*
X-876Y3415D01*
X-730Y3730D02*
X63D01*
X3299Y4672D02*
Y4869D01*
Y4672D02*
X3801D01*
X3860Y4613D01*
X4293Y4180D01*
X-3908Y4865D02*
Y5492D01*
X-3600Y5800D01*
X-2683Y-4330D02*
X-2570D01*
X-2934Y-4581D02*
X-2683Y-4330D01*
X-2020Y-4980D02*
Y-4747D01*
X-2186Y-4581D02*
X-2020Y-4747D01*
X-5646Y-3660D02*
X-5404Y-3902D01*
X-5780Y-3660D02*
X-5646D01*
X-256Y-5416D02*
Y-5017D01*
X0Y-5390D02*
Y-5017D01*
Y-5390D02*
X120Y-5510D01*
X1500Y-3112D02*
Y-2840D01*
X1600Y-2740D01*
X1945Y-3345D02*
Y-2525D01*
X2642Y3049D02*
X2870Y3277D01*
X2642Y2118D02*
X3320Y1440D01*
X2642Y2118D02*
Y3049D01*
X-6108Y2798D02*
X-5385D01*
X-6250Y2940D02*
X-6108Y2798D01*
X2870Y2413D02*
Y2923D01*
Y2413D02*
X3130Y2153D01*
X-5223Y350D02*
Y590D01*
Y840D01*
Y590D02*
X-4600D01*
X-4370Y360D01*
X-5623Y5980D02*
X-5287D01*
X-5977D02*
X-5729Y6228D01*
X-5143D01*
X-4915Y6000D01*
X-4913D01*
X1890Y4380D02*
X2183D01*
X1820Y4450D02*
X1890Y4380D01*
X6250Y1830D02*
Y3180D01*
X-1211Y2600D02*
X-1210D01*
X-1130Y2520D01*
X-691D01*
X-5443Y5240D02*
X-5393D01*
X-5090Y4937D01*
X-2530Y5310D02*
X-2500Y5341D01*
Y5510D01*
X-4302Y4865D02*
Y5808D01*
X-6210Y5270D02*
X-6197Y5283D01*
X-4893Y4865D02*
Y5092D01*
X-5963Y2995D02*
X-5385D01*
X-6200Y3232D02*
X-5963Y2995D01*
X-6270Y3232D02*
X-6200D01*
X-5629Y3388D02*
X-5385D01*
X-5786Y3232D02*
X-5629Y3388D01*
X-5840Y3508D02*
Y3740D01*
X-5933Y3833D02*
X-5840Y3740D01*
X-6270Y3508D02*
Y3830D01*
X-5933Y4167D02*
Y4480D01*
X-5558Y3782D02*
X-5385D01*
X-5690Y3914D02*
X-5558Y3782D01*
X-5690Y3914D02*
Y4680D01*
X-5768Y4758D02*
X-5690Y4680D01*
X-5930Y4758D02*
X-5768D01*
X-6267Y4167D02*
Y4647D01*
X4982Y3186D02*
X5366D01*
X5677Y2875D01*
X5750D01*
Y1867D02*
Y2285D01*
X4293Y4180D02*
X4726Y3747D01*
X4293Y4180D02*
X4982Y4869D01*
X4588Y3186D02*
Y3609D01*
X4726Y3747D01*
X3801Y3041D02*
Y3186D01*
X3358Y2598D02*
X3801Y3041D01*
X3320Y1440D02*
X3358Y1478D01*
X4195Y3015D02*
Y3186D01*
Y3015D02*
X4815Y2395D01*
X4913D02*
X5065D01*
X5320Y2140D01*
X3998Y3012D02*
Y3186D01*
X3518Y2532D02*
X3998Y3012D01*
X3518Y2266D02*
Y2532D01*
X5320Y1333D02*
Y2140D01*
X5207Y1220D02*
X5320Y1333D01*
X4207Y1200D02*
Y1577D01*
X3518Y2266D02*
X4207Y1577D01*
X3358Y2012D02*
Y2598D01*
Y2012D02*
X3530Y1840D01*
X6090Y1670D02*
X6250Y1830D01*
X-5926Y2197D02*
X-5923Y2200D01*
X-5926Y1944D02*
Y2197D01*
X-6030Y1840D02*
X-5926Y1944D01*
D12*
X3299Y3885D02*
D03*
Y4082D02*
D03*
Y3491D02*
D03*
Y3688D02*
D03*
Y4278D02*
D03*
Y4475D02*
D03*
Y4672D02*
D03*
Y4869D02*
D03*
X5287D02*
D03*
Y4672D02*
D03*
Y4475D02*
D03*
Y4278D02*
D03*
Y4082D02*
D03*
Y3885D02*
D03*
Y3688D02*
D03*
Y3491D02*
D03*
D13*
X2357Y5170D02*
D03*
X2003D02*
D03*
X1123Y4110D02*
D03*
X1477D02*
D03*
X77Y5050D02*
D03*
X-277D02*
D03*
X-5977Y5980D02*
D03*
X-5623D02*
D03*
X-6197Y5580D02*
D03*
X-5843D02*
D03*
X-5923Y2200D02*
D03*
X-6277D02*
D03*
X-2747Y-5750D02*
D03*
X-2393D02*
D03*
X-2747Y-5190D02*
D03*
X-2393D02*
D03*
X5603Y1120D02*
D03*
X5957D02*
D03*
X-3491Y-1860D02*
D03*
X-3137D02*
D03*
X-2753Y-2350D02*
D03*
X-3107D02*
D03*
X-4603Y-760D02*
D03*
X-4957D02*
D03*
X-4947Y-1279D02*
D03*
X-4593D02*
D03*
X-4937Y-1750D02*
D03*
X-4583D02*
D03*
X-3573Y-2570D02*
D03*
X-3927D02*
D03*
X-4583Y-2250D02*
D03*
X-4937D02*
D03*
X-3891Y-4050D02*
D03*
X-3537D02*
D03*
X-2737Y-3540D02*
D03*
X-2383D02*
D03*
X-1207Y-3715D02*
D03*
X-853D02*
D03*
X-3537Y-3540D02*
D03*
X-3183D02*
D03*
X63Y2850D02*
D03*
X417D02*
D03*
Y3730D02*
D03*
X63D02*
D03*
X-4593Y-270D02*
D03*
X-4947D02*
D03*
X-5223Y840D02*
D03*
X-5577D02*
D03*
X-5223Y350D02*
D03*
X-5577D02*
D03*
X-5797Y5240D02*
D03*
X-5443D02*
D03*
X-4913Y6000D02*
D03*
X-5267D02*
D03*
X-1873Y5350D02*
D03*
X-2227D02*
D03*
X-1463Y2440D02*
D03*
X-1817D02*
D03*
X4853Y1220D02*
D03*
X5207D02*
D03*
X4207Y1200D02*
D03*
X3853D02*
D03*
D14*
X2517Y4577D02*
D03*
Y4380D02*
D03*
Y4183D02*
D03*
X2183D02*
D03*
Y4380D02*
D03*
Y4577D02*
D03*
D15*
X-2235Y3585D02*
D03*
Y3782D02*
D03*
X-5385Y4570D02*
D03*
Y4373D02*
D03*
Y4176D02*
D03*
Y3979D02*
D03*
Y3782D02*
D03*
Y3585D02*
D03*
Y3388D02*
D03*
Y3192D02*
D03*
Y2995D02*
D03*
Y2798D02*
D03*
Y2601D02*
D03*
Y2404D02*
D03*
Y2207D02*
D03*
Y2010D02*
D03*
X-2235D02*
D03*
Y2207D02*
D03*
Y2404D02*
D03*
Y2601D02*
D03*
Y2798D02*
D03*
Y2995D02*
D03*
Y3192D02*
D03*
Y3388D02*
D03*
Y3979D02*
D03*
Y4176D02*
D03*
Y4373D02*
D03*
Y4570D02*
D03*
D16*
X2850Y5467D02*
D03*
Y5113D02*
D03*
X-5710Y-4767D02*
D03*
Y-4413D02*
D03*
X-6060Y-2647D02*
D03*
Y-2293D02*
D03*
Y-3066D02*
D03*
Y-3420D02*
D03*
X-3990Y-3233D02*
D03*
Y-3587D02*
D03*
X-1660Y-4070D02*
D03*
Y-3715D02*
D03*
X5760Y5747D02*
D03*
Y5393D02*
D03*
X3130Y2153D02*
D03*
Y2507D02*
D03*
X2870Y2923D02*
D03*
Y3277D02*
D03*
X5750Y1867D02*
D03*
Y1513D02*
D03*
X-1960Y-5540D02*
D03*
Y-5894D02*
D03*
D17*
X5750Y2285D02*
D03*
Y2875D02*
D03*
D18*
X-3649Y-576D02*
D03*
X-3137D02*
D03*
Y-1324D02*
D03*
X-3393D02*
D03*
X-3649D02*
D03*
X-6026Y-1002D02*
D03*
X-5514D02*
D03*
Y-1750D02*
D03*
X-5770D02*
D03*
X-6026D02*
D03*
X-2874Y6D02*
D03*
X-3386D02*
D03*
Y754D02*
D03*
X-3130D02*
D03*
X-2874D02*
D03*
X1376Y4576D02*
D03*
X864D02*
D03*
Y5324D02*
D03*
X1120D02*
D03*
X1376D02*
D03*
X1120Y4576D02*
D03*
D19*
X-5404Y-3902D02*
D03*
X-5148D02*
D03*
X-4892D02*
D03*
X-4636D02*
D03*
X-5404Y-2918D02*
D03*
X-5148D02*
D03*
X-4892D02*
D03*
X-4636D02*
D03*
D20*
X1303Y-3400D02*
D03*
D21*
X1500Y-3408D02*
D03*
X1697D02*
D03*
Y-3112D02*
D03*
X1500D02*
D03*
X1303D02*
D03*
D22*
X0Y-3814D02*
D03*
Y-3026D02*
D03*
D23*
X-315Y-3715D02*
D03*
Y-3518D02*
D03*
Y-3322D02*
D03*
Y-3125D02*
D03*
X315D02*
D03*
Y-3322D02*
D03*
Y-3518D02*
D03*
Y-3715D02*
D03*
D24*
X-2934Y-4581D02*
D03*
Y-4070D02*
D03*
X-2186D02*
D03*
Y-4326D02*
D03*
Y-4581D02*
D03*
D25*
X-512Y-5017D02*
D03*
X-256D02*
D03*
X512D02*
D03*
X256D02*
D03*
X0D02*
D03*
D26*
X472Y-6070D02*
D03*
X-472D02*
D03*
D27*
X1260Y-5086D02*
D03*
X-1260D02*
D03*
D28*
X-5090Y1715D02*
D03*
X-4893D02*
D03*
X-4696D02*
D03*
X-4499D02*
D03*
X-4302D02*
D03*
X-4105D02*
D03*
X-3908D02*
D03*
X-3712D02*
D03*
X-3515D02*
D03*
X-3318D02*
D03*
X-3121D02*
D03*
X-2924D02*
D03*
X-2727D02*
D03*
X-2530D02*
D03*
Y4865D02*
D03*
X-2727D02*
D03*
X-2924D02*
D03*
X-3121D02*
D03*
X-3318D02*
D03*
X-3515D02*
D03*
X-3712D02*
D03*
X-3908D02*
D03*
X-4105D02*
D03*
X-4302D02*
D03*
X-4499D02*
D03*
X-4696D02*
D03*
X-4893D02*
D03*
X-5090D02*
D03*
D29*
X-3810Y3290D02*
D03*
D30*
X-764Y4336D02*
D03*
X-1020D02*
D03*
X-1276D02*
D03*
X-1276Y5044D02*
D03*
X-1020D02*
D03*
X-764D02*
D03*
D31*
X2122Y3542D02*
D03*
Y2778D02*
D03*
X1358D02*
D03*
Y3542D02*
D03*
D32*
X4293Y4180D02*
D03*
D33*
X4982Y3186D02*
D03*
X4785D02*
D03*
X4588D02*
D03*
X4392D02*
D03*
X4195D02*
D03*
X3998D02*
D03*
X3801D02*
D03*
X3604D02*
D03*
Y5174D02*
D03*
X3801D02*
D03*
X3998D02*
D03*
X4195D02*
D03*
X4392D02*
D03*
X4588D02*
D03*
X4785D02*
D03*
X4982D02*
D03*
D34*
X-424Y3415D02*
D03*
Y2845D02*
D03*
X-876D02*
D03*
Y3415D02*
D03*
D35*
X4913Y2395D02*
D03*
X4047D02*
D03*
Y1765D02*
D03*
X4913D02*
D03*
D36*
X-5475Y-190D02*
D03*
X-6065D02*
D03*
D37*
X5349Y-2345D02*
D03*
X2711D02*
D03*
D38*
X4424Y-160D02*
D03*
X3636D02*
D03*
D39*
X-6270Y3508D02*
D03*
Y3232D02*
D03*
X-5840Y3508D02*
D03*
Y3232D02*
D03*
X-5930Y4482D02*
D03*
Y4758D02*
D03*
D40*
X-6267Y4167D02*
D03*
X-5933D02*
D03*
X-6267Y3833D02*
D03*
X-5933D02*
D03*
D41*
X1970Y-2064D02*
Y-1826D01*
X3636Y-160D01*
X-512Y-5017D02*
Y-4392D01*
X1970Y-2064D02*
X2031Y-2124D01*
D42*
X3604Y5174D02*
Y5636D01*
X3998Y5174D02*
Y5842D01*
X4195Y5174D02*
Y5849D01*
X4392Y5174D02*
Y5851D01*
X-4105Y4865D02*
Y5655D01*
X4588Y5174D02*
Y5852D01*
X3470Y5770D02*
X3604Y5636D01*
X3930Y5910D02*
X3998Y5842D01*
X3994Y6050D02*
X4195Y5849D01*
X4052Y6190D02*
X4392Y5851D01*
X-4105Y5655D02*
X-3570Y6190D01*
X4110Y6330D02*
X4588Y5852D01*
X-4030Y6080D02*
X-3780Y6330D01*
X4110D01*
X-3570Y6190D02*
X4052D01*
X-3350Y6050D02*
X3994D01*
X-3140Y5910D02*
X3930D01*
X-2950Y5770D02*
X3470D01*
X-3600Y5800D02*
X-3350Y6050D01*
X-3170Y5550D02*
X-2950Y5770D01*
X-3270Y5780D02*
X-3140Y5910D01*
X-3712Y4865D02*
Y5338D01*
X-3270Y5780D01*
X-3515Y4865D02*
Y5337D01*
X-3302Y5550D01*
X-3170D01*
X-2924Y4865D02*
Y5054D01*
X-3140Y5270D02*
X-2924Y5054D01*
X-2727Y4865D02*
Y5407D01*
X-2820Y5500D02*
X-2727Y5407D01*
X4392Y3049D02*
Y3186D01*
Y3049D02*
X4502Y2938D01*
X5040D01*
X5042Y2940D01*
X5333D01*
X5957Y1120D02*
Y1306D01*
X5750Y1513D02*
X5957Y1306D01*
X5333Y2940D02*
X5470Y2803D01*
Y1793D02*
X5750Y1513D01*
X5470Y1793D02*
Y2803D01*
D43*
X1634Y0D02*
D03*
X-1634D02*
D03*
D44*
X1250Y-6070D02*
D03*
X-1250D02*
D03*
D45*
X-190Y5450D02*
D03*
X-6040Y-590D02*
D03*
X2790Y4770D02*
D03*
X1800Y4050D02*
D03*
X-6060Y-4410D02*
D03*
Y-3980D02*
D03*
X-2460Y1200D02*
D03*
X-1730Y2780D02*
D03*
X80Y-2210D02*
D03*
X-2830Y-590D02*
D03*
X-3455Y-6100D02*
D03*
X-350Y-5510D02*
D03*
X-5514Y-600D02*
D03*
X-5237Y-2027D02*
D03*
X-4910Y1340D02*
D03*
X-4880Y970D02*
D03*
X-5320Y1250D02*
D03*
X50Y4580D02*
D03*
X-350D02*
D03*
X5700Y4770D02*
D03*
X2230Y-3470D02*
D03*
X-5830Y2550D02*
D03*
X-5090Y5640D02*
D03*
X-4240Y1210D02*
D03*
X-3870Y1070D02*
D03*
X450Y4580D02*
D03*
X-2900Y1250D02*
D03*
X90Y2010D02*
D03*
X-380Y2280D02*
D03*
X-4030Y6080D02*
D03*
X-1010Y-3340D02*
D03*
X-6240Y1330D02*
D03*
X-6210Y5270D02*
D03*
X5390Y6080D02*
D03*
X-6250Y2560D02*
D03*
X-6030Y1840D02*
D03*
X-2520Y-880D02*
D03*
X-4210Y-330D02*
D03*
X-2460Y-6230D02*
D03*
X-1580Y5140D02*
D03*
X-5470Y5610D02*
D03*
X6250Y4796D02*
D03*
Y4392D02*
D03*
Y3988D02*
D03*
Y3584D02*
D03*
Y3180D02*
D03*
X1950Y-2520D02*
D03*
X850Y-3480D02*
D03*
X1280Y-3930D02*
D03*
X1700Y-3920D02*
D03*
X780Y-2760D02*
D03*
X-770D02*
D03*
X-4893Y4373D02*
D03*
X-4460D02*
D03*
X-4027D02*
D03*
X-3593D02*
D03*
X-3160D02*
D03*
X-2727D02*
D03*
X-4893Y3940D02*
D03*
X-4460D02*
D03*
X-4027D02*
D03*
X-3593D02*
D03*
X-3160D02*
D03*
X-2727D02*
D03*
X-4893Y3507D02*
D03*
X-4460D02*
D03*
X-4027D02*
D03*
X-3593D02*
D03*
X-3160D02*
D03*
X-2727D02*
D03*
X-4893Y3073D02*
D03*
X-4460D02*
D03*
X-4027D02*
D03*
X-3593D02*
D03*
X-3160D02*
D03*
X-2727D02*
D03*
X-4893Y2640D02*
D03*
X-4460D02*
D03*
X-4027D02*
D03*
X-3593D02*
D03*
X-3160D02*
D03*
X-2727D02*
D03*
X-4893Y2207D02*
D03*
X-4460D02*
D03*
X-4027D02*
D03*
X-3593D02*
D03*
X-3160D02*
D03*
X-2727D02*
D03*
X3860Y4613D02*
D03*
X4293D02*
D03*
X4726D02*
D03*
X3860Y4180D02*
D03*
X4293D02*
D03*
X4726D02*
D03*
X3860Y3747D02*
D03*
X4293D02*
D03*
X4726D02*
D03*
X-5780Y-3660D02*
D03*
X-5690Y-2590D02*
D03*
X-4500Y950D02*
D03*
X-4320Y-3670D02*
D03*
X-3320Y1250D02*
D03*
X-1420Y3630D02*
D03*
X-1890Y4860D02*
D03*
X6240Y5600D02*
D03*
X-340Y4150D02*
D03*
X-1080Y3890D02*
D03*
X-3600Y5800D02*
D03*
X-4499Y6190D02*
D03*
X-510Y-4390D02*
D03*
X2060Y-5790D02*
D03*
X2050Y-5290D02*
D03*
X-2570Y-4330D02*
D03*
X-2020Y-4980D02*
D03*
X-4190Y690D02*
D03*
X-5740Y-4020D02*
D03*
X120Y-5510D02*
D03*
X1600Y-2740D02*
D03*
X3320Y1440D02*
D03*
X-6250Y2940D02*
D03*
X-4370Y360D02*
D03*
X-1960Y-6230D02*
D03*
X-2820Y5500D02*
D03*
X-2500Y5510D02*
D03*
X-3270Y5780D02*
D03*
X-3140Y5270D02*
D03*
X6010Y-2670D02*
D03*
X3184Y-4390D02*
D03*
Y-4823D02*
D03*
Y-5257D02*
D03*
Y-5690D02*
D03*
X3617Y-4390D02*
D03*
Y-4823D02*
D03*
Y-5257D02*
D03*
Y-5690D02*
D03*
X4050Y-4390D02*
D03*
Y-4823D02*
D03*
Y-5257D02*
D03*
Y-5690D02*
D03*
X4483Y-4390D02*
D03*
Y-4823D02*
D03*
Y-5257D02*
D03*
Y-5690D02*
D03*
X4916Y-4390D02*
D03*
Y-4823D02*
D03*
Y-5257D02*
D03*
Y-5690D02*
D03*
X6000Y-4790D02*
D03*
Y-4290D02*
D03*
X6090Y1670D02*
D03*
D46*
X1820Y4450D02*
D03*
X630Y-2040D02*
D03*
D47*
X2280Y5530D02*
D03*
X-6270Y4650D02*
D03*
X3530Y1840D02*
D03*
X2570Y-3230D02*
D03*
D48*
X-4640Y-5040D02*
D03*
D49*
X4730Y-1370D02*
D03*
X1970Y-2064D02*
D03*
M02*
